<svg width="143" height="38" viewBox="0 0 143 38" fill="none" xmlns="http://www.w3.org/2000/svg">
<path d="M142.5 25.8512L126.224 37.5H0.5V0.5H142.5V25.8512Z" stroke="#FF595A"/>
<path d="M13.23 23H12.23V24H13.23V23ZM13.23 11.9V10.9H12.23V11.9H13.23ZM15.3 21.395H14.3V22.395H15.3V21.395ZM15.3 13.505V12.505H14.3V13.505H15.3ZM13.23 24H16.83V22H13.23V24ZM16.83 24C18.7747 24 20.4447 23.4203 21.6295 22.2378C22.8146 21.055 23.395 19.3883 23.395 17.45H21.395C21.395 18.9917 20.9404 20.1 20.2167 20.8222C19.4928 21.5447 18.3803 22 16.83 22V24ZM23.395 17.45C23.395 15.5117 22.8146 13.845 21.6295 12.6622C20.4447 11.4797 18.7747 10.9 16.83 10.9V12.9C18.3803 12.9 19.4928 13.3553 20.2167 14.0778C20.9404 14.8 21.395 15.9083 21.395 17.45H23.395ZM16.83 10.9H13.23V12.9H16.83V10.9ZM12.23 11.9V23H14.23V11.9H12.23ZM16.3 21.395V13.505H14.3V21.395H16.3ZM15.3 14.505H16.95V12.505H15.3V14.505ZM16.95 14.505C17.7304 14.505 18.2581 14.7713 18.6092 15.191C18.9801 15.6343 19.25 16.366 19.25 17.45H21.25C21.25 16.059 20.9049 14.8182 20.1433 13.9077C19.3619 12.9737 18.2396 12.505 16.95 12.505V14.505ZM19.25 17.45C19.25 18.534 18.9801 19.2657 18.6092 19.709C18.2581 20.1287 17.7304 20.395 16.95 20.395V22.395C18.2396 22.395 19.3619 21.9263 20.1433 20.9923C20.9049 20.0818 21.25 18.841 21.25 17.45H19.25ZM16.95 20.395H15.3V22.395H16.95V20.395ZM31.0103 20.315L31.999 20.4646L32.1729 19.315H31.0103V20.315ZM29.0903 20.315V19.315H28.2991L28.1171 20.085L29.0903 20.315ZM25.5203 19.46V18.46H24.4644L24.5217 19.5143L25.5203 19.46ZM31.0103 19.46V20.46H32.0103V19.46H31.0103ZM29.0753 18.785V19.785H30.175L30.0708 18.6902L29.0753 18.785ZM25.5353 18.785L24.541 18.6785L24.4224 19.785H25.5353V18.785ZM32.0103 19.235C32.0103 17.8164 31.6126 16.5649 30.7577 15.6619C29.896 14.7517 28.6874 14.32 27.3203 14.32V16.32C28.2632 16.32 28.8996 16.6083 29.3054 17.0369C29.7179 17.4726 30.0103 18.1786 30.0103 19.235H32.0103ZM27.3203 14.32C25.9417 14.32 24.7255 14.7495 23.8586 15.6597C22.998 16.5634 22.6003 17.8164 22.6003 19.235H24.6003C24.6003 18.1786 24.8926 17.4741 25.3069 17.039C25.715 16.6105 26.3588 16.32 27.3203 16.32V14.32ZM22.6003 19.235C22.6003 20.6475 22.9987 21.8992 23.8577 22.8036C24.7232 23.715 25.9388 24.15 27.3203 24.15V22.15C26.3618 22.15 25.7174 21.8575 25.3079 21.4264C24.8919 20.9883 24.6003 20.2825 24.6003 19.235H22.6003ZM27.3203 24.15C28.5083 24.15 29.5918 23.8435 30.4373 23.1956C31.2937 22.5394 31.8287 21.5906 31.999 20.4646L30.0215 20.1654C29.9218 20.8244 29.6319 21.2931 29.2208 21.6081C28.7987 21.9315 28.1723 22.15 27.3203 22.15V24.15ZM31.0103 19.315H29.0903V21.315H31.0103V19.315ZM28.1171 20.085C28.0672 20.2959 27.9739 20.4208 27.8738 20.4972C27.7715 20.5754 27.5999 20.65 27.3203 20.65V22.65C27.9706 22.65 28.5865 22.4696 29.088 22.0865C29.5916 21.7017 29.9183 21.1591 30.0635 20.545L28.1171 20.085ZM27.3203 20.65C27.0688 20.65 26.9284 20.5679 26.8223 20.4384C26.6921 20.2797 26.549 19.9619 26.5188 19.4057L24.5217 19.5143C24.5665 20.3381 24.7909 21.1153 25.2758 21.7066C25.7846 22.3271 26.5067 22.65 27.3203 22.65V20.65ZM25.5203 20.46H31.0103V18.46H25.5203V20.46ZM32.0103 19.46V19.235H30.0103V19.46H32.0103ZM27.3203 17.805C27.5501 17.805 27.6796 17.8777 27.7766 17.9869C27.8939 18.1188 28.033 18.3889 28.0798 18.8798L30.0708 18.6902C29.9975 17.9211 29.7541 17.2012 29.2714 16.6581C28.7685 16.0923 28.0804 15.805 27.3203 15.805V17.805ZM29.0753 17.785H25.5353V19.785H29.0753V17.785ZM26.5296 18.8915C26.5825 18.3975 26.7242 18.1255 26.8448 17.9915C26.9446 17.8806 27.0791 17.805 27.3203 17.805V15.805C26.5564 15.805 25.866 16.0894 25.3582 16.6535C24.8714 17.1945 24.623 17.9125 24.541 18.6785L26.5296 18.8915ZM35.9503 18.41L35.7809 19.3956L35.7841 19.3961L35.9503 18.41ZM36.8503 17.795H35.8503V18.795H36.8503V17.795ZM38.6953 17.795V18.795H39.6953V17.795H38.6953ZM35.1253 19.79L35.2897 18.8036L35.2842 18.8027L35.1253 19.79ZM33.9103 20.555H34.9103V19.555H33.9103V20.555ZM32.0653 20.555V19.555H31.0653V20.555H32.0653ZM35.4853 24.15C36.6846 24.15 37.7718 23.8924 38.5868 23.3014C39.4401 22.6825 39.9053 21.7591 39.9053 20.675H37.9053C37.9053 21.1359 37.733 21.45 37.4126 21.6824C37.0538 21.9426 36.431 22.15 35.4853 22.15V24.15ZM39.9053 20.675C39.9053 20.0737 39.7656 19.5363 39.4805 19.0779C39.1978 18.6234 38.8112 18.309 38.4131 18.0884C37.6625 17.6725 36.7396 17.5289 36.1165 17.4239L35.7841 19.3961C36.4961 19.5161 37.0506 19.62 37.4438 19.8378C37.6176 19.9341 37.7193 20.0331 37.7822 20.1341C37.8425 20.2312 37.9053 20.3913 37.9053 20.675H39.9053ZM36.1197 17.4245C35.8727 17.382 35.6656 17.3466 35.4799 17.306C35.2927 17.2651 35.1689 17.2274 35.0892 17.1935C35.0068 17.1585 35.0296 17.1516 35.0756 17.2065C35.1402 17.2836 35.1653 17.3784 35.1653 17.435H33.1653C33.1653 17.8291 33.2935 18.1939 33.5429 18.4913C33.7735 18.7665 34.0625 18.9303 34.3064 19.034C34.7648 19.2289 35.3471 19.321 35.7809 19.3955L36.1197 17.4245ZM35.1653 17.435C35.1653 17.4491 35.1609 17.4909 35.1339 17.5405C35.1075 17.5891 35.0776 17.6118 35.0722 17.6154C35.07 17.6168 35.0959 17.5993 35.1679 17.5818C35.2394 17.5643 35.3438 17.55 35.4853 17.55V15.55C34.9595 15.55 34.4097 15.6521 33.9597 15.9534C33.4654 16.2842 33.1653 16.812 33.1653 17.435H35.1653ZM35.4853 17.55C35.6184 17.55 35.706 17.5674 35.7577 17.5842C35.7831 17.5924 35.7991 17.6001 35.8081 17.6052C35.8168 17.6102 35.8202 17.6132 35.8205 17.6135C35.8207 17.6137 35.8205 17.6134 35.8207 17.6138C35.821 17.6142 35.8238 17.6183 35.8276 17.6281C35.8354 17.6481 35.8503 17.6992 35.8503 17.795H37.8503C37.8503 17.184 37.6534 16.5779 37.1676 16.1352C36.6956 15.7051 36.0828 15.55 35.4853 15.55V17.55ZM36.8503 18.795H38.6953V16.795H36.8503V18.795ZM39.6953 17.795C39.6953 16.7302 39.2708 15.8079 38.4535 15.1797C37.6703 14.5776 36.6257 14.32 35.4853 14.32V16.32C36.3549 16.32 36.9153 16.5199 37.2346 16.7653C37.5199 16.9846 37.6953 17.2998 37.6953 17.795H39.6953ZM35.4853 14.32C34.3507 14.32 33.3156 14.5568 32.5353 15.1097C31.7144 15.6913 31.2603 16.5671 31.2603 17.6H33.2603C33.2603 17.2079 33.4062 16.9437 33.6915 16.7416C34.0175 16.5107 34.5949 16.32 35.4853 16.32V14.32ZM31.2603 17.6C31.2603 18.1877 31.3952 18.7151 31.6737 19.1659C31.9502 19.6135 32.3292 19.9225 32.7198 20.1384C33.4546 20.5444 34.3574 20.6793 34.9664 20.7773L35.2842 18.8027C34.5883 18.6907 34.0585 18.5931 33.6871 18.3878C33.5246 18.2981 33.432 18.2068 33.3752 18.1149C33.3204 18.0261 33.2603 17.8748 33.2603 17.6H31.2603ZM34.9609 20.7764C35.2139 20.8186 35.4271 20.8545 35.6177 20.8971C35.8099 20.9401 35.937 20.9811 36.0188 21.0184C36.1 21.0555 36.0865 21.0665 36.0529 21.0227C36.0347 20.999 36.019 20.9698 36.0092 20.9396C35.9997 20.9103 36.0003 20.8944 36.0003 20.9H38.0003C38.0003 20.5001 37.8835 20.1234 37.6403 19.8061C37.4098 19.5054 37.1132 19.3195 36.8494 19.1991C36.3579 18.9747 35.7402 18.8787 35.2897 18.8036L34.9609 20.7764ZM36.0003 20.9C36.0003 20.9066 36.0001 20.8792 36.0216 20.84C36.0427 20.8014 36.0646 20.7884 36.0565 20.7936C36.0231 20.8155 35.8631 20.89 35.4853 20.89V22.89C36.0675 22.89 36.6651 22.7845 37.1491 22.4689C37.6848 22.1195 38.0003 21.5601 38.0003 20.9H36.0003ZM35.4853 20.89C35.1451 20.89 35.0084 20.8045 34.973 20.7745C34.9566 20.7606 34.946 20.7467 34.9367 20.725C34.9264 20.7008 34.9103 20.6486 34.9103 20.555H32.9103C32.9103 21.2233 33.1532 21.8541 33.6801 22.3005C34.1848 22.728 34.8355 22.89 35.4853 22.89V20.89ZM33.9103 19.555H32.0653V21.555H33.9103V19.555ZM31.0653 20.555C31.0653 21.6588 31.5063 22.6131 32.3604 23.2619C33.1783 23.8832 34.2746 24.15 35.4853 24.15V22.15C34.5361 22.15 33.9224 21.9368 33.5702 21.6693C33.2543 21.4294 33.0653 21.0862 33.0653 20.555H31.0653ZM47.6115 20.105L48.6008 20.2507L48.7696 19.105H47.6115V20.105ZM45.6615 20.105V19.105H44.8746L44.6896 19.8698L45.6615 20.105ZM45.6315 18.26L44.6719 18.5413L44.8826 19.26H45.6315V18.26ZM47.5815 18.26V19.26H48.7557L48.5688 18.1008L47.5815 18.26ZM43.8915 24.15C45.1167 24.15 46.2171 23.8244 47.0671 23.1257C47.9226 22.4225 48.4286 21.42 48.6008 20.2507L46.6222 19.9593C46.5094 20.725 46.2054 21.245 45.7972 21.5806C45.3835 21.9206 44.7664 22.15 43.8915 22.15V24.15ZM47.6115 19.105H45.6615V21.105H47.6115V19.105ZM44.6896 19.8698C44.6153 20.1769 44.4972 20.3392 44.3965 20.4241C44.3028 20.5031 44.1542 20.575 43.8915 20.575V22.575C44.5588 22.575 45.1828 22.3769 45.6853 21.9534C46.1809 21.5358 46.4828 20.9631 46.6335 20.3402L44.6896 19.8698ZM43.8915 20.575C43.5784 20.575 43.4151 20.4719 43.3058 20.3342C43.1723 20.1662 43.0315 19.8285 43.0315 19.235H41.0315C41.0315 20.1115 41.2357 20.9438 41.7398 21.5783C42.2679 22.2431 43.0347 22.575 43.8915 22.575V20.575ZM43.0315 19.235C43.0315 18.6415 43.1723 18.2978 43.3086 18.1247C43.4206 17.9824 43.5843 17.88 43.8915 17.88V15.88C43.0288 15.88 42.2625 16.2201 41.737 16.8878C41.2357 17.5247 41.0315 18.3585 41.0315 19.235H43.0315ZM43.8915 17.88C44.1325 17.88 44.2749 17.9453 44.3694 18.0217C44.4711 18.1038 44.5887 18.2575 44.6719 18.5413L46.5912 17.9787C46.4193 17.3925 46.1094 16.8562 45.6261 16.4658C45.1357 16.0697 44.5355 15.88 43.8915 15.88V17.88ZM45.6315 19.26H47.5815V17.26H45.6315V19.26ZM48.5688 18.1008C48.3852 16.9627 47.8686 15.991 47.0193 15.3116C46.1765 14.6374 45.0931 14.32 43.8915 14.32V16.32C44.745 16.32 45.3565 16.5426 45.77 16.8734C46.1769 17.199 46.4778 17.6973 46.5943 18.4192L48.5688 18.1008ZM43.8915 14.32C42.4764 14.32 41.2259 14.7477 40.3287 15.6499C39.4321 16.5515 39.0065 17.8082 39.0065 19.235H41.0065C41.0065 18.2018 41.3084 17.501 41.7469 17.0601C42.1847 16.6198 42.8766 16.32 43.8915 16.32V14.32ZM39.0065 19.235C39.0065 20.6618 39.4321 21.9185 40.3287 22.8201C41.2259 23.7223 42.4764 24.15 43.8915 24.15V22.15C42.8766 22.15 42.1847 21.8502 41.7469 21.4099C41.3084 20.969 41.0065 20.2682 41.0065 19.235H39.0065ZM54.3795 15.47V14.47H53.3795V15.47H54.3795ZM54.3795 18.05V19.05H55.3795V18.05H54.3795ZM54.3495 18.05H53.3495V19.05H54.3495V18.05ZM54.3495 20.405V19.405H53.3495V20.405H54.3495ZM54.3795 20.405H55.3795V19.405H54.3795V20.405ZM54.3795 23H53.3795V24H54.3795V23ZM56.3595 23V24H57.3595V23H56.3595ZM56.3595 15.47H57.3595V14.47H56.3595V15.47ZM53.3795 15.47V18.05H55.3795V15.47H53.3795ZM54.3795 17.05H54.3495V19.05H54.3795V17.05ZM55.3495 18.05C55.3495 17.0001 55.0376 16.0414 54.3497 15.3424C53.6599 14.6413 52.7085 14.32 51.6645 14.32V16.32C52.3004 16.32 52.6915 16.5087 52.9242 16.7451C53.1589 16.9836 53.3495 17.3899 53.3495 18.05H55.3495ZM51.6645 14.32C50.4341 14.32 49.3798 14.8088 48.6616 15.7472C47.9701 16.6507 47.6645 17.8713 47.6645 19.235H49.6645C49.6645 18.1387 49.9138 17.4018 50.2498 16.9628C50.5591 16.5587 51.0048 16.32 51.6645 16.32V14.32ZM47.6645 19.235C47.6645 20.5987 47.9701 21.8193 48.6616 22.7228C49.3798 23.6612 50.4341 24.15 51.6645 24.15V22.15C51.0048 22.15 50.5591 21.9113 50.2498 21.5072C49.9138 21.0682 49.6645 20.3313 49.6645 19.235H47.6645ZM51.6645 24.15C52.7085 24.15 53.6609 23.8286 54.3511 23.1243C55.0389 22.4226 55.3495 21.4601 55.3495 20.405H53.3495C53.3495 21.0749 53.1575 21.4849 52.9228 21.7244C52.6905 21.9614 52.3004 22.15 51.6645 22.15V24.15ZM54.3495 21.405H54.3795V19.405H54.3495V21.405ZM53.3795 20.405V23H55.3795V20.405H53.3795ZM54.3795 24H56.3595V22H54.3795V24ZM57.3595 23V15.47H55.3595V23H57.3595ZM56.3595 14.47H54.3795V16.47H56.3595V14.47ZM52.5795 20.575C52.2421 20.575 52.0663 20.4649 51.9528 20.3254C51.8169 20.1582 51.6745 19.8242 51.6745 19.235H49.6745C49.6745 20.1158 49.8845 20.9518 50.4011 21.5871C50.9401 22.2501 51.7168 22.575 52.5795 22.575V20.575ZM51.6745 19.235C51.6745 18.6458 51.8169 18.3058 51.9557 18.1336C52.0717 17.9896 52.2479 17.88 52.5795 17.88V15.88C51.711 15.88 50.9347 16.2129 50.3982 16.8789C49.8845 17.5167 49.6745 18.3542 49.6745 19.235H51.6745ZM52.5795 17.88C52.8843 17.88 53.0665 17.9882 53.1963 18.153C53.3468 18.3442 53.4845 18.6939 53.4845 19.235H55.4845C55.4845 18.3811 55.2696 17.5533 54.7677 16.9158C54.2449 16.2518 53.4746 15.88 52.5795 15.88V17.88ZM53.4845 19.235C53.4845 19.7664 53.3479 20.1122 53.1976 20.3022C53.0677 20.4664 52.8846 20.575 52.5795 20.575V22.575C53.4743 22.575 54.2437 22.2036 54.7663 21.5428C55.2686 20.9078 55.4845 20.0836 55.4845 19.235H53.4845ZM60.3219 18.575V19.575H61.3219V18.575H60.3219ZM60.2919 18.575H59.2919V19.575H60.2919V18.575ZM60.2919 15.47H61.2919V14.47H60.2919V15.47ZM58.3119 15.47V14.47H57.3119V15.47H58.3119ZM58.3119 23H57.3119V24H58.3119V23ZM60.2919 23V24H61.2919V23H60.2919ZM63.1869 17.33L62.705 18.2062L63.7672 18.7904L64.1388 17.6365L63.1869 17.33ZM63.7569 15.56L64.7088 15.8665L64.9719 15.0495L64.2041 14.6656L63.7569 15.56ZM62.6019 14.32C61.5683 14.32 60.6914 14.7749 60.1097 15.6014C59.5577 16.3859 59.3219 17.428 59.3219 18.575H61.3219C61.3219 17.667 61.5136 17.0816 61.7453 16.7524C61.9475 16.4651 62.2105 16.32 62.6019 16.32V14.32ZM60.3219 17.575H60.2919V19.575H60.3219V17.575ZM61.2919 18.575V15.47H59.2919V18.575H61.2919ZM60.2919 14.47H58.3119V16.47H60.2919V14.47ZM57.3119 15.47V23H59.3119V15.47H57.3119ZM58.3119 24H60.2919V22H58.3119V24ZM61.2919 23V19.595H59.2919V23H61.2919ZM61.2919 19.595C61.2919 18.9268 61.4393 18.5263 61.5896 18.32C61.7118 18.1523 61.868 18.06 62.1369 18.06V16.06C61.2509 16.06 60.4846 16.4402 59.973 17.1425C59.4895 17.8062 59.2919 18.6732 59.2919 19.595H61.2919ZM62.1369 18.06C62.3354 18.06 62.5454 18.1185 62.705 18.2062L63.6688 16.4538C63.2284 16.2115 62.6884 16.06 62.1369 16.06V18.06ZM64.1388 17.6365L64.7088 15.8665L62.8051 15.2535L62.2351 17.0235L64.1388 17.6365ZM64.2041 14.6656C63.736 14.4315 63.1557 14.32 62.6019 14.32V16.32C62.9182 16.32 63.1779 16.3885 63.3097 16.4544L64.2041 14.6656ZM69.8775 15.47V14.47H68.8775V15.47H69.8775ZM69.8775 18.05V19.05H70.8775V18.05H69.8775ZM69.8475 18.05H68.8475V19.05H69.8475V18.05ZM69.8475 20.33V19.33H68.8475V20.33H69.8475ZM69.8775 20.33H70.8775V19.33H69.8775V20.33ZM66.2625 23.615L67.2534 23.4806L67.1169 22.4736L66.1122 22.6264L66.2625 23.615ZM64.3875 23.9L64.2372 22.9114L63.2415 23.0627L63.4 24.0573L64.3875 23.9ZM71.8575 15.47H72.8575V14.47H71.8575V15.47ZM68.8775 15.47V18.05H70.8775V15.47H68.8775ZM69.8775 17.05H69.8475V19.05H69.8775V17.05ZM70.8475 18.05C70.8475 17.0001 70.5356 16.0414 69.8478 15.3424C69.158 14.6413 68.2065 14.32 67.1625 14.32V16.32C67.7985 16.32 68.1895 16.5087 68.4222 16.7451C68.6569 16.9836 68.8475 17.3899 68.8475 18.05H70.8475ZM67.1625 14.32C65.9362 14.32 64.8827 14.8018 64.163 15.7317C63.4692 16.628 63.1625 17.839 63.1625 19.19H65.1625C65.1625 18.111 65.4108 17.387 65.7445 16.9558C66.0523 16.5582 66.4988 16.32 67.1625 16.32V14.32ZM63.1625 19.19C63.1625 20.541 63.4692 21.752 64.163 22.6483C64.8827 23.5782 65.9362 24.06 67.1625 24.06V22.06C66.4988 22.06 66.0523 21.8218 65.7445 21.4242C65.4108 20.993 65.1625 20.269 65.1625 19.19H63.1625ZM67.1625 24.06C68.2065 24.06 69.158 23.7387 69.8478 23.0376C70.5356 22.3386 70.8475 21.3799 70.8475 20.33H68.8475C68.8475 20.9901 68.6569 21.3964 68.4222 21.6349C68.1895 21.8713 67.7985 22.06 67.1625 22.06V24.06ZM69.8475 21.33H69.8775V19.33H69.8475V21.33ZM68.8775 20.33V23.21H70.8775V20.33H68.8775ZM68.8775 23.21C68.8775 23.583 68.7708 23.7589 68.6901 23.84C68.6102 23.9205 68.4394 24.025 68.0775 24.025V26.025C68.8406 26.025 69.5698 25.792 70.1086 25.25C70.6467 24.7086 70.8775 23.977 70.8775 23.21H68.8775ZM68.0775 24.025C67.7453 24.025 67.5511 23.939 67.4494 23.8605C67.3593 23.7908 67.2808 23.6822 67.2534 23.4806L65.2716 23.7494C65.3642 24.4328 65.6907 25.0292 66.2268 25.4433C66.7514 25.8485 67.4047 26.025 68.0775 26.025V24.025ZM66.1122 22.6264L64.2372 22.9114L64.5378 24.8886L66.4128 24.6036L66.1122 22.6264ZM63.4 24.0573C63.5744 25.1523 64.1213 26.0665 64.9787 26.693C65.8223 27.3094 66.8986 27.6 68.0775 27.6V25.6C67.2164 25.6 66.5828 25.3881 66.1588 25.0782C65.7487 24.7785 65.4706 24.3427 65.375 23.7427L63.4 24.0573ZM68.0775 27.6C69.4401 27.6 70.6544 27.2232 71.5364 26.405C72.4283 25.5775 72.8575 24.4124 72.8575 23.09H70.8575C70.8575 23.9726 70.5817 24.5625 70.1761 24.9388C69.7606 25.3243 69.0849 25.6 68.0775 25.6V27.6ZM72.8575 23.09V15.47H70.8575V23.09H72.8575ZM71.8575 14.47H69.8775V16.47H71.8575V14.47ZM68.0775 20.485C67.7338 20.485 67.5563 20.3738 67.445 20.2395C67.3128 20.0799 67.1725 19.7598 67.1725 19.19H65.1725C65.1725 20.0602 65.3847 20.8876 65.905 21.5155C66.4462 22.1687 67.2212 22.485 68.0775 22.485V20.485ZM67.1725 19.19C67.1725 18.6202 67.3129 18.294 67.448 18.1294C67.5618 17.9907 67.7396 17.88 68.0775 17.88V15.88C67.2154 15.88 66.4407 16.2043 65.902 16.8606C65.3846 17.491 65.1725 18.3198 65.1725 19.19H67.1725ZM68.0775 17.88C68.3886 17.88 68.5723 17.9896 68.6998 18.1487C68.8471 18.3324 68.9825 18.6685 68.9825 19.19H70.9825C70.9825 18.3465 70.7654 17.5276 70.2602 16.8976C69.7352 16.2429 68.9664 15.88 68.0775 15.88V17.88ZM68.9825 19.19C68.9825 19.7114 68.8473 20.0416 68.7027 20.2203C68.5776 20.3748 68.3942 20.485 68.0775 20.485V22.485C68.9608 22.485 69.7299 22.1302 70.2573 21.4785C70.7652 20.8509 70.9825 20.0336 70.9825 19.19H68.9825ZM79.15 15.47V14.47H78.15V15.47H79.15ZM79.15 18.05V19.05H80.15V18.05H79.15ZM79.12 18.05H78.12V19.05H79.12V18.05ZM79.12 20.405V19.405H78.12V20.405H79.12ZM79.15 20.405H80.15V19.405H79.15V20.405ZM79.15 23H78.15V24H79.15V23ZM81.13 23V24H82.13V23H81.13ZM81.13 15.47H82.13V14.47H81.13V15.47ZM78.15 15.47V18.05H80.15V15.47H78.15ZM79.15 17.05H79.12V19.05H79.15V17.05ZM80.12 18.05C80.12 17.0001 79.8081 16.0414 79.1202 15.3424C78.4304 14.6413 77.479 14.32 76.435 14.32V16.32C77.071 16.32 77.462 16.5087 77.6947 16.7451C77.9294 16.9836 78.12 17.3899 78.12 18.05H80.12ZM76.435 14.32C75.2046 14.32 74.1503 14.8088 73.4321 15.7472C72.7406 16.6507 72.435 17.8713 72.435 19.235H74.435C74.435 18.1387 74.6843 17.4018 75.0203 16.9628C75.3296 16.5587 75.7753 16.32 76.435 16.32V14.32ZM72.435 19.235C72.435 20.5987 72.7406 21.8193 73.4321 22.7228C74.1503 23.6612 75.2046 24.15 76.435 24.15V22.15C75.7753 22.15 75.3296 21.9113 75.0203 21.5072C74.6843 21.0682 74.435 20.3313 74.435 19.235H72.435ZM76.435 24.15C77.479 24.15 78.4314 23.8286 79.1216 23.1243C79.8094 22.4226 80.12 21.4601 80.12 20.405H78.12C78.12 21.0749 77.928 21.4849 77.6933 21.7244C77.461 21.9614 77.0709 22.15 76.435 22.15V24.15ZM79.12 21.405H79.15V19.405H79.12V21.405ZM78.15 20.405V23H80.15V20.405H78.15ZM79.15 24H81.13V22H79.15V24ZM82.13 23V15.47H80.13V23H82.13ZM81.13 14.47H79.15V16.47H81.13V14.47ZM77.35 20.575C77.0126 20.575 76.8368 20.4649 76.7234 20.3254C76.5874 20.1582 76.445 19.8242 76.445 19.235H74.445C74.445 20.1158 74.655 20.9518 75.1716 21.5871C75.7106 22.2501 76.4873 22.575 77.35 22.575V20.575ZM76.445 19.235C76.445 18.6458 76.5875 18.3058 76.7262 18.1336C76.8422 17.9896 77.0184 17.88 77.35 17.88V15.88C76.4815 15.88 75.7052 16.2129 75.1687 16.8789C74.655 17.5167 74.445 18.3542 74.445 19.235H76.445ZM77.35 17.88C77.6548 17.88 77.837 17.9882 77.9668 18.153C78.1173 18.3442 78.255 18.6939 78.255 19.235H80.255C80.255 18.3811 80.0401 17.5533 79.5382 16.9158C79.0154 16.2518 78.2451 15.88 77.35 15.88V17.88ZM78.255 19.235C78.255 19.7664 78.1184 20.1122 77.9681 20.3022C77.8382 20.4664 77.6552 20.575 77.35 20.575V22.575C78.2448 22.575 79.0142 22.2036 79.5368 21.5428C80.0391 20.9078 80.255 20.0836 80.255 19.235H78.255ZM85.0924 18.575V19.575H86.0924V18.575H85.0924ZM85.0624 18.575H84.0624V19.575H85.0624V18.575ZM85.0624 15.47H86.0624V14.47H85.0624V15.47ZM83.0824 15.47V14.47H82.0824V15.47H83.0824ZM83.0824 23H82.0824V24H83.0824V23ZM85.0624 23V24H86.0624V23H85.0624ZM87.9574 17.33L87.4755 18.2062L88.5377 18.7904L88.9093 17.6365L87.9574 17.33ZM88.5274 15.56L89.4793 15.8665L89.7424 15.0495L88.9746 14.6656L88.5274 15.56ZM87.3724 14.32C86.3388 14.32 85.4619 14.7749 84.8802 15.6014C84.3282 16.3859 84.0924 17.428 84.0924 18.575H86.0924C86.0924 17.667 86.2841 17.0816 86.5159 16.7524C86.718 16.4651 86.981 16.32 87.3724 16.32V14.32ZM85.0924 17.575H85.0624V19.575H85.0924V17.575ZM86.0624 18.575V15.47H84.0624V18.575H86.0624ZM85.0624 14.47H83.0824V16.47H85.0624V14.47ZM82.0824 15.47V23H84.0824V15.47H82.0824ZM83.0824 24H85.0624V22H83.0824V24ZM86.0624 23V19.595H84.0624V23H86.0624ZM86.0624 19.595C86.0624 18.9268 86.2098 18.5263 86.3601 18.32C86.4823 18.1523 86.6385 18.06 86.9074 18.06V16.06C86.0214 16.06 85.2551 16.4402 84.7435 17.1425C84.26 17.8062 84.0624 18.6732 84.0624 19.595H86.0624ZM86.9074 18.06C87.1059 18.06 87.3159 18.1185 87.4755 18.2062L88.4393 16.4538C87.9989 16.2115 87.459 16.06 86.9074 16.06V18.06ZM88.9093 17.6365L89.4793 15.8665L87.5756 15.2535L87.0056 17.0235L88.9093 17.6365ZM88.9746 14.6656C88.5065 14.4315 87.9262 14.32 87.3724 14.32V16.32C87.6887 16.32 87.9484 16.3885 88.0802 16.4544L88.9746 14.6656ZM97.3038 15.47V14.47H96.5071L96.3291 15.2466L97.3038 15.47ZM95.6088 22.865V23.865H96.4055L96.5835 23.0884L95.6088 22.865ZM95.5788 22.865L94.605 23.0922L94.7852 23.865H95.5788V22.865ZM93.8538 15.47L94.8277 15.2428L94.6474 14.47H93.8538V15.47ZM91.7388 15.47V14.47H90.4419L90.7717 15.7243L91.7388 15.47ZM93.7188 23L92.7517 23.2543L92.9478 24H93.7188V23ZM97.4538 23V24H98.2264L98.4214 23.2525L97.4538 23ZM99.4188 15.47L100.386 15.7225L100.713 14.47H99.4188V15.47ZM96.3291 15.2466L94.6341 22.6416L96.5835 23.0884L98.2785 15.6934L96.3291 15.2466ZM95.6088 21.865H95.5788V23.865H95.6088V21.865ZM96.5527 22.6378L94.8277 15.2428L92.88 15.6972L94.605 23.0922L96.5527 22.6378ZM93.8538 14.47H91.7388V16.47H93.8538V14.47ZM90.7717 15.7243L92.7517 23.2543L94.686 22.7457L92.706 15.2157L90.7717 15.7243ZM93.7188 24H97.4538V22H93.7188V24ZM98.4214 23.2525L100.386 15.7225L98.4512 15.2175L96.4862 22.7475L98.4214 23.2525ZM99.4188 14.47H97.3038V16.47H99.4188V14.47ZM100.719 14.03H99.7191V15.03H100.719V14.03ZM102.699 14.03V15.03H103.699V14.03H102.699ZM102.699 12.155H103.699V11.155H102.699V12.155ZM100.719 12.155V11.155H99.7191V12.155H100.719ZM100.719 23H99.7191V24H100.719V23ZM102.699 23V24H103.699V23H102.699ZM102.699 15.47H103.699V14.47H102.699V15.47ZM100.719 15.47V14.47H99.7191V15.47H100.719ZM100.719 15.03H102.699V13.03H100.719V15.03ZM103.699 14.03V12.155H101.699V14.03H103.699ZM102.699 11.155H100.719V13.155H102.699V11.155ZM99.7191 12.155V14.03H101.719V12.155H99.7191ZM100.719 24H102.699V22H100.719V24ZM103.699 23V15.47H101.699V23H103.699ZM102.699 14.47H100.719V16.47H102.699V14.47ZM99.7191 15.47V23H101.719V15.47H99.7191ZM110 11.45V10.45H109V11.45H110ZM110 18.05V19.05H111V18.05H110ZM109.97 18.05H108.97V19.05H109.97V18.05ZM109.97 20.405V19.405H108.97V20.405H109.97ZM110 20.405H111V19.405H110V20.405ZM110 23H109V24H110V23ZM111.98 23V24H112.98V23H111.98ZM111.98 11.45H112.98V10.45H111.98V11.45ZM109 11.45V18.05H111V11.45H109ZM110 17.05H109.97V19.05H110V17.05ZM110.97 18.05C110.97 17.0001 110.658 16.0414 109.97 15.3424C109.28 14.6413 108.329 14.32 107.285 14.32V16.32C107.921 16.32 108.312 16.5087 108.544 16.7451C108.779 16.9836 108.97 17.3899 108.97 18.05H110.97ZM107.285 14.32C106.054 14.32 105 14.8088 104.282 15.7472C103.59 16.6507 103.285 17.8713 103.285 19.235H105.285C105.285 18.1387 105.534 17.4018 105.87 16.9628C106.179 16.5587 106.625 16.32 107.285 16.32V14.32ZM103.285 19.235C103.285 20.5987 103.59 21.8193 104.282 22.7228C105 23.6612 106.054 24.15 107.285 24.15V22.15C106.625 22.15 106.179 21.9113 105.87 21.5072C105.534 21.0682 105.285 20.3313 105.285 19.235H103.285ZM107.285 24.15C108.329 24.15 109.281 23.8286 109.971 23.1243C110.659 22.4226 110.97 21.4601 110.97 20.405H108.97C108.97 21.0749 108.778 21.4849 108.543 21.7244C108.311 21.9614 107.92 22.15 107.285 22.15V24.15ZM109.97 21.405H110V19.405H109.97V21.405ZM109 20.405V23H111V20.405H109ZM110 24H111.98V22H110V24ZM112.98 23V11.45H110.98V23H112.98ZM111.98 10.45H110V12.45H111.98V10.45ZM108.2 20.575C107.862 20.575 107.686 20.4649 107.573 20.3254C107.437 20.1582 107.295 19.8242 107.295 19.235H105.295C105.295 20.1158 105.505 20.9518 106.021 21.5871C106.56 22.2501 107.337 22.575 108.2 22.575V20.575ZM107.295 19.235C107.295 18.6458 107.437 18.3058 107.576 18.1336C107.692 17.9896 107.868 17.88 108.2 17.88V15.88C107.331 15.88 106.555 16.2129 106.018 16.8789C105.505 17.5167 105.295 18.3542 105.295 19.235H107.295ZM108.2 17.88C108.504 17.88 108.687 17.9882 108.816 18.153C108.967 18.3442 109.105 18.6939 109.105 19.235H111.105C111.105 18.3811 110.89 17.5533 110.388 16.9158C109.865 16.2518 109.095 15.88 108.2 15.88V17.88ZM109.105 19.235C109.105 19.7664 108.968 20.1122 108.818 20.3022C108.688 20.4664 108.505 20.575 108.2 20.575V22.575C109.094 22.575 109.864 22.2036 110.386 21.5428C110.889 20.9078 111.105 20.0836 111.105 19.235H109.105ZM120.937 20.315L121.926 20.4646L122.1 19.315H120.937V20.315ZM119.017 20.315V19.315H118.226L118.044 20.085L119.017 20.315ZM115.447 19.46V18.46H114.391L114.449 19.5143L115.447 19.46ZM120.937 19.46V20.46H121.937V19.46H120.937ZM119.002 18.785V19.785H120.102L119.998 18.6902L119.002 18.785ZM115.462 18.785L114.468 18.6785L114.349 19.785H115.462V18.785ZM121.937 19.235C121.937 17.8164 121.539 16.5649 120.684 15.6619C119.823 14.7517 118.614 14.32 117.247 14.32V16.32C118.19 16.32 118.826 16.6083 119.232 17.0369C119.645 17.4726 119.937 18.1786 119.937 19.235H121.937ZM117.247 14.32C115.868 14.32 114.652 14.7495 113.785 15.6597C112.925 16.5634 112.527 17.8164 112.527 19.235H114.527C114.527 18.1786 114.819 17.4741 115.234 17.039C115.642 16.6105 116.286 16.32 117.247 16.32V14.32ZM112.527 19.235C112.527 20.6475 112.925 21.8992 113.784 22.8036C114.65 23.715 115.866 24.15 117.247 24.15V22.15C116.289 22.15 115.644 21.8575 115.235 21.4264C114.819 20.9883 114.527 20.2825 114.527 19.235H112.527ZM117.247 24.15C118.435 24.15 119.519 23.8435 120.364 23.1956C121.22 22.5394 121.755 21.5906 121.926 20.4646L119.948 20.1654C119.849 20.8244 119.559 21.2931 119.148 21.6081C118.725 21.9315 118.099 22.15 117.247 22.15V24.15ZM120.937 19.315H119.017V21.315H120.937V19.315ZM118.044 20.085C117.994 20.2959 117.901 20.4208 117.801 20.4972C117.698 20.5754 117.527 20.65 117.247 20.65V22.65C117.897 22.65 118.513 22.4696 119.015 22.0865C119.518 21.7017 119.845 21.1591 119.99 20.545L118.044 20.085ZM117.247 20.65C116.996 20.65 116.855 20.5679 116.749 20.4384C116.619 20.2797 116.476 19.9619 116.446 19.4057L114.449 19.5143C114.493 20.3381 114.718 21.1153 115.203 21.7066C115.711 22.3271 116.433 22.65 117.247 22.65V20.65ZM115.447 20.46H120.937V18.46H115.447V20.46ZM121.937 19.46V19.235H119.937V19.46H121.937ZM117.247 17.805C117.477 17.805 117.606 17.8777 117.703 17.9869C117.821 18.1188 117.96 18.3889 118.007 18.8798L119.998 18.6902C119.924 17.9211 119.681 17.2012 119.198 16.6581C118.695 16.0923 118.007 15.805 117.247 15.805V17.805ZM119.002 17.785H115.462V19.785H119.002V17.785ZM116.456 18.8915C116.509 18.3975 116.651 18.1255 116.772 17.9915C116.871 17.8806 117.006 17.805 117.247 17.805V15.805C116.483 15.805 115.793 16.0894 115.285 16.6535C114.798 17.1945 114.55 17.9125 114.468 18.6785L116.456 18.8915ZM125.997 24.15C127.424 24.15 128.682 23.7243 129.584 22.8221C130.486 21.92 130.912 20.6619 130.912 19.235H128.912C128.912 20.2681 128.61 20.9675 128.17 21.4079C127.73 21.8482 127.03 22.15 125.997 22.15V24.15ZM130.912 19.235C130.912 17.8081 130.486 16.55 129.584 15.6479C128.682 14.7457 127.424 14.32 125.997 14.32V16.32C127.03 16.32 127.73 16.6218 128.17 17.0621C128.61 17.5025 128.912 18.2019 128.912 19.235H130.912ZM125.997 14.32C124.57 14.32 123.31 14.7456 122.404 15.6459C121.498 16.5471 121.067 17.8053 121.067 19.235H123.067C123.067 18.2047 123.371 17.5054 123.815 17.0641C124.259 16.6219 124.964 16.32 125.997 16.32V14.32ZM121.067 19.235C121.067 20.6647 121.498 21.9229 122.404 22.8241C123.31 23.7244 124.57 24.15 125.997 24.15V22.15C124.964 22.15 124.259 21.8481 123.815 21.4059C123.371 20.9646 123.067 20.2653 123.067 19.235H121.067ZM125.997 20.575C125.66 20.575 125.484 20.4649 125.37 20.3254C125.235 20.1582 125.092 19.8242 125.092 19.235H123.092C123.092 20.1158 123.302 20.9518 123.819 21.5871C124.358 22.2501 125.134 22.575 125.997 22.575V20.575ZM125.092 19.235C125.092 18.6458 125.235 18.3058 125.373 18.1336C125.489 17.9896 125.666 17.88 125.997 17.88V15.88C125.129 15.88 124.352 16.2129 123.816 16.8789C123.302 17.5167 123.092 18.3542 123.092 19.235H125.092ZM125.997 17.88C126.329 17.88 126.505 17.9896 126.621 18.1336C126.76 18.3058 126.902 18.6458 126.902 19.235H128.902C128.902 18.3542 128.692 17.5167 128.178 16.8789C127.642 16.2129 126.866 15.88 125.997 15.88V17.88ZM126.902 19.235C126.902 19.8242 126.76 20.1582 126.624 20.3254C126.51 20.4649 126.334 20.575 125.997 20.575V22.575C126.86 22.575 127.636 22.2501 128.175 21.5871C128.692 20.9518 128.902 20.1158 128.902 19.235H126.902Z" fill="#FF595A"/>
</svg>
