<svg width="195" height="113" viewBox="0 0 195 113" fill="none" xmlns="http://www.w3.org/2000/svg">
<path d="M0 113.23H195V1.18048L0 113.23Z" fill="url(#paint0_linear_2_57)"/>
<path opacity="0.3" d="M145.725 28.7052C148.125 32.8302 142.8 40.4052 133.8 45.5802C124.8 50.7552 115.575 51.5802 113.175 47.3802C110.775 43.1802 116.1 35.6802 125.1 30.5052C134.1 25.4052 143.325 24.5802 145.725 28.7052Z" fill="url(#paint1_radial_2_57)"/>
<path opacity="0.3" d="M153.825 44.6804C152.325 47.2304 147.375 47.0804 142.725 44.4554C138.075 41.7554 135.45 37.5554 136.95 35.0054C138.45 32.4554 143.4 32.6054 148.05 35.2304C152.775 37.9304 155.325 42.1304 153.825 44.6804Z" fill="url(#paint2_radial_2_57)"/>
<path d="M169.875 91.8553L177.6 81.4303V80.0803H165.525V82.7053H173.025L165.3 93.0553V93.1303V94.4803H177.9V91.8553H169.875Z" fill="#1F2A51"/>
<path d="M113.7 86.9052C113.7 90.1302 111.525 92.3802 108.375 92.3802C105.3 92.3802 103.05 90.0552 103.05 86.9052V75.0552H99.8252V86.9052C99.8252 91.6302 103.425 95.0802 108.375 95.0802C113.25 95.0802 116.85 91.6302 116.85 86.9052V75.0552H113.7V86.9052Z" fill="#1F2A51"/>
<path d="M138.6 92.4552C135.75 92.4552 133.575 90.2802 133.575 87.4302C133.575 84.5802 135.75 82.4802 138.6 82.4802C141.45 82.4802 143.625 84.6552 143.625 87.4302C143.625 90.3552 141.525 92.4552 138.6 92.4552ZM138.9 79.8552C136.65 79.8552 134.775 80.6802 133.65 82.1052V74.3052H130.725V94.4802H133.65V92.6802C134.775 94.1802 136.65 95.0052 138.825 95.0052C143.25 95.0052 146.55 91.7802 146.55 87.4302C146.625 83.1552 143.325 79.8552 138.9 79.8552Z" fill="#1F2A51"/>
<path d="M155.625 91.9302C152.925 91.9302 150.975 90.0552 150.975 87.3552C150.975 84.5802 152.925 82.5552 155.625 82.5552C158.25 82.5552 160.275 84.5802 160.275 87.3552C160.275 89.9802 158.325 91.9302 155.625 91.9302ZM160.2 81.7302C158.925 80.5302 157.275 79.9302 155.4 79.9302C151.125 79.9302 147.9 83.1552 147.9 87.3552C147.9 91.6302 150.975 94.6302 155.4 94.6302C157.35 94.6302 159 93.9552 160.275 92.7552V94.4802H163.2V80.0802H160.125V81.7302H160.2Z" fill="#1F2A51"/>
<path d="M126.975 80.0803L122.775 83.9803V80.0803H119.85V94.4803H122.85L122.775 87.8803L129 81.9553L126.975 80.0803Z" fill="#1F2A51"/>
<path d="M110.7 62.8303H111.3V66.4303C111.3 67.4053 111.75 67.9303 112.65 67.9303C113.55 67.9303 114 67.3303 114 66.4303V62.8303H114.6V66.4303C114.6 67.1053 114.45 67.5553 114.075 68.0053C113.7 68.3803 113.25 68.6053 112.65 68.6053C111.375 68.6053 110.7 67.7803 110.7 66.5053V62.8303Z" fill="#1F2A51"/>
<path d="M116.025 68.4556V64.3306H116.625V64.9306H116.7C116.85 64.5556 117.3 64.2556 117.9 64.2556C118.35 64.2556 118.725 64.4056 118.95 64.7056C119.25 65.0056 119.325 65.3806 119.325 65.9056V68.5306H118.725V65.9806C118.725 65.6806 118.65 65.3806 118.425 65.1556C118.2 64.9306 117.975 64.8556 117.675 64.8556C117.375 64.8556 117.075 65.0056 116.85 65.2306C116.625 65.4556 116.55 65.7556 116.55 66.0556V68.5306H116.025V68.4556Z" fill="#1F2A51"/>
<path d="M122.7 70.2551V64.2551H123.3V64.9301H123.375C123.45 64.8551 123.45 64.7801 123.675 64.6301C123.9 64.4051 124.275 64.1801 124.8 64.1801C125.4 64.1801 125.85 64.4051 126.225 64.7801C126.6 65.1551 126.75 65.6801 126.75 66.3551C126.75 67.0301 126.6 67.5551 126.225 67.9301C125.85 68.3051 125.4 68.5301 124.875 68.5301C124.5 68.5301 124.125 68.3801 123.9 68.2301C123.675 68.0801 123.6 67.9301 123.45 67.7801H123.375V70.2551H122.7ZM123.675 67.5551C123.975 67.8551 124.275 68.0051 124.65 68.0051C125.025 68.0051 125.4 67.8551 125.625 67.5551C125.85 67.2551 126 66.8801 126 66.3551C126 65.9051 125.85 65.4551 125.625 65.1551C125.4 64.8551 125.025 64.7051 124.65 64.7051C124.275 64.7051 123.9 64.8551 123.675 65.1551C123.45 65.4551 123.3 65.8301 123.3 66.2801C123.3 66.8801 123.45 67.2551 123.675 67.5551Z" fill="#1F2A51"/>
<path d="M127.725 68.4553V64.3303H128.325V65.0803H128.4C128.475 64.8553 128.625 64.7053 128.775 64.5553C129 64.4053 129.225 64.3303 129.45 64.3303H129.75V64.9303H129.45C128.775 64.9303 128.325 65.4553 128.325 66.2803V68.4553H127.725Z" fill="#1F2A51"/>
<path d="M131.025 64.7801C131.4 64.3301 131.925 64.1801 132.525 64.1801C133.125 64.1801 133.575 64.4051 134.025 64.7801C134.4 65.2301 134.625 65.6801 134.625 66.3551C134.625 66.9551 134.4 67.4801 134.025 67.9301C133.65 68.3801 133.125 68.5301 132.525 68.5301C131.4 68.5301 130.425 67.6301 130.5 66.3551C130.5 65.7551 130.65 65.2301 131.025 64.7801ZM131.475 67.5551C131.775 67.8551 132.075 68.0051 132.525 68.0051C132.975 68.0051 133.275 67.8551 133.575 67.5551C133.875 67.2551 133.95 66.8801 133.95 66.4301C133.95 65.9801 133.8 65.6051 133.575 65.3051C133.275 65.0051 132.975 64.8551 132.525 64.8551C132.075 64.8551 131.775 65.0051 131.475 65.3051C131.175 65.6051 131.1 65.9801 131.1 66.4301C131.1 66.8051 131.25 67.1801 131.475 67.5551Z" fill="#1F2A51"/>
<path d="M135.225 64.2556H135.9L137.1 67.7806H137.175L138.375 64.2556H139.05L137.175 69.3556C136.95 69.9556 136.65 70.2556 136.05 70.2556H135.675V69.7306H135.975C136.35 69.7306 136.575 69.5806 136.725 69.2056L136.875 68.6806L135.225 64.2556Z" fill="#1F2A51"/>
<path d="M141.525 64.1801C142.725 64.1801 143.475 65.1551 143.4 66.2801V66.5801H140.25C140.25 67.4051 140.775 67.9301 141.6 67.9301C142.125 67.9301 142.65 67.6301 142.8 67.1801H143.4C143.175 68.0051 142.5 68.5301 141.6 68.5301C140.4 68.5301 139.65 67.6301 139.65 66.3551C139.65 65.0051 140.475 64.1801 141.525 64.1801ZM142.8 66.0551C142.725 65.2301 142.2 64.7801 141.525 64.7801C141.15 64.7801 140.925 64.9301 140.625 65.1551C140.4 65.3801 140.25 65.6801 140.25 66.0551H142.8Z" fill="#1F2A51"/>
<path d="M147.45 64.555C147.825 64.855 148.05 65.155 148.125 65.605H147.525C147.375 65.08 146.85 64.705 146.325 64.705C145.875 64.705 145.575 64.855 145.275 65.155C144.975 65.455 144.9 65.83 144.9 66.28C144.9 66.73 145.05 67.105 145.275 67.405C145.575 67.705 145.875 67.855 146.325 67.855C146.925 67.855 147.375 67.48 147.525 66.955H148.125C148.05 67.405 147.825 67.78 147.45 68.005C147.075 68.305 146.7 68.38 146.25 68.38C145.05 68.38 144.225 67.405 144.225 66.205C144.225 65.005 145.125 64.03 146.25 64.03C146.7 64.18 147.075 64.33 147.45 64.555Z" fill="#1F2A51"/>
<path d="M148.8 64.8556V64.3306H149.4C149.55 64.3306 149.625 64.2556 149.625 64.1056V63.1306H150.15V64.3306H151.35V64.8556H150.15V67.1806C150.15 67.6306 150.3 67.8556 150.75 67.8556H151.275V68.3806H150.75C150 68.3806 149.55 67.9306 149.55 67.1056V64.7806H148.8V64.8556Z" fill="#1F2A51"/>
<path d="M152.7 64.7801C153.075 64.3301 153.6 64.1801 154.2 64.1801C154.8 64.1801 155.25 64.4051 155.7 64.7801C156.075 65.2301 156.3 65.6801 156.3 66.3551C156.3 66.9551 156.075 67.4801 155.7 67.9301C155.325 68.3801 154.8 68.5301 154.2 68.5301C153.075 68.5301 152.1 67.6301 152.175 66.3551C152.1 65.7551 152.325 65.2301 152.7 64.7801ZM153.15 67.5551C153.45 67.8551 153.75 68.0051 154.2 68.0051C154.65 68.0051 154.95 67.8551 155.25 67.5551C155.55 67.2551 155.625 66.8801 155.625 66.4301C155.625 65.9801 155.475 65.6051 155.25 65.3051C154.95 65.0051 154.65 64.8551 154.2 64.8551C153.75 64.8551 153.45 65.0051 153.15 65.3051C152.85 65.6051 152.775 65.9801 152.775 66.4301C152.7 66.8051 152.85 67.1801 153.15 67.5551Z" fill="#1F2A51"/>
<path d="M159.675 64.7803C160.05 64.4053 160.5 64.1803 161.025 64.1803C161.4 64.1803 161.775 64.3303 162 64.4803C162.225 64.6303 162.375 64.7803 162.45 64.9303H162.525V62.4553H163.125V68.4553H162.525V67.7803H162.45C162.15 68.3053 161.625 68.5303 161.1 68.5303C160.5 68.5303 160.05 68.3053 159.675 67.9303C159.3 67.5553 159.15 67.0303 159.15 66.3553C159.075 65.7553 159.3 65.2303 159.675 64.7803ZM160.125 67.5553C160.35 67.8553 160.725 68.0053 161.1 68.0053C161.475 68.0053 161.85 67.8553 162.075 67.5553C162.3 67.2553 162.45 66.8803 162.45 66.4303C162.45 65.9053 162.3 65.5303 162.075 65.2303C161.85 64.9303 161.475 64.7803 161.1 64.7803C160.725 64.7803 160.35 64.9303 160.125 65.2303C159.9 65.5303 159.75 65.9053 159.75 66.3553C159.75 66.8803 159.825 67.2553 160.125 67.5553Z" fill="#1F2A51"/>
<path d="M165.975 64.1801C167.175 64.1801 167.925 65.1551 167.85 66.2801V66.5801H164.625C164.625 67.4051 165.15 67.9301 165.975 67.9301C166.5 67.9301 167.025 67.6301 167.175 67.1801H167.775C167.55 68.0051 166.875 68.5301 165.975 68.5301C164.775 68.5301 164.025 67.6301 164.025 66.3551C164.025 65.0051 164.925 64.1801 165.975 64.1801ZM167.25 66.0551C167.175 65.2301 166.65 64.7801 165.975 64.7801C165.6 64.7801 165.375 64.9301 165.075 65.1551C164.85 65.3801 164.7 65.6801 164.7 66.0551H167.25Z" fill="#1F2A51"/>
<path d="M142.2 25.1808V0.730774H130.275V25.1808L108.9 37.3308L114.9 47.6058L136.2 35.3808L157.575 47.6058L163.5 37.3308L142.2 25.1808Z" fill="url(#paint3_linear_2_57)"/>
<defs>
<linearGradient id="paint0_linear_2_57" x1="96.9581" y1="56.3986" x2="114.824" y2="83.5853" gradientUnits="userSpaceOnUse">
<stop stop-color="#B8B8B8"/>
<stop offset="0.2902" stop-color="#E6E6E6"/>
<stop offset="1" stop-color="white"/>
</linearGradient>
<radialGradient id="paint1_radial_2_57" cx="0" cy="0" r="1" gradientUnits="userSpaceOnUse" gradientTransform="translate(129.485 38.0679) rotate(-29.873) scale(18.7528 8.68282)">
<stop/>
<stop offset="1" stop-opacity="0"/>
</radialGradient>
<radialGradient id="paint2_radial_2_57" cx="0" cy="0" r="1" gradientUnits="userSpaceOnUse" gradientTransform="translate(145.414 39.8225) rotate(29.87) scale(9.73306 5.31651)">
<stop/>
<stop offset="1" stop-opacity="0"/>
</radialGradient>
<linearGradient id="paint3_linear_2_57" x1="108.925" y1="24.1756" x2="163.525" y2="24.1756" gradientUnits="userSpaceOnUse">
<stop offset="0.25" stop-color="#FF6A39"/>
<stop offset="0.5126" stop-color="#FF6D37"/>
<stop offset="0.7235" stop-color="#FF7730"/>
<stop offset="0.9158" stop-color="#FF8825"/>
<stop offset="1" stop-color="#FF921E"/>
</linearGradient>
</defs>
</svg>
