<svg width="286" height="132" viewBox="0 0 286 132" fill="none" xmlns="http://www.w3.org/2000/svg">
<path d="M132.538 19.4288V0H159.824L132.538 19.4288Z" fill="#FF595A"/>
<path d="M132.538 19.4288H159.824V38.9103L132.538 19.4288Z" fill="#FF595A"/>
<path d="M132.538 58.339V38.9102H159.824L132.538 58.339Z" fill="#FF595A"/>
<path d="M149.151 70.5544L149.361 70.1859H141.581V75.9777H138.058V81.4535H141.581V95.7224C141.581 97.8811 142.264 99.6187 143.578 100.935C144.893 102.251 146.68 102.936 148.783 102.936H153.62V97.4599H149.94C149.414 97.4599 148.993 97.3019 148.678 96.986C148.362 96.6701 148.205 96.2489 148.205 95.7224V81.4535H153.62V75.9777H145.261L149.151 70.5544Z" fill="white"/>
<path d="M171.6 77.6099C170.443 78.5576 169.55 79.7686 168.919 81.2956V76.0303H162.294V102.988H168.919V86.8241C168.919 85.4025 169.339 84.1915 170.233 83.349C171.074 82.5066 172.283 82.0327 173.703 82.0327H179.013V75.767H176.91C174.912 75.7144 173.072 76.3462 171.6 77.6099Z" fill="white"/>
<path d="M186.478 94.6167V102.936H193.103V75.9777H186.478V94.6167Z" fill="white"/>
<path d="M193.208 66.079H186.321V72.5552H193.208V66.079Z" fill="white"/>
<path d="M214.71 75.9777H203.197V81.4535H213.554C214.605 81.4535 215.446 81.7694 216.077 82.4013C216.708 83.0331 217.024 83.8755 217.024 84.9286V86.2449H210.242C207.455 86.2449 205.194 87.0874 203.46 88.7196C201.725 90.3518 200.831 92.5106 200.831 95.1432C200.831 97.6179 201.567 99.6187 203.092 101.093C204.564 102.62 206.561 103.357 208.98 103.357C211.03 103.357 212.818 102.778 214.342 101.567C215.499 100.672 216.393 99.4607 217.024 98.0391V102.883H223.648V84.9286C223.648 82.2433 222.807 80.0846 221.177 78.4523C219.547 76.8201 217.339 75.9777 214.71 75.9777ZM217.024 91.2469V93.4057C216.866 94.7746 216.288 95.8803 215.341 96.7228C214.395 97.5126 213.186 97.9338 211.766 97.9338C210.452 97.9338 209.4 97.6179 208.612 96.986C207.823 96.3542 207.455 95.5118 207.455 94.4587C207.455 93.511 207.823 92.7212 208.507 92.142C209.243 91.5102 210.189 91.1943 211.398 91.1943H217.024V91.2469Z" fill="white"/>
<path d="M248.831 81.085C248.2 79.6107 247.253 78.347 245.992 77.3993C244.414 76.1883 242.469 75.5564 240.314 75.5564C237.685 75.5564 235.529 76.3989 233.9 78.0838C232.27 79.7687 231.429 82.0327 231.429 84.7706V94.1955C231.429 96.986 232.27 99.2501 233.9 100.882C235.529 102.567 237.685 103.41 240.314 103.41C242.522 103.41 244.414 102.778 245.992 101.567C247.201 100.619 248.147 99.3554 248.831 97.8811V102.936H255.455V66.0263H248.831V81.085ZM247.358 82.4539C248.357 83.4543 248.831 84.7706 248.831 86.4555V92.6159C248.831 94.2481 248.305 95.6171 247.358 96.6175C246.36 97.6179 245.045 98.0917 243.415 98.0917C241.786 98.0917 240.471 97.6179 239.525 96.6175C238.579 95.6171 238.053 94.3008 238.053 92.6159V86.4555C238.053 84.8233 238.526 83.4543 239.525 82.4539C240.471 81.4535 241.786 80.9797 243.415 80.9797C245.045 80.927 246.36 81.4535 247.358 82.4539Z" fill="white"/>
<path d="M283.529 78.505C281.899 76.8728 279.691 76.0303 277.063 76.0303H265.549V81.5062H275.906C276.957 81.5062 277.799 81.8221 278.429 82.4539C279.06 83.0858 279.376 83.9282 279.376 84.9812V86.2976H272.594C269.807 86.2976 267.547 87.14 265.812 88.7722C264.077 90.4045 263.183 92.5632 263.183 95.1958C263.183 97.6705 263.919 99.6713 265.444 101.146C266.916 102.673 268.914 103.41 271.332 103.41C273.382 103.41 275.17 102.83 276.694 101.619C277.851 100.724 278.745 99.5134 279.376 98.0917V102.936H286V84.9812C286 82.296 285.159 80.1372 283.529 78.505ZM279.376 91.2469V93.4057C279.218 94.7746 278.64 95.8803 277.693 96.7228C276.747 97.5126 275.538 97.9338 274.118 97.9338C272.804 97.9338 271.753 97.6179 270.964 96.986C270.175 96.3542 269.807 95.5118 269.807 94.4587C269.807 93.511 270.175 92.7212 270.859 92.142C271.595 91.5102 272.541 91.1942 273.75 91.1942H279.376V91.2469Z" fill="white"/>
<path d="M77.914 120.101V128.314C77.914 129.42 77.546 130.315 76.8099 131C76.0739 131.684 75.075 132 73.9184 132C72.7092 132 71.7629 131.684 71.0268 131C70.2908 130.315 69.9228 129.42 69.9228 128.314V120.101H71.3949V128.525C71.3949 129.209 71.6051 129.789 72.0783 130.21C72.5515 130.631 73.1824 130.842 73.9184 130.842C74.6544 130.842 75.2853 130.631 75.7585 130.21C76.2316 129.789 76.4419 129.209 76.4419 128.525V120.101H77.914Z" fill="white"/>
<path d="M91.5305 121.259V131.842H90.0585V120.153H93.9489C95.0004 120.153 95.8415 120.469 96.4724 120.996C97.1033 121.575 97.4188 122.365 97.4188 123.312V123.786C97.4188 124.629 97.1559 125.313 96.6827 125.84C96.2096 126.419 95.5261 126.735 94.6849 126.893L97.5765 131V131.842H96.4724L92.4243 125.892H93.8963C94.4746 125.892 95.0004 125.734 95.3158 125.366C95.6838 125.05 95.8415 124.576 95.8415 124.049V123.102C95.8415 122.575 95.6838 122.101 95.3158 121.785C94.9478 121.469 94.4746 121.259 93.8963 121.259H91.5305Z" fill="white"/>
<path d="M109.248 120.101H113.401C114.295 120.101 115.031 120.364 115.609 120.838C116.187 121.364 116.45 121.996 116.45 122.838V123.207C116.45 123.892 116.293 124.418 115.925 124.892C115.557 125.366 115.083 125.682 114.4 125.84C115.136 125.945 115.714 126.261 116.135 126.735C116.556 127.209 116.766 127.84 116.766 128.578V128.999C116.766 129.841 116.503 130.526 115.925 131C115.346 131.526 114.61 131.789 113.717 131.789H109.195V120.101H109.248ZM110.772 121.259V125.313H113.086C113.664 125.313 114.137 125.155 114.505 124.839C114.873 124.523 115.031 124.102 115.031 123.523V123.049C115.031 122.523 114.873 122.101 114.505 121.733C114.137 121.417 113.664 121.259 113.086 121.259H110.772ZM110.772 126.471V130.684H113.401C113.979 130.684 114.453 130.526 114.821 130.21C115.189 129.894 115.346 129.473 115.346 128.894V128.262C115.346 127.735 115.189 127.314 114.821 126.945C114.453 126.629 113.979 126.471 113.401 126.471H110.772Z" fill="white"/>
<path d="M155.302 120.101V131.842H153.147L148.625 121.048V131.842H147.258V120.101H149.414L153.935 130.894V120.101H155.302Z" fill="white"/>
<path d="M181.116 131.842H179.749V121.101L177.015 129.051H175.228L172.599 121.101V131.842H171.232V120.101H173.387L176.121 128.262L178.908 120.101H181.116V131.842Z" fill="white"/>
<path d="M194.838 120.101H193.365V131.789H194.838V120.101Z" fill="white"/>
<path d="M206.299 130.947L208.98 125.787L206.509 120.996V120.101H207.771L210.189 125.155L212.607 120.101H213.817V120.996L211.398 125.787L214.027 130.947V131.842H212.818L210.189 126.419L207.56 131.842H206.299V130.947Z" fill="white"/>
<path d="M132.853 120.101H130.487L127.491 130.947V131.842H128.805L131.697 120.89L134.588 131.842H135.903V130.947L132.853 120.101Z" fill="white"/>
<path d="M10.9879 70.5018L11.0404 70.3438H3.83787V76.1356H0V80.5584H3.83787V96.3016C3.83787 98.2497 4.41618 99.8293 5.62537 101.04C6.78198 102.251 8.41176 102.83 10.357 102.83H15.036V98.4077H11.2507C10.6199 98.4077 10.0941 98.197 9.7261 97.8285C9.35809 97.4599 9.14779 96.9334 9.14779 96.3016V80.5584H15.036V76.1356H6.78198L10.9879 70.5018Z" fill="white"/>
<path d="M37.1169 75.7144C33.5945 75.7144 30.7555 76.8201 28.6 78.9789C26.4445 81.1376 25.3404 84.0335 25.3404 87.5612V91.4575C25.3404 94.9852 26.4445 97.8811 28.6 100.04C30.7555 102.199 33.6471 103.252 37.1169 103.252C40.6393 103.252 43.5309 102.146 45.6864 100.04C47.8419 97.8811 48.8934 94.9852 48.8934 91.4575V87.5612C48.8934 84.0335 47.7893 81.1376 45.6864 78.9789C43.5835 76.7675 40.6919 75.7144 37.1169 75.7144ZM43.636 92.142C43.636 94.0902 43.0577 95.6697 41.8485 96.8281C40.6393 97.9864 39.0621 98.6183 37.1695 98.6183C35.2243 98.6183 33.6471 98.0391 32.4904 96.8281C31.3338 95.6697 30.7555 94.0902 30.7555 92.142V86.8241C30.7555 84.8759 31.3338 83.349 32.4904 82.138C33.6471 80.9797 35.2243 80.4005 37.1695 80.4005C39.1147 80.4005 40.6919 80.9797 41.8485 82.138C43.0577 83.2964 43.636 84.8759 43.636 86.8241V92.142Z" fill="white"/>
<path d="M66.3478 77.7152C65.0335 78.7683 64.0346 80.1372 63.4037 81.8748V76.1356H58.0938V102.83H63.4037V86.5608C63.4037 84.876 63.9294 83.507 65.0335 82.4539C66.0849 81.4535 67.5044 80.927 69.2393 80.927H73.971V75.925H71.868C69.6599 75.925 67.8199 76.5042 66.3478 77.7152Z" fill="white"/>
<path d="M92.1614 77.7152C90.8471 78.7683 89.8482 80.1372 89.2173 81.8748V76.1356H83.9074V102.83H89.2173V86.5608C89.2173 84.876 89.743 83.507 90.7945 82.4539C91.846 81.4535 93.2654 80.927 95.0004 80.927H99.732V75.925H97.629C95.5261 75.925 93.686 76.5042 92.1614 77.7152Z" fill="white"/>
<path d="M129.278 91.2996V87.3506C129.278 83.8755 128.227 81.0323 126.124 78.9262C124.021 76.8201 121.235 75.7144 117.817 75.7144C114.4 75.7144 111.614 76.8201 109.511 78.9262C107.46 81.0323 106.409 83.8755 106.409 87.3506V91.5628C106.409 95.0379 107.46 97.8811 109.563 99.9872C111.666 102.093 114.453 103.199 117.922 103.199C120.919 103.199 123.39 102.409 125.388 100.777C127.228 99.3027 128.385 97.2493 128.963 94.8273H124.021C123.6 95.8803 123.022 96.7754 122.128 97.4073C121.024 98.197 119.71 98.6183 118.185 98.6183C116.188 98.6183 114.558 98.0391 113.401 96.8807C112.192 95.7224 111.614 94.1428 111.614 92.1947V91.2469H129.278V91.2996ZM111.508 86.5082C111.508 84.6653 112.087 83.1384 113.296 81.9801C114.453 80.8217 116.082 80.2952 117.975 80.2952C119.868 80.2952 121.445 80.8744 122.601 81.9801C123.758 83.1384 124.336 84.6653 124.336 86.5082V87.298H111.456V86.5082H111.508Z" fill="white"/>
</svg>
