<?xml version="1.0" standalone="no"?>
<!DOCTYPE svg PUBLIC "-//W3C//DTD SVG 1.1//EN" "http://www.w3.org/Graphics/SVG/1.1/DTD/svg11.dtd" >
<svg xmlns="http://www.w3.org/2000/svg" xmlns:xlink="http://www.w3.org/1999/xlink" version="1.1">
<metadata>
Created by FontForge 20170731 at Fri May 28 20:14:06 2021
 By Aleksey,,,
Copyright (c) 2017 by Alberto Romanos. All rights reserved.
</metadata>
<defs>
<font id="BwGradualDEMO-ExtraBold" horiz-adv-x="1286" >
  <font-face 
    font-family="Bw Gradual DEMO ExtraBold"
    font-weight="800"
    font-stretch="normal"
    units-per-em="2048"
    panose-1="0 0 9 0 0 0 0 0 0 0"
    ascent="1577"
    descent="-471"
    x-height="1038"
    cap-height="1516"
    bbox="-1589 -492 2499 2118"
    underline-thickness="102"
    underline-position="-307"
    unicode-range="U+000D-FB02"
  />
<missing-glyph horiz-adv-x="2609" 
d="M2486 756l-753 -762q-14 -14 -35 -14q-41 0 -41 47v663l-694 -696q-14 -14 -35 -14q-41 0 -41 47v663l-697 -696q-14 -14 -34 -14q-15 0 -25 10.5t-10 25.5q0 21 10 31l700 698h-663q-47 0 -47 39q0 16 14 33l696 701h-669q-41 0 -41 38v3q0 38 41 38h758q47 0 47 -41
q0 -20 -17 -34l-698 -697h676q17 0 29 -12t12 -29v-669l694 692q13 16 35 16q37 0 37 -45v-663l696 692q13 16 33 16q15 0 25 -12t10 -27q0 -18 -13 -28z" />
    <glyph glyph-name="fi" unicode="fi" horiz-adv-x="1435" 
d="M520 1038h799v-1038h-340v809h-440v-809h-340v809h-150v229h463v4q-157 12 -244.5 77t-87.5 169q0 146 113.5 227.5t316.5 81.5q122 0 230 -41l-43 -251q-47 24 -99 24q-86 0 -132 -45t-46 -127v-119zM979 1497h340v-283h-340v283z" />
    <glyph glyph-name="fl" unicode="fl" horiz-adv-x="1415" 
d="M698 1329q-86 0 -132 -45t-46 -127v-119h303v-229h-284v-809h-340v809h-150v229h463v4q-157 12 -244.5 77t-87.5 169q0 146 113.5 227.5t316.5 81.5q122 0 230 -41l-43 -251q-47 24 -99 24zM958 1577h340v-1577h-340v1577z" />
    <glyph glyph-name="f_f" unicode="ff" horiz-adv-x="1570" 
d="M1425 1329q-86 0 -132 -45t-46 -127v-119h303v-229h-284v-809h-340v809h-387v-809h-340v809h-150v229h463v4q-157 12 -244.5 77t-87.5 169q0 146 113.5 227.5t316.5 81.5q122 0 230 -41l-43 -251q-47 24 -99 24q-86 0 -132 -45t-46 -127v-119h719v4q-157 12 -244.5 77
t-87.5 169q0 146 113.5 227.5t316.5 81.5q150 0 277 -57l-43 -250q-64 39 -146 39z" />
    <glyph glyph-name="f_f_i" unicode="ffi" horiz-adv-x="2166" 
d="M1249 1038h799v-1038h-340v809h-440v-809h-340v809h-389v-809h-340v809h-150v229h463v4q-157 12 -244.5 77t-87.5 169q0 146 113.5 227.5t316.5 81.5q122 0 230 -41l-43 -251q-47 24 -99 24q-86 0 -132 -45t-46 -127v-119h721v4q-157 12 -244.5 77t-87.5 169
q0 146 113.5 227.5t316.5 81.5q122 0 230 -41l-43 -251q-46 24 -99 24q-86 0 -132 -45t-46 -127v-119zM1708 1497h340v-283h-340v283z" />
    <glyph glyph-name="f_f_l" unicode="ffl" horiz-adv-x="2142" 
d="M1425 1329q-86 0 -132 -45t-46 -127v-119h303v-229h-284v-809h-340v809h-387v-809h-340v809h-150v229h463v4q-157 12 -244.5 77t-87.5 169q0 146 113.5 227.5t316.5 81.5q122 0 230 -41l-43 -251q-47 24 -99 24q-86 0 -132 -45t-46 -127v-119h719v4q-157 12 -244.5 77
t-87.5 169q0 146 113.5 227.5t316.5 81.5q122 0 230 -41l-43 -251q-46 24 -99 24zM1686 1577h339v-1577h-339v1577z" />
    <glyph glyph-name=".notdef" horiz-adv-x="2609" 
d="M2486 756l-753 -762q-14 -14 -35 -14q-41 0 -41 47v663l-694 -696q-14 -14 -35 -14q-41 0 -41 47v663l-697 -696q-14 -14 -34 -14q-15 0 -25 10.5t-10 25.5q0 21 10 31l700 698h-663q-47 0 -47 39q0 16 14 33l696 701h-669q-41 0 -41 38v3q0 38 41 38h758q47 0 47 -41
q0 -20 -17 -34l-698 -697h676q17 0 29 -12t12 -29v-669l694 692q13 16 35 16q37 0 37 -45v-663l696 692q13 16 33 16q15 0 25 -12t10 -27q0 -18 -13 -28z" />
    <glyph glyph-name=".null" horiz-adv-x="0" 
 />
    <glyph glyph-name="nonmarkingreturn" horiz-adv-x="682" 
 />
    <glyph glyph-name="CR" unicode="&#xd;" horiz-adv-x="415" 
 />
    <glyph glyph-name="space" unicode=" " horiz-adv-x="415" 
 />
    <glyph glyph-name="exclam" unicode="!" horiz-adv-x="632" 
d="M152 518l-11 998h348l-10 -998h-327zM131 354h369v-354h-369v354z" />
    <glyph glyph-name="quotedbl" unicode="&#x22;" horiz-adv-x="929" 
d="M98 1577h312v-516h-312v516zM520 1577h311v-516h-311v516z" />
    <glyph glyph-name="numbersign" unicode="#" horiz-adv-x="1366" 
d="M1298 1028h-264l-49 -491h260l-14 -99h-256l-45 -438h-105l45 438h-458l-45 -438h-105l47 438h-254l13 99h251l52 491h-250l12 98h248l41 390h104l-39 -390h453l39 390h104l-39 -390h267zM879 539l53 489h-455l-55 -489h457z" />
    <glyph glyph-name="dollar" unicode="$" horiz-adv-x="1417" 
d="M1354 485q0 -227 -156 -359.5t-436 -143.5v-211h-109v211q-259 13 -416 159.5t-182 397.5h351q13 -115 78 -187.5t169 -89.5v373h-4q-198 28 -288 59q-202 71 -248 244q-15 56 -15 123q0 220 145 341t410 132v207h109v-207q235 -13 379.5 -154t169.5 -379h-350
q-7 101 -59 165t-140 83v-323l20 -2q73 -11 114 -17.5t110 -23.5t110 -36t92 -52.5t79 -74.5t47.5 -101t19.5 -134zM459 1092q0 -63 49.5 -96t144.5 -52v311q-92 -6 -143 -48.5t-51 -114.5zM762 260q110 7 170.5 55.5t60.5 128.5q0 40 -16.5 70t-50 49.5t-71.5 32t-93 22.5
v-358z" />
    <glyph glyph-name="percent" unicode="%" horiz-adv-x="1558" 
d="M236 35l1024 1501l75 -55l-1024 -1501zM391 737q-155 0 -242.5 100.5t-87.5 278.5t87.5 278.5t242.5 100.5q156 0 244 -100.5t88 -278.5t-88 -278.5t-244 -100.5zM393 928q40 0 62 49t22 139t-22 139.5t-62 49.5q-41 0 -64.5 -49.5t-23.5 -139.5t23 -139t65 -49z
M1169 -20q-156 0 -243.5 100t-87.5 278t88 278.5t243 100.5q156 0 244 -100.5t88 -278.5t-88 -278t-244 -100zM1169 170q84 0 84 188q0 189 -84 189q-41 0 -64.5 -49.5t-23.5 -139.5t23 -139t65 -49z" />
    <glyph glyph-name="ampersand" unicode="&#x26;" horiz-adv-x="1710" 
d="M1692 184l-187 -204l-270 237q-259 -237 -580 -237q-279 0 -435.5 122t-156.5 338q0 224 212 352q93 56 292 123h1l1 1h1h1l1 1h1h1l1 1h1h1l1 1h2l2 1q84 27 143 51q-241 0 -379.5 67.5t-138.5 184.5q0 148 137 230.5t383 82.5q247 0 383.5 -97.5t136.5 -281.5
q0 -71 -32 -133t-67 -100t-116 -83.5t-120.5 -62.5t-139.5 -57q-3 -1 -4 -2q-42 -17 -60 -24t-55.5 -23.5t-54.5 -25.5t-46.5 -25.5t-44 -29t-33.5 -31t-28 -36t-15.5 -39.5t-6.5 -45q0 -85 70 -133.5t194 -48.5q221 0 404 186.5t286 516.5l254 -95q-82 -245 -219 -444z
M559 1126q0 -69 47.5 -110t128.5 -41q75 33 113.5 68t38.5 85q0 62 -42 95.5t-118 33.5q-80 0 -124 -34t-44 -97z" />
    <glyph glyph-name="quotesingle" unicode="'" horiz-adv-x="509" 
d="M98 1577h312v-516h-312v516z" />
    <glyph glyph-name="parenleft" unicode="(" horiz-adv-x="559" 
d="M561 -434q-133 138 -222 315t-125 342t-36 330q0 259 93 519.5t290 467.5l-86 57q-206 -223 -306.5 -493.5t-100.5 -550.5t100.5 -551t306.5 -494z" />
    <glyph glyph-name="parenright" unicode=")" horiz-adv-x="559" 
d="M-2 -434l86 -58q206 223 307 494.5t101 550.5t-101 550t-307 494l-86 -57q197 -207 290 -467.5t93 -519.5q0 -165 -36 -330t-125 -342t-222 -315z" />
    <glyph glyph-name="asterisk" unicode="*" horiz-adv-x="815" 
d="M641 1169q-124 0 -225 84l-4 -4l176 -239l-146 -107q-64 92 -67 193q-6 76 24 153l-4 2l-176 -239l-145 102q99 135 262 148q33 4 53 2l2 6l-282 92l53 170q92 -29 153 -94.5t86 -157.5h7v297h178q0 -96 -43.5 -174.5t-122.5 -130.5l2 -6l283 92l55 -170
q-65 -19 -119 -19z" />
    <glyph glyph-name="plus" unicode="+" horiz-adv-x="999" 
d="M940 563v-94h-389v-393h-107v393h-385v94h383v393h111v-393h387z" />
    <glyph glyph-name="comma" unicode="," horiz-adv-x="575" 
d="M106 354h369v-291q0 -183 -98.5 -295.5t-272.5 -125.5v168q141 6 232.5 55.5t120.5 134.5h-351v354z" />
    <glyph glyph-name="hyphen" unicode="-" horiz-adv-x="884" 
d="M106 575h672v-96h-672v96z" />
    <glyph glyph-name="period" unicode="." horiz-adv-x="577" 
d="M104 354h369v-354h-369v354z" />
    <glyph glyph-name="slash" unicode="/" horiz-adv-x="860" 
d="M717 1638l100 -36l-672 -1889l-102 37z" />
    <glyph glyph-name="zero" unicode="0" horiz-adv-x="1384" 
d="M692 -20q-288 0 -450 206t-162 572t162 572t450 206q289 0 451 -205.5t162 -572.5t-162 -572.5t-451 -205.5zM692 258q117 0 181.5 132.5t64.5 367.5t-64.5 367t-181.5 132q-115 0 -179 -132t-64 -367t64 -367.5t179 -132.5z" />
    <glyph glyph-name="one" unicode="1" horiz-adv-x="864" 
d="M358 1516h355v-1516h-355v1436h-4q0 -224 -82.5 -349.5t-230.5 -125.5v311q149 0 233 64.5t84 179.5z" />
    <glyph glyph-name="two" unicode="2" horiz-adv-x="1296" 
d="M137 272h1088v-272h-1155v262q346 137 539.5 340.5t193.5 431.5q0 103 -47 163t-127 60q-88 0 -141.5 -75t-61.5 -207h-342q19 264 166 412.5t391 148.5q258 0 401.5 -136.5t143.5 -379.5q0 -311 -276.5 -507t-772.5 -237v-4z" />
    <glyph glyph-name="three" unicode="3" horiz-adv-x="1284" 
d="M666 891q254 0 397 -115t143 -319q0 -226 -156 -351.5t-436 -125.5q-243 0 -390 134.5t-167 374.5h342q6 -109 63.5 -170t155.5 -61q103 0 161.5 52.5t58.5 146.5q0 92 -63 144t-175 52h-35v242q109 6 169.5 56.5t60.5 135.5q0 80 -48 125t-133 45q-83 0 -133.5 -61.5
t-56.5 -171.5h-336q20 242 166 377t389 135q242 0 381 -91t139 -239q0 -146 -138.5 -228.5t-385.5 -82.5v-4h27z" />
    <glyph glyph-name="four" unicode="4" horiz-adv-x="1366" 
d="M1307 598v-272h-197v-326h-356v326h-707v286l408 904h655v-918h197zM758 1487l-391 -885v-4h395v889h-4z" />
    <glyph glyph-name="five" unicode="5" horiz-adv-x="1302" 
d="M641 -20q-246 0 -397 122.5t-176 341.5h348q13 -88 72.5 -137t150.5 -49q109 0 170 64t61 178t-59.5 177.5t-165.5 63.5q-80 0 -136 -41t-83 -112l-342 45l117 883h927v-273h-616l-84 -622h4q31 178 137.5 276t268.5 98q189 0 295 -124t106 -347q0 -257 -157.5 -400.5
t-440.5 -143.5z" />
    <glyph glyph-name="six" unicode="6" horiz-adv-x="1374" 
d="M866 973q204 0 317 -117.5t113 -327.5q0 -257 -163 -402.5t-449 -145.5q-289 0 -446.5 199.5t-157.5 565.5q0 372 169 581.5t470 209.5q234 0 377.5 -122t165.5 -339h-344q-12 86 -64.5 134t-134.5 48q-133 0 -207 -133.5t-74 -373.5v-156h4q0 178 112 278.5t312 100.5z
M682 258q116 0 182 63t66 175q0 102 -66 159.5t-182 57.5q-117 0 -182.5 -56t-65.5 -157q0 -112 67.5 -177t180.5 -65z" />
    <glyph glyph-name="seven" unicode="7" horiz-adv-x="1165" 
d="M27 1516h1106v-263q-215 -70 -334 -369.5t-119 -766.5v-117h-369v66q0 542 198 852t550 321v4h-1032v273z" />
    <glyph glyph-name="eight" unicode="8" horiz-adv-x="1335" 
d="M772 920q231 -20 358 -139.5t127 -317.5q0 -227 -155.5 -355t-433.5 -128t-434 128t-156 355q0 197 127 316t358 141v4q-205 0 -320.5 74.5t-115.5 205.5q0 156 143 244t398 88q254 0 397 -88t143 -244q0 -131 -116 -205.5t-320 -74.5v-4zM492 1081q0 -83 46.5 -129.5
t129.5 -46.5t129.5 46.5t46.5 129.5t-46.5 129.5t-129.5 46.5t-129.5 -46.5t-46.5 -129.5zM668 258q104 0 162.5 54.5t58.5 150.5q0 97 -58.5 151t-162.5 54q-105 0 -164.5 -54.5t-59.5 -150.5q0 -95 60 -150t164 -55z" />
    <glyph glyph-name="nine" unicode="9" horiz-adv-x="1372" 
d="M690 1536q289 0 444.5 -199.5t155.5 -566.5q0 -372 -168 -581t-469 -209q-234 0 -377.5 132t-166.5 369h344q14 -105 66.5 -164t133.5 -59q132 0 206.5 134.5t74.5 373.5v176h-4q0 -169 -112 -263.5t-312 -94.5q-204 0 -318 112t-114 312q0 248 164 388t452 140zM690 844
q116 0 182 50t66 142q0 102 -67.5 161.5t-180.5 59.5q-117 0 -182.5 -57t-65.5 -160q0 -93 65.5 -144.5t182.5 -51.5z" />
    <glyph glyph-name="colon" unicode=":" horiz-adv-x="585" 
d="M109 1042h368v-354h-368v354zM109 354h368v-354h-368v354z" />
    <glyph glyph-name="semicolon" unicode=";" horiz-adv-x="587" 
d="M477 1042v-354h-368v354h368zM111 354h368v-291q0 -184 -98 -296t-272 -125v168q140 6 231.5 55.5t120.5 134.5h-350v354z" />
    <glyph glyph-name="less" unicode="&#x3c;" horiz-adv-x="954" 
d="M862 860l-790 -342v-4l790 -338v-106l-803 352v190l803 355v-107z" />
    <glyph glyph-name="equal" unicode="=" horiz-adv-x="1105" 
d="M113 664v94h880v-94h-880zM113 274v95h880v-95h-880z" />
    <glyph glyph-name="greater" unicode="&#x3e;" horiz-adv-x="954" 
d="M92 967l803 -355v-190l-803 -352v106l791 338v4l-791 342v107z" />
    <glyph glyph-name="question" unicode="?" horiz-adv-x="1167" 
d="M49 1036q17 235 156.5 367.5t372.5 132.5q244 0 380 -110.5t136 -307.5q0 -135 -103.5 -292.5t-288.5 -307.5h-321v4q158 142 247 291.5t89 269.5q0 81 -41.5 127.5t-112.5 46.5q-77 0 -124.5 -59t-53.5 -162h-336zM346 354h371v-354h-371v354z" />
    <glyph glyph-name="at" unicode="@" horiz-adv-x="2344" 
d="M1303 322q0 26 6 63l6 45h-4q-31 -170 -136.5 -266t-263.5 -96q-150 0 -229.5 99t-79.5 279q0 275 127 444t338 169q142 0 220.5 -72t78.5 -203q0 -22 -8 -92h4l61 348h324l-117 -661q-2 -12 -2 -25q0 -36 25.5 -57t68.5 -21q138 0 215.5 118t77.5 329q0 313 -204 489.5
t-566 176.5q-435 0 -678 -244t-243 -678q0 -354 216 -552t603 -198q143 0 301.5 34t298.5 95l74 -202q-147 -64 -325.5 -100t-348.5 -36q-507 0 -790 253.5t-283 705.5q0 533 310.5 831.5t864.5 298.5q482 0 753 -231t271 -643q0 -309 -166.5 -482t-462.5 -173
q-162 0 -249.5 66.5t-87.5 187.5zM1106 322q92 0 155.5 56t88.5 159l4 24q6 37 6 66q0 85 -43.5 131.5t-124.5 46.5q-115 0 -184.5 -82t-69.5 -215q0 -89 44 -137.5t124 -48.5z" />
    <glyph glyph-name="A" unicode="A" horiz-adv-x="1519" 
d="M1135 0l-91 352h-589l-93 -352h-354l441 1516h624l436 -1516h-374zM524 623h451l-223 864h-4z" />
    <glyph glyph-name="B" unicode="B" horiz-adv-x="1468" 
d="M852 891q263 0 410 -113t147 -315q0 -218 -156 -340.5t-434 -122.5h-667v1516h716q205 0 320 -84.5t115 -235.5q0 -141 -129 -221t-357 -80v-4h35zM934 1069q0 83 -48.5 128.5t-135.5 45.5h-242v-348h242q86 0 135 46t49 128zM836 272q95 0 149.5 51t54.5 140
q0 90 -54 140t-150 50h-328v-381h328z" />
    <glyph glyph-name="C" unicode="C" horiz-adv-x="1540" 
d="M1483 598q-32 -291 -211.5 -454.5t-466.5 -163.5q-344 0 -536.5 205.5t-192.5 572.5t192.5 572.5t536.5 205.5q287 0 466.5 -162.5t211.5 -451.5h-338q-25 157 -115 246t-225 89q-170 0 -266.5 -132t-96.5 -367t96.5 -367.5t266.5 -132.5q137 0 226 89.5t114 250.5h338z
" />
    <glyph glyph-name="D" unicode="D" horiz-adv-x="1538" 
d="M152 0v1516h524q372 0 581 -201t209 -557t-209 -557t-581 -201h-524zM508 272h186q190 0 297 128.5t107 357.5t-106.5 357t-297.5 128h-186v-971z" />
    <glyph glyph-name="E" unicode="E" horiz-adv-x="1363" 
d="M508 272h780v-272h-1136v1516h1114v-273h-758v-332h686v-272h-686v-367z" />
    <glyph glyph-name="F" unicode="F" horiz-adv-x="1232" 
d="M1182 1243h-674v-354h567v-271h-567v-618h-356v1516h1030v-273z" />
    <glyph glyph-name="G" unicode="G" horiz-adv-x="1587" 
d="M793 811h694v-811h-334v535h-4q0 -261 -135.5 -408t-376.5 -147q-262 0 -411.5 206t-149.5 572q0 367 193.5 572.5t539.5 205.5q284 0 460.5 -157t205.5 -435h-338q-22 146 -109 229.5t-219 83.5q-172 0 -268.5 -132t-96.5 -367t95 -367.5t264 -132.5q149 0 239 85.5
t105 238.5h-354v229z" />
    <glyph glyph-name="H" unicode="H" horiz-adv-x="1583" 
d="M1077 1516h355v-1516h-355v631h-569v-631h-356v1516h356v-613h569v613z" />
    <glyph glyph-name="I" unicode="I" horiz-adv-x="659" 
d="M152 0v1516h356v-1516h-356z" />
    <glyph glyph-name="J" unicode="J" horiz-adv-x="1208" 
d="M711 469q0 -99 -41.5 -155t-116.5 -56q-79 0 -129.5 77t-61.5 214h-329q14 -267 148 -418t360 -151q248 0 387 134t139 373v1029h-356v-1047z" />
    <glyph glyph-name="K" unicode="K" horiz-adv-x="1525" 
d="M872 795l691 -795h-426l-639 780h-4v-780h-342v1516h342v-715h4l577 715h400z" />
    <glyph glyph-name="L" unicode="L" horiz-adv-x="1185" 
d="M508 281h643v-281h-999v1516h356v-1235z" />
    <glyph glyph-name="M" unicode="M" horiz-adv-x="2146" 
d="M1964 1516l57 -1516h-356l-49 1487h-4l-254 -1487h-615l-229 1487h-4l-47 -1487h-338l57 1516h682l197 -1487h4l219 1487h680z" />
    <glyph glyph-name="N" unicode="N" horiz-adv-x="1583" 
d="M1096 1516h336v-1516h-576l-379 1487h-4l16 -1487h-337v1516h577l379 -1487h4z" />
    <glyph glyph-name="O" unicode="O" horiz-adv-x="1613" 
d="M809 -20q-346 0 -539.5 205.5t-193.5 572.5t193.5 572.5t539.5 205.5q344 0 536.5 -205.5t192.5 -572.5t-192.5 -572.5t-536.5 -205.5zM809 258q170 0 266 132.5t96 367.5t-96 367t-266 132q-173 0 -270 -132t-97 -367t97 -367.5t270 -132.5z" />
    <glyph glyph-name="P" unicode="P" horiz-adv-x="1378" 
d="M741 1516q278 0 434 -129.5t156 -358.5t-156 -358t-434 -129h-233v-541h-356v1516h589zM758 813q97 0 152 57t55 158t-55 158t-152 57h-250v-430h250z" />
    <glyph glyph-name="Q" unicode="Q" horiz-adv-x="1636" 
d="M952 270l629 2v-272h-772q-345 0 -539 203.5t-194 564.5t194 564.5t539 203.5q169 0 307 -50t230 -139t142 -211.5t50 -267.5q0 -280 -154.5 -437t-431.5 -157v-4zM442 764q0 -236 97 -369t270 -133q170 0 266 133t96 369q0 232 -96 362.5t-266 130.5q-173 0 -270 -130.5
t-97 -362.5z" />
    <glyph glyph-name="R" unicode="R" horiz-adv-x="1462" 
d="M1231 367l199 -367h-396l-297 592h-229v-592h-356v1516h616q284 0 443 -117.5t159 -325.5q0 -226 -157.5 -351.5t-440.5 -125.5v-4q158 0 280 -59.5t179 -165.5zM508 848h278q103 0 160.5 53t57.5 148q0 92 -58 143t-162 51h-276v-395z" />
    <glyph glyph-name="S" unicode="S" horiz-adv-x="1423" 
d="M711 -20q-283 0 -455.5 147.5t-198.5 411.5h351q15 -132 97 -206.5t214 -74.5q130 0 203 49t73 137q0 34 -11.5 61t-38 46t-52.5 32t-72 23t-79.5 15.5t-90.5 13.5q-198 28 -288 59q-202 71 -248 244q-15 56 -15 123q0 231 160.5 353t450.5 122q258 0 417 -141.5
t185 -393.5h-350q-9 121 -81 188.5t-192 67.5q-107 0 -168 -43.5t-61 -121.5q0 -29 10.5 -52t36 -40t48.5 -28t68 -20.5t74 -14.5t86 -13q73 -11 114 -17.5t110 -23.5t110 -36t92 -52.5t79 -74.5t47.5 -101t19.5 -134q0 -238 -170.5 -371.5t-474.5 -133.5z" />
    <glyph glyph-name="T" unicode="T" horiz-adv-x="1273" 
d="M1243 1516v-273h-428v-1243h-356v1243h-426v273h1210z" />
    <glyph glyph-name="U" unicode="U" horiz-adv-x="1523" 
d="M1047 528v988h337v-971q0 -267 -164.5 -416t-459.5 -149q-292 0 -456.5 149t-164.5 416v971h355v-988q0 -128 73 -199t203 -71q131 0 204 71.5t73 198.5z" />
    <glyph glyph-name="V" unicode="V" horiz-adv-x="1462" 
d="M1087 1516h353l-396 -1516h-628l-396 1516h377l342 -1487h4z" />
    <glyph glyph-name="W" unicode="W" horiz-adv-x="2230" 
d="M1823 1516h354l-244 -1516h-630l-187 1487h-4l-184 -1487h-631l-242 1516h375l209 -1487h4l201 1487h565l203 -1487h4z" />
    <glyph glyph-name="X" unicode="X" horiz-adv-x="1490" 
d="M1102 795l364 -795h-411l-307 780h-5l-307 -780h-411l364 795l-313 721h387l280 -715h5l278 715h387z" />
    <glyph glyph-name="Y" unicode="Y" horiz-adv-x="1499" 
d="M1137 1516h383l-682 -1516h-383l278 627h-330l-395 889h408l360 -861h4z" />
    <glyph glyph-name="Z" unicode="Z" horiz-adv-x="1462" 
d="M117 272h1282v-272h-1313v618l1225 621v4h-1194v273h1222v-619l-1222 -621v-4z" />
    <glyph glyph-name="bracketleft" unicode="[" horiz-adv-x="581" 
d="M567 1479h-315v-1852h315v-98h-424v2048h424v-98z" />
    <glyph glyph-name="backslash" unicode="\" horiz-adv-x="860" 
d="M143 1638l674 -1888l-102 -37l-672 1889z" />
    <glyph glyph-name="bracketright" unicode="]" horiz-adv-x="581" 
d="M438 1577v-2048h-424v98h316v1852h-316v98h424z" />
    <glyph glyph-name="asciicircum" unicode="^" horiz-adv-x="1044" 
d="M631 1475l358 -752h-115l-350 739h-4l-350 -739h-115l359 752h217z" />
    <glyph glyph-name="underscore" unicode="_" horiz-adv-x="1234" 
d="M59 -129h1117v-96h-1117v96z" />
    <glyph glyph-name="grave" unicode="`" horiz-adv-x="534" 
d="M96 1579l436 -240l-92 -172l-446 219z" />
    <glyph glyph-name="a" unicode="a" 
d="M829 1038h340v-1038h-340v367h-4q0 -182 -95 -284.5t-265 -102.5q-186 0 -291.5 142.5t-105.5 397.5q0 253 105.5 396t291.5 143q170 0 265 -102t95 -285h4v366zM631 248q98 0 155.5 76t57.5 196q0 118 -57.5 195.5t-155.5 77.5q-101 0 -158 -72.5t-57 -200.5
q0 -129 57 -200.5t158 -71.5z" />
    <glyph glyph-name="b" unicode="b" 
d="M821 1059q186 0 292 -143t106 -396q0 -254 -106 -397t-292 -143q-169 0 -264.5 103t-95.5 284h-4v-367h-340v1577h340v-905h4q0 183 95.5 285t264.5 102zM657 248q100 0 156.5 71.5t56.5 200.5q0 128 -56.5 200.5t-156.5 72.5q-99 0 -157 -77t-58 -196q0 -120 58 -196
t157 -76z" />
    <glyph glyph-name="c" unicode="c" horiz-adv-x="1206" 
d="M623 -20q-263 0 -410 142.5t-147 397.5q0 254 147.5 396.5t409.5 142.5q225 0 364.5 -114t165.5 -320h-334q-20 80 -71 124t-125 44q-99 0 -155 -72.5t-56 -200.5q0 -129 55.5 -200.5t155.5 -71.5q76 0 127 44t71 126h334q-26 -207 -165.5 -322.5t-366.5 -115.5z" />
    <glyph glyph-name="d" unicode="d" 
d="M829 1577h340v-1577h-340v367h-4q0 -182 -95 -284.5t-265 -102.5q-186 0 -291.5 142.5t-105.5 397.5q0 253 105.5 396t291.5 143q170 0 265 -102t95 -285h4v905zM631 248q98 0 155.5 76t57.5 196q0 118 -57.5 195.5t-155.5 77.5q-101 0 -158 -72.5t-57 -200.5
q0 -129 57 -200.5t158 -71.5z" />
    <glyph glyph-name="e" unicode="e" horiz-adv-x="1185" 
d="M1122 520v-37h-727q6 -119 59 -184.5t144 -65.5q75 0 127.5 38t69.5 104h327q-29 -186 -168 -290.5t-356 -104.5q-252 0 -392 142.5t-140 397.5t140 397t392 142q248 0 386 -142t138 -397zM598 807q-85 0 -138 -59t-63 -166h396q-12 108 -62 166.5t-133 58.5z" />
    <glyph glyph-name="f" unicode="f" horiz-adv-x="843" 
d="M698 1329q-86 0 -132 -45t-46 -127v-119h303v-229h-284v-809h-340v809h-150v229h463v4q-157 12 -244.5 77t-87.5 169q0 146 113.5 227.5t316.5 81.5q150 0 277 -57l-43 -250q-64 39 -146 39z" />
    <glyph glyph-name="g" unicode="g" 
d="M829 1038h340v-1044q0 -229 -141.5 -357.5t-394.5 -128.5q-212 0 -353 96.5t-178 266.5l322 53q15 -70 70.5 -109.5t138.5 -39.5q92 0 144 53.5t52 148.5v406h-4q0 -183 -95 -285t-265 -102q-187 0 -292 140.5t-105 391.5q0 250 105.5 390.5t291.5 140.5q170 0 265 -102
t95 -285h4v366zM631 264q98 0 155.5 74t57.5 190q0 115 -57.5 190t-155.5 75q-101 0 -158 -70t-57 -195q0 -126 56.5 -195t158.5 -69z" />
    <glyph glyph-name="h" unicode="h" horiz-adv-x="1249" 
d="M784 1059q169 0 264 -115t95 -319v-625h-340v608q0 87 -43.5 136t-120.5 49q-86 0 -134 -62.5t-48 -173.5v-557h-340v1577h340v-909h4q0 184 85.5 287.5t237.5 103.5z" />
    <glyph glyph-name="i" unicode="i" horiz-adv-x="573" 
d="M117 1214v283h340v-283h-340zM117 0v1038h340v-1038h-340z" />
    <glyph glyph-name="j" unicode="j" horiz-adv-x="573" 
d="M117 1214v283h340v-283h-340zM117 -471v1509h340v-1509h-340z" />
    <glyph glyph-name="k" unicode="k" horiz-adv-x="1218" 
d="M827 545l412 -545h-405l-373 530h-4v-530h-340v1577h340v-1028h4l338 489h389z" />
    <glyph glyph-name="l" unicode="l" horiz-adv-x="573" 
d="M117 0v1577h340v-1577h-340z" />
    <glyph glyph-name="m" unicode="m" horiz-adv-x="1892" 
d="M1438 1059q164 0 256 -112t92 -312v-635h-340v618q0 83 -40 129t-112 46q-81 0 -126.5 -60t-45.5 -166v-567h-340v618q0 83 -40.5 129t-112.5 46q-81 0 -126.5 -60t-45.5 -166v-567h-340v1038h340v-368h4q0 183 85.5 286t239.5 103q158 0 247 -103.5t89 -285.5h4
q0 183 82 286t230 103z" />
    <glyph glyph-name="n" unicode="n" horiz-adv-x="1249" 
d="M784 1059q169 0 264 -115t95 -319v-625h-340v608q0 87 -43.5 136t-120.5 49q-86 0 -134 -62.5t-48 -173.5v-557h-340v1038h340v-370h4q0 184 85.5 287.5t237.5 103.5z" />
    <glyph glyph-name="o" unicode="o" horiz-adv-x="1251" 
d="M627 -20q-264 0 -412.5 142.5t-148.5 397.5q0 254 148.5 396.5t412.5 142.5t411.5 -142.5t147.5 -396.5q0 -255 -147.5 -397.5t-411.5 -142.5zM627 248q101 0 158 71.5t57 200.5q0 128 -57 200.5t-158 72.5t-158 -72.5t-57 -200.5q0 -129 57 -200.5t158 -71.5z" />
    <glyph glyph-name="p" unicode="p" 
d="M821 1059q186 0 292 -143t106 -396q0 -254 -106 -397t-292 -143q-169 0 -264.5 103t-95.5 284h-4v-838h-340v1509h340v-366h4q0 183 95.5 285t264.5 102zM657 246q100 0 156.5 72.5t56.5 201.5q0 127 -56.5 199t-156.5 72q-99 0 -157 -76.5t-58 -194.5q0 -120 58 -197
t157 -77z" />
    <glyph glyph-name="q" unicode="q" 
d="M829 1038h340v-1509h-340v838h-4q0 -182 -95 -284.5t-265 -102.5q-187 0 -292 142.5t-105 397.5q0 254 105 396.5t292 142.5q170 0 265 -102t95 -285h4v366zM631 246q100 0 156.5 72.5t56.5 201.5q0 127 -56.5 199t-156.5 72q-101 0 -158 -71.5t-57 -199.5
q0 -129 57 -201.5t158 -72.5z" />
    <glyph glyph-name="r" unicode="r" horiz-adv-x="907" 
d="M758 1059q95 0 157 -35l-98 -299q-58 37 -137 37q-106 0 -164.5 -84t-58.5 -236v-442h-340v1038h340v-450h4q0 222 78.5 346.5t218.5 124.5z" />
    <glyph glyph-name="s" unicode="s" horiz-adv-x="1099" 
d="M547 -20q-232 0 -363 94t-131 262h316q0 -71 47 -110.5t131 -39.5q79 0 123.5 29t44.5 82q0 21 -7.5 38t-25.5 29t-35.5 20.5t-49 15.5t-53.5 10.5t-61 9.5q-52 8 -80 13t-77.5 17t-78 25t-64.5 37t-55.5 53t-33.5 71.5t-14 94.5q0 154 123.5 241t343.5 87t343.5 -90
t123.5 -252h-316q0 66 -39.5 102.5t-111.5 36.5q-67 0 -104 -25.5t-37 -68.5q0 -22 12.5 -38.5t30.5 -27t50.5 -20t59 -14.5t70.5 -11q42 -7 62.5 -10.5t61.5 -12t63.5 -16.5t57.5 -22t55 -29t44 -37.5t36.5 -48.5t21.5 -60.5t9 -74.5q0 -170 -130.5 -265t-362.5 -95z" />
    <glyph glyph-name="t" unicode="t" horiz-adv-x="856" 
d="M817 809h-301v-430q0 -62 40 -96.5t110 -34.5q72 0 133 33v-250q-108 -51 -242 -51q-179 0 -280 92.5t-101 257.5v479h-135v229h154v336h340v-86q0 -104 -86.5 -169t-243.5 -77v-4h612v-229z" />
    <glyph glyph-name="u" unicode="u" horiz-adv-x="1228" 
d="M772 1038h340v-1038h-340v371h-4q0 -185 -82.5 -288t-230.5 -103q-164 0 -256.5 115.5t-92.5 320.5v622h340v-606q0 -88 40 -137t112 -49q82 0 128 62.5t46 172.5v557z" />
    <glyph glyph-name="v" unicode="v" horiz-adv-x="1177" 
d="M774 1038h363l-230 -1038h-639l-229 1038h362l185 -1015h4z" />
    <glyph glyph-name="w" unicode="w" horiz-adv-x="1865" 
d="M1464 1038h353l-177 -1038h-583l-123 1016h-4l-119 -1016h-584l-178 1038h361l133 -1015h4l117 1015h546l119 -1015h4z" />
    <glyph glyph-name="x" unicode="x" horiz-adv-x="1222" 
d="M956 545l238 -545h-383l-199 530h-4l-196 -530h-383l235 545l-201 493h367l178 -489h4l179 489h368z" />
    <glyph glyph-name="y" unicode="y" horiz-adv-x="1175" 
d="M774 1038h363l-334 -1509h-363l107 471h-277l-231 1038h362l185 -1015h4z" />
    <glyph glyph-name="z" unicode="z" horiz-adv-x="1124" 
d="M113 229h946v-229h-975v535l907 270v4h-897v229h926v-534l-907 -271v-4z" />
    <glyph glyph-name="braceleft" unicode="{" horiz-adv-x="534" 
d="M324 762q0 -154 -144 -209q144 -58 144 -211v-553q0 -72 43.5 -117t113.5 -45v-98q-120 0 -193 68t-73 180v553q0 82 -47 128t-131 46v96q84 0 131 46t47 128v555q0 112 73 180t193 68v-98q-70 0 -113.5 -45t-43.5 -117v-555z" />
    <glyph glyph-name="bar" unicode="|" horiz-adv-x="395" 
d="M143 1577h109v-2048h-109v2048z" />
    <glyph glyph-name="braceright" unicode="}" horiz-adv-x="534" 
d="M319 774q0 -82 47 -128t132 -46v-96q-85 0 -132 -46t-47 -128v-553q0 -112 -73 -180t-193 -68v98q70 0 114 45t44 117v553q0 153 143 211q-143 54 -143 209v555q0 72 -44 117t-114 45v98q120 0 193 -68t73 -180v-555z" />
    <glyph glyph-name="asciitilde" unicode="~" horiz-adv-x="1161" 
d="M811 379q-64 0 -118.5 17.5t-93.5 42t-76.5 49t-83 42t-95.5 17.5q-66 0 -105.5 -47t-45.5 -129h-97q6 130 72.5 202t181.5 72q64 0 118.5 -17.5t93.5 -42t76.5 -49t83 -42t95.5 -17.5q66 0 106 47t46 129h96q-6 -130 -72.5 -202t-181.5 -72z" />
    <glyph glyph-name="uni00A0" unicode="&#xa0;" horiz-adv-x="415" 
 />
    <glyph glyph-name="exclamdown" unicode="&#xa1;" horiz-adv-x="604" 
d="M117 1038h368v-354h-368v354zM465 520h-328l-10 -991h348z" />
    <glyph glyph-name="cent" unicode="&#xa2;" horiz-adv-x="1224" 
d="M1165 664q-25 -195 -149 -309.5t-328 -127.5v-227h-106v227q-240 14 -373 155t-133 384q0 241 133 382t373 155v213h106v-213q202 -13 326 -126t149 -307h-334q-31 131 -141 162v-532q107 27 143 164h334zM422 766q0 -112 41.5 -180.5t118.5 -85.5v532
q-77 -17 -118.5 -86.5t-41.5 -179.5z" />
    <glyph glyph-name="sterling" unicode="&#xa3;" horiz-adv-x="1339" 
d="M143 272h1129v-272h-1196v262q139 63 196.5 151t57.5 208q0 14 -2 20h-217v104h180q-12 25 -41.5 77t-47 85.5t-33 82.5t-15.5 91q0 195 144 304.5t402 109.5q244 0 390 -132.5t165 -367.5h-342q-8 103 -63 162.5t-145 59.5q-77 0 -121.5 -41t-44.5 -111
q0 -44 25.5 -97.5t65 -118t56.5 -104.5h356v-104h-329v-2q0 -153 -147.5 -247t-422.5 -116v-4z" />
    <glyph glyph-name="currency" unicode="&#xa4;" horiz-adv-x="1093" 
d="M961 690q0 -164 -74 -270l121 -121l-72 -74l-121 121q-105 -82 -268 -82q-166 0 -271 82l-118 -119l-74 74l121 121q-72 107 -72 268t72 268l-119 121l70 74l118 -121q104 84 273 84q165 0 270 -82l119 119l74 -74l-121 -121q72 -107 72 -268zM547 358q145 0 226 87.5
t81 244.5t-81 244.5t-226 87.5t-226 -87.5t-81 -244.5t81 -244.5t226 -87.5z" />
    <glyph glyph-name="yen" unicode="&#xa5;" horiz-adv-x="1597" 
d="M1554 1516l-395 -879h223v-98h-268l-57 -129h325v-99h-370l-140 -311h-383l138 311h-400v99h445l57 129h-502v98h207l-391 879h408l360 -861h4l356 861h383z" />
    <glyph glyph-name="brokenbar" unicode="&#xa6;" horiz-adv-x="395" 
d="M143 1577h109v-819h-109v819zM143 348h109v-819h-109v819z" />
    <glyph glyph-name="section" unicode="&#xa7;" horiz-adv-x="1447" 
d="M844 94q246 0 384 -67t138 -187q0 -157 -170 -244.5t-473 -87.5q-287 0 -460 136.5t-195 380.5h350q9 -112 92 -175t221 -63q129 0 201 42t72 116q0 70 -70 108.5t-197 38.5q-295 0 -461.5 124.5t-166.5 346.5q0 202 137.5 323.5t388.5 143.5v4q-248 0 -387 63t-139 177
q0 153 152.5 238t426.5 85q277 0 444.5 -129.5t190.5 -361.5h-350q-4 101 -77.5 157t-199.5 56q-108 0 -167.5 -37t-59.5 -104q0 -68 71 -106t197 -38q297 0 463 -124t166 -347q0 -201 -137 -323t-385 -144v-2zM469 563q0 -90 71 -140t197 -50t196.5 50t70.5 140
q0 92 -70.5 142.5t-196.5 50.5q-125 0 -196.5 -50.5t-71.5 -142.5z" />
    <glyph glyph-name="dieresis" unicode="&#xa8;" horiz-adv-x="1013" 
d="M133 1214v283h316v-283h-316zM565 1214v283h316v-283h-316z" />
    <glyph glyph-name="copyright" unicode="&#xa9;" horiz-adv-x="1701" 
d="M852 -20q-365 0 -570.5 205.5t-205.5 572.5t205.5 572.5t570.5 205.5q364 0 569 -206t205 -572t-205 -572t-569 -206zM852 76q315 0 491.5 180.5t176.5 501.5t-176.5 501.5t-491.5 180.5t-491.5 -180.5t-176.5 -501.5t176.5 -501.5t491.5 -180.5zM858 385
q-163 0 -254.5 99t-91.5 276t91.5 277t254.5 100q127 0 212.5 -71t113.5 -196h-105q-20 80 -78.5 125t-142.5 45q-112 0 -174.5 -74t-62.5 -206q0 -131 62.5 -205t174.5 -74q89 0 148 46.5t79 131.5h105q-23 -129 -111 -201.5t-221 -72.5z" />
    <glyph glyph-name="ordfeminine" unicode="&#xaa;" horiz-adv-x="854" 
d="M518 1516h227v-627h-227v225h-2q0 -113 -56 -175t-157 -62q-109 0 -171 86t-62 239t62 239.5t171 86.5q101 0 157 -62.5t56 -175.5h2v226zM416 1055q52 0 82 41.5t30 105.5t-30 106t-82 42q-54 0 -84.5 -39.5t-30.5 -108.5q0 -70 30.5 -108.5t84.5 -38.5z" />
    <glyph glyph-name="guillemotleft" unicode="&#xab;" horiz-adv-x="899" 
d="M63 512l263 395h114l-258 -395l258 -395h-114zM438 512l262 395h115l-258 -395l258 -395h-115z" />
    <glyph glyph-name="logicalnot" unicode="&#xac;" horiz-adv-x="1099" 
d="M100 723h881v-440h-107v344h-774v96z" />
    <glyph glyph-name="uni00AD" unicode="&#xad;" horiz-adv-x="884" 
d="M106 575h672v-96h-672v96z" />
    <glyph glyph-name="registered" unicode="&#xae;" horiz-adv-x="968" 
d="M485 1597q195 0 305.5 -107.5t110.5 -297.5t-110.5 -298t-305.5 -108q-196 0 -305.5 107.5t-109.5 298.5t109.5 298t305.5 107zM485 862q157 0 245.5 87.5t88.5 242.5t-88.5 242.5t-245.5 87.5t-245 -87.5t-88 -242.5t88 -242.5t245 -87.5zM506 1147q66 0 96 -45l68 -109
h-86l-92 154h-91v-154h-79v406h184q71 0 111 -33t40 -94q0 -58 -40 -89.5t-111 -31.5v-4zM401 1206h101q34 0 52.5 16.5t18.5 47.5q0 63 -71 63h-101v-127z" />
    <glyph glyph-name="macron" unicode="&#xaf;" horiz-adv-x="782" 
d="M33 1475h717v-234h-717v234z" />
    <glyph glyph-name="degree" unicode="&#xb0;" horiz-adv-x="718" 
d="M360 1047q-143 0 -223 73t-80 203q0 129 80 201.5t223 72.5q141 0 221.5 -72.5t80.5 -201.5q0 -130 -80.5 -203t-221.5 -73zM358 1208q46 0 73.5 30.5t27.5 84.5q0 52 -27.5 82.5t-73.5 30.5t-72 -30t-26 -83q0 -54 26 -84.5t72 -30.5z" />
    <glyph glyph-name="plusminus" unicode="&#xb1;" horiz-adv-x="1085" 
d="M596 729h387v-96h-389v-316h-105v316h-387v96h387v318h107v-318zM102 80v94h881v-94h-881z" />
    <glyph glyph-name="uni00B2" unicode="&#xb2;" horiz-adv-x="798" 
d="M86 913h668v-180h-707v174q202 87 315 204.5t113 242.5q0 54 -23 85t-63 31q-44 0 -71.5 -41t-32.5 -112h-230q12 159 101.5 248.5t238.5 89.5q158 0 247 -82t89 -227q0 -181 -170 -293.5t-475 -134.5v-5z" />
    <glyph glyph-name="uni00B3" unicode="&#xb3;" horiz-adv-x="788" 
d="M414 1274q153 0 239 -69.5t86 -192.5q0 -138 -95 -214.5t-265 -76.5q-149 0 -239.5 81.5t-102.5 227.5h227q3 -59 34 -92t83 -33q54 0 83.5 28t29.5 79q0 49 -33 76.5t-90 27.5h-21v160q57 3 88 29.5t31 72.5q0 43 -23.5 67.5t-66.5 24.5t-69 -32.5t-31 -91.5h-224
q12 146 102.5 227.5t239.5 81.5q148 0 233 -54t85 -141q0 -86 -83.5 -134t-234.5 -48v-4h17z" />
    <glyph glyph-name="acute" unicode="&#xb4;" horiz-adv-x="565" 
d="M438 1579l103 -193l-447 -219l-92 172z" />
    <glyph glyph-name="paragraph" unicode="&#xb6;" horiz-adv-x="1617" 
d="M1444 1577v-2048h-266v1794h-271v-1794h-266v1794q-135 0 -211 -60t-76 -167q0 -86 51.5 -140.5t143.5 -66.5v-279q-236 14 -369 142.5t-133 343.5q0 226 156.5 353.5t437.5 127.5h803z" />
    <glyph glyph-name="periodcentered" unicode="&#xb7;" horiz-adv-x="581" 
d="M106 721h369v-354h-369v354z" />
    <glyph glyph-name="cedilla" unicode="&#xb8;" horiz-adv-x="628" 
d="M268 -492q-117 0 -215 43v127q73 -47 166 -47q65 0 101 21.5t36 60.5q0 30 -22 48t-60 18q-62 0 -92 -41l-98 82q45 38 111.5 59t136.5 21q114 0 177.5 -46.5t63.5 -129.5q0 -102 -80.5 -159t-224.5 -57z" />
    <glyph glyph-name="uni00B9" unicode="&#xb9;" horiz-adv-x="563" 
d="M227 1642h236v-909h-236v858h-4q0 -146 -50.5 -227.5t-139.5 -81.5v209q92 0 143 39.5t51 111.5z" />
    <glyph glyph-name="ordmasculine" unicode="&#xba;" horiz-adv-x="813" 
d="M408 877q-163 0 -255 86t-92 239q0 154 92 240t255 86q161 0 252.5 -86t91.5 -240q0 -153 -91 -239t-253 -86zM408 1055q54 0 83 38t29 109q0 70 -29 109t-83 39t-84.5 -39.5t-30.5 -108.5q0 -70 30.5 -108.5t84.5 -38.5z" />
    <glyph glyph-name="guillemotright" unicode="&#xbb;" horiz-adv-x="899" 
d="M461 512l-262 -395h-115l258 395l-258 395h115zM836 512l-263 -395h-114l258 395l-258 395h114z" />
    <glyph glyph-name="onequarter" unicode="&#xbc;" horiz-adv-x="1878" 
d="M252 1489h-4q0 -146 -50.5 -227.5t-140.5 -81.5v209q92 0 143.5 39.5t51.5 111.5h235v-909h-235v858zM1272 1536l76 -55l-1024 -1501l-76 55zM1825 367v-181h-119v-186h-238v186h-419v191l221 532h436v-542h119zM1470 891l-210 -520v-4h215v524h-5z" />
    <glyph glyph-name="onehalf" unicode="&#xbd;" horiz-adv-x="1832" 
d="M252 1489h-4q0 -146 -50.5 -227.5t-140.5 -81.5v209q92 0 143.5 39.5t51.5 111.5h235v-909h-235v858zM1272 1536l76 -55l-1024 -1501l-76 55zM1102 180h667v-180h-706v174q202 87 315 204.5t113 242.5q0 54 -23 85t-63 31q-44 0 -72 -41t-33 -112h-229
q12 159 101.5 248.5t238.5 89.5q158 0 247 -82.5t89 -227.5q0 -181 -170 -293.5t-475 -134.5v-4z" />
    <glyph glyph-name="threequarters" unicode="&#xbe;" horiz-adv-x="2109" 
d="M760 909q0 -138 -95.5 -214.5t-265.5 -76.5q-149 0 -239.5 82t-102.5 228h228q3 -59 33.5 -92t82.5 -33q54 0 83.5 27.5t29.5 78.5q0 49 -33 77t-90 28h-20v160q57 3 87.5 29.5t30.5 72.5q0 43 -23.5 67.5t-66.5 24.5t-69 -33t-31 -92h-223q12 146 102.5 227.5
t239.5 81.5q148 0 232.5 -53.5t84.5 -140.5q0 -86 -83 -134t-234 -48v-5h16q154 0 240 -69.5t86 -192.5zM1503 1536l76 -55l-1024 -1501l-76 55zM2056 367v-181h-119v-186h-237v186h-420v191l221 532h436v-542h119zM1702 891l-211 -520v-4h215v524h-4z" />
    <glyph glyph-name="questiondown" unicode="&#xbf;" horiz-adv-x="1146" 
d="M805 684h-369v354h369v-354zM1104 8q-19 -235 -158.5 -367.5t-370.5 -132.5q-245 0 -381.5 110.5t-136.5 307.5q0 133 104 289t290 305h321v-4q-159 -140 -247.5 -287t-88.5 -268q0 -82 41 -128t113 -46q76 0 123 59t55 162h336z" />
    <glyph glyph-name="Agrave" unicode="&#xc0;" horiz-adv-x="1519" 
d="M979 1817l-92 -172l-447 219l103 192zM1135 0l-91 352h-589l-93 -352h-354l441 1516h624l436 -1516h-374zM524 623h451l-223 864h-4z" />
    <glyph glyph-name="Aacute" unicode="&#xc1;" horiz-adv-x="1519" 
d="M1079 1864l-446 -219l-92 172l436 239zM1135 0l-91 352h-589l-93 -352h-354l441 1516h624l436 -1516h-374zM524 623h451l-223 864h-4z" />
    <glyph glyph-name="Acircumflex" unicode="&#xc2;" horiz-adv-x="1519" 
d="M758 1989l-127 -340h-254l155 366h453l156 -366h-252l-127 340h-4zM1135 0l-91 352h-589l-93 -352h-354l441 1516h624l436 -1516h-374zM524 623h451l-223 864h-4z" />
    <glyph glyph-name="Atilde" unicode="&#xc3;" horiz-adv-x="1519" 
d="M596 1782q-42 0 -69 -25.5t-33 -70.5h-138q1 159 74.5 248t200.5 89q56 0 109 -22.5t99 -45t85 -22.5q42 0 69 26.5t33 72.5h137q-3 -160 -75.5 -249t-198.5 -89q-56 0 -109 22t-99 44t-85 22zM1135 0l-91 352h-589l-93 -352h-354l441 1516h624l436 -1516h-374zM524 623
h451l-223 864h-4z" />
    <glyph glyph-name="Adieresis" unicode="&#xc4;" horiz-adv-x="1519" 
d="M702 1974v-282h-315v282h315zM1135 1974v-282h-316v282h316zM1135 0l-91 352h-589l-93 -352h-354l441 1516h624l436 -1516h-374zM524 623h451l-223 864h-4z" />
    <glyph glyph-name="Aring" unicode="&#xc5;" horiz-adv-x="1519" 
d="M758 1612q-133 0 -208 66.5t-75 183.5q0 119 75 185.5t208 66.5t207.5 -66.5t74.5 -185.5q0 -117 -74.5 -183.5t-207.5 -66.5zM758 1966q-46 0 -71 -27t-25 -77q0 -48 25.5 -75.5t70.5 -27.5t70.5 27.5t25.5 75.5q0 50 -25 77t-71 27zM1135 0l-91 352h-589l-93 -352h-354
l441 1516h624l436 -1516h-374zM524 623h451l-223 864h-4z" />
    <glyph glyph-name="AE" unicode="&#xc6;" horiz-adv-x="2275" 
d="M1442 272h758v-272h-1092l-43 352h-580l-137 -352h-366l626 1516h1569v-273h-885l51 -336h762v-272h-719zM590 623h444l-104 864h-4z" />
    <glyph glyph-name="Ccedilla" unicode="&#xc7;" horiz-adv-x="1540" 
d="M1483 598q-32 -291 -211.5 -454.5t-466.5 -163.5q-344 0 -536.5 205.5t-192.5 572.5t192.5 572.5t536.5 205.5q287 0 466.5 -162.5t211.5 -451.5h-338q-25 157 -115 246t-225 89q-170 0 -266.5 -132t-96.5 -367t96.5 -367.5t266.5 -132.5q137 0 226 89.5t114 250.5h338z
M774 -492q-117 0 -215 43v127q73 -47 166 -47q65 0 101 21.5t36 60.5q0 30 -22 48t-60 18q-62 0 -92 -41l-98 82q45 38 111.5 59t136.5 21q114 0 177.5 -46.5t63.5 -129.5q0 -102 -80.5 -159t-224.5 -57z" />
    <glyph glyph-name="Egrave" unicode="&#xc8;" horiz-adv-x="1363" 
d="M930 1817l-92 -172l-447 219l103 192zM508 272h780v-272h-1136v1516h1114v-273h-758v-332h686v-272h-686v-367z" />
    <glyph glyph-name="Eacute" unicode="&#xc9;" horiz-adv-x="1363" 
d="M1028 1864l-446 -219l-93 172l437 239zM508 272h780v-272h-1136v1516h1114v-273h-758v-332h686v-272h-686v-367z" />
    <glyph glyph-name="Ecircumflex" unicode="&#xca;" horiz-adv-x="1363" 
d="M707 1989l-127 -340h-254l155 366h453l156 -366h-252l-127 340h-4zM508 272h780v-272h-1136v1516h1114v-273h-758v-332h686v-272h-686v-367z" />
    <glyph glyph-name="Edieresis" unicode="&#xcb;" horiz-adv-x="1363" 
d="M651 1974v-282h-315v282h315zM1083 1974v-282h-315v282h315zM508 272h780v-272h-1136v1516h1114v-273h-758v-332h686v-272h-686v-367z" />
    <glyph glyph-name="Igrave" unicode="&#xcc;" horiz-adv-x="659" 
d="M115 2056l436 -239l-92 -172l-447 219zM152 0v1516h356v-1516h-356z" />
    <glyph glyph-name="Iacute" unicode="&#xcd;" horiz-adv-x="659" 
d="M547 2056l102 -192l-446 -219l-92 172zM152 0v1516h356v-1516h-356z" />
    <glyph glyph-name="Icircumflex" unicode="&#xce;" horiz-adv-x="659" 
d="M328 1989l-127 -340h-254l155 366h453l156 -366h-252l-127 340h-4zM152 0v1516h356v-1516h-356z" />
    <glyph glyph-name="Idieresis" unicode="&#xcf;" horiz-adv-x="659" 
d="M-43 1692v282h315v-282h-315zM389 1692v282h316v-282h-316zM152 0v1516h356v-1516h-356z" />
    <glyph glyph-name="Eth" unicode="&#xd0;" horiz-adv-x="1550" 
d="M688 1516q372 0 581.5 -201t209.5 -557t-209.5 -557t-581.5 -201h-524v721h-144v96h144v699h524zM707 272q190 0 296.5 128.5t106.5 357.5t-106.5 357t-296.5 128h-187v-426h289v-96h-289v-449h187z" />
    <glyph glyph-name="Ntilde" unicode="&#xd1;" horiz-adv-x="1583" 
d="M631 1782q-42 0 -69.5 -25.5t-33.5 -70.5h-137q1 159 74.5 248t200.5 89q56 0 108.5 -22.5t98.5 -45t85 -22.5q42 0 69.5 26.5t33.5 72.5h137q-3 -160 -75.5 -249t-198.5 -89q-56 0 -109 22t-99 44t-85 22zM1096 1516h336v-1516h-576l-379 1487h-4l16 -1487h-337v1516
h577l379 -1487h4z" />
    <glyph glyph-name="Ograve" unicode="&#xd2;" horiz-adv-x="1613" 
d="M592 2056l436 -239l-92 -172l-447 219zM809 -20q-346 0 -539.5 205.5t-193.5 572.5t193.5 572.5t539.5 205.5q344 0 536.5 -205.5t192.5 -572.5t-192.5 -572.5t-536.5 -205.5zM809 258q170 0 266 132.5t96 367.5t-96 367t-266 132q-173 0 -270 -132t-97 -367t97 -367.5
t270 -132.5z" />
    <glyph glyph-name="Oacute" unicode="&#xd3;" horiz-adv-x="1613" 
d="M1024 2056l102 -192l-446 -219l-92 172zM809 -20q-346 0 -539.5 205.5t-193.5 572.5t193.5 572.5t539.5 205.5q344 0 536.5 -205.5t192.5 -572.5t-192.5 -572.5t-536.5 -205.5zM809 258q170 0 266 132.5t96 367.5t-96 367t-266 132q-173 0 -270 -132t-97 -367t97 -367.5
t270 -132.5z" />
    <glyph glyph-name="Ocircumflex" unicode="&#xd4;" horiz-adv-x="1613" 
d="M805 1989l-127 -340h-254l156 366h452l156 -366h-252l-127 340h-4zM809 1536q344 0 536.5 -205.5t192.5 -572.5t-192.5 -572.5t-536.5 -205.5q-346 0 -539.5 205.5t-193.5 572.5t193.5 572.5t539.5 205.5zM809 258q170 0 266 132.5t96 367.5t-96 367t-266 132
q-173 0 -270 -132t-97 -367t97 -367.5t270 -132.5z" />
    <glyph glyph-name="Otilde" unicode="&#xd5;" horiz-adv-x="1613" 
d="M938 1694q-56 0 -109 22t-99 44t-85 22q-42 0 -69 -25.5t-33 -70.5h-137q1 159 74 248t200 89q56 0 109 -22.5t99 -45t85 -22.5q42 0 69 26.5t33 72.5h137q-3 -160 -75.5 -249t-198.5 -89zM809 -20q-346 0 -539.5 205.5t-193.5 572.5t193.5 572.5t539.5 205.5
q344 0 536.5 -205.5t192.5 -572.5t-192.5 -572.5t-536.5 -205.5zM809 258q170 0 266 132.5t96 367.5t-96 367t-266 132q-173 0 -270 -132t-97 -367t97 -367.5t270 -132.5z" />
    <glyph glyph-name="Odieresis" unicode="&#xd6;" horiz-adv-x="1613" 
d="M434 1692v282h316v-282h-316zM866 1692v282h316v-282h-316zM809 -20q-346 0 -539.5 205.5t-193.5 572.5t193.5 572.5t539.5 205.5q344 0 536.5 -205.5t192.5 -572.5t-192.5 -572.5t-536.5 -205.5zM809 258q170 0 266 132.5t96 367.5t-96 367t-266 132q-173 0 -270 -132
t-97 -367t97 -367.5t270 -132.5z" />
    <glyph glyph-name="multiply" unicode="&#xd7;" horiz-adv-x="927" 
d="M846 811l-309 -307l307 -307l-74 -74l-307 307l-307 -307l-74 74l307 307l-307 307l74 74l307 -307l307 307z" />
    <glyph glyph-name="Oslash" unicode="&#xd8;" horiz-adv-x="1613" 
d="M1274 1395q129 -99 196.5 -260.5t67.5 -376.5q0 -367 -192.5 -572.5t-536.5 -205.5q-212 0 -373 79l-88 -141l-100 57l92 146q-264 207 -264 637q0 367 193.5 572.5t539.5 205.5q213 0 367 -80l88 141l100 -57zM442 758q0 -209 80 -344l488 778q-80 65 -201 65
q-173 0 -270 -132t-97 -367zM809 258q170 0 266 132.5t96 367.5q0 215 -81 346l-488 -780q84 -66 207 -66z" />
    <glyph glyph-name="Ugrave" unicode="&#xd9;" horiz-adv-x="1523" 
d="M555 2056l436 -239l-92 -172l-446 219zM1047 528v988h337v-971q0 -267 -164.5 -416t-459.5 -149q-292 0 -456.5 149t-164.5 416v971h355v-988q0 -128 73 -199t203 -71q131 0 204 71.5t73 198.5z" />
    <glyph glyph-name="Uacute" unicode="&#xda;" horiz-adv-x="1523" 
d="M987 2056l103 -192l-447 -219l-92 172zM1047 528v988h337v-971q0 -267 -164.5 -416t-459.5 -149q-292 0 -456.5 149t-164.5 416v971h355v-988q0 -128 73 -199t203 -71q131 0 204 71.5t73 198.5z" />
    <glyph glyph-name="Ucircumflex" unicode="&#xdb;" horiz-adv-x="1523" 
d="M768 1989l-127 -340h-254l156 366h452l156 -366h-252l-127 340h-4zM1047 1516h337v-971q0 -267 -164.5 -416t-459.5 -149q-292 0 -456.5 149t-164.5 416v971h355v-988q0 -128 73 -199t203 -71q131 0 204 71.5t73 198.5v988z" />
    <glyph glyph-name="Udieresis" unicode="&#xdc;" horiz-adv-x="1523" 
d="M397 1692v282h316v-282h-316zM829 1692v282h316v-282h-316zM1047 528v988h337v-971q0 -267 -164.5 -416t-459.5 -149q-292 0 -456.5 149t-164.5 416v971h355v-988q0 -128 73 -199t203 -71q131 0 204 71.5t73 198.5z" />
    <glyph glyph-name="Yacute" unicode="&#xdd;" horiz-adv-x="1499" 
d="M1098 1864l-447 -219l-92 172l436 239zM1137 1516h383l-682 -1516h-383l278 627h-330l-395 889h408l360 -861h4z" />
    <glyph glyph-name="Thorn" unicode="&#xde;" horiz-adv-x="1394" 
d="M741 1266q278 0 434 -132t156 -366t-156 -366t-434 -132h-233v-270h-356v1516h356v-250h233zM758 541q97 0 152 60.5t55 166.5t-55 165.5t-152 59.5h-250v-452h250z" />
    <glyph glyph-name="germandbls" unicode="&#xdf;" horiz-adv-x="1318" 
d="M670 979q276 0 431.5 -131t155.5 -359q0 -241 -129.5 -375t-361.5 -134q-114 0 -193 24v252q54 -8 97 -8q114 0 176.5 68t62.5 190q0 120 -68.5 189t-191.5 69h-47v219q94 2 147.5 49.5t53.5 130.5q0 77 -42.5 121.5t-117.5 44.5q-88 0 -137 -52.5t-49 -146.5v-1130h-340
v1118q0 226 138.5 352.5t385.5 126.5q239 0 373.5 -82.5t134.5 -230.5q0 -142 -126.5 -221.5t-352.5 -79.5v-4z" />
    <glyph glyph-name="agrave" unicode="&#xe0;" 
d="M850 1339l-92 -172l-447 219l103 193zM829 1038h340v-1038h-340v367h-4q0 -182 -95 -284.5t-265 -102.5q-186 0 -291.5 142.5t-105.5 397.5q0 253 105.5 396t291.5 143q170 0 265 -102t95 -285h4v366zM631 248q98 0 155.5 76t57.5 196q0 118 -57.5 195.5t-155.5 77.5
q-101 0 -158 -72.5t-57 -200.5q0 -129 57 -200.5t158 -71.5z" />
    <glyph glyph-name="aacute" unicode="&#xe1;" 
d="M950 1386l-446 -219l-92 172l436 240zM829 1038h340v-1038h-340v367h-4q0 -182 -95 -284.5t-265 -102.5q-186 0 -291.5 142.5t-105.5 397.5q0 253 105.5 396t291.5 143q170 0 265 -102t95 -285h4v366zM631 248q98 0 155.5 76t57.5 196q0 118 -57.5 195.5t-155.5 77.5
q-101 0 -158 -72.5t-57 -200.5q0 -129 57 -200.5t158 -71.5z" />
    <glyph glyph-name="acircumflex" unicode="&#xe2;" 
d="M629 1511l-127 -340h-254l155 367h453l156 -367h-252l-127 340h-4zM829 1038h340v-1038h-340v367h-4q0 -182 -95 -284.5t-265 -102.5q-186 0 -291.5 142.5t-105.5 397.5q0 253 105.5 396t291.5 143q170 0 265 -102t95 -285h4v366zM631 248q98 0 155.5 76t57.5 196
q0 118 -57.5 195.5t-155.5 77.5q-101 0 -158 -72.5t-57 -200.5q0 -129 57 -200.5t158 -71.5z" />
    <glyph glyph-name="atilde" unicode="&#xe3;" 
d="M467 1305q-42 0 -69 -26t-33 -71h-138q1 159 74.5 248.5t200.5 89.5q56 0 109 -22.5t99 -45t85 -22.5q42 0 69 26t33 72h137q-3 -159 -75.5 -248t-198.5 -89q-56 0 -109 22t-99 44t-85 22zM829 1038h340v-1038h-340v367h-4q0 -182 -95 -284.5t-265 -102.5
q-186 0 -291.5 142.5t-105.5 397.5q0 253 105.5 396t291.5 143q170 0 265 -102t95 -285h4v366zM631 248q98 0 155.5 76t57.5 196q0 118 -57.5 195.5t-155.5 77.5q-101 0 -158 -72.5t-57 -200.5q0 -129 57 -200.5t158 -71.5z" />
    <glyph glyph-name="adieresis" unicode="&#xe4;" 
d="M573 1497v-283h-315v283h315zM1006 1497v-283h-316v283h316zM829 1038h340v-1038h-340v367h-4q0 -182 -95 -284.5t-265 -102.5q-186 0 -291.5 142.5t-105.5 397.5q0 253 105.5 396t291.5 143q170 0 265 -102t95 -285h4v366zM631 248q98 0 155.5 76t57.5 196
q0 118 -57.5 195.5t-155.5 77.5q-101 0 -158 -72.5t-57 -200.5q0 -129 57 -200.5t158 -71.5z" />
    <glyph glyph-name="aring" unicode="&#xe5;" 
d="M629 1135q-133 0 -208 66t-75 183q0 119 75 185.5t208 66.5t207.5 -66.5t74.5 -185.5q0 -117 -74.5 -183t-207.5 -66zM629 1489q-46 0 -71.5 -27.5t-25.5 -77.5q0 -47 25.5 -74.5t71.5 -27.5q45 0 70.5 27t25.5 75q0 50 -25 77.5t-71 27.5zM829 1038h340v-1038h-340v367
h-4q0 -182 -95 -284.5t-265 -102.5q-186 0 -291.5 142.5t-105.5 397.5q0 253 105.5 396t291.5 143q170 0 265 -102t95 -285h4v366zM631 248q98 0 155.5 76t57.5 196q0 118 -57.5 195.5t-155.5 77.5q-101 0 -158 -72.5t-57 -200.5q0 -129 57 -200.5t158 -71.5z" />
    <glyph glyph-name="ae" unicode="&#xe6;" horiz-adv-x="1947" 
d="M1884 520v-37h-729q6 -118 60 -184t143 -66q76 0 127.5 37.5t70.5 104.5h328q-22 -186 -122 -290.5t-255 -104.5q-158 0 -245.5 97.5t-87.5 272.5h-5v-350h-340v367h-4q0 -182 -95 -284.5t-265 -102.5q-186 0 -291.5 142.5t-105.5 397.5q0 253 105.5 396t291.5 143
q170 0 265 -102t95 -285h4v366h340v-350h5q0 175 87.5 273t245.5 98q177 0 277 -142t100 -397zM1358 807q-85 0 -138 -59t-63 -166h395q-11 108 -61 166.5t-133 58.5zM631 248q98 0 155.5 76t57.5 196q0 118 -57.5 195.5t-155.5 77.5q-101 0 -158 -72.5t-57 -200.5
q0 -129 57 -200.5t158 -71.5z" />
    <glyph glyph-name="ccedilla" unicode="&#xe7;" horiz-adv-x="1206" 
d="M623 -20q-263 0 -410 142.5t-147 397.5q0 254 147.5 396.5t409.5 142.5q225 0 364.5 -114t165.5 -320h-334q-20 80 -71 124t-125 44q-99 0 -155 -72.5t-56 -200.5q0 -129 55.5 -200.5t155.5 -71.5q76 0 127 44t71 126h334q-26 -207 -165.5 -322.5t-366.5 -115.5z
M592 -492q-117 0 -215 43v127q73 -47 166 -47q65 0 101 21.5t36 60.5q0 30 -22 48t-60 18q-62 0 -92 -41l-98 82q45 38 111 59t136 21q114 0 178 -46.5t64 -129.5q0 -102 -80.5 -159t-224.5 -57z" />
    <glyph glyph-name="egrave" unicode="&#xe8;" horiz-adv-x="1185" 
d="M817 1339l-92 -172l-446 219l102 193zM1122 520v-37h-727q6 -119 59 -184.5t144 -65.5q75 0 127.5 38t69.5 104h327q-29 -186 -168 -290.5t-356 -104.5q-252 0 -392 142.5t-140 397.5t140 397t392 142q248 0 386 -142t138 -397zM598 807q-85 0 -138 -59t-63 -166h396
q-12 108 -62 166.5t-133 58.5z" />
    <glyph glyph-name="eacute" unicode="&#xe9;" horiz-adv-x="1185" 
d="M918 1386l-447 -219l-92 172l436 240zM1122 520v-37h-727q6 -119 59 -184.5t144 -65.5q75 0 127.5 38t69.5 104h327q-29 -186 -168 -290.5t-356 -104.5q-252 0 -392 142.5t-140 397.5t140 397t392 142q248 0 386 -142t138 -397zM598 807q-85 0 -138 -59t-63 -166h396
q-12 108 -62 166.5t-133 58.5z" />
    <glyph glyph-name="ecircumflex" unicode="&#xea;" horiz-adv-x="1185" 
d="M596 1511l-127 -340h-254l156 367h452l156 -367h-252l-127 340h-4zM1122 520v-37h-727q6 -119 59 -184.5t144 -65.5q75 0 127.5 38t69.5 104h327q-29 -186 -168 -290.5t-356 -104.5q-252 0 -392 142.5t-140 397.5t140 397t392 142q248 0 386 -142t138 -397zM598 807
q-85 0 -138 -59t-63 -166h396q-12 108 -62 166.5t-133 58.5z" />
    <glyph glyph-name="edieresis" unicode="&#xeb;" horiz-adv-x="1185" 
d="M541 1497v-283h-316v283h316zM973 1497v-283h-316v283h316zM1122 520v-37h-727q6 -119 59 -184.5t144 -65.5q75 0 127.5 38t69.5 104h327q-29 -186 -168 -290.5t-356 -104.5q-252 0 -392 142.5t-140 397.5t140 397t392 142q248 0 386 -142t138 -397zM598 807
q-85 0 -138 -59t-63 -166h396q-12 108 -62 166.5t-133 58.5z" />
    <glyph glyph-name="igrave" unicode="&#xec;" horiz-adv-x="573" 
d="M72 1579l436 -240l-92 -172l-447 219zM117 1038h340v-1038h-340v1038z" />
    <glyph glyph-name="iacute" unicode="&#xed;" horiz-adv-x="573" 
d="M506 1579l102 -193l-446 -219l-92 172zM117 1038h340v-1038h-340v1038z" />
    <glyph glyph-name="icircumflex" unicode="&#xee;" horiz-adv-x="573" 
d="M287 1511l-127 -340h-254l155 367h453l156 -367h-252l-127 340h-4zM117 0v1038h340v-1038h-340z" />
    <glyph glyph-name="idieresis" unicode="&#xef;" horiz-adv-x="573" 
d="M-84 1214v283h315v-283h-315zM348 1214v283h316v-283h-316zM117 1038h340v-1038h-340v1038z" />
    <glyph glyph-name="eth" unicode="&#xf0;" horiz-adv-x="1263" 
d="M821 1350q197 -132 281 -315.5t84 -452.5q0 -286 -147.5 -444t-413.5 -158q-265 0 -412 138t-147 384q0 238 107.5 372t299.5 134q172 0 268.5 -113.5t96.5 -312.5h4q0 260 -60.5 399.5t-220.5 230.5l-311 -163l-96 157l190 101q-72 25 -190 59l67 231q233 -63 408 -141
l270 141l98 -155zM627 248q100 0 157.5 67.5t57.5 186.5t-57.5 186.5t-157.5 67.5t-157.5 -67.5t-57.5 -186.5t57.5 -186.5t157.5 -67.5z" />
    <glyph glyph-name="ntilde" unicode="&#xf1;" horiz-adv-x="1249" 
d="M469 1305q-42 0 -69 -26t-33 -71h-138q1 159 74.5 248.5t200.5 89.5q56 0 109 -22.5t99 -45t85 -22.5q42 0 69 26t33 72h137q-3 -159 -75.5 -248t-198.5 -89q-56 0 -109 22t-99 44t-85 22zM784 1059q169 0 264 -115t95 -319v-625h-340v608q0 87 -43.5 136t-120.5 49
q-86 0 -134 -62.5t-48 -173.5v-557h-340v1038h340v-370h4q0 184 85.5 287.5t237.5 103.5z" />
    <glyph glyph-name="ograve" unicode="&#xf2;" horiz-adv-x="1251" 
d="M412 1579l436 -240l-92 -172l-447 219zM627 -20q-264 0 -412.5 142.5t-148.5 397.5q0 254 148.5 396.5t412.5 142.5t411.5 -142.5t147.5 -396.5q0 -255 -147.5 -397.5t-411.5 -142.5zM627 248q101 0 158 71.5t57 200.5q0 128 -57 200.5t-158 72.5t-158 -72.5t-57 -200.5
q0 -129 57 -200.5t158 -71.5z" />
    <glyph glyph-name="oacute" unicode="&#xf3;" horiz-adv-x="1251" 
d="M844 1579l102 -193l-446 -219l-92 172zM627 -20q-264 0 -412.5 142.5t-148.5 397.5q0 254 148.5 396.5t412.5 142.5t411.5 -142.5t147.5 -396.5q0 -255 -147.5 -397.5t-411.5 -142.5zM627 248q101 0 158 71.5t57 200.5q0 128 -57 200.5t-158 72.5t-158 -72.5t-57 -200.5
q0 -129 57 -200.5t158 -71.5z" />
    <glyph glyph-name="ocircumflex" unicode="&#xf4;" horiz-adv-x="1251" 
d="M625 1511l-127 -340h-254l155 367h453l156 -367h-252l-127 340h-4zM627 1059q264 0 411.5 -142.5t147.5 -396.5q0 -255 -147.5 -397.5t-411.5 -142.5t-412.5 142.5t-148.5 397.5q0 254 148.5 396.5t412.5 142.5zM627 248q101 0 158 71.5t57 200.5q0 128 -57 200.5
t-158 72.5t-158 -72.5t-57 -200.5q0 -129 57 -200.5t158 -71.5z" />
    <glyph glyph-name="otilde" unicode="&#xf5;" horiz-adv-x="1251" 
d="M758 1217q-56 0 -109 22t-99 44t-85 22q-42 0 -69.5 -26t-33.5 -71h-137q1 159 74.5 248.5t200.5 89.5q56 0 109 -22.5t99 -45t85 -22.5q42 0 69 26t33 72h137q-3 -159 -75.5 -248t-198.5 -89zM627 -20q-264 0 -412.5 142.5t-148.5 397.5q0 254 148.5 396.5t412.5 142.5
t411.5 -142.5t147.5 -396.5q0 -255 -147.5 -397.5t-411.5 -142.5zM627 248q101 0 158 71.5t57 200.5q0 128 -57 200.5t-158 72.5t-158 -72.5t-57 -200.5q0 -129 57 -200.5t158 -71.5z" />
    <glyph glyph-name="odieresis" unicode="&#xf6;" horiz-adv-x="1251" 
d="M254 1214v283h315v-283h-315zM686 1214v283h315v-283h-315zM627 -20q-264 0 -412.5 142.5t-148.5 397.5q0 254 148.5 396.5t412.5 142.5t411.5 -142.5t147.5 -396.5q0 -255 -147.5 -397.5t-411.5 -142.5zM627 248q101 0 158 71.5t57 200.5q0 128 -57 200.5t-158 72.5
t-158 -72.5t-57 -200.5q0 -129 57 -200.5t158 -71.5z" />
    <glyph glyph-name="divide" unicode="&#xf7;" horiz-adv-x="1083" 
d="M543 754q-76 0 -76 71q0 35 19.5 54.5t56.5 19.5q75 0 75 -74q0 -71 -75 -71zM100 469v94h883v-94h-883zM543 133q-76 0 -76 70q0 76 76 76q75 0 75 -76q0 -70 -75 -70z" />
    <glyph glyph-name="oslash" unicode="&#xf8;" horiz-adv-x="1251" 
d="M981 963q205 -139 205 -443q0 -255 -147.5 -397.5t-411.5 -142.5q-152 0 -267 47l-81 -123l-86 55l77 117q-204 143 -204 444q0 254 148.5 396.5t412.5 142.5q149 0 264 -47l82 123l86 -56zM412 520q0 -104 39 -174l278 422q-45 25 -102 25q-101 0 -158 -72.5t-57 -200.5
zM627 248q101 0 158 71.5t57 200.5q0 104 -39 174l-279 -422q44 -24 103 -24z" />
    <glyph glyph-name="ugrave" unicode="&#xf9;" horiz-adv-x="1228" 
d="M834 1339l-93 -172l-446 219l102 193zM772 1038h340v-1038h-340v371h-4q0 -185 -82.5 -288t-230.5 -103q-164 0 -256.5 115.5t-92.5 320.5v622h340v-606q0 -88 40 -137t112 -49q82 0 128 62.5t46 172.5v557z" />
    <glyph glyph-name="uacute" unicode="&#xfa;" horiz-adv-x="1228" 
d="M932 1386l-447 -219l-92 172l436 240zM772 1038h340v-1038h-340v371h-4q0 -185 -82.5 -288t-230.5 -103q-164 0 -256.5 115.5t-92.5 320.5v622h340v-606q0 -88 40 -137t112 -49q82 0 128 62.5t46 172.5v557z" />
    <glyph glyph-name="ucircumflex" unicode="&#xfb;" horiz-adv-x="1228" 
d="M610 1511l-127 -340h-254l156 367h453l155 -367h-252l-127 340h-4zM772 1038h340v-1038h-340v371h-4q0 -185 -82.5 -288t-230.5 -103q-164 0 -256.5 115.5t-92.5 320.5v622h340v-606q0 -88 40 -137t112 -49q82 0 128 62.5t46 172.5v557z" />
    <glyph glyph-name="udieresis" unicode="&#xfc;" horiz-adv-x="1228" 
d="M555 1497v-283h-315v283h315zM987 1497v-283h-315v283h315zM772 1038h340v-1038h-340v371h-4q0 -185 -82.5 -288t-230.5 -103q-164 0 -256.5 115.5t-92.5 320.5v622h340v-606q0 -88 40 -137t112 -49q82 0 128 62.5t46 172.5v557z" />
    <glyph glyph-name="yacute" unicode="&#xfd;" horiz-adv-x="1175" 
d="M915 1386l-446 -219l-92 172l436 240zM774 1038h363l-334 -1509h-363l107 471h-277l-231 1038h362l185 -1015h4z" />
    <glyph glyph-name="thorn" unicode="&#xfe;" 
d="M821 1059q186 0 292 -143t106 -396q0 -254 -106 -397t-292 -143q-169 0 -264.5 89.5t-95.5 249.5h-4v-790h-340v2048h340v-858h4q0 160 95.5 250t264.5 90zM657 246q100 0 156.5 72.5t56.5 201.5q0 127 -56.5 199t-156.5 72q-99 0 -157 -76.5t-58 -194.5q0 -120 58 -197
t157 -77z" />
    <glyph glyph-name="ydieresis" unicode="&#xff;" horiz-adv-x="1175" 
d="M539 1497v-283h-316v283h316zM971 1497v-283h-316v283h316zM774 1038h363l-334 -1509h-363l107 471h-277l-231 1038h362l185 -1015h4z" />
    <glyph glyph-name="Amacron" unicode="&#x100;" horiz-adv-x="1519" 
d="M1116 1952v-234h-717v234h717zM1135 0l-91 352h-589l-93 -352h-354l441 1516h624l436 -1516h-374zM524 623h451l-223 864h-4z" />
    <glyph glyph-name="amacron" unicode="&#x101;" 
d="M987 1475v-234h-717v234h717zM829 1038h340v-1038h-340v367h-4q0 -182 -95 -284.5t-265 -102.5q-186 0 -291.5 142.5t-105.5 397.5q0 253 105.5 396t291.5 143q170 0 265 -102t95 -285h4v366zM631 248q98 0 155.5 76t57.5 196q0 118 -57.5 195.5t-155.5 77.5
q-101 0 -158 -72.5t-57 -200.5q0 -129 57 -200.5t158 -71.5z" />
    <glyph glyph-name="Abreve" unicode="&#x102;" horiz-adv-x="1519" 
d="M760 1638q-164 0 -259 100t-98 277h222q3 -85 39 -132.5t96 -47.5t95 47.5t38 132.5h223q-3 -177 -97.5 -277t-258.5 -100zM1135 0l-91 352h-589l-93 -352h-354l441 1516h624l436 -1516h-374zM524 623h451l-223 864h-4z" />
    <glyph glyph-name="abreve" unicode="&#x103;" 
d="M631 1161q-164 0 -259 100t-98 277h222q3 -85 39 -132.5t96 -47.5t95 47.5t38 132.5h223q-3 -177 -97.5 -277t-258.5 -100zM829 1038h340v-1038h-340v367h-4q0 -182 -95 -284.5t-265 -102.5q-186 0 -291.5 142.5t-105.5 397.5q0 253 105.5 396t291.5 143q170 0 265 -102
t95 -285h4v366zM631 248q98 0 155.5 76t57.5 196q0 118 -57.5 195.5t-155.5 77.5q-101 0 -158 -72.5t-57 -200.5q0 -129 57 -200.5t158 -71.5z" />
    <glyph glyph-name="Aogonek" unicode="&#x104;" horiz-adv-x="1519" 
d="M1374 -305q79 0 158 47v-186q-94 -48 -244 -48q-115 0 -178 44t-63 122q0 48 32.5 103.5t88 104.5t140 81.5t177.5 32.5v4h-350l-91 352h-589l-93 -352h-354l441 1516h624l436 -1516h2q-93 -71 -145.5 -138t-52.5 -112q0 -55 61 -55zM524 623h451l-223 864h-4z" />
    <glyph glyph-name="aogonek" unicode="&#x105;" 
d="M1032 -305q79 0 158 47v-186q-94 -48 -244 -48q-115 0 -178 44t-63 122q0 48 32.5 103.5t88 104.5t140 81.5t177.5 32.5v4h-314v367h-4q0 -182 -95 -284.5t-265 -102.5q-186 0 -291.5 142.5t-105.5 397.5q0 253 105.5 396t291.5 143q170 0 265 -102t95 -285h4v366h340
v-1038q-93 -71 -145.5 -138t-52.5 -112q0 -55 61 -55zM631 248q98 0 155.5 76t57.5 196q0 118 -57.5 195.5t-155.5 77.5q-101 0 -158 -72.5t-57 -200.5q0 -129 57 -200.5t158 -71.5z" />
    <glyph glyph-name="Cacute" unicode="&#x106;" horiz-adv-x="1540" 
d="M1022 2056l102 -192l-446 -219l-92 172zM1483 598q-32 -291 -211.5 -454.5t-466.5 -163.5q-344 0 -536.5 205.5t-192.5 572.5t192.5 572.5t536.5 205.5q287 0 466.5 -162.5t211.5 -451.5h-338q-25 157 -115 246t-225 89q-170 0 -266.5 -132t-96.5 -367t96.5 -367.5
t266.5 -132.5q137 0 226 89.5t114 250.5h338z" />
    <glyph glyph-name="cacute" unicode="&#x107;" horiz-adv-x="1206" 
d="M840 1579l102 -193l-446 -219l-93 172zM623 -20q-263 0 -410 142.5t-147 397.5q0 254 147.5 396.5t409.5 142.5q225 0 364.5 -114t165.5 -320h-334q-20 80 -71 124t-125 44q-99 0 -155 -72.5t-56 -200.5q0 -129 55.5 -200.5t155.5 -71.5q76 0 127 44t71 126h334
q-26 -207 -165.5 -322.5t-366.5 -115.5z" />
    <glyph glyph-name="Cdotaccent" unicode="&#x10a;" horiz-adv-x="1540" 
d="M635 1692v282h340v-282h-340zM1483 598q-32 -291 -211.5 -454.5t-466.5 -163.5q-344 0 -536.5 205.5t-192.5 572.5t192.5 572.5t536.5 205.5q287 0 466.5 -162.5t211.5 -451.5h-338q-25 157 -115 246t-225 89q-170 0 -266.5 -132t-96.5 -367t96.5 -367.5t266.5 -132.5
q137 0 226 89.5t114 250.5h338z" />
    <glyph glyph-name="cdotaccent" unicode="&#x10b;" horiz-adv-x="1206" 
d="M453 1214v283h340v-283h-340zM623 -20q-263 0 -410 142.5t-147 397.5q0 254 147.5 396.5t409.5 142.5q225 0 364.5 -114t165.5 -320h-334q-20 80 -71 124t-125 44q-99 0 -155 -72.5t-56 -200.5q0 -129 55.5 -200.5t155.5 -71.5q76 0 127 44t71 126h334
q-26 -207 -165.5 -322.5t-366.5 -115.5z" />
    <glyph glyph-name="Ccaron" unicode="&#x10c;" horiz-adv-x="1540" 
d="M578 1649l-156 366h254l127 -340h4l127 340h252l-156 -366h-452zM805 258q137 0 226 89.5t114 250.5h338q-32 -291 -211.5 -454.5t-466.5 -163.5q-344 0 -536.5 205.5t-192.5 572.5t192.5 572.5t536.5 205.5q287 0 466.5 -162.5t211.5 -451.5h-338q-25 157 -115 246
t-225 89q-170 0 -266.5 -132t-96.5 -367t96.5 -367.5t266.5 -132.5z" />
    <glyph glyph-name="ccaron" unicode="&#x10d;" horiz-adv-x="1206" 
d="M395 1171l-155 367h254l127 -340h4l127 340h252l-156 -367h-453zM821 418h334q-26 -207 -165.5 -322.5t-366.5 -115.5q-263 0 -410 142.5t-147 397.5q0 254 147.5 396.5t409.5 142.5q225 0 364.5 -114t165.5 -320h-334q-20 80 -71 124t-125 44q-99 0 -155 -72.5
t-56 -200.5q0 -129 55.5 -200.5t155.5 -71.5q76 0 127 44t71 126z" />
    <glyph glyph-name="Dcaron" unicode="&#x10e;" horiz-adv-x="1538" 
d="M467 1649l-156 366h254l127 -340h4l127 340h252l-155 -366h-453zM676 1516q372 0 581 -201t209 -557t-209 -557t-581 -201h-524v1516h524zM694 272q190 0 297 128.5t107 357.5t-106.5 357t-297.5 128h-186v-971h186z" />
    <glyph glyph-name="dcaron" unicode="&#x10f;" horiz-adv-x="1359" 
d="M1364 1597l242 -65l-117 -434l-223 65zM829 672v905h340v-1577h-340v367h-4q0 -182 -95 -284.5t-265 -102.5q-186 0 -291.5 142.5t-105.5 397.5q0 253 105.5 396t291.5 143q170 0 265 -102t95 -285h4zM631 248q98 0 155.5 76t57.5 196q0 118 -57.5 195.5t-155.5 77.5
q-101 0 -158 -72.5t-57 -200.5q0 -129 57 -200.5t158 -71.5z" />
    <glyph glyph-name="Dcroat" unicode="&#x110;" horiz-adv-x="1550" 
d="M688 1516q372 0 581.5 -201t209.5 -557t-209.5 -557t-581.5 -201h-524v721h-144v96h144v699h524zM707 272q190 0 296.5 128.5t106.5 357.5t-106.5 357t-296.5 128h-187v-426h289v-96h-289v-449h187z" />
    <glyph glyph-name="dcroat" unicode="&#x111;" 
d="M1290 1364v-96h-121v-1268h-340v367h-4q0 -182 -95 -284.5t-265 -102.5q-186 0 -291.5 142.5t-105.5 397.5q0 253 105.5 396t291.5 143q170 0 265 -102t95 -285h4v596h-327v96h327v213h340v-213h121zM631 248q98 0 155.5 76t57.5 196q0 118 -57.5 195.5t-155.5 77.5
q-101 0 -158 -72.5t-57 -200.5q0 -129 57 -200.5t158 -71.5z" />
    <glyph glyph-name="Emacron" unicode="&#x112;" horiz-adv-x="1363" 
d="M1065 1952v-234h-717v234h717zM508 272h780v-272h-1136v1516h1114v-273h-758v-332h686v-272h-686v-367z" />
    <glyph glyph-name="emacron" unicode="&#x113;" horiz-adv-x="1185" 
d="M954 1475v-234h-716v234h716zM1122 520v-37h-727q6 -119 59 -184.5t144 -65.5q75 0 127.5 38t69.5 104h327q-29 -186 -168 -290.5t-356 -104.5q-252 0 -392 142.5t-140 397.5t140 397t392 142q248 0 386 -142t138 -397zM598 807q-85 0 -138 -59t-63 -166h396
q-12 108 -62 166.5t-133 58.5z" />
    <glyph glyph-name="Edotaccent" unicode="&#x116;" horiz-adv-x="1363" 
d="M881 1974v-282h-340v282h340zM508 272h780v-272h-1136v1516h1114v-273h-758v-332h686v-272h-686v-367z" />
    <glyph glyph-name="edotaccent" unicode="&#x117;" horiz-adv-x="1185" 
d="M768 1497v-283h-340v283h340zM1122 520v-37h-727q6 -119 59 -184.5t144 -65.5q75 0 127.5 38t69.5 104h327q-29 -186 -168 -290.5t-356 -104.5q-252 0 -392 142.5t-140 397.5t140 397t392 142q248 0 386 -142t138 -397zM598 807q-85 0 -138 -59t-63 -166h396
q-12 108 -62 166.5t-133 58.5z" />
    <glyph glyph-name="Eogonek" unicode="&#x118;" horiz-adv-x="1363" 
d="M1053 0q-93 -71 -146 -138t-53 -112q0 -55 61 -55q79 0 158 47v-186q-94 -48 -244 -48q-115 0 -178 44t-63 122q0 48 32.5 103.5t88 104.5t140 81.5t177.5 32.5v4h-874v1516h1114v-273h-758v-332h686v-272h-686v-367h780v-272h-235z" />
    <glyph glyph-name="eogonek" unicode="&#x119;" horiz-adv-x="1185" 
d="M1122 520v-37h-727q6 -119 59 -184.5t144 -65.5q75 0 127.5 38t69.5 104h327q-35 -219 -219 -324q-117 -88 -182.5 -167.5t-65.5 -133.5q0 -26 16.5 -40.5t45.5 -14.5q78 0 157 47v-186q-94 -48 -243 -48q-115 0 -178.5 44t-63.5 122q0 81 121 171.5t336 172.5l-2 5
q-107 -43 -246 -43q-252 0 -392 142.5t-140 397.5t140 397t392 142q248 0 386 -142t138 -397zM598 807q-85 0 -138 -59t-63 -166h396q-12 108 -62 166.5t-133 58.5z" />
    <glyph glyph-name="Ecaron" unicode="&#x11a;" horiz-adv-x="1363" 
d="M481 1649l-155 366h254l127 -340h4l127 340h252l-156 -366h-453zM508 272h780v-272h-1136v1516h1114v-273h-758v-332h686v-272h-686v-367z" />
    <glyph glyph-name="ecaron" unicode="&#x11b;" horiz-adv-x="1185" 
d="M371 1171l-156 367h254l127 -340h4l127 340h252l-156 -367h-452zM1122 520v-37h-727q6 -119 59 -184.5t144 -65.5q75 0 127.5 38t69.5 104h327q-29 -186 -168 -290.5t-356 -104.5q-252 0 -392 142.5t-140 397.5t140 397t392 142q248 0 386 -142t138 -397zM598 807
q-85 0 -138 -59t-63 -166h396q-12 108 -62 166.5t-133 58.5z" />
    <glyph glyph-name="Gbreve" unicode="&#x11e;" horiz-adv-x="1587" 
d="M809 1638q-164 0 -258.5 100t-97.5 277h221q3 -85 39 -132.5t96 -47.5t95 47.5t38 132.5h223q-3 -177 -97.5 -277t-258.5 -100zM793 811h694v-811h-334v535h-4q0 -261 -135.5 -408t-376.5 -147q-262 0 -411.5 206t-149.5 572q0 367 193.5 572.5t539.5 205.5
q284 0 460.5 -157t205.5 -435h-338q-22 146 -109 229.5t-219 83.5q-172 0 -268.5 -132t-96.5 -367t95 -367.5t264 -132.5q149 0 239 85.5t105 238.5h-354v229z" />
    <glyph glyph-name="gbreve" unicode="&#x11f;" 
d="M662 1161q-164 0 -259 100t-98 277h221q3 -84 39.5 -132t96.5 -48t95 47.5t38 132.5h223q-3 -177 -97.5 -277t-258.5 -100zM829 1038h340v-1044q0 -229 -141.5 -357.5t-394.5 -128.5q-212 0 -353 96.5t-178 266.5l322 53q15 -70 70.5 -109.5t138.5 -39.5q92 0 144 53.5
t52 148.5v406h-4q0 -183 -95 -285t-265 -102q-187 0 -292 140.5t-105 391.5q0 250 105.5 390.5t291.5 140.5q170 0 265 -102t95 -285h4v366zM631 264q98 0 155.5 74t57.5 190q0 115 -57.5 190t-155.5 75q-101 0 -158 -70t-57 -195q0 -126 56.5 -195t158.5 -69z" />
    <glyph glyph-name="Gdotaccent" unicode="&#x120;" horiz-adv-x="1587" 
d="M979 1974v-282h-340v282h340zM793 811h694v-811h-334v535h-4q0 -261 -135.5 -408t-376.5 -147q-262 0 -411.5 206t-149.5 572q0 367 193.5 572.5t539.5 205.5q284 0 460.5 -157t205.5 -435h-338q-22 146 -109 229.5t-219 83.5q-172 0 -268.5 -132t-96.5 -367t95 -367.5
t264 -132.5q149 0 239 85.5t105 238.5h-354v229z" />
    <glyph glyph-name="gdotaccent" unicode="&#x121;" 
d="M831 1497v-283h-339v283h339zM829 1038h340v-1044q0 -229 -141.5 -357.5t-394.5 -128.5q-212 0 -353 96.5t-178 266.5l322 53q15 -70 70.5 -109.5t138.5 -39.5q92 0 144 53.5t52 148.5v406h-4q0 -183 -95 -285t-265 -102q-187 0 -292 140.5t-105 391.5q0 250 105.5 390.5
t291.5 140.5q170 0 265 -102t95 -285h4v366zM631 264q98 0 155.5 74t57.5 190q0 115 -57.5 190t-155.5 75q-101 0 -158 -70t-57 -195q0 -126 56.5 -195t158.5 -69z" />
    <glyph glyph-name="Gcommaaccent" unicode="&#x122;" horiz-adv-x="1587" 
d="M793 811h694v-811h-334v535h-4q0 -261 -135.5 -408t-376.5 -147q-262 0 -411.5 206t-149.5 572q0 367 193.5 572.5t539.5 205.5q284 0 460.5 -157t205.5 -435h-338q-22 146 -109 229.5t-219 83.5q-172 0 -268.5 -132t-96.5 -367t95 -367.5t264 -132.5q149 0 239 85.5
t105 238.5h-354v229zM659 -326v205h297v-172q0 -89 -76 -139.5t-221 -59.5v86q133 6 193.5 24.5t83.5 55.5h-277z" />
    <glyph glyph-name="gcommaaccent" unicode="&#x123;" 
d="M809 1448v-238h-297v189q0 110 75.5 170.5t221.5 66.5v-84q-134 -4 -195 -29t-82 -75h277zM829 1038h340v-1044q0 -229 -141.5 -357.5t-394.5 -128.5q-212 0 -353 96.5t-178 266.5l322 53q15 -70 70.5 -109.5t138.5 -39.5q92 0 144 53.5t52 148.5v406h-4q0 -183 -95 -285
t-265 -102q-187 0 -292 140.5t-105 391.5q0 250 105.5 390.5t291.5 140.5q170 0 265 -102t95 -285h4v366zM631 264q98 0 155.5 74t57.5 190q0 115 -57.5 190t-155.5 75q-101 0 -158 -70t-57 -195q0 -126 56.5 -195t158.5 -69z" />
    <glyph glyph-name="Hbar" unicode="&#x126;" horiz-adv-x="1591" 
d="M1550 1266v-97h-114v-1169h-355v631h-569v-631h-356v1169h-117v97h117v250h356v-250h569v250h355v-250h114zM1081 903v266h-569v-266h569z" />
    <glyph glyph-name="hbar" unicode="&#x127;" horiz-adv-x="1249" 
d="M784 1059q169 0 264 -115t95 -319v-625h-340v608q0 87 -43.5 136t-120.5 49q-86 0 -134 -62.5t-48 -173.5v-557h-340v1268h-121v96h121v213h340v-213h327v-96h-327v-600h4q0 184 85.5 287.5t237.5 103.5z" />
    <glyph glyph-name="Imacron" unicode="&#x12a;" horiz-adv-x="659" 
d="M-31 1952h717v-234h-717v234zM152 0v1516h356v-1516h-356z" />
    <glyph glyph-name="imacron" unicode="&#x12b;" horiz-adv-x="573" 
d="M-72 1475h717v-234h-717v234zM117 1038h340v-1038h-340v1038z" />
    <glyph glyph-name="Iogonek" unicode="&#x12e;" horiz-adv-x="659" 
d="M371 -305q78 0 157 47v-186q-94 -48 -243 -48q-115 0 -178.5 44t-63.5 122q0 48 32.5 103.5t88 104.5t140 81.5t177.5 32.5v4h-329v1516h356v-1516q-93 -71 -146 -138t-53 -112q0 -55 62 -55z" />
    <glyph glyph-name="iogonek" unicode="&#x12f;" horiz-adv-x="573" 
d="M459 1497v-283h-340v283h340zM322 -305q78 0 157 47v-186q-94 -48 -243 -48q-115 0 -178.5 44t-63.5 122q0 48 32.5 103.5t88 104.5t140 81.5t177.5 32.5v4h-315v1038h340v-1038h2q-93 -71 -146 -138t-53 -112q0 -55 62 -55z" />
    <glyph glyph-name="Idotaccent" unicode="&#x130;" horiz-adv-x="659" 
d="M160 1692v282h340v-282h-340zM152 0v1516h356v-1516h-356z" />
    <glyph glyph-name="dotlessi" unicode="&#x131;" horiz-adv-x="573" 
d="M117 1038h340v-1038h-340v1038z" />
    <glyph glyph-name="Kcommaaccent" unicode="&#x136;" horiz-adv-x="1525" 
d="M872 795l691 -795h-426l-639 780h-4v-780h-342v1516h342v-715h4l577 715h400zM641 -326v205h297v-172q0 -89 -76 -139.5t-221 -59.5v86q133 6 193.5 24.5t83.5 55.5h-277z" />
    <glyph glyph-name="kcommaaccent" unicode="&#x137;" horiz-adv-x="1218" 
d="M827 545l412 -545h-405l-373 530h-4v-530h-340v1577h340v-1028h4l338 489h389zM494 -326v205h297v-172q0 -89 -76 -139.5t-221 -59.5v86q133 6 193 24.5t83 55.5h-276z" />
    <glyph glyph-name="Lacute" unicode="&#x139;" horiz-adv-x="1185" 
d="M649 1864l-446 -219l-92 172l436 239zM508 281h643v-281h-999v1516h356v-1235z" />
    <glyph glyph-name="lacute" unicode="&#x13a;" horiz-adv-x="573" 
d="M506 2118l102 -193l-446 -219l-92 172zM117 0v1577h340v-1577h-340z" />
    <glyph glyph-name="Lcommaaccent" unicode="&#x13b;" horiz-adv-x="1185" 
d="M508 281h643v-281h-999v1516h356v-1235zM469 -326v205h297v-172q0 -89 -76 -139.5t-221 -59.5v86q133 6 193 24.5t83 55.5h-276z" />
    <glyph glyph-name="lcommaaccent" unicode="&#x13c;" horiz-adv-x="573" 
d="M117 1577h340v-1577h-340v1577zM139 -326v205h297v-172q0 -89 -76 -139.5t-221 -59.5v86q133 6 193.5 24.5t83.5 55.5h-277z" />
    <glyph glyph-name="Lcaron" unicode="&#x13d;" horiz-adv-x="1208" 
d="M1065 1470l-117 -434l-223 66l98 434zM508 281h643v-281h-999v1516h356v-1235z" />
    <glyph glyph-name="lcaron" unicode="&#x13e;" horiz-adv-x="655" 
d="M651 1597l244 -65l-119 -434l-223 65zM117 0v1577h340v-1577h-340z" />
    <glyph glyph-name="Lslash" unicode="&#x141;" horiz-adv-x="1200" 
d="M524 281h643v-281h-999v557l-135 -80v103l135 79v857h356v-658l353 205v-100l-353 -205v-477z" />
    <glyph glyph-name="lslash" unicode="&#x142;" horiz-adv-x="665" 
d="M621 1059v-98l-117 -64v-897h-340v739l-115 -61v100l115 62v737h340v-580z" />
    <glyph glyph-name="Nacute" unicode="&#x143;" horiz-adv-x="1583" 
d="M1112 1864l-446 -219l-93 172l437 239zM1096 1516h336v-1516h-576l-379 1487h-4l16 -1487h-337v1516h577l379 -1487h4z" />
    <glyph glyph-name="nacute" unicode="&#x144;" horiz-adv-x="1249" 
d="M950 1386l-446 -219l-92 172l436 240zM784 1059q169 0 264 -115t95 -319v-625h-340v608q0 87 -43.5 136t-120.5 49q-86 0 -134 -62.5t-48 -173.5v-557h-340v1038h340v-370h4q0 184 85.5 287.5t237.5 103.5z" />
    <glyph glyph-name="Ncommaaccent" unicode="&#x145;" horiz-adv-x="1583" 
d="M1096 1516h336v-1516h-576l-379 1487h-4l16 -1487h-337v1516h577l379 -1487h4zM645 -326v205h297v-172q0 -89 -76 -139.5t-221 -59.5v86q133 6 193.5 24.5t83.5 55.5h-277z" />
    <glyph glyph-name="ncommaaccent" unicode="&#x146;" horiz-adv-x="1249" 
d="M784 1059q169 0 264 -115t95 -319v-625h-340v608q0 87 -43.5 136t-120.5 49q-86 0 -134 -62.5t-48 -173.5v-557h-340v1038h340v-370h4q0 184 85.5 287.5t237.5 103.5zM483 -326v205h297v-172q0 -89 -76 -139.5t-221 -59.5v86q133 6 193.5 24.5t83.5 55.5h-277z" />
    <glyph glyph-name="Ncaron" unicode="&#x147;" horiz-adv-x="1583" 
d="M565 1649l-155 366h254l127 -340h4l127 340h252l-156 -366h-453zM1096 1516h336v-1516h-576l-379 1487h-4l16 -1487h-337v1516h577l379 -1487h4z" />
    <glyph glyph-name="ncaron" unicode="&#x148;" horiz-adv-x="1249" 
d="M403 1171l-155 367h254l127 -340h4l127 340h252l-156 -367h-453zM784 1059q169 0 264 -115t95 -319v-625h-340v608q0 87 -43.5 136t-120.5 49q-86 0 -134 -62.5t-48 -173.5v-557h-340v1038h340v-370h4q0 184 85.5 287.5t237.5 103.5z" />
    <glyph glyph-name="Eng" unicode="&#x14a;" horiz-adv-x="1583" 
d="M1096 1516h336v-1530q0 -226 -127 -352t-353 -126q-135 0 -247 56l100 252q47 -29 113 -29q75 0 117 45t42 125v43h-221l-379 1487h-4l16 -1487h-337v1516h577l379 -1487h4z" />
    <glyph glyph-name="eng" unicode="&#x14b;" horiz-adv-x="1249" 
d="M784 1059q169 0 264 -115t95 -319v-674q0 -209 -114 -326t-316 -117q-181 0 -297 86l104 222q64 -39 125 -39q75 0 116.5 47t41.5 131v653q0 87 -43.5 136t-120.5 49q-86 0 -134 -62.5t-48 -173.5v-557h-340v1038h340v-370h4q0 184 85.5 287.5t237.5 103.5z" />
    <glyph glyph-name="Omacron" unicode="&#x14c;" horiz-adv-x="1613" 
d="M449 1952h716v-234h-716v234zM809 -20q-346 0 -539.5 205.5t-193.5 572.5t193.5 572.5t539.5 205.5q344 0 536.5 -205.5t192.5 -572.5t-192.5 -572.5t-536.5 -205.5zM809 258q170 0 266 132.5t96 367.5t-96 367t-266 132q-173 0 -270 -132t-97 -367t97 -367.5t270 -132.5
z" />
    <glyph glyph-name="omacron" unicode="&#x14d;" horiz-adv-x="1251" 
d="M266 1475h717v-234h-717v234zM627 -20q-264 0 -412.5 142.5t-148.5 397.5q0 254 148.5 396.5t412.5 142.5t411.5 -142.5t147.5 -396.5q0 -255 -147.5 -397.5t-411.5 -142.5zM627 248q101 0 158 71.5t57 200.5q0 128 -57 200.5t-158 72.5t-158 -72.5t-57 -200.5
q0 -129 57 -200.5t158 -71.5z" />
    <glyph glyph-name="Ohungarumlaut" unicode="&#x150;" horiz-adv-x="1613" 
d="M836 2085l157 -150l-379 -331l-135 137zM1249 2085l158 -150l-379 -331l-137 137zM809 -20q-346 0 -539.5 205.5t-193.5 572.5t193.5 572.5t539.5 205.5q344 0 536.5 -205.5t192.5 -572.5t-192.5 -572.5t-536.5 -205.5zM809 258q170 0 266 132.5t96 367.5t-96 367
t-266 132q-173 0 -270 -132t-97 -367t97 -367.5t270 -132.5z" />
    <glyph glyph-name="ohungarumlaut" unicode="&#x151;" horiz-adv-x="1251" 
d="M655 1608l158 -150l-379 -332l-135 138zM1069 1608l158 -150l-379 -332l-137 138zM627 -20q-264 0 -412.5 142.5t-148.5 397.5q0 254 148.5 396.5t412.5 142.5t411.5 -142.5t147.5 -396.5q0 -255 -147.5 -397.5t-411.5 -142.5zM627 248q101 0 158 71.5t57 200.5
q0 128 -57 200.5t-158 72.5t-158 -72.5t-57 -200.5q0 -129 57 -200.5t158 -71.5z" />
    <glyph glyph-name="OE" unicode="&#x152;" horiz-adv-x="2385" 
d="M1532 272h778v-272h-1132v545h-4q0 -266 -141.5 -415.5t-391.5 -149.5q-264 0 -413.5 206.5t-149.5 571.5t149.5 571.5t413.5 206.5q250 0 391.5 -149.5t141.5 -415.5h4v545h1110v-273h-756v-332h684v-272h-684v-367zM811 258q117 0 204.5 66.5t132 179t44.5 254.5
q0 141 -44.5 253.5t-132 179t-204.5 66.5q-172 0 -269.5 -133t-97.5 -366q0 -236 97.5 -368t269.5 -132z" />
    <glyph glyph-name="oe" unicode="&#x153;" horiz-adv-x="1955" 
d="M1894 520v-37h-729q6 -119 59 -184.5t144 -65.5q75 0 127.5 38t71.5 104h327q-31 -186 -170 -290.5t-356 -104.5q-218 0 -354 108.5t-170 306.5h-4q0 -195 -99 -305t-276 -110q-186 0 -291.5 142.5t-105.5 397.5q0 253 105.5 396t291.5 143q177 0 276 -109.5t99 -304.5h4
q34 197 170.5 305.5t353.5 108.5q248 0 387 -142t139 -397zM1368 807q-85 0 -138 -59t-63 -166h396q-11 108 -61.5 166.5t-133.5 58.5zM631 248q98 0 155.5 76t57.5 196q0 118 -57.5 195.5t-155.5 77.5q-101 0 -158 -72.5t-57 -200.5q0 -129 57 -200.5t158 -71.5z" />
    <glyph glyph-name="Racute" unicode="&#x154;" horiz-adv-x="1462" 
d="M983 1864l-446 -219l-93 172l437 239zM1231 367l199 -367h-396l-297 592h-229v-592h-356v1516h616q284 0 443 -117.5t159 -325.5q0 -226 -157.5 -351.5t-440.5 -125.5v-4q158 0 280 -59.5t179 -165.5zM508 848h278q103 0 160.5 53t57.5 148q0 92 -58 143t-162 51h-276
v-395z" />
    <glyph glyph-name="racute" unicode="&#x155;" horiz-adv-x="907" 
d="M782 1386l-446 -219l-92 172l436 240zM758 1059q95 0 157 -35l-98 -299q-58 37 -137 37q-106 0 -164.5 -84t-58.5 -236v-442h-340v1038h340v-450h4q0 222 78.5 346.5t218.5 124.5z" />
    <glyph glyph-name="Rcommaaccent" unicode="&#x156;" horiz-adv-x="1462" 
d="M1231 367l199 -367h-396l-297 592h-229v-592h-356v1516h616q284 0 443 -117.5t159 -325.5q0 -226 -157.5 -351.5t-440.5 -125.5v-4q158 0 280 -59.5t179 -165.5zM508 848h278q103 0 160.5 53t57.5 148q0 92 -58 143t-162 51h-276v-395zM575 -326v205h297v-172
q0 -89 -76 -139.5t-221 -59.5v86q133 6 193.5 24.5t83.5 55.5h-277z" />
    <glyph glyph-name="rcommaaccent" unicode="&#x157;" horiz-adv-x="907" 
d="M758 1059q95 0 157 -35l-98 -299q-58 37 -137 37q-106 0 -164.5 -84t-58.5 -236v-442h-340v1038h340v-450h4q0 222 78.5 346.5t218.5 124.5zM133 -326v205h297v-172q0 -89 -76 -139.5t-221 -59.5v86q133 6 193.5 24.5t83.5 55.5h-277z" />
    <glyph glyph-name="Rcaron" unicode="&#x158;" horiz-adv-x="1462" 
d="M436 1649l-155 366h254l127 -340h4l127 340h251l-155 -366h-453zM1231 367l199 -367h-396l-297 592h-229v-592h-356v1516h616q284 0 443 -117.5t159 -325.5q0 -226 -157.5 -351.5t-440.5 -125.5v-4q158 0 280 -59.5t179 -165.5zM508 848h278q103 0 160.5 53t57.5 148
q0 92 -58 143t-162 51h-276v-395z" />
    <glyph glyph-name="rcaron" unicode="&#x159;" horiz-adv-x="907" 
d="M233 1171l-155 367h254l127 -340h4l127 340h252l-156 -367h-453zM758 1059q95 0 157 -35l-98 -299q-58 37 -137 37q-106 0 -164.5 -84t-58.5 -236v-442h-340v1038h340v-450h4q0 222 78.5 346.5t218.5 124.5z" />
    <glyph glyph-name="Sacute" unicode="&#x15a;" horiz-adv-x="1423" 
d="M928 2056l102 -192l-446 -219l-92 172zM711 -20q-283 0 -455.5 147.5t-198.5 411.5h351q15 -132 97 -206.5t214 -74.5q130 0 203 49t73 137q0 34 -11.5 61t-38 46t-52.5 32t-72 23t-79.5 15.5t-90.5 13.5q-198 28 -288 59q-202 71 -248 244q-15 56 -15 123
q0 231 160.5 353t450.5 122q258 0 417 -141.5t185 -393.5h-350q-9 121 -81 188.5t-192 67.5q-107 0 -168 -43.5t-61 -121.5q0 -29 10.5 -52t36 -40t48.5 -28t68 -20.5t74 -14.5t86 -13q73 -11 114 -17.5t110 -23.5t110 -36t92 -52.5t79 -74.5t47.5 -101t19.5 -134
q0 -238 -170.5 -371.5t-474.5 -133.5z" />
    <glyph glyph-name="sacute" unicode="&#x15b;" horiz-adv-x="1099" 
d="M764 1579l102 -193l-446 -219l-92 172zM547 -20q-232 0 -363 94t-131 262h316q0 -71 47 -110.5t131 -39.5q79 0 123.5 29t44.5 82q0 21 -7.5 38t-25.5 29t-35.5 20.5t-49 15.5t-53.5 10.5t-61 9.5q-52 8 -80 13t-77.5 17t-78 25t-64.5 37t-55.5 53t-33.5 71.5t-14 94.5
q0 154 123.5 241t343.5 87t343.5 -90t123.5 -252h-316q0 66 -39.5 102.5t-111.5 36.5q-67 0 -104 -25.5t-37 -68.5q0 -22 12.5 -38.5t30.5 -27t50.5 -20t59 -14.5t70.5 -11q42 -7 62.5 -10.5t61.5 -12t63.5 -16.5t57.5 -22t55 -29t44 -37.5t36.5 -48.5t21.5 -60.5t9 -74.5
q0 -170 -130.5 -265t-362.5 -95z" />
    <glyph glyph-name="Scedilla" unicode="&#x15e;" horiz-adv-x="1423" 
d="M711 -20q-283 0 -455.5 147.5t-198.5 411.5h351q15 -132 97 -206.5t214 -74.5q130 0 203 49t73 137q0 34 -11.5 61t-38 46t-52.5 32t-72 23t-79.5 15.5t-90.5 13.5q-198 28 -288 59q-202 71 -248 244q-15 56 -15 123q0 231 160.5 353t450.5 122q258 0 417 -141.5
t185 -393.5h-350q-9 121 -81 188.5t-192 67.5q-107 0 -168 -43.5t-61 -121.5q0 -29 10.5 -52t36 -40t48.5 -28t68 -20.5t74 -14.5t86 -13q73 -11 114 -17.5t110 -23.5t110 -36t92 -52.5t79 -74.5t47.5 -101t19.5 -134q0 -238 -170.5 -371.5t-474.5 -133.5zM680 -492
q-117 0 -215 43v127q73 -47 166 -47q65 0 101 21.5t36 60.5q0 30 -22 48t-60 18q-62 0 -92 -41l-98 82q45 38 111 59t136 21q114 0 178 -46.5t64 -129.5q0 -102 -80.5 -159t-224.5 -57z" />
    <glyph glyph-name="scedilla" unicode="&#x15f;" horiz-adv-x="1099" 
d="M547 -20q-232 0 -363 94t-131 262h316q0 -71 47 -110.5t131 -39.5q79 0 123.5 29t44.5 82q0 21 -7.5 38t-25.5 29t-35.5 20.5t-49 15.5t-53.5 10.5t-61 9.5q-52 8 -80 13t-77.5 17t-78 25t-64.5 37t-55.5 53t-33.5 71.5t-14 94.5q0 154 123.5 241t343.5 87t343.5 -90
t123.5 -252h-316q0 66 -39.5 102.5t-111.5 36.5q-67 0 -104 -25.5t-37 -68.5q0 -22 12.5 -38.5t30.5 -27t50.5 -20t59 -14.5t70.5 -11q42 -7 62.5 -10.5t61.5 -12t63.5 -16.5t57.5 -22t55 -29t44 -37.5t36.5 -48.5t21.5 -60.5t9 -74.5q0 -170 -130.5 -265t-362.5 -95z
M510 -492q-117 0 -215 43v127q73 -47 166 -47q65 0 101 21.5t36 60.5q0 30 -22 48t-60 18q-62 0 -92 -41l-98 82q45 38 111 59t136 21q114 0 178 -46.5t64 -129.5q0 -102 -80.5 -159t-224.5 -57z" />
    <glyph glyph-name="Scaron" unicode="&#x160;" horiz-adv-x="1423" 
d="M483 1649l-155 366h254l127 -340h4l127 340h252l-156 -366h-453zM784 924q73 -11 114 -17.5t110 -23.5t110 -36t92 -52.5t79 -74.5t47.5 -101t19.5 -134q0 -238 -170.5 -371.5t-474.5 -133.5q-283 0 -455.5 147.5t-198.5 411.5h351q15 -132 97 -206.5t214 -74.5
q130 0 203 49t73 137q0 34 -11.5 61t-38 46t-52.5 32t-72 23t-79.5 15.5t-90.5 13.5q-198 28 -288 59q-202 71 -248 244q-15 56 -15 123q0 231 160.5 353t450.5 122q258 0 417 -141.5t185 -393.5h-350q-9 121 -81 188.5t-192 67.5q-107 0 -168 -43.5t-61 -121.5
q0 -29 10.5 -52t36 -40t48.5 -28t68 -20.5t74 -14.5t86 -13z" />
    <glyph glyph-name="scaron" unicode="&#x161;" horiz-adv-x="1099" 
d="M319 1171l-155 367h254l127 -340h4l127 340h252l-156 -367h-453zM629 651q42 -7 62.5 -10.5t61.5 -12t63.5 -16.5t57.5 -22t55 -29t44 -37.5t36.5 -48.5t21.5 -60.5t9 -74.5q0 -170 -130.5 -265t-362.5 -95t-363 94t-131 262h316q0 -71 47 -110.5t131 -39.5
q79 0 123.5 29t44.5 82q0 21 -7.5 38t-25.5 29t-35.5 20.5t-49 15.5t-53.5 10.5t-61 9.5q-52 8 -80 13t-77.5 17t-78 25t-64.5 37t-55.5 53t-33.5 71.5t-14 94.5q0 154 123.5 241t343.5 87t343.5 -90t123.5 -252h-316q0 66 -39.5 102.5t-111.5 36.5q-67 0 -104 -25.5
t-37 -68.5q0 -22 12.5 -38.5t30.5 -27t50.5 -20t59 -14.5t70.5 -11z" />
    <glyph glyph-name="uni0162" unicode="&#x162;" horiz-adv-x="1273" 
d="M33 1516h1210v-273h-428v-1243h-356v1243h-426v273zM670 -100q114 0 177.5 -46.5t63.5 -129.5q0 -102 -80.5 -159t-224.5 -57q-117 0 -215 43v127q73 -47 166 -47q65 0 101 21.5t36 60.5q0 30 -22 48t-60 18q-62 0 -92 -41l-98 82q45 38 111.5 59t136.5 21z" />
    <glyph glyph-name="uni0163" unicode="&#x163;" horiz-adv-x="856" 
d="M817 809h-301v-430q0 -62 40 -96.5t110 -34.5q72 0 133 33v-250q-108 -51 -242 -51q-179 0 -280 92.5t-101 257.5v479h-135v229h154v336h340v-86q0 -104 -86.5 -169t-243.5 -77v-4h612v-229zM463 -100q114 0 178 -46.5t64 -129.5q0 -101 -81 -158.5t-225 -57.5
q-117 0 -215 43v127q73 -47 166 -47q65 0 101 21.5t36 60.5q0 30 -21.5 48t-59.5 18q-63 0 -93 -41l-98 82q45 38 111.5 59t136.5 21z" />
    <glyph glyph-name="Tcaron" unicode="&#x164;" horiz-adv-x="1273" 
d="M408 1649l-156 366h254l127 -340h4l127 340h252l-156 -366h-452zM1243 1516v-273h-428v-1243h-356v1243h-426v273h1210z" />
    <glyph glyph-name="tcaron" unicode="&#x165;" horiz-adv-x="856" 
d="M717 1597l241 -65l-116 -434l-224 65zM205 1042v-4h612v-229h-301v-430q0 -62 40 -96.5t110 -34.5q72 0 133 33v-250q-108 -51 -242 -51q-179 0 -280 92.5t-101 257.5v479h-135v229h154v336h340v-86q0 -104 -86.5 -169t-243.5 -77z" />
    <glyph glyph-name="Tbar" unicode="&#x166;" 
d="M1249 1243h-428v-452h215v-97h-215v-694h-356v694h-217v97h217v452h-426v273h1210v-273z" />
    <glyph glyph-name="tbar" unicode="&#x167;" horiz-adv-x="870" 
d="M825 485h-303v-106q0 -62 40 -96.5t110 -34.5q72 0 133 33v-250q-108 -51 -242 -51q-179 0 -280 92.5t-101 257.5v155h-135v97h135v227h-135v229h154v336h340v-86q0 -104 -86.5 -169t-243.5 -77v-4h612v-229h-301v-227h303v-97z" />
    <glyph glyph-name="Umacron" unicode="&#x16a;" horiz-adv-x="1523" 
d="M412 1952h716v-234h-716v234zM1047 528v988h337v-971q0 -267 -164.5 -416t-459.5 -149q-292 0 -456.5 149t-164.5 416v971h355v-988q0 -128 73 -199t203 -71q131 0 204 71.5t73 198.5z" />
    <glyph glyph-name="umacron" unicode="&#x16b;" horiz-adv-x="1228" 
d="M969 1475v-234h-717v234h717zM772 1038h340v-1038h-340v371h-4q0 -185 -82.5 -288t-230.5 -103q-164 0 -256.5 115.5t-92.5 320.5v622h340v-606q0 -88 40 -137t112 -49q82 0 128 62.5t46 172.5v557z" />
    <glyph glyph-name="Uring" unicode="&#x16e;" horiz-adv-x="1523" 
d="M770 1612q-133 0 -208 66.5t-75 183.5q0 119 75 185.5t208 66.5t208 -66.5t75 -185.5q0 -117 -75 -183.5t-208 -66.5zM770 1759q45 0 70.5 27.5t25.5 75.5q0 50 -25 77t-71 27t-71 -27t-25 -77q0 -48 25.5 -75.5t70.5 -27.5zM1047 528v988h337v-971q0 -267 -164.5 -416
t-459.5 -149q-292 0 -456.5 149t-164.5 416v971h355v-988q0 -128 73 -199t203 -71q131 0 204 71.5t73 198.5z" />
    <glyph glyph-name="uring" unicode="&#x16f;" horiz-adv-x="1228" 
d="M612 1135q-133 0 -207.5 66t-74.5 183q0 119 74.5 185.5t207.5 66.5t208 -66.5t75 -185.5q0 -117 -75 -183t-208 -66zM612 1489q-46 0 -71 -27.5t-25 -77.5q0 -48 25.5 -75t70.5 -27q46 0 71.5 27.5t25.5 74.5q0 50 -25.5 77.5t-71.5 27.5zM772 1038h340v-1038h-340v371
h-4q0 -185 -82.5 -288t-230.5 -103q-164 0 -256.5 115.5t-92.5 320.5v622h340v-606q0 -88 40 -137t112 -49q82 0 128 62.5t46 172.5v557z" />
    <glyph glyph-name="Uhungarumlaut" unicode="&#x170;" horiz-adv-x="1523" 
d="M799 2085l157 -150l-378 -331l-136 137zM1212 2085l158 -150l-379 -331l-137 137zM1047 528v988h337v-971q0 -267 -164.5 -416t-459.5 -149q-292 0 -456.5 149t-164.5 416v971h355v-988q0 -128 73 -199t203 -71q131 0 204 71.5t73 198.5z" />
    <glyph glyph-name="uhungarumlaut" unicode="&#x171;" horiz-adv-x="1228" 
d="M799 1458l-379 -332l-135 138l356 344zM834 1126l-138 138l359 344l157 -150zM772 481v557h340v-1038h-340v371h-4q0 -185 -82.5 -288t-230.5 -103q-164 0 -256.5 115.5t-92.5 320.5v622h340v-606q0 -88 40 -137t112 -49q82 0 128 62.5t46 172.5z" />
    <glyph glyph-name="Uogonek" unicode="&#x172;" horiz-adv-x="1523" 
d="M1047 1516h337v-971q0 -206 -100 -344t-287 -191q-97 -75 -151.5 -144t-54.5 -116q0 -55 63 -55q77 0 156 47v-186q-94 -48 -244 -48q-114 0 -177 44t-63 122q0 76 113 159.5t317 160.5l-2 6q-84 -20 -194 -20q-292 0 -456.5 149t-164.5 416v971h355v-988q0 -128 73 -199
t203 -71q131 0 204 71.5t73 198.5v988z" />
    <glyph glyph-name="uogonek" unicode="&#x173;" horiz-adv-x="1228" 
d="M975 -305q79 0 158 47v-186q-94 -48 -244 -48q-115 0 -178.5 44t-63.5 122q0 48 32.5 103.5t88 104.5t140 81.5t177.5 32.5v4h-313v371h-4q0 -185 -82.5 -288t-230.5 -103q-164 0 -256.5 115.5t-92.5 320.5v622h340v-606q0 -88 40 -137t112 -49q82 0 128 62.5t46 172.5
v557h340v-1038q-93 -71 -146 -138t-53 -112q0 -55 62 -55z" />
    <glyph glyph-name="Wcircumflex" unicode="&#x174;" horiz-adv-x="2230" 
d="M1124 1989l-127 -340h-254l156 366h453l155 -366h-252l-127 340h-4zM1823 1516h354l-244 -1516h-630l-187 1487h-4l-184 -1487h-631l-242 1516h375l209 -1487h4l201 1487h565l203 -1487h4z" />
    <glyph glyph-name="wcircumflex" unicode="&#x175;" horiz-adv-x="1865" 
d="M932 1511l-127 -340h-254l156 367h452l156 -367h-252l-127 340h-4zM1464 1038h353l-177 -1038h-583l-123 1016h-4l-119 -1016h-584l-178 1038h361l133 -1015h4l117 1015h546l119 -1015h4z" />
    <glyph glyph-name="Ycircumflex" unicode="&#x176;" horiz-adv-x="1499" 
d="M776 1989l-127 -340h-254l156 366h453l155 -366h-252l-127 340h-4zM1137 1516h383l-682 -1516h-383l278 627h-330l-395 889h408l360 -861h4z" />
    <glyph glyph-name="ycircumflex" unicode="&#x177;" horiz-adv-x="1175" 
d="M592 1511l-127 -340h-254l156 367h452l156 -367h-252l-127 340h-4zM774 1038h363l-334 -1509h-363l107 471h-277l-231 1038h362l185 -1015h4z" />
    <glyph glyph-name="Ydieresis" unicode="&#x178;" horiz-adv-x="1499" 
d="M721 1974v-282h-315v282h315zM1153 1974v-282h-315v282h315zM1137 1516h383l-682 -1516h-383l278 627h-330l-395 889h408l360 -861h4z" />
    <glyph glyph-name="Zacute" unicode="&#x179;" horiz-adv-x="1462" 
d="M1065 1864l-447 -219l-92 172l437 239zM117 272h1282v-272h-1313v618l1225 621v4h-1194v273h1222v-619l-1222 -621v-4z" />
    <glyph glyph-name="zacute" unicode="&#x17a;" horiz-adv-x="1124" 
d="M877 1386l-447 -219l-92 172l436 240zM113 229h946v-229h-975v535l907 270v4h-897v229h926v-534l-907 -271v-4z" />
    <glyph glyph-name="Zdotaccent" unicode="&#x17b;" horiz-adv-x="1462" 
d="M918 1974v-282h-340v282h340zM117 272h1282v-272h-1313v618l1225 621v4h-1194v273h1222v-619l-1222 -621v-4z" />
    <glyph glyph-name="zdotaccent" unicode="&#x17c;" horiz-adv-x="1124" 
d="M727 1497v-283h-340v283h340zM113 229h946v-229h-975v535l907 270v4h-897v229h926v-534l-907 -271v-4z" />
    <glyph glyph-name="Zcaron" unicode="&#x17d;" horiz-adv-x="1462" 
d="M518 1649l-156 366h254l127 -340h5l126 340h252l-155 -366h-453zM117 272h1282v-272h-1313v618l1225 621v4h-1194v273h1222v-619l-1222 -621v-4z" />
    <glyph glyph-name="zcaron" unicode="&#x17e;" horiz-adv-x="1124" 
d="M330 1171l-156 367h254l127 -340h4l127 340h252l-156 -367h-452zM113 229h946v-229h-975v535l907 270v4h-897v229h926v-534l-907 -271v-4z" />
    <glyph glyph-name="florin" unicode="&#x192;" horiz-adv-x="1462" 
d="M1206 1268q-75 0 -126 -47t-64 -131l-47 -259h260v-96h-277l-73 -411q-29 -163 -146 -253.5t-297 -90.5q-171 0 -307 71l68 240q68 -43 168 -43q75 0 126 47t64 131l55 309h-252v96h269l65 361q29 163 146 253.5t297 90.5q169 0 307 -72l-68 -239q-68 43 -168 43z" />
    <glyph glyph-name="Scommaaccent" unicode="&#x218;" horiz-adv-x="1423" 
d="M784 924q73 -11 114 -17.5t110 -23.5t110 -36t92 -52.5t79 -74.5t47.5 -101t19.5 -134q0 -238 -170.5 -371.5t-474.5 -133.5q-283 0 -455.5 147.5t-198.5 411.5h351q15 -132 97 -206.5t214 -74.5q130 0 203 49t73 137q0 34 -11.5 61t-38 46t-52.5 32t-72 23t-79.5 15.5
t-90.5 13.5q-198 28 -288 59q-202 71 -248 244q-15 56 -15 123q0 231 160.5 353t450.5 122q258 0 417 -141.5t185 -393.5h-350q-9 121 -81 188.5t-192 67.5q-107 0 -168 -43.5t-61 -121.5q0 -29 10.5 -52t36 -40t48.5 -28t68 -20.5t74 -14.5t86 -13zM561 -326v205h297v-172
q0 -89 -76 -139.5t-221 -59.5v86q133 6 193.5 24.5t83.5 55.5h-277z" />
    <glyph glyph-name="scommaaccent" unicode="&#x219;" horiz-adv-x="1099" 
d="M629 651q42 -7 62.5 -10.5t61.5 -12t63.5 -16.5t57.5 -22t55 -29t44 -37.5t36.5 -48.5t21.5 -60.5t9 -74.5q0 -170 -130.5 -265t-362.5 -95t-363 94t-131 262h316q0 -71 47 -110.5t131 -39.5q79 0 123.5 29t44.5 82q0 21 -7.5 38t-25.5 29t-35.5 20.5t-49 15.5
t-53.5 10.5t-61 9.5q-52 8 -80 13t-77.5 17t-78 25t-64.5 37t-55.5 53t-33.5 71.5t-14 94.5q0 154 123.5 241t343.5 87t343.5 -90t123.5 -252h-316q0 66 -39.5 102.5t-111.5 36.5q-67 0 -104 -25.5t-37 -68.5q0 -22 12.5 -38.5t30.5 -27t50.5 -20t59 -14.5t70.5 -11z
M391 -326v205h297v-172q0 -89 -76 -139.5t-221 -59.5v86q133 6 193.5 24.5t83.5 55.5h-277z" />
    <glyph glyph-name="uni021A" unicode="&#x21a;" horiz-adv-x="1273" 
d="M1243 1516v-273h-428v-1243h-356v1243h-426v273h1210zM487 -326v205h297v-172q0 -89 -76 -139.5t-221 -59.5v86q133 6 193.5 24.5t83.5 55.5h-277z" />
    <glyph glyph-name="uni021B" unicode="&#x21b;" horiz-adv-x="856" 
d="M817 809h-301v-430q0 -62 40 -96.5t110 -34.5q72 0 133 33v-250q-108 -51 -242 -51q-179 0 -280 92.5t-101 257.5v479h-135v229h154v336h340v-86q0 -104 -86.5 -169t-243.5 -77v-4h612v-229zM281 -326v205h297v-172q0 -89 -76 -139.5t-221 -59.5v86q133 6 193 24.5
t83 55.5h-276z" />
    <glyph glyph-name="uni0237" unicode="&#x237;" horiz-adv-x="573" 
d="M117 1038h340v-1509h-340v1509z" />
    <glyph glyph-name="circumflex" unicode="&#x2c6;" horiz-adv-x="794" 
d="M623 1538l155 -367h-252l-127 340h-4l-127 -340h-254l156 367h453z" />
    <glyph glyph-name="caron" unicode="&#x2c7;" horiz-adv-x="794" 
d="M526 1538h252l-155 -367h-453l-156 367h254l127 -340h4z" />
    <glyph glyph-name="breve" unicode="&#x2d8;" horiz-adv-x="763" 
d="M739 1538q-3 -177 -97.5 -277t-258.5 -100t-258.5 100t-97.5 277h221q3 -85 39 -132.5t96 -47.5t95 47.5t38 132.5h223z" />
    <glyph glyph-name="dotaccent" unicode="&#x2d9;" horiz-adv-x="550" 
d="M106 1214v283h340v-283h-340z" />
    <glyph glyph-name="ring" unicode="&#x2da;" horiz-adv-x="638" 
d="M319 1135q-133 0 -207.5 66t-74.5 183q0 119 74.5 185.5t207.5 66.5t208 -66.5t75 -185.5q0 -117 -75 -183t-208 -66zM319 1282q46 0 71.5 27.5t25.5 74.5q0 50 -25.5 77.5t-71.5 27.5t-71 -27.5t-25 -77.5q0 -48 25.5 -75t70.5 -27z" />
    <glyph glyph-name="ogonek" unicode="&#x2db;" horiz-adv-x="532" 
d="M510 -444q-94 -48 -244 -48q-115 0 -178 44t-63 122q0 48 32.5 103.5t88 104.5t140 81.5t177.5 32.5v4h26q-93 -71 -145.5 -138t-52.5 -112q0 -55 61 -55q79 0 158 47v-186z" />
    <glyph glyph-name="tilde" unicode="&#x2dc;" horiz-adv-x="929" 
d="M594 1192q-56 0 -109 22t-99 44t-85 22q-42 0 -69 -25.5t-33 -70.5h-138q1 159 74.5 248.5t200.5 89.5q56 0 109 -22.5t99 -45t85 -22.5q42 0 69 26t33 72h137q-3 -160 -75.5 -249t-198.5 -89z" />
    <glyph glyph-name="hungarumlaut" unicode="&#x2dd;" horiz-adv-x="1040" 
d="M403 1608l158 -150l-379 -332l-135 138zM817 1608l158 -150l-379 -332l-137 138z" />
    <glyph glyph-name="gravecomb" unicode="&#x300;" horiz-adv-x="0" 
d="M-436 1579l436 -240l-92 -172l-447 219z" />
    <glyph glyph-name="acutecomb" unicode="&#x301;" horiz-adv-x="0" 
d="M-127 1579l102 -193l-446 -219l-92 172z" />
    <glyph glyph-name="uni0302" unicode="&#x302;" horiz-adv-x="0" 
d="M-172 1538l156 -367h-252l-127 340h-4l-127 -340h-254l155 367h453z" />
    <glyph glyph-name="tildecomb" unicode="&#x303;" horiz-adv-x="0" 
d="M-338 1217q-56 0 -109 22t-99 44t-85 22q-42 0 -69 -26t-33 -71h-137q1 159 74.5 248.5t199.5 89.5q56 0 109 -22.5t99 -45t85 -22.5q42 0 69 26t33 72h138q-3 -159 -76 -248t-199 -89z" />
    <glyph glyph-name="uni0304" unicode="&#x304;" horiz-adv-x="0" 
d="M-750 1475h717v-234h-717v234z" />
    <glyph glyph-name="uni0306" unicode="&#x306;" horiz-adv-x="0" 
d="M-25 1538q-3 -177 -97.5 -277t-258.5 -100t-258.5 100t-97.5 277h221q3 -85 39 -132.5t96 -47.5t95 47.5t38 132.5h223z" />
    <glyph glyph-name="uni0307" unicode="&#x307;" horiz-adv-x="0" 
d="M-444 1214v283h340v-283h-340z" />
    <glyph glyph-name="uni0308" unicode="&#x308;" horiz-adv-x="0" 
d="M-881 1214v283h316v-283h-316zM-449 1214v283h316v-283h-316z" />
    <glyph glyph-name="uni030A" unicode="&#x30a;" horiz-adv-x="0" 
d="M-319 1135q-133 0 -208 66t-75 183q0 119 75 185.5t208 66.5t207.5 -66.5t74.5 -185.5q0 -117 -74.5 -183t-207.5 -66zM-319 1282q45 0 70.5 27t25.5 75q0 50 -25 77.5t-71 27.5t-71.5 -27.5t-25.5 -77.5q0 -47 25.5 -74.5t71.5 -27.5z" />
    <glyph glyph-name="uni030B" unicode="&#x30b;" horiz-adv-x="0" 
d="M-637 1608l158 -150l-379 -332l-135 138zM-223 1608l157 -150l-378 -332l-138 138z" />
    <glyph glyph-name="uni030C" unicode="&#x30c;" horiz-adv-x="0" 
d="M-268 1538h252l-156 -367h-453l-155 367h254l127 -340h4z" />
    <glyph glyph-name="uni0312" unicode="&#x312;" horiz-adv-x="0" 
d="M-53 1552q-134 -4 -195 -29t-82 -75h277v-238h-297v189q0 110 75.5 170.5t221.5 66.5v-84z" />
    <glyph glyph-name="uni0326" unicode="&#x326;" horiz-adv-x="0" 
d="M-352 -121h297v-172q0 -89 -76 -139.5t-221 -59.5v86q133 6 193 24.5t83 55.5h-276v205z" />
    <glyph glyph-name="uni0327" unicode="&#x327;" horiz-adv-x="0" 
d="M-360 -492q-117 0 -215 43v127q73 -47 165 -47q66 0 102 22t36 60q0 30 -22 48t-60 18q-62 0 -92 -41l-99 82q45 38 111.5 59t136.5 21q114 0 178 -46.5t64 -129.5q0 -102 -80.5 -159t-224.5 -57z" />
    <glyph glyph-name="uni0328" unicode="&#x328;" horiz-adv-x="0" 
d="M-23 -444q-94 -48 -243 -48q-115 0 -178.5 44t-63.5 122q0 48 32.5 103.5t88 104.5t140 81.5t177.5 32.5v4h27q-93 -71 -146 -138t-53 -112q0 -55 62 -55q78 0 157 47v-186z" />
    <glyph glyph-name="uni0335" unicode="&#x335;" horiz-adv-x="0" 
d="M-868 782h788v-96h-788v96z" />
    <glyph glyph-name="uni0336" unicode="&#x336;" horiz-adv-x="0" 
d="M-1589 782v-96h1511v96h-1511z" />
    <glyph glyph-name="uni0337" unicode="&#x337;" horiz-adv-x="0" 
d="M-45 1135l86 -56l-780 -1175l-86 55z" />
    <glyph glyph-name="uni0338" unicode="&#x338;" horiz-adv-x="0" 
d="M-102 1597l100 -57l-1016 -1622l-100 57z" />
    <glyph glyph-name="uni0394" unicode="&#x394;" horiz-adv-x="1519" 
d="M1073 1516l436 -1516h-1501l441 1516h624zM432 272h633l-313 1215h-4z" />
    <glyph glyph-name="uni03A9" unicode="&#x3a9;" horiz-adv-x="1685" 
d="M1026 272v-4h541v-268h-627v268q138 0 215.5 133t77.5 369q0 229 -102 358t-285 129q-187 0 -291 -128t-104 -357q0 -238 77 -371t215 -133v-268h-624v268h538v4q-270 0 -421.5 165t-151.5 458q0 302 201.5 471.5t560.5 169.5q356 0 556 -169.5t200 -471.5
q0 -293 -152.5 -458t-423.5 -165z" />
    <glyph glyph-name="uni03BC" unicode="&#x3bc;" horiz-adv-x="1239" 
d="M782 1038h340v-1038h-340v371h-4q0 -185 -82.5 -288t-230.5 -103q-207 0 -295 174l287 -621v-4h-340v1509h340v-606q0 -88 39.5 -137t111.5 -49q82 0 128 62.5t46 172.5v557z" />
    <glyph glyph-name="pi" unicode="&#x3c0;" horiz-adv-x="1402" 
d="M1374 1038v-229h-184v-809h-340v809h-295v-809h-340v809h-184v229h1343z" />
    <glyph glyph-name="Wgrave" unicode="&#x1e80;" horiz-adv-x="2230" 
d="M1348 1817l-93 -172l-446 219l102 192zM1823 1516h354l-244 -1516h-630l-187 1487h-4l-184 -1487h-631l-242 1516h375l209 -1487h4l201 1487h565l203 -1487h4z" />
    <glyph glyph-name="wgrave" unicode="&#x1e81;" horiz-adv-x="1865" 
d="M1155 1339l-92 -172l-447 219l103 193zM1464 1038h353l-177 -1038h-583l-123 1016h-4l-119 -1016h-584l-178 1038h361l133 -1015h4l117 1015h546l119 -1015h4z" />
    <glyph glyph-name="Wacute" unicode="&#x1e82;" horiz-adv-x="2230" 
d="M1446 1864l-447 -219l-92 172l436 239zM1823 1516h354l-244 -1516h-630l-187 1487h-4l-184 -1487h-631l-242 1516h375l209 -1487h4l201 1487h565l203 -1487h4z" />
    <glyph glyph-name="wacute" unicode="&#x1e83;" horiz-adv-x="1865" 
d="M1253 1386l-446 -219l-92 172l436 240zM1464 1038h353l-177 -1038h-583l-123 1016h-4l-119 -1016h-584l-178 1038h361l133 -1015h4l117 1015h546l119 -1015h4z" />
    <glyph glyph-name="Wdieresis" unicode="&#x1e84;" horiz-adv-x="2230" 
d="M1069 1974v-282h-315v282h315zM1501 1974v-282h-315v282h315zM1823 1516h354l-244 -1516h-630l-187 1487h-4l-184 -1487h-631l-242 1516h375l209 -1487h4l201 1487h565l203 -1487h4z" />
    <glyph glyph-name="wdieresis" unicode="&#x1e85;" horiz-adv-x="1865" 
d="M877 1497v-283h-316v283h316zM1309 1497v-283h-316v283h316zM1464 1038h353l-177 -1038h-583l-123 1016h-4l-119 -1016h-584l-178 1038h361l133 -1015h4l117 1015h546l119 -1015h4z" />
    <glyph glyph-name="uni1E9E" unicode="&#x1e9e;" horiz-adv-x="1452" 
d="M729 885q311 0 485.5 -118.5t174.5 -330.5q0 -215 -152 -335.5t-426 -120.5q-117 0 -199 24v272q70 -18 166 -18q118 0 183 50.5t65 140.5q0 95 -75 148.5t-210 53.5h-100v238q131 3 205 53.5t74 138.5q0 82 -54 129t-149 47q-104 0 -162.5 -55t-58.5 -153v-1049h-355
v1036q0 235 152 367.5t422 132.5q267 0 417 -88.5t150 -245.5q0 -148 -151.5 -230.5t-421.5 -82.5v-4h20z" />
    <glyph glyph-name="Ygrave" unicode="&#x1ef2;" horiz-adv-x="1499" 
d="M999 1817l-92 -172l-446 219l102 192zM1137 1516h383l-682 -1516h-383l278 627h-330l-395 889h408l360 -861h4z" />
    <glyph glyph-name="ygrave" unicode="&#x1ef3;" horiz-adv-x="1175" 
d="M815 1339l-92 -172l-447 219l103 193zM774 1038h363l-334 -1509h-363l107 471h-277l-231 1038h362l185 -1015h4z" />
    <glyph glyph-name="endash" unicode="&#x2013;" horiz-adv-x="1259" 
d="M106 575h1047v-96h-1047v96z" />
    <glyph glyph-name="emdash" unicode="&#x2014;" horiz-adv-x="1845" 
d="M106 575h1633v-96h-1633v96z" />
    <glyph glyph-name="quoteleft" unicode="&#x2018;" horiz-adv-x="563" 
d="M461 1350q-140 -6 -231.5 -56t-120.5 -135h350v-354h-369v291q0 184 98.5 296.5t272.5 125.5v-168z" />
    <glyph glyph-name="quoteright" unicode="&#x2019;" horiz-adv-x="550" 
d="M106 1516h369v-291q0 -184 -98.5 -296.5t-272.5 -125.5v168q141 6 232.5 55.5t120.5 134.5h-351v355z" />
    <glyph glyph-name="quotesinglbase" unicode="&#x201a;" horiz-adv-x="575" 
d="M106 354h369v-291q0 -183 -98.5 -295.5t-272.5 -125.5v168q141 6 232.5 55.5t120.5 134.5h-351v354z" />
    <glyph glyph-name="quotedblleft" unicode="&#x201c;" horiz-adv-x="1038" 
d="M92 1096q0 184 98.5 296.5t272.5 125.5v-168q-140 -6 -231.5 -56t-120.5 -135h350v-354h-369v291zM938 1350q-140 -6 -231.5 -56t-120.5 -135h350v-354h-369v291q0 184 98.5 296.5t272.5 125.5v-168z" />
    <glyph glyph-name="quotedblright" unicode="&#x201d;" horiz-adv-x="1026" 
d="M106 1161v355h369v-291q0 -184 -98.5 -296.5t-272.5 -125.5v168q141 6 232.5 55.5t120.5 134.5h-351zM582 1516h368v-291q0 -184 -98 -296.5t-272 -125.5v168q140 6 231.5 55.5t120.5 134.5h-350v355z" />
    <glyph glyph-name="quotedblbase" unicode="&#x201e;" horiz-adv-x="1050" 
d="M106 0v354h369v-291q0 -183 -98.5 -295.5t-272.5 -125.5v168q141 6 232.5 55.5t120.5 134.5h-351zM582 354h368v-291q0 -184 -98 -296t-272 -125v168q140 6 231.5 55.5t120.5 134.5h-350v354z" />
    <glyph glyph-name="dagger" unicode="&#x2020;" horiz-adv-x="784" 
d="M481 1337h226v-149h-234v-551h-168v369q0 76 42 123t116 55v4h-383v149h231v240h170v-240z" />
    <glyph glyph-name="daggerdbl" unicode="&#x2021;" horiz-adv-x="784" 
d="M707 1188h-234v-164h234v-150h-234v-237h-168v53q0 78 42 125t116 55v4h-383v150h225q6 69 47.5 110.5t110.5 49.5v4h-383v149h231v240h170v-240h226v-149z" />
    <glyph glyph-name="bullet" unicode="&#x2022;" horiz-adv-x="823" 
d="M152 365v481h520v-481h-520z" />
    <glyph glyph-name="ellipsis" unicode="&#x2026;" horiz-adv-x="1560" 
d="M104 354h369v-354h-369v354zM598 354h369v-354h-369v354zM1087 354h369v-354h-369v354z" />
    <glyph glyph-name="perthousand" unicode="&#x2030;" horiz-adv-x="2316" 
d="M236 35l1024 1501l75 -55l-1024 -1501zM391 737q-155 0 -242.5 100.5t-87.5 278.5t87.5 278.5t242.5 100.5q156 0 244 -100.5t88 -278.5t-88 -278.5t-244 -100.5zM393 928q40 0 62 49t22 139t-22 139.5t-62 49.5q-41 0 -64.5 -49.5t-23.5 -139.5t23 -139t65 -49z
M1169 -20q-156 0 -243.5 100t-87.5 278t88 278.5t243 100.5q156 0 244 -100.5t88 -278.5t-88 -278t-244 -100zM1931 -20q-155 0 -242 100t-87 278q0 179 87 279t242 100q157 0 244.5 -100t87.5 -279q0 -178 -87.5 -278t-244.5 -100zM1169 170q84 0 84 188q0 189 -84 189
q-41 0 -64.5 -49.5t-23.5 -139.5t23 -139t65 -49zM1933 170q39 0 62.5 49.5t23.5 138.5t-23.5 139t-62.5 50t-63.5 -50t-24.5 -139t24.5 -138.5t63.5 -49.5z" />
    <glyph glyph-name="guilsinglleft" unicode="&#x2039;" horiz-adv-x="524" 
d="M63 512l263 395h114l-258 -395l258 -395h-114z" />
    <glyph glyph-name="guilsinglright" unicode="&#x203a;" horiz-adv-x="524" 
d="M461 512l-262 -395h-115l258 395l-258 395h115z" />
    <glyph glyph-name="fraction" unicode="&#x2044;" horiz-adv-x="473" 
d="M-313 35l1024 1501l75 -55l-1024 -1501z" />
    <glyph glyph-name="uni2070" unicode="&#x2070;" horiz-adv-x="851" 
d="M426 721q-177 0 -276 123.5t-99 343.5t99 343.5t276 123.5t276 -123.5t99 -343.5t-99 -343.5t-276 -123.5zM426 905q63 0 97 75t34 208t-34 207.5t-97 74.5q-61 0 -96 -75t-35 -207t35 -207.5t96 -75.5z" />
    <glyph glyph-name="uni2074" unicode="&#x2074;" horiz-adv-x="847" 
d="M811 1100v-180h-119v-187h-237v187h-420v190l221 532h436v-542h119zM457 1624l-211 -520v-4h215v524h-4z" />
    <glyph glyph-name="uni2075" unicode="&#x2075;" horiz-adv-x="798" 
d="M393 721q-150 0 -243.5 75.5t-108.5 207.5h233q8 -46 39 -72.5t78 -26.5q59 0 92 33.5t33 93.5q0 61 -32 95t-89 34q-40 0 -70 -20.5t-44 -55.5l-228 29l70 528h569v-180h-362l-51 -360h4q17 108 81.5 167.5t161.5 59.5q111 0 173.5 -73.5t62.5 -204.5
q0 -155 -98.5 -242.5t-270.5 -87.5z" />
    <glyph glyph-name="uni2076" unicode="&#x2076;" horiz-adv-x="843" 
d="M545 1317q121 0 188.5 -69.5t67.5 -194.5q0 -155 -101.5 -243.5t-279.5 -88.5q-175 0 -272 121.5t-97 341.5q0 222 103.5 346.5t289.5 124.5q145 0 232.5 -73.5t101.5 -205.5h-229q-7 44 -35.5 69t-69.5 25q-73 0 -114 -75t-41 -209v-94h4q0 106 67 165.5t185 59.5z
M420 905q63 0 99 33.5t36 91.5q0 55 -35.5 85t-99.5 30q-63 0 -98 -29.5t-35 -83.5q0 -60 35.5 -93.5t97.5 -33.5z" />
    <glyph glyph-name="uni2077" unicode="&#x2077;" horiz-adv-x="716" 
d="M20 1642h674v-174q-125 -43 -194.5 -220.5t-69.5 -452.5v-62h-246v29q0 325 123.5 507.5t343.5 188.5v4h-631v180z" />
    <glyph glyph-name="uni2078" unicode="&#x2078;" horiz-adv-x="821" 
d="M469 1292q144 -10 223.5 -83t79.5 -193q0 -140 -95 -217.5t-265 -77.5q-171 0 -267 78t-96 217q0 120 79 192t224 84v4q-128 0 -201 44t-73 120q0 91 89 143t245 52q155 0 243 -52t88 -143q0 -75 -73.5 -119.5t-200.5 -44.5v-4zM322 1378q0 -43 24.5 -68.5t65.5 -25.5
t64.5 25.5t23.5 68.5t-23.5 67.5t-64.5 24.5t-65.5 -24.5t-24.5 -67.5zM412 905q54 0 84 29t30 82t-30 82.5t-84 29.5q-56 0 -87.5 -30t-31.5 -82t31.5 -81.5t87.5 -29.5z" />
    <glyph glyph-name="uni2079" unicode="&#x2079;" horiz-adv-x="843" 
d="M424 1655q175 0 272 -121.5t97 -341.5q0 -221 -104 -346t-288 -125q-145 0 -233 80t-102 223h227q9 -56 36.5 -87.5t71.5 -31.5q72 0 112 75.5t40 209.5v106h-4q0 -101 -65.5 -157t-184.5 -56q-121 0 -187.5 66t-66.5 186q0 151 100 235.5t279 84.5zM424 1255q63 0 98 27
t35 74q0 53 -36 83.5t-97 30.5q-64 0 -99.5 -29t-35.5 -83q0 -49 36 -76t99 -27z" />
    <glyph glyph-name="uni2080" unicode="&#x2080;" horiz-adv-x="851" 
d="M426 -238q-177 0 -276 123.5t-99 343.5t99 343.5t276 123.5t276 -123.5t99 -343.5t-99 -343.5t-276 -123.5zM426 -53q63 0 97 74.5t34 207.5t-34 208t-97 75q-61 0 -96 -75.5t-35 -207.5t35 -207t96 -75z" />
    <glyph glyph-name="uni2081" unicode="&#x2081;" horiz-adv-x="563" 
d="M227 684h236v-909h-236v858h-4q0 -146 -50.5 -227.5t-139.5 -81.5v208q92 0 143 40t51 112z" />
    <glyph glyph-name="uni2082" unicode="&#x2082;" horiz-adv-x="798" 
d="M84 -45h668v-180h-707v174q202 87 315 204t113 242q0 54 -23 85.5t-63 31.5q-44 0 -71.5 -41.5t-32.5 -112.5h-230q12 159 101.5 248.5t238.5 89.5q158 0 247 -82t89 -227q0 -181 -170 -293.5t-475 -134.5v-4z" />
    <glyph glyph-name="uni2083" unicode="&#x2083;" horiz-adv-x="788" 
d="M414 315q153 0 239 -69.5t86 -192.5q0 -138 -95 -214.5t-265 -76.5q-149 0 -239.5 82t-102.5 228h227q3 -59 34 -92t83 -33q54 0 83.5 27.5t29.5 78.5q0 49 -33 77t-90 28h-21v159q57 3 88 30t31 73q0 43 -23.5 67.5t-66.5 24.5t-69 -33t-31 -92h-224q12 146 102.5 227.5
t239.5 81.5q148 0 233 -53.5t85 -140.5q0 -86 -83.5 -134.5t-234.5 -48.5v-4h17z" />
    <glyph glyph-name="uni2084" unicode="&#x2084;" horiz-adv-x="847" 
d="M811 141v-180h-119v-186h-237v186h-420v191l221 532h436v-543h119zM457 666l-211 -521v-4h215v525h-4z" />
    <glyph glyph-name="uni2085" unicode="&#x2085;" horiz-adv-x="798" 
d="M393 -238q-150 0 -243.5 75.5t-108.5 207.5h233q8 -46 39 -72t78 -26q59 0 92 33.5t33 93.5q0 61 -32 95t-89 34q-40 0 -70 -20.5t-44 -55.5l-228 29l70 528h569v-180h-362l-51 -361h4q17 108 81.5 168t161.5 60q111 0 173.5 -73.5t62.5 -205.5q0 -155 -98.5 -242.5
t-270.5 -87.5z" />
    <glyph glyph-name="uni2086" unicode="&#x2086;" horiz-adv-x="843" 
d="M545 358q121 0 188.5 -69.5t67.5 -194.5q0 -155 -101.5 -243.5t-279.5 -88.5q-175 0 -272 121.5t-97 341.5q0 222 103.5 346.5t289.5 124.5q145 0 233 -73t101 -205h-229q-7 44 -35.5 69t-69.5 25q-73 0 -114 -75.5t-41 -209.5v-94h4q0 106 67 165.5t185 59.5zM420 -53
q63 0 99 33.5t36 91.5q0 55 -35.5 84.5t-99.5 29.5q-63 0 -98 -29t-35 -83q0 -60 35.5 -93.5t97.5 -33.5z" />
    <glyph glyph-name="uni2087" unicode="&#x2087;" horiz-adv-x="716" 
d="M20 684h674v-174q-125 -43 -194.5 -221t-69.5 -453v-61h-246v28q0 325 123.5 508t343.5 189v4h-631v180z" />
    <glyph glyph-name="uni2088" unicode="&#x2088;" horiz-adv-x="821" 
d="M469 334q144 -10 223.5 -83.5t79.5 -193.5q0 -140 -95 -217.5t-265 -77.5q-171 0 -267 78t-96 217q0 120 79 192.5t224 84.5v4q-128 0 -201 44t-73 120q0 91 88.5 142.5t245.5 51.5q155 0 243 -51.5t88 -142.5q0 -75 -73.5 -119.5t-200.5 -44.5v-4zM322 420
q0 -43 24.5 -68.5t65.5 -25.5t64.5 25.5t23.5 68.5t-23.5 67.5t-64.5 24.5t-65.5 -24.5t-24.5 -67.5zM412 -53q54 0 84 29t30 81q0 53 -30 83t-84 30q-55 0 -87 -30t-32 -83q0 -52 31.5 -81t87.5 -29z" />
    <glyph glyph-name="uni2089" unicode="&#x2089;" horiz-adv-x="843" 
d="M424 696q175 0 272 -121.5t97 -341.5q0 -221 -104 -346t-288 -125q-144 0 -232.5 80.5t-102.5 223.5h227q9 -56 36.5 -87.5t71.5 -31.5q72 0 112 75t40 209v107h-4q0 -101 -65.5 -157t-184.5 -56q-121 0 -187.5 66t-66.5 186q0 151 100 235t279 84zM424 297q63 0 98 26.5
t35 73.5q0 53 -36 84t-97 31q-63 0 -99 -29.5t-36 -83.5q0 -49 35.5 -75.5t99.5 -26.5z" />
    <glyph glyph-name="Euro" unicode="&#x20ac;" horiz-adv-x="1447" 
d="M1251 375l148 -230q-99 -80 -229.5 -122.5t-237.5 -42.5q-303 0 -490.5 159t-230.5 449h-154v98h144q-2 23 -2 72q0 45 2 65h-144v99h152q41 293 229.5 453.5t493.5 160.5q110 0 228.5 -31.5t205.5 -85.5l-143 -248q-118 86 -291 86q-137 0 -228.5 -87t-123.5 -246h526
l-57 -101h-482q-2 -20 -2 -65q0 -47 2 -70h412l-55 -100h-342q31 -157 122 -243.5t228 -86.5q76 0 163.5 31t155.5 86z" />
    <glyph glyph-name="trademark" unicode="&#x2122;" horiz-adv-x="1374" 
d="M53 1503v74h445v-74h-181v-532h-86v532h-178zM1239 1577l18 -606h-86l-18 592h-4l-170 -592h-158l-162 592h-4l-18 -592h-82l18 606h168l158 -592h4l166 592h170z" />
    <glyph glyph-name="oneeighth" unicode="&#x215b;" horiz-adv-x="1857" 
d="M252 1489h-4q0 -146 -50.5 -227.5t-140.5 -81.5v209q92 0 143.5 39.5t51.5 111.5h235v-909h-235v858zM1272 1536l76 -55l-1024 -1501l-76 55zM1493 559q144 -10 223.5 -83t79.5 -193q0 -140 -95 -217.5t-265 -77.5q-171 0 -267 78t-96 217q0 120 79 192t224 84v4
q-128 0 -201 44t-73 120q0 91 89 143t245 52q155 0 243 -52t88 -143q0 -75 -73.5 -119.5t-200.5 -44.5v-4zM1346 645q0 -43 24.5 -68.5t65.5 -25.5t64.5 25.5t23.5 68.5t-23.5 67.5t-64.5 24.5t-65.5 -24.5t-24.5 -67.5zM1436 172q54 0 84 29t30 82t-30 82.5t-84 29.5
q-56 0 -87.5 -30t-31.5 -82t31.5 -81.5t87.5 -29.5z" />
    <glyph glyph-name="threeeighths" unicode="&#x215c;" horiz-adv-x="2088" 
d="M760 909q0 -138 -95.5 -214.5t-265.5 -76.5q-149 0 -239.5 82t-102.5 228h228q3 -59 33.5 -92t82.5 -33q54 0 83.5 27.5t29.5 78.5q0 49 -33 77t-90 28h-20v160q57 3 87.5 29.5t30.5 72.5q0 43 -23.5 67.5t-66.5 24.5t-69 -33t-31 -92h-223q12 146 102.5 227.5
t239.5 81.5q148 0 232.5 -53.5t84.5 -140.5q0 -86 -83 -134t-234 -48v-5h16q154 0 240 -69.5t86 -192.5zM1503 1536l76 -55l-1024 -1501l-76 55zM1724 559q144 -10 224 -83t80 -193q0 -139 -95.5 -217t-265.5 -78t-266 78t-96 217q0 120 79 192t224 84v4q-128 0 -201.5 44.5
t-73.5 119.5q0 91 89 143t245 52q155 0 243.5 -52t88.5 -143q0 -75 -74 -119.5t-201 -44.5v-4zM1577 645q0 -43 24.5 -68.5t65.5 -25.5t64.5 25.5t23.5 68.5t-23.5 67.5t-64.5 24.5t-65.5 -24.5t-24.5 -67.5zM1667 172q54 0 84.5 29.5t30.5 81.5q0 53 -30.5 82.5t-84.5 29.5
q-56 0 -87.5 -30t-31.5 -82t31.5 -81.5t87.5 -29.5z" />
    <glyph glyph-name="fiveeighths" unicode="&#x215d;" horiz-adv-x="2095" 
d="M778 948q0 -155 -98 -242.5t-270 -87.5q-150 0 -244 75.5t-109 207.5h234q8 -46 39 -72t78 -26q59 0 91.5 33.5t32.5 93.5q0 61 -31.5 95t-88.5 34q-40 0 -71 -20.5t-44 -55.5l-227 29l69 528h570v-180h-363l-51 -361h4q17 108 82 168t162 60q110 0 172.5 -73.5
t62.5 -205.5zM1511 1536l76 -55l-1024 -1501l-76 55zM1731 559q144 -10 223.5 -83t79.5 -193q0 -139 -95.5 -217t-265.5 -78t-266 78t-96 217q0 120 79 192t224 84v4q-128 0 -201.5 44.5t-73.5 119.5q0 91 89 143t245 52q155 0 243.5 -52t88.5 -143q0 -75 -73.5 -119.5
t-200.5 -44.5v-4zM1583 645q0 -43 24.5 -68.5t65.5 -25.5t64.5 25.5t23.5 68.5t-23.5 67.5t-64.5 24.5t-65.5 -24.5t-24.5 -67.5zM1673 172q54 0 84.5 29.5t30.5 81.5q0 53 -30.5 82.5t-84.5 29.5q-56 0 -87.5 -30t-31.5 -82t31.5 -81.5t87.5 -29.5z" />
    <glyph glyph-name="seveneighths" unicode="&#x215e;" horiz-adv-x="2037" 
d="M209 659q0 325 123.5 508t343.5 189v4h-631v180h674v-174q-125 -43 -194.5 -221t-69.5 -453v-61h-246v28zM1446 1536l76 -55l-1024 -1501l-76 55zM1665 559q144 -10 223.5 -83t79.5 -193q0 -140 -95 -217.5t-265 -77.5q-171 0 -267 78t-96 217q0 120 79 192t224 84v4
q-128 0 -201 44t-73 120q0 91 89 143t245 52q155 0 243 -52t88 -143q0 -75 -73.5 -119.5t-200.5 -44.5v-4zM1518 645q0 -43 24.5 -68.5t65.5 -25.5t64.5 25.5t23.5 68.5t-23.5 67.5t-64.5 24.5t-65.5 -24.5t-24.5 -67.5zM1608 172q54 0 84 29t30 82t-30 82.5t-84 29.5
q-56 0 -87.5 -30t-31.5 -82t31.5 -81.5t87.5 -29.5z" />
    <glyph glyph-name="partialdiff" unicode="&#x2202;" horiz-adv-x="1400" 
d="M678 1536q309 0 481 -204t172 -568q0 -370 -192.5 -577t-536.5 -207q-266 0 -415.5 97.5t-149.5 272.5q0 193 247 301.5t687 108.5q0 234 -79 365.5t-220 131.5q-92 0 -150.5 -50.5t-72.5 -141.5h-340q26 223 176 347t393 124zM604 258q173 0 270 132t97 366
q-266 0 -415.5 -85t-149.5 -237q0 -83 52 -129.5t146 -46.5z" />
    <glyph glyph-name="emptyset" unicode="&#x2205;" horiz-adv-x="1226" 
d="M1040 866q107 -135 107 -352q0 -251 -140.5 -391.5t-390.5 -140.5q-217 0 -352 104l-84 -84l-76 74l84 86q-106 133 -106 352q0 250 141 390t393 140q216 0 351 -104l77 78l76 -72zM193 514q0 -164 73 -276l623 624q-108 82 -275 82q-199 0 -310 -113.5t-111 -316.5z
M614 78q198 0 309 115t111 321q0 160 -73 272l-623 -624q107 -84 276 -84z" />
    <glyph glyph-name="product" unicode="&#x220f;" horiz-adv-x="1808" 
d="M1759 1577v-311h-264v-1737h-340v1737h-502v-1737h-340v1737h-266v311h1712z" />
    <glyph glyph-name="summation" unicode="&#x2211;" horiz-adv-x="1505" 
d="M121 -209l1331 10v-272h-1362v608l1036 438v5l-1007 389v608h1292v-272l-1261 10v-4l1005 -381v-703l-1034 -432v-4z" />
    <glyph glyph-name="minus" unicode="&#x2212;" horiz-adv-x="1105" 
d="M113 469v94h880v-94h-880z" />
    <glyph glyph-name="radical" unicode="&#x221a;" horiz-adv-x="1517" 
d="M1153 1577h377l-504 -1802h-649l-105 557h-260v272h572l110 -807h4z" />
    <glyph glyph-name="infinity" unicode="&#x221e;" horiz-adv-x="1613" 
d="M1145 924q185 0 288 -108.5t103 -301.5t-103 -301.5t-288 -108.5q-127 0 -214 60.5t-124 171.5q-37 -111 -124 -171.5t-214 -60.5q-185 0 -288 108.5t-103 301.5t103 301.5t288 108.5q127 0 214 -60.5t124 -171.5q37 111 124 171.5t214 60.5zM469 199q134 0 209.5 83
t75.5 232t-75.5 232t-209.5 83t-209.5 -83t-75.5 -232t75.5 -232t209.5 -83zM1145 199q134 0 209.5 83t75.5 232t-75.5 232t-209.5 83t-209.5 -83t-75.5 -232t75.5 -232t209.5 -83z" />
    <glyph glyph-name="integral" unicode="&#x222b;" horiz-adv-x="1042" 
d="M350 1139q0 216 113.5 337t316.5 121q185 0 295 -69l-69 -238q-73 39 -144 39q-83 0 -127.5 -47t-44.5 -131v-1184q0 -216 -113.5 -337.5t-314.5 -121.5q-182 0 -297 70l72 238q70 -39 141 -39q83 0 127.5 47t44.5 131v1184z" />
    <glyph glyph-name="approxequal" unicode="&#x2248;" horiz-adv-x="1181" 
d="M821 584q-64 0 -118.5 17.5t-93.5 42t-76.5 49t-83 42t-95.5 17.5q-65 0 -105 -47.5t-46 -129.5h-97q6 130 72.5 202.5t181.5 72.5q64 0 118.5 -17.5t93.5 -42t76.5 -49t83 -42t95.5 -17.5q66 0 106 47t46 129h96q-6 -130 -72.5 -202t-181.5 -72zM821 174
q-64 0 -118.5 17.5t-93.5 42t-76.5 49t-83 42t-95.5 17.5q-66 0 -105.5 -47t-45.5 -129h-97q6 130 72.5 202t181.5 72q64 0 118.5 -17.5t93.5 -42t76.5 -49t83 -42t95.5 -17.5q66 0 106 47.5t46 129.5h96q-6 -130 -72.5 -202.5t-181.5 -72.5z" />
    <glyph glyph-name="notequal" unicode="&#x2260;" horiz-adv-x="1105" 
d="M993 664h-342l-86 -295h428v-95h-456l-80 -274h-111l80 274h-313v95h340l86 295h-426v94h452l82 280h113l-82 -280h315v-94z" />
    <glyph glyph-name="lessequal" unicode="&#x2264;" horiz-adv-x="1093" 
d="M985 942l-870 -260v-4l870 -256v-100l-883 270v180l883 272v-102zM102 80v94h881v-94h-881z" />
    <glyph glyph-name="greaterequal" unicode="&#x2265;" horiz-adv-x="1093" 
d="M109 1044l882 -272v-180l-882 -270v100l870 256v4l-870 260v102zM111 80v94h880v-94h-880z" />
    <glyph glyph-name="lozenge" unicode="&#x25ca;" horiz-adv-x="956" 
d="M590 1038l293 -393v-252l-293 -393h-223l-291 393v252l291 393h223zM870 518v4l-389 508h-4l-389 -508v-4l389 -510h4z" />
    <glyph glyph-name="uniF8FF" unicode="&#xf8ff;" horiz-adv-x="2609" 
d="M2486 756l-753 -762q-14 -14 -35 -14q-41 0 -41 47v663l-694 -696q-14 -14 -35 -14q-41 0 -41 47v663l-697 -696q-14 -14 -34 -14q-15 0 -25 10.5t-10 25.5q0 21 10 31l700 698h-663q-47 0 -47 39q0 16 14 33l696 701h-669q-41 0 -41 38v3q0 38 41 38h758q47 0 47 -41
q0 -20 -17 -34l-698 -697h676q17 0 29 -12t12 -29v-669l694 692q13 16 35 16q37 0 37 -45v-663l696 692q13 16 33 16q15 0 25 -12t10 -27q0 -18 -13 -28z" />
    <glyph glyph-name="Jacute" horiz-adv-x="1208" 
d="M1108 2056l102 -192l-446 -219l-92 172zM711 469q0 -99 -41.5 -155t-116.5 -56q-79 0 -129.5 77t-61.5 214h-329q14 -267 148 -418t360 -151q248 0 387 134t139 373v1029h-356v-1047z" />
    <glyph glyph-name="i.loclTRK" horiz-adv-x="573" 
d="M119 1214v283h340v-283h-340zM117 1038h340v-1038h-340v1038z" />
    <glyph glyph-name="jacute" horiz-adv-x="573" 
d="M506 1579l102 -193l-446 -219l-92 172zM117 1038h340v-1509h-340v1509z" />
    <glyph glyph-name="f_b" horiz-adv-x="2131" 
d="M698 1329q-86 0 -132 -45t-46 -127v-119h303v-229h-284v-809h-340v809h-150v229h463v4q-157 12 -244.5 77t-87.5 169q0 146 113.5 227.5t316.5 81.5q122 0 230 -41l-43 -251q-47 24 -99 24zM1667 1059q186 0 291.5 -143t105.5 -396q0 -255 -105.5 -397.5t-291.5 -142.5
q-169 0 -264.5 103t-95.5 284h-4v-367h-340v1577h340v-905h4q0 183 95.5 285t264.5 102zM1503 248q100 0 156.5 71.5t56.5 200.5q0 128 -56.5 200.5t-156.5 72.5q-99 0 -157 -77t-58 -196q0 -120 58 -196t157 -76z" />
    <glyph glyph-name="f_f_j" horiz-adv-x="2164" 
d="M1247 1038h799v-1509h-340v1280h-440v-809h-340v809h-387v-809h-340v809h-150v229h463v4q-157 12 -244.5 77t-87.5 169q0 146 113.5 227.5t316.5 81.5q122 0 230 -41l-43 -251q-47 24 -99 24q-86 0 -132 -45t-46 -127v-119h719v4q-157 12 -244.5 77t-87.5 169
q0 146 113.5 227.5t316.5 81.5q122 0 230 -41l-43 -251q-46 24 -99 24q-86 0 -132 -45t-46 -127v-119zM1706 1497h340v-283h-340v283z" />
    <glyph glyph-name="f_f_t" horiz-adv-x="2365" 
d="M2324 809h-301v-430q0 -62 40 -96.5t110 -34.5q72 0 133 33v-250q-108 -51 -242 -51q-179 0 -280 92.5t-101 257.5v479h-417v-809h-340v809h-387v-809h-340v809h-150v229h463v4q-157 12 -244.5 77t-87.5 169q0 146 113.5 227.5t316.5 81.5q122 0 230 -41l-43 -251
q-47 24 -99 24q-86 0 -132 -45t-46 -127v-119h719v4q-157 12 -244.5 77t-87.5 169q0 146 113.5 227.5t316.5 81.5q122 0 230 -41l-43 -251q-46 24 -99 24q-86 0 -132 -45t-46 -127v-119h455v336h340v-86q0 -104 -86.5 -169t-243.5 -77v-4h612v-229z" />
    <glyph glyph-name="f_h" horiz-adv-x="2097" 
d="M698 1329q-86 0 -132 -45t-46 -127v-119h303v-229h-284v-809h-340v809h-150v229h463v4q-157 12 -244.5 77t-87.5 169q0 146 113.5 227.5t316.5 81.5q122 0 230 -41l-43 -251q-47 24 -99 24zM1632 1059q169 0 264 -115t95 -319v-625h-340v608q0 87 -43.5 136t-120.5 49
q-86 0 -134 -62.5t-48 -173.5v-557h-340v1577h340v-909h4q0 184 85.5 287.5t237.5 103.5z" />
    <glyph glyph-name="f_iacute" horiz-adv-x="1435" 
d="M520 1038h799v-1038h-340v809h-440v-809h-340v809h-150v229h463v4q-157 12 -244.5 77t-87.5 169q0 146 113.5 227.5t316.5 81.5q122 0 230 -41l-43 -251q-47 24 -99 24q-86 0 -132 -45t-46 -127v-119zM1470 1386l-446 -219l-92 172l436 240z" />
    <glyph glyph-name="f_j" horiz-adv-x="1435" 
d="M520 1038h799v-1509h-340v1280h-440v-809h-340v809h-150v229h463v4q-157 12 -244.5 77t-87.5 169q0 146 113.5 227.5t316.5 81.5q122 0 230 -41l-43 -251q-47 24 -99 24q-86 0 -132 -45t-46 -127v-119zM979 1497h340v-283h-340v283z" />
    <glyph glyph-name="f_k" horiz-adv-x="2066" 
d="M698 1329q-86 0 -132 -45t-46 -127v-119h303v-229h-284v-809h-340v809h-150v229h463v4q-157 12 -244.5 77t-87.5 169q0 146 113.5 227.5t316.5 81.5q122 0 230 -41l-43 -251q-47 24 -99 24zM1675 545l412 -545h-406l-372 530h-4v-530h-340v1577h340v-1028h4l338 489h389z
" />
    <glyph glyph-name="f_t" horiz-adv-x="1638" 
d="M1597 809h-301v-430q0 -62 40 -96.5t110 -34.5q72 0 133 33v-250q-108 -51 -242 -51q-179 0 -280 92.5t-101 257.5v479h-417v-809h-340v809h-150v229h463v4q-157 12 -244.5 77t-87.5 169q0 146 113.5 227.5t316.5 81.5q122 0 230 -41l-43 -251q-47 24 -99 24
q-86 0 -132 -45t-46 -127v-119h455v336h340v-86q0 -104 -86.5 -169t-243.5 -77v-4h612v-229z" />
    <glyph glyph-name="t_t" horiz-adv-x="1656" 
d="M1618 809h-301v-430q0 -62 39.5 -96.5t109.5 -34.5q72 0 133 33v-250q-108 -51 -241 -51q-179 0 -280 92.5t-101 257.5v479h-461v-430q0 -62 40 -96.5t110 -34.5q72 0 133 33v-250q-108 -51 -242 -51q-179 0 -280 92.5t-101 257.5v479h-135v229h154v336h340v-86
q0 -104 -86.5 -169t-243.5 -77v-4h790v336h340v-86q0 -104 -86.5 -169t-242.5 -77v-4h612v-229z" />
    <glyph glyph-name="zero.lf" horiz-adv-x="1384" 
d="M692 -20q-288 0 -450 206t-162 572t162 572t450 206q289 0 451 -205.5t162 -572.5t-162 -572.5t-451 -205.5zM692 258q117 0 181.5 132.5t64.5 367.5t-64.5 367t-181.5 132q-115 0 -179 -132t-64 -367t64 -367.5t179 -132.5z" />
    <glyph glyph-name="one.lf" horiz-adv-x="864" 
d="M358 1516h355v-1516h-355v1436h-4q0 -224 -82.5 -349.5t-230.5 -125.5v311q149 0 233 64.5t84 179.5z" />
    <glyph glyph-name="two.lf" horiz-adv-x="1296" 
d="M137 272h1088v-272h-1155v262q346 137 539.5 340.5t193.5 431.5q0 103 -47 163t-127 60q-88 0 -141.5 -75t-61.5 -207h-342q19 264 166 412.5t391 148.5q258 0 401.5 -136.5t143.5 -379.5q0 -311 -276.5 -507t-772.5 -237v-4z" />
    <glyph glyph-name="three.lf" horiz-adv-x="1284" 
d="M666 891q254 0 397 -115t143 -319q0 -226 -156 -351.5t-436 -125.5q-243 0 -390 134.5t-167 374.5h342q6 -109 63.5 -170t155.5 -61q103 0 161.5 52.5t58.5 146.5q0 92 -63 144t-175 52h-35v242q109 6 169.5 56.5t60.5 135.5q0 80 -48 125t-133 45q-83 0 -133.5 -61.5
t-56.5 -171.5h-336q20 242 166 377t389 135q242 0 381 -91t139 -239q0 -146 -138.5 -228.5t-385.5 -82.5v-4h27z" />
    <glyph glyph-name="four.lf" horiz-adv-x="1366" 
d="M1307 598v-272h-197v-326h-356v326h-707v286l408 904h655v-918h197zM758 1487l-391 -885v-4h395v889h-4z" />
    <glyph glyph-name="five.lf" horiz-adv-x="1302" 
d="M641 -20q-246 0 -397 122.5t-176 341.5h348q13 -88 72.5 -137t150.5 -49q109 0 170 64t61 178t-59.5 177.5t-165.5 63.5q-80 0 -136 -41t-83 -112l-342 45l117 883h927v-273h-616l-84 -622h4q31 178 137.5 276t268.5 98q189 0 295 -124t106 -347q0 -257 -157.5 -400.5
t-440.5 -143.5z" />
    <glyph glyph-name="six.lf" horiz-adv-x="1374" 
d="M866 973q204 0 317 -117.5t113 -327.5q0 -257 -163 -402.5t-449 -145.5q-289 0 -446.5 199.5t-157.5 565.5q0 372 169 581.5t470 209.5q234 0 377.5 -122t165.5 -339h-344q-12 86 -64.5 134t-134.5 48q-133 0 -207 -133.5t-74 -373.5v-156h4q0 178 112 278.5t312 100.5z
M682 258q116 0 182 63t66 175q0 102 -66 159.5t-182 57.5q-117 0 -182.5 -56t-65.5 -157q0 -112 67.5 -177t180.5 -65z" />
    <glyph glyph-name="seven.lf" horiz-adv-x="1165" 
d="M27 1516h1106v-263q-215 -70 -334 -369.5t-119 -766.5v-117h-369v66q0 542 198 852t550 321v4h-1032v273z" />
    <glyph glyph-name="eight.lf" horiz-adv-x="1335" 
d="M772 920q231 -20 358 -139.5t127 -317.5q0 -227 -155.5 -355t-433.5 -128t-434 128t-156 355q0 197 127 316t358 141v4q-205 0 -320.5 74.5t-115.5 205.5q0 156 143 244t398 88q254 0 397 -88t143 -244q0 -131 -116 -205.5t-320 -74.5v-4zM492 1081q0 -83 46.5 -129.5
t129.5 -46.5t129.5 46.5t46.5 129.5t-46.5 129.5t-129.5 46.5t-129.5 -46.5t-46.5 -129.5zM668 258q104 0 162.5 54.5t58.5 150.5q0 97 -58.5 151t-162.5 54q-105 0 -164.5 -54.5t-59.5 -150.5q0 -95 60 -150t164 -55z" />
    <glyph glyph-name="nine.lf" horiz-adv-x="1372" 
d="M690 1536q289 0 444.5 -199.5t155.5 -566.5q0 -372 -168 -581t-469 -209q-234 0 -377.5 132t-166.5 369h344q14 -105 66.5 -164t133.5 -59q132 0 206.5 134.5t74.5 373.5v176h-4q0 -169 -112 -263.5t-312 -94.5q-204 0 -318 112t-114 312q0 248 164 388t452 140zM690 844
q116 0 182 50t66 142q0 102 -67.5 161.5t-180.5 59.5q-117 0 -182.5 -57t-65.5 -160q0 -93 65.5 -144.5t182.5 -51.5z" />
    <glyph glyph-name="zero.osf" horiz-adv-x="1347" 
d="M674 -20q-281 0 -438.5 161.5t-157.5 450.5q0 287 157.5 448.5t438.5 161.5t438.5 -161.5t157.5 -448.5q0 -289 -157.5 -450.5t-438.5 -161.5zM674 248q118 0 183 90.5t65 253.5q0 162 -65 253t-183 91q-117 0 -183.5 -91.5t-66.5 -252.5q0 -162 66.5 -253t183.5 -91z
" />
    <glyph glyph-name="one.osf" horiz-adv-x="843" 
d="M360 1182h340v-1182h-340v1102h-4q0 -207 -81.5 -323.5t-227.5 -116.5v276q149 0 231 64.5t82 179.5z" />
    <glyph glyph-name="two.osf" horiz-adv-x="1234" 
d="M133 254h1028v-254h-1091v248q339 119 528.5 263.5t189.5 285.5q0 69 -46 108t-126 39q-89 0 -142.5 -55.5t-59.5 -153.5h-326q13 221 150.5 344t369.5 123q245 0 381.5 -106.5t136.5 -298.5q0 -218 -263 -361t-730 -178v-4z" />
    <glyph glyph-name="three.osf" horiz-adv-x="1228" 
d="M592 616q264 0 413.5 -110.5t149.5 -306.5q0 -209 -150.5 -327t-418.5 -118q-233 0 -374.5 123.5t-160.5 343.5h322q6 -97 63.5 -152t153.5 -55q104 0 162.5 48.5t58.5 136.5q0 87 -63.5 135.5t-176.5 48.5h-32v238q108 15 168.5 61.5t60.5 112.5q0 70 -47.5 109.5
t-132.5 39.5q-83 0 -133 -53.5t-58 -149.5h-315q17 217 158 339t374 122q234 0 367 -81t133 -224q0 -130 -138.5 -203t-383.5 -73v-5z" />
    <glyph glyph-name="four.osf" horiz-adv-x="1339" 
d="M1286 254v-254h-196v-225h-340v225h-687v270l390 916h637v-932h196zM754 1157l-371 -899v-4h375v903h-4z" />
    <glyph glyph-name="five.osf" horiz-adv-x="1275" 
d="M627 -246q-241 0 -390 116.5t-174 322.5h324q17 -80 80 -125t158 -45q114 0 176.5 62t62.5 173q0 106 -60 165.5t-167 59.5q-87 0 -150.5 -38.5t-91.5 -104.5l-317 43l115 799h923v-254h-620l-103 -568h4q38 172 148 269.5t268 97.5q187 0 292 -124t105 -345
q0 -238 -154 -371t-429 -133z" />
    <glyph glyph-name="six.osf" horiz-adv-x="1320" 
d="M840 950q193 0 301 -117.5t108 -326.5q0 -247 -155.5 -386.5t-427.5 -139.5q-285 0 -437.5 194t-152.5 555t163 563.5t453 202.5q225 0 362 -116t160 -324h-317q-14 82 -67 127t-138 45q-127 0 -197.5 -131.5t-70.5 -366.5v-147h4q0 172 113 270t299 98zM664 248
q114 0 178.5 59.5t64.5 165.5q0 107 -64.5 167t-178.5 60t-180 -58.5t-66 -162.5q0 -108 66.5 -169.5t179.5 -61.5z" />
    <glyph glyph-name="seven.osf" horiz-adv-x="1153" 
d="M43 1182h1065v-244q-148 -41 -254.5 -193t-162.5 -400t-56 -570h-352q0 349 87.5 604.5t255 395.5t400.5 149v4h-983v254z" />
    <glyph glyph-name="eight.osf" horiz-adv-x="1316" 
d="M764 891q228 -23 353.5 -137t125.5 -301q0 -223 -155.5 -348t-430.5 -125t-430 125t-155 348q0 187 125.5 301t353.5 137v4q-203 0 -316.5 70.5t-113.5 199.5q0 155 142 242.5t394 87.5q251 0 394 -87.5t143 -242.5q0 -129 -113.5 -199.5t-316.5 -70.5v-4zM465 1051
q0 -82 50.5 -128t141.5 -46q89 0 140 46t51 128q0 83 -50.5 129.5t-140.5 46.5q-91 0 -141.5 -46.5t-50.5 -129.5zM657 248q110 0 174 55t64 150t-64 149.5t-174 54.5q-112 0 -175.5 -54.5t-63.5 -149.5q0 -96 63.5 -150.5t175.5 -54.5z" />
    <glyph glyph-name="nine.osf" horiz-adv-x="1320" 
d="M655 1200q285 0 436.5 -183t151.5 -525q0 -349 -162 -543.5t-454 -194.5q-225 0 -362 109.5t-159 304.5h318q14 -68 67 -106.5t136 -38.5q129 0 199.5 124.5t70.5 348.5v122h-4q0 -163 -114 -255.5t-300 -92.5q-193 0 -300 111.5t-107 312.5q0 238 154.5 372t428.5 134z
M657 518q114 0 179 54t65 149q0 98 -65.5 153.5t-178.5 55.5q-116 0 -180.5 -53.5t-64.5 -151.5t64.5 -152.5t180.5 -54.5z" />
    <glyph glyph-name="zero.dnom" horiz-adv-x="851" 
d="M426 -12q-177 0 -276 123.5t-99 343.5t99 343.5t276 123.5t276 -123.5t99 -343.5t-99 -343.5t-276 -123.5zM426 172q63 0 97 75t34 208t-34 207.5t-97 74.5q-61 0 -96 -75t-35 -207t35 -207.5t96 -75.5z" />
    <glyph glyph-name="one.dnom" horiz-adv-x="563" 
d="M225 909h236v-909h-236v858h-4q0 -146 -50.5 -227.5t-139.5 -81.5v209q92 0 143 39.5t51 111.5z" />
    <glyph glyph-name="two.dnom" horiz-adv-x="798" 
d="M86 180h668v-180h-707v174q202 87 315 204.5t113 242.5q0 54 -23 85t-63 31q-44 0 -71.5 -41t-32.5 -112h-230q12 159 101.5 248.5t238.5 89.5q158 0 247 -82.5t89 -227.5q0 -181 -170 -293.5t-475 -134.5v-4z" />
    <glyph glyph-name="three.dnom" horiz-adv-x="788" 
d="M414 541q153 0 239 -69.5t86 -192.5q0 -138 -95 -214.5t-265 -76.5q-149 0 -239.5 81.5t-102.5 227.5h227q3 -59 34 -92t83 -33q54 0 83.5 28t29.5 79q0 49 -33 76.5t-90 27.5h-21v160q57 3 88 29.5t31 72.5q0 43 -23.5 67.5t-66.5 24.5t-69 -33t-31 -92h-224
q12 146 102.5 228t239.5 82q148 0 233 -54t85 -141q0 -86 -83.5 -134t-234.5 -48v-4h17z" />
    <glyph glyph-name="four.dnom" horiz-adv-x="847" 
d="M811 367v-181h-119v-186h-237v186h-420v191l221 532h436v-542h119zM457 891l-211 -520v-4h215v524h-4z" />
    <glyph glyph-name="five.dnom" horiz-adv-x="798" 
d="M393 -12q-151 0 -244 75t-108 207h233q8 -46 39 -72t78 -26q59 0 92 33.5t33 93.5q0 61 -32 95t-89 34q-40 0 -70 -20.5t-44 -55.5l-228 29l70 528h569v-180h-362l-51 -360h4q17 108 81.5 167.5t161.5 59.5q111 0 173.5 -73.5t62.5 -205.5q0 -155 -98.5 -242t-270.5 -87z
" />
    <glyph glyph-name="six.dnom" horiz-adv-x="843" 
d="M543 584q121 0 188.5 -70t67.5 -195q0 -155 -101 -243t-280 -88q-175 0 -272 121.5t-97 341.5q0 222 103.5 346.5t289.5 124.5q145 0 232.5 -73.5t101.5 -205.5h-229q-7 44 -35.5 69t-69.5 25q-73 0 -114 -75t-41 -209v-95h4q0 106 67 166t185 60zM418 172q63 0 99 33.5
t36 91.5q0 55 -35.5 85t-99.5 30q-63 0 -98 -29.5t-35 -83.5q0 -60 35.5 -93.5t97.5 -33.5z" />
    <glyph glyph-name="seven.dnom" horiz-adv-x="716" 
d="M20 909h674v-174q-125 -43 -194.5 -221t-69.5 -453v-61h-246v29q0 325 123.5 507.5t343.5 188.5v4h-631v180z" />
    <glyph glyph-name="eight.dnom" horiz-adv-x="821" 
d="M469 559q144 -10 223.5 -83t79.5 -193q0 -140 -95 -217.5t-265 -77.5q-171 0 -267 78t-96 217q0 120 79 192t224 84v4q-128 0 -201 44t-73 120q0 91 89 143t245 52q155 0 243 -52t88 -143q0 -75 -73.5 -119.5t-200.5 -44.5v-4zM322 645q0 -43 24.5 -68.5t65.5 -25.5
t64.5 25.5t23.5 68.5t-23.5 67.5t-64.5 24.5t-65.5 -24.5t-24.5 -67.5zM412 172q54 0 84 29t30 82t-30 82.5t-84 29.5q-56 0 -87.5 -30t-31.5 -82t31.5 -81.5t87.5 -29.5z" />
    <glyph glyph-name="nine.dnom" horiz-adv-x="843" 
d="M426 922q175 0 272 -121.5t97 -341.5q0 -221 -104 -346t-288 -125q-145 0 -233 80t-102 223h227q9 -56 36.5 -87.5t71.5 -31.5q72 0 112 75.5t40 209.5v106h-4q0 -101 -65.5 -157t-184.5 -56q-121 0 -187.5 66t-66.5 186q0 151 100 235.5t279 84.5zM426 522q63 0 98 27
t35 74q0 53 -36 83.5t-97 30.5q-64 0 -99.5 -29t-35.5 -83q0 -49 36 -76t99 -27z" />
    <glyph glyph-name="zero.numr" horiz-adv-x="851" 
d="M426 618q-177 0 -276 123.5t-99 343.5t99 343.5t276 123.5t276 -123.5t99 -343.5t-99 -343.5t-276 -123.5zM426 803q63 0 97 74.5t34 207.5t-34 208t-97 75q-61 0 -96 -75.5t-35 -207.5t35 -207t96 -75z" />
    <glyph glyph-name="one.numr" horiz-adv-x="563" 
d="M227 1540h236v-909h-236v858h-4q0 -146 -50.5 -227.5t-139.5 -81.5v209q92 0 143 39.5t51 111.5z" />
    <glyph glyph-name="two.numr" horiz-adv-x="798" 
d="M84 811h668v-180h-707v174q202 87 315 204t113 242q0 54 -23 85.5t-63 31.5q-44 0 -71.5 -41.5t-32.5 -112.5h-230q12 159 101.5 248.5t238.5 89.5q158 0 247 -82t89 -227q0 -181 -170 -293.5t-475 -134.5v-4z" />
    <glyph glyph-name="three.numr" horiz-adv-x="788" 
d="M414 1171q153 0 239 -69.5t86 -192.5q0 -138 -95 -214.5t-265 -76.5q-149 0 -239.5 82t-102.5 228h227q3 -59 34 -92t83 -33q54 0 83.5 27.5t29.5 78.5q0 49 -33 77t-90 28h-21v160q57 3 88 29.5t31 72.5q0 43 -23.5 67.5t-66.5 24.5t-69 -33t-31 -92h-224
q12 146 102.5 227.5t239.5 81.5q148 0 233 -53.5t85 -140.5q0 -86 -83.5 -134t-234.5 -48v-5h17z" />
    <glyph glyph-name="four.numr" horiz-adv-x="847" 
d="M811 997v-180h-119v-186h-237v186h-420v191l221 532h436v-543h119zM457 1522l-211 -521v-4h215v525h-4z" />
    <glyph glyph-name="five.numr" horiz-adv-x="798" 
d="M393 618q-150 0 -243.5 75.5t-108.5 207.5h233q8 -46 39 -72t78 -26q59 0 92 33.5t33 93.5q0 61 -32 95t-89 34q-40 0 -70 -20.5t-44 -55.5l-228 29l70 528h569v-180h-362l-51 -361h4q17 108 81.5 168t161.5 60q111 0 173.5 -73.5t62.5 -205.5q0 -155 -98.5 -242.5
t-270.5 -87.5z" />
    <glyph glyph-name="six.numr" horiz-adv-x="843" 
d="M543 1214q121 0 188.5 -69.5t67.5 -194.5q0 -155 -101.5 -243.5t-279.5 -88.5q-175 0 -272 121.5t-97 341.5q0 222 103.5 346.5t289.5 124.5q145 0 233 -73t101 -205h-229q-7 44 -35.5 69t-69.5 25q-73 0 -114 -75.5t-41 -209.5v-94h4q0 106 67 165.5t185 59.5zM418 803
q63 0 99 33.5t36 91.5q0 55 -35.5 84.5t-99.5 29.5q-63 0 -98 -29t-35 -83q0 -60 35.5 -93.5t97.5 -33.5z" />
    <glyph glyph-name="seven.numr" horiz-adv-x="716" 
d="M20 1540h674v-174q-125 -43 -194.5 -221t-69.5 -453v-61h-246v28q0 325 123.5 508t343.5 189v4h-631v180z" />
    <glyph glyph-name="eight.numr" horiz-adv-x="821" 
d="M469 1190q144 -10 223.5 -83.5t79.5 -193.5q0 -140 -95 -217.5t-265 -77.5q-171 0 -267 78t-96 217q0 120 79 192.5t224 84.5v4q-128 0 -201 44t-73 120q0 91 88.5 142.5t245.5 51.5q155 0 243 -51.5t88 -142.5q0 -75 -73.5 -119.5t-200.5 -44.5v-4zM322 1276
q0 -43 24.5 -68.5t65.5 -25.5t64.5 25.5t23.5 68.5t-23.5 67.5t-64.5 24.5t-65.5 -24.5t-24.5 -67.5zM412 803q54 0 84 29t30 81q0 53 -30 83t-84 30q-55 0 -87 -30t-32 -83q0 -52 31.5 -81t87.5 -29z" />
    <glyph glyph-name="nine.numr" horiz-adv-x="843" 
d="M426 1552q175 0 272 -121t97 -341q0 -221 -104 -346.5t-288 -125.5q-144 0 -232.5 80.5t-102.5 223.5h227q9 -56 36.5 -87.5t71.5 -31.5q72 0 112 75t40 209v107h-4q0 -101 -65.5 -157t-184.5 -56q-121 0 -187.5 66t-66.5 186q0 151 100 235t279 84zM426 1153
q63 0 98 26.5t35 73.5q0 53 -36 84t-97 31q-63 0 -99 -29.5t-36 -83.5q0 -49 35.5 -75.5t99.5 -26.5z" />
    <glyph glyph-name="backslash.case" horiz-adv-x="770" 
d="M147 1577l578 -1602l-102 -36l-578 1601z" />
    <glyph glyph-name="exclamdown.case" horiz-adv-x="653" 
d="M141 1161v355h369v-355h-369zM162 997h327l11 -997h-348z" />
    <glyph glyph-name="questiondown.case" horiz-adv-x="1167" 
d="M819 1161h-370v355h370v-355zM1116 479q-17 -235 -156 -367t-372 -132q-244 0 -380 110t-136 307q0 135 103 292.5t288 307.5h321v-4q-157 -142 -246 -291t-89 -270q0 -81 41 -127.5t112 -46.5q77 0 124.5 59t53.5 162h336z" />
    <glyph glyph-name="slash.case" horiz-adv-x="770" 
d="M623 1577l102 -37l-578 -1601l-102 36z" />
    <glyph glyph-name="numbersign.osf" horiz-adv-x="1171" 
d="M1106 752h-205l-37 -316h199l-12 -94h-199l-39 -342h-113l37 342h-368l-39 -342h-113l41 342h-207l12 94h205l37 316h-199l13 94h198l35 301h113l-37 -301h371l35 301h112l-35 -301h207zM754 436l37 316h-375l-37 -316h375z" />
    <glyph glyph-name="braceleft.case" horiz-adv-x="552" 
d="M330 967q0 -154 -144 -209q144 -58 144 -211v-389q0 -72 43.5 -117t115.5 -45v-98q-120 0 -194 67.5t-74 179.5v390q0 82 -47 128t-131 46v96q84 0 131 46t47 128v391q0 112 74 180t194 68v-98q-72 0 -115.5 -45t-43.5 -117v-391z" />
    <glyph glyph-name="braceright.case" horiz-adv-x="552" 
d="M332 979q0 -82 47 -128t131 -46v-96q-84 0 -131 -46t-47 -128v-390q0 -112 -74 -179.5t-195 -67.5v98q72 0 116 45t44 117v389q0 153 144 211q-144 55 -144 209v391q0 72 -44 117t-116 45v98q120 0 194.5 -68t74.5 -180v-391z" />
    <glyph glyph-name="bracketleft.case" horiz-adv-x="608" 
d="M578 1520h-316v-1524h316v-98h-424v1720h424v-98z" />
    <glyph glyph-name="bracketright.case" horiz-adv-x="608" 
d="M455 1618v-1720h-424v98h315v1524h-315v98h424z" />
    <glyph glyph-name="parenleft.case" horiz-adv-x="509" 
d="M489 -61q-155 166 -230 386t-75 433q0 216 74.5 432.5t230.5 386.5l-79 61q-169 -190 -252.5 -418t-83.5 -462t83.5 -462.5t252.5 -418.5z" />
    <glyph glyph-name="parenright.case" horiz-adv-x="509" 
d="M20 -61l80 -62q169 190 252.5 418.5t83.5 462.5t-83.5 462t-252.5 418l-80 -61q156 -170 231 -387t75 -432q0 -213 -75.5 -433t-230.5 -386z" />
    <glyph glyph-name="emdash.case" horiz-adv-x="1853" 
d="M111 801h1632v-96h-1632v96z" />
    <glyph glyph-name="endash.case" horiz-adv-x="1267" 
d="M111 801h1046v-96h-1046v96z" />
    <glyph glyph-name="hyphen.case" horiz-adv-x="892" 
d="M111 801h671v-96h-671v96z" />
    <glyph glyph-name="uni00AD.case" horiz-adv-x="892" 
d="M111 801h671v-96h-671v96z" />
    <glyph glyph-name="guillemotleft.case" horiz-adv-x="929" 
d="M76 737l262 396h115l-258 -396l258 -395h-115zM451 737l262 396h114l-258 -396l258 -395h-114z" />
    <glyph glyph-name="guillemotright.case" horiz-adv-x="929" 
d="M477 737l-262 -395h-115l258 395l-258 396h115zM852 737l-262 -395h-115l258 395l-258 396h115z" />
    <glyph glyph-name="guilsinglleft.case" horiz-adv-x="555" 
d="M76 737l262 396h115l-258 -396l258 -395h-115z" />
    <glyph glyph-name="guilsinglright.case" horiz-adv-x="555" 
d="M477 737l-262 -395h-115l258 395l-258 396h115z" />
    <glyph glyph-name="cent.osf" horiz-adv-x="1214" 
d="M1161 418q-25 -195 -149 -309t-328 -127v-207h-109v207q-238 14 -370.5 155.5t-132.5 382.5q0 240 133 382t370 155v190h109v-190q203 -14 326.5 -126.5t148.5 -305.5h-334q-30 130 -141 161v-532q107 27 143 164h334zM418 520q0 -110 41 -178.5t116 -87.5v532
q-75 -19 -116 -88t-41 -178z" />
    <glyph glyph-name="dollar.osf" horiz-adv-x="1196" 
d="M1133 393q0 -183 -126.5 -289.5t-355.5 -117.5v-170h-106v170q-209 12 -337 123.5t-151 302.5h318q10 -70 54.5 -115t115.5 -57v241q-177 23 -255 53q-179 68 -196 244q-2 20 -2 41q0 176 119 273t334 106v168h106v-168q191 -14 308 -119t139 -286h-316q-6 58 -40 96.5
t-91 52.5v-205l15 -2q179 -27 257 -55q183 -68 206 -234q4 -25 4 -53zM418 848q0 -37 32.5 -59t94.5 -35v194q-61 -6 -94 -32t-33 -68zM651 236q74 8 115 37.5t41 78.5q0 50 -40 76t-116 39v-231z" />
    <glyph glyph-name="Euro.osf" horiz-adv-x="1224" 
d="M1036 322l133 -205q-84 -65 -190.5 -99t-192.5 -34q-251 0 -407.5 122t-194.5 345h-129v84h119q-2 18 -2 59q0 31 2 47h-119v82h127q34 228 191 352.5t413 124.5q89 0 186 -25t171 -67l-127 -219q-89 61 -230 61q-104 0 -173 -58.5t-95 -166.5h416l-47 -84h-381
q-2 -14 -2 -47q0 -39 2 -57h325l-47 -86h-264q28 -104 97 -161t169 -57q58 0 125.5 23.5t124.5 65.5z" />
    <glyph glyph-name="sterling.osf" horiz-adv-x="1136" 
d="M125 244h942v-244h-987v238q208 122 211 272h-182v96h151q-10 19 -35.5 59t-40.5 66.5t-28 64.5t-13 72q0 156 119.5 244t333.5 88q201 0 321.5 -105.5t139.5 -297.5h-309q-6 72 -45.5 112.5t-102.5 40.5q-51 0 -81 -26t-30 -72q0 -33 22.5 -74t56.5 -90.5t48 -81.5h271
v-96h-254q-14 -100 -144.5 -168t-363.5 -96v-2z" />
    <glyph glyph-name="yen.osf" horiz-adv-x="1345" 
d="M1294 1182l-282 -662h145v-82h-180l-43 -102h223v-80h-258l-108 -256h-363l109 256h-340v80h372l45 102h-417v82h131l-277 662h385l248 -645h4l244 645h362z" />
    <glyph glyph-name="plus.case" horiz-adv-x="999" 
d="M940 768v-94h-389v-393h-107v393h-385v94h383v393h111v-393h387z" />
    <glyph glyph-name="minus.case" horiz-adv-x="1103" 
d="M111 674v94h880v-94h-880z" />
    <glyph glyph-name="multiply.case" horiz-adv-x="917" 
d="M842 1016l-310 -307l308 -308l-74 -73l-307 307l-307 -307l-74 73l307 308l-307 307l74 74l307 -308l307 308z" />
    <glyph glyph-name="divide.case" horiz-adv-x="1071" 
d="M537 958q-76 0 -76 72q0 35 19.5 54.5t56.5 19.5q75 0 75 -74q0 -72 -75 -72zM94 674v94h883v-94h-883zM537 338q-76 0 -76 70q0 75 76 75q75 0 75 -75q0 -70 -75 -70z" />
    <glyph glyph-name="equal.case" horiz-adv-x="1103" 
d="M111 868v95h880v-95h-880zM111 479v94h880v-94h-880z" />
    <glyph glyph-name="notequal.case" horiz-adv-x="1103" 
d="M991 868h-342l-86 -295h428v-94h-456l-80 -274h-111l80 274h-313v94h340l86 295h-426v95h452l82 280h113l-82 -280h315v-95z" />
    <glyph glyph-name="greater.case" horiz-adv-x="976" 
d="M115 1171l803 -354v-190l-803 -353v107l790 338v4l-790 342v106z" />
    <glyph glyph-name="less.case" horiz-adv-x="976" 
d="M864 1065l-790 -342v-4l790 -338v-107l-803 353v190l803 354v-106z" />
    <glyph glyph-name="greaterequal.case" horiz-adv-x="1134" 
d="M135 1249l883 -272v-180l-883 -271v101l871 256v4l-871 260v102zM137 285v94h881v-94h-881z" />
    <glyph glyph-name="lessequal.case" horiz-adv-x="1134" 
d="M997 1147l-870 -260v-4l870 -256v-101l-882 271v180l882 272v-102zM115 285v94h880v-94h-880z" />
    <glyph glyph-name="plusminus.case" horiz-adv-x="1112" 
d="M608 934h387v-96h-389v-316h-104v316h-387v96h387v317h106v-317zM115 285v94h880v-94h-880z" />
    <glyph glyph-name="logicalnot.case" horiz-adv-x="1079" 
d="M80 928h881v-441h-107v344h-774v97z" />
    <glyph glyph-name="percent.osf" horiz-adv-x="1484" 
d="M362 551q-145 0 -224 85.5t-79 240.5q0 154 79.5 239.5t223.5 85.5q145 0 225.5 -85.5t80.5 -239.5q0 -155 -80.5 -240.5t-225.5 -85.5zM268 33l869 1169l73 -53l-866 -1169zM365 727q37 0 58 40.5t21 109.5q0 68 -21 107.5t-58 39.5q-38 0 -60 -39.5t-22 -107.5
q0 -69 22 -109.5t60 -40.5zM1120 -20q-144 0 -223.5 85t-79.5 238q0 156 79.5 243t223.5 87q143 0 224 -87.5t81 -242.5q0 -152 -81 -237.5t-224 -85.5zM1122 158q37 0 57.5 38t20.5 107t-20.5 108.5t-57.5 39.5q-38 0 -60 -39.5t-22 -108.5t22 -107t60 -38z" />
    <glyph glyph-name="perthousand.osf" horiz-adv-x="2166" 
d="M362 551q-145 0 -224 85.5t-79 240.5q0 154 79.5 239.5t223.5 85.5q145 0 225.5 -85.5t80.5 -239.5q0 -155 -80.5 -240.5t-225.5 -85.5zM268 33l869 1169l73 -53l-866 -1169zM365 727q37 0 58 40.5t21 109.5q0 68 -21 107.5t-58 39.5q-38 0 -60 -39.5t-22 -107.5
q0 -69 22 -109.5t60 -40.5zM1120 -20q-144 0 -223.5 85t-79.5 238q0 156 79.5 243t223.5 87q143 0 224 -87.5t81 -242.5q0 -152 -81 -237.5t-224 -85.5zM1808 -20q-143 0 -223 85.5t-80 237.5q0 155 80 242.5t223 87.5q145 0 226.5 -87.5t81.5 -242.5q0 -152 -81.5 -237.5
t-226.5 -85.5zM1122 158q37 0 57.5 38t20.5 107t-20.5 108.5t-57.5 39.5q-38 0 -60 -39.5t-22 -108.5t22 -107t60 -38zM1810 158q38 0 59 38t21 107t-21 108.5t-59 39.5t-58.5 -39t-20.5 -109q0 -69 20.5 -107t58.5 -38z" />
    </font>
</defs>
</svg>
