<?xml version="1.0" encoding="utf-8"?>
<!-- Generator: Adobe Illustrator 16.0.3, SVG Export Plug-In . SVG Version: 6.00 Build 0)  -->
<!DOCTYPE svg PUBLIC "-//W3C//DTD SVG 1.1//EN" "http://www.w3.org/Graphics/SVG/1.1/DTD/svg11.dtd">
<svg version="1.1" id="Layer_1" xmlns="http://www.w3.org/2000/svg" xmlns:xlink="http://www.w3.org/1999/xlink" x="0px" y="0px"
	 width="195.098px" height="155.192px" viewBox="0 0 195.098 155.192" enable-background="new 0 0 195.098 155.192"
	 xml:space="preserve">
<g>
	<path fill="#FFFFFF" d="M188.339,119.426c-3.741,0-6.771,3.093-6.771,6.914c0,3.822,3.029,6.918,6.771,6.918
		c3.72,0,6.759-3.096,6.759-6.918C195.098,122.519,192.059,119.426,188.339,119.426z"/>
	<path fill="#FFFFFF" d="M175.895,128.153h-0.297c-1.791,0-3.097-0.4-3.908-1.205c-0.814-0.801-1.24-2.119-1.24-3.947V99.196
		c0-6.063-1.436-10.809-4.275-14.203c-2.885-3.396-6.822-5.094-11.805-5.094c-3.654,0-7.158,1.002-10.47,3.014
		c-3.323,2.008-6.429,5.045-9.35,9.105c-0.401-4.354-0.97-8.104-1.722-11.248l-15.877,0.875c2.922-1.178,5.689-2.795,8.308-4.892
		c5.983-4.808,8.979-11.71,8.979-20.702c0-5.637-1.15-10.446-3.436-14.453c-2.296-4.001-5.773-7.251-10.493-9.733
		c-4.686-2.485-9.841-3.729-15.452-3.729c-8.172,0-14.974,2.679-20.385,8.037c-5.42,5.353-8.125,11.998-8.125,19.93
		c0,5.268,1.205,9.986,3.6,14.18c2.186,3.832,5.275,6.903,9.201,9.293c-2.069-0.31-4.214-0.503-6.495-0.503
		c-4.241,0-8.012,0.703-11.416,1.954c-0.662-1.018-1.437-1.987-2.415-2.849v-7.271v-2.208v-2.912V0L45.304,1.207v4.996h3.749
		c1.713,0,3.081,0.504,4.074,1.51c0.992,1.001,1.497,2.445,1.497,4.308v56.679v2.208v3.146c-0.476,0.022-1.601,0.116-1.601,0.116
		c-3.868,0.404-7.765,2.969-11.695,7.753c-1.177-0.49-2.393-0.915-3.606-1.281c0.75-0.479,1.51-0.948,2.185-1.537
		c3.727-3.229,5.595-7.226,5.595-11.982c0-3.771-0.98-7.063-2.932-9.879c-1.933-2.814-4.645-4.942-8.115-6.362
		c-1.829-0.768-5.49-1.719-10.994-2.854c-6.065-1.246-9.782-2.404-11.141-3.464c-1.354-1.025-2.038-2.531-2.038-4.515
		c0-2.009,0.879-3.671,2.627-4.996c1.752-1.321,4.308-1.979,7.664-1.979c3.901,0,7.211,0.948,9.947,2.838
		c2.724,1.891,5.238,5.167,7.525,9.829h4.338l-1.07-17.547h-3.268l-3.518,4.328c-2.42-1.604-4.723-2.739-6.878-3.396
		c-2.164-0.657-4.619-0.989-7.323-0.989c-5.583,0-10.043,1.638-13.352,4.907c-3.329,3.271-4.993,7.46-4.993,12.579
		c0,3.578,0.909,6.645,2.719,9.174c1.837,2.54,4.548,4.525,8.158,5.947c2.095,0.882,6.077,1.923,11.894,3.132
		c5.393,1.141,8.715,2.198,9.973,3.187c1.247,0.984,1.876,2.433,1.876,4.336c0,2.083-0.996,3.876-2.998,5.378
		c-2.011,1.504-4.894,2.252-8.682,2.252c-9.22,0-15.724-4.901-19.515-14.7H0.958l0.97,19.414h4.064l3.839-4.604
		c1.244,0.872,2.471,1.611,3.671,2.229c-0.168,0.073-0.377,0.122-0.55,0.196c-3.787,1.664-6.585,3.893-8.403,6.689
		c-1.826,2.793-2.738,5.929-2.738,9.393c0,3.215,0.833,6.088,2.493,8.604c1.66,2.523,4.136,4.697,7.429,6.523
		c-3.474,1.352-5.871,2.909-7.216,4.657c-1.339,1.753-2.01,3.899-2.01,6.42c0,2.775,0.9,5.042,2.685,6.799
		c1.779,1.758,4.439,2.999,7.979,3.728c-5.431,1.285-8.982,2.652-10.663,4.121C0.835,139.962,0,141.665,0,143.606
		c0,3.115,1.959,5.82,5.884,8.131c3.939,2.303,10.76,3.455,20.476,3.455c11.394,0,19.377-1.902,23.955-5.717
		c3.754-3.112,5.632-7.23,5.632-12.357c0-4.283-1.628-7.639-4.879-10.049c-3.262-2.418-9.052-3.633-17.362-3.633
		c-2.508,0-6.414,0.146-11.74,0.443l-4.936,0.166c-2.739,0-4.75-0.401-5.994-1.203c-0.964-0.576-1.45-1.47-1.45-2.675
		c0-1.377,0.757-2.495,2.305-3.368c1.5-0.873,4.366-1.314,8.63-1.314l5.73,0.111c5.536,0,10.161-0.816,13.857-2.464
		c3.702-1.643,6.448-3.859,8.278-6.633c1.823-2.773,2.727-5.877,2.727-9.312c0-3.991-1.578-7.792-4.734-11.423
		c1.106-1.23,8.087-8.533,14.016-4.553c3.294,2.206,2.47,4.53,1.803,5.615c-1.743,2.027-2.636,4.252-2.636,6.67
		c0,2.158,0.702,3.917,2.146,5.29c1.427,1.37,3.315,2.055,5.676,2.055c2.211,0,3.986-0.626,5.302-1.894
		c0.104-0.095,0.398-0.437,0.442-0.493c0.597-0.701,1.002-1.514,1.243-2.417c0.039-0.098,0.11-0.348,0.123-0.447
		c1.11-4.4-0.96-9.696-0.96-9.696c0.231-0.17,0.504-0.342,0.816-0.513c1.855-1.062,4.001-1.592,6.425-1.592
		c3.184,0,5.721,0.928,7.621,2.768c1.883,1.854,2.837,4.234,2.837,7.16v7.404c-14.15,2.629-23.319,5.262-27.502,7.895
		c-5.206,3.324-7.811,7.748-7.811,13.268c0,3.66,1.399,6.678,4.229,9.053c2.823,2.376,6.75,3.564,11.796,3.564
		c3.64,0,6.896-0.671,9.797-2c2.879-1.337,6.168-3.849,9.815-7.543c1.571,3.694,6.4,7.9,12.64,7.9c1.124,0,38.659,0,38.659,0v-5.105
		h-3.808c-1.324,0-2.401-0.439-3.239-1.312c-0.833-0.878-1.258-2.157-1.258-3.84v-17.164c0-5.525,1.177-9.716,3.507-12.585
		c2.352-2.868,5.396-4.313,9.13-4.313c2.735,0,4.952,1.021,6.644,3.049c1.688,2.027,2.525,4.943,2.525,8.744V123
		c0,1.683-0.418,2.962-1.238,3.84c-0.811,0.873-2.07,1.312-3.743,1.312h-3.156v5.105h30.178v-0.046
		C177.215,131.749,176.355,130.04,175.895,128.153z M33.219,136.435c5.549,0,9.108,0.346,10.716,1.042
		c2.36,0.99,3.54,2.559,3.54,4.717c0,2.226-1.36,4.094-4.075,5.596c-3.607,1.938-9.495,2.907-17.69,2.907
		c-6.288,0-10.557-0.674-12.802-2.002c-2.256-1.339-3.362-2.991-3.362-4.964c0-2.086,1.434-3.825,4.332-5.214
		C16.772,137.135,23.215,136.435,33.219,136.435z M32.907,107.313c-1.787,2.34-3.913,3.512-6.411,3.512
		c-2.532,0-4.67-1.131-6.408-3.402c-1.752-2.262-2.618-5.533-2.618-9.814c0-4.423,0.88-7.814,2.64-10.17
		c1.769-2.36,3.867-3.541,6.334-3.541c2.532,0,4.677,1.184,6.464,3.566c1.775,2.377,2.673,5.703,2.673,9.982
		C35.58,101.688,34.683,104.977,32.907,107.313z M91.231,112.963c0,4.498-1.171,8.045-3.517,10.645
		c-2.333,2.594-5.274,3.893-8.815,3.893c-2.289,0-4.067-0.692-5.333-2.06c-1.272-1.372-1.898-3.337-1.898-5.897
		c0-3.617,1.349-6.534,4.044-8.742c2.701-2.215,7.878-3.854,15.52-4.913V112.963z M96.29,74.067
		c-2.181-3.31-3.271-9.335-3.271-18.071c0-8.405,1.103-14.287,3.292-17.634c2.192-3.343,5.159-5.013,8.874-5.013
		c3.815,0,6.878,1.688,9.16,5.069c2.287,3.383,3.432,9.357,3.432,17.909c0,8.334-1.158,14.204-3.48,17.601
		c-2.334,3.402-5.378,5.1-9.171,5.1C101.414,79.028,98.465,77.375,96.29,74.067z M120.349,123c0,1.683-0.401,2.962-1.212,3.84
		c-0.799,0.873-1.992,1.312-3.568,1.312h-4.066v0.01c-2.014-0.062-4.139-0.387-5.344-1.734c-0.732-0.848-0.732-1.456-0.732-3.428
		V96.947c0-3.87-0.802-7.138-2.426-9.788c-0.915-1.459-1.979-2.66-3.173-3.643c1.656,0.266,3.335,0.449,5.087,0.449
		c1.607,0,3.182-0.135,4.713-0.357c-0.072,0.246-0.139,0.504-0.139,0.775c0,1.278,1.01,2.315,2.259,2.315
		c0.041,0,0.079-0.006,0.123-0.015v0.015h2.146c1.896,0,3.424,0.517,4.586,1.558c1.155,1.045,1.747,2.445,1.747,4.199V123z"/>
</g>
</svg>
