<?xml version="1.0" standalone="no"?>
<!DOCTYPE svg PUBLIC "-//W3C//DTD SVG 1.1//EN" "http://www.w3.org/Graphics/SVG/1.1/DTD/svg11.dtd" >
<svg xmlns="http://www.w3.org/2000/svg" xmlns:xlink="http://www.w3.org/1999/xlink" version="1.1">
<metadata>
Created by FontForge 20170731 at Fri May 28 20:14:11 2021
 By Aleksey,,,
Copyright (c) 2017 by Alberto Romanos. All rights reserved.
</metadata>
<defs>
<font id="BwGradualDEMO-Regular" horiz-adv-x="1234" >
  <font-face 
    font-family="Bw Gradual DEMO"
    font-weight="400"
    font-stretch="normal"
    units-per-em="2048"
    panose-1="0 0 5 0 0 0 0 0 0 0"
    ascent="1577"
    descent="-471"
    x-height="1014"
    cap-height="1516"
    bbox="-1487 -492 2499 2083"
    underline-thickness="102"
    underline-position="-307"
    unicode-range="U+000D-FB02"
  />
<missing-glyph horiz-adv-x="2609" 
d="M2486 756l-753 -762q-14 -14 -35 -14q-41 0 -41 47v663l-694 -696q-14 -14 -35 -14q-41 0 -41 47v663l-697 -696q-14 -14 -34 -14q-15 0 -25 10.5t-10 25.5q0 21 10 31l700 698h-663q-47 0 -47 39q0 16 14 33l696 701h-669q-41 0 -41 38v3q0 38 41 38h758q47 0 47 -41
q0 -20 -17 -34l-698 -697h676q17 0 29 -12t12 -29v-669l694 692q13 16 35 16q37 0 37 -45v-663l696 692q13 16 33 16q15 0 25 -12t10 -27q0 -18 -13 -28z" />
    <glyph glyph-name="fi" unicode="fi" horiz-adv-x="1226" 
d="M1069 1014v-1014h-168v889h-518v-889h-168v889h-164v125h311v4q-74 40 -116.5 109t-42.5 153q0 150 95.5 233.5t264.5 83.5q114 0 189 -38l-25 -129q-55 28 -129 28q-111 0 -169 -56t-58 -159v-229h698zM901 1454h168v-215h-168v215z" />
    <glyph glyph-name="fl" unicode="fl" horiz-adv-x="1243" 
d="M598 1458q-111 0 -169 -56t-58 -159v-229h358v-125h-346v-889h-168v889h-164v125h311v4q-74 40 -116.5 109t-42.5 153q0 150 95.5 233.5t264.5 83.5q114 0 189 -38l-25 -129q-55 28 -129 28zM918 1577h167v-1577h-167v1577z" />
    <glyph glyph-name="f_f" unicode="ff" horiz-adv-x="1411" 
d="M1253 1458q-111 0 -169 -56t-58 -159v-229h358v-125h-346v-889h-168v889h-487v-889h-168v889h-164v125h311v4q-74 40 -116.5 109t-42.5 153q0 150 95.5 233.5t264.5 83.5q114 0 189 -38l-25 -129q-55 28 -129 28q-111 0 -169 -56t-58 -159v-229h647v4q-74 40 -117 109
t-43 153q0 150 96 233.5t265 83.5q117 0 202 -43l-22 -131q-60 35 -146 35z" />
    <glyph glyph-name="f_f_i" unicode="ffi" horiz-adv-x="1882" 
d="M1724 1014v-1014h-168v889h-518v-889h-168v889h-487v-889h-168v889h-164v125h311v4q-74 40 -116.5 109t-42.5 153q0 150 95.5 233.5t264.5 83.5q114 0 189 -38l-25 -129q-55 28 -129 28q-111 0 -169 -56t-58 -159v-229h647v4q-74 40 -117 109t-43 153q0 150 96 233.5
t265 83.5q113 0 188 -38l-25 -129q-55 28 -129 28q-111 0 -169 -56t-58 -159v-229h698zM1556 1454h168v-215h-168v215z" />
    <glyph glyph-name="f_f_l" unicode="ffl" horiz-adv-x="1898" 
d="M1253 1458q-111 0 -169 -56t-58 -159v-229h358v-125h-346v-889h-168v889h-487v-889h-168v889h-164v125h311v4q-74 40 -116.5 109t-42.5 153q0 150 95.5 233.5t264.5 83.5q114 0 189 -38l-25 -129q-55 28 -129 28q-111 0 -169 -56t-58 -159v-229h647v4q-74 40 -117 109
t-43 153q0 150 96 233.5t265 83.5q113 0 188 -38l-25 -129q-55 28 -129 28zM1573 1577h168v-1577h-168v1577z" />
    <glyph glyph-name=".notdef" horiz-adv-x="2609" 
d="M2486 756l-753 -762q-14 -14 -35 -14q-41 0 -41 47v663l-694 -696q-14 -14 -35 -14q-41 0 -41 47v663l-697 -696q-14 -14 -34 -14q-15 0 -25 10.5t-10 25.5q0 21 10 31l700 698h-663q-47 0 -47 39q0 16 14 33l696 701h-669q-41 0 -41 38v3q0 38 41 38h758q47 0 47 -41
q0 -20 -17 -34l-698 -697h676q17 0 29 -12t12 -29v-669l694 692q13 16 35 16q37 0 37 -45v-663l696 692q13 16 33 16q15 0 25 -12t10 -27q0 -18 -13 -28z" />
    <glyph glyph-name=".null" horiz-adv-x="0" 
 />
    <glyph glyph-name="nonmarkingreturn" horiz-adv-x="682" 
 />
    <glyph glyph-name="CR" unicode="&#xd;" horiz-adv-x="487" 
 />
    <glyph glyph-name="space" unicode=" " horiz-adv-x="487" 
 />
    <glyph glyph-name="exclam" unicode="!" horiz-adv-x="534" 
d="M190 395l-10 1121h176l-10 -1121h-156zM164 195h205v-195h-205v195z" />
    <glyph glyph-name="quotedbl" unicode="&#x22;" horiz-adv-x="686" 
d="M127 1577h158v-416h-158v416zM401 1577h158v-416h-158v416z" />
    <glyph glyph-name="numbersign" unicode="#" horiz-adv-x="1396" 
d="M1315 1036h-266l-52 -508h263l-13 -82h-258l-45 -446h-96l47 446h-467l-47 -446h-96l47 446h-260l10 82h258l53 508h-256l10 82h256l41 398h97l-39 -398h461l38 398h97l-41 -398h268zM901 530l53 506h-460l-58 -506h465z" />
    <glyph glyph-name="dollar" unicode="$" horiz-adv-x="1323" 
d="M1245 432q0 -202 -141 -320.5t-395 -129.5v-211h-95v211q-242 11 -383.5 151.5t-156.5 384.5h174q10 -172 106.5 -273.5t259.5 -113.5v586q-65 10 -105.5 18t-99 23.5t-95.5 33.5t-78.5 47.5t-65 65.5t-39.5 88t-16 115q0 195 131.5 306t367.5 122v205h95v-207
q220 -13 349.5 -149t143.5 -365h-174q-7 157 -91.5 252t-227.5 110v-524q71 -11 111 -18.5t105 -25t103 -36t84.5 -50.5t72 -71.5t43 -97t17.5 -127.5zM293 1118q0 -49 17 -87t44.5 -63t71.5 -44.5t86.5 -30.5t101.5 -21v514q-152 -8 -236.5 -78t-84.5 -190zM709 131
q169 9 262.5 84.5t93.5 204.5q0 58 -20 102.5t-49.5 72.5t-80 50t-95.5 33.5t-111 23.5v-571z" />
    <glyph glyph-name="percent" unicode="%" horiz-adv-x="1464" 
d="M209 31l979 1505l67 -51l-979 -1505zM371 737q-135 0 -211 100.5t-76 278.5t76 278.5t211 100.5t210.5 -100t75.5 -279t-75.5 -279t-210.5 -100zM371 846q70 0 109.5 71t39.5 199t-39.5 199t-109.5 71q-71 0 -111.5 -71.5t-40.5 -198.5t40.5 -198.5t111.5 -71.5z
M1096 -20q-135 0 -211 100t-76 278t76 278.5t211 100.5q136 0 212 -100t76 -279t-76 -278.5t-212 -99.5zM1096 88q71 0 111 71.5t40 198.5t-40 199t-111 72t-110.5 -72t-39.5 -199t39.5 -198.5t110.5 -71.5z" />
    <glyph glyph-name="ampersand" unicode="&#x26;" horiz-adv-x="1630" 
d="M1593 94l-104 -114l-295 260q-238 -260 -576 -260q-247 0 -386.5 113t-139.5 310q0 95 34 173t73.5 125t124 94t131 65t147.5 54q1 1 2 1q14 4 38.5 14t33.5 13q-201 0 -320.5 74.5t-119.5 197.5q0 152 118 237t330 85q210 0 327 -89.5t117 -250.5q0 -42 -9 -78.5
t-29.5 -68t-42 -57t-58 -50t-64.5 -41.5t-75.5 -38.5t-77.5 -33.5t-82 -32q-49 -19 -70.5 -27.5t-66.5 -28t-66.5 -31.5t-57.5 -34t-54 -40t-42 -45t-35 -54t-19.5 -61.5t-8.5 -72.5q0 -127 95.5 -200.5t263.5 -73.5q268 0 460 212t265 591l145 -41q-63 -307 -209 -526z
M410 1186q0 -109 76 -174.5t202 -65.5q62 23 103.5 43.5t80.5 49.5t58.5 65.5t19.5 81.5q0 96 -69.5 148t-196.5 52q-129 0 -201.5 -52.5t-72.5 -147.5z" />
    <glyph glyph-name="quotesingle" unicode="'" horiz-adv-x="411" 
d="M127 1577h158v-416h-158v416z" />
    <glyph glyph-name="parenleft" unicode="(" horiz-adv-x="552" 
d="M518 -442q-164 227 -240.5 483.5t-76.5 511.5q0 256 76 510.5t241 484.5l-76 49q-340 -473 -340 -1044q0 -572 340 -1045z" />
    <glyph glyph-name="parenright" unicode=")" horiz-adv-x="552" 
d="M35 -442l76 -50q340 473 340 1045q0 571 -340 1044l-76 -49q165 -230 241 -484.5t76 -510.5q0 -255 -76.5 -511.5t-240.5 -483.5z" />
    <glyph glyph-name="asterisk" unicode="*" horiz-adv-x="778" 
d="M567 1243q-85 0 -170 45l-4 -4l160 -221l-92 -70q-51 70 -66 142q-16 62 -6 149l-6 2l-160 -221l-96 65q70 104 186 140q40 17 72 22h-2v4l-262 86l35 111q153 -45 231 -193h4v277h119q0 -157 -113 -279l2 -4l263 84l36 -112q-74 -23 -131 -23z" />
    <glyph glyph-name="plus" unicode="+" horiz-adv-x="956" 
d="M870 557v-82h-344v-350h-96v350h-342v82h342v350h94v-350h346z" />
    <glyph glyph-name="comma" unicode="," horiz-adv-x="462" 
d="M139 195h205v-166q0 -121 -54 -209t-151 -123v110q83 22 133.5 73t59.5 120h-193v195z" />
    <glyph glyph-name="hyphen" unicode="-" horiz-adv-x="825" 
d="M139 555h549v-80h-549v80z" />
    <glyph glyph-name="period" unicode="." horiz-adv-x="471" 
d="M133 195h205v-195h-205v195z" />
    <glyph glyph-name="slash" unicode="/" horiz-adv-x="831" 
d="M686 1638l88 -28l-631 -1897l-88 29z" />
    <glyph glyph-name="zero" unicode="0" horiz-adv-x="1325" 
d="M664 -20q-259 0 -404 205.5t-145 572.5t145 572.5t404 205.5q258 0 403 -205.5t145 -572.5t-145 -572.5t-403 -205.5zM664 129q173 0 270.5 166.5t97.5 462.5t-97.5 462t-270.5 166q-175 0 -272 -165.5t-97 -462.5t97 -463t272 -166z" />
    <glyph glyph-name="one" unicode="1" horiz-adv-x="708" 
d="M340 1516h176v-1516h-176v1450h-4q0 -136 -75.5 -212.5t-207.5 -76.5v154q135 0 211 53.5t76 147.5z" />
    <glyph glyph-name="two" unicode="2" horiz-adv-x="1228" 
d="M172 143h965v-143h-1049v133q389 110 606 347t217 550q0 167 -81 261.5t-226 94.5q-147 0 -234 -105t-96 -294h-170q12 258 145 403.5t359 145.5q230 0 360 -134.5t130 -373.5q0 -350 -244 -582.5t-682 -298.5v-4z" />
    <glyph glyph-name="three" unicode="3" horiz-adv-x="1230" 
d="M598 844q246 0 385 -112.5t139 -313.5q0 -206 -139 -322t-389 -116q-226 0 -359 129.5t-143 361.5h170q6 -163 94 -254.5t240 -91.5q163 0 253.5 77.5t90.5 215.5t-94 215.5t-264 77.5h-43v137q169 20 263.5 96t94.5 193q0 120 -80 187t-223 67q-135 0 -216.5 -93.5
t-90.5 -257.5h-166q12 233 142.5 364.5t350.5 131.5q219 0 341 -93t122 -257q0 -160 -128.5 -249t-358.5 -89v-4h8z" />
    <glyph glyph-name="four" unicode="4" horiz-adv-x="1224" 
d="M1159 537v-144h-196v-393h-177v393h-733v156l578 967h332v-979h196zM786 1499l-565 -958v-4h570v962h-5z" />
    <glyph glyph-name="five" unicode="5" 
d="M616 -20q-218 0 -355.5 116.5t-162.5 323.5h174q22 -137 112.5 -214t229.5 -77q166 0 259.5 96.5t93.5 268.5t-91.5 269t-254.5 97q-133 0 -218 -69.5t-122 -190.5l-170 23l116 893h807v-144h-647l-104 -733h4q29 169 137.5 264.5t273.5 95.5q212 0 331.5 -132
t119.5 -365q0 -246 -141 -384t-392 -138z" />
    <glyph glyph-name="six" unicode="6" horiz-adv-x="1296" 
d="M729 975q219 0 341 -125t122 -350q0 -243 -144.5 -381.5t-385.5 -138.5q-547 0 -547 731q0 389 150.5 607t418.5 218q207 0 332.5 -116.5t140.5 -325.5h-172q-12 138 -91.5 215t-209.5 77q-185 0 -289 -174.5t-104 -484.5v-147h4q0 186 115 290.5t319 104.5zM653 129
q169 0 264 95t95 265q0 162 -95 252t-264 90q-166 0 -259 -85.5t-93 -239.5q0 -172 98 -274.5t254 -102.5z" />
    <glyph glyph-name="seven" unicode="7" horiz-adv-x="1095" 
d="M29 1516h1030v-134q-157 -40 -270.5 -197t-173.5 -415.5t-60 -595.5v-174h-184v143q0 535 162 859.5t450 365.5v4h-954v144z" />
    <glyph glyph-name="eight" unicode="8" horiz-adv-x="1282" 
d="M780 850q188 -29 291 -140.5t103 -285.5q0 -210 -141 -327t-392 -117t-391.5 117t-140.5 327q0 174 103 285.5t290 140.5v4q-162 0 -253 83.5t-91 233.5q0 171 128 268t355 97t355 -97t128 -268q0 -149 -91.5 -233t-252.5 -84v-4zM338 1114q0 -131 80.5 -204.5
t222.5 -73.5t222.5 73.5t80.5 204.5q0 129 -80 200.5t-223 71.5t-223 -71.5t-80 -200.5zM641 129q166 0 259 78t93 217t-93 217t-259 78t-259 -78t-93 -217t93 -217t259 -78z" />
    <glyph glyph-name="nine" unicode="9" horiz-adv-x="1294" 
d="M639 1536q541 0 541 -731q0 -389 -151 -607t-419 -218q-209 0 -333.5 127.5t-139.5 355.5h172q10 -158 90 -246t211 -88q184 0 287.5 174t103.5 485v168h-4q0 -177 -114.5 -275.5t-317.5 -98.5q-220 0 -341.5 119.5t-121.5 334.5q0 234 146.5 367t390.5 133zM639 725
q166 0 260 80.5t94 224.5q0 163 -98 259.5t-256 96.5q-168 0 -262 -89t-94 -250q0 -153 94 -237.5t262 -84.5z" />
    <glyph glyph-name="colon" unicode=":" horiz-adv-x="483" 
d="M139 1030h205v-194h-205v194zM139 195h205v-195h-205v195z" />
    <glyph glyph-name="semicolon" unicode=";" horiz-adv-x="483" 
d="M141 1030h205v-194h-205v194zM139 0v195h205v-166q0 -121 -54 -209t-151 -123v110q83 22 133.5 73t59.5 120h-193z" />
    <glyph glyph-name="less" unicode="&#x3c;" horiz-adv-x="972" 
d="M846 838l-746 -320v-4l746 -315v-90l-758 329v158l758 332v-90z" />
    <glyph glyph-name="equal" unicode="=" horiz-adv-x="1067" 
d="M141 621v81h785v-81h-785zM141 330v82h785v-82h-785z" />
    <glyph glyph-name="greater" unicode="&#x3e;" horiz-adv-x="972" 
d="M127 928l758 -332v-158l-758 -329v90l745 315v4l-745 320v90z" />
    <glyph glyph-name="question" unicode="?" horiz-adv-x="1105" 
d="M59 1049q12 230 138.5 358.5t341.5 128.5q220 0 343.5 -112.5t123.5 -309.5q0 -159 -113 -348.5t-315 -370.5h-166v4q193 184 301 370.5t108 334.5q0 132 -75.5 207t-210.5 75q-137 0 -219 -89t-89 -248h-168zM385 195h203v-195h-203v195z" />
    <glyph glyph-name="at" unicode="@" horiz-adv-x="2293" 
d="M1382 289q0 34 4 61l7 41h-4q-28 -154 -137 -241t-277 -87q-161 0 -248.5 99.5t-87.5 275.5q0 268 133.5 432t355.5 164q155 0 239.5 -67t84.5 -189q0 -11 -2.5 -35.5t-3.5 -33.5h4l55 307h162l-119 -674q-4 -32 -4 -39q0 -55 33.5 -86t93.5 -31q177 0 275 142t98 395
q0 356 -219.5 556t-612.5 200q-457 0 -713.5 -271t-256.5 -753q0 -389 229 -608.5t639 -219.5q139 0 293.5 31.5t288.5 87.5l47 -117q-135 -57 -301.5 -89t-327.5 -32q-476 0 -744 250.5t-268 696.5q0 539 295 840.5t819 301.5q459 0 717 -231t258 -643q0 -309 -144 -482
t-401 -173q-125 0 -192.5 58t-67.5 163zM1063 197q140 0 236 85.5t131 239.5l6 27q8 66 8 94q0 125 -66 191.5t-190 66.5q-171 0 -275 -118.5t-104 -311.5q0 -130 66 -202t188 -72z" />
    <glyph glyph-name="A" unicode="A" horiz-adv-x="1402" 
d="M1186 0l-127 389h-725l-127 -389h-180l520 1516h311l518 -1516h-190zM381 532h633l-314 967h-4z" />
    <glyph glyph-name="B" unicode="B" horiz-adv-x="1384" 
d="M815 844q226 0 351.5 -109.5t125.5 -306.5q0 -201 -131.5 -314.5t-365.5 -113.5h-600v1516h569q194 0 303 -93t109 -258q0 -150 -102.5 -233.5t-285.5 -83.5v-4h27zM993 1108q0 125 -75.5 194.5t-210.5 69.5h-338v-524h338q135 0 210.5 68.5t75.5 191.5zM805 143
q145 0 226 75.5t81 209.5q0 133 -81 208t-226 75h-436v-568h436z" />
    <glyph glyph-name="C" unicode="C" horiz-adv-x="1458" 
d="M1374 555q-41 -270 -203 -422.5t-409 -152.5q-308 0 -480.5 205.5t-172.5 572.5t172.5 572.5t480.5 205.5q248 0 409.5 -148t202.5 -413h-170q-37 194 -154 302.5t-288 108.5q-223 0 -347 -166t-124 -462q0 -297 124 -463t347 -166q172 0 288.5 112.5t153.5 313.5h170z
" />
    <glyph glyph-name="D" unicode="D" horiz-adv-x="1458" 
d="M195 0v1516h438q340 0 530.5 -201t190.5 -557t-190.5 -557t-530.5 -201h-438zM369 143h276q249 0 387.5 162.5t138.5 452.5t-138.5 452t-387.5 162h-276v-1229z" />
    <glyph glyph-name="E" unicode="E" horiz-adv-x="1280" 
d="M369 143h823v-143h-997v1516h974v-144h-800v-518h729v-143h-729v-568z" />
    <glyph glyph-name="F" unicode="F" horiz-adv-x="1155" 
d="M1106 1372h-737v-532h630v-144h-630v-696h-174v1516h911v-144z" />
    <glyph glyph-name="G" unicode="G" horiz-adv-x="1505" 
d="M729 784h649v-784h-166v551h-4q0 -269 -139.5 -420t-388.5 -151q-263 0 -416 207t-153 571q0 367 173 572.5t482 205.5q242 0 400.5 -145t199.5 -402h-170q-37 187 -151 292t-279 105q-224 0 -349.5 -166t-125.5 -462t121 -462.5t338 -166.5q213 0 333 138t125 386h-479
v131z" />
    <glyph glyph-name="H" unicode="H" horiz-adv-x="1505" 
d="M1137 1516h174v-1516h-174v698h-768v-698h-174v1516h174v-674h768v674z" />
    <glyph glyph-name="I" unicode="I" horiz-adv-x="563" 
d="M195 0v1516h174v-1516h-174z" />
    <glyph glyph-name="J" unicode="J" horiz-adv-x="1130" 
d="M774 432q0 -143 -70 -223t-194 -80q-122 0 -200 99.5t-91 273.5h-166q17 -246 137 -384t316 -138q210 0 327 122.5t117 341.5v1072h-176v-1084z" />
    <glyph glyph-name="K" unicode="K" horiz-adv-x="1411" 
d="M578 791l841 -791h-239l-811 780h-4v-780h-170v1516h170v-719h4l753 719h224z" />
    <glyph glyph-name="L" unicode="L" horiz-adv-x="1107" 
d="M369 147h698v-147h-872v1516h174v-1369z" />
    <glyph glyph-name="M" unicode="M" horiz-adv-x="1941" 
d="M1724 1516l48 -1516h-177l-43 1499h-4l-434 -1499h-315l-414 1499h-4l-43 -1499h-166l45 1516h342l399 -1500h7l417 1500h342z" />
    <glyph glyph-name="N" unicode="N" horiz-adv-x="1505" 
d="M1145 1516h166v-1516h-307l-642 1499h-4l7 -1499h-170v1516h311l639 -1500h4z" />
    <glyph glyph-name="O" unicode="O" horiz-adv-x="1531" 
d="M766 -20q-309 0 -483 205.5t-174 572.5t174 572.5t483 205.5q310 0 483.5 -205.5t173.5 -572.5t-173.5 -572.5t-483.5 -205.5zM766 129q224 0 350.5 166.5t126.5 462.5t-126.5 462t-350.5 166q-225 0 -350 -165.5t-125 -462.5t125 -463t350 -166z" />
    <glyph glyph-name="P" unicode="P" horiz-adv-x="1292" 
d="M715 1516q239 0 373.5 -121t134.5 -336q0 -216 -134.5 -337.5t-375.5 -121.5h-344v-600h-174v1516h520zM723 743q150 0 234.5 84t84.5 232t-83.5 230.5t-233.5 82.5h-356v-629h354z" />
    <glyph glyph-name="Q" unicode="Q" horiz-adv-x="1562" 
d="M909 141l590 2v-143h-733q-309 0 -483 203.5t-174 564.5t174 564.5t483 203.5t483 -195t174 -532q0 -314 -135.5 -489t-378.5 -175v-4zM291 766q0 -296 125.5 -462.5t349.5 -166.5t350.5 166.5t126.5 462.5q0 292 -126.5 456t-350.5 164t-349.5 -164t-125.5 -456z" />
    <glyph glyph-name="R" unicode="R" horiz-adv-x="1368" 
d="M1030 453l270 -453h-196l-379 647h-356v-647h-174v1516h540q244 0 382 -110.5t138 -307.5q0 -211 -134.5 -329t-375.5 -118v-4q78 0 155 -51t130 -143zM369 784h379q155 0 241 80t86 221q0 135 -86.5 211t-240.5 76h-379v-588z" />
    <glyph glyph-name="S" unicode="S" horiz-adv-x="1355" 
d="M674 -20q-260 0 -414.5 142t-169.5 396h174q12 -184 120.5 -286.5t291.5 -102.5q192 0 298.5 76.5t106.5 214.5q0 47 -12.5 84.5t-33 64.5t-54 48.5t-66 35.5t-80.5 26t-86.5 19t-92.5 16q-5 1 -7 1q-55 9 -84.5 14t-81 15.5t-81 20.5t-72 27.5t-67 36.5t-53 47.5
t-43.5 61t-25.5 76t-10.5 94.5q0 204 143.5 316t399.5 112q243 0 387.5 -136.5t157.5 -379.5h-175q-9 173 -108 269.5t-268 96.5t-264 -70.5t-95 -197.5q0 -41 12 -74t30.5 -56.5t50 -42.5t63 -31t76.5 -22.5t82 -17t89 -14.5h1q202 -32 291 -65q192 -70 240 -231
q18 -59 18 -132q0 -214 -155.5 -333t-432.5 -119z" />
    <glyph glyph-name="T" unicode="T" horiz-adv-x="1187" 
d="M1149 1516v-144h-467v-1372h-176v1372h-467v144h1110z" />
    <glyph glyph-name="U" unicode="U" horiz-adv-x="1464" 
d="M1120 510v1006h166v-994q0 -255 -147 -398.5t-408 -143.5q-260 0 -406.5 143.5t-146.5 398.5v994h176v-1006q0 -180 100.5 -280.5t280.5 -100.5q182 0 283.5 100.5t101.5 280.5z" />
    <glyph glyph-name="V" unicode="V" horiz-adv-x="1343" 
d="M1124 1516h183l-473 -1516h-324l-471 1516h190l445 -1500h4z" />
    <glyph glyph-name="W" unicode="W" horiz-adv-x="2074" 
d="M1841 1516h180l-350 -1516h-328l-305 1499h-4l-303 -1499h-330l-348 1516h191l331 -1500h5l307 1500h305l311 -1500h4z" />
    <glyph glyph-name="X" unicode="X" horiz-adv-x="1325" 
d="M852 791l444 -791h-219l-411 780h-4l-414 -780h-219l444 791l-395 725h203l381 -719h4l378 719h205z" />
    <glyph glyph-name="Y" unicode="Y" horiz-adv-x="1351" 
d="M1167 1516h195l-766 -1516h-195l283 567h-170l-481 949h207l462 -932h5z" />
    <glyph glyph-name="Z" unicode="Z" horiz-adv-x="1363" 
d="M104 143h1190v-143h-1212v334l1145 1034v4h-1118v144h1140v-334l-1145 -1035v-4z" />
    <glyph glyph-name="bracketleft" unicode="[" horiz-adv-x="608" 
d="M569 1489h-288v-1872h288v-88h-385v2048h385v-88z" />
    <glyph glyph-name="backslash" unicode="\" horiz-adv-x="831" 
d="M145 1638l631 -1896l-88 -29l-631 1897z" />
    <glyph glyph-name="bracketright" unicode="]" horiz-adv-x="608" 
d="M424 1577v-2048h-385v88h289v1872h-289v88h385z" />
    <glyph glyph-name="asciicircum" unicode="^" horiz-adv-x="1064" 
d="M629 1475l358 -752h-102l-350 739h-5l-350 -739h-104l358 752h195z" />
    <glyph glyph-name="underscore" unicode="_" horiz-adv-x="1124" 
d="M78 -145h969v-80h-969v80z" />
    <glyph glyph-name="grave" unicode="`" horiz-adv-x="466" 
d="M82 1497l356 -192l-51 -95l-362 183z" />
    <glyph glyph-name="a" unicode="a" 
d="M909 1014h168v-1014h-168v334h-4q0 -166 -100 -260t-275 -94q-203 0 -316.5 139.5t-113.5 388.5q0 248 114 387t316 139q175 0 275 -93.5t100 -258.5h4v332zM596 119q154 0 240 104t86 285t-86 285t-240 104q-153 0 -238.5 -103t-85.5 -286q0 -185 85 -287t239 -102z" />
    <glyph glyph-name="b" unicode="b" 
d="M705 1034q203 0 317.5 -139.5t114.5 -386.5q0 -249 -114.5 -388.5t-317.5 -139.5q-175 0 -274 94t-99 260h-4v-334h-168v1577h168v-895h4q0 166 99 259t274 93zM639 119q154 0 240 102.5t86 286.5q0 183 -86 286t-240 103q-153 0 -239.5 -104t-86.5 -285t86.5 -285
t239.5 -104z" />
    <glyph glyph-name="c" unicode="c" horiz-adv-x="1136" 
d="M590 -20q-231 0 -361.5 139.5t-130.5 388.5q0 247 130.5 386.5t361.5 139.5q186 0 307 -93t158 -263h-168q-34 105 -110 162t-187 57q-151 0 -235.5 -103t-84.5 -286q0 -184 84.5 -286.5t235.5 -102.5q118 0 196 62t107 177h168q-34 -181 -156 -279.5t-315 -98.5z" />
    <glyph glyph-name="d" unicode="d" 
d="M909 1577h168v-1577h-168v334h-4q0 -166 -100 -260t-275 -94q-203 0 -316.5 139.5t-113.5 388.5q0 248 114 387t316 139q175 0 275 -93.5t100 -258.5h4v895zM596 119q154 0 240 104t86 285t-86 285t-240 104q-153 0 -238.5 -103t-85.5 -286q0 -185 85 -287t239 -102z" />
    <glyph glyph-name="e" unicode="e" horiz-adv-x="1134" 
d="M1038 506v-25h-774q6 -174 86.5 -271t218.5 -97q123 0 203 64.5t100 178.5h166q-25 -178 -148.5 -277t-320.5 -99q-222 0 -346.5 138.5t-124.5 387.5q0 250 124.5 389t346.5 139t345.5 -139t123.5 -389zM569 901q-131 0 -211 -88.5t-92 -247.5h604q-12 160 -91 248
t-210 88z" />
    <glyph glyph-name="f" unicode="f" horiz-adv-x="757" 
d="M598 1458q-111 0 -169 -56t-58 -159v-229h358v-125h-346v-889h-168v889h-164v125h311v4q-74 40 -116.5 109t-42.5 153q0 150 95.5 233.5t264.5 83.5q118 0 203 -43l-23 -131q-60 35 -145 35z" />
    <glyph glyph-name="g" unicode="g" 
d="M909 1014h168v-1037q0 -221 -128 -345t-355 -124q-204 0 -328 100t-139 277l160 17q9 -120 90.5 -188t216.5 -68q149 0 232 84t83 235v373h-4q0 -166 -100 -260t-275 -94q-202 0 -316 139t-114 387q0 247 113.5 385.5t316.5 138.5q175 0 275 -93.5t100 -258.5h4v332z
M596 123q154 0 240 103.5t86 283.5t-86 283.5t-240 103.5t-239 -102t-85 -285t85 -285t239 -102z" />
    <glyph glyph-name="h" unicode="h" horiz-adv-x="1191" 
d="M676 1034q173 0 269.5 -106t96.5 -297v-631h-168v627q0 128 -67.5 199t-190.5 71q-136 0 -212 -90.5t-76 -251.5v-555h-168v1577h168v-911h4q0 173 91.5 270.5t252.5 97.5z" />
    <glyph glyph-name="i" unicode="i" horiz-adv-x="485" 
d="M160 1239v215h168v-215h-168zM160 0v1014h168v-1014h-168z" />
    <glyph glyph-name="j" unicode="j" horiz-adv-x="485" 
d="M160 1239v215h168v-215h-168zM160 -471v1485h168v-1485h-168z" />
    <glyph glyph-name="k" unicode="k" horiz-adv-x="1124" 
d="M528 530l590 -530h-223l-563 518h-4v-518h-168v1577h168v-1040h4l530 477h215z" />
    <glyph glyph-name="l" unicode="l" horiz-adv-x="485" 
d="M160 0v1577h168v-1577h-168z" />
    <glyph glyph-name="m" unicode="m" horiz-adv-x="1867" 
d="M1362 1034q169 0 262.5 -103.5t93.5 -289.5v-641h-168v637q0 123 -65 191.5t-182 68.5q-132 0 -206.5 -87.5t-74.5 -244.5v-565h-168v637q0 123 -65 191.5t-183 68.5q-132 0 -205 -87.5t-73 -244.5v-565h-168v1014h168v-340h4q0 170 89 265t249 95q165 0 258.5 -97.5
t93.5 -262.5h4q0 170 89 265t247 95z" />
    <glyph glyph-name="n" unicode="n" horiz-adv-x="1191" 
d="M676 1034q173 0 269.5 -106t96.5 -297v-631h-168v627q0 128 -67.5 199t-190.5 71q-136 0 -212 -90.5t-76 -251.5v-555h-168v1014h168v-348h4q0 173 91.5 270.5t252.5 97.5z" />
    <glyph glyph-name="o" unicode="o" horiz-adv-x="1191" 
d="M596 -20q-234 0 -366 139.5t-132 388.5q0 247 132 386.5t366 139.5q233 0 364.5 -139.5t131.5 -386.5q0 -249 -131.5 -388.5t-364.5 -139.5zM596 119q154 0 240 102.5t86 286.5q0 183 -86 286t-240 103t-240 -103t-86 -286q0 -184 86 -286.5t240 -102.5z" />
    <glyph glyph-name="p" unicode="p" 
d="M705 1034q203 0 317.5 -139.5t114.5 -386.5q0 -249 -114.5 -388.5t-317.5 -139.5q-175 0 -274 94t-99 260h-4v-805h-168v1485h168v-332h4q0 166 99 259t274 93zM639 117q154 0 240 103.5t86 287.5q0 183 -86 286t-240 103q-153 0 -239.5 -104t-86.5 -285t86.5 -286
t239.5 -105z" />
    <glyph glyph-name="q" unicode="q" 
d="M909 1014h168v-1485h-168v805h-4q0 -166 -100 -260t-275 -94q-203 0 -316.5 139.5t-113.5 388.5q0 248 114 387t316 139q175 0 275 -93.5t100 -258.5h4v332zM596 117q155 0 240.5 103t85.5 288q0 184 -85.5 286.5t-240.5 102.5q-153 0 -238.5 -103t-85.5 -286
q0 -185 85 -288t239 -103z" />
    <glyph glyph-name="r" unicode="r" horiz-adv-x="839" 
d="M664 1034q96 0 157 -30l-51 -158q-59 35 -149 35q-138 0 -215.5 -101t-77.5 -282v-498h-168v1014h168v-385h4q0 192 87.5 298.5t244.5 106.5z" />
    <glyph glyph-name="s" unicode="s" horiz-adv-x="1036" 
d="M516 -20q-203 0 -316.5 92t-113.5 256h162q0 -109 70.5 -169.5t197.5 -60.5q126 0 196 46t70 128q0 29 -9.5 53.5t-21.5 41.5t-38.5 32t-44.5 23.5t-57.5 18t-58.5 13.5t-65 13q-39 7 -59.5 11t-57.5 12t-57.5 15.5t-51.5 20t-48.5 26t-38 33.5t-31.5 42.5t-18.5 52.5
t-7.5 65q0 134 106 211.5t293 77.5q188 0 293.5 -88.5t105.5 -247.5h-161q0 105 -62 162.5t-176 57.5q-110 0 -172.5 -43t-62.5 -119q0 -33 16 -59t37 -41t63 -28.5t71.5 -19.5t84.5 -16q40 -7 62 -11.5t60.5 -13.5t61 -17t55 -22t51.5 -29t41 -36.5t34 -46.5t20 -58t8 -71
q0 -145 -113.5 -226t-316.5 -81z" />
    <glyph glyph-name="t" unicode="t" horiz-adv-x="768" 
d="M725 889h-346v-592q0 -85 48 -131.5t136 -46.5q78 0 146 33v-132q-85 -40 -199 -40q-141 0 -220 80.5t-79 226.5v602h-164v125h176v352h168v-86q0 -84 -43 -153t-117 -109v-4h494v-125z" />
    <glyph glyph-name="u" unicode="u" horiz-adv-x="1171" 
d="M844 1014h168v-1014h-168v348h-4q0 -173 -88.5 -270.5t-245.5 -97.5q-169 0 -262.5 106t-93.5 297v631h167v-625q0 -129 65 -200.5t183 -71.5q132 0 205.5 90.5t73.5 253.5v553z" />
    <glyph glyph-name="v" unicode="v" horiz-adv-x="1077" 
d="M846 1014h180l-326 -1014h-323l-326 1014h180l306 -1002h4z" />
    <glyph glyph-name="w" unicode="w" horiz-adv-x="1691" 
d="M1462 1014h174l-270 -1014h-303l-215 1001h-4l-215 -1001h-303l-271 1014h181l247 -1002h4l215 1002h293l213 -1002h4z" />
    <glyph glyph-name="x" unicode="x" horiz-adv-x="1095" 
d="M721 530l340 -530h-199l-313 518h-4l-314 -518h-196l338 530l-303 484h192l283 -477h4l285 477h192z" />
    <glyph glyph-name="y" unicode="y" horiz-adv-x="1077" 
d="M848 1014h180l-479 -1485h-180l153 471h-143l-326 1014h180l306 -1002h4z" />
    <glyph glyph-name="z" unicode="z" horiz-adv-x="1060" 
d="M115 127h870v-127h-893v293l832 592v4h-820v125h844v-291l-833 -592v-4z" />
    <glyph glyph-name="braceleft" unicode="{" horiz-adv-x="546" 
d="M334 762q0 -155 -137 -209q137 -58 137 -211v-592q0 -59 35 -96t92 -37v-88q-100 0 -161.5 57.5t-61.5 151.5v592q0 84 -47 130t-132 46v92q85 0 132 46t47 130v594q0 94 61.5 151.5t161.5 57.5v-88q-57 0 -92 -37t-35 -96v-594z" />
    <glyph glyph-name="bar" unicode="|" horiz-adv-x="464" 
d="M184 1577h97v-2048h-97v2048z" />
    <glyph glyph-name="braceright" unicode="}" horiz-adv-x="546" 
d="M309 774q0 -85 46.5 -130.5t131.5 -45.5v-92q-85 0 -131.5 -45.5t-46.5 -130.5v-592q0 -94 -61.5 -151.5t-161.5 -57.5v88q57 0 92 37t35 96v592q0 153 137 211q-137 54 -137 209v594q0 59 -35 96t-92 37v88q100 0 161.5 -57.5t61.5 -151.5v-594z" />
    <glyph glyph-name="asciitilde" unicode="~" horiz-adv-x="1208" 
d="M836 391q-64 0 -118.5 16t-93.5 39t-76.5 46t-83 39t-95.5 16q-66 0 -106 -43.5t-46 -120.5h-80q2 119 64 184.5t174 65.5q64 0 118.5 -16t93.5 -39t76.5 -46t83 -39t95.5 -16q66 0 105.5 43.5t45.5 120.5h78q-2 -119 -63.5 -184.5t-171.5 -65.5z" />
    <glyph glyph-name="uni00A0" unicode="&#xa0;" horiz-adv-x="487" 
 />
    <glyph glyph-name="exclamdown" unicode="&#xa1;" horiz-adv-x="497" 
d="M145 1014h205v-193h-205v193zM328 621h-156l-10 -1092h176z" />
    <glyph glyph-name="cent" unicode="&#xa2;" horiz-adv-x="1142" 
d="M1063 616q-32 -168 -141.5 -266t-280.5 -110v-240h-94v240q-211 14 -329 152t-118 374q0 234 118 372t329 152v226h94v-226q166 -12 274 -104t142 -250h-168q-29 93 -92.5 149t-155.5 68v-774q98 13 163 74t91 163h168zM272 766q0 -170 72 -271t203 -116v774
q-131 -15 -203 -116.5t-72 -270.5z" />
    <glyph glyph-name="sterling" unicode="&#xa3;" horiz-adv-x="1271" 
d="M141 143h1045v-143h-1090v133q130 85 184 185.5t54 224.5q0 45 -17 104h-196v90h164q-5 11 -35 81t-40 97t-23 79.5t-13 95.5q0 190 130 297.5t360 107.5q226 0 358.5 -128.5t144.5 -358.5h-170q-9 160 -96 249t-235 89q-143 0 -224.5 -69.5t-81.5 -193.5q0 -40 12 -88.5
t25.5 -81.5t39 -91t36.5 -85h463v-90h-432q14 -58 14 -98q0 -265 -377 -402v-4z" />
    <glyph glyph-name="currency" unicode="&#xa4;" horiz-adv-x="1153" 
d="M981 690q0 -157 -74 -264l119 -123l-61 -65l-119 120q-105 -82 -268 -82q-166 0 -267 84l-121 -120l-63 63l121 123q-72 104 -72 264q0 158 72 262l-119 123l61 66l121 -121q101 84 267 84q161 0 266 -82l121 119l63 -64l-121 -123q74 -103 74 -264zM578 358
q145 0 226 87.5t81 244.5t-81 244.5t-226 87.5t-226.5 -87.5t-81.5 -244.5t81.5 -244.5t226.5 -87.5z" />
    <glyph glyph-name="yen" unicode="&#xa5;" horiz-adv-x="1433" 
d="M1380 1516l-475 -943h307v-88h-352l-61 -120h413v-89h-458l-140 -276h-194l137 276h-321v89h366l60 120h-426v88h292l-477 943h207l463 -932h4l461 932h194z" />
    <glyph glyph-name="brokenbar" unicode="&#xa6;" horiz-adv-x="464" 
d="M184 1577h97v-819h-97v819zM184 348h97v-819h-97v819z" />
    <glyph glyph-name="section" unicode="&#xa7;" horiz-adv-x="1378" 
d="M805 86q219 0 340 -63.5t121 -178.5q0 -159 -151 -247.5t-421 -88.5q-269 0 -427 133t-171 371h174q9 -167 122.5 -260.5t305.5 -93.5q185 0 287 57.5t102 161.5q0 98 -102 153.5t-285 55.5q-266 0 -414.5 124t-148.5 347q0 199 120 320.5t339 144.5v4q-217 0 -338 64
t-121 178q0 155 137 242t381 87q255 0 406 -127t164 -354h-174q-7 158 -111.5 245t-282.5 87q-161 0 -251.5 -55.5t-90.5 -155.5q0 -99 101.5 -154t283.5 -55q267 0 416.5 -124t149.5 -347q0 -199 -120.5 -320.5t-340.5 -144.5v-6zM315 557q0 -154 101.5 -239t283.5 -85
q183 0 285 85t102 239q0 152 -102 237t-285 85q-179 0 -282 -85t-103 -237z" />
    <glyph glyph-name="dieresis" unicode="&#xa8;" horiz-adv-x="763" 
d="M139 1239v215h162v-215h-162zM465 1239v215h160v-215h-160z" />
    <glyph glyph-name="copyright" unicode="&#xa9;" horiz-adv-x="1740" 
d="M870 -20q-361 0 -562.5 205.5t-201.5 572.5t201.5 572.5t562.5 205.5q359 0 561.5 -205.5t202.5 -572.5t-202.5 -572.5t-561.5 -205.5zM870 63q315 0 491.5 184t176.5 511t-176.5 510.5t-491.5 183.5t-491 -183.5t-176 -510.5t176 -511t491 -184zM877 391q-158 0 -247 98
t-89 271q0 175 89 272.5t247 97.5q123 0 205 -64.5t110 -182.5h-92q-24 81 -81 125.5t-142 44.5q-115 0 -179.5 -77.5t-64.5 -215.5q0 -137 64.5 -214t179.5 -77q90 0 148.5 46t80.5 132h92q-23 -121 -107.5 -188.5t-213.5 -67.5z" />
    <glyph glyph-name="ordfeminine" unicode="&#xaa;" horiz-adv-x="847" 
d="M578 1516h129v-613h-129v205h-3q0 -102 -58.5 -159.5t-162.5 -57.5q-120 0 -187 84t-67 233q0 151 67 235.5t187 84.5q104 0 162.5 -57.5t58.5 -159.5h3v205zM410 995q82 0 129 57.5t47 155.5q0 99 -46.5 157t-129.5 58q-84 0 -130.5 -56.5t-46.5 -158.5
q0 -100 46.5 -156.5t130.5 -56.5z" />
    <glyph glyph-name="guillemotleft" unicode="&#xab;" horiz-adv-x="880" 
d="M84 512l262 395h103l-259 -395l259 -395h-103zM412 512l262 395h102l-258 -395l258 -395h-102z" />
    <glyph glyph-name="logicalnot" unicode="&#xac;" horiz-adv-x="1071" 
d="M139 690h783v-356h-95v276h-688v80z" />
    <glyph glyph-name="uni00AD" unicode="&#xad;" horiz-adv-x="825" 
d="M139 555h549v-80h-549v80z" />
    <glyph glyph-name="registered" unicode="&#xae;" horiz-adv-x="1007" 
d="M504 1597q190 0 296.5 -104t106.5 -289q0 -186 -106.5 -290.5t-296.5 -104.5q-192 0 -299 104.5t-107 290.5q0 185 107 289t299 104zM504 874q157 0 245.5 87.5t88.5 242.5t-88.5 242.5t-245.5 87.5t-245.5 -87.5t-88.5 -242.5t88.5 -242.5t245.5 -87.5zM524 1159
q63 0 90 -45l68 -108h-74l-92 153h-102v-153h-68v399h178q69 0 107.5 -32t38.5 -89q0 -58 -38.5 -89.5t-107.5 -31.5v-4zM414 1210h112q34 0 53 19t19 53q0 32 -19 50t-53 18h-112v-140z" />
    <glyph glyph-name="macron" unicode="&#xaf;" horiz-adv-x="667" 
d="M45 1409h578v-125h-578v125z" />
    <glyph glyph-name="degree" unicode="&#xb0;" horiz-adv-x="659" 
d="M330 1143q-114 0 -177 60t-63 167t63 167t177 60t176.5 -59.5t62.5 -167.5t-62.5 -167.5t-176.5 -59.5zM330 1243q54 0 85 33.5t31 93.5t-31 93.5t-85 33.5q-55 0 -86 -33.5t-31 -93.5t31 -93.5t86 -33.5z" />
    <glyph glyph-name="plusminus" unicode="&#xb1;" horiz-adv-x="1038" 
d="M565 690h346v-82h-346v-325h-94v325h-344v82h344v328h94v-328zM127 25v81h784v-81h-784z" />
    <glyph glyph-name="uni00B2" unicode="&#xb2;" horiz-adv-x="759" 
d="M106 840h596v-107h-645v101q226 71 353 208t127 310q0 90 -43.5 141t-118.5 51q-78 0 -125 -58.5t-51 -162.5h-131q9 157 90 244.5t219 87.5q145 0 224 -80.5t79 -226.5q0 -201 -152 -335t-422 -169v-4z" />
    <glyph glyph-name="uni00B3" unicode="&#xb3;" horiz-adv-x="755" 
d="M373 1247q149 0 233 -68t84 -188q0 -128 -85.5 -199t-239.5 -71q-139 0 -221.5 78.5t-90.5 218.5h129q5 -88 52.5 -138.5t130.5 -50.5q88 0 137 43t49 119q0 74 -51.5 117t-143.5 43h-24v98q91 11 141.5 52.5t50.5 105.5q0 66 -42 102.5t-117 36.5q-73 0 -117 -50.5
t-49 -139.5h-129q9 140 90 219.5t217 79.5q134 0 210.5 -55.5t76.5 -151.5q0 -92 -79 -144.5t-218 -52.5v-4h6z" />
    <glyph glyph-name="acute" unicode="&#xb4;" horiz-adv-x="477" 
d="M385 1497l57 -104l-362 -183l-51 95z" />
    <glyph glyph-name="paragraph" unicode="&#xb6;" horiz-adv-x="1398" 
d="M1194 1577v-2048h-145v1917h-316v-1917h-145v1917q-175 0 -274 -85t-99 -237q0 -128 69 -210.5t191 -102.5v-141q-197 19 -307.5 139t-110.5 315q0 214 140 333.5t391 119.5h606z" />
    <glyph glyph-name="periodcentered" unicode="&#xb7;" horiz-adv-x="479" 
d="M137 629h205v-195h-205v195z" />
    <glyph glyph-name="cedilla" unicode="&#xb8;" horiz-adv-x="540" 
d="M223 -492q-99 0 -182 46v88q74 -48 166 -48q73 0 114 28.5t41 78.5q0 39 -27 61.5t-73 22.5q-74 3 -119 -49l-69 49q34 39 90.5 62.5t116.5 23.5q98 0 154.5 -44t56.5 -122q0 -93 -71.5 -145t-197.5 -52z" />
    <glyph glyph-name="uni00B9" unicode="&#xb9;" horiz-adv-x="471" 
d="M213 1642h135v-909h-135v866h-4q0 -95 -46 -147.5t-128 -52.5v117q84 0 131 33t47 93z" />
    <glyph glyph-name="ordmasculine" unicode="&#xba;" horiz-adv-x="808" 
d="M406 891q-146 0 -228 84t-82 233q0 151 82 235.5t228 84.5q145 0 226 -84.5t81 -235.5q0 -149 -81 -233t-226 -84zM406 995q83 0 129.5 56.5t46.5 156.5q0 101 -46.5 158t-129.5 57q-84 0 -130.5 -56.5t-46.5 -158.5q0 -100 46.5 -156.5t130.5 -56.5z" />
    <glyph glyph-name="guillemotright" unicode="&#xbb;" horiz-adv-x="880" 
d="M469 512l-262 -395h-103l258 395l-258 395h103zM797 512l-262 -395h-103l258 395l-258 395h103z" />
    <glyph glyph-name="onequarter" unicode="&#xbc;" horiz-adv-x="1640" 
d="M248 1497q0 -95 -46 -148t-128 -53v117q83 0 130.5 33.5t47.5 93.5h135v-909h-135v866h-4zM1133 1536l67 -51l-979 -1505l-67 51zM1581 332v-107h-119v-225h-135v225h-436v115l317 569h254v-577h119zM1327 897l-309 -561v-4h313v565h-4z" />
    <glyph glyph-name="onehalf" unicode="&#xbd;" horiz-adv-x="1632" 
d="M248 1497q0 -95 -46 -148t-128 -53v117q83 0 130.5 33.5t47.5 93.5h135v-909h-135v866h-4zM1133 1536l67 -51l-979 -1505l-67 51zM958 106h596v-106h-645v100q226 71 353 208t127 310q0 90 -43.5 141.5t-118.5 51.5q-78 0 -125 -58.5t-51 -162.5h-131q9 157 90 244.5
t219 87.5q145 0 224 -81t79 -227q0 -201 -152 -334.5t-422 -168.5v-5z" />
    <glyph glyph-name="threequarters" unicode="&#xbe;" horiz-adv-x="1912" 
d="M713 889q0 -128 -86 -199.5t-240 -71.5q-139 0 -221 78.5t-90 218.5h129q5 -89 52 -138.5t130 -49.5q88 0 137 43t49 119q0 74 -51.5 117t-142.5 43h-25v98q91 11 142 52.5t51 105.5q0 66 -42.5 102.5t-117.5 36.5q-73 0 -117 -51t-49 -140h-129q9 140 90 219.5t217 79.5
q134 0 210.5 -55t76.5 -151q0 -92 -79 -144.5t-218 -52.5v-4h6q149 0 233.5 -68t84.5 -188zM1405 1536l68 -51l-979 -1505l-68 51zM1851 332v-107h-118v-225h-136v225h-436v115l318 569h254v-577h118zM1597 897l-309 -561v-4h314v565h-5z" />
    <glyph glyph-name="questiondown" unicode="&#xbf;" horiz-adv-x="1079" 
d="M700 821h-204v193h204v-193zM1026 -4q-12 -230 -139 -359t-342 -129q-219 0 -343 112.5t-124 309.5q0 154 113.5 336.5t314.5 354.5h166v-5q-193 -178 -301.5 -356t-108.5 -319q0 -132 76 -207.5t211 -75.5q137 0 218.5 89t90.5 249h168z" />
    <glyph glyph-name="Agrave" unicode="&#xc0;" horiz-adv-x="1402" 
d="M834 1806l-52 -94l-362 182l57 105zM1186 0l-127 389h-725l-127 -389h-180l520 1516h311l518 -1516h-190zM381 532h633l-314 967h-4z" />
    <glyph glyph-name="Aacute" unicode="&#xc1;" horiz-adv-x="1402" 
d="M979 1894l-363 -182l-51 94l357 193zM1186 0l-127 389h-725l-127 -389h-180l520 1516h311l518 -1516h-190zM381 532h633l-314 967h-4z" />
    <glyph glyph-name="Acircumflex" unicode="&#xc2;" horiz-adv-x="1402" 
d="M698 1978l-176 -309h-143l194 328h256l195 -328h-143l-179 309h-4zM1186 0l-127 389h-725l-127 -389h-180l520 1516h311l518 -1516h-190zM381 532h633l-314 967h-4z" />
    <glyph glyph-name="Atilde" unicode="&#xc3;" horiz-adv-x="1402" 
d="M547 1855q-46 0 -75.5 -37.5t-33.5 -101.5h-92q1 127 57 198t154 71q47 0 91.5 -20.5t72.5 -44.5t63.5 -44.5t67.5 -20.5q46 0 74.5 36.5t34.5 101.5h92q-2 -126 -58 -197.5t-155 -71.5q-47 0 -90.5 20.5t-71.5 45t-63.5 45t-67.5 20.5zM1186 0l-127 389h-725l-127 -389
h-180l520 1516h311l518 -1516h-190zM381 532h633l-314 967h-4z" />
    <glyph glyph-name="Adieresis" unicode="&#xc4;" horiz-adv-x="1402" 
d="M618 1956v-215h-161v215h161zM942 1956v-215h-160v215h160zM1186 0l-127 389h-725l-127 -389h-180l520 1516h311l518 -1516h-190zM381 532h633l-314 967h-4z" />
    <glyph glyph-name="Aring" unicode="&#xc5;" horiz-adv-x="1402" 
d="M700 1632q-113 0 -177 60.5t-64 165.5q0 106 63.5 165.5t177.5 59.5t177 -59.5t63 -165.5q0 -105 -63.5 -165.5t-176.5 -60.5zM700 1989q-60 0 -93.5 -34.5t-33.5 -96.5q0 -61 33.5 -95t93.5 -34q59 0 92 34t33 95t-33 96t-92 35zM1186 0l-127 389h-725l-127 -389h-180
l520 1516h311l518 -1516h-190zM381 532h633l-314 967h-4z" />
    <glyph glyph-name="AE" unicode="&#xc6;" horiz-adv-x="2181" 
d="M1319 143h774v-143h-936l-74 389h-716l-179 -389h-190l713 1516h1360v-144h-1008l111 -534h825v-144h-795zM432 532h625l-180 967h-5z" />
    <glyph glyph-name="Ccedilla" unicode="&#xc7;" horiz-adv-x="1458" 
d="M1374 555q-41 -270 -203 -422.5t-409 -152.5q-308 0 -480.5 205.5t-172.5 572.5t172.5 572.5t480.5 205.5q248 0 409.5 -148t202.5 -413h-170q-37 194 -154 302.5t-288 108.5q-223 0 -347 -166t-124 -462q0 -297 124 -463t347 -166q172 0 288.5 112.5t153.5 313.5h170z
M715 -492q-100 0 -183 46v88q74 -48 166 -48q73 0 114.5 28.5t41.5 78.5q0 39 -27 61.5t-73 22.5q-74 3 -119 -49l-70 49q34 39 90.5 62.5t116.5 23.5q98 0 154.5 -44t56.5 -122q0 -93 -71 -145t-197 -52z" />
    <glyph glyph-name="Egrave" unicode="&#xc8;" horiz-adv-x="1280" 
d="M811 1806l-51 -94l-363 182l58 105zM369 143h823v-143h-997v1516h974v-144h-800v-518h729v-143h-729v-568z" />
    <glyph glyph-name="Eacute" unicode="&#xc9;" horiz-adv-x="1280" 
d="M956 1894l-362 -182l-51 94l356 193zM369 143h823v-143h-997v1516h974v-144h-800v-518h729v-143h-729v-568z" />
    <glyph glyph-name="Ecircumflex" unicode="&#xca;" horiz-adv-x="1280" 
d="M676 1978l-176 -309h-144l195 328h256l194 -328h-143l-178 309h-4zM369 143h823v-143h-997v1516h974v-144h-800v-518h729v-143h-729v-568z" />
    <glyph glyph-name="Edieresis" unicode="&#xcb;" horiz-adv-x="1280" 
d="M596 1956v-215h-162v215h162zM920 1956v-215h-160v215h160zM369 143h823v-143h-997v1516h974v-144h-800v-518h729v-143h-729v-568z" />
    <glyph glyph-name="Igrave" unicode="&#xcc;" horiz-adv-x="563" 
d="M59 1999l357 -193l-51 -94l-363 182zM195 0v1516h174v-1516h-174z" />
    <glyph glyph-name="Iacute" unicode="&#xcd;" horiz-adv-x="563" 
d="M504 1999l57 -105l-362 -182l-52 94zM195 0v1516h174v-1516h-174z" />
    <glyph glyph-name="Icircumflex" unicode="&#xce;" horiz-adv-x="563" 
d="M410 1997l194 -328h-143l-178 309h-4l-177 -309h-143l195 328h256zM195 0v1516h174v-1516h-174z" />
    <glyph glyph-name="Idieresis" unicode="&#xcf;" horiz-adv-x="563" 
d="M39 1741v215h162v-215h-162zM365 1741v215h159v-215h-159zM195 0v1516h174v-1516h-174z" />
    <glyph glyph-name="Eth" unicode="&#xd0;" horiz-adv-x="1476" 
d="M651 1516q340 0 530.5 -201t190.5 -557t-190.5 -557t-530.5 -201h-438v729h-190v80h190v707h438zM664 143q249 0 387.5 162.5t138.5 452.5t-138.5 452t-387.5 162h-277v-563h297v-80h-297v-586h277z" />
    <glyph glyph-name="Ntilde" unicode="&#xd1;" horiz-adv-x="1505" 
d="M600 1855q-46 0 -74.5 -37t-33.5 -102h-93q1 127 57 198t154 71q47 0 91.5 -20.5t72.5 -44.5t63.5 -44.5t67.5 -20.5q46 0 74.5 36.5t34.5 101.5h92q-2 -126 -58 -197.5t-155 -71.5q-47 0 -90.5 20.5t-71.5 45t-63.5 45t-67.5 20.5zM1145 1516h166v-1516h-307l-642 1499
h-4l7 -1499h-170v1516h311l639 -1500h4z" />
    <glyph glyph-name="Ograve" unicode="&#xd2;" horiz-adv-x="1531" 
d="M545 1999l356 -193l-51 -94l-363 182zM766 -20q-309 0 -483 205.5t-174 572.5t174 572.5t483 205.5q310 0 483.5 -205.5t173.5 -572.5t-173.5 -572.5t-483.5 -205.5zM766 129q224 0 350.5 166.5t126.5 462.5t-126.5 462t-350.5 166q-225 0 -350 -165.5t-125 -462.5
t125 -463t350 -166z" />
    <glyph glyph-name="Oacute" unicode="&#xd3;" horiz-adv-x="1531" 
d="M989 1999l58 -105l-363 -182l-51 94zM766 -20q-309 0 -483 205.5t-174 572.5t174 572.5t483 205.5q310 0 483.5 -205.5t173.5 -572.5t-173.5 -572.5t-483.5 -205.5zM766 129q224 0 350.5 166.5t126.5 462.5t-126.5 462t-350.5 166q-225 0 -350 -165.5t-125 -462.5
t125 -463t350 -166z" />
    <glyph glyph-name="Ocircumflex" unicode="&#xd4;" horiz-adv-x="1531" 
d="M766 1978l-176 -309h-144l195 328h256l195 -328h-144l-178 309h-4zM766 1536q310 0 483.5 -205.5t173.5 -572.5t-173.5 -572.5t-483.5 -205.5q-309 0 -483 205.5t-174 572.5t174 572.5t483 205.5zM766 129q224 0 350.5 166.5t126.5 462.5t-126.5 462t-350.5 166
q-225 0 -350 -165.5t-125 -462.5t125 -463t350 -166z" />
    <glyph glyph-name="Otilde" unicode="&#xd5;" horiz-adv-x="1531" 
d="M907 1724q-47 0 -90.5 20.5t-71.5 45t-63.5 45t-67.5 20.5q-46 0 -74.5 -37t-33.5 -102h-92q1 127 57 198t154 71q47 0 91.5 -20.5t72.5 -44.5t63.5 -44.5t67.5 -20.5q45 0 73.5 36.5t34.5 101.5h92q-2 -126 -58 -197.5t-155 -71.5zM766 -20q-309 0 -483 205.5
t-174 572.5t174 572.5t483 205.5q310 0 483.5 -205.5t173.5 -572.5t-173.5 -572.5t-483.5 -205.5zM766 129q224 0 350.5 166.5t126.5 462.5t-126.5 462t-350.5 166q-225 0 -350 -165.5t-125 -462.5t125 -463t350 -166z" />
    <glyph glyph-name="Odieresis" unicode="&#xd6;" horiz-adv-x="1531" 
d="M524 1741v215h162v-215h-162zM850 1741v215h160v-215h-160zM766 -20q-309 0 -483 205.5t-174 572.5t174 572.5t483 205.5q310 0 483.5 -205.5t173.5 -572.5t-173.5 -572.5t-483.5 -205.5zM766 129q224 0 350.5 166.5t126.5 462.5t-126.5 462t-350.5 166
q-225 0 -350 -165.5t-125 -462.5t125 -463t350 -166z" />
    <glyph glyph-name="multiply" unicode="&#xd7;" horiz-adv-x="974" 
d="M856 807l-305 -303l305 -303l-65 -66l-306 305l-305 -305l-61 64l303 305l-303 303l61 65l307 -305l304 305z" />
    <glyph glyph-name="Oslash" unicode="&#xd8;" horiz-adv-x="1531" 
d="M1202 1380q221 -206 221 -622q0 -367 -173.5 -572.5t-483.5 -205.5q-203 0 -354 94l-90 -150l-86 53l96 158q-108 101 -165.5 259.5t-57.5 363.5q0 367 174 572.5t483 205.5q205 0 356 -94l90 149l86 -53zM291 758q0 -310 131 -471l614 1013q-112 86 -270 86
q-225 0 -350 -165.5t-125 -462.5zM766 129q224 0 350.5 166.5t126.5 462.5q0 302 -133 471l-614 -1016q113 -84 270 -84z" />
    <glyph glyph-name="Ugrave" unicode="&#xd9;" horiz-adv-x="1464" 
d="M512 1999l356 -193l-51 -94l-362 182zM1120 510v1006h166v-994q0 -255 -147 -398.5t-408 -143.5q-260 0 -406.5 143.5t-146.5 398.5v994h176v-1006q0 -180 100.5 -280.5t280.5 -100.5q182 0 283.5 100.5t101.5 280.5z" />
    <glyph glyph-name="Uacute" unicode="&#xda;" horiz-adv-x="1464" 
d="M956 1999l58 -105l-363 -182l-51 94zM1120 510v1006h166v-994q0 -255 -147 -398.5t-408 -143.5q-260 0 -406.5 143.5t-146.5 398.5v994h176v-1006q0 -180 100.5 -280.5t280.5 -100.5q182 0 283.5 100.5t101.5 280.5z" />
    <glyph glyph-name="Ucircumflex" unicode="&#xdb;" horiz-adv-x="1464" 
d="M733 1978l-176 -309h-143l194 328h256l195 -328h-144l-178 309h-4zM1120 1516h166v-994q0 -255 -147 -398.5t-408 -143.5q-260 0 -406.5 143.5t-146.5 398.5v994h176v-1006q0 -180 100.5 -280.5t280.5 -100.5q182 0 283.5 100.5t101.5 280.5v1006z" />
    <glyph glyph-name="Udieresis" unicode="&#xdc;" horiz-adv-x="1464" 
d="M492 1741v215h161v-215h-161zM817 1741v215h160v-215h-160zM1120 510v1006h166v-994q0 -255 -147 -398.5t-408 -143.5q-260 0 -406.5 143.5t-146.5 398.5v994h176v-1006q0 -180 100.5 -280.5t280.5 -100.5q182 0 283.5 100.5t101.5 280.5z" />
    <glyph glyph-name="Yacute" unicode="&#xdd;" horiz-adv-x="1351" 
d="M981 1894l-363 -182l-51 94l357 193zM1167 1516h195l-766 -1516h-195l283 567h-170l-481 949h207l462 -932h5z" />
    <glyph glyph-name="Thorn" unicode="&#xde;" horiz-adv-x="1316" 
d="M715 1239q239 0 373.5 -123.5t134.5 -343.5t-134.5 -344.5t-375.5 -124.5h-344v-303h-174v1516h174v-277h346zM723 446q150 0 234.5 86.5t84.5 239.5t-83.5 238.5t-233.5 85.5h-356v-650h354z" />
    <glyph glyph-name="germandbls" unicode="&#xdf;" horiz-adv-x="1273" 
d="M627 936q261 0 407 -124.5t146 -346.5q0 -228 -129.5 -356.5t-358.5 -128.5q-112 0 -188 24v131q72 -16 158 -16q164 0 255 92.5t91 257.5q0 166 -102 258t-285 92h-70v121q164 7 255 78.5t91 193.5q0 116 -70 181t-196 65q-143 0 -223 -78.5t-80 -220.5v-1159h-168v1153
q0 211 124 327.5t347 116.5q207 0 322.5 -88.5t115.5 -246.5q0 -152 -116.5 -237t-325.5 -85v-4z" />
    <glyph glyph-name="agrave" unicode="&#xe0;" 
d="M731 1305l-51 -95l-363 183l58 104zM909 1014h168v-1014h-168v334h-4q0 -166 -100 -260t-275 -94q-203 0 -316.5 139.5t-113.5 388.5q0 248 114 387t316 139q175 0 275 -93.5t100 -258.5h4v332zM596 119q154 0 240 104t86 285t-86 285t-240 104q-153 0 -238.5 -103
t-85.5 -286q0 -185 85 -287t239 -102z" />
    <glyph glyph-name="aacute" unicode="&#xe1;" 
d="M877 1393l-363 -183l-51 95l356 192zM909 1014h168v-1014h-168v334h-4q0 -166 -100 -260t-275 -94q-203 0 -316.5 139.5t-113.5 388.5q0 248 114 387t316 139q175 0 275 -93.5t100 -258.5h4v332zM596 119q154 0 240 104t86 285t-86 285t-240 104q-153 0 -238.5 -103
t-85.5 -286q0 -185 85 -287t239 -102z" />
    <glyph glyph-name="acircumflex" unicode="&#xe2;" 
d="M594 1477l-176 -310h-144l195 328h256l195 -328h-144l-178 310h-4zM909 1014h168v-1014h-168v334h-4q0 -166 -100 -260t-275 -94q-203 0 -316.5 139.5t-113.5 388.5q0 248 114 387t316 139q175 0 275 -93.5t100 -258.5h4v332zM596 119q154 0 240 104t86 285t-86 285
t-240 104q-153 0 -238.5 -103t-85.5 -286q0 -185 85 -287t239 -102z" />
    <glyph glyph-name="atilde" unicode="&#xe3;" 
d="M444 1354q-46 0 -74.5 -37.5t-33.5 -102.5h-92q1 127 57 198t154 71q47 0 91.5 -20t72.5 -44.5t63.5 -44.5t67.5 -20q46 0 74 36t34 101h92q-2 -126 -58 -197t-155 -71q-47 0 -90.5 20.5t-71.5 45t-63.5 45t-67.5 20.5zM909 1014h168v-1014h-168v334h-4q0 -166 -100 -260
t-275 -94q-203 0 -316.5 139.5t-113.5 388.5q0 248 114 387t316 139q175 0 275 -93.5t100 -258.5h4v332zM596 119q154 0 240 104t86 285t-86 285t-240 104q-153 0 -238.5 -103t-85.5 -286q0 -185 85 -287t239 -102z" />
    <glyph glyph-name="adieresis" unicode="&#xe4;" 
d="M516 1454v-215h-162v215h162zM840 1454v-215h-160v215h160zM909 1014h168v-1014h-168v334h-4q0 -166 -100 -260t-275 -94q-203 0 -316.5 139.5t-113.5 388.5q0 248 114 387t316 139q175 0 275 -93.5t100 -258.5h4v332zM596 119q154 0 240 104t86 285t-86 285t-240 104
q-153 0 -238.5 -103t-85.5 -286q0 -185 85 -287t239 -102z" />
    <glyph glyph-name="aring" unicode="&#xe5;" 
d="M598 1130q-113 0 -177.5 60.5t-64.5 165.5q0 106 64 165.5t178 59.5t177 -59.5t63 -165.5q0 -105 -63.5 -165.5t-176.5 -60.5zM598 1487q-60 0 -93.5 -34.5t-33.5 -96.5q0 -61 33.5 -95t93.5 -34q59 0 92 34t33 95t-33 96t-92 35zM909 1014h168v-1014h-168v334h-4
q0 -166 -100 -260t-275 -94q-203 0 -316.5 139.5t-113.5 388.5q0 248 114 387t316 139q175 0 275 -93.5t100 -258.5h4v332zM596 119q154 0 240 104t86 285t-86 285t-240 104q-153 0 -238.5 -103t-85.5 -286q0 -185 85 -287t239 -102z" />
    <glyph glyph-name="ae" unicode="&#xe6;" horiz-adv-x="1935" 
d="M1837 506v-25h-774q6 -175 86.5 -271.5t220.5 -96.5q121 0 201 64.5t102 178.5h164q-20 -178 -127.5 -277t-279.5 -99q-165 0 -257 91t-92 255h-4v-326h-168v334h-4q0 -166 -100 -260t-275 -94q-203 0 -316.5 139.5t-113.5 388.5q0 248 114 387t316 139q175 0 275 -93.5
t100 -258.5h4v332h168v-326h4q0 163 92.5 254.5t256.5 91.5q193 0 300 -138.5t107 -389.5zM1370 901q-132 0 -212.5 -88.5t-92.5 -247.5h606q-12 160 -91 248t-210 88zM596 119q154 0 240 104t86 285t-86 285t-240 104q-153 0 -238.5 -103t-85.5 -286q0 -185 85 -287
t239 -102z" />
    <glyph glyph-name="ccedilla" unicode="&#xe7;" horiz-adv-x="1136" 
d="M590 -20q-231 0 -361.5 139.5t-130.5 388.5q0 247 130.5 386.5t361.5 139.5q186 0 307 -93t158 -263h-168q-34 105 -110 162t-187 57q-151 0 -235.5 -103t-84.5 -286q0 -184 84.5 -286.5t235.5 -102.5q118 0 196 62t107 177h168q-34 -181 -156 -279.5t-315 -98.5z
M545 -492q-100 0 -183 46v88q74 -48 166 -48q73 0 114.5 28.5t41.5 78.5q0 39 -27 61.5t-73 22.5q-74 3 -119 -49l-70 49q34 39 90.5 62.5t116.5 23.5q98 0 154.5 -44t56.5 -122q0 -93 -71 -145t-197 -52z" />
    <glyph glyph-name="egrave" unicode="&#xe8;" horiz-adv-x="1134" 
d="M705 1305l-52 -95l-362 183l57 104zM1038 506v-25h-774q6 -174 86.5 -271t218.5 -97q123 0 203 64.5t100 178.5h166q-25 -178 -148.5 -277t-320.5 -99q-222 0 -346.5 138.5t-124.5 387.5q0 250 124.5 389t346.5 139t345.5 -139t123.5 -389zM569 901q-131 0 -211 -88.5
t-92 -247.5h604q-12 160 -91 248t-210 88z" />
    <glyph glyph-name="eacute" unicode="&#xe9;" horiz-adv-x="1134" 
d="M848 1393l-363 -183l-51 95l357 192zM1038 506v-25h-774q6 -174 86.5 -271t218.5 -97q123 0 203 64.5t100 178.5h166q-25 -178 -148.5 -277t-320.5 -99q-222 0 -346.5 138.5t-124.5 387.5q0 250 124.5 389t346.5 139t345.5 -139t123.5 -389zM569 901q-131 0 -211 -88.5
t-92 -247.5h604q-12 160 -91 248t-210 88z" />
    <glyph glyph-name="ecircumflex" unicode="&#xea;" horiz-adv-x="1134" 
d="M567 1477l-176 -310h-143l194 328h256l195 -328h-143l-179 310h-4zM1038 506v-25h-774q6 -174 86.5 -271t218.5 -97q123 0 203 64.5t100 178.5h166q-25 -178 -148.5 -277t-320.5 -99q-222 0 -346.5 138.5t-124.5 387.5q0 250 124.5 389t346.5 139t345.5 -139t123.5 -389z
M569 901q-131 0 -211 -88.5t-92 -247.5h604q-12 160 -91 248t-210 88z" />
    <glyph glyph-name="edieresis" unicode="&#xeb;" horiz-adv-x="1134" 
d="M487 1454v-215h-161v215h161zM811 1454v-215h-160v215h160zM1038 506v-25h-774q6 -174 86.5 -271t218.5 -97q123 0 203 64.5t100 178.5h166q-25 -178 -148.5 -277t-320.5 -99q-222 0 -346.5 138.5t-124.5 387.5q0 250 124.5 389t346.5 139t345.5 -139t123.5 -389z
M569 901q-131 0 -211 -88.5t-92 -247.5h604q-12 160 -91 248t-210 88z" />
    <glyph glyph-name="igrave" unicode="&#xec;" horiz-adv-x="485" 
d="M20 1497l357 -192l-51 -95l-363 183zM160 1014h168v-1014h-168v1014z" />
    <glyph glyph-name="iacute" unicode="&#xed;" horiz-adv-x="485" 
d="M465 1497l57 -104l-362 -183l-51 95zM160 1014h168v-1014h-168v1014z" />
    <glyph glyph-name="icircumflex" unicode="&#xee;" horiz-adv-x="485" 
d="M371 1495l194 -328h-143l-178 310h-4l-177 -310h-143l195 328h256zM160 0v1014h168v-1014h-168z" />
    <glyph glyph-name="idieresis" unicode="&#xef;" horiz-adv-x="485" 
d="M0 1239v215h162v-215h-162zM326 1239v215h159v-215h-159zM160 1014h168v-1014h-168v1014z" />
    <glyph glyph-name="eth" unicode="&#xf0;" horiz-adv-x="1212" 
d="M668 1401q228 -142 326 -343.5t98 -502.5q0 -270 -131.5 -422.5t-364.5 -152.5q-235 0 -366.5 138t-131.5 384q0 244 115 381t319 137q183 0 287.5 -124t104.5 -341h4q0 293 -90 471.5t-310 302.5l-284 -147l-58 92l224 117q-79 35 -224 86l43 120q191 -63 326 -133
l256 133l57 -92zM596 119q154 0 240 101t86 282t-86 282t-240 101t-240 -101t-86 -282t86 -282t240 -101z" />
    <glyph glyph-name="ntilde" unicode="&#xf1;" horiz-adv-x="1191" 
d="M449 1354q-46 0 -75 -37.5t-34 -102.5h-92q1 127 57 198t154 71q47 0 91.5 -20t72.5 -44.5t63.5 -44.5t67.5 -20q46 0 74 36t34 101h92q-2 -126 -58 -197t-155 -71q-47 0 -90.5 20.5t-71 45t-63 45t-67.5 20.5zM676 1034q173 0 269.5 -106t96.5 -297v-631h-168v627
q0 128 -67.5 199t-190.5 71q-136 0 -212 -90.5t-76 -251.5v-555h-168v1014h168v-348h4q0 173 91.5 270.5t252.5 97.5z" />
    <glyph glyph-name="ograve" unicode="&#xf2;" horiz-adv-x="1191" 
d="M373 1497l356 -192l-51 -95l-363 183zM596 -20q-234 0 -366 139.5t-132 388.5q0 247 132 386.5t366 139.5q233 0 364.5 -139.5t131.5 -386.5q0 -249 -131.5 -388.5t-364.5 -139.5zM596 119q154 0 240 102.5t86 286.5q0 183 -86 286t-240 103t-240 -103t-86 -286
q0 -184 86 -286.5t240 -102.5z" />
    <glyph glyph-name="oacute" unicode="&#xf3;" horiz-adv-x="1191" 
d="M817 1497l57 -104l-362 -183l-51 95zM596 -20q-234 0 -366 139.5t-132 388.5q0 247 132 386.5t366 139.5q233 0 364.5 -139.5t131.5 -386.5q0 -249 -131.5 -388.5t-364.5 -139.5zM596 119q154 0 240 102.5t86 286.5q0 183 -86 286t-240 103t-240 -103t-86 -286
q0 -184 86 -286.5t240 -102.5z" />
    <glyph glyph-name="ocircumflex" unicode="&#xf4;" horiz-adv-x="1191" 
d="M594 1477l-176 -310h-144l195 328h256l195 -328h-144l-178 310h-4zM596 1034q233 0 364.5 -139.5t131.5 -386.5q0 -249 -131.5 -388.5t-364.5 -139.5q-234 0 -366 139.5t-132 388.5q0 247 132 386.5t366 139.5zM596 119q154 0 240 102.5t86 286.5q0 183 -86 286t-240 103
t-240 -103t-86 -286q0 -184 86 -286.5t240 -102.5z" />
    <glyph glyph-name="otilde" unicode="&#xf5;" horiz-adv-x="1191" 
d="M735 1223q-47 0 -90.5 20.5t-71.5 45t-63.5 45t-67.5 20.5q-46 0 -74.5 -37.5t-33.5 -102.5h-92q1 127 57 198t154 71q47 0 91.5 -20t72.5 -44.5t63.5 -44.5t67.5 -20q46 0 74 36t34 101h92q-2 -126 -58 -197t-155 -71zM596 -20q-234 0 -366 139.5t-132 388.5
q0 247 132 386.5t366 139.5q233 0 364.5 -139.5t131.5 -386.5q0 -249 -131.5 -388.5t-364.5 -139.5zM596 119q154 0 240 102.5t86 286.5q0 183 -86 286t-240 103t-240 -103t-86 -286q0 -184 86 -286.5t240 -102.5z" />
    <glyph glyph-name="odieresis" unicode="&#xf6;" horiz-adv-x="1191" 
d="M352 1239v215h162v-215h-162zM678 1239v215h160v-215h-160zM596 -20q-234 0 -366 139.5t-132 388.5q0 247 132 386.5t366 139.5q233 0 364.5 -139.5t131.5 -386.5q0 -249 -131.5 -388.5t-364.5 -139.5zM596 119q154 0 240 102.5t86 286.5q0 183 -86 286t-240 103
t-240 -103t-86 -286q0 -184 86 -286.5t240 -102.5z" />
    <glyph glyph-name="divide" unicode="&#xf7;" horiz-adv-x="1058" 
d="M530 741q-32 0 -50.5 17.5t-18.5 48.5q0 32 18.5 49.5t50.5 17.5q70 0 70 -67q0 -31 -18.5 -48.5t-51.5 -17.5zM139 475v82h783v-82h-783zM530 158q-33 0 -51 16.5t-18 46.5q0 32 18.5 51t50.5 19q33 0 51.5 -18.5t18.5 -51.5q0 -63 -70 -63z" />
    <glyph glyph-name="oslash" unicode="&#xf8;" horiz-adv-x="1191" 
d="M928 926q164 -139 164 -418q0 -249 -131.5 -388.5t-364.5 -139.5q-147 0 -254 55l-76 -115l-78 51l76 115q-166 144 -166 422q0 247 132 386.5t366 139.5q146 0 254 -57l76 115l78 -50zM270 508q0 -181 84 -285l414 629q-73 45 -172 45q-154 0 -240 -103t-86 -286z
M596 119q154 0 240 102.5t86 286.5q0 182 -84 283l-412 -629q70 -43 170 -43z" />
    <glyph glyph-name="ugrave" unicode="&#xf9;" horiz-adv-x="1171" 
d="M715 1305l-51 -95l-363 183l57 104zM844 1014h168v-1014h-168v348h-4q0 -173 -88.5 -270.5t-245.5 -97.5q-169 0 -262.5 106t-93.5 297v631h167v-625q0 -129 65 -200.5t183 -71.5q132 0 205.5 90.5t73.5 253.5v553z" />
    <glyph glyph-name="uacute" unicode="&#xfa;" horiz-adv-x="1171" 
d="M860 1393l-362 -183l-52 95l357 192zM844 1014h168v-1014h-168v348h-4q0 -173 -88.5 -270.5t-245.5 -97.5q-169 0 -262.5 106t-93.5 297v631h167v-625q0 -129 65 -200.5t183 -71.5q132 0 205.5 90.5t73.5 253.5v553z" />
    <glyph glyph-name="ucircumflex" unicode="&#xfb;" horiz-adv-x="1171" 
d="M580 1477l-177 -310h-143l195 328h256l194 -328h-143l-178 310h-4zM844 1014h168v-1014h-168v348h-4q0 -173 -88.5 -270.5t-245.5 -97.5q-169 0 -262.5 106t-93.5 297v631h167v-625q0 -129 65 -200.5t183 -71.5q132 0 205.5 90.5t73.5 253.5v553z" />
    <glyph glyph-name="udieresis" unicode="&#xfc;" horiz-adv-x="1171" 
d="M500 1454v-215h-162v215h162zM823 1454v-215h-159v215h159zM844 1014h168v-1014h-168v348h-4q0 -173 -88.5 -270.5t-245.5 -97.5q-169 0 -262.5 106t-93.5 297v631h167v-625q0 -129 65 -200.5t183 -71.5q132 0 205.5 90.5t73.5 253.5v553z" />
    <glyph glyph-name="yacute" unicode="&#xfd;" horiz-adv-x="1077" 
d="M823 1393l-362 -183l-51 95l356 192zM848 1014h180l-479 -1485h-180l153 471h-143l-326 1014h180l306 -1002h4z" />
    <glyph glyph-name="thorn" unicode="&#xfe;" 
d="M705 1034q203 0 317.5 -139.5t114.5 -386.5q0 -249 -114.5 -388.5t-317.5 -139.5q-175 0 -274 89.5t-99 247.5h-4v-788h-168v2048h168v-881h4q0 158 99 248t274 90zM639 117q154 0 240 103.5t86 287.5q0 183 -86 286t-240 103q-153 0 -239.5 -104t-86.5 -285t86.5 -286
t239.5 -105z" />
    <glyph glyph-name="ydieresis" unicode="&#xff;" horiz-adv-x="1077" 
d="M463 1454v-215h-162v215h162zM786 1454v-215h-159v215h159zM848 1014h180l-479 -1485h-180l153 471h-143l-326 1014h180l306 -1002h4z" />
    <glyph glyph-name="Amacron" unicode="&#x100;" horiz-adv-x="1402" 
d="M989 1911v-125h-577v125h577zM1186 0l-127 389h-725l-127 -389h-180l520 1516h311l518 -1516h-190zM381 532h633l-314 967h-4z" />
    <glyph glyph-name="amacron" unicode="&#x101;" 
d="M885 1409v-125h-578v125h578zM909 1014h168v-1014h-168v334h-4q0 -166 -100 -260t-275 -94q-203 0 -316.5 139.5t-113.5 388.5q0 248 114 387t316 139q175 0 275 -93.5t100 -258.5h4v332zM596 119q154 0 240 104t86 285t-86 285t-240 104q-153 0 -238.5 -103t-85.5 -286
q0 -185 85 -287t239 -102z" />
    <glyph glyph-name="Abreve" unicode="&#x102;" horiz-adv-x="1402" 
d="M700 1663q-139 0 -218 88.5t-79 245.5h125q0 -104 46 -163.5t126 -59.5t126 59.5t46 163.5h125q0 -157 -79 -245.5t-218 -88.5zM1186 0l-127 389h-725l-127 -389h-180l520 1516h311l518 -1516h-190zM381 532h633l-314 967h-4z" />
    <glyph glyph-name="abreve" unicode="&#x103;" 
d="M598 1161q-139 0 -218 88.5t-79 245.5h125q0 -104 46 -163.5t126 -59.5t126 59.5t46 163.5h125q0 -157 -79 -245.5t-218 -88.5zM909 1014h168v-1014h-168v334h-4q0 -166 -100 -260t-275 -94q-203 0 -316.5 139.5t-113.5 388.5q0 248 114 387t316 139q175 0 275 -93.5
t100 -258.5h4v332zM596 119q154 0 240 104t86 285t-86 285t-240 104q-153 0 -238.5 -103t-85.5 -286q0 -185 85 -287t239 -102z" />
    <glyph glyph-name="Aogonek" unicode="&#x104;" horiz-adv-x="1402" 
d="M1241 -385q79 0 152 47v-106q-81 -48 -191 -48q-82 0 -128 39t-46 111q0 67 49.5 146.5t127.5 135.5t151 56v4h-170l-127 389h-725l-127 -389h-180l520 1516h311l518 -1516h-2q-94 -85 -147 -169t-53 -150t67 -66zM381 532h633l-314 967h-4z" />
    <glyph glyph-name="aogonek" unicode="&#x105;" 
d="M944 -385q79 0 152 47v-106q-81 -48 -191 -48q-82 0 -128 39t-46 111q0 67 49.5 146.5t127.5 135.5t151 56v4h-150v334h-4q0 -166 -100 -260t-275 -94q-203 0 -316.5 139.5t-113.5 388.5q0 248 114 387t316 139q175 0 275 -93.5t100 -258.5h4v332h168v-1014
q-94 -85 -147 -169t-53 -150t67 -66zM596 119q154 0 240 104t86 285t-86 285t-240 104q-153 0 -238.5 -103t-85.5 -286q0 -185 85 -287t239 -102z" />
    <glyph glyph-name="Cacute" unicode="&#x106;" horiz-adv-x="1458" 
d="M983 1999l57 -105l-362 -182l-51 94zM1374 555q-41 -270 -203 -422.5t-409 -152.5q-308 0 -480.5 205.5t-172.5 572.5t172.5 572.5t480.5 205.5q248 0 409.5 -148t202.5 -413h-170q-37 194 -154 302.5t-288 108.5q-223 0 -347 -166t-124 -462q0 -297 124 -463t347 -166
q172 0 288.5 112.5t153.5 313.5h170z" />
    <glyph glyph-name="cacute" unicode="&#x107;" horiz-adv-x="1136" 
d="M811 1497l57 -104l-362 -183l-51 95zM590 -20q-231 0 -361.5 139.5t-130.5 388.5q0 247 130.5 386.5t361.5 139.5q186 0 307 -93t158 -263h-168q-34 105 -110 162t-187 57q-151 0 -235.5 -103t-84.5 -286q0 -184 84.5 -286.5t235.5 -102.5q118 0 196 62t107 177h168
q-34 -181 -156 -279.5t-315 -98.5z" />
    <glyph glyph-name="Cdotaccent" unicode="&#x10a;" horiz-adv-x="1458" 
d="M676 1741v215h168v-215h-168zM1374 555q-41 -270 -203 -422.5t-409 -152.5q-308 0 -480.5 205.5t-172.5 572.5t172.5 572.5t480.5 205.5q248 0 409.5 -148t202.5 -413h-170q-37 194 -154 302.5t-288 108.5q-223 0 -347 -166t-124 -462q0 -297 124 -463t347 -166
q172 0 288.5 112.5t153.5 313.5h170z" />
    <glyph glyph-name="cdotaccent" unicode="&#x10b;" horiz-adv-x="1136" 
d="M506 1239v215h168v-215h-168zM590 -20q-231 0 -361.5 139.5t-130.5 388.5q0 247 130.5 386.5t361.5 139.5q186 0 307 -93t158 -263h-168q-34 105 -110 162t-187 57q-151 0 -235.5 -103t-84.5 -286q0 -184 84.5 -286.5t235.5 -102.5q118 0 196 62t107 177h168
q-34 -181 -156 -279.5t-315 -98.5z" />
    <glyph glyph-name="Ccaron" unicode="&#x10c;" horiz-adv-x="1458" 
d="M633 1669l-195 328h144l176 -309h4l178 309h143l-194 -328h-256zM762 129q172 0 288.5 112.5t153.5 313.5h170q-41 -270 -203 -422.5t-409 -152.5q-308 0 -480.5 205.5t-172.5 572.5t172.5 572.5t480.5 205.5q248 0 409.5 -148t202.5 -413h-170q-37 194 -154 302.5
t-288 108.5q-223 0 -347 -166t-124 -462q0 -297 124 -463t347 -166z" />
    <glyph glyph-name="ccaron" unicode="&#x10d;" horiz-adv-x="1136" 
d="M463 1167l-195 328h144l176 -309h4l178 309h143l-194 -328h-256zM893 358h168q-34 -181 -156 -279.5t-315 -98.5q-231 0 -361.5 139.5t-130.5 388.5q0 247 130.5 386.5t361.5 139.5q186 0 307 -93t158 -263h-168q-34 105 -110 162t-187 57q-151 0 -235.5 -103t-84.5 -286
q0 -184 84.5 -286.5t235.5 -102.5q118 0 196 62t107 177z" />
    <glyph glyph-name="Dcaron" unicode="&#x10e;" horiz-adv-x="1458" 
d="M508 1669l-195 328h144l176 -309h4l178 309h143l-194 -328h-256zM633 1516q340 0 530.5 -201t190.5 -557t-190.5 -557t-530.5 -201h-438v1516h438zM645 143q249 0 387.5 162.5t138.5 452.5t-138.5 452t-387.5 162h-276v-1229h276z" />
    <glyph glyph-name="dcaron" unicode="&#x10f;" horiz-adv-x="1286" 
d="M1282 1597l131 -34l-113 -424l-116 35zM909 682v895h168v-1577h-168v334h-4q0 -166 -100 -260t-275 -94q-203 0 -316.5 139.5t-113.5 388.5q0 248 114 387t316 139q175 0 275 -93.5t100 -258.5h4zM596 119q154 0 240 104t86 285t-86 285t-240 104q-153 0 -238.5 -103
t-85.5 -286q0 -185 85 -287t239 -102z" />
    <glyph glyph-name="Dcroat" unicode="&#x110;" horiz-adv-x="1476" 
d="M651 1516q340 0 530.5 -201t190.5 -557t-190.5 -557t-530.5 -201h-438v729h-190v80h190v707h438zM664 143q249 0 387.5 162.5t138.5 452.5t-138.5 452t-387.5 162h-277v-563h297v-80h-297v-586h277z" />
    <glyph glyph-name="dcroat" unicode="&#x111;" 
d="M1221 1346v-80h-144v-1266h-168v334h-4q0 -166 -100 -260t-275 -94q-203 0 -316.5 139.5t-113.5 388.5q0 248 114 387t316 139q175 0 275 -93.5t100 -258.5h4v584h-350v80h350v231h168v-231h144zM596 119q154 0 240 104t86 285t-86 285t-240 104q-153 0 -238.5 -103
t-85.5 -286q0 -185 85 -287t239 -102z" />
    <glyph glyph-name="Emacron" unicode="&#x112;" horiz-adv-x="1280" 
d="M967 1911v-125h-578v125h578zM369 143h823v-143h-997v1516h974v-144h-800v-518h729v-143h-729v-568z" />
    <glyph glyph-name="emacron" unicode="&#x113;" horiz-adv-x="1134" 
d="M858 1409v-125h-577v125h577zM1038 506v-25h-774q6 -174 86.5 -271t218.5 -97q123 0 203 64.5t100 178.5h166q-25 -178 -148.5 -277t-320.5 -99q-222 0 -346.5 138.5t-124.5 387.5q0 250 124.5 389t346.5 139t345.5 -139t123.5 -389zM569 901q-131 0 -211 -88.5
t-92 -247.5h604q-12 160 -91 248t-210 88z" />
    <glyph glyph-name="Edotaccent" unicode="&#x116;" horiz-adv-x="1280" 
d="M762 1956v-215h-168v215h168zM369 143h823v-143h-997v1516h974v-144h-800v-518h729v-143h-729v-568z" />
    <glyph glyph-name="edotaccent" unicode="&#x117;" horiz-adv-x="1134" 
d="M653 1454v-215h-168v215h168zM1038 506v-25h-774q6 -174 86.5 -271t218.5 -97q123 0 203 64.5t100 178.5h166q-25 -178 -148.5 -277t-320.5 -99q-222 0 -346.5 138.5t-124.5 387.5q0 250 124.5 389t346.5 139t345.5 -139t123.5 -389zM569 901q-131 0 -211 -88.5
t-92 -247.5h604q-12 160 -91 248t-210 88z" />
    <glyph glyph-name="Eogonek" unicode="&#x118;" horiz-adv-x="1280" 
d="M977 0q-94 -85 -147.5 -169t-53.5 -150t68 -66q78 0 151 47v-106q-81 -48 -190 -48q-82 0 -128 39t-46 111q0 67 49.5 146.5t127 135.5t150.5 56v4h-763v1516h974v-144h-800v-518h729v-143h-729v-568h823v-143h-215z" />
    <glyph glyph-name="eogonek" unicode="&#x119;" horiz-adv-x="1134" 
d="M1038 506v-25h-774q6 -174 86.5 -271t218.5 -97q123 0 203 64.5t100 178.5h166q-27 -199 -176 -297q-118 -100 -185 -200t-67 -178q0 -31 18.5 -48.5t51.5 -17.5q76 0 149 47v-106q-81 -48 -188 -48q-83 0 -128.5 39t-45.5 111q0 86 101 192t243 177v2q-104 -49 -242 -49
q-222 0 -346.5 138.5t-124.5 387.5q0 250 124.5 389t346.5 139t345.5 -139t123.5 -389zM569 901q-131 0 -211 -88.5t-92 -247.5h604q-12 160 -91 248t-210 88z" />
    <glyph glyph-name="Ecaron" unicode="&#x11a;" horiz-adv-x="1280" 
d="M551 1669l-195 328h144l176 -309h4l178 309h143l-194 -328h-256zM369 143h823v-143h-997v1516h974v-144h-800v-518h729v-143h-729v-568z" />
    <glyph glyph-name="ecaron" unicode="&#x11b;" horiz-adv-x="1134" 
d="M442 1167l-194 328h143l176 -309h4l179 309h143l-195 -328h-256zM1038 506v-25h-774q6 -174 86.5 -271t218.5 -97q123 0 203 64.5t100 178.5h166q-25 -178 -148.5 -277t-320.5 -99q-222 0 -346.5 138.5t-124.5 387.5q0 250 124.5 389t346.5 139t345.5 -139t123.5 -389z
M569 901q-131 0 -211 -88.5t-92 -247.5h604q-12 160 -91 248t-210 88z" />
    <glyph glyph-name="Gbreve" unicode="&#x11e;" horiz-adv-x="1505" 
d="M766 1663q-139 0 -218 88.5t-79 245.5h125q0 -104 46 -163.5t126 -59.5t126 59.5t46 163.5h125q0 -157 -79 -245.5t-218 -88.5zM729 784h649v-784h-166v551h-4q0 -269 -139.5 -420t-388.5 -151q-263 0 -416 207t-153 571q0 367 173 572.5t482 205.5q242 0 400.5 -145
t199.5 -402h-170q-37 187 -151 292t-279 105q-224 0 -349.5 -166t-125.5 -462t121 -462.5t338 -166.5q213 0 333 138t125 386h-479v131z" />
    <glyph glyph-name="gbreve" unicode="&#x11f;" 
d="M621 1161q-139 0 -218 88.5t-79 245.5h125q0 -104 46 -163.5t126 -59.5t126 59.5t46 163.5h125q0 -157 -79 -245.5t-218 -88.5zM909 1014h168v-1037q0 -221 -128 -345t-355 -124q-204 0 -328 100t-139 277l160 17q9 -120 90.5 -188t216.5 -68q149 0 232 84t83 235v373h-4
q0 -166 -100 -260t-275 -94q-202 0 -316 139t-114 387q0 247 113.5 385.5t316.5 138.5q175 0 275 -93.5t100 -258.5h4v332zM596 123q154 0 240 103.5t86 283.5t-86 283.5t-240 103.5t-239 -102t-85 -285t85 -285t239 -102z" />
    <glyph glyph-name="Gdotaccent" unicode="&#x120;" horiz-adv-x="1505" 
d="M848 1956v-215h-168v215h168zM729 784h649v-784h-166v551h-4q0 -269 -139.5 -420t-388.5 -151q-263 0 -416 207t-153 571q0 367 173 572.5t482 205.5q242 0 400.5 -145t199.5 -402h-170q-37 187 -151 292t-279 105q-224 0 -349.5 -166t-125.5 -462t121 -462.5t338 -166.5
q213 0 333 138t125 386h-479v131z" />
    <glyph glyph-name="gdotaccent" unicode="&#x121;" 
d="M705 1454v-215h-168v215h168zM909 1014h168v-1037q0 -221 -128 -345t-355 -124q-204 0 -328 100t-139 277l160 17q9 -120 90.5 -188t216.5 -68q149 0 232 84t83 235v373h-4q0 -166 -100 -260t-275 -94q-202 0 -316 139t-114 387q0 247 113.5 385.5t316.5 138.5
q175 0 275 -93.5t100 -258.5h4v332zM596 123q154 0 240 103.5t86 283.5t-86 283.5t-240 103.5t-239 -102t-85 -285t85 -285t239 -102z" />
    <glyph glyph-name="Gcommaaccent" unicode="&#x122;" horiz-adv-x="1505" 
d="M729 784h649v-784h-166v551h-4q0 -269 -139.5 -420t-388.5 -151q-263 0 -416 207t-153 571q0 367 173 572.5t482 205.5q242 0 400.5 -145t199.5 -402h-170q-37 187 -151 292t-279 105q-224 0 -349.5 -166t-125.5 -462t121 -462.5t338 -166.5q213 0 333 138t125 386h-479
v131zM682 -287v133h170v-116q0 -84 -40 -135t-130 -87v66q77 20 113.5 53t44.5 86h-158z" />
    <glyph glyph-name="gcommaaccent" unicode="&#x123;" 
d="M707 1378v-143h-170v121q0 76 40.5 121.5t129.5 70.5v-65q-78 -12 -115 -37.5t-43 -67.5h158zM909 1014h168v-1037q0 -221 -128 -345t-355 -124q-204 0 -328 100t-139 277l160 17q9 -120 90.5 -188t216.5 -68q149 0 232 84t83 235v373h-4q0 -166 -100 -260t-275 -94
q-202 0 -316 139t-114 387q0 247 113.5 385.5t316.5 138.5q175 0 275 -93.5t100 -258.5h4v332zM596 123q154 0 240 103.5t86 283.5t-86 283.5t-240 103.5t-239 -102t-85 -285t85 -285t239 -102z" />
    <glyph glyph-name="Hbar" unicode="&#x126;" horiz-adv-x="1509" 
d="M1442 1237v-80h-129v-1157h-174v698h-768v-698h-174v1157h-127v80h127v279h174v-279h768v279h174v-279h129zM1139 842v315h-768v-315h768z" />
    <glyph glyph-name="hbar" unicode="&#x127;" horiz-adv-x="1191" 
d="M676 1034q173 0 269.5 -106t96.5 -297v-631h-168v627q0 128 -67.5 199t-190.5 71q-136 0 -212 -90.5t-76 -251.5v-555h-168v1266h-146v80h146v231h168v-231h348v-80h-348v-600h4q0 173 91.5 270.5t252.5 97.5z" />
    <glyph glyph-name="Imacron" unicode="&#x12a;" horiz-adv-x="563" 
d="M-6 1911h577v-125h-577v125zM195 0v1516h174v-1516h-174z" />
    <glyph glyph-name="imacron" unicode="&#x12b;" horiz-adv-x="485" 
d="M-45 1409h577v-125h-577v125zM160 1014h168v-1014h-168v1014z" />
    <glyph glyph-name="Iogonek" unicode="&#x12e;" horiz-adv-x="563" 
d="M236 -385q78 0 151 47v-106q-81 -48 -190 -48q-82 0 -128 39t-46 111q0 67 49.5 146.5t127 135.5t150.5 56v4h-155v1516h174v-1516q-94 -85 -147.5 -169t-53.5 -150t68 -66z" />
    <glyph glyph-name="iogonek" unicode="&#x12f;" horiz-adv-x="485" 
d="M328 1454v-215h-168v215h168zM193 -385q78 0 151 47v-106q-81 -48 -190 -48q-82 0 -128 39t-46 111q0 67 49.5 146.5t127 135.5t150.5 56v4h-147v1014h168v-1014h-2q-94 -85 -147.5 -169t-53.5 -150t68 -66z" />
    <glyph glyph-name="Idotaccent" unicode="&#x130;" horiz-adv-x="563" 
d="M197 1741v215h168v-215h-168zM195 0v1516h174v-1516h-174z" />
    <glyph glyph-name="dotlessi" unicode="&#x131;" horiz-adv-x="485" 
d="M160 1014h168v-1014h-168v1014z" />
    <glyph glyph-name="Kcommaaccent" unicode="&#x136;" horiz-adv-x="1411" 
d="M578 791l841 -791h-239l-811 780h-4v-780h-170v1516h170v-719h4l753 719h224zM649 -287v133h170v-116q0 -84 -40 -135t-130 -87v66q77 20 113.5 53t44.5 86h-158z" />
    <glyph glyph-name="kcommaaccent" unicode="&#x137;" horiz-adv-x="1124" 
d="M528 530l590 -530h-223l-563 518h-4v-518h-168v1577h168v-1040h4l530 477h215zM475 -287v133h170v-116q0 -84 -40 -135t-130 -87v66q77 20 113.5 53t44.5 86h-158z" />
    <glyph glyph-name="Lacute" unicode="&#x139;" horiz-adv-x="1107" 
d="M561 1894l-362 -182l-52 94l357 193zM369 147h698v-147h-872v1516h174v-1369z" />
    <glyph glyph-name="lacute" unicode="&#x13a;" horiz-adv-x="485" 
d="M465 2060l57 -104l-362 -182l-51 94zM160 0v1577h168v-1577h-168z" />
    <glyph glyph-name="Lcommaaccent" unicode="&#x13b;" horiz-adv-x="1107" 
d="M369 147h698v-147h-872v1516h174v-1369zM473 -287v133h170v-116q0 -84 -40 -135t-130 -87v66q77 20 113.5 53t44.5 86h-158z" />
    <glyph glyph-name="lcommaaccent" unicode="&#x13c;" horiz-adv-x="485" 
d="M328 1577v-1577h-168v1577h168zM160 -154h170v-116q0 -84 -40 -135t-130 -87v66q77 20 113 53t44 86h-157v133z" />
    <glyph glyph-name="Lcaron" unicode="&#x13d;" horiz-adv-x="1114" 
d="M768 1501l-113 -424l-118 35l100 424zM369 147h698v-147h-872v1516h174v-1369z" />
    <glyph glyph-name="lcaron" unicode="&#x13e;" horiz-adv-x="567" 
d="M532 1597l132 -34l-115 -424l-117 35zM160 0v1577h168v-1577h-168z" />
    <glyph glyph-name="Lslash" unicode="&#x141;" horiz-adv-x="1120" 
d="M381 147h698v-147h-872v633l-139 -90v96l139 90v787h174v-678l332 213v-97l-332 -213v-594z" />
    <glyph glyph-name="lslash" unicode="&#x142;" horiz-adv-x="589" 
d="M512 1034v-100l-131 -105v-829h-168v707l-133 -107v102l133 107v768h168v-647z" />
    <glyph glyph-name="Nacute" unicode="&#x143;" horiz-adv-x="1505" 
d="M1032 1894l-362 -182l-52 94l357 193zM1145 1516h166v-1516h-307l-642 1499h-4l7 -1499h-170v1516h311l639 -1500h4z" />
    <glyph glyph-name="nacute" unicode="&#x144;" horiz-adv-x="1191" 
d="M881 1393l-363 -183l-51 95l356 192zM676 1034q173 0 269.5 -106t96.5 -297v-631h-168v627q0 128 -67.5 199t-190.5 71q-136 0 -212 -90.5t-76 -251.5v-555h-168v1014h168v-348h4q0 173 91.5 270.5t252.5 97.5z" />
    <glyph glyph-name="Ncommaaccent" unicode="&#x145;" horiz-adv-x="1505" 
d="M1145 1516h166v-1516h-307l-642 1499h-4l7 -1499h-170v1516h311l639 -1500h4zM670 -287v133h170v-116q0 -84 -40 -135t-130 -87v66q77 20 113 53t44 86h-157z" />
    <glyph glyph-name="ncommaaccent" unicode="&#x146;" horiz-adv-x="1191" 
d="M676 1034q173 0 269.5 -106t96.5 -297v-631h-168v627q0 128 -67.5 199t-190.5 71q-136 0 -212 -90.5t-76 -251.5v-555h-168v1014h168v-348h4q0 173 91.5 270.5t252.5 97.5zM518 -287v133h170v-116q0 -84 -40 -135t-130 -87v66q77 20 113.5 53t44.5 86h-158z" />
    <glyph glyph-name="Ncaron" unicode="&#x147;" horiz-adv-x="1505" 
d="M627 1669l-195 328h143l177 -309h4l178 309h143l-194 -328h-256zM1145 1516h166v-1516h-307l-642 1499h-4l7 -1499h-170v1516h311l639 -1500h4z" />
    <glyph glyph-name="ncaron" unicode="&#x148;" horiz-adv-x="1191" 
d="M473 1167l-194 328h143l176 -309h4l178 309h144l-195 -328h-256zM676 1034q173 0 269.5 -106t96.5 -297v-631h-168v627q0 128 -67.5 199t-190.5 71q-136 0 -212 -90.5t-76 -251.5v-555h-168v1014h168v-348h4q0 173 91.5 270.5t252.5 97.5z" />
    <glyph glyph-name="Eng" unicode="&#x14a;" horiz-adv-x="1505" 
d="M1145 1516h166v-1553q0 -214 -112.5 -334.5t-313.5 -120.5q-114 0 -201 43l47 136q63 -29 141 -29q125 0 195 76.5t70 212.5v53h-133l-642 1499h-4l7 -1499h-170v1516h311l639 -1500h4z" />
    <glyph glyph-name="eng" unicode="&#x14b;" horiz-adv-x="1191" 
d="M676 1034q173 0 269.5 -106t96.5 -297v-744q0 -180 -95 -279.5t-265 -99.5q-132 0 -223 54l49 121q69 -35 160 -35q101 0 153.5 61.5t52.5 173.5v744q0 128 -67.5 199t-190.5 71q-136 0 -212 -90.5t-76 -251.5v-555h-168v1014h168v-348h4q0 173 91.5 270.5t252.5 97.5z
" />
    <glyph glyph-name="Omacron" unicode="&#x14c;" horiz-adv-x="1531" 
d="M479 1911h578v-125h-578v125zM766 -20q-309 0 -483 205.5t-174 572.5t174 572.5t483 205.5q310 0 483.5 -205.5t173.5 -572.5t-173.5 -572.5t-483.5 -205.5zM766 129q224 0 350.5 166.5t126.5 462.5t-126.5 462t-350.5 166q-225 0 -350 -165.5t-125 -462.5t125 -463
t350 -166z" />
    <glyph glyph-name="omacron" unicode="&#x14d;" horiz-adv-x="1191" 
d="M307 1409h578v-125h-578v125zM596 -20q-234 0 -366 139.5t-132 388.5q0 247 132 386.5t366 139.5q233 0 364.5 -139.5t131.5 -386.5q0 -249 -131.5 -388.5t-364.5 -139.5zM596 119q154 0 240 102.5t86 286.5q0 183 -86 286t-240 103t-240 -103t-86 -286q0 -184 86 -286.5
t240 -102.5z" />
    <glyph glyph-name="Ohungarumlaut" unicode="&#x150;" horiz-adv-x="1531" 
d="M831 2032l91 -84l-304 -273l-75 78zM1112 2032l90 -84l-303 -273l-76 78zM766 -20q-309 0 -483 205.5t-174 572.5t174 572.5t483 205.5q310 0 483.5 -205.5t173.5 -572.5t-173.5 -572.5t-483.5 -205.5zM766 129q224 0 350.5 166.5t126.5 462.5t-126.5 462t-350.5 166
q-225 0 -350 -165.5t-125 -462.5t125 -463t350 -166z" />
    <glyph glyph-name="ohungarumlaut" unicode="&#x151;" horiz-adv-x="1191" 
d="M659 1530l91 -84l-304 -272l-75 77zM940 1530l90 -84l-303 -272l-76 77zM596 -20q-234 0 -366 139.5t-132 388.5q0 247 132 386.5t366 139.5q233 0 364.5 -139.5t131.5 -386.5q0 -249 -131.5 -388.5t-364.5 -139.5zM596 119q154 0 240 102.5t86 286.5q0 183 -86 286
t-240 103t-240 -103t-86 -286q0 -184 86 -286.5t240 -102.5z" />
    <glyph glyph-name="OE" unicode="&#x152;" horiz-adv-x="2330" 
d="M1427 143h816v-143h-992v522h-4q0 -254 -144.5 -398t-400.5 -144q-278 0 -434.5 206t-156.5 572t156.5 572t434.5 206q256 0 400.5 -144.5t144.5 -398.5h4v523h969v-144h-793v-518h721v-143h-721v-568zM768 129q233 0 365.5 169t132.5 460t-132.5 459.5t-365.5 168.5
q-225 0 -351 -166.5t-126 -461.5q0 -297 126 -463t351 -166z" />
    <glyph glyph-name="oe" unicode="&#x153;" horiz-adv-x="1947" 
d="M1851 506v-25h-774q6 -175 86 -271.5t219 -96.5q123 0 203.5 64.5t100.5 178.5h165q-25 -178 -148.5 -277t-320.5 -99q-188 0 -307 100.5t-153 284.5h-4q0 -182 -102.5 -283.5t-285.5 -101.5q-203 0 -316.5 139.5t-113.5 388.5q0 248 114 387t316 139q183 0 285.5 -101.5
t102.5 -281.5h4q34 184 153 283.5t307 99.5q222 0 345.5 -139t123.5 -389zM1382 901q-132 0 -211.5 -88t-91.5 -248h604q-12 160 -91 248t-210 88zM596 119q154 0 240 104t86 285t-86 285t-240 104q-153 0 -238.5 -103t-85.5 -286q0 -185 85 -287t239 -102z" />
    <glyph glyph-name="Racute" unicode="&#x154;" horiz-adv-x="1368" 
d="M918 1894l-363 -182l-51 94l356 193zM1030 453l270 -453h-196l-379 647h-356v-647h-174v1516h540q244 0 382 -110.5t138 -307.5q0 -211 -134.5 -329t-375.5 -118v-4q78 0 155 -51t130 -143zM369 784h379q155 0 241 80t86 221q0 135 -86.5 211t-240.5 76h-379v-588z" />
    <glyph glyph-name="racute" unicode="&#x155;" horiz-adv-x="839" 
d="M690 1393l-362 -183l-52 95l357 192zM664 1034q96 0 157 -30l-51 -158q-59 35 -149 35q-138 0 -215.5 -101t-77.5 -282v-498h-168v1014h168v-385h4q0 192 87.5 298.5t244.5 106.5z" />
    <glyph glyph-name="Rcommaaccent" unicode="&#x156;" horiz-adv-x="1368" 
d="M1030 453l270 -453h-196l-379 647h-356v-647h-174v1516h540q244 0 382 -110.5t138 -307.5q0 -211 -134.5 -329t-375.5 -118v-4q78 0 155 -51t130 -143zM369 784h379q155 0 241 80t86 221q0 135 -86.5 211t-240.5 76h-379v-588zM616 -287v133h170v-116q0 -84 -40 -135
t-130 -87v66q77 20 113.5 53t44.5 86h-158z" />
    <glyph glyph-name="rcommaaccent" unicode="&#x157;" horiz-adv-x="839" 
d="M664 1034q96 0 157 -30l-51 -158q-59 35 -149 35q-138 0 -215.5 -101t-77.5 -282v-498h-168v1014h168v-385h4q0 192 87.5 298.5t244.5 106.5zM162 -287v133h170v-116q0 -84 -40 -135t-130 -87v66q77 20 113 53t44 86h-157z" />
    <glyph glyph-name="Rcaron" unicode="&#x158;" horiz-adv-x="1368" 
d="M512 1669l-195 328h144l176 -309h4l178 309h144l-195 -328h-256zM1030 453l270 -453h-196l-379 647h-356v-647h-174v1516h540q244 0 382 -110.5t138 -307.5q0 -211 -134.5 -329t-375.5 -118v-4q78 0 155 -51t130 -143zM369 784h379q155 0 241 80t86 221q0 135 -86.5 211
t-240.5 76h-379v-588z" />
    <glyph glyph-name="rcaron" unicode="&#x159;" horiz-adv-x="839" 
d="M285 1167l-195 328h143l177 -309h4l178 309h143l-194 -328h-256zM664 1034q96 0 157 -30l-51 -158q-59 35 -149 35q-138 0 -215.5 -101t-77.5 -282v-498h-168v1014h168v-385h4q0 192 87.5 298.5t244.5 106.5z" />
    <glyph glyph-name="Sacute" unicode="&#x15a;" horiz-adv-x="1355" 
d="M895 1999l57 -105l-362 -182l-51 94zM674 -20q-260 0 -414.5 142t-169.5 396h174q12 -184 120.5 -286.5t291.5 -102.5q192 0 298.5 76.5t106.5 214.5q0 47 -12.5 84.5t-33 64.5t-54 48.5t-66 35.5t-80.5 26t-86.5 19t-92.5 16q-5 1 -7 1q-55 9 -84.5 14t-81 15.5
t-81 20.5t-72 27.5t-67 36.5t-53 47.5t-43.5 61t-25.5 76t-10.5 94.5q0 204 143.5 316t399.5 112q243 0 387.5 -136.5t157.5 -379.5h-175q-9 173 -108 269.5t-268 96.5t-264 -70.5t-95 -197.5q0 -41 12 -74t30.5 -56.5t50 -42.5t63 -31t76.5 -22.5t82 -17t89 -14.5h1
q202 -32 291 -65q192 -70 240 -231q18 -59 18 -132q0 -214 -155.5 -333t-432.5 -119z" />
    <glyph glyph-name="sacute" unicode="&#x15b;" horiz-adv-x="1036" 
d="M737 1497l58 -104l-363 -183l-51 95zM516 -20q-203 0 -316.5 92t-113.5 256h162q0 -109 70.5 -169.5t197.5 -60.5q126 0 196 46t70 128q0 29 -9.5 53.5t-21.5 41.5t-38.5 32t-44.5 23.5t-57.5 18t-58.5 13.5t-65 13q-39 7 -59.5 11t-57.5 12t-57.5 15.5t-51.5 20
t-48.5 26t-38 33.5t-31.5 42.5t-18.5 52.5t-7.5 65q0 134 106 211.5t293 77.5q188 0 293.5 -88.5t105.5 -247.5h-161q0 105 -62 162.5t-176 57.5q-110 0 -172.5 -43t-62.5 -119q0 -33 16 -59t37 -41t63 -28.5t71.5 -19.5t84.5 -16q40 -7 62 -11.5t60.5 -13.5t61 -17t55 -22
t51.5 -29t41 -36.5t34 -46.5t20 -58t8 -71q0 -145 -113.5 -226t-316.5 -81z" />
    <glyph glyph-name="Scedilla" unicode="&#x15e;" horiz-adv-x="1355" 
d="M674 -20q-260 0 -414.5 142t-169.5 396h174q12 -184 120.5 -286.5t291.5 -102.5q192 0 298.5 76.5t106.5 214.5q0 47 -12.5 84.5t-33 64.5t-54 48.5t-66 35.5t-80.5 26t-86.5 19t-92.5 16q-5 1 -7 1q-55 9 -84.5 14t-81 15.5t-81 20.5t-72 27.5t-67 36.5t-53 47.5
t-43.5 61t-25.5 76t-10.5 94.5q0 204 143.5 316t399.5 112q243 0 387.5 -136.5t157.5 -379.5h-175q-9 173 -108 269.5t-268 96.5t-264 -70.5t-95 -197.5q0 -41 12 -74t30.5 -56.5t50 -42.5t63 -31t76.5 -22.5t82 -17t89 -14.5h1q202 -32 291 -65q192 -70 240 -231
q18 -59 18 -132q0 -214 -155.5 -333t-432.5 -119zM629 -492q-100 0 -183 46v88q74 -48 166 -48q73 0 114.5 28.5t41.5 78.5q0 39 -27 61.5t-73 22.5q-74 3 -119 -49l-70 49q34 39 90.5 62.5t116.5 23.5q98 0 154.5 -44t56.5 -122q0 -93 -71 -145t-197 -52z" />
    <glyph glyph-name="scedilla" unicode="&#x15f;" horiz-adv-x="1036" 
d="M516 -20q-203 0 -316.5 92t-113.5 256h162q0 -109 70.5 -169.5t197.5 -60.5q126 0 196 46t70 128q0 29 -9.5 53.5t-21.5 41.5t-38.5 32t-44.5 23.5t-57.5 18t-58.5 13.5t-65 13q-39 7 -59.5 11t-57.5 12t-57.5 15.5t-51.5 20t-48.5 26t-38 33.5t-31.5 42.5t-18.5 52.5
t-7.5 65q0 134 106 211.5t293 77.5q188 0 293.5 -88.5t105.5 -247.5h-161q0 105 -62 162.5t-176 57.5q-110 0 -172.5 -43t-62.5 -119q0 -33 16 -59t37 -41t63 -28.5t71.5 -19.5t84.5 -16q40 -7 62 -11.5t60.5 -13.5t61 -17t55 -22t51.5 -29t41 -36.5t34 -46.5t20 -58t8 -71
q0 -145 -113.5 -226t-316.5 -81zM467 -492q-99 0 -182 46v88q74 -48 166 -48q73 0 114 28.5t41 78.5q0 39 -27 61.5t-73 22.5q-74 3 -119 -49l-70 49q34 39 90.5 62.5t116.5 23.5q98 0 154.5 -44t56.5 -122q0 -93 -71 -145t-197 -52z" />
    <glyph glyph-name="Scaron" unicode="&#x160;" horiz-adv-x="1355" 
d="M547 1669l-195 328h144l176 -309h4l178 309h143l-194 -328h-256zM713 860q202 -32 291 -65q192 -70 240 -231q18 -59 18 -132q0 -214 -155.5 -333t-432.5 -119q-260 0 -414.5 142t-169.5 396h174q12 -184 120.5 -286.5t291.5 -102.5q192 0 298.5 76.5t106.5 214.5
q0 47 -12.5 84.5t-33 64.5t-54 48.5t-66 35.5t-80.5 26t-86.5 19t-92.5 16q-5 1 -7 1q-55 9 -84.5 14t-81 15.5t-81 20.5t-72 27.5t-67 36.5t-53 47.5t-43.5 61t-25.5 76t-10.5 94.5q0 204 143.5 316t399.5 112q243 0 387.5 -136.5t157.5 -379.5h-175q-9 173 -108 269.5
t-268 96.5t-264 -70.5t-95 -197.5q0 -41 12 -74t30.5 -56.5t50 -42.5t63 -31t76.5 -22.5t82 -17t89 -14.5h1z" />
    <glyph glyph-name="scaron" unicode="&#x161;" horiz-adv-x="1036" 
d="M389 1167l-194 328h143l176 -309h4l178 309h144l-195 -328h-256zM553 592q40 -7 62 -11.5t60.5 -13.5t61 -17t55 -22t51.5 -29t41 -36.5t34 -46.5t20 -58t8 -71q0 -145 -113.5 -226t-316.5 -81t-316.5 92t-113.5 256h162q0 -109 70.5 -169.5t197.5 -60.5q126 0 196 46
t70 128q0 29 -9.5 53.5t-21.5 41.5t-38.5 32t-44.5 23.5t-57.5 18t-58.5 13.5t-65 13q-39 7 -59.5 11t-57.5 12t-57.5 15.5t-51.5 20t-48.5 26t-38 33.5t-31.5 42.5t-18.5 52.5t-7.5 65q0 134 106 211.5t293 77.5q188 0 293.5 -88.5t105.5 -247.5h-161q0 105 -62 162.5
t-176 57.5q-110 0 -172.5 -43t-62.5 -119q0 -33 16 -59t37 -41t63 -28.5t71.5 -19.5t84.5 -16z" />
    <glyph glyph-name="uni0162" unicode="&#x162;" horiz-adv-x="1187" 
d="M39 1516h1110v-144h-467v-1372h-176v1372h-467v144zM606 -129q98 0 154.5 -44t56.5 -122q0 -93 -71 -145t-197 -52q-99 0 -182 46v88q74 -48 165 -48q73 0 114.5 28.5t41.5 78.5q0 39 -27 61.5t-73 22.5q-74 3 -119 -49l-70 49q34 39 90.5 62.5t116.5 23.5z" />
    <glyph glyph-name="uni0163" unicode="&#x163;" horiz-adv-x="768" 
d="M725 889h-346v-592q0 -85 48 -131.5t136 -46.5q78 0 146 33v-132q-85 -40 -199 -40q-141 0 -220 80.5t-79 226.5v602h-164v125h176v352h168v-86q0 -84 -43 -153t-117 -109v-4h494v-125zM397 -129q98 0 154.5 -44t56.5 -122q0 -93 -71 -145t-197 -52q-99 0 -182 46v88
q74 -48 166 -48q73 0 114 28.5t41 78.5q0 39 -27 61.5t-73 22.5q-74 3 -119 -49l-70 49q34 39 90.5 62.5t116.5 23.5z" />
    <glyph glyph-name="Tcaron" unicode="&#x164;" horiz-adv-x="1187" 
d="M467 1669l-195 328h144l176 -309h4l178 309h144l-195 -328h-256zM1149 1516v-144h-467v-1372h-176v1372h-467v144h1110z" />
    <glyph glyph-name="tcaron" unicode="&#x165;" horiz-adv-x="768" 
d="M731 1563l-115 -424l-116 35l100 423zM231 1018v-4h494v-125h-346v-592q0 -85 48 -131.5t136 -46.5q78 0 146 33v-132q-85 -40 -199 -40q-141 0 -220 80.5t-79 226.5v602h-164v125h176v352h168v-86q0 -84 -43 -153t-117 -109z" />
    <glyph glyph-name="Tbar" unicode="&#x166;" horiz-adv-x="1200" 
d="M1155 1372h-467v-579h244v-80h-244v-713h-176v713h-242v80h242v579h-467v144h1110v-144z" />
    <glyph glyph-name="tbar" unicode="&#x167;" horiz-adv-x="796" 
d="M741 889h-346v-334h346v-80h-346v-178q0 -85 48.5 -131.5t136.5 -46.5q77 0 145 33v-132q-85 -40 -199 -40q-141 0 -220 80.5t-79 226.5v188h-164v80h164v334h-164v125h177v352h168v-86q0 -84 -43 -153t-117 -109v-4h493v-125z" />
    <glyph glyph-name="Umacron" unicode="&#x16a;" horiz-adv-x="1464" 
d="M446 1911h578v-125h-578v125zM1120 510v1006h166v-994q0 -255 -147 -398.5t-408 -143.5q-260 0 -406.5 143.5t-146.5 398.5v994h176v-1006q0 -180 100.5 -280.5t280.5 -100.5q182 0 283.5 100.5t101.5 280.5z" />
    <glyph glyph-name="umacron" unicode="&#x16b;" horiz-adv-x="1171" 
d="M870 1409v-125h-577v125h577zM844 1014h168v-1014h-168v348h-4q0 -173 -88.5 -270.5t-245.5 -97.5q-169 0 -262.5 106t-93.5 297v631h167v-625q0 -129 65 -200.5t183 -71.5q132 0 205.5 90.5t73.5 253.5v553z" />
    <glyph glyph-name="Uring" unicode="&#x16e;" horiz-adv-x="1464" 
d="M735 1632q-113 0 -177 60.5t-64 165.5q0 106 63.5 165.5t177.5 59.5t177 -59.5t63 -165.5q0 -105 -63.5 -165.5t-176.5 -60.5zM735 1729q59 0 92 34t33 95t-33 96t-92 35q-60 0 -93.5 -34.5t-33.5 -96.5q0 -61 33.5 -95t93.5 -34zM1120 510v1006h166v-994
q0 -255 -147 -398.5t-408 -143.5q-260 0 -406.5 143.5t-146.5 398.5v994h176v-1006q0 -180 100.5 -280.5t280.5 -100.5q182 0 283.5 100.5t101.5 280.5z" />
    <glyph glyph-name="uring" unicode="&#x16f;" horiz-adv-x="1171" 
d="M582 1130q-113 0 -177.5 60.5t-64.5 165.5q0 106 64 165.5t178 59.5t176.5 -59.5t62.5 -165.5q0 -105 -63 -165.5t-176 -60.5zM582 1487q-60 0 -93.5 -34.5t-33.5 -96.5q0 -61 33.5 -95t93.5 -34q59 0 92 34t33 95t-33 96t-92 35zM844 1014h168v-1014h-168v348h-4
q0 -173 -88.5 -270.5t-245.5 -97.5q-169 0 -262.5 106t-93.5 297v631h167v-625q0 -129 65 -200.5t183 -71.5q132 0 205.5 90.5t73.5 253.5v553z" />
    <glyph glyph-name="Uhungarumlaut" unicode="&#x170;" horiz-adv-x="1464" 
d="M799 2032l90 -84l-303 -273l-76 78zM1079 2032l90 -84l-303 -273l-75 78zM1120 510v1006h166v-994q0 -255 -147 -398.5t-408 -143.5q-260 0 -406.5 143.5t-146.5 398.5v994h176v-1006q0 -180 100.5 -280.5t280.5 -100.5q182 0 283.5 100.5t101.5 280.5z" />
    <glyph glyph-name="uhungarumlaut" unicode="&#x171;" horiz-adv-x="1171" 
d="M735 1446l-303 -272l-76 77l289 279zM713 1174l-76 77l289 279l90 -84zM844 461v553h168v-1014h-168v348h-4q0 -173 -88.5 -270.5t-245.5 -97.5q-169 0 -262.5 106t-93.5 297v631h167v-625q0 -129 65 -200.5t183 -71.5q132 0 205.5 90.5t73.5 253.5z" />
    <glyph glyph-name="Uogonek" unicode="&#x172;" horiz-adv-x="1464" 
d="M1120 1516h166v-994q0 -207 -98.5 -342.5t-278.5 -179.5h2q-91 -85 -141.5 -168.5t-50.5 -150.5q0 -66 67 -66q79 0 152 47v-106q-81 -48 -190 -48q-82 0 -128.5 39t-46.5 111q0 78 91 173.5t219 158.5v4q-66 -14 -152 -14q-260 0 -406.5 143.5t-146.5 398.5v994h176
v-1006q0 -180 100.5 -280.5t280.5 -100.5q182 0 283.5 100.5t101.5 280.5v1006z" />
    <glyph glyph-name="uogonek" unicode="&#x173;" horiz-adv-x="1171" 
d="M879 -385q78 0 151 47v-106q-81 -48 -190 -48q-82 0 -128 39t-46 111q0 67 49.5 146.5t127 135.5t150.5 56v4h-149v348h-4q0 -173 -88.5 -270.5t-245.5 -97.5q-169 0 -262.5 106t-93.5 297v631h167v-625q0 -129 65 -200.5t183 -71.5q132 0 205.5 90.5t73.5 253.5v553h168
v-1014q-94 -85 -147.5 -169t-53.5 -150t68 -66z" />
    <glyph glyph-name="Wcircumflex" unicode="&#x174;" horiz-adv-x="2074" 
d="M1038 1978l-176 -309h-143l194 328h256l195 -328h-143l-179 309h-4zM1841 1516h180l-350 -1516h-328l-305 1499h-4l-303 -1499h-330l-348 1516h191l331 -1500h5l307 1500h305l311 -1500h4z" />
    <glyph glyph-name="wcircumflex" unicode="&#x175;" horiz-adv-x="1691" 
d="M844 1477l-176 -310h-144l195 328h256l194 -328h-143l-178 310h-4zM1462 1014h174l-270 -1014h-303l-215 1001h-4l-215 -1001h-303l-271 1014h181l247 -1002h4l215 1002h293l213 -1002h4z" />
    <glyph glyph-name="Ycircumflex" unicode="&#x176;" horiz-adv-x="1351" 
d="M700 1978l-176 -309h-143l194 328h256l195 -328h-143l-178 309h-5zM1167 1516h195l-766 -1516h-195l283 567h-170l-481 949h207l462 -932h5z" />
    <glyph glyph-name="ycircumflex" unicode="&#x177;" horiz-adv-x="1077" 
d="M543 1477l-176 -310h-144l195 328h256l194 -328h-143l-178 310h-4zM848 1014h180l-479 -1485h-180l153 471h-143l-326 1014h180l306 -1002h4z" />
    <glyph glyph-name="Ydieresis" unicode="&#x178;" horiz-adv-x="1351" 
d="M621 1956v-215h-162v215h162zM944 1956v-215h-160v215h160zM1167 1516h195l-766 -1516h-195l283 567h-170l-481 949h207l462 -932h5z" />
    <glyph glyph-name="Zacute" unicode="&#x179;" horiz-adv-x="1363" 
d="M969 1894l-363 -182l-51 94l356 193zM104 143h1190v-143h-1212v334l1145 1034v4h-1118v144h1140v-334l-1145 -1035v-4z" />
    <glyph glyph-name="zacute" unicode="&#x17a;" horiz-adv-x="1060" 
d="M809 1393l-363 -183l-51 95l357 192zM115 127h870v-127h-893v293l832 592v4h-820v125h844v-291l-833 -592v-4z" />
    <glyph glyph-name="Zdotaccent" unicode="&#x17b;" horiz-adv-x="1363" 
d="M772 1956v-215h-168v215h168zM104 143h1190v-143h-1212v334l1145 1034v4h-1118v144h1140v-334l-1145 -1035v-4z" />
    <glyph glyph-name="zdotaccent" unicode="&#x17c;" horiz-adv-x="1060" 
d="M614 1454v-215h-168v215h168zM115 127h870v-127h-893v293l832 592v4h-820v125h844v-291l-833 -592v-4z" />
    <glyph glyph-name="Zcaron" unicode="&#x17d;" horiz-adv-x="1363" 
d="M561 1669l-194 328h143l176 -309h4l178 309h144l-195 -328h-256zM104 143h1190v-143h-1212v334l1145 1034v4h-1118v144h1140v-334l-1145 -1035v-4z" />
    <glyph glyph-name="zcaron" unicode="&#x17e;" horiz-adv-x="1060" 
d="M403 1167l-194 328h143l176 -309h4l179 309h143l-195 -328h-256zM115 127h870v-127h-893v293l832 592v4h-820v125h844v-291l-833 -592v-4z" />
    <glyph glyph-name="florin" unicode="&#x192;" horiz-adv-x="1345" 
d="M1110 1397q-92 0 -154 -62.5t-82 -175.5l-59 -336h326v-80h-340l-78 -442q-26 -152 -123 -236.5t-244 -84.5q-137 0 -241 49l37 123q78 -33 178 -33q92 0 153.5 62t81.5 175l68 387h-311v80h325l70 391q26 152 123 237t243 85q135 0 242 -49l-37 -123q-78 33 -178 33z
" />
    <glyph glyph-name="Scommaaccent" unicode="&#x218;" horiz-adv-x="1355" 
d="M713 860q202 -32 291 -65q192 -70 240 -231q18 -59 18 -132q0 -214 -155.5 -333t-432.5 -119q-260 0 -414.5 142t-169.5 396h174q12 -184 120.5 -286.5t291.5 -102.5q192 0 298.5 76.5t106.5 214.5q0 47 -12.5 84.5t-33 64.5t-54 48.5t-66 35.5t-80.5 26t-86.5 19
t-92.5 16q-5 1 -7 1q-55 9 -84.5 14t-81 15.5t-81 20.5t-72 27.5t-67 36.5t-53 47.5t-43.5 61t-25.5 76t-10.5 94.5q0 204 143.5 316t399.5 112q243 0 387.5 -136.5t157.5 -379.5h-175q-9 173 -108 269.5t-268 96.5t-264 -70.5t-95 -197.5q0 -41 12 -74t30.5 -56.5t50 -42.5
t63 -31t76.5 -22.5t82 -17t89 -14.5h1zM590 -287v133h170v-116q0 -84 -40 -135t-130 -87v66q77 20 113.5 53t44.5 86h-158z" />
    <glyph glyph-name="scommaaccent" unicode="&#x219;" horiz-adv-x="1036" 
d="M553 592q40 -7 62 -11.5t60.5 -13.5t61 -17t55 -22t51.5 -29t41 -36.5t34 -46.5t20 -58t8 -71q0 -145 -113.5 -226t-316.5 -81t-316.5 92t-113.5 256h162q0 -109 70.5 -169.5t197.5 -60.5q126 0 196 46t70 128q0 29 -9.5 53.5t-21.5 41.5t-38.5 32t-44.5 23.5t-57.5 18
t-58.5 13.5t-65 13q-39 7 -59.5 11t-57.5 12t-57.5 15.5t-51.5 20t-48.5 26t-38 33.5t-31.5 42.5t-18.5 52.5t-7.5 65q0 134 106 211.5t293 77.5q188 0 293.5 -88.5t105.5 -247.5h-161q0 105 -62 162.5t-176 57.5q-110 0 -172.5 -43t-62.5 -119q0 -33 16 -59t37 -41
t63 -28.5t71.5 -19.5t84.5 -16zM430 -287v133h170v-116q0 -84 -40 -135t-130 -87v66q77 20 113.5 53t44.5 86h-158z" />
    <glyph glyph-name="uni021A" unicode="&#x21a;" horiz-adv-x="1187" 
d="M1149 1516v-144h-467v-1372h-176v1372h-467v144h1110zM510 -287v133h170v-116q0 -84 -40 -135t-130 -87v66q77 20 113.5 53t44.5 86h-158z" />
    <glyph glyph-name="uni021B" unicode="&#x21b;" horiz-adv-x="768" 
d="M725 889h-346v-592q0 -85 48 -131.5t136 -46.5q78 0 146 33v-132q-85 -40 -199 -40q-141 0 -220 80.5t-79 226.5v602h-164v125h176v352h168v-86q0 -84 -43 -153t-117 -109v-4h494v-125zM303 -287v133h170v-116q0 -84 -40 -135t-130 -87v66q77 20 113.5 53t44.5 86h-158z
" />
    <glyph glyph-name="uni0237" unicode="&#x237;" horiz-adv-x="485" 
d="M160 1014h168v-1485h-168v1485z" />
    <glyph glyph-name="circumflex" unicode="&#x2c6;" horiz-adv-x="710" 
d="M483 1495l195 -328h-143l-179 310h-4l-176 -310h-143l194 328h256z" />
    <glyph glyph-name="caron" unicode="&#x2c7;" horiz-adv-x="710" 
d="M535 1495h143l-195 -328h-256l-194 328h143l176 -309h4z" />
    <glyph glyph-name="breve" unicode="&#x2d8;" horiz-adv-x="696" 
d="M645 1495q0 -157 -79 -245.5t-218 -88.5t-218 88.5t-79 245.5h125q0 -104 46 -163.5t126 -59.5t126 59.5t46 163.5h125z" />
    <glyph glyph-name="dotaccent" unicode="&#x2d9;" horiz-adv-x="430" 
d="M131 1239v215h168v-215h-168z" />
    <glyph glyph-name="ring" unicode="&#x2da;" horiz-adv-x="579" 
d="M291 1130q-113 0 -177.5 60.5t-64.5 165.5q0 106 64 165.5t178 59.5t176.5 -59.5t62.5 -165.5q0 -105 -63 -165.5t-176 -60.5zM291 1227q59 0 92 34t33 95t-33 96t-92 35q-60 0 -93.5 -34.5t-33.5 -96.5q0 -61 33.5 -95t93.5 -34z" />
    <glyph glyph-name="ogonek" unicode="&#x2db;" horiz-adv-x="452" 
d="M414 -444q-81 -48 -191 -48q-82 0 -128 39t-46 111q0 67 49.5 146.5t127.5 135.5t151 56v4h18q-94 -85 -147 -169t-53 -150t67 -66q79 0 152 47v-106z" />
    <glyph glyph-name="tilde" unicode="&#x2dc;" horiz-adv-x="839" 
d="M559 1223q-47 0 -90.5 20.5t-71.5 45t-63.5 45t-67.5 20.5q-46 0 -74.5 -37.5t-33.5 -102.5h-92q2 128 57 198.5t153 70.5q47 0 91.5 -20t72.5 -44.5t63.5 -44.5t67.5 -20q46 0 74.5 36t34.5 101h92q-2 -126 -58 -197t-155 -71z" />
    <glyph glyph-name="hungarumlaut" unicode="&#x2dd;" horiz-adv-x="784" 
d="M348 1530l90 -84l-303 -272l-76 77zM629 1530l90 -84l-303 -272l-76 77z" />
    <glyph glyph-name="gravecomb" unicode="&#x300;" horiz-adv-x="0" 
d="M-385 1497l356 -192l-51 -95l-362 183z" />
    <glyph glyph-name="acutecomb" unicode="&#x301;" horiz-adv-x="0" 
d="M-92 1497l57 -104l-362 -183l-52 95z" />
    <glyph glyph-name="uni0302" unicode="&#x302;" horiz-adv-x="0" 
d="M-227 1495l194 -328h-143l-178 310h-4l-177 -310h-143l195 328h256z" />
    <glyph glyph-name="tildecomb" unicode="&#x303;" horiz-adv-x="0" 
d="M-279 1223q-47 0 -90.5 20.5t-71 45t-63 45t-67.5 20.5q-46 0 -75 -37.5t-34 -102.5h-92q1 127 57 198t154 71q47 0 91.5 -20t72.5 -44.5t63.5 -44.5t67.5 -20q46 0 74 36t34 101h92q-2 -126 -58 -197t-155 -71z" />
    <glyph glyph-name="uni0304" unicode="&#x304;" horiz-adv-x="0" 
d="M-623 1409h578v-125h-578v125z" />
    <glyph glyph-name="uni0306" unicode="&#x306;" horiz-adv-x="0" 
d="M-51 1495q0 -157 -79 -245.5t-218 -88.5t-218 88.5t-79 245.5h125q0 -104 46 -163.5t126 -59.5t126 59.5t46 163.5h125z" />
    <glyph glyph-name="uni0307" unicode="&#x307;" horiz-adv-x="0" 
d="M-299 1239v215h168v-215h-168z" />
    <glyph glyph-name="uni0308" unicode="&#x308;" horiz-adv-x="0" 
d="M-625 1239v215h162v-215h-162zM-299 1239v215h160v-215h-160z" />
    <glyph glyph-name="uni030A" unicode="&#x30a;" horiz-adv-x="0" 
d="M-289 1130q-113 0 -177 60.5t-64 165.5q0 106 63.5 165.5t177.5 59.5t177 -59.5t63 -165.5q0 -105 -63.5 -165.5t-176.5 -60.5zM-289 1227q59 0 92 34t33 95t-33 96t-92 35q-60 0 -93.5 -34.5t-33.5 -96.5q0 -61 33.5 -95t93.5 -34z" />
    <glyph glyph-name="uni030B" unicode="&#x30b;" horiz-adv-x="0" 
d="M-436 1530l90 -84l-303 -272l-76 77zM-156 1530l90 -84l-303 -272l-75 77z" />
    <glyph glyph-name="uni030C" unicode="&#x30c;" horiz-adv-x="0" 
d="M-176 1495h143l-194 -328h-256l-195 328h143l177 -309h4z" />
    <glyph glyph-name="uni0312" unicode="&#x312;" horiz-adv-x="0" 
d="M-37 1483q-78 -12 -115 -37.5t-43 -67.5h158v-143h-170v121q0 76 40.5 121.5t129.5 70.5v-65z" />
    <glyph glyph-name="uni0326" unicode="&#x326;" horiz-adv-x="0" 
d="M-233 -154h170v-116q0 -84 -40 -135t-130 -87v66q77 20 113 53t44 86h-157v133z" />
    <glyph glyph-name="uni0327" unicode="&#x327;" horiz-adv-x="0" 
d="M-317 -492q-100 0 -183 46v88q74 -48 166 -48q73 0 114.5 28.5t41.5 78.5q0 39 -27.5 61.5t-73.5 22.5q-73 3 -118 -49l-70 49q34 39 90.5 62.5t116.5 23.5q98 0 154.5 -44t56.5 -122q0 -93 -71 -145t-197 -52z" />
    <glyph glyph-name="uni0328" unicode="&#x328;" horiz-adv-x="0" 
d="M-39 -444q-81 -48 -190 -48q-82 0 -128 39t-46 111q0 67 49.5 146.5t127 135.5t150.5 56v4h19q-94 -85 -147.5 -169t-53.5 -150t68 -66q78 0 151 47v-106z" />
    <glyph glyph-name="uni0335" unicode="&#x335;" horiz-adv-x="0" 
d="M-778 760h661v-80h-661v80z" />
    <glyph glyph-name="uni0336" unicode="&#x336;" horiz-adv-x="0" 
d="M-1487 760v-80h1372v80h-1372z" />
    <glyph glyph-name="uni0337" unicode="&#x337;" horiz-adv-x="0" 
d="M-92 1092l78 -50l-738 -1122l-77 51z" />
    <glyph glyph-name="uni0338" unicode="&#x338;" horiz-adv-x="0" 
d="M-139 1591l86 -53l-977 -1614l-86 53z" />
    <glyph glyph-name="uni0394" unicode="&#x394;" horiz-adv-x="1402" 
d="M858 1516l518 -1516h-1349l520 1516h311zM254 143h885l-439 1356h-4z" />
    <glyph glyph-name="uni03A9" unicode="&#x3a9;" horiz-adv-x="1595" 
d="M995 150v-5h455v-145h-553v145q186 0 289.5 164.5t103.5 458.5q0 292 -129.5 455t-361.5 163q-233 0 -364.5 -160t-131.5 -446q0 -300 103.5 -467.5t289.5 -167.5v-145h-551v145h453v5q-224 0 -349.5 178t-125.5 495q0 335 178.5 524t497.5 189q318 0 496 -189t178 -524
q0 -316 -127 -494.5t-351 -178.5z" />
    <glyph glyph-name="uni03BC" unicode="&#x3bc;" horiz-adv-x="1181" 
d="M854 1014h168v-1014h-168v348h-4q0 -173 -88.5 -270.5t-245.5 -97.5q-129 0 -215.5 63t-120.5 180l148 -686v-8h-168v1485h168v-625q0 -129 64.5 -200.5t182.5 -71.5q132 0 205.5 90.5t73.5 253.5v553z" />
    <glyph glyph-name="pi" unicode="&#x3c0;" horiz-adv-x="1257" 
d="M1214 1014v-125h-184v-889h-168v889h-467v-889h-168v889h-184v125h1171z" />
    <glyph glyph-name="Wgrave" unicode="&#x1e80;" horiz-adv-x="2074" 
d="M1176 1806l-52 -94l-362 182l57 105zM1841 1516h180l-350 -1516h-328l-305 1499h-4l-303 -1499h-330l-348 1516h191l331 -1500h5l307 1500h305l311 -1500h4z" />
    <glyph glyph-name="wgrave" unicode="&#x1e81;" horiz-adv-x="1691" 
d="M981 1305l-51 -95l-363 183l58 104zM1462 1014h174l-270 -1014h-303l-215 1001h-4l-215 -1001h-303l-271 1014h181l247 -1002h4l215 1002h293l213 -1002h4z" />
    <glyph glyph-name="Wacute" unicode="&#x1e82;" horiz-adv-x="2074" 
d="M1319 1894l-363 -182l-51 94l357 193zM1841 1516h180l-350 -1516h-328l-305 1499h-4l-303 -1499h-330l-348 1516h191l331 -1500h5l307 1500h305l311 -1500h4z" />
    <glyph glyph-name="wacute" unicode="&#x1e83;" horiz-adv-x="1691" 
d="M1126 1393l-362 -183l-51 95l356 192zM1462 1014h174l-270 -1014h-303l-215 1001h-4l-215 -1001h-303l-271 1014h181l247 -1002h4l215 1002h293l213 -1002h4z" />
    <glyph glyph-name="Wdieresis" unicode="&#x1e84;" horiz-adv-x="2074" 
d="M961 1956v-215h-162v215h162zM1284 1956v-215h-160v215h160zM1841 1516h180l-350 -1516h-328l-305 1499h-4l-303 -1499h-330l-348 1516h191l331 -1500h5l307 1500h305l311 -1500h4z" />
    <glyph glyph-name="wdieresis" unicode="&#x1e85;" horiz-adv-x="1691" 
d="M766 1454v-215h-162v215h162zM1090 1454v-215h-160v215h160zM1462 1014h174l-270 -1014h-303l-215 1001h-4l-215 -1001h-303l-271 1014h181l247 -1002h4l215 1002h293l213 -1002h4z" />
    <glyph glyph-name="uni1E9E" unicode="&#x1e9e;" horiz-adv-x="1374" 
d="M678 840q284 0 444 -115t160 -319q0 -201 -142.5 -313.5t-396.5 -112.5q-125 0 -211 24v146q85 -21 201 -21q175 0 273 74.5t98 206.5q0 142 -111 221.5t-311 79.5h-100v133q194 8 302.5 83.5t108.5 202.5q0 121 -82.5 188.5t-232.5 67.5q-153 0 -237.5 -81t-84.5 -228
v-1077h-176v1071q0 219 132 342t366 123q233 0 364.5 -94.5t131.5 -261.5q0 -158 -137 -247t-380 -89v-4h21z" />
    <glyph glyph-name="Ygrave" unicode="&#x1ef2;" horiz-adv-x="1351" 
d="M836 1806l-52 -94l-362 182l57 105zM1167 1516h195l-766 -1516h-195l283 567h-170l-481 949h207l462 -932h5z" />
    <glyph glyph-name="ygrave" unicode="&#x1ef3;" horiz-adv-x="1077" 
d="M678 1305l-51 -95l-363 183l58 104zM848 1014h180l-479 -1485h-180l153 471h-143l-326 1014h180l306 -1002h4z" />
    <glyph glyph-name="endash" unicode="&#x2013;" horiz-adv-x="1191" 
d="M139 555h914v-80h-914v80z" />
    <glyph glyph-name="emdash" unicode="&#x2014;" horiz-adv-x="1773" 
d="M139 555h1495v-80h-1495v80z" />
    <glyph glyph-name="quoteleft" unicode="&#x2018;" horiz-adv-x="446" 
d="M322 1415q-83 -22 -133.5 -72.5t-59.5 -119.5h193v-195h-205v166q0 121 54 209t151 123v-111z" />
    <glyph glyph-name="quoteright" unicode="&#x2019;" horiz-adv-x="434" 
d="M129 1516h205v-166q0 -121 -54 -209t-151 -123v110q83 22 133.5 73t59.5 120h-193v195z" />
    <glyph glyph-name="quotesinglbase" unicode="&#x201a;" horiz-adv-x="462" 
d="M139 195h205v-166q0 -121 -54 -209t-151 -123v110q83 22 133.5 73t59.5 120h-193v195z" />
    <glyph glyph-name="quotedblleft" unicode="&#x201c;" horiz-adv-x="753" 
d="M117 1194q0 121 54 209t151 123v-111q-83 -22 -133.5 -72.5t-59.5 -119.5h193v-195h-205v166zM629 1415q-83 -22 -133.5 -72.5t-59.5 -119.5h193v-195h-205v166q0 121 54 209t151 123v-111z" />
    <glyph glyph-name="quotedblright" unicode="&#x201d;" horiz-adv-x="741" 
d="M129 1321v195h205v-166q0 -121 -54 -209t-151 -123v110q83 22 133.5 73t59.5 120h-193zM436 1516h205v-166q0 -121 -54 -209t-151 -123v110q83 22 133.5 73t59.5 120h-193v195z" />
    <glyph glyph-name="quotedblbase" unicode="&#x201e;" horiz-adv-x="770" 
d="M139 0v195h205v-166q0 -121 -54 -209t-151 -123v110q83 22 133.5 73t59.5 120h-193zM446 195h205v-166q0 -121 -54 -209t-151 -123v110q83 22 133.5 73t59.5 120h-193v195z" />
    <glyph glyph-name="dagger" unicode="&#x2020;" horiz-adv-x="782" 
d="M449 1341h227v-96h-232v-520h-110v334q0 67 26.5 115t73.5 67v4h-325v96h231v236h109v-236z" />
    <glyph glyph-name="daggerdbl" unicode="&#x2021;" horiz-adv-x="782" 
d="M676 1245h-232v-188h232v-96h-232v-236h-110v49q0 67 26.5 115t73.5 67v5h-325v96h225v2q0 67 26.5 115t73.5 67v4h-325v96h231v236h109v-236h227v-96z" />
    <glyph glyph-name="bullet" unicode="&#x2022;" horiz-adv-x="716" 
d="M182 442v326h353v-326h-353z" />
    <glyph glyph-name="ellipsis" unicode="&#x2026;" horiz-adv-x="1259" 
d="M133 195h205v-195h-205v195zM526 195h205v-195h-205v195zM920 195h204v-195h-204v195z" />
    <glyph glyph-name="perthousand" unicode="&#x2030;" horiz-adv-x="2123" 
d="M209 31l979 1505l67 -51l-979 -1505zM371 737q-135 0 -211 100.5t-76 278.5t76 278.5t211 100.5t210.5 -100t75.5 -279t-75.5 -279t-210.5 -100zM371 846q70 0 109.5 71t39.5 199t-39.5 199t-109.5 71q-71 0 -111.5 -71.5t-40.5 -198.5t40.5 -198.5t111.5 -71.5z
M1096 -20q-135 0 -211 100t-76 278t76 278.5t211 100.5q136 0 212 -100t76 -279t-76 -278.5t-212 -99.5zM1772 -20q-135 0 -211 100t-76 278t76 278.5t211 100.5t210.5 -100t75.5 -279q0 -178 -75.5 -278t-210.5 -100zM1096 88q71 0 111 71.5t40 198.5t-40 199t-111 72
t-110.5 -72t-39.5 -199t39.5 -198.5t110.5 -71.5zM1772 88q69 0 109 71.5t40 198.5t-40 199t-109 72q-71 0 -111.5 -72t-40.5 -199t40.5 -198.5t111.5 -71.5z" />
    <glyph glyph-name="guilsinglleft" unicode="&#x2039;" horiz-adv-x="552" 
d="M84 512l262 395h103l-259 -395l259 -395h-103z" />
    <glyph glyph-name="guilsinglright" unicode="&#x203a;" horiz-adv-x="552" 
d="M469 512l-262 -395h-103l258 395l-258 395h103z" />
    <glyph glyph-name="fraction" unicode="&#x2044;" horiz-adv-x="430" 
d="M-307 31l979 1505l67 -51l-979 -1505z" />
    <glyph glyph-name="uni2070" unicode="&#x2070;" horiz-adv-x="813" 
d="M406 721q-158 0 -248 124t-90 343t90 343t248 124q160 0 249.5 -123.5t89.5 -343.5t-89.5 -343.5t-249.5 -123.5zM406 831q96 0 149 94.5t53 262.5t-53 262t-149 94q-94 0 -147.5 -94.5t-53.5 -261.5t53.5 -262t147.5 -95z" />
    <glyph glyph-name="uni2074" unicode="&#x2074;" horiz-adv-x="770" 
d="M727 1065v-107h-119v-225h-135v225h-436v115l317 569h254v-577h119zM473 1630l-309 -561v-4h313v565h-4z" />
    <glyph glyph-name="uni2075" unicode="&#x2075;" horiz-adv-x="759" 
d="M377 721q-135 0 -220 71t-100 197h133q12 -74 62 -116t125 -42q91 0 141.5 52.5t50.5 146.5q0 95 -49.5 148t-140.5 53q-70 0 -116 -37.5t-66 -101.5l-131 16l71 534h502v-106h-383l-61 -422h4q17 103 82.5 161t164.5 58q123 0 193 -78.5t70 -216.5q0 -149 -87.5 -233
t-244.5 -84z" />
    <glyph glyph-name="uni2076" unicode="&#x2076;" horiz-adv-x="794" 
d="M463 1319q129 0 200.5 -74.5t71.5 -208.5q0 -148 -90 -231.5t-242 -83.5q-166 0 -251.5 113t-85.5 331q0 231 93.5 360.5t260.5 129.5q129 0 206.5 -71.5t88.5 -197.5h-131q-8 75 -51 116.5t-113 41.5q-103 0 -161 -98t-58 -272v-91h4q0 109 68.5 172.5t189.5 63.5z
M399 831q92 0 144.5 52.5t52.5 144.5q0 87 -52 135.5t-145 48.5q-91 0 -141.5 -46.5t-50.5 -131.5q0 -93 52.5 -148t139.5 -55z" />
    <glyph glyph-name="uni2077" unicode="&#x2077;" horiz-adv-x="679" 
d="M25 1642h628v-100q-138 -38 -215.5 -227t-77.5 -486v-96h-141v74q0 321 101.5 512t283.5 213v4h-579v106z" />
    <glyph glyph-name="uni2078" unicode="&#x2078;" horiz-adv-x="786" 
d="M471 1253q121 -17 186.5 -84.5t65.5 -175.5q0 -128 -87.5 -200t-242.5 -72t-241 72t-86 200q0 108 65 175.5t184 84.5v4q-104 0 -162.5 48.5t-58.5 134.5q0 101 79 158t220 57t220 -57t79 -158q0 -86 -58.5 -134.5t-162.5 -48.5v-4zM231 1397q0 -70 43.5 -110t118.5 -40
q76 0 119 39.5t43 110.5q0 69 -43 108t-119 39q-75 0 -118.5 -39t-43.5 -108zM393 831q89 0 139 42.5t50 119.5q0 78 -50 121t-139 43q-90 0 -140 -43t-50 -121q0 -76 50.5 -119t139.5 -43z" />
    <glyph glyph-name="uni2079" unicode="&#x2079;" horiz-adv-x="794" 
d="M395 1655q166 0 250 -114t84 -331q0 -230 -93.5 -359.5t-260.5 -129.5q-129 0 -206.5 78t-88.5 215h131q8 -86 51 -134.5t113 -48.5q103 0 161 98t58 273v103h-4q0 -104 -69 -164t-189 -60q-129 0 -201 71.5t-72 199.5q0 142 90.5 222.5t245.5 80.5zM395 1188
q91 0 142 44t51 122q0 88 -53 139t-140 51q-93 0 -144.5 -48.5t-51.5 -135.5q0 -83 51.5 -127.5t144.5 -44.5z" />
    <glyph glyph-name="uni2080" unicode="&#x2080;" horiz-adv-x="813" 
d="M406 -238q-158 0 -248 124t-90 343t90 343t248 124q160 0 249.5 -123.5t89.5 -343.5t-89.5 -343.5t-249.5 -123.5zM406 -127q96 0 149 94t53 262t-53 262.5t-149 94.5q-94 0 -147.5 -95t-53.5 -262t53.5 -261.5t147.5 -94.5z" />
    <glyph glyph-name="uni2081" unicode="&#x2081;" horiz-adv-x="471" 
d="M213 684h135v-909h-135v866h-4q0 -95 -46 -148t-128 -53v117q83 0 130.5 33.5t47.5 93.5z" />
    <glyph glyph-name="uni2082" unicode="&#x2082;" horiz-adv-x="759" 
d="M106 -119h596v-106h-645v100q226 71 353 208t127 310q0 90 -43.5 141.5t-118.5 51.5q-78 0 -125 -58.5t-51 -162.5h-131q9 157 90 244t219 87q145 0 224 -80.5t79 -226.5q0 -201 -152 -335t-422 -169v-4z" />
    <glyph glyph-name="uni2083" unicode="&#x2083;" horiz-adv-x="755" 
d="M373 289q149 0 233 -68t84 -188q0 -128 -85.5 -199.5t-239.5 -71.5q-139 0 -221.5 78.5t-90.5 218.5h129q5 -88 52.5 -138t130.5 -50q88 0 137 43t49 119q0 74 -51.5 117t-143.5 43h-24v98q91 11 141.5 52.5t50.5 105.5q0 66 -42 102.5t-117 36.5q-73 0 -117 -51
t-49 -140h-129q9 140 90 219.5t217 79.5q134 0 210.5 -55.5t76.5 -151.5q0 -92 -78.5 -144t-218.5 -52v-4h6z" />
    <glyph glyph-name="uni2084" unicode="&#x2084;" horiz-adv-x="770" 
d="M729 106v-106h-119v-225h-135v225h-436v115l317 569h254v-578h119zM475 672l-309 -561v-5h313v566h-4z" />
    <glyph glyph-name="uni2085" unicode="&#x2085;" horiz-adv-x="759" 
d="M377 -238q-135 0 -220 71.5t-100 197.5h133q12 -74 62 -116t125 -42q91 0 141.5 52.5t50.5 146.5q0 95 -49.5 147.5t-140.5 52.5q-70 0 -116 -37.5t-66 -101.5l-131 17l71 534h502v-106h-383l-61 -422h4q17 103 82.5 161t164.5 58q123 0 193 -78.5t70 -216.5
q0 -149 -87.5 -233.5t-244.5 -84.5z" />
    <glyph glyph-name="uni2086" unicode="&#x2086;" horiz-adv-x="794" 
d="M463 360q129 0 200.5 -74t71.5 -208q0 -148 -90 -232t-242 -84q-166 0 -251.5 113.5t-85.5 331.5q0 230 93.5 359.5t260.5 129.5q129 0 206.5 -71t88.5 -197h-131q-8 75 -51 116.5t-113 41.5q-103 0 -161 -98t-58 -273v-90h4q0 109 68.5 172t189.5 63zM399 -127
q92 0 144.5 52.5t52.5 144.5q0 87 -52 135.5t-145 48.5q-91 0 -141.5 -46.5t-50.5 -131.5q0 -93 52.5 -148t139.5 -55z" />
    <glyph glyph-name="uni2087" unicode="&#x2087;" horiz-adv-x="679" 
d="M27 684h628v-100q-138 -38 -215.5 -227t-77.5 -486v-96h-141v73q0 321 101.5 512t283.5 213v5h-579v106z" />
    <glyph glyph-name="uni2088" unicode="&#x2088;" horiz-adv-x="786" 
d="M471 295q121 -17 186.5 -84.5t65.5 -175.5q0 -128 -87.5 -200.5t-242.5 -72.5t-241 72.5t-86 200.5q0 108 65 175.5t184 84.5v4q-104 0 -162.5 48t-58.5 134q0 101 79 158t220 57t220 -57t79 -158q0 -86 -58.5 -134t-162.5 -48v-4zM231 438q0 -70 43.5 -109.5
t118.5 -39.5q77 0 119.5 39.5t42.5 109.5q0 69 -43 108.5t-119 39.5q-75 0 -118.5 -39.5t-43.5 -108.5zM393 -127q89 0 139 42.5t50 119.5q0 78 -50 121t-139 43q-90 0 -140 -43t-50 -121q0 -76 50.5 -119t139.5 -43z" />
    <glyph glyph-name="uni2089" unicode="&#x2089;" horiz-adv-x="794" 
d="M395 696q166 0 250 -113.5t84 -330.5q0 -231 -93.5 -360.5t-260.5 -129.5q-129 0 -206.5 78t-88.5 215h131q8 -86 51 -134t113 -48q103 0 161 98t58 273v102h-4q0 -104 -69 -163.5t-189 -59.5q-129 0 -201 71t-72 199q0 142 90.5 222.5t245.5 80.5zM395 229q91 0 142 44
t51 122q0 88 -53 139.5t-140 51.5q-92 0 -144 -48.5t-52 -136.5q0 -83 51.5 -127.5t144.5 -44.5z" />
    <glyph glyph-name="Euro" unicode="&#x20ac;" horiz-adv-x="1335" 
d="M1196 270l76 -125q-90 -77 -211 -121t-232 -44q-262 0 -423.5 162t-196.5 458h-137v88h131q-2 23 -2 70q0 53 2 78h-131v88h139q35 292 196 452t422 160q109 0 219.5 -31.5t190.5 -87.5l-76 -131q-65 49 -153.5 74.5t-180.5 25.5q-178 0 -291.5 -120t-144.5 -340h576
l-49 -90h-537q-2 -25 -2 -78q0 -45 2 -68h459l-49 -90h-402q29 -225 143 -348t295 -123q92 0 191.5 36t175.5 105z" />
    <glyph glyph-name="trademark" unicode="&#x2122;" horiz-adv-x="1378" 
d="M59 1516v61h445v-61h-182v-545h-78v545h-185zM1214 1577l19 -606h-76l-18 596h-4l-170 -596h-138l-161 596h-4l-19 -596h-70l19 606h147l158 -596h4l166 596h147z" />
    <glyph glyph-name="oneeighth" unicode="&#x215b;" horiz-adv-x="1660" 
d="M248 1497q0 -95 -46 -148t-128 -53v117q83 0 130.5 33.5t47.5 93.5h135v-909h-135v866h-4zM1133 1536l67 -51l-979 -1505l-67 51zM1329 520q121 -17 186.5 -84.5t65.5 -175.5q0 -128 -87.5 -200t-242.5 -72t-241 72t-86 200q0 108 65.5 175.5t184.5 84.5v4
q-104 0 -163 48.5t-59 134.5q0 101 79 158t220 57t220 -57t79 -158q0 -86 -58.5 -134.5t-162.5 -48.5v-4zM1090 664q0 -70 43 -110t118 -40q76 0 119 39.5t43 110.5q0 69 -43 108t-119 39q-75 0 -118 -39t-43 -108zM1251 98q89 0 139 43t50 119q0 78 -50 121t-139 43
q-90 0 -140 -43t-50 -121q0 -76 50.5 -119t139.5 -43z" />
    <glyph glyph-name="threeeighths" unicode="&#x215c;" horiz-adv-x="1933" 
d="M713 889q0 -128 -86 -199.5t-240 -71.5q-139 0 -221 78.5t-90 218.5h129q5 -89 52 -138.5t130 -49.5q88 0 137 43t49 119q0 74 -51.5 117t-142.5 43h-25v98q91 11 142 52.5t51 105.5q0 66 -42.5 102.5t-117.5 36.5q-73 0 -117 -51t-49 -140h-129q9 140 90 219.5t217 79.5
q134 0 210.5 -55t76.5 -151q0 -92 -79 -144.5t-218 -52.5v-4h6q149 0 233.5 -68t84.5 -188zM1405 1536l68 -51l-979 -1505l-68 51zM1602 520q120 -17 185.5 -84.5t65.5 -175.5q0 -128 -87 -200t-242 -72t-241.5 72t-86.5 200q0 108 65.5 175.5t184.5 84.5v4
q-104 0 -162.5 48.5t-58.5 134.5q0 101 79 158t220 57t220 -57t79 -158q0 -86 -58.5 -134.5t-162.5 -48.5v-4zM1362 664q0 -70 43.5 -110t118.5 -40q76 0 119 39.5t43 110.5q0 69 -43 108t-119 39q-75 0 -118.5 -39t-43.5 -108zM1524 98q89 0 138.5 42.5t49.5 119.5
q0 78 -49.5 121t-138.5 43q-90 0 -140.5 -43t-50.5 -121q0 -76 51 -119t140 -43z" />
    <glyph glyph-name="fiveeighths" unicode="&#x215d;" horiz-adv-x="1943" 
d="M729 936q0 -149 -87.5 -233.5t-244.5 -84.5q-135 0 -219.5 71.5t-99.5 197.5h133q12 -74 61.5 -116t124.5 -42q91 0 142 52.5t51 146.5q0 95 -50 147.5t-141 52.5q-70 0 -116 -37.5t-66 -101.5l-131 17l72 534h501v-106h-383l-61 -422h4q17 103 82.5 161t165.5 58
q123 0 192.5 -78.5t69.5 -216.5zM1415 1536l68 -51l-979 -1505l-68 51zM1612 520q121 -17 186.5 -84.5t65.5 -175.5q0 -128 -87.5 -200t-242.5 -72t-241.5 72t-86.5 200q0 108 65.5 175.5t184.5 84.5v4q-104 0 -162.5 48.5t-58.5 134.5q0 101 79 158t220 57t220 -57t79 -158
q0 -86 -58.5 -134.5t-162.5 -48.5v-4zM1372 664q0 -70 43.5 -110t118.5 -40q76 0 119 39.5t43 110.5q0 69 -43 108t-119 39q-75 0 -118.5 -39t-43.5 -108zM1534 98q89 0 138.5 42.5t49.5 119.5q0 78 -49.5 121t-138.5 43q-90 0 -140.5 -43t-50.5 -121q0 -76 51 -119t140 -43
z" />
    <glyph glyph-name="seveneighths" unicode="&#x215e;" horiz-adv-x="1890" 
d="M250 705q0 321 101.5 512t283.5 213v4h-580v106h629v-100q-138 -38 -215.5 -227t-77.5 -486v-96h-141v74zM1350 1536l67 -51l-979 -1505l-67 51zM1546 520q121 -17 186.5 -84.5t65.5 -175.5q0 -128 -87.5 -200t-242.5 -72t-241 72t-86 200q0 108 65.5 175.5t184.5 84.5v4
q-104 0 -163 48.5t-59 134.5q0 101 79 158t220 57t220 -57t79 -158q0 -86 -58.5 -134.5t-162.5 -48.5v-4zM1307 664q0 -70 43 -110t118 -40q76 0 119 39.5t43 110.5q0 69 -43 108t-119 39q-75 0 -118 -39t-43 -108zM1468 98q89 0 139 43t50 119q0 78 -50 121t-139 43
q-90 0 -140 -43t-50 -121q0 -76 50.5 -119t139.5 -43z" />
    <glyph glyph-name="partialdiff" unicode="&#x2202;" horiz-adv-x="1329" 
d="M651 1536q270 0 423 -205.5t153 -570.5q0 -367 -179.5 -573.5t-498.5 -206.5q-225 0 -351 93t-126 259q0 203 258.5 316.5t718.5 113.5q0 295 -107 459.5t-299 164.5q-141 0 -229 -71.5t-103 -198.5h-174q25 198 160.5 309t353.5 111zM551 129q233 0 365 166t133 463
q-377 0 -587 -104.5t-210 -291.5q0 -110 79 -171.5t220 -61.5z" />
    <glyph glyph-name="emptyset" unicode="&#x2205;" horiz-adv-x="1286" 
d="M1065 872q111 -139 111 -356q0 -252 -140 -393t-391 -141q-221 0 -354 106l-82 -82l-70 68l82 84q-110 134 -110 358q0 249 141 388.5t393 139.5q212 0 348 -102l80 80l72 -70zM207 516q0 -177 82 -291l637 647q-110 84 -283 84q-205 0 -320.5 -116.5t-115.5 -323.5z
M643 70q204 0 319 118t115 328q0 174 -82 285l-639 -645q116 -86 287 -86z" />
    <glyph glyph-name="product" unicode="&#x220f;" horiz-adv-x="1708" 
d="M1661 1577v-152h-287v-1896h-168v1896h-702v-1896h-168v1896h-287v152h1612z" />
    <glyph glyph-name="summation" unicode="&#x2211;" horiz-adv-x="1349" 
d="M104 -330l1188 2v-143h-1212v324l946 751v4l-924 645v324h1149v-143l-1124 2v-4l922 -637v-379l-945 -742v-4z" />
    <glyph glyph-name="minus" unicode="&#x2212;" horiz-adv-x="1067" 
d="M141 475v82h785v-82h-785z" />
    <glyph glyph-name="radical" unicode="&#x221a;" horiz-adv-x="1339" 
d="M1149 1577h190l-571 -1802h-328l-188 686h-232v143h379l201 -817h4z" />
    <glyph glyph-name="infinity" unicode="&#x221e;" horiz-adv-x="1644" 
d="M1155 911q179 0 279 -105t100 -292t-100 -292t-279 -105q-125 0 -211 58.5t-121 166.5q-37 -108 -123 -166.5t-211 -58.5q-179 0 -278.5 105t-99.5 292t99.5 292t278.5 105q125 0 211 -58.5t123 -166.5q35 108 121 166.5t211 58.5zM489 199q134 0 209.5 83t75.5 232
t-75.5 232t-209.5 83t-209 -83t-75 -232t75 -232t209 -83zM1155 199q134 0 209.5 83t75.5 232t-75.5 232t-209.5 83t-209.5 -83t-75.5 -232t75.5 -232t209.5 -83z" />
    <glyph glyph-name="integral" unicode="&#x222b;" horiz-adv-x="952" 
d="M393 1212q0 183 95 284t266 101q134 0 223 -47l-39 -127q-71 35 -166 35q-103 0 -157 -61.5t-54 -173.5v-1329q0 -183 -95.5 -284.5t-266.5 -101.5q-134 0 -222 48l37 127q71 -35 166 -35q103 0 158 62t55 173v1329z" />
    <glyph glyph-name="approxequal" unicode="&#x2248;" horiz-adv-x="1216" 
d="M840 567q-64 0 -118.5 16t-93.5 39t-76.5 46t-83 39t-95.5 16q-66 0 -106 -43.5t-46 -120.5h-80q2 119 64 184.5t174 65.5q64 0 118.5 -16t93.5 -39t76.5 -46t83 -39t95.5 -16q66 0 105.5 43.5t45.5 120.5h78q-2 -119 -63.5 -184.5t-171.5 -65.5zM840 215
q-64 0 -118.5 16t-93.5 39t-76.5 46t-83 39t-95.5 16q-66 0 -106 -43.5t-46 -120.5h-80q2 119 64 184.5t174 65.5q64 0 118.5 -16t93.5 -39t76.5 -46t83 -39t95.5 -16q66 0 105.5 43.5t45.5 120.5h78q-2 -119 -63.5 -184.5t-171.5 -65.5z" />
    <glyph glyph-name="notequal" unicode="&#x2260;" horiz-adv-x="1067" 
d="M926 621h-316l-61 -209h377v-82h-400l-96 -330h-90l96 330h-295v82h318l61 209h-379v81h404l90 312h90l-90 -312h291v-81z" />
    <glyph glyph-name="lessequal" unicode="&#x2264;" horiz-adv-x="1048" 
d="M911 383v-90l-782 287v155l782 289v-90l-770 -277v-4zM129 106h784v-81h-784v81z" />
    <glyph glyph-name="greaterequal" unicode="&#x2265;" horiz-adv-x="1048" 
d="M137 1024l783 -289v-155l-783 -287v90l770 270v4l-770 277v90zM135 25v81h785v-81h-785z" />
    <glyph glyph-name="lozenge" unicode="&#x25ca;" horiz-adv-x="1013" 
d="M608 1014l303 -391v-232l-303 -391h-202l-302 391v232l302 391h202zM899 506v4l-389 496h-4l-389 -496v-4l389 -498h4z" />
    <glyph glyph-name="uniF8FF" unicode="&#xf8ff;" horiz-adv-x="2609" 
d="M2486 756l-753 -762q-14 -14 -35 -14q-41 0 -41 47v663l-694 -696q-14 -14 -35 -14q-41 0 -41 47v663l-697 -696q-14 -14 -34 -14q-15 0 -25 10.5t-10 25.5q0 21 10 31l700 698h-663q-47 0 -47 39q0 16 14 33l696 701h-669q-41 0 -41 38v3q0 38 41 38h758q47 0 47 -41
q0 -20 -17 -34l-698 -697h676q17 0 29 -12t12 -29v-669l694 692q13 16 35 16q37 0 37 -45v-663l696 692q13 16 33 16q15 0 25 -12t10 -27q0 -18 -13 -28z" />
    <glyph glyph-name="Jacute" horiz-adv-x="1130" 
d="M1083 1999l58 -105l-363 -182l-51 94zM774 432q0 -143 -70 -223t-194 -80q-122 0 -200 99.5t-91 273.5h-166q17 -246 137 -384t316 -138q210 0 327 122.5t117 341.5v1072h-176v-1084z" />
    <glyph glyph-name="i.loclTRK" horiz-adv-x="485" 
d="M160 1239v215h168v-215h-168zM160 1014h168v-1014h-168v1014z" />
    <glyph glyph-name="jacute" horiz-adv-x="485" 
d="M465 1497l57 -104l-362 -183l-51 95zM160 1014h168v-1485h-168v1485z" />
    <glyph glyph-name="f_b" horiz-adv-x="1996" 
d="M598 1458q-111 0 -169 -56t-58 -159v-229h358v-125h-346v-889h-168v889h-164v125h311v4q-74 40 -116.5 109t-42.5 153q0 150 95.5 233.5t264.5 83.5q114 0 189 -38l-25 -129q-55 28 -129 28zM1464 1034q203 0 317.5 -139.5t114.5 -386.5q0 -249 -114.5 -388.5
t-317.5 -139.5q-175 0 -273.5 94t-98.5 260h-5v-334h-167v1577h167v-895h5q0 166 98.5 259t273.5 93zM1399 119q154 0 239.5 102.5t85.5 286.5q0 183 -85.5 286t-239.5 103q-153 0 -239.5 -104t-86.5 -285t86.5 -285t239.5 -104z" />
    <glyph glyph-name="f_f_j" horiz-adv-x="1880" 
d="M1724 1014v-1485h-168v1360h-518v-889h-168v889h-487v-889h-168v889h-164v125h311v4q-74 40 -116.5 109t-42.5 153q0 150 95.5 233.5t264.5 83.5q114 0 189 -38l-25 -129q-55 28 -129 28q-111 0 -169 -56t-58 -159v-229h647v4q-74 40 -117 109t-43 153q0 150 96 233.5
t265 83.5q113 0 188 -38l-25 -129q-55 28 -129 28q-111 0 -169 -56t-58 -159v-229h698zM1556 1454h168v-215h-168v215z" />
    <glyph glyph-name="f_f_t" horiz-adv-x="2103" 
d="M2060 889h-346v-592q0 -85 48 -131.5t136 -46.5q78 0 146 33v-132q-85 -40 -199 -40q-141 0 -220 80.5t-79 226.5v602h-508v-889h-168v889h-487v-889h-168v889h-164v125h311v4q-74 40 -116.5 109t-42.5 153q0 150 95.5 233.5t264.5 83.5q114 0 189 -38l-25 -129
q-55 28 -129 28q-111 0 -169 -56t-58 -159v-229h647v4q-74 40 -117 109t-43 153q0 150 96 233.5t265 83.5q113 0 188 -38l-25 -129q-55 28 -129 28q-111 0 -169 -56t-58 -159v-229h533v352h167v-86q0 -84 -42.5 -153t-116.5 -109v-4h493v-125z" />
    <glyph glyph-name="f_h" horiz-adv-x="1953" 
d="M598 1458q-111 0 -169 -56t-58 -159v-229h358v-125h-346v-889h-168v889h-164v125h311v4q-74 40 -116.5 109t-42.5 153q0 150 95.5 233.5t264.5 83.5q114 0 189 -38l-25 -129q-55 28 -129 28zM1438 1034q173 0 269.5 -106t96.5 -297v-631h-168v627q0 128 -67.5 199
t-190.5 71q-136 0 -212 -90.5t-76 -251.5v-555h-168v1577h168v-911h4q0 173 91.5 270.5t252.5 97.5z" />
    <glyph glyph-name="f_iacute" horiz-adv-x="1226" 
d="M1069 1014v-1014h-168v889h-518v-889h-168v889h-164v125h311v4q-74 40 -116.5 109t-42.5 153q0 150 95.5 233.5t264.5 83.5q114 0 189 -38l-25 -129q-55 28 -129 28q-111 0 -169 -56t-58 -159v-229h698zM1264 1393l-363 -183l-51 95l356 192z" />
    <glyph glyph-name="f_j" horiz-adv-x="1226" 
d="M1069 1014v-1485h-168v1360h-518v-889h-168v889h-164v125h311v4q-74 40 -116.5 109t-42.5 153q0 150 95.5 233.5t264.5 83.5q114 0 189 -38l-25 -129q-55 28 -129 28q-111 0 -169 -56t-58 -159v-229h698zM901 1454h168v-215h-168v215z" />
    <glyph glyph-name="f_k" horiz-adv-x="1886" 
d="M598 1458q-111 0 -169 -56t-58 -159v-229h358v-125h-346v-889h-168v889h-164v125h311v4q-74 40 -116.5 109t-42.5 153q0 150 95.5 233.5t264.5 83.5q114 0 189 -38l-25 -129q-55 28 -129 28zM1290 530l590 -530h-223l-563 518h-4v-518h-168v1577h168v-1040h4l530 477h215
z" />
    <glyph glyph-name="f_t" horiz-adv-x="1447" 
d="M1405 889h-346v-592q0 -85 48 -131.5t136 -46.5q78 0 146 33v-132q-85 -40 -199 -40q-141 0 -220 80.5t-79 226.5v602h-508v-889h-168v889h-164v125h311v4q-74 40 -116.5 109t-42.5 153q0 150 95.5 233.5t264.5 83.5q114 0 189 -38l-25 -129q-55 28 -129 28
q-111 0 -169 -56t-58 -159v-229h532v352h168v-86q0 -84 -43 -153t-117 -109v-4h494v-125z" />
    <glyph glyph-name="t_t" horiz-adv-x="1478" 
d="M1090 889v-592q0 -85 48 -131.5t136 -46.5q77 0 145 33v-132q-85 -40 -198 -40q-141 0 -220 80.5t-79 226.5v602h-543v-592q0 -85 48 -131.5t136 -46.5q78 0 146 33v-132q-85 -40 -199 -40q-141 0 -220 80.5t-79 226.5v602h-164v125h176v352h168v-86q0 -84 -43 -153
t-117 -109v-4h703v352h168v-86q0 -84 -43 -153t-117 -109v-4h494v-125h-346z" />
    <glyph glyph-name="zero.lf" horiz-adv-x="1325" 
d="M664 -20q-259 0 -404 205.5t-145 572.5t145 572.5t404 205.5q258 0 403 -205.5t145 -572.5t-145 -572.5t-403 -205.5zM664 129q173 0 270.5 166.5t97.5 462.5t-97.5 462t-270.5 166q-175 0 -272 -165.5t-97 -462.5t97 -463t272 -166z" />
    <glyph glyph-name="one.lf" horiz-adv-x="708" 
d="M340 1516h176v-1516h-176v1450h-4q0 -136 -75.5 -212.5t-207.5 -76.5v154q135 0 211 53.5t76 147.5z" />
    <glyph glyph-name="two.lf" horiz-adv-x="1228" 
d="M172 143h965v-143h-1049v133q389 110 606 347t217 550q0 167 -81 261.5t-226 94.5q-147 0 -234 -105t-96 -294h-170q12 258 145 403.5t359 145.5q230 0 360 -134.5t130 -373.5q0 -350 -244 -582.5t-682 -298.5v-4z" />
    <glyph glyph-name="three.lf" horiz-adv-x="1230" 
d="M598 844q246 0 385 -112.5t139 -313.5q0 -206 -139 -322t-389 -116q-226 0 -359 129.5t-143 361.5h170q6 -163 94 -254.5t240 -91.5q163 0 253.5 77.5t90.5 215.5t-94 215.5t-264 77.5h-43v137q169 20 263.5 96t94.5 193q0 120 -80 187t-223 67q-135 0 -216.5 -93.5
t-90.5 -257.5h-166q12 233 142.5 364.5t350.5 131.5q219 0 341 -93t122 -257q0 -160 -128.5 -249t-358.5 -89v-4h8z" />
    <glyph glyph-name="four.lf" horiz-adv-x="1224" 
d="M1159 537v-144h-196v-393h-177v393h-733v156l578 967h332v-979h196zM786 1499l-565 -958v-4h570v962h-5z" />
    <glyph glyph-name="five.lf" 
d="M616 -20q-218 0 -355.5 116.5t-162.5 323.5h174q22 -137 112.5 -214t229.5 -77q166 0 259.5 96.5t93.5 268.5t-91.5 269t-254.5 97q-133 0 -218 -69.5t-122 -190.5l-170 23l116 893h807v-144h-647l-104 -733h4q29 169 137.5 264.5t273.5 95.5q212 0 331.5 -132
t119.5 -365q0 -246 -141 -384t-392 -138z" />
    <glyph glyph-name="six.lf" horiz-adv-x="1296" 
d="M729 975q219 0 341 -125t122 -350q0 -243 -144.5 -381.5t-385.5 -138.5q-547 0 -547 731q0 389 150.5 607t418.5 218q207 0 332.5 -116.5t140.5 -325.5h-172q-12 138 -91.5 215t-209.5 77q-185 0 -289 -174.5t-104 -484.5v-147h4q0 186 115 290.5t319 104.5zM653 129
q169 0 264 95t95 265q0 162 -95 252t-264 90q-166 0 -259 -85.5t-93 -239.5q0 -172 98 -274.5t254 -102.5z" />
    <glyph glyph-name="seven.lf" horiz-adv-x="1095" 
d="M29 1516h1030v-134q-157 -40 -270.5 -197t-173.5 -415.5t-60 -595.5v-174h-184v143q0 535 162 859.5t450 365.5v4h-954v144z" />
    <glyph glyph-name="eight.lf" horiz-adv-x="1282" 
d="M780 850q188 -29 291 -140.5t103 -285.5q0 -210 -141 -327t-392 -117t-391.5 117t-140.5 327q0 174 103 285.5t290 140.5v4q-162 0 -253 83.5t-91 233.5q0 171 128 268t355 97t355 -97t128 -268q0 -149 -91.5 -233t-252.5 -84v-4zM338 1114q0 -131 80.5 -204.5
t222.5 -73.5t222.5 73.5t80.5 204.5q0 129 -80 200.5t-223 71.5t-223 -71.5t-80 -200.5zM641 129q166 0 259 78t93 217t-93 217t-259 78t-259 -78t-93 -217t93 -217t259 -78z" />
    <glyph glyph-name="nine.lf" horiz-adv-x="1294" 
d="M639 1536q541 0 541 -731q0 -389 -151 -607t-419 -218q-209 0 -333.5 127.5t-139.5 355.5h172q10 -158 90 -246t211 -88q184 0 287.5 174t103.5 485v168h-4q0 -177 -114.5 -275.5t-317.5 -98.5q-220 0 -341.5 119.5t-121.5 334.5q0 234 146.5 367t390.5 133zM639 725
q166 0 260 80.5t94 224.5q0 163 -98 259.5t-256 96.5q-168 0 -262 -89t-94 -250q0 -153 94 -237.5t262 -84.5z" />
    <glyph glyph-name="zero.osf" horiz-adv-x="1296" 
d="M649 -20q-253 0 -394.5 158.5t-141.5 441.5q0 282 141.5 440t394.5 158t395 -158t142 -440q0 -283 -142 -441.5t-395 -158.5zM649 119q172 0 268.5 121.5t96.5 339.5q0 217 -96.5 338.5t-268.5 121.5q-173 0 -269.5 -121.5t-96.5 -338.5q0 -218 96.5 -339.5t269.5 -121.5
z" />
    <glyph glyph-name="one.osf" horiz-adv-x="694" 
d="M342 1157h168v-1157h-168v1092h-4q0 -129 -73 -202t-202 -73v141q131 0 205 52.5t74 146.5z" />
    <glyph glyph-name="two.osf" horiz-adv-x="1198" 
d="M162 131h944v-131h-1014v123q380 123 593.5 299.5t213.5 368.5q0 119 -80 185t-225 66q-143 0 -228 -79.5t-94 -221.5h-161q10 207 138 322t345 115q223 0 348 -102t125 -285q0 -235 -240 -408.5t-665 -247.5v-4z" />
    <glyph glyph-name="three.osf" horiz-adv-x="1200" 
d="M571 557q246 0 385.5 -105t139.5 -292q0 -190 -139.5 -298t-387.5 -108q-218 0 -346.5 118.5t-138.5 330.5h160q8 -147 94 -230.5t233 -83.5q166 0 259.5 72t93.5 199q0 132 -95 204t-266 72h-41v125q169 15 264 83.5t95 174.5t-80 164.5t-223 58.5q-135 0 -217 -81.5
t-91 -227.5h-157q12 209 137.5 327t335.5 118q220 0 342.5 -85t122.5 -237q0 -139 -127 -217t-353 -78v-4z" />
    <glyph glyph-name="four.osf" horiz-adv-x="1196" 
d="M1139 131v-131h-197v-225h-168v225h-715v145l562 1014h321v-1028h197zM774 1141l-549 -1006v-4h553v1010h-4z" />
    <glyph glyph-name="five.osf" horiz-adv-x="1239" 
d="M612 -246q-218 0 -355 105t-163 293h164q23 -122 116.5 -190t237.5 -68q170 0 265.5 90.5t95.5 253.5q0 160 -92 248.5t-258 88.5q-139 0 -228.5 -62.5t-128.5 -170.5l-160 23l115 792h832v-129h-680l-107 -655h4q32 157 144 245.5t276 88.5q215 0 335 -124t120 -345
q0 -227 -141.5 -355.5t-391.5 -128.5z" />
    <glyph glyph-name="six.osf" horiz-adv-x="1294" 
d="M731 946q220 0 342.5 -124t122.5 -345q0 -232 -144.5 -364.5t-385.5 -132.5q-286 0 -420.5 177.5t-134.5 549.5t151.5 580t421.5 208q211 0 336.5 -111t140.5 -311h-162q-10 133 -93.5 208t-221.5 75q-189 0 -296 -171.5t-107 -477.5v-150h4q0 183 119.5 286t326.5 103z
M657 119q174 0 271.5 91.5t97.5 256.5q0 164 -97.5 255t-271.5 91q-172 0 -270 -88t-98 -244q0 -166 102 -264t266 -98z" />
    <glyph glyph-name="seven.osf" horiz-adv-x="1105" 
d="M57 1157h990v-121q-247 -67 -386 -400.5t-139 -860.5h-180q0 538 167 867.5t466 381.5v4h-918v129z" />
    <glyph glyph-name="eight.osf" horiz-adv-x="1290" 
d="M776 823q195 -26 303.5 -133.5t108.5 -275.5q0 -205 -143.5 -319.5t-399.5 -114.5t-399.5 114.5t-143.5 319.5q0 168 108 275.5t302 133.5v4q-169 0 -264.5 81t-95.5 225q0 170 130.5 266t362.5 96t363 -96t131 -266q0 -144 -96 -225t-267 -81v-4zM322 1083
q0 -127 85 -197.5t238 -70.5q151 0 236.5 70.5t85.5 197.5q0 129 -85.5 201t-236.5 72q-152 0 -237.5 -72t-85.5 -201zM645 119q174 0 272.5 78t98.5 217q0 138 -98.5 215.5t-272.5 77.5t-272.5 -77.5t-98.5 -215.5q0 -139 98.5 -217t272.5 -78z" />
    <glyph glyph-name="nine.osf" horiz-adv-x="1294" 
d="M627 1178q286 0 421.5 -168t135.5 -518q0 -347 -153 -542.5t-423 -195.5q-209 0 -335.5 102t-141.5 283h162q10 -115 94 -180t221 -65q191 0 297.5 162t106.5 452v113h-4q0 -174 -120 -271.5t-327 -97.5q-220 0 -342.5 118t-122.5 330q0 223 145 350.5t386 127.5z
M635 385q173 0 271 82t98 229q0 157 -102.5 249.5t-266.5 92.5q-173 0 -271 -85.5t-98 -241.5q0 -154 98 -240t271 -86z" />
    <glyph glyph-name="zero.dnom" horiz-adv-x="813" 
d="M406 -12q-158 0 -248 124t-90 343t90 343t248 124q160 0 249.5 -123.5t89.5 -343.5t-89.5 -343.5t-249.5 -123.5zM406 98q96 0 149 94.5t53 262.5t-53 262t-149 94q-94 0 -147.5 -94.5t-53.5 -261.5t53.5 -262t147.5 -95z" />
    <glyph glyph-name="one.dnom" horiz-adv-x="471" 
d="M213 909h135v-909h-135v866h-4q0 -95 -46 -147.5t-128 -52.5v116q83 0 130.5 33.5t47.5 93.5z" />
    <glyph glyph-name="two.dnom" horiz-adv-x="759" 
d="M106 106h596v-106h-645v100q226 71 353 208t127 310q0 90 -43.5 141.5t-118.5 51.5q-78 0 -125 -58.5t-51 -162.5h-131q9 157 90 244.5t219 87.5q145 0 224 -81t79 -227q0 -201 -152 -334.5t-422 -168.5v-5z" />
    <glyph glyph-name="three.dnom" horiz-adv-x="755" 
d="M375 514q149 0 233 -68t84 -188q0 -128 -85.5 -199t-239.5 -71q-139 0 -221.5 78.5t-90.5 218.5h129q5 -88 52.5 -138.5t130.5 -50.5q88 0 137 43t49 119q0 74 -51.5 117t-143.5 43h-24v98q91 11 141.5 52.5t50.5 105.5q0 66 -42 102.5t-117 36.5q-73 0 -117 -50.5
t-49 -139.5h-129q9 140 90 219.5t217 79.5q134 0 210.5 -55.5t76.5 -151.5q0 -92 -79 -144.5t-218 -52.5v-4h6z" />
    <glyph glyph-name="four.dnom" horiz-adv-x="770" 
d="M727 332v-107h-119v-225h-135v225h-436v115l317 569h254v-577h119zM473 897l-309 -561v-4h313v565h-4z" />
    <glyph glyph-name="five.dnom" horiz-adv-x="759" 
d="M377 -12q-135 0 -220 71t-100 197h133q12 -74 62 -116t125 -42q91 0 141.5 52.5t50.5 146.5q0 95 -49.5 148t-140.5 53q-69 0 -115.5 -38t-66.5 -102l-131 17l71 534h502v-106h-383l-61 -422h4q17 103 82.5 161t164.5 58q123 0 193 -78.5t70 -216.5q0 -149 -87.5 -233
t-244.5 -84z" />
    <glyph glyph-name="six.dnom" horiz-adv-x="794" 
d="M463 586q129 0 200.5 -74.5t71.5 -208.5q0 -148 -90 -231.5t-242 -83.5q-166 0 -251.5 113t-85.5 331q0 231 93.5 360.5t260.5 129.5q129 0 206.5 -71.5t88.5 -197.5h-131q-8 75 -51 116.5t-113 41.5q-103 0 -161 -98t-58 -273v-90h4q0 109 68.5 172.5t189.5 63.5z
M399 98q92 0 144.5 52.5t52.5 144.5q0 87 -52 135.5t-145 48.5q-91 0 -141.5 -46.5t-50.5 -131.5q0 -93 52.5 -148t139.5 -55z" />
    <glyph glyph-name="seven.dnom" horiz-adv-x="679" 
d="M25 909h628v-100q-138 -38 -215.5 -227t-77.5 -486v-96h-141v74q0 321 101.5 512t283.5 213v4h-579v106z" />
    <glyph glyph-name="eight.dnom" horiz-adv-x="786" 
d="M471 520q121 -17 186.5 -84.5t65.5 -175.5q0 -128 -87.5 -200t-242.5 -72t-241 72t-86 200q0 108 65 175.5t184 84.5v4q-104 0 -162.5 48.5t-58.5 134.5q0 101 79 158t220 57t220 -57t79 -158q0 -86 -58.5 -134.5t-162.5 -48.5v-4zM231 664q0 -70 43.5 -110t118.5 -40
q76 0 119 39.5t43 110.5q0 69 -43 108t-119 39q-75 0 -118.5 -39t-43.5 -108zM393 98q89 0 139 43t50 119q0 78 -50 121t-139 43q-90 0 -140 -43t-50 -121q0 -76 50.5 -119t139.5 -43z" />
    <glyph glyph-name="nine.dnom" horiz-adv-x="794" 
d="M395 922q166 0 250 -114t84 -331q0 -230 -93.5 -359.5t-260.5 -129.5q-129 0 -206.5 78t-88.5 215h131q8 -86 51 -134.5t113 -48.5q103 0 161 98t58 273v102h-4q0 -104 -69 -163.5t-189 -59.5q-129 0 -201 71t-72 199q0 142 90.5 223t245.5 81zM395 455q91 0 142 44
t51 122q0 88 -53 139t-140 51q-93 0 -144.5 -48.5t-51.5 -135.5q0 -83 51.5 -127.5t144.5 -44.5z" />
    <glyph glyph-name="zero.numr" horiz-adv-x="813" 
d="M406 618q-158 0 -248 124t-90 343t90 343t248 124q160 0 249.5 -123.5t89.5 -343.5t-89.5 -343.5t-249.5 -123.5zM406 729q96 0 149 94t53 262t-53 262.5t-149 94.5q-94 0 -147.5 -95t-53.5 -262t53.5 -261.5t147.5 -94.5z" />
    <glyph glyph-name="one.numr" horiz-adv-x="471" 
d="M213 1540h135v-909h-135v866h-4q0 -95 -46 -148t-128 -53v117q83 0 130.5 33.5t47.5 93.5z" />
    <glyph glyph-name="two.numr" horiz-adv-x="759" 
d="M106 737h596v-106h-645v100q226 71 353 208t127 310q0 90 -43.5 141.5t-118.5 51.5q-78 0 -125 -58.5t-51 -162.5h-131q9 157 90 244t219 87q145 0 224 -80.5t79 -226.5q0 -201 -152 -335t-422 -169v-4z" />
    <glyph glyph-name="three.numr" horiz-adv-x="755" 
d="M373 1145q149 0 233 -68t84 -188q0 -128 -85.5 -199.5t-239.5 -71.5q-139 0 -221.5 78.5t-90.5 218.5h129q5 -88 52.5 -138t130.5 -50q88 0 137 43t49 119q0 74 -51.5 117t-143.5 43h-24v98q91 11 141.5 52.5t50.5 105.5q0 66 -42 102.5t-117 36.5q-73 0 -117 -51
t-49 -140h-129q9 140 90 219.5t217 79.5q134 0 210.5 -55t76.5 -151q0 -92 -79 -144.5t-218 -52.5v-4h6z" />
    <glyph glyph-name="four.numr" horiz-adv-x="770" 
d="M729 963v-107h-119v-225h-135v225h-436v115l317 569h254v-577h119zM475 1528l-309 -561v-4h313v565h-4z" />
    <glyph glyph-name="five.numr" horiz-adv-x="759" 
d="M377 618q-135 0 -220 71.5t-100 197.5h133q12 -74 62 -116t125 -42q91 0 141.5 52.5t50.5 146.5q0 95 -49.5 147.5t-140.5 52.5q-70 0 -116 -37.5t-66 -101.5l-131 17l71 534h502v-106h-383l-61 -422h4q17 103 82.5 161t164.5 58q123 0 193 -78.5t70 -216.5
q0 -149 -87.5 -233.5t-244.5 -84.5z" />
    <glyph glyph-name="six.numr" horiz-adv-x="794" 
d="M463 1217q129 0 200.5 -74.5t71.5 -208.5q0 -148 -90 -232t-242 -84q-166 0 -251.5 113.5t-85.5 331.5q0 230 93.5 359.5t260.5 129.5q129 0 206.5 -71t88.5 -197h-131q-8 75 -51 116.5t-113 41.5q-103 0 -161 -98t-58 -273v-90h4q0 109 68.5 172.5t189.5 63.5zM399 729
q92 0 144.5 52.5t52.5 144.5q0 87 -52 135.5t-145 48.5q-91 0 -141.5 -46.5t-50.5 -131.5q0 -93 52.5 -148t139.5 -55z" />
    <glyph glyph-name="seven.numr" horiz-adv-x="679" 
d="M27 1540h628v-100q-138 -38 -215.5 -227t-77.5 -486v-96h-141v74q0 321 101.5 512t283.5 213v4h-579v106z" />
    <glyph glyph-name="eight.numr" horiz-adv-x="786" 
d="M471 1151q121 -17 186.5 -84.5t65.5 -175.5q0 -128 -87.5 -200.5t-242.5 -72.5t-241 72.5t-86 200.5q0 108 65 175.5t184 84.5v4q-104 0 -162.5 48t-58.5 134q0 101 79 158t220 57t220 -57t79 -158q0 -86 -58.5 -134t-162.5 -48v-4zM231 1294q0 -70 43.5 -109.5
t118.5 -39.5q77 0 119.5 39.5t42.5 109.5q0 69 -43 108.5t-119 39.5q-75 0 -118.5 -39.5t-43.5 -108.5zM393 729q89 0 139 42.5t50 119.5q0 78 -50 121t-139 43q-90 0 -140 -43t-50 -121q0 -76 50.5 -119t139.5 -43z" />
    <glyph glyph-name="nine.numr" horiz-adv-x="794" 
d="M395 1552q166 0 250 -113.5t84 -330.5q0 -231 -93.5 -360.5t-260.5 -129.5q-129 0 -206.5 78t-88.5 215h131q8 -86 51 -134t113 -48q103 0 161 98t58 273v102h-4q0 -104 -69 -163.5t-189 -59.5q-129 0 -201 71t-72 199q0 142 90.5 222.5t245.5 80.5zM395 1085
q91 0 142 44t51 122q0 88 -53 139.5t-140 51.5q-92 0 -144 -48.5t-52 -136.5q0 -83 51.5 -127.5t144.5 -44.5z" />
    <glyph glyph-name="backslash.case" horiz-adv-x="749" 
d="M152 1577l536 -1610l-90 -28l-535 1609z" />
    <glyph glyph-name="exclamdown.case" horiz-adv-x="555" 
d="M174 1321v195h205v-195h-205zM201 1120h155l11 -1120h-177z" />
    <glyph glyph-name="questiondown.case" horiz-adv-x="1105" 
d="M719 1321h-203v195h203v-195zM1044 467q-12 -230 -138 -358.5t-341 -128.5q-220 0 -343.5 112t-123.5 309q0 159 113 348.5t315 370.5h166v-4q-193 -184 -301 -370t-108 -334q0 -132 75.5 -207.5t210.5 -75.5q137 0 219 89.5t89 248.5h167z" />
    <glyph glyph-name="slash.case" horiz-adv-x="749" 
d="M598 1577l88 -29l-534 -1609l-91 28z" />
    <glyph glyph-name="numbersign.osf" horiz-adv-x="1214" 
d="M1128 760h-213l-38 -332h206l-10 -78h-205l-41 -350h-98l39 350h-383l-41 -350h-98l41 350h-213l10 78h213l39 332h-207l10 78h205l37 309h98l-37 -309h383l37 309h99l-37 -309h215zM780 428l39 332h-387l-41 -332h389z" />
    <glyph glyph-name="braceleft.case" horiz-adv-x="569" 
d="M346 967q0 -155 -137 -209q137 -58 137 -211v-428q0 -59 35 -96t90 -37v-88q-100 0 -160.5 57t-60.5 151v429q0 85 -46.5 130.5t-131.5 45.5v92q85 0 131.5 45.5t46.5 130.5v430q0 94 60.5 151.5t160.5 57.5v-88q-55 0 -90 -37t-35 -96v-430z" />
    <glyph glyph-name="braceright.case" horiz-adv-x="569" 
d="M319 979q0 -84 47 -130t132 -46v-92q-85 0 -132 -46t-47 -130v-429q0 -94 -60.5 -151t-160.5 -57v88q55 0 90 37t35 96v428q0 153 137 211q-137 54 -137 209v430q0 59 -35 96t-90 37v88q100 0 160.5 -57.5t60.5 -151.5v-430z" />
    <glyph glyph-name="bracketleft.case" horiz-adv-x="632" 
d="M580 1530h-289v-1544h289v-88h-385v1720h385v-88z" />
    <glyph glyph-name="bracketright.case" horiz-adv-x="632" 
d="M438 1618v-1720h-385v88h289v1544h-289v88h385z" />
    <glyph glyph-name="parenleft.case" horiz-adv-x="538" 
d="M477 -68q-140 188 -205 401t-65 425q0 460 270 825l-76 55q-292 -396 -292 -880q0 -485 292 -881z" />
    <glyph glyph-name="parenright.case" horiz-adv-x="538" 
d="M61 -68l76 -55q293 398 293 881q0 482 -293 880l-76 -55q141 -190 206 -401.5t65 -423.5q0 -211 -65.5 -424.5t-205.5 -401.5z" />
    <glyph glyph-name="emdash.case" horiz-adv-x="1781" 
d="M143 780h1495v-80h-1495v80z" />
    <glyph glyph-name="endash.case" horiz-adv-x="1200" 
d="M143 780h914v-80h-914v80z" />
    <glyph glyph-name="hyphen.case" horiz-adv-x="833" 
d="M143 780h549v-80h-549v80z" />
    <glyph glyph-name="uni00AD.case" horiz-adv-x="833" 
d="M143 780h549v-80h-549v80z" />
    <glyph glyph-name="guillemotleft.case" horiz-adv-x="931" 
d="M100 737l262 396h103l-258 -396l258 -395h-103zM428 737l262 396h103l-258 -396l258 -395h-103z" />
    <glyph glyph-name="guillemotright.case" horiz-adv-x="931" 
d="M504 737l-262 -395h-103l258 395l-258 396h103zM831 737l-262 -395h-102l258 395l-258 396h102z" />
    <glyph glyph-name="guilsinglleft.case" horiz-adv-x="604" 
d="M100 737l262 396h103l-258 -396l258 -395h-103z" />
    <glyph glyph-name="guilsinglright.case" horiz-adv-x="604" 
d="M504 737l-262 -395h-103l258 395l-258 396h103z" />
    <glyph glyph-name="cent.osf" horiz-adv-x="1136" 
d="M1063 358q-32 -168 -141.5 -266t-280.5 -110v-207h-94v207q-211 14 -329 152t-118 374q0 234 118 372t329 152v191h94v-191q166 -12 274 -104t142 -250h-168q-29 93 -92.5 149t-155.5 68v-774q98 13 163 74t91 163h168zM272 508q0 -170 72 -271t203 -116v774
q-131 -15 -203 -116.5t-72 -270.5z" />
    <glyph glyph-name="dollar.osf" horiz-adv-x="1124" 
d="M1042 340q0 -159 -114 -252t-318 -102v-166h-94v166q-194 11 -308.5 116.5t-127.5 288.5h160q9 -118 81 -189t195 -83v422q-52 8 -84.5 13.5t-79.5 17.5t-77 26t-64 37t-53 51t-32 68.5t-13 89.5q0 152 105 237t298 93v163h94v-163q177 -12 282.5 -114t115.5 -274h-160
q-6 107 -69 172.5t-169 79.5v-372q42 -6 69 -11t67 -13.5t66.5 -17.5t60.5 -23t56 -30.5t45.5 -40t37 -50.5t22 -63t8.5 -77zM279 854q0 -42 17.5 -72.5t53.5 -49.5t72.5 -30t93.5 -22v360q-113 -6 -175 -54.5t-62 -131.5zM610 119q127 7 198 61.5t71 143.5q0 50 -20.5 86
t-61 58t-83 34.5t-104.5 23.5v-407z" />
    <glyph glyph-name="Euro.osf" horiz-adv-x="1146" 
d="M995 227l70 -112q-73 -61 -171.5 -96t-188.5 -35q-216 0 -349.5 123t-162.5 348h-115v69h108q-2 18 -2 58q0 39 2 57h-108v72h115q31 222 163.5 343.5t348.5 121.5q89 0 177.5 -24.5t155.5 -68.5l-67 -116q-109 75 -266 75q-139 0 -228 -85.5t-115 -243.5h459l-39 -74
h-428q-2 -18 -2 -57q0 -38 2 -56h365l-41 -71h-316q25 -160 114.5 -249t228.5 -89q73 0 150.5 28t139.5 82z" />
    <glyph glyph-name="sterling.osf" horiz-adv-x="1089" 
d="M137 131h860v-131h-893v125q193 123 193 321q0 34 -8 58h-164v82h135q-4 8 -29 61.5t-33.5 74t-19 61t-10.5 73.5q0 151 106.5 235.5t296.5 84.5q185 0 293.5 -101t118.5 -282h-156q-7 118 -74.5 183.5t-181.5 65.5q-109 0 -170 -50t-61 -142q0 -30 10.5 -66.5t23 -63
t33.5 -69.5t31 -65h361v-82h-334q6 -24 6 -49q0 -213 -334 -322v-2z" />
    <glyph glyph-name="yen.osf" horiz-adv-x="1191" 
d="M1120 1157l-348 -706h221v-68h-256l-45 -94h301v-72h-338l-106 -217h-182l104 217h-260v72h295l47 94h-342v68h209l-350 706h194l336 -696h4l336 696h180z" />
    <glyph glyph-name="plus.case" horiz-adv-x="946" 
d="M864 762v-82h-344v-350h-96v350h-342v82h342v350h94v-350h346z" />
    <glyph glyph-name="minus.case" horiz-adv-x="1064" 
d="M141 680v82h785v-82h-785z" />
    <glyph glyph-name="multiply.case" horiz-adv-x="964" 
d="M852 1012l-305 -303l305 -303l-66 -66l-305 305l-305 -305l-61 63l303 306l-303 303l61 65l307 -305l303 305z" />
    <glyph glyph-name="divide.case" horiz-adv-x="1058" 
d="M530 946q-32 0 -50.5 17.5t-18.5 48.5q0 32 18.5 49.5t50.5 17.5q70 0 70 -67q0 -31 -18.5 -48.5t-51.5 -17.5zM139 680v82h783v-82h-783zM530 362q-32 0 -50.5 16.5t-18.5 47.5q0 32 18.5 51t50.5 19q33 0 51.5 -18.5t18.5 -51.5q0 -64 -70 -64z" />
    <glyph glyph-name="equal.case" horiz-adv-x="1064" 
d="M141 825v82h785v-82h-785zM141 535v81h785v-81h-785z" />
    <glyph glyph-name="notequal.case" horiz-adv-x="1064" 
d="M926 825h-316l-61 -209h377v-81h-400l-96 -330h-90l96 330h-295v81h318l61 209h-379v82h404l90 312h90l-90 -312h291v-82z" />
    <glyph glyph-name="greater.case" horiz-adv-x="974" 
d="M133 1133l758 -332v-158l-758 -330v90l746 316v4l-746 319v91z" />
    <glyph glyph-name="less.case" horiz-adv-x="974" 
d="M840 1042l-746 -319v-4l746 -316v-90l-758 330v158l758 332v-91z" />
    <glyph glyph-name="greaterequal.case" horiz-adv-x="1101" 
d="M172 1229l782 -289v-156l-782 -286v90l770 270v4l-770 277v90zM170 229v82h784v-82h-784z" />
    <glyph glyph-name="lessequal.case" horiz-adv-x="1101" 
d="M932 588v-90l-782 286v156l782 289v-90l-770 -277v-4zM150 311h784v-82h-784v82z" />
    <glyph glyph-name="plusminus.case" horiz-adv-x="1073" 
d="M584 895h346v-82h-346v-326h-95v326h-344v82h344v328h95v-328zM145 229v82h785v-82h-785z" />
    <glyph glyph-name="logicalnot.case" horiz-adv-x="1056" 
d="M123 895h782v-356h-94v276h-688v80z" />
    <glyph glyph-name="percent.osf" horiz-adv-x="1368" 
d="M346 539q-123 0 -190.5 84t-67.5 235t67.5 235.5t190.5 84.5q124 0 193 -84.5t69 -235.5t-69 -235t-193 -84zM217 27l866 1151l64 -45l-864 -1153zM348 639q63 0 98 58t35 161t-35 161t-98 58q-64 0 -99.5 -58t-35.5 -161t35.5 -161t99.5 -58zM1018 -20q-123 0 -191.5 84
t-68.5 235t68.5 236.5t191.5 85.5t191.5 -85.5t68.5 -236.5t-68.5 -235t-191.5 -84zM1018 80q64 0 99.5 58t35.5 161t-35.5 161t-99.5 58q-63 0 -98 -58t-35 -161t35 -161t98 -58z" />
    <glyph glyph-name="perthousand.osf" horiz-adv-x="1955" 
d="M346 539q-123 0 -190.5 84t-67.5 235t67.5 235.5t190.5 84.5q124 0 193 -84.5t69 -235.5t-69 -235t-193 -84zM217 27l866 1151l64 -45l-864 -1153zM348 639q63 0 98 58t35 161t-35 161t-98 58q-64 0 -99.5 -58t-35.5 -161t35.5 -161t99.5 -58zM1018 -20q-123 0 -191.5 84
t-68.5 235t68.5 236.5t191.5 85.5t191.5 -85.5t68.5 -236.5t-68.5 -235t-191.5 -84zM1624 -20q-123 0 -191.5 84t-68.5 235t68.5 236.5t191.5 85.5t191.5 -85.5t68.5 -236.5t-68.5 -235t-191.5 -84zM1018 80q64 0 99.5 58t35.5 161t-35.5 161t-99.5 58q-63 0 -98 -58
t-35 -161t35 -161t98 -58zM1624 80q64 0 99.5 58t35.5 161t-35.5 161t-99.5 58q-63 0 -99 -58t-36 -161t36 -161t99 -58z" />
    </font>
</defs>
</svg>
