<?xml version="1.0" standalone="no"?>
<!DOCTYPE svg PUBLIC "-//W3C//DTD SVG 1.1//EN" "http://www.w3.org/Graphics/SVG/1.1/DTD/svg11.dtd" >
<svg xmlns="http://www.w3.org/2000/svg" xmlns:xlink="http://www.w3.org/1999/xlink" version="1.1">
<metadata>
Created by FontForge 20170731 at Fri May 28 20:14:05 2021
 By Aleksey,,,
Copyright (c) 2017 by Alberto Romanos. All rights reserved.
</metadata>
<defs>
<font id="BwGradualDEMO-BlackItalic" horiz-adv-x="1308" >
  <font-face 
    font-family="Bw Gradual DEMO Black Italic"
    font-weight="900"
    font-style="italic"
    font-stretch="normal"
    units-per-em="2048"
    panose-1="0 0 10 0 0 0 0 0 0 0"
    ascent="1577"
    descent="-471"
    x-height="1049"
    cap-height="1516"
    bbox="-1602 -492 2521 2140"
    underline-thickness="102"
    underline-position="-307"
    slope="-10"
    unicode-range="U+000D-FB02"
  />
<missing-glyph horiz-adv-x="2609" 
d="M2486 756l-753 -762q-14 -14 -35 -14q-41 0 -41 47v663l-694 -696q-14 -14 -35 -14q-41 0 -41 47v663l-697 -696q-14 -14 -34 -14q-15 0 -25 10.5t-10 25.5q0 21 10 31l700 698h-663q-47 0 -47 39q0 16 14 33l696 701h-669q-41 0 -41 38v3q0 38 41 38h758q47 0 47 -41
q0 -20 -17 -34l-698 -697h676q17 0 29 -12t12 -29v-669l694 692q13 16 35 16q37 0 37 -45v-663l696 692q13 16 33 16q15 0 25 -12t10 -27q0 -18 -13 -28z" />
    <glyph glyph-name="fi" unicode="fi" horiz-adv-x="1515" 
d="M672 1049h837l-184 -1049h-410l138 776h-410l-137 -776h-410l135 776h-143l47 273h524l3 4q-172 0 -266.5 55t-94.5 154q0 154 138.5 244.5t375.5 90.5q133 0 238 -43l-105 -299q-35 21 -82 21q-73 0 -121.5 -41t-60.5 -113zM1182 1516h409l-53 -312h-410z" />
    <glyph glyph-name="fl" unicode="fl" horiz-adv-x="1478" 
d="M903 776h-260l-137 -776h-410l135 776h-143l47 273h524l3 4q-172 0 -266.5 55t-94.5 154q0 154 138.5 244.5t375.5 90.5q133 0 238 -43l-105 -299q-35 21 -82 21q-73 0 -121.5 -41t-60.5 -113l-12 -73h278zM1157 1577h410l-279 -1577h-409z" />
    <glyph glyph-name="f_f" unicode="ff" horiz-adv-x="1630" 
d="M1624 1276q-73 0 -121.5 -41t-60.5 -113l-12 -73h278l-47 -273h-260l-137 -776h-410l135 776h-346l-137 -776h-410l135 776h-143l47 273h524l3 4q-172 0 -266.5 55t-94.5 154q0 154 138.5 244.5t375.5 90.5q133 0 238 -43l-105 -299q-35 21 -82 21q-73 0 -121.5 -41
t-60.5 -113l-12 -73h745l2 4q-172 0 -266 55t-94 154q0 154 138.5 244.5t375.5 90.5q163 0 295 -63l-105 -299q-50 41 -139 41z" />
    <glyph glyph-name="f_f_i" unicode="ffi" horiz-adv-x="2275" 
d="M1432 1049h837l-184 -1049h-410l137 776h-409l-137 -776h-410l135 776h-348l-137 -776h-410l135 776h-143l47 273h524l3 4q-172 0 -266.5 55t-94.5 154q0 154 138.5 244.5t375.5 90.5q133 0 238 -43l-105 -299q-35 21 -82 21q-73 0 -121.5 -41t-60.5 -113l-12 -73h747
l2 4q-172 0 -266 55t-94 154q0 154 138.5 244.5t375.5 90.5q132 0 237 -43l-104 -299q-34 21 -82 21q-73 0 -121.5 -41t-60.5 -113zM1942 1516h409l-53 -312h-410z" />
    <glyph glyph-name="f_f_l" unicode="ffl" horiz-adv-x="2236" 
d="M1661 776h-260l-137 -776h-410l135 776h-346l-137 -776h-410l135 776h-143l47 273h524l3 4q-172 0 -266.5 55t-94.5 154q0 154 138.5 244.5t375.5 90.5q133 0 238 -43l-105 -299q-35 21 -82 21q-73 0 -121.5 -41t-60.5 -113l-12 -73h745l2 4q-172 0 -266 55t-94 154
q0 154 138.5 244.5t375.5 90.5q132 0 237 -43l-104 -299q-34 21 -82 21q-73 0 -121.5 -41t-60.5 -113l-12 -73h278zM1915 1577h409l-278 -1577h-410z" />
    <glyph glyph-name=".notdef" horiz-adv-x="2609" 
d="M2486 756l-753 -762q-14 -14 -35 -14q-41 0 -41 47v663l-694 -696q-14 -14 -35 -14q-41 0 -41 47v663l-697 -696q-14 -14 -34 -14q-15 0 -25 10.5t-10 25.5q0 21 10 31l700 698h-663q-47 0 -47 39q0 16 14 33l696 701h-669q-41 0 -41 38v3q0 38 41 38h758q47 0 47 -41
q0 -20 -17 -34l-698 -697h676q17 0 29 -12t12 -29v-669l694 692q13 16 35 16q37 0 37 -45v-663l696 692q13 16 33 16q15 0 25 -12t10 -27q0 -18 -13 -28z" />
    <glyph glyph-name=".null" horiz-adv-x="0" 
 />
    <glyph glyph-name="nonmarkingreturn" horiz-adv-x="682" 
 />
    <glyph glyph-name="CR" unicode="&#xd;" horiz-adv-x="387" 
 />
    <glyph glyph-name="space" unicode=" " horiz-adv-x="387" 
 />
    <glyph glyph-name="exclam" unicode="!" horiz-adv-x="667" 
d="M143 567l156 949h418l-176 -949h-398zM96 420h436l-73 -420h-436z" />
    <glyph glyph-name="quotedbl" unicode="&#x22;" horiz-adv-x="1024" 
d="M270 1577h373l-98 -557h-373zM752 1577h372l-98 -557h-373z" />
    <glyph glyph-name="numbersign" unicode="#" horiz-adv-x="1351" 
d="M1380 1026h-264l-135 -487h260l-31 -103h-258l-121 -436h-108l123 436h-455l-123 -436h-108l123 436h-248l28 103h248l138 487h-246l30 102h244l109 388h108l-106 -388h450l105 388h108l-106 -388h266zM872 541l138 485h-451l-139 -485h452z" />
    <glyph glyph-name="dollar" unicode="$" horiz-adv-x="1472" 
d="M1450 993h-424v25q0 141 -119 176l-43 -240q13 0 33 -4q66 -10 101.5 -15.5t99 -20.5t99.5 -31t83 -44.5t72 -63t43 -85t18 -112.5q0 -261 -194.5 -423t-526.5 -175l-37 -209h-112l37 211q-248 15 -384.5 149t-136.5 365v51h424v-15q0 -85 41 -140.5t115 -72.5l51 283h-8
q-190 26 -275 57q-194 71 -220 245q-5 30 -5 63q0 259 178.5 407t493.5 160l37 207h113l-37 -207q230 -13 356.5 -144t126.5 -354v-43zM631 1069q0 -68 125 -94l41 227q-78 -8 -122 -43t-44 -90zM963 471q0 47 -42 72.5t-122 40.5l-47 -271q99 8 155 49.5t56 108.5z" />
    <glyph glyph-name="percent" unicode="%" horiz-adv-x="1603" 
d="M162 37l1304 1499l70 -57l-1305 -1499zM438 737q-137 0 -212.5 79.5t-75.5 219.5q0 207 115.5 333t307.5 126q139 0 215 -79.5t76 -219.5q0 -207 -116.5 -333t-309.5 -126zM481 961q30 0 52 36.5t32 85.5t10 99q0 90 -40 90q-42 0 -69.5 -67.5t-27.5 -151.5q0 -92 43 -92
zM1104 -20q-137 0 -214 79.5t-77 219.5q0 207 116.5 332.5t307.5 125.5q140 0 216.5 -79t76.5 -220q0 -207 -116.5 -332.5t-309.5 -125.5zM1143 203q31 0 54 36.5t32.5 85.5t9.5 99q0 90 -41 90q-42 0 -69 -67t-27 -152q0 -92 41 -92z" />
    <glyph glyph-name="ampersand" unicode="&#x26;" horiz-adv-x="1736" 
d="M1747 856q-132 -229 -295 -412l225 -223l-262 -241l-219 229q-307 -229 -623 -229q-259 0 -400.5 106t-141.5 295q0 255 244 398q110 64 337 134q10 3 29 8l2 1q134 40 182 61q-242 0 -375 58t-133 161q0 152 163 243t444 91q234 0 361.5 -85.5t127.5 -246.5
q0 -62 -19 -117.5t-46 -97t-77.5 -82t-90 -66t-109.5 -57.5t-110 -48t-116 -44q-11 -4 -16 -6q-183 -69 -242 -103q-116 -65 -116 -147q0 -59 53.5 -92t149.5 -33q204 0 414 175t380 487zM719 1083q0 -45 31 -70.5t86 -25.5q131 57 131 137q0 38 -26.5 59t-74.5 21
q-69 0 -108 -32t-39 -89z" />
    <glyph glyph-name="quotesingle" unicode="'" horiz-adv-x="542" 
d="M270 1577h373l-98 -557h-373z" />
    <glyph glyph-name="parenleft" unicode="(" horiz-adv-x="561" 
d="M412 -430q-130 143 -193 356.5t-63 425.5q0 144 34.5 294.5t105 305t189 306.5t273.5 278l-76 61q-215 -180 -361 -394t-214 -429t-68 -432q0 -227 68 -449.5t206 -384.5z" />
    <glyph glyph-name="parenright" unicode=")" horiz-adv-x="561" 
d="M-186 -430l77 -62q318 268 479.5 596t161.5 660q0 226 -68 448.5t-204 384.5l-100 -61q89 -101 148.5 -239t83.5 -272t24 -269q0 -144 -35.5 -297t-106.5 -308.5t-189 -307t-271 -273.5z" />
    <glyph glyph-name="asterisk" unicode="*" horiz-adv-x="831" 
d="M778 1139q-138 0 -227 98l-6 -2l137 -248l-184 -121q-39 73 -39 164q0 105 69 205l-2 2l-225 -248l-145 119q140 149 317 149q17 0 49 -4l2 7l-272 94l94 194q91 -34 142.5 -106t52.5 -170h4l55 305h203q-17 -100 -81.5 -183.5t-160.5 -133.5l-2 -5l307 95l31 -193
q-62 -18 -119 -18z" />
    <glyph glyph-name="plus" unicode="+" horiz-adv-x="1015" 
d="M977 567l-19 -102h-405l-74 -410h-110l71 410h-403l18 102h402l71 410h115l-74 -410h408z" />
    <glyph glyph-name="comma" unicode="," horiz-adv-x="618" 
d="M74 420h436l-59 -342q-37 -209 -174.5 -331t-344.5 -128l35 193q164 0 279.5 48.5t169.5 139.5h-416z" />
    <glyph glyph-name="hyphen" unicode="-" horiz-adv-x="907" 
d="M104 584h721l-18 -103h-721z" />
    <glyph glyph-name="period" unicode="." horiz-adv-x="616" 
d="M74 420h436l-74 -420h-436z" />
    <glyph glyph-name="slash" unicode="/" horiz-adv-x="882" 
d="M930 1638l100 -41l-1022 -1884l-100 41z" />
    <glyph glyph-name="zero" unicode="0" horiz-adv-x="1431" 
d="M621 -20q-249 0 -385 157.5t-136 440.5t98 500.5t278.5 337.5t418.5 120q250 0 385 -157.5t135 -440.5t-97.5 -500.5t-278 -337.5t-418.5 -120zM680 311q84 0 152 88t104.5 228t36.5 299q0 131 -35 204.5t-100 73.5q-85 0 -153.5 -87.5t-105 -227.5t-36.5 -299
q0 -131 35.5 -205t101.5 -74z" />
    <glyph glyph-name="one" unicode="1" horiz-adv-x="929" 
d="M537 1516h428l-267 -1516h-428l252 1430h-4q-46 -259 -157 -404t-263 -145l66 372q155 0 253 69.5t120 193.5z" />
    <glyph glyph-name="two" unicode="2" horiz-adv-x="1329" 
d="M92 328v-4h1137l-58 -324h-1198l56 313q388 162 607.5 364t219.5 400q0 59 -24 93t-68 34q-64 0 -115.5 -62.5t-79.5 -172.5h-411q69 267 247.5 417t430.5 150q235 0 362 -111.5t127 -312.5q0 -224 -149.5 -393t-426 -268.5t-657.5 -122.5z" />
    <glyph glyph-name="three" unicode="3" 
d="M1323 1249q0 -155 -159.5 -245.5t-434.5 -90.5v-4h31q228 0 352.5 -97t124.5 -271q0 -256 -191.5 -408.5t-519.5 -152.5q-234 0 -361.5 120.5t-127.5 339.5q0 38 2 58h414q-2 -16 -2 -37q0 -71 37 -110.5t104 -39.5q90 0 143 51.5t53 135.5q0 63 -41.5 98t-119.5 35h-33
l49 282q97 0 153 49t56 134q0 51 -28.5 79.5t-80.5 28.5q-61 0 -107.5 -49t-68.5 -137h-403q66 245 242 381.5t428 136.5q231 0 360 -79.5t129 -207.5z" />
    <glyph glyph-name="four" unicode="4" horiz-adv-x="1427" 
d="M1386 623l-57 -324h-196l-54 -299h-428l51 299h-694l60 340l491 877h787l-158 -893h198zM446 627v-4h326l152 860h-4z" />
    <glyph glyph-name="five" unicode="5" horiz-adv-x="1339" 
d="M559 -20q-245 0 -379.5 115t-134.5 321v39h420q0 -67 40 -105.5t111 -38.5q99 0 159.5 63.5t60.5 166.5q0 71 -38 111t-108 40q-59 0 -109 -28.5t-81 -79.5l-402 53l271 879h974l-55 -324h-602l-178 -580h4q63 181 187 282t284 101q150 0 230.5 -93.5t80.5 -262.5
q0 -302 -198.5 -480.5t-536.5 -178.5z" />
    <glyph glyph-name="six" unicode="6" horiz-adv-x="1423" 
d="M1413 1069h-414v6q0 61 -34.5 95t-98.5 34q-112 0 -195 -117.5t-120 -328.5l-27 -158h4q31 175 159.5 274t326.5 99q169 0 259.5 -91t90.5 -255q0 -295 -204.5 -471t-551.5 -176q-244 0 -376 156.5t-132 436.5q0 288 100.5 506t288 337.5t435.5 119.5q234 0 362.5 -112
t128.5 -314q0 -16 -2 -41zM729 666q-108 0 -172.5 -53.5t-64.5 -147.5q0 -73 46 -113.5t130 -40.5q108 0 173.5 59t65.5 156q0 66 -46.5 103t-131.5 37z" />
    <glyph glyph-name="seven" unicode="7" horiz-adv-x="1193" 
d="M199 1516h1136l-53 -314q-218 -75 -384.5 -368t-244.5 -740l-16 -94h-442l6 33q102 546 365 850.5t640 304.5v4h-1063z" />
    <glyph glyph-name="eight" unicode="8" horiz-adv-x="1366" 
d="M1374 1255q0 -141 -141.5 -222t-384.5 -81v-4q215 -15 331.5 -118.5t116.5 -274.5q0 -263 -191.5 -419t-518.5 -156q-255 0 -394 109.5t-139 307.5q0 238 164 383.5t451 167.5v4q-204 0 -317 62.5t-113 173.5q0 160 167 254t455 94q245 0 379.5 -74t134.5 -207zM649 1038
q0 -50 28 -78t77 -28q69 0 110 45t41 119q0 51 -26.5 79.5t-75.5 28.5q-69 0 -111.5 -45.5t-42.5 -120.5zM645 311q92 0 147.5 55t55.5 146q0 64 -37.5 99.5t-105.5 35.5q-93 0 -149 -55t-56 -146q0 -63 38 -99t107 -36z" />
    <glyph glyph-name="nine" unicode="9" horiz-adv-x="1421" 
d="M895 1536q245 0 377.5 -156.5t132.5 -437.5q0 -288 -100.5 -506t-288 -337t-436.5 -119q-230 0 -357 118t-127 332q0 37 2 57h414v-6q0 -79 33 -124.5t94 -45.5q112 0 194 117.5t119 329.5l33 178h-4q-29 -166 -157 -259t-326 -93q-169 0 -262 87.5t-93 243.5
q0 284 203 452.5t549 168.5zM782 891q107 0 170.5 46t63.5 128q0 66 -46.5 102.5t-131.5 36.5q-108 0 -173 -51t-65 -137q0 -60 47.5 -92.5t134.5 -32.5z" />
    <glyph glyph-name="colon" unicode=":" horiz-adv-x="620" 
d="M184 1049h437l-74 -420h-436zM74 420h436l-74 -420h-436z" />
    <glyph glyph-name="semicolon" unicode=";" horiz-adv-x="624" 
d="M186 1049h437l-74 -420h-436zM4 0l74 420h436l-59 -342q-37 -209 -174 -331t-344 -128l34 193q164 0 279.5 48.5t169.5 139.5h-416z" />
    <glyph glyph-name="less" unicode="&#x3c;" horiz-adv-x="944" 
d="M930 868l-869 -350l-2 -4l746 -346l-19 -113l-755 361l16 96l19 106l882 363z" />
    <glyph glyph-name="equal" unicode="=" horiz-adv-x="1116" 
d="M125 680l18 102h922l-18 -102h-922zM49 250l19 102h921l-18 -102h-922z" />
    <glyph glyph-name="greater" unicode="&#x3e;" horiz-adv-x="944" 
d="M911 618l-16 -96l-18 -106l-883 -361l18 113l869 346l2 4l-746 350l19 113z" />
    <glyph glyph-name="question" unicode="?" horiz-adv-x="1191" 
d="M135 1030q62 238 229 372t406 134q226 0 349.5 -92.5t123.5 -257.5q0 -146 -127 -304.5t-356 -314.5h-383v4q185 141 291 284t106 251q0 45 -21 71.5t-59 26.5q-52 0 -93.5 -47t-61.5 -127h-404zM313 420h437l-74 -420h-436z" />
    <glyph glyph-name="at" unicode="@" horiz-adv-x="2383" 
d="M1247 293q0 47 21 106l16 47h-4q-63 -179 -184 -278.5t-275 -99.5q-120 0 -183 75.5t-63 212.5q0 141 44.5 272t120.5 228t184 155t229 58q119 0 182.5 -58.5t63.5 -166.5q0 -29 -5.5 -58t-10.5 -45t-19 -55h4l129 365h389l-231 -656q-6 -18 -6 -28q0 -25 19.5 -39.5
t51.5 -14.5q154 0 249 146.5t95 369.5q0 248 -168.5 385.5t-478.5 137.5q-243 0 -444 -74.5t-338.5 -207t-213 -319.5t-75.5 -409q0 -278 180 -433t508 -155q145 0 311 35t320 98l45 -237q-164 -67 -353.5 -104.5t-365.5 -37.5q-453 0 -700.5 209.5t-247.5 583.5
q0 288 100.5 528.5t283 410t448.5 263.5t587 94q434 0 669.5 -191.5t235.5 -535.5q0 -370 -214.5 -586t-577.5 -216q-158 0 -243 59t-85 166zM1110 371q75 0 135 49t94 139l4 8v2l11 27q6 21 6 57q0 113 -111 113q-105 0 -176.5 -81.5t-71.5 -197.5q0 -56 27.5 -86t81.5 -30
z" />
    <glyph glyph-name="A" unicode="A" horiz-adv-x="1562" 
d="M1020 0l-19 336h-532l-137 -336h-424l672 1516h753l137 -1516h-450zM600 659h385l-45 824h-4z" />
    <glyph glyph-name="B" unicode="B" horiz-adv-x="1503" 
d="M936 909q248 0 384 -96.5t136 -269.5q0 -249 -194 -396t-525 -147h-694l266 1516h776q188 0 291 -70t103 -195q0 -158 -155.5 -248t-424.5 -90l-2 -4h39zM1006 1081q0 53 -31.5 82t-89.5 29h-205l-49 -279h205q78 0 124 46.5t46 121.5zM813 324q88 0 141.5 49.5
t53.5 132.5q0 59 -37.5 92t-104.5 33h-284l-54 -307h285z" />
    <glyph glyph-name="C" unicode="C" horiz-adv-x="1574" 
d="M1548 614q-82 -298 -298.5 -466t-520.5 -168q-307 0 -473 163.5t-166 458.5q0 280 112 492t319 327t483 115q284 0 441 -147.5t157 -413.5q0 -8 -5 -76h-407v29q0 131 -64.5 203.5t-179.5 72.5q-183 0 -296 -157t-113 -406q0 -156 64.5 -243t186.5 -87q125 0 216.5 79.5
t136.5 223.5h407z" />
    <glyph glyph-name="D" unicode="D" horiz-adv-x="1576" 
d="M43 0l266 1516h559q335 0 518 -163.5t183 -455.5q0 -202 -69 -369.5t-194 -283.5t-305.5 -180t-398.5 -64h-559zM528 324h152q199 0 319.5 148t120.5 388q0 156 -74.5 244t-211.5 88h-152z" />
    <glyph glyph-name="E" unicode="E" horiz-adv-x="1392" 
d="M1423 1192h-741l-45 -258h668l-56 -324h-669l-52 -286h764l-57 -324h-1192l266 1516h1170z" />
    <glyph glyph-name="F" unicode="F" horiz-adv-x="1267" 
d="M1331 1192h-649l-51 -283h543l-56 -321h-543l-104 -588h-428l266 1516h1077z" />
    <glyph glyph-name="G" unicode="G" horiz-adv-x="1624" 
d="M1597 926h-407v26q0 119 -62.5 185.5t-175.5 66.5q-186 0 -298.5 -156.5t-112.5 -404.5q0 -157 66 -244.5t188 -87.5q121 0 208 63t125 177h-299l50 270h712l-145 -821h-402l93 528h-4q-46 -258 -206 -403t-397 -145q-213 0 -327.5 152t-114.5 423q0 302 114 524.5
t322 339.5t486 117q281 0 436.5 -140t155.5 -392q0 -10 -5 -78z" />
    <glyph glyph-name="H" unicode="H" horiz-adv-x="1615" 
d="M1227 1516h428l-266 -1516h-428l106 604h-489l-107 -604h-428l266 1516h428l-102 -588h489z" />
    <glyph glyph-name="I" unicode="I" horiz-adv-x="698" 
d="M43 0l266 1516h428l-266 -1516h-428z" />
    <glyph glyph-name="J" unicode="J" horiz-adv-x="1232" 
d="M676 485q-13 -82 -52.5 -128t-95.5 -46q-52 0 -80 50t-28 141q0 17 4 67h-395q-9 -68 -9 -127q0 -220 113 -341t320 -121q266 0 437.5 137.5t215.5 386.5l178 1012h-426z" />
    <glyph glyph-name="K" unicode="K" horiz-adv-x="1564" 
d="M1702 1516l-662 -719l490 -797h-502l-434 780h-4l-137 -780h-410l266 1516h410l-125 -715h4l631 715h473z" />
    <glyph glyph-name="L" unicode="L" horiz-adv-x="1210" 
d="M530 336h621l-59 -336h-1049l266 1516h428z" />
    <glyph glyph-name="M" unicode="M" horiz-adv-x="2224" 
d="M1415 1516h817l-204 -1516h-429l211 1483h-4l-442 -1483h-737l108 1483h-4l-313 -1483h-406l328 1516h819l-145 -1483h4z" />
    <glyph glyph-name="N" unicode="N" horiz-adv-x="1615" 
d="M1249 1516h406l-266 -1516h-684l-11 1483h-4l-241 -1483h-406l266 1516h684l13 -1483h4z" />
    <glyph glyph-name="O" unicode="O" horiz-adv-x="1656" 
d="M733 -20q-308 0 -475.5 164t-167.5 458q0 280 112.5 492t320.5 327t485 115q307 0 474 -164t167 -459q0 -280 -112 -491.5t-319.5 -326.5t-484.5 -115zM793 311q183 0 296 157t113 406q0 155 -65.5 242.5t-186.5 87.5q-187 0 -300 -156t-113 -405q0 -157 66.5 -244.5
t189.5 -87.5z" />
    <glyph glyph-name="P" unicode="P" horiz-adv-x="1417" 
d="M926 1516q261 0 404 -111t143 -307q0 -267 -195 -424.5t-528 -157.5h-189l-90 -516h-428l266 1516h617zM825 840q91 0 145 58t54 155q0 65 -35.5 102t-99.5 37h-207l-64 -352h207z" />
    <glyph glyph-name="Q" unicode="Q" horiz-adv-x="1667" 
d="M936 328v-4h645l-57 -324h-789q-309 0 -477 162.5t-168 453.5q0 275 112 483.5t320 322.5t484 114q156 0 281.5 -42t207 -116.5t125 -174.5t43.5 -218q0 -299 -197.5 -478t-529.5 -179zM535 645q0 -158 66.5 -246t189.5 -88q183 0 296 159t113 407q0 155 -65.5 241
t-186.5 86q-188 0 -300.5 -155t-112.5 -404z" />
    <glyph glyph-name="R" unicode="R" horiz-adv-x="1503" 
d="M791 569q191 0 321 -62t168 -175l111 -332h-476l-163 569h-181l-100 -569h-428l266 1516h647q269 0 416.5 -102.5t147.5 -285.5q0 -254 -196 -404.5t-533 -150.5v-4zM625 872h237q95 0 151 51.5t56 137.5q0 62 -38.5 96.5t-110.5 34.5h-238z" />
    <glyph glyph-name="S" unicode="S" horiz-adv-x="1454" 
d="M629 -20q-277 0 -429.5 135t-152.5 381v51h424v-15q0 -104 60 -162.5t167 -58.5q117 0 184.5 43t67.5 117q0 27 -15.5 47.5t-37 32.5t-63.5 22.5t-74.5 16t-89.5 12.5q-190 26 -275 57q-194 71 -220 245q-5 30 -5 63q0 271 195 420t538 149q253 0 394 -132.5t141 -367.5
v-43h-424v25q0 90 -50 138t-143 48q-95 0 -149 -36.5t-54 -98.5q0 -19 9 -35t29 -27.5t40.5 -19.5t56 -15t61.5 -11.5t71 -10.5q66 -10 101.5 -15.5t99 -20.5t99.5 -31t83 -44.5t72 -63t43 -85t18 -112.5q0 -271 -209 -434.5t-563 -163.5z" />
    <glyph glyph-name="T" unicode="T" horiz-adv-x="1306" 
d="M1452 1516l-55 -324h-412l-211 -1192h-428l211 1192h-412l56 324h1251z" />
    <glyph glyph-name="U" unicode="U" horiz-adv-x="1544" 
d="M1018 535l172 981h407l-170 -963q-47 -270 -246 -421.5t-507 -151.5q-268 0 -413.5 117t-145.5 331q0 60 12 125l170 963h426l-172 -981q-4 -25 -4 -52q0 -83 50.5 -127.5t147.5 -44.5q110 0 182 59t91 165z" />
    <glyph glyph-name="V" unicode="V" horiz-adv-x="1503" 
d="M1243 1516h424l-631 -1516h-753l-97 1516h451l41 -1483h4z" />
    <glyph glyph-name="W" unicode="W" horiz-adv-x="2289" 
d="M1989 1516h424l-467 -1516h-754l125 1483h-4l-400 -1483h-753l67 1516h451l-103 -1483h5l417 1483h672l-102 -1483h4z" />
    <glyph glyph-name="X" unicode="X" horiz-adv-x="1552" 
d="M1653 1516l-404 -719l191 -797h-490l-127 780h-4l-401 -780h-490l473 797l-153 719h461l114 -715h4l365 715h461z" />
    <glyph glyph-name="Y" unicode="Y" horiz-adv-x="1550" 
d="M1294 1516h459l-913 -1516h-459l391 651h-395l-209 865h489l172 -832h5z" />
    <glyph glyph-name="Z" unicode="Z" horiz-adv-x="1497" 
d="M1419 780l-1335 -452v-4h1321l-57 -324h-1354l129 735l1335 453l2 4h-1224l55 324h1257z" />
    <glyph glyph-name="bracketleft" unicode="[" horiz-adv-x="565" 
d="M733 1475h-327l-326 -1844h328l-19 -102h-440l362 2048h441z" />
    <glyph glyph-name="backslash" unicode="\" horiz-adv-x="866" 
d="M338 1638l358 -1884l-116 -41l-355 1884z" />
    <glyph glyph-name="bracketright" unicode="]" horiz-adv-x="567" 
d="M629 1577l-363 -2048h-440l18 102h328l326 1844h-328l18 102h441z" />
    <glyph glyph-name="asciicircum" unicode="^" horiz-adv-x="1038" 
d="M803 1475l225 -752h-119l-219 739h-4l-481 -739h-119l492 752h225z" />
    <glyph glyph-name="underscore" unicode="_" horiz-adv-x="1271" 
d="M-66 -123h1178l-16 -102h-1178z" />
    <glyph glyph-name="grave" unicode="`" horiz-adv-x="561" 
d="M295 1612l422 -258l-146 -203l-440 233z" />
    <glyph glyph-name="a" unicode="a" 
d="M893 1049h410l-185 -1049h-409l67 381h-4q-34 -189 -146.5 -295t-279.5 -106q-145 0 -224 106.5t-79 296.5q0 199 61.5 355t175 243.5t259.5 87.5q141 0 216.5 -76.5t75.5 -216.5q0 -43 -10 -108h4zM608 301q77 0 135.5 64.5t73.5 158.5q6 38 6 60q0 73 -35.5 119.5
t-99.5 46.5q-98 0 -157.5 -78t-59.5 -203q0 -80 35.5 -124t101.5 -44z" />
    <glyph glyph-name="b" unicode="b" 
d="M963 1069q146 0 224.5 -106t78.5 -297q0 -199 -61.5 -355t-175 -243.5t-259.5 -87.5q-141 0 -217 76t-76 216q0 44 10 109h-4l-67 -381h-410l279 1577h409l-162 -909h5q34 189 146.5 295t279.5 106zM623 301q98 0 156.5 77t58.5 202q0 80 -35.5 125t-100.5 45
q-77 0 -134.5 -65.5t-75.5 -160.5q-5 -29 -5 -55q0 -74 35.5 -121t100.5 -47z" />
    <glyph glyph-name="c" unicode="c" horiz-adv-x="1228" 
d="M539 -20q-238 0 -368 117t-130 327q0 294 187 469.5t503 175.5q225 0 350 -122.5t125 -342.5h-399q-3 70 -36.5 108t-94.5 38q-96 0 -154.5 -79t-58.5 -204q0 -79 34.5 -122.5t98.5 -43.5q124 0 182 141h400q-62 -220 -229 -341t-410 -121z" />
    <glyph glyph-name="d" unicode="d" 
d="M987 1577h410l-279 -1577h-409l67 381h-4q-34 -189 -146.5 -295t-279.5 -106q-145 0 -224 106.5t-79 296.5q0 199 61.5 355t175 243.5t259.5 87.5q141 0 216.5 -76.5t75.5 -216.5q0 -43 -10 -108h4zM608 301q77 0 135.5 64.5t73.5 158.5q6 38 6 60q0 73 -35.5 119.5
t-99.5 46.5q-98 0 -157.5 -78t-59.5 -203q0 -80 35.5 -124t101.5 -44z" />
    <glyph glyph-name="e" unicode="e" horiz-adv-x="1206" 
d="M707 1069q221 0 344 -107t123 -300q0 -62 -15 -136l-8 -41h-711v-24q0 -85 33 -131.5t94 -46.5q57 0 103 26t71 72h394q-66 -189 -230.5 -295t-390.5 -106t-349.5 116t-123.5 324q0 296 181 472.5t485 176.5zM653 768q-69 0 -120.5 -48.5t-75.5 -131.5h317v22
q0 75 -31.5 116.5t-89.5 41.5z" />
    <glyph glyph-name="f" unicode="f" horiz-adv-x="872" 
d="M866 1276q-73 0 -121.5 -41t-60.5 -113l-12 -73h278l-47 -273h-260l-137 -776h-410l135 776h-143l47 273h524l3 4q-172 0 -266.5 55t-94.5 154q0 154 138.5 244.5t375.5 90.5q163 0 295 -63l-104 -299q-50 41 -140 41z" />
    <glyph glyph-name="g" unicode="g" 
d="M893 1049h410l-185 -1049q-41 -232 -211 -362t-432 -130q-216 0 -347 94.5t-148 262.5l401 69q9 -51 48 -78.5t101 -27.5q69 0 116 41t59 113l75 419h-4q-35 -189 -147.5 -295t-278.5 -106q-147 0 -226 104.5t-79 292.5q0 296 137 484t357 188q141 0 216.5 -76.5
t75.5 -216.5q0 -43 -10 -108h4zM612 322q77 0 134 62t73 151q4 25 4 53q0 71 -35 116.5t-100 45.5q-96 0 -155.5 -74t-59.5 -193q0 -77 36 -119t103 -42z" />
    <glyph glyph-name="h" unicode="h" horiz-adv-x="1265" 
d="M922 1069q139 0 212.5 -82t73.5 -235q0 -60 -12 -131l-109 -621h-409l106 600q4 28 4 43q0 51 -25.5 79t-74.5 28q-66 0 -112.5 -51t-61.5 -140l-98 -559h-410l279 1577h409l-162 -909h5q34 189 135.5 295t249.5 106z" />
    <glyph glyph-name="i" unicode="i" horiz-adv-x="606" 
d="M219 1204l53 312h410l-53 -312h-410zM6 0l184 1049h410l-184 -1049h-410z" />
    <glyph glyph-name="j" unicode="j" horiz-adv-x="606" 
d="M219 1204l53 312h410l-53 -312h-410zM-78 -471l268 1520h410l-268 -1520h-410z" />
    <glyph glyph-name="k" unicode="k" horiz-adv-x="1251" 
d="M1323 1049l-373 -498l244 -551h-479l-201 535h-4l-94 -535h-410l279 1577h409l-180 -1022h4l344 494h461z" />
    <glyph glyph-name="l" unicode="l" horiz-adv-x="606" 
d="M6 0l279 1577h409l-278 -1577h-410z" />
    <glyph glyph-name="m" unicode="m" horiz-adv-x="1896" 
d="M1563 1069q135 0 206.5 -79.5t71.5 -227.5q0 -60 -12 -131l-111 -631h-409l108 610q4 28 4 41q0 47 -24 73t-68 26q-61 0 -104 -48t-58 -133l-100 -569h-410l109 610q4 28 4 41q0 47 -24 73t-68 26q-61 0 -104 -48t-58 -133l-100 -569h-410l184 1049h410l-68 -381h5
q34 189 137 295t254 106q128 0 197 -75t69 -212q0 -63 -10 -114h4q34 189 133 295t242 106z" />
    <glyph glyph-name="n" unicode="n" horiz-adv-x="1265" 
d="M922 1069q139 0 212.5 -82t73.5 -235q0 -60 -12 -131l-109 -621h-409l106 600q4 28 4 43q0 51 -25.5 79t-74.5 28q-66 0 -112.5 -51t-61.5 -140l-98 -559h-410l184 1049h410l-68 -381h5q34 189 135.5 295t249.5 106z" />
    <glyph glyph-name="o" unicode="o" horiz-adv-x="1277" 
d="M543 -20q-240 0 -371 117t-131 327q0 295 188 470t506 175q240 0 371 -117t131 -327q0 -294 -187.5 -469.5t-506.5 -175.5zM600 301q98 0 156.5 77t58.5 202q0 80 -35 125t-100 45q-98 0 -157.5 -78t-59.5 -203q0 -80 35.5 -124t101.5 -44z" />
    <glyph glyph-name="p" unicode="p" 
d="M963 1069q146 0 224.5 -106t78.5 -297q0 -199 -61.5 -355t-175 -243.5t-259.5 -87.5q-141 0 -217 76t-76 216q0 44 10 109h-4l-151 -852h-410l268 1520h410l-68 -381h5q34 189 146.5 295t279.5 106zM623 299q96 0 155.5 78t59.5 203q0 80 -36 124t-102 44
q-77 0 -133.5 -64.5t-74.5 -159.5q-5 -31 -5 -55q0 -75 35.5 -122.5t100.5 -47.5z" />
    <glyph glyph-name="q" unicode="q" 
d="M893 1049h410l-269 -1520h-409l151 852h-4q-34 -189 -146.5 -295t-279.5 -106q-146 0 -224.5 106t-78.5 295q0 200 60.5 356t174 244t261.5 88q141 0 216.5 -76.5t75.5 -216.5q0 -43 -10 -108h4zM608 299q79 0 134.5 59.5t74.5 165.5q6 38 6 68q0 74 -35.5 115t-101.5 41
q-97 0 -156 -77t-59 -202q0 -80 35.5 -125t101.5 -45z" />
    <glyph glyph-name="r" unicode="r" horiz-adv-x="933" 
d="M889 1069q90 0 153 -37l-182 -356q-55 39 -125 39q-91 0 -156 -78t-90 -217l-73 -420h-410l184 1049h410l-84 -478h4q41 234 139 366t230 132z" />
    <glyph glyph-name="s" unicode="s" horiz-adv-x="1124" 
d="M461 -20q-221 0 -341 78t-120 221q0 27 6 61h377q-2 -12 -2 -23q0 -44 32.5 -69t90.5 -25q68 0 106.5 25t38.5 67q0 14 -6 25t-20.5 19.5t-27.5 14t-39.5 11t-43.5 8.5t-51 8q-45 6 -72.5 11t-71 15.5t-70.5 22.5t-59.5 32.5t-51 46t-31.5 62t-13 81.5q0 184 151 290.5
t410 106.5q209 0 324 -74t115 -209q0 -26 -7 -61h-376q2 12 2 25q0 39 -25.5 60t-73.5 21q-53 0 -84.5 -20t-31.5 -53q0 -13 6 -23t20.5 -18t27.5 -13.5t39.5 -11t42.5 -8.5t50 -8q154 -26 218 -52q152 -64 153 -214q0 -197 -159.5 -313.5t-432.5 -116.5z" />
    <glyph glyph-name="t" unicode="t" horiz-adv-x="892" 
d="M621 776l-66 -364q-2 -12 -2 -23q0 -41 31 -64.5t86 -23.5q71 0 135 33l-53 -299q-129 -55 -271 -55q-170 0 -262 74.5t-92 211.5q0 22 8 80l76 430h-125l47 273h146l59 329h407l-14 -86q-19 -114 -134.5 -176.5t-305.5 -62.5l-2 -4h659l-47 -273h-280z" />
    <glyph glyph-name="u" unicode="u" horiz-adv-x="1247" 
d="M831 1049h410l-184 -1049h-410l68 381h-4q-34 -189 -133 -295t-242 -106q-134 0 -205.5 81.5t-71.5 231.5q0 55 13 135l108 621h412l-107 -600q-4 -23 -4 -46q0 -104 90 -104q61 0 104 50.5t58 139.5z" />
    <glyph glyph-name="v" unicode="v" horiz-adv-x="1210" 
d="M836 1049h436l-375 -1049h-766l-8 1049h436l-43 -1022h4z" />
    <glyph glyph-name="w" unicode="w" horiz-adv-x="1931" 
d="M1556 1049h424l-323 -1049h-699l97 1022h-4l-260 -1022h-699l43 1049h434l-92 -1022h4l256 1022h652l-101 -1022h4z" />
    <glyph glyph-name="x" unicode="x" horiz-adv-x="1265" 
d="M1303 1049l-250 -498l100 -551h-459l-57 535h-4l-246 -535h-459l293 551l-74 498h441l49 -494h4l221 494h441z" />
    <glyph glyph-name="y" unicode="y" horiz-adv-x="1210" 
d="M836 1049h436l-545 -1520h-436l170 471h-330l-8 1049h436l-43 -1022h4z" />
    <glyph glyph-name="z" unicode="z" horiz-adv-x="1144" 
d="M68 276l-2 -4h976l-47 -272h-1009l110 633l963 139l2 4h-928l47 273h961l-111 -633z" />
    <glyph glyph-name="braceleft" unicode="{" horiz-adv-x="524" 
d="M342 1315q20 118 112 190t220 72l-19 -102q-76 0 -132 -47.5t-70 -124.5l-95 -541q-13 -76 -60.5 -129t-121.5 -80q113 -47 113 -164q0 -20 -4 -47l-97 -539q-4 -24 -4 -36q0 -62 39.5 -99t106.5 -37l-19 -102q-113 0 -177 57t-64 154q0 28 4 51l94 539q4 25 4 41
q0 63 -39.5 97t-112.5 34l19 100q85 0 140.5 45.5t68.5 126.5z" />
    <glyph glyph-name="bar" unicode="|" horiz-adv-x="362" 
d="M311 1577h113l-363 -2048h-112z" />
    <glyph glyph-name="braceright" unicode="}" horiz-adv-x="524" 
d="M362 733q0 -63 39.5 -97t112.5 -34l-18 -100q-85 0 -140.5 -45.5t-68.5 -126.5l-94 -539q-20 -118 -112 -190t-220 -72l18 102q77 0 133.5 48t69.5 124l94 539q13 76 60.5 129t121.5 80q-110 47 -110 164q0 22 4 47l94 541q4 24 4 36q0 62 -39 99t-106 37l18 102
q113 0 177.5 -57t64.5 -154q0 -24 -4 -51l-94 -541q-5 -31 -5 -41z" />
    <glyph glyph-name="asciitilde" unicode="~" horiz-adv-x="1144" 
d="M774 373q-64 0 -115.5 18t-86 43.5t-67 51t-75 43.5t-92.5 18q-66 0 -114 -48.5t-70 -133.5h-103q32 136 113.5 211t197.5 75q64 0 115.5 -18t86 -43.5t67.5 -51t75.5 -43.5t92.5 -18q65 0 113.5 48.5t70.5 133.5h102q-32 -136 -113.5 -211t-197.5 -75z" />
    <glyph glyph-name="uni00A0" unicode="&#xa0;" horiz-adv-x="387" 
 />
    <glyph glyph-name="exclamdown" unicode="&#xa1;" horiz-adv-x="645" 
d="M197 1049h436l-74 -420h-436zM514 481h-397l-178 -952h417z" />
    <glyph glyph-name="cent" unicode="&#xa2;" horiz-adv-x="1263" 
d="M717 553q84 27 125 131h399q-59 -206 -211 -327t-371 -134l-38 -223h-113l39 223q-213 13 -328 129.5t-115 313.5q0 280 171 454t462 189l37 207h113l-37 -207q200 -15 310 -136.5t110 -326.5h-400q-6 109 -77 135zM526 709q0 -125 78 -156l76 430q-71 -23 -112.5 -96.5
t-41.5 -177.5z" />
    <glyph glyph-name="sterling" unicode="&#xa3;" horiz-adv-x="1366" 
d="M1376 989h-411v27q0 69 -35 108t-96 39q-58 0 -95 -34.5t-37 -88.5q0 -49 51 -150t62 -140h311l-20 -111h-291q-34 -144 -221 -227.5t-485 -83.5v-4h1163l-58 -324h-1239l56 313q305 108 321 326h-225l20 111h191q-8 22 -37.5 86t-45 113.5t-15.5 97.5q0 200 175 324
t472 124q234 0 361.5 -116.5t127.5 -327.5v-62z" />
    <glyph glyph-name="currency" unicode="&#xa4;" horiz-adv-x="1064" 
d="M948 956q39 -74 39 -180q0 -225 -127 -364l96 -115l-88 -76l-96 117q-122 -78 -289 -78q-162 0 -254 86l-143 -123l-61 76l147 125q-39 74 -39 180q0 224 123 359l-94 116l88 78l94 -117q125 80 291 80q164 0 256 -86l143 123l62 -76zM502 358q170 0 271 110t101 292
q0 124 -67 193t-189 69q-170 0 -271 -109.5t-101 -291.5q0 -124 66.5 -193.5t189.5 -69.5z" />
    <glyph glyph-name="yen" unicode="&#xa5;" horiz-adv-x="1669" 
d="M1798 1516l-514 -854h191l-19 -103h-233l-80 -131h291l-19 -102h-334l-196 -326h-459l197 326h-433l19 102h475l78 131h-531l19 103h170l-207 854h489l172 -832h5l460 832h459z" />
    <glyph glyph-name="brokenbar" unicode="&#xa6;" horiz-adv-x="362" 
d="M311 1577h113l-145 -819h-113zM94 348h113l-146 -819h-112z" />
    <glyph glyph-name="section" unicode="&#xa7;" horiz-adv-x="1480" 
d="M1468 1102h-421v24q0 67 -53 103.5t-150 36.5q-94 0 -146.5 -33t-52.5 -92q0 -48 52.5 -75.5t146.5 -27.5q277 0 428 -105.5t151 -295.5q0 -230 -170.5 -372.5t-468.5 -164.5v-4q241 0 373.5 -60t132.5 -169q0 -166 -195.5 -262.5t-535.5 -96.5q-281 0 -436.5 124.5
t-155.5 347.5q0 33 2 49h422v-15q0 -83 61.5 -128.5t174.5 -45.5q116 0 183 40t67 108q0 52 -51.5 80t-147.5 28q-276 0 -427 106t-151 296q0 231 171 372.5t470 163.5v4q-243 0 -376.5 57t-133.5 160q0 156 177.5 249t484.5 93q273 0 424 -119.5t151 -334.5v-41zM983 586
q0 57 -51.5 89t-145.5 32q-114 0 -179.5 -42t-65.5 -116q0 -57 51.5 -89t144.5 -32q114 0 180 42.5t66 115.5z" />
    <glyph glyph-name="dieresis" unicode="&#xa8;" horiz-adv-x="1114" 
d="M250 1204l53 312h379l-53 -312h-379zM727 1204l53 312h379l-53 -312h-379z" />
    <glyph glyph-name="copyright" unicode="&#xa9;" horiz-adv-x="1699" 
d="M754 -20q-316 0 -488 164.5t-172 459.5q0 280 114.5 491.5t326 326t493.5 114.5q316 0 489 -165t173 -460q0 -280 -115 -491t-327 -325.5t-494 -114.5zM772 82q242 0 424.5 100.5t280.5 284t98 426.5q0 255 -147.5 398t-417.5 143q-242 0 -424 -100.5t-279.5 -284
t-97.5 -426.5q0 -255 146.5 -398t416.5 -143zM831 383q-139 0 -214.5 78.5t-75.5 218.5q0 206 115.5 332.5t308.5 126.5q129 0 203 -72.5t79 -200.5h-108q-4 79 -56 124.5t-137 45.5q-132 0 -211.5 -92.5t-79.5 -245.5q0 -100 51 -156.5t144 -56.5q89 0 156.5 47t101.5 132
h109q-44 -132 -146.5 -206.5t-239.5 -74.5z" />
    <glyph glyph-name="ordfeminine" unicode="&#xaa;" horiz-adv-x="854" 
d="M670 1516h266l-111 -633h-266l41 233h-2q-22 -116 -89 -181t-165 -65q-85 0 -131.5 64t-46.5 178q0 182 81.5 299t213.5 117q83 0 127.5 -47.5t44.5 -134.5q0 -30 -6 -64h2zM516 1079q40 0 70.5 35.5t38.5 83.5q4 24 4 33q0 38 -18.5 63t-51.5 25q-52 0 -83.5 -42.5
t-31.5 -109.5q0 -41 19 -64.5t53 -23.5z" />
    <glyph glyph-name="guillemotleft" unicode="&#xab;" horiz-adv-x="905" 
d="M53 512l332 395h119l-328 -395l189 -395h-119zM446 512l332 395h119l-328 -395l189 -395h-119z" />
    <glyph glyph-name="logicalnot" unicode="&#xac;" horiz-adv-x="1105" 
d="M117 735h921l-82 -473h-112l63 371h-809z" />
    <glyph glyph-name="uni00AD" unicode="&#xad;" horiz-adv-x="907" 
d="M104 584h721l-18 -103h-721z" />
    <glyph glyph-name="registered" unicode="&#xae;" horiz-adv-x="966" 
d="M672 1597q171 0 263.5 -87.5t92.5 -243.5q0 -221 -136.5 -354.5t-365.5 -133.5q-170 0 -263 88t-93 244q0 221 136.5 354t365.5 133zM541 858q181 0 290 107t109 286q0 125 -74.5 196t-208.5 71q-182 0 -290.5 -107.5t-108.5 -286.5q0 -125 73.5 -195.5t209.5 -70.5z
M655 1397q64 0 98.5 -28t34.5 -79q0 -68 -47.5 -106.5t-130.5 -38.5v-4q71 0 90 -45l50 -107h-91l-65 152h-86l-27 -152h-84l60 338l12 70h186zM616 1204q38 0 61 20t23 52q0 51 -63 51h-96l-21 -123h96z" />
    <glyph glyph-name="macron" unicode="&#xaf;" horiz-adv-x="829" 
d="M201 1501h772l-49 -278h-772z" />
    <glyph glyph-name="degree" unicode="&#xb0;" horiz-adv-x="741" 
d="M457 1008q-136 0 -209.5 63t-73.5 178q0 160 104 254t283 94q133 0 206 -63.5t73 -177.5q0 -160 -103 -254t-280 -94zM487 1194q51 0 82 36.5t31 96.5q0 39 -20 61.5t-56 22.5q-50 0 -80 -37t-30 -96q0 -84 73 -84z" />
    <glyph glyph-name="plusminus" unicode="&#xb1;" horiz-adv-x="1097" 
d="M643 745h406l-19 -102h-405l-56 -311h-110l55 311h-405l18 102h403l56 314h112zM14 100l19 103h921l-18 -103h-922z" />
    <glyph glyph-name="uni00B2" unicode="&#xb2;" horiz-adv-x="808" 
d="M150 946v-4h696l-37 -209h-731l35 203q229 103 357 218t128 222q0 29 -11.5 46.5t-31.5 17.5q-32 0 -57.5 -33.5t-40.5 -93.5h-269q41 161 149.5 251.5t262.5 90.5q144 0 222.5 -67.5t78.5 -188.5q0 -198 -199.5 -316t-551.5 -137z" />
    <glyph glyph-name="uni00B3" unicode="&#xb3;" horiz-adv-x="800" 
d="M901 1485q0 -92 -96 -144.5t-264 -52.5v-4q147 0 228 -58t81 -163q0 -157 -117 -249.5t-317 -92.5q-142 0 -221.5 74t-79.5 206q0 17 2 33h268v-18q0 -37 18.5 -58.5t53.5 -21.5q47 0 73.5 26.5t26.5 71.5q0 70 -82 70h-18l30 182q51 0 80 26t29 72q0 56 -53 56
q-30 0 -54 -26.5t-36 -72.5h-263q40 148 148 231t262 83q142 0 221.5 -47.5t79.5 -122.5z" />
    <glyph glyph-name="acute" unicode="&#xb4;" horiz-adv-x="602" 
d="M651 1612l82 -228l-522 -233l-72 203z" />
    <glyph glyph-name="paragraph" unicode="&#xb6;" horiz-adv-x="1710" 
d="M1735 1577l-363 -2048h-317l309 1745h-250l-309 -1745h-318l310 1745q-133 0 -211 -59t-78 -156q0 -57 37 -93.5t106 -45.5l-59 -334q-219 10 -338 119t-119 294q0 266 192.5 422t522.5 156h885z" />
    <glyph glyph-name="periodcentered" unicode="&#xb7;" horiz-adv-x="620" 
d="M133 758h436l-73 -420h-437z" />
    <glyph glyph-name="cedilla" unicode="&#xb8;" horiz-adv-x="665" 
d="M109 -492q-122 0 -222 41l27 144q60 -47 154 -47q68 0 106.5 21.5t38.5 58.5q0 23 -17.5 36t-48.5 13q-50 0 -88 -35l-92 94q121 78 277 78q108 0 166.5 -41t58.5 -115q0 -114 -96.5 -181t-263.5 -67z" />
    <glyph glyph-name="uni00B9" unicode="&#xb9;" horiz-adv-x="591" 
d="M424 1642h278l-159 -909h-279l152 856h-4q-31 -167 -99.5 -260.5t-160.5 -93.5l43 246q95 0 155.5 42.5t73.5 118.5z" />
    <glyph glyph-name="ordmasculine" unicode="&#xba;" horiz-adv-x="813" 
d="M467 870q-148 0 -228.5 71.5t-80.5 197.5q0 178 115.5 283.5t310.5 105.5q147 0 226 -71.5t79 -199.5q0 -177 -114.5 -282t-307.5 -105zM504 1079q51 0 81.5 41t30.5 109q0 42 -18 66t-51 24q-52 0 -83.5 -42.5t-31.5 -109.5q0 -41 19 -64.5t53 -23.5z" />
    <glyph glyph-name="guillemotright" unicode="&#xbb;" horiz-adv-x="909" 
d="M457 512l-332 -395h-119l328 395l-189 395h119zM850 512l-332 -395h-119l328 395l-188 395h118z" />
    <glyph glyph-name="onequarter" unicode="&#xbc;" horiz-adv-x="1976" 
d="M418 1487q-31 -167 -99.5 -260.5t-160.5 -93.5l43 245q95 0 155 42.5t74 119.5h279l-160 -909h-279l152 856h-4zM1507 1536l70 -57l-1305 -1499l-69 57zM1901 381l-37 -209h-119l-31 -172h-278l30 172h-413l39 219l272 518h510l-92 -528h119zM1335 385v-4h176l91 508h-5z
" />
    <glyph glyph-name="onehalf" unicode="&#xbd;" horiz-adv-x="1914" 
d="M418 1487q-31 -167 -99.5 -260.5t-160.5 -93.5l43 245q95 0 155 42.5t74 119.5h279l-160 -909h-279l152 856h-4zM1507 1536l70 -57l-1305 -1499l-69 57zM1106 213v-4h696l-37 -209h-731l35 203q229 103 357 218t128 222q0 29 -11.5 46.5t-31.5 17.5q-32 0 -57.5 -33.5
t-40.5 -93.5h-268q41 162 149.5 252t261.5 90q144 0 223 -67.5t79 -188.5q0 -198 -200 -316t-552 -137z" />
    <glyph glyph-name="threequarters" unicode="&#xbe;" horiz-adv-x="2187" 
d="M854 961q0 -157 -117 -250t-317 -93q-142 0 -221.5 74.5t-79.5 206.5q0 17 2 33h268v-19q0 -37 18.5 -58t53.5 -21q47 0 73.5 26.5t26.5 71.5q0 69 -82 69h-18l31 183q51 0 79.5 26t28.5 72q0 55 -53 55q-31 0 -54.5 -26t-35.5 -72h-262q40 148 147.5 230.5t261.5 82.5
q142 0 221.5 -47.5t79.5 -122.5q0 -92 -96 -144t-264 -52v-4q147 0 228 -58t81 -163zM1720 1536l70 -57l-1305 -1499l-69 57zM2114 381l-37 -209h-119l-31 -172h-278l30 172h-413l39 219l272 518h510l-92 -528h119zM1548 385v-4h176l91 508h-5z" />
    <glyph glyph-name="questiondown" unicode="&#xbf;" horiz-adv-x="1173" 
d="M866 629h-436l74 420h436zM1044 14q-62 -238 -228.5 -372t-405.5 -134q-227 0 -350 92.5t-123 258.5q0 148 126.5 306t356.5 316h383v-4q-186 -143 -291.5 -285.5t-105.5 -252.5q0 -45 20.5 -72t58.5 -27q52 0 94 47t62 127h403z" />
    <glyph glyph-name="Agrave" unicode="&#xc0;" horiz-adv-x="1562" 
d="M1264 1821l-146 -203l-440 233l164 228zM1020 0l-19 336h-532l-137 -336h-424l672 1516h753l137 -1516h-450zM600 659h385l-45 824h-4z" />
    <glyph glyph-name="Aacute" unicode="&#xc1;" horiz-adv-x="1562" 
d="M1352 1851l-523 -233l-71 203l512 258zM1020 0l-19 336h-532l-137 -336h-424l672 1516h753l137 -1516h-450zM600 659h385l-45 824h-4z" />
    <glyph glyph-name="Acircumflex" unicode="&#xc2;" horiz-adv-x="1562" 
d="M1036 1991l-168 -353h-297l207 385h533l71 -385h-297l-45 353h-4zM1020 0l-19 336h-532l-137 -336h-424l672 1516h753l137 -1516h-450zM600 659h385l-45 824h-4z" />
    <glyph glyph-name="Atilde" unicode="&#xc3;" horiz-adv-x="1562" 
d="M831 1753q-41 0 -71.5 -21.5t-42.5 -58.5h-156q34 172 130.5 268.5t234.5 96.5q68 0 151.5 -36t126.5 -36q41 0 72 21.5t43 58.5h156q-34 -172 -130.5 -268.5t-234.5 -96.5q-68 0 -152 36t-127 36zM580 1516h753l137 -1516h-450l-19 336h-532l-137 -336h-424zM600 659
h385l-45 824h-4z" />
    <glyph glyph-name="Adieresis" unicode="&#xc4;" horiz-adv-x="1562" 
d="M989 1982l-53 -311h-379l53 311h379zM1466 1982l-53 -311h-379l53 311h379zM1020 0l-19 336h-532l-137 -336h-424l672 1516h753l137 -1516h-450zM600 659h385l-45 824h-4z" />
    <glyph glyph-name="Aring" unicode="&#xc5;" horiz-adv-x="1562" 
d="M971 1602q-124 0 -191 57.5t-67 159.5q0 140 94.5 223.5t255.5 83.5q124 0 191 -57.5t67 -159.5q0 -140 -94.5 -223.5t-255.5 -83.5zM1032 1956q-47 0 -74.5 -31t-27.5 -82q0 -71 69 -71q47 0 75 30.5t28 81.5q0 34 -18 53t-52 19zM1020 0l-19 336h-532l-137 -336h-424
l672 1516h753l137 -1516h-450zM600 659h385l-45 824h-4z" />
    <glyph glyph-name="AE" unicode="&#xc6;" horiz-adv-x="2310" 
d="M2341 1192h-840l-12 -258h733l-55 -324h-692l-13 -286h748l-58 -324h-1155l29 336h-522l-180 -336h-439l856 1516h1655zM678 659h375l69 824h-4z" />
    <glyph glyph-name="Ccedilla" unicode="&#xc7;" horiz-adv-x="1574" 
d="M1548 614q-82 -298 -298.5 -466t-520.5 -168q-307 0 -473 163.5t-166 458.5q0 280 112 492t319 327t483 115q284 0 441 -147.5t157 -413.5q0 -8 -5 -76h-407v29q0 131 -64.5 203.5t-179.5 72.5q-183 0 -296 -157t-113 -406q0 -156 64.5 -243t186.5 -87q125 0 216.5 79.5
t136.5 223.5h407zM625 -492q-122 0 -222 41l27 144q60 -47 154 -47q68 0 106.5 21.5t38.5 58.5q0 23 -17 36t-48 13q-51 0 -89 -35l-92 94q121 78 277 78q108 0 166.5 -41t58.5 -115q0 -114 -96.5 -181t-263.5 -67z" />
    <glyph glyph-name="Egrave" unicode="&#xc8;" horiz-adv-x="1392" 
d="M1204 1821l-145 -203l-441 233l164 228zM1423 1192h-741l-45 -258h668l-56 -324h-669l-52 -286h764l-57 -324h-1192l266 1516h1170z" />
    <glyph glyph-name="Eacute" unicode="&#xc9;" horiz-adv-x="1392" 
d="M1292 1851l-522 -233l-72 203l512 258zM1423 1192h-741l-45 -258h668l-56 -324h-669l-52 -286h764l-57 -324h-1192l266 1516h1170z" />
    <glyph glyph-name="Ecircumflex" unicode="&#xca;" horiz-adv-x="1392" 
d="M977 1991l-168 -353h-297l207 385h532l72 -385h-297l-45 353h-4zM1423 1192h-741l-45 -258h668l-56 -324h-669l-52 -286h764l-57 -324h-1192l266 1516h1170z" />
    <glyph glyph-name="Edieresis" unicode="&#xcb;" horiz-adv-x="1392" 
d="M930 1982l-53 -311h-379l53 311h379zM1407 1982l-53 -311h-379l53 311h379zM1423 1192h-741l-45 -258h668l-56 -324h-669l-52 -286h764l-57 -324h-1192l266 1516h1170z" />
    <glyph glyph-name="Igrave" unicode="&#xcc;" horiz-adv-x="698" 
d="M410 2079l421 -258l-145 -203l-440 233zM43 0l266 1516h428l-266 -1516h-428z" />
    <glyph glyph-name="Iacute" unicode="&#xcd;" horiz-adv-x="698" 
d="M838 2079l82 -228l-523 -233l-71 203zM43 0l266 1516h428l-266 -1516h-428z" />
    <glyph glyph-name="Icircumflex" unicode="&#xce;" horiz-adv-x="698" 
d="M604 1991l-168 -353h-297l207 385h533l71 -385h-297l-45 353h-4zM43 0l266 1516h428l-266 -1516h-428z" />
    <glyph glyph-name="Idieresis" unicode="&#xcf;" horiz-adv-x="698" 
d="M125 1671l53 311h379l-53 -311h-379zM602 1671l53 311h379l-53 -311h-379zM43 0l266 1516h428l-266 -1516h-428z" />
    <glyph glyph-name="Eth" unicode="&#xd0;" horiz-adv-x="1587" 
d="M879 1516q335 0 517.5 -163.5t182.5 -455.5q0 -202 -69 -369.5t-194 -283.5t-305.5 -180t-398.5 -64h-559l127 719h-127l19 102h125l122 695h560zM690 324q199 0 319.5 148t120.5 388q0 156 -74.5 244t-211.5 88h-152l-65 -371h282l-18 -102h-283l-69 -395h151z" />
    <glyph glyph-name="Ntilde" unicode="&#xd1;" horiz-adv-x="1615" 
d="M860 1753q-41 0 -72 -21.5t-43 -58.5h-155q34 172 130 268.5t234 96.5q68 0 152 -36t127 -36q41 0 72 21.5t43 58.5h155q-34 -172 -130 -268.5t-234 -96.5q-68 0 -152 36t-127 36zM1249 1516h406l-266 -1516h-684l-11 1483h-4l-241 -1483h-406l266 1516h684l13 -1483h4z
" />
    <glyph glyph-name="Ograve" unicode="&#xd2;" horiz-adv-x="1656" 
d="M889 2079l422 -258l-146 -203l-440 233zM733 -20q-308 0 -475.5 164t-167.5 458q0 280 112.5 492t320.5 327t485 115q307 0 474 -164t167 -459q0 -280 -112 -491.5t-319.5 -326.5t-484.5 -115zM793 311q183 0 296 157t113 406q0 155 -65.5 242.5t-186.5 87.5
q-187 0 -300 -156t-113 -405q0 -157 66.5 -244.5t189.5 -87.5z" />
    <glyph glyph-name="Oacute" unicode="&#xd3;" horiz-adv-x="1656" 
d="M1317 2079l82 -228l-522 -233l-72 203zM733 -20q-308 0 -475.5 164t-167.5 458q0 280 112.5 492t320.5 327t485 115q307 0 474 -164t167 -459q0 -280 -112 -491.5t-319.5 -326.5t-484.5 -115zM793 311q183 0 296 157t113 406q0 155 -65.5 242.5t-186.5 87.5
q-187 0 -300 -156t-113 -405q0 -157 66.5 -244.5t189.5 -87.5z" />
    <glyph glyph-name="Ocircumflex" unicode="&#xd4;" horiz-adv-x="1656" 
d="M1083 1991l-168 -353h-297l207 385h533l72 -385h-297l-46 353h-4zM1008 1536q307 0 474 -164t167 -459q0 -280 -112 -491.5t-319.5 -326.5t-484.5 -115q-308 0 -475.5 164t-167.5 458q0 280 112.5 492t320.5 327t485 115zM793 311q183 0 296 157t113 406
q0 155 -65.5 242.5t-186.5 87.5q-187 0 -300 -156t-113 -405q0 -157 66.5 -244.5t189.5 -87.5z" />
    <glyph glyph-name="Otilde" unicode="&#xd5;" horiz-adv-x="1656" 
d="M1157 1681q-68 0 -151.5 36t-126.5 36q-41 0 -72 -21.5t-43 -58.5h-156q34 172 130.5 268.5t234.5 96.5q68 0 151.5 -36t126.5 -36q41 0 72 21.5t43 58.5h156q-34 -172 -130.5 -268.5t-234.5 -96.5zM733 -20q-308 0 -475.5 164t-167.5 458q0 280 112.5 492t320.5 327
t485 115q307 0 474 -164t167 -459q0 -280 -112 -491.5t-319.5 -326.5t-484.5 -115zM793 311q183 0 296 157t113 406q0 155 -65.5 242.5t-186.5 87.5q-187 0 -300 -156t-113 -405q0 -157 66.5 -244.5t189.5 -87.5z" />
    <glyph glyph-name="Odieresis" unicode="&#xd6;" horiz-adv-x="1656" 
d="M604 1671l53 311h379l-53 -311h-379zM1081 1671l54 311h378l-53 -311h-379zM733 -20q-308 0 -475.5 164t-167.5 458q0 280 112.5 492t320.5 327t485 115q307 0 474 -164t167 -459q0 -280 -112 -491.5t-319.5 -326.5t-484.5 -115zM793 311q183 0 296 157t113 406
q0 155 -65.5 242.5t-186.5 87.5q-187 0 -300 -156t-113 -405q0 -157 66.5 -244.5t189.5 -87.5z" />
    <glyph glyph-name="multiply" unicode="&#xd7;" horiz-adv-x="901" 
d="M889 811l-365 -307l254 -307l-92 -78l-254 307l-362 -307l-64 76l363 309l-254 307l92 78l254 -307l362 307z" />
    <glyph glyph-name="Oslash" unicode="&#xd8;" horiz-adv-x="1656" 
d="M1456 1395q193 -161 193 -482q0 -280 -112 -491.5t-319.5 -326.5t-484.5 -115q-214 0 -360 79l-117 -145l-94 61l119 148q-191 162 -191 479q0 280 112.5 492t320.5 327t485 115q209 0 356 -78l117 144l94 -62zM537 643q0 -96 26 -172l547 674q-62 59 -160 59
q-187 0 -300 -156t-113 -405zM793 311q183 0 296 157t113 406q0 97 -26 173l-549 -674q65 -62 166 -62z" />
    <glyph glyph-name="Ugrave" unicode="&#xd9;" horiz-adv-x="1544" 
d="M844 2079l422 -258l-146 -203l-440 233zM1018 535l172 981h407l-170 -963q-47 -270 -246 -421.5t-507 -151.5q-268 0 -413.5 117t-145.5 331q0 60 12 125l170 963h426l-172 -981q-4 -25 -4 -52q0 -83 50.5 -127.5t147.5 -44.5q110 0 182 59t91 165z" />
    <glyph glyph-name="Uacute" unicode="&#xda;" horiz-adv-x="1544" 
d="M1272 2079l82 -228l-523 -233l-71 203zM1018 535l172 981h407l-170 -963q-47 -270 -246 -421.5t-507 -151.5q-268 0 -413.5 117t-145.5 331q0 60 12 125l170 963h426l-172 -981q-4 -25 -4 -52q0 -83 50.5 -127.5t147.5 -44.5q110 0 182 59t91 165z" />
    <glyph glyph-name="Ucircumflex" unicode="&#xdb;" horiz-adv-x="1544" 
d="M1038 1991l-168 -353h-297l207 385h533l71 -385h-297l-45 353h-4zM1190 1516h407l-170 -963q-47 -270 -246 -421.5t-507 -151.5q-268 0 -413.5 117t-145.5 331q0 60 12 125l170 963h426l-172 -981q-4 -25 -4 -52q0 -83 50.5 -127.5t147.5 -44.5q110 0 182 59t91 165z" />
    <glyph glyph-name="Udieresis" unicode="&#xdc;" horiz-adv-x="1544" 
d="M559 1671l53 311h379l-53 -311h-379zM1036 1671l54 311h378l-53 -311h-379zM1018 535l172 981h407l-170 -963q-47 -270 -246 -421.5t-507 -151.5q-268 0 -413.5 117t-145.5 331q0 60 12 125l170 963h426l-172 -981q-4 -25 -4 -52q0 -83 50.5 -127.5t147.5 -44.5
q110 0 182 59t91 165z" />
    <glyph glyph-name="Yacute" unicode="&#xdd;" horiz-adv-x="1550" 
d="M1376 1851l-522 -233l-72 203l512 258zM1294 1516h459l-913 -1516h-459l391 651h-395l-209 865h489l172 -832h5z" />
    <glyph glyph-name="Thorn" unicode="&#xde;" horiz-adv-x="1425" 
d="M885 1276q260 0 402.5 -112.5t142.5 -313.5q0 -272 -196 -433t-529 -161h-189l-45 -256h-428l266 1516h428l-43 -240h191zM780 580q91 0 146 62t55 165q0 68 -35.5 106.5t-99.5 38.5h-207l-66 -372h207z" />
    <glyph glyph-name="germandbls" unicode="&#xdf;" horiz-adv-x="1337" 
d="M768 995q250 0 386 -109.5t136 -303.5q0 -269 -161 -435.5t-433 -166.5q-112 0 -188 24l53 301q36 -4 70 -4q112 0 176.5 72.5t64.5 191.5q0 81 -45.5 128.5t-128.5 47.5h-39l46 258q77 0 123 47t46 125q0 48 -25.5 76.5t-70.5 28.5q-65 0 -109.5 -42.5t-56.5 -115.5
l-196 -1118h-410l195 1104q41 232 209 362.5t424 130.5q231 0 358 -70.5t127 -197.5q0 -154 -148 -242t-403 -88v-4z" />
    <glyph glyph-name="agrave" unicode="&#xe0;" 
d="M1049 1354l-146 -203l-440 233l164 228zM893 1049h410l-185 -1049h-409l67 381h-4q-34 -189 -146.5 -295t-279.5 -106q-145 0 -224 106.5t-79 296.5q0 199 61.5 355t175 243.5t259.5 87.5q141 0 216.5 -76.5t75.5 -216.5q0 -43 -10 -108h4zM608 301q77 0 135.5 64.5
t73.5 158.5q6 38 6 60q0 73 -35.5 119.5t-99.5 46.5q-98 0 -157.5 -78t-59.5 -203q0 -80 35.5 -124t101.5 -44z" />
    <glyph glyph-name="aacute" unicode="&#xe1;" 
d="M1137 1384l-523 -233l-71 203l512 258zM893 1049h410l-185 -1049h-409l67 381h-4q-34 -189 -146.5 -295t-279.5 -106q-145 0 -224 106.5t-79 296.5q0 199 61.5 355t175 243.5t259.5 87.5q141 0 216.5 -76.5t75.5 -216.5q0 -43 -10 -108h4zM608 301q77 0 135.5 64.5
t73.5 158.5q6 38 6 60q0 73 -35.5 119.5t-99.5 46.5q-98 0 -157.5 -78t-59.5 -203q0 -80 35.5 -124t101.5 -44z" />
    <glyph glyph-name="acircumflex" unicode="&#xe2;" 
d="M821 1524l-168 -353h-297l207 385h533l71 -385h-297l-45 353h-4zM893 1049h410l-185 -1049h-409l67 381h-4q-34 -189 -146.5 -295t-279.5 -106q-145 0 -224 106.5t-79 296.5q0 199 61.5 355t175 243.5t259.5 87.5q141 0 216.5 -76.5t75.5 -216.5q0 -43 -10 -108h4z
M608 301q77 0 135.5 64.5t73.5 158.5q6 38 6 60q0 73 -35.5 119.5t-99.5 46.5q-98 0 -157.5 -78t-59.5 -203q0 -80 35.5 -124t101.5 -44z" />
    <glyph glyph-name="atilde" unicode="&#xe3;" 
d="M616 1286q-41 0 -71.5 -21.5t-42.5 -58.5h-156q34 172 130.5 268.5t234.5 96.5q68 0 151.5 -36t126.5 -36q41 0 72 21.5t43 58.5h156q-34 -172 -130.5 -268.5t-234.5 -96.5q-68 0 -152 36t-127 36zM893 1049h410l-185 -1049h-409l67 381h-4q-34 -189 -146.5 -295
t-279.5 -106q-145 0 -224 106.5t-79 296.5q0 199 61.5 355t175 243.5t259.5 87.5q141 0 216.5 -76.5t75.5 -216.5q0 -43 -10 -108h4zM608 301q77 0 135.5 64.5t73.5 158.5q6 38 6 60q0 73 -35.5 119.5t-99.5 46.5q-98 0 -157.5 -78t-59.5 -203q0 -80 35.5 -124t101.5 -44z
" />
    <glyph glyph-name="adieresis" unicode="&#xe4;" 
d="M774 1516l-53 -312h-379l53 312h379zM1251 1516l-53 -312h-379l53 312h379zM893 1049h410l-185 -1049h-409l67 381h-4q-34 -189 -146.5 -295t-279.5 -106q-145 0 -224 106.5t-79 296.5q0 199 61.5 355t175 243.5t259.5 87.5q141 0 216.5 -76.5t75.5 -216.5
q0 -43 -10 -108h4zM608 301q77 0 135.5 64.5t73.5 158.5q6 38 6 60q0 73 -35.5 119.5t-99.5 46.5q-98 0 -157.5 -78t-59.5 -203q0 -80 35.5 -124t101.5 -44z" />
    <glyph glyph-name="aring" unicode="&#xe5;" 
d="M756 1135q-124 0 -191 57.5t-67 159.5q0 140 94.5 223.5t255.5 83.5q124 0 191 -57.5t67 -159.5q0 -140 -94.5 -223.5t-255.5 -83.5zM817 1489q-47 0 -74.5 -31t-27.5 -82q0 -71 69 -71q47 0 75 30.5t28 81.5q0 34 -18 53t-52 19zM893 1049h410l-185 -1049h-409l67 381
h-4q-34 -189 -146.5 -295t-279.5 -106q-145 0 -224 106.5t-79 296.5q0 199 61.5 355t175 243.5t259.5 87.5q141 0 216.5 -76.5t75.5 -216.5q0 -43 -10 -108h4zM608 301q77 0 135.5 64.5t73.5 158.5q6 38 6 60q0 73 -35.5 119.5t-99.5 46.5q-98 0 -157.5 -78t-59.5 -203
q0 -80 35.5 -124t101.5 -44z" />
    <glyph glyph-name="ae" unicode="&#xe6;" horiz-adv-x="1955" 
d="M1638 1069q137 0 213 -93.5t76 -262.5q0 -90 -20 -187l-9 -41h-710q0 -7 -1 -21t-1 -20q0 -77 33 -119t96 -42q57 0 103 26t71 72h393q-55 -189 -171 -295t-265 -106q-130 0 -200 72t-70 204q0 42 10 104h-4l-64 -360h-409l67 381h-4q-34 -189 -146.5 -295t-279.5 -106
q-145 0 -224 106.5t-79 296.5q0 199 61.5 355t175 243.5t259.5 87.5q141 0 216.5 -76.5t75.5 -216.5q0 -43 -10 -108h4l68 381h410l-64 -361h4q32 180 136 280.5t259 100.5zM1401 768q-66 0 -116.5 -47t-76.5 -133h314v22q0 75 -31.5 116.5t-89.5 41.5zM608 301
q77 0 135.5 64.5t73.5 158.5q6 38 6 60q0 73 -35.5 119.5t-99.5 46.5q-98 0 -157.5 -78t-59.5 -203q0 -80 35.5 -124t101.5 -44z" />
    <glyph glyph-name="ccedilla" unicode="&#xe7;" horiz-adv-x="1228" 
d="M539 -20q-238 0 -368 117t-130 327q0 294 187 469.5t503 175.5q225 0 350 -122.5t125 -342.5h-399q-3 70 -36.5 108t-94.5 38q-96 0 -154.5 -79t-58.5 -204q0 -79 34.5 -122.5t98.5 -43.5q124 0 182 141h400q-62 -220 -229 -341t-410 -121zM434 -492q-121 0 -221 41
l27 144q60 -47 153 -47q69 0 107.5 21.5t38.5 58.5q0 23 -17.5 36t-48.5 13q-50 0 -88 -35l-92 94q121 78 276 78q108 0 167 -41t59 -115q0 -114 -97 -181t-264 -67z" />
    <glyph glyph-name="egrave" unicode="&#xe8;" horiz-adv-x="1206" 
d="M1012 1354l-146 -203l-440 233l164 228zM707 1069q221 0 344 -107t123 -300q0 -62 -15 -136l-8 -41h-711v-24q0 -85 33 -131.5t94 -46.5q57 0 103 26t71 72h394q-66 -189 -230.5 -295t-390.5 -106t-349.5 116t-123.5 324q0 296 181 472.5t485 176.5zM653 768
q-69 0 -120.5 -48.5t-75.5 -131.5h317v22q0 75 -31.5 116.5t-89.5 41.5z" />
    <glyph glyph-name="eacute" unicode="&#xe9;" horiz-adv-x="1206" 
d="M1100 1384l-522 -233l-72 203l512 258zM707 1069q221 0 344 -107t123 -300q0 -62 -15 -136l-8 -41h-711v-24q0 -85 33 -131.5t94 -46.5q57 0 103 26t71 72h394q-66 -189 -230.5 -295t-390.5 -106t-349.5 116t-123.5 324q0 296 181 472.5t485 176.5zM653 768
q-69 0 -120.5 -48.5t-75.5 -131.5h317v22q0 75 -31.5 116.5t-89.5 41.5z" />
    <glyph glyph-name="ecircumflex" unicode="&#xea;" horiz-adv-x="1206" 
d="M784 1524l-168 -353h-297l207 385h533l71 -385h-296l-46 353h-4zM707 1069q221 0 344 -107t123 -300q0 -62 -15 -136l-8 -41h-711v-24q0 -85 33 -131.5t94 -46.5q57 0 103 26t71 72h394q-66 -189 -230.5 -295t-390.5 -106t-349.5 116t-123.5 324q0 296 181 472.5
t485 176.5zM653 768q-69 0 -120.5 -48.5t-75.5 -131.5h317v22q0 75 -31.5 116.5t-89.5 41.5z" />
    <glyph glyph-name="edieresis" unicode="&#xeb;" horiz-adv-x="1206" 
d="M737 1516l-53 -312h-379l53 312h379zM1214 1516l-53 -312h-379l54 312h378zM707 1069q221 0 344 -107t123 -300q0 -62 -15 -136l-8 -41h-711v-24q0 -85 33 -131.5t94 -46.5q57 0 103 26t71 72h394q-66 -189 -230.5 -295t-390.5 -106t-349.5 116t-123.5 324
q0 296 181 472.5t485 176.5zM653 768q-69 0 -120.5 -48.5t-75.5 -131.5h317v22q0 75 -31.5 116.5t-89.5 41.5z" />
    <glyph glyph-name="igrave" unicode="&#xec;" horiz-adv-x="606" 
d="M283 1612l422 -258l-146 -203l-440 233zM190 1049h410l-184 -1049h-410z" />
    <glyph glyph-name="iacute" unicode="&#xed;" horiz-adv-x="606" 
d="M711 1612l82 -228l-523 -233l-71 203zM190 1049h410l-184 -1049h-410z" />
    <glyph glyph-name="icircumflex" unicode="&#xee;" horiz-adv-x="606" 
d="M477 1524l-168 -353h-297l207 385h533l71 -385h-297l-45 353h-4zM6 0l184 1049h410l-184 -1049h-410z" />
    <glyph glyph-name="idieresis" unicode="&#xef;" horiz-adv-x="606" 
d="M-2 1204l53 312h379l-53 -312h-379zM475 1204l53 312h379l-53 -312h-379zM190 1049h410l-184 -1049h-410z" />
    <glyph glyph-name="eth" unicode="&#xf0;" horiz-adv-x="1286" 
d="M1030 1329q121 -95 177.5 -218t56.5 -284q0 -97 -23 -235q-51 -290 -234.5 -451t-461.5 -161q-243 0 -373.5 112.5t-130.5 315.5q0 260 136 428t360 168q141 0 216.5 -79.5t75.5 -222.5q0 -45 -10 -110h4q27 150 27 254q0 116 -36.5 190.5t-119.5 128.5l-354 -170
l-82 183l195 94q-96 30 -168 49l129 276q250 -69 413 -145l303 145l80 -182zM604 301q94 0 152.5 67t58.5 179q0 74 -37 114.5t-104 40.5q-93 0 -151 -67t-58 -178q0 -74 36.5 -115t102.5 -41z" />
    <glyph glyph-name="ntilde" unicode="&#xf1;" horiz-adv-x="1265" 
d="M610 1286q-41 0 -71.5 -21.5t-42.5 -58.5h-156q34 172 130.5 268.5t234.5 96.5q68 0 151.5 -36t126.5 -36q41 0 72 21.5t43 58.5h155q-34 -172 -130 -268.5t-234 -96.5q-68 0 -152 36t-127 36zM922 1069q139 0 212.5 -82t73.5 -235q0 -60 -12 -131l-109 -621h-409
l106 600q4 28 4 43q0 51 -25.5 79t-74.5 28q-66 0 -112.5 -51t-61.5 -140l-98 -559h-410l184 1049h410l-68 -381h5q34 189 135.5 295t249.5 106z" />
    <glyph glyph-name="ograve" unicode="&#xf2;" horiz-adv-x="1277" 
d="M618 1612l422 -258l-145 -203l-440 233zM543 -20q-240 0 -371 117t-131 327q0 295 188 470t506 175q240 0 371 -117t131 -327q0 -294 -187.5 -469.5t-506.5 -175.5zM600 301q98 0 156.5 77t58.5 202q0 80 -35 125t-100 45q-98 0 -157.5 -78t-59.5 -203q0 -80 35.5 -124
t101.5 -44z" />
    <glyph glyph-name="oacute" unicode="&#xf3;" horiz-adv-x="1277" 
d="M1047 1612l81 -228l-522 -233l-71 203zM543 -20q-240 0 -371 117t-131 327q0 295 188 470t506 175q240 0 371 -117t131 -327q0 -294 -187.5 -469.5t-506.5 -175.5zM600 301q98 0 156.5 77t58.5 202q0 80 -35 125t-100 45q-98 0 -157.5 -78t-59.5 -203q0 -80 35.5 -124
t101.5 -44z" />
    <glyph glyph-name="ocircumflex" unicode="&#xf4;" horiz-adv-x="1277" 
d="M813 1524l-168 -353h-297l207 385h532l72 -385h-297l-45 353h-4zM735 1069q240 0 371 -117t131 -327q0 -294 -187.5 -469.5t-506.5 -175.5q-240 0 -371 117t-131 327q0 295 188 470t506 175zM600 301q98 0 156.5 77t58.5 202q0 80 -35 125t-100 45q-98 0 -157.5 -78
t-59.5 -203q0 -80 35.5 -124t101.5 -44z" />
    <glyph glyph-name="otilde" unicode="&#xf5;" horiz-adv-x="1277" 
d="M887 1214q-68 0 -152 36t-127 36q-41 0 -71.5 -21.5t-42.5 -58.5h-156q34 172 130 268.5t234 96.5q68 0 152 -36t127 -36q41 0 72 21.5t43 58.5h155q-34 -172 -130 -268.5t-234 -96.5zM543 -20q-240 0 -371 117t-131 327q0 295 188 470t506 175q240 0 371 -117t131 -327
q0 -294 -187.5 -469.5t-506.5 -175.5zM600 301q98 0 156.5 77t58.5 202q0 80 -35 125t-100 45q-98 0 -157.5 -78t-59.5 -203q0 -80 35.5 -124t101.5 -44z" />
    <glyph glyph-name="odieresis" unicode="&#xf6;" horiz-adv-x="1277" 
d="M334 1204l53 312h379l-53 -312h-379zM811 1204l53 312h379l-53 -312h-379zM543 -20q-240 0 -371 117t-131 327q0 295 188 470t506 175q240 0 371 -117t131 -327q0 -294 -187.5 -469.5t-506.5 -175.5zM600 301q98 0 156.5 77t58.5 202q0 80 -35 125t-100 45
q-98 0 -157.5 -78t-59.5 -203q0 -80 35.5 -124t101.5 -44z" />
    <glyph glyph-name="divide" unicode="&#xf7;" horiz-adv-x="1085" 
d="M584 758q-66 0 -66 59q0 42 25 67t67 25q68 0 68 -61q0 -43 -25 -66.5t-69 -23.5zM72 465l18 102h922l-19 -102h-921zM473 123q-32 0 -49.5 15.5t-17.5 43.5q0 41 25.5 66.5t68.5 25.5q67 0 67 -61q0 -43 -25 -66.5t-69 -23.5z" />
    <glyph glyph-name="oslash" unicode="&#xf8;" horiz-adv-x="1277" 
d="M1079 973q158 -118 158 -348q0 -294 -187.5 -469.5t-506.5 -175.5q-151 0 -260 47l-109 -129l-80 57l103 121q-156 119 -156 348q0 295 188 470t506 175q149 0 258 -47l109 129l80 -57zM463 469q0 -41 8 -68l279 332q-34 17 -70 17q-98 0 -157.5 -78t-59.5 -203zM600 301
q98 0 156.5 77t58.5 202q0 42 -8 69l-279 -330q30 -18 72 -18z" />
    <glyph glyph-name="ugrave" unicode="&#xf9;" horiz-adv-x="1247" 
d="M1024 1354l-145 -203l-441 233l164 228zM831 1049h410l-184 -1049h-410l68 381h-4q-34 -189 -133 -295t-242 -106q-134 0 -205.5 81.5t-71.5 231.5q0 55 13 135l108 621h412l-107 -600q-4 -23 -4 -46q0 -104 90 -104q61 0 104 50.5t58 139.5z" />
    <glyph glyph-name="uacute" unicode="&#xfa;" horiz-adv-x="1247" 
d="M1112 1384l-522 -233l-72 203l512 258zM831 1049h410l-184 -1049h-410l68 381h-4q-34 -189 -133 -295t-242 -106q-134 0 -205.5 81.5t-71.5 231.5q0 55 13 135l108 621h412l-107 -600q-4 -23 -4 -46q0 -104 90 -104q61 0 104 50.5t58 139.5z" />
    <glyph glyph-name="ucircumflex" unicode="&#xfb;" horiz-adv-x="1247" 
d="M797 1524l-168 -353h-297l207 385h532l72 -385h-297l-45 353h-4zM831 1049h410l-184 -1049h-410l68 381h-4q-34 -189 -133 -295t-242 -106q-134 0 -205.5 81.5t-71.5 231.5q0 55 13 135l108 621h412l-107 -600q-4 -23 -4 -46q0 -104 90 -104q61 0 104 50.5t58 139.5z" />
    <glyph glyph-name="udieresis" unicode="&#xfc;" horiz-adv-x="1247" 
d="M750 1516l-54 -312h-379l54 312h379zM1227 1516l-53 -312h-379l53 312h379zM831 1049h410l-184 -1049h-410l68 381h-4q-34 -189 -133 -295t-242 -106q-134 0 -205.5 81.5t-71.5 231.5q0 55 13 135l108 621h412l-107 -600q-4 -23 -4 -46q0 -104 90 -104q61 0 104 50.5
t58 139.5z" />
    <glyph glyph-name="yacute" unicode="&#xfd;" horiz-adv-x="1210" 
d="M1102 1384l-522 -233l-72 203l512 258zM836 1049h436l-545 -1520h-436l170 471h-330l-8 1049h436l-43 -1022h4z" />
    <glyph glyph-name="thorn" unicode="&#xfe;" 
d="M963 1069q146 0 224.5 -106t78.5 -297q0 -199 -61.5 -355t-175 -243.5t-259.5 -87.5q-144 0 -222.5 68.5t-78.5 191.5q0 40 8 79h-4l-141 -790h-410l363 2048h409l-149 -848h4q28 160 137.5 250t276.5 90zM623 299q96 0 155.5 78t59.5 203q0 80 -36 124t-102 44
q-77 0 -133.5 -64.5t-74.5 -159.5q-5 -22 -5 -55q0 -75 35.5 -122.5t100.5 -47.5z" />
    <glyph glyph-name="ydieresis" unicode="&#xff;" horiz-adv-x="1210" 
d="M739 1516l-53 -312h-379l53 312h379zM1217 1516l-54 -312h-379l54 312h379zM836 1049h436l-545 -1520h-436l170 471h-330l-8 1049h436l-43 -1022h4z" />
    <glyph glyph-name="Amacron" unicode="&#x100;" horiz-adv-x="1562" 
d="M1419 1968l-49 -278h-772l49 278h772zM1020 0l-19 336h-532l-137 -336h-424l672 1516h753l137 -1516h-450zM600 659h385l-45 824h-4z" />
    <glyph glyph-name="amacron" unicode="&#x101;" 
d="M1204 1501l-49 -278h-772l49 278h772zM893 1049h410l-185 -1049h-409l67 381h-4q-34 -189 -146.5 -295t-279.5 -106q-145 0 -224 106.5t-79 296.5q0 199 61.5 355t175 243.5t259.5 87.5q141 0 216.5 -76.5t75.5 -216.5q0 -43 -10 -108h4zM608 301q77 0 135.5 64.5
t73.5 158.5q6 38 6 60q0 73 -35.5 119.5t-99.5 46.5q-98 0 -157.5 -78t-59.5 -203q0 -80 35.5 -124t101.5 -44z" />
    <glyph glyph-name="Abreve" unicode="&#x102;" horiz-adv-x="1562" 
d="M977 1628q-175 0 -257 104.5t-54 290.5h262q-10 -76 13.5 -119.5t76.5 -43.5q52 0 90 43t55 120h264q-37 -186 -156 -290.5t-294 -104.5zM1020 0l-19 336h-532l-137 -336h-424l672 1516h753l137 -1516h-450zM600 659h385l-45 824h-4z" />
    <glyph glyph-name="abreve" unicode="&#x103;" 
d="M762 1161q-175 0 -257 104.5t-54 290.5h262q-10 -76 13.5 -119.5t76.5 -43.5q52 0 90 43t55 120h264q-37 -186 -156 -290.5t-294 -104.5zM893 1049h410l-185 -1049h-409l67 381h-4q-34 -189 -146.5 -295t-279.5 -106q-145 0 -224 106.5t-79 296.5q0 199 61.5 355
t175 243.5t259.5 87.5q141 0 216.5 -76.5t75.5 -216.5q0 -43 -10 -108h4zM608 301q77 0 135.5 64.5t73.5 158.5q6 38 6 60q0 73 -35.5 119.5t-99.5 46.5q-98 0 -157.5 -78t-59.5 -203q0 -80 35.5 -124t101.5 -44z" />
    <glyph glyph-name="Aogonek" unicode="&#x104;" horiz-adv-x="1562" 
d="M1233 -231q0 -41 53 -41q76 0 168 47l-39 -219q-113 -48 -274 -48q-116 0 -179 39.5t-63 110.5q0 48 41 106.5t110 110t173.5 86.5t218.5 35v4h-422l-19 336h-532l-137 -336h-424l672 1516h753l137 -1516q-111 -72 -174 -132.5t-63 -98.5zM600 659h385l-45 824h-4z" />
    <glyph glyph-name="aogonek" unicode="&#x105;" 
d="M1118 0q-111 -72 -174 -132.5t-63 -98.5q0 -41 53 -41q76 0 168 47l-39 -219q-113 -48 -275 -48q-116 0 -178.5 39.5t-62.5 110.5q0 48 41 106.5t110 110t173.5 86.5t218.5 35v4h-381l67 381h-4q-34 -189 -146.5 -295t-279.5 -106q-145 0 -224 106.5t-79 296.5
q0 199 61.5 355t175 243.5t259.5 87.5q141 0 216.5 -76.5t75.5 -216.5q0 -43 -10 -108h4l68 381h410zM608 301q77 0 135.5 64.5t73.5 158.5q6 38 6 60q0 73 -35.5 119.5t-99.5 46.5q-98 0 -157.5 -78t-59.5 -203q0 -80 35.5 -124t101.5 -44z" />
    <glyph glyph-name="Cacute" unicode="&#x106;" horiz-adv-x="1574" 
d="M1315 2079l82 -228l-523 -233l-71 203zM1548 614q-82 -298 -298.5 -466t-520.5 -168q-307 0 -473 163.5t-166 458.5q0 280 112 492t319 327t483 115q284 0 441 -147.5t157 -413.5q0 -8 -5 -76h-407v29q0 131 -64.5 203.5t-179.5 72.5q-183 0 -296 -157t-113 -406
q0 -156 64.5 -243t186.5 -87q125 0 216.5 79.5t136.5 223.5h407z" />
    <glyph glyph-name="cacute" unicode="&#x107;" horiz-adv-x="1228" 
d="M1042 1612l82 -228l-522 -233l-72 203zM539 -20q-238 0 -368 117t-130 327q0 294 187 469.5t503 175.5q225 0 350 -122.5t125 -342.5h-399q-3 70 -36.5 108t-94.5 38q-96 0 -154.5 -79t-58.5 -204q0 -79 34.5 -122.5t98.5 -43.5q124 0 182 141h400q-62 -220 -229 -341
t-410 -121z" />
    <glyph glyph-name="Cdotaccent" unicode="&#x10a;" horiz-adv-x="1574" 
d="M825 1671l54 311h409l-53 -311h-410zM1548 614q-82 -298 -298.5 -466t-520.5 -168q-307 0 -473 163.5t-166 458.5q0 280 112 492t319 327t483 115q284 0 441 -147.5t157 -413.5q0 -8 -5 -76h-407v29q0 131 -64.5 203.5t-179.5 72.5q-183 0 -296 -157t-113 -406
q0 -156 64.5 -243t186.5 -87q125 0 216.5 79.5t136.5 223.5h407z" />
    <glyph glyph-name="cdotaccent" unicode="&#x10b;" horiz-adv-x="1228" 
d="M553 1204l53 312h410l-53 -312h-410zM539 -20q-238 0 -368 117t-130 327q0 294 187 469.5t503 175.5q225 0 350 -122.5t125 -342.5h-399q-3 70 -36.5 108t-94.5 38q-96 0 -154.5 -79t-58.5 -204q0 -79 34.5 -122.5t98.5 -43.5q124 0 182 141h400q-62 -220 -229 -341
t-410 -121z" />
    <glyph glyph-name="Ccaron" unicode="&#x10c;" horiz-adv-x="1574" 
d="M756 1638l-72 385h297l45 -352h4l168 352h297l-207 -385h-532zM1597 899h-407v29q0 131 -64.5 203.5t-179.5 72.5q-183 0 -296 -157t-113 -406q0 -156 64.5 -243t186.5 -87q125 0 216.5 79.5t136.5 223.5h407q-82 -298 -298.5 -466t-520.5 -168q-307 0 -473 163.5
t-166 458.5q0 280 112 492t319 327t483 115q284 0 441 -147.5t157 -413.5q0 -8 -5 -76z" />
    <glyph glyph-name="ccaron" unicode="&#x10d;" horiz-adv-x="1228" 
d="M483 1171l-71 385h297l45 -352h4l168 352h297l-207 -385h-533zM676 750q-96 0 -154.5 -79t-58.5 -204q0 -79 34.5 -122.5t98.5 -43.5q124 0 182 141h400q-62 -220 -229 -341t-410 -121q-238 0 -368 117t-130 327q0 294 187 469.5t503 175.5q225 0 350 -122.5t125 -342.5
h-399q-3 70 -36.5 108t-94.5 38z" />
    <glyph glyph-name="Dcaron" unicode="&#x10e;" horiz-adv-x="1576" 
d="M647 1638l-72 385h297l46 -352h4l168 352h296l-206 -385h-533zM868 1516q335 0 518 -163.5t183 -455.5q0 -202 -69 -369.5t-194 -283.5t-305.5 -180t-398.5 -64h-559l266 1516h559zM680 324q199 0 319.5 148t120.5 388q0 156 -74.5 244t-211.5 88h-152l-154 -868h152z
" />
    <glyph glyph-name="dcaron" unicode="&#x10f;" horiz-adv-x="1390" 
d="M1589 1597l273 -77l-197 -439l-252 78zM825 668l162 909h410l-279 -1577h-409l67 381h-4q-34 -189 -146.5 -295t-279.5 -106q-145 0 -224 106.5t-79 296.5q0 199 61.5 355t175 243.5t259.5 87.5q141 0 216.5 -76.5t75.5 -216.5q0 -43 -10 -108h4zM608 301
q77 0 135.5 64.5t73.5 158.5q6 38 6 60q0 73 -35.5 119.5t-99.5 46.5q-98 0 -157.5 -78t-59.5 -203q0 -80 35.5 -124t101.5 -44z" />
    <glyph glyph-name="Dcroat" unicode="&#x110;" horiz-adv-x="1587" 
d="M879 1516q335 0 517.5 -163.5t182.5 -455.5q0 -202 -69 -369.5t-194 -283.5t-305.5 -180t-398.5 -64h-559l127 719h-127l19 102h125l122 695h560zM690 324q199 0 319.5 148t120.5 388q0 156 -74.5 244t-211.5 88h-152l-65 -371h282l-18 -102h-283l-69 -395h151z" />
    <glyph glyph-name="dcroat" unicode="&#x111;" 
d="M1473 1372l-19 -102h-111l-225 -1270h-409l67 381h-4q-34 -189 -146.5 -295t-279.5 -106q-145 0 -224 106.5t-79 296.5q0 199 61.5 355t175 243.5t259.5 87.5q141 0 216.5 -76.5t75.5 -216.5q0 -43 -10 -108h4l107 602h-316l19 102h315l37 205h410l-37 -205h113zM608 301
q77 0 135.5 64.5t73.5 158.5q6 38 6 60q0 73 -35.5 119.5t-99.5 46.5q-98 0 -157.5 -78t-59.5 -203q0 -80 35.5 -124t101.5 -44z" />
    <glyph glyph-name="Emacron" unicode="&#x112;" horiz-adv-x="1392" 
d="M1360 1968l-49 -278h-772l49 278h772zM1423 1192h-741l-45 -258h668l-56 -324h-669l-52 -286h764l-57 -324h-1192l266 1516h1170z" />
    <glyph glyph-name="emacron" unicode="&#x113;" horiz-adv-x="1206" 
d="M1167 1501l-49 -278h-772l49 278h772zM707 1069q221 0 344 -107t123 -300q0 -62 -15 -136l-8 -41h-711v-24q0 -85 33 -131.5t94 -46.5q57 0 103 26t71 72h394q-66 -189 -230.5 -295t-390.5 -106t-349.5 116t-123.5 324q0 296 181 472.5t485 176.5zM653 768
q-69 0 -120.5 -48.5t-75.5 -131.5h317v22q0 75 -31.5 116.5t-89.5 41.5z" />
    <glyph glyph-name="Edotaccent" unicode="&#x116;" horiz-adv-x="1392" 
d="M1184 1982l-54 -311h-409l53 311h410zM1423 1192h-741l-45 -258h668l-56 -324h-669l-52 -286h764l-57 -324h-1192l266 1516h1170z" />
    <glyph glyph-name="edotaccent" unicode="&#x117;" horiz-adv-x="1206" 
d="M991 1516l-53 -312h-410l54 312h409zM707 1069q221 0 344 -107t123 -300q0 -62 -15 -136l-8 -41h-711v-24q0 -85 33 -131.5t94 -46.5q57 0 103 26t71 72h394q-66 -189 -230.5 -295t-390.5 -106t-349.5 116t-123.5 324q0 296 181 472.5t485 176.5zM653 768
q-69 0 -120.5 -48.5t-75.5 -131.5h317v22q0 75 -31.5 116.5t-89.5 41.5z" />
    <glyph glyph-name="Eogonek" unicode="&#x118;" horiz-adv-x="1392" 
d="M1423 1192h-741l-45 -258h668l-56 -324h-669l-52 -286h764l-57 -324h-246q-111 -72 -174 -132.5t-63 -98.5q0 -41 53 -41q76 0 168 47l-39 -219q-113 -48 -275 -48q-116 0 -178.5 39.5t-62.5 110.5q0 48 41 106.5t110 110t173.5 86.5t218.5 35v4h-918l266 1516h1170z" />
    <glyph glyph-name="eogonek" unicode="&#x119;" horiz-adv-x="1206" 
d="M707 1069q221 0 344 -107t123 -300q0 -62 -15 -136l-8 -41h-711v-24q0 -85 33 -131.5t94 -46.5q57 0 103 26t71 72h394q-80 -227 -295 -332q-140 -88 -219.5 -161.5t-79.5 -118.5q0 -41 53 -41q76 0 168 47l-39 -219q-113 -48 -274 -48q-116 0 -179 39.5t-63 110.5
q0 88 140.5 175.5t420.5 182.5v4q-116 -40 -254 -40q-226 0 -349.5 116t-123.5 324q0 296 181 472.5t485 176.5zM653 768q-69 0 -120.5 -48.5t-75.5 -131.5h317v22q0 75 -31.5 116.5t-89.5 41.5z" />
    <glyph glyph-name="Ecaron" unicode="&#x11a;" horiz-adv-x="1392" 
d="M651 1638l-71 385h297l45 -352h4l168 352h297l-207 -385h-533zM1423 1192h-741l-45 -258h668l-56 -324h-669l-52 -286h764l-57 -324h-1192l266 1516h1170z" />
    <glyph glyph-name="ecaron" unicode="&#x11b;" horiz-adv-x="1206" 
d="M459 1171l-72 385h297l45 -352h4l168 352h297l-207 -385h-532zM707 1069q221 0 344 -107t123 -300q0 -62 -15 -136l-8 -41h-711v-24q0 -85 33 -131.5t94 -46.5q57 0 103 26t71 72h394q-66 -189 -230.5 -295t-390.5 -106t-349.5 116t-123.5 324q0 296 181 472.5t485 176.5
zM653 768q-69 0 -120.5 -48.5t-75.5 -131.5h317v22q0 75 -31.5 116.5t-89.5 41.5z" />
    <glyph glyph-name="Gbreve" unicode="&#x11e;" horiz-adv-x="1624" 
d="M1028 1628q-175 0 -257 104.5t-54 290.5h262q-10 -76 13.5 -119.5t76.5 -43.5q52 0 90 43t55 120h265q-37 -186 -156.5 -290.5t-294.5 -104.5zM1597 926h-407v26q0 119 -62.5 185.5t-175.5 66.5q-186 0 -298.5 -156.5t-112.5 -404.5q0 -157 66 -244.5t188 -87.5
q121 0 208 63t125 177h-299l50 270h712l-145 -821h-402l93 528h-4q-46 -258 -206 -403t-397 -145q-213 0 -327.5 152t-114.5 423q0 302 114 524.5t322 339.5t486 117q281 0 436.5 -140t155.5 -392q0 -10 -5 -78z" />
    <glyph glyph-name="gbreve" unicode="&#x11f;" 
d="M795 1161q-175 0 -257.5 104.5t-54.5 290.5h262q-10 -76 14 -119.5t77 -43.5q52 0 90 43t55 120h264q-37 -186 -156 -290.5t-294 -104.5zM893 1049h410l-185 -1049q-41 -232 -211 -362t-432 -130q-216 0 -347 94.5t-148 262.5l401 69q9 -51 48 -78.5t101 -27.5
q69 0 116 41t59 113l75 419h-4q-35 -189 -147.5 -295t-278.5 -106q-147 0 -226 104.5t-79 292.5q0 296 137 484t357 188q141 0 216.5 -76.5t75.5 -216.5q0 -43 -10 -108h4zM612 322q77 0 134 62t73 151q4 25 4 53q0 71 -35 116.5t-100 45.5q-96 0 -155.5 -74t-59.5 -193
q0 -77 36 -119t103 -42z" />
    <glyph glyph-name="Gdotaccent" unicode="&#x120;" horiz-adv-x="1624" 
d="M1294 1982l-53 -311h-410l54 311h409zM1597 926h-407v26q0 119 -62.5 185.5t-175.5 66.5q-186 0 -298.5 -156.5t-112.5 -404.5q0 -157 66 -244.5t188 -87.5q121 0 208 63t125 177h-299l50 270h712l-145 -821h-402l93 528h-4q-46 -258 -206 -403t-397 -145
q-213 0 -327.5 152t-114.5 423q0 302 114 524.5t322 339.5t486 117q281 0 436.5 -140t155.5 -392q0 -10 -5 -78z" />
    <glyph glyph-name="gdotaccent" unicode="&#x121;" 
d="M1061 1516l-53 -312h-410l53 312h410zM893 1049h410l-185 -1049q-41 -232 -211 -362t-432 -130q-216 0 -347 94.5t-148 262.5l401 69q9 -51 48 -78.5t101 -27.5q69 0 116 41t59 113l75 419h-4q-35 -189 -147.5 -295t-278.5 -106q-147 0 -226 104.5t-79 292.5
q0 296 137 484t357 188q141 0 216.5 -76.5t75.5 -216.5q0 -43 -10 -108h4zM612 322q77 0 134 62t73 151q4 25 4 53q0 71 -35 116.5t-100 45.5q-96 0 -155.5 -74t-59.5 -193q0 -77 36 -119t103 -42z" />
    <glyph glyph-name="Gcommaaccent" unicode="&#x122;" horiz-adv-x="1624" 
d="M1597 926h-407v26q0 119 -62.5 185.5t-175.5 66.5q-186 0 -298.5 -156.5t-112.5 -404.5q0 -157 66 -244.5t188 -87.5q121 0 208 63t125 177h-299l50 270h712l-145 -821h-402l93 528h-4q-46 -258 -206 -403t-397 -145q-213 0 -327.5 152t-114.5 423q0 302 114 524.5
t322 339.5t486 117q281 0 436.5 -140t155.5 -392q0 -10 -5 -78zM506 -340l41 231h348l-35 -192q-15 -92 -114 -141.5t-267 -49.5l17 95q157 0 228 13t105 44h-323z" />
    <glyph glyph-name="gcommaaccent" unicode="&#x123;" 
d="M1022 1475l-49 -275h-348l39 215q22 124 124 191t269 67l-17 -94q-156 0 -230.5 -24.5t-111.5 -79.5h324zM893 1049h410l-185 -1049q-41 -232 -211 -362t-432 -130q-216 0 -347 94.5t-148 262.5l401 69q9 -51 48 -78.5t101 -27.5q69 0 116 41t59 113l75 419h-4
q-35 -189 -147.5 -295t-278.5 -106q-147 0 -226 104.5t-79 292.5q0 296 137 484t357 188q141 0 216.5 -76.5t75.5 -216.5q0 -43 -10 -108h4zM612 322q77 0 134 62t73 151q4 25 4 53q0 71 -35 116.5t-100 45.5q-96 0 -155.5 -74t-59.5 -193q0 -77 36 -119t103 -42z" />
    <glyph glyph-name="Hbar" unicode="&#x126;" horiz-adv-x="1622" 
d="M1726 1278l-18 -102h-109l-206 -1176h-428l106 604h-489l-107 -604h-428l207 1176h-113l19 102h112l41 238h428l-41 -238h490l41 238h428l-41 -238h108zM1128 928l43 248h-489l-43 -248h489z" />
    <glyph glyph-name="hbar" unicode="&#x127;" horiz-adv-x="1265" 
d="M922 1069q139 0 212.5 -82t73.5 -235q0 -60 -12 -131l-109 -621h-409l106 600q4 28 4 43q0 51 -25.5 79t-74.5 28q-66 0 -112.5 -51t-61.5 -140l-98 -559h-410l225 1270h-110l18 102h109l37 205h409l-37 -205h320l-19 -102h-319l-107 -602h5q34 189 135.5 295t249.5 106z
" />
    <glyph glyph-name="Imacron" unicode="&#x12a;" horiz-adv-x="698" 
d="M215 1968h772l-49 -278h-772zM43 0l266 1516h428l-266 -1516h-428z" />
    <glyph glyph-name="imacron" unicode="&#x12b;" horiz-adv-x="606" 
d="M88 1501h772l-49 -278h-772zM190 1049h410l-184 -1049h-410z" />
    <glyph glyph-name="Iogonek" unicode="&#x12e;" horiz-adv-x="698" 
d="M471 0q-111 -72 -174.5 -133t-63.5 -98q0 -41 54 -41q76 0 168 47l-39 -219q-113 -48 -275 -48q-116 0 -178.5 39.5t-62.5 110.5q0 38 25 83.5t74.5 90.5t113.5 81.5t150.5 59.5t178.5 23v4h-399l266 1516h428z" />
    <glyph glyph-name="iogonek" unicode="&#x12f;" horiz-adv-x="606" 
d="M274 1516h410l-53 -312h-410zM6 0l184 1049h410l-184 -1049q-111 -72 -174.5 -133t-63.5 -98q0 -41 53 -41q76 0 168 47l-39 -219q-113 -48 -274 -48q-116 0 -179 39.5t-63 110.5q0 48 41 106.5t110 110t173.5 86.5t218.5 35v4h-381z" />
    <glyph glyph-name="Idotaccent" unicode="&#x130;" horiz-adv-x="698" 
d="M348 1671l53 311h410l-53 -311h-410zM43 0l266 1516h428l-266 -1516h-428z" />
    <glyph glyph-name="dotlessi" unicode="&#x131;" horiz-adv-x="606" 
d="M190 1049h410l-184 -1049h-410z" />
    <glyph glyph-name="Kcommaaccent" unicode="&#x136;" horiz-adv-x="1564" 
d="M1702 1516l-662 -719l490 -797h-502l-434 780h-4l-137 -780h-410l266 1516h410l-125 -715h4l631 715h473zM487 -340l41 231h349l-35 -192q-15 -92 -114 -141.5t-267 -49.5l16 95q157 0 228.5 13t105.5 44h-324z" />
    <glyph glyph-name="kcommaaccent" unicode="&#x137;" horiz-adv-x="1251" 
d="M1323 1049l-373 -498l244 -551h-479l-201 535h-4l-94 -535h-410l279 1577h409l-180 -1022h4l344 494h461zM346 -340l41 231h348l-35 -192q-15 -92 -114 -141.5t-267 -49.5l17 95q157 0 228.5 13t105.5 44h-324z" />
    <glyph glyph-name="Lacute" unicode="&#x139;" horiz-adv-x="1210" 
d="M920 1851l-523 -233l-71 203l512 258zM530 336h621l-59 -336h-1049l266 1516h428z" />
    <glyph glyph-name="lacute" unicode="&#x13a;" horiz-adv-x="606" 
d="M805 2140l82 -227l-522 -234l-72 203zM6 0l279 1577h409l-278 -1577h-410z" />
    <glyph glyph-name="Lcommaaccent" unicode="&#x13b;" horiz-adv-x="1210" 
d="M530 336h621l-59 -336h-1049l266 1516h428zM317 -340l41 231h349l-35 -192q-15 -92 -114 -141.5t-267 -49.5l16 95q157 0 228.5 13t105.5 44h-324z" />
    <glyph glyph-name="lcommaaccent" unicode="&#x13c;" horiz-adv-x="606" 
d="M285 1577h409l-278 -1577h-410zM-23 -340l41 231h349l-35 -192q-15 -92 -114 -141.5t-267 -49.5l16 95q157 0 228.5 13t105.5 44h-324z" />
    <glyph glyph-name="Lcaron" unicode="&#x13d;" horiz-adv-x="1249" 
d="M1077 1536l275 -78l-197 -438l-252 78zM737 1516l-207 -1180h621l-59 -336h-1049l266 1516h428z" />
    <glyph glyph-name="lcaron" unicode="&#x13e;" horiz-adv-x="688" 
d="M889 1597l272 -77l-196 -439l-252 78zM6 0l279 1577h409l-278 -1577h-410z" />
    <glyph glyph-name="Lslash" unicode="&#x141;" horiz-adv-x="1226" 
d="M545 336h620l-59 -336h-1049l93 526l-146 -75l19 104l145 76l156 885h428l-115 -652l401 205l-18 -102l-399 -205z" />
    <glyph glyph-name="lslash" unicode="&#x142;" horiz-adv-x="690" 
d="M756 1069l-17 -98l-118 -51l-162 -920h-410l135 760l-118 -51l18 100l117 49l127 719h409l-98 -559z" />
    <glyph glyph-name="Nacute" unicode="&#x143;" horiz-adv-x="1615" 
d="M1380 1851l-522 -233l-72 203l512 258zM1249 1516h406l-266 -1516h-684l-11 1483h-4l-241 -1483h-406l266 1516h684l13 -1483h4z" />
    <glyph glyph-name="nacute" unicode="&#x144;" horiz-adv-x="1265" 
d="M1130 1384l-522 -233l-71 203l512 258zM922 1069q139 0 212.5 -82t73.5 -235q0 -60 -12 -131l-109 -621h-409l106 600q4 28 4 43q0 51 -25.5 79t-74.5 28q-66 0 -112.5 -51t-61.5 -140l-98 -559h-410l184 1049h410l-68 -381h5q34 189 135.5 295t249.5 106z" />
    <glyph glyph-name="Ncommaaccent" unicode="&#x145;" horiz-adv-x="1615" 
d="M1249 1516h406l-266 -1516h-684l-11 1483h-4l-241 -1483h-406l266 1516h684l13 -1483h4zM483 -340l41 231h348l-34 -192q-15 -92 -114 -141.5t-267 -49.5l16 95q157 0 228.5 13t105.5 44h-324z" />
    <glyph glyph-name="ncommaaccent" unicode="&#x146;" horiz-adv-x="1265" 
d="M922 1069q139 0 212.5 -82t73.5 -235q0 -60 -12 -131l-109 -621h-409l106 600q4 28 4 43q0 51 -25.5 79t-74.5 28q-66 0 -112.5 -51t-61.5 -140l-98 -559h-410l184 1049h410l-68 -381h5q34 189 135.5 295t249.5 106zM315 -340l41 231h349l-35 -192q-15 -92 -114 -141.5
t-267 -49.5l16 95q157 0 228.5 13t105.5 44h-324z" />
    <glyph glyph-name="Ncaron" unicode="&#x147;" horiz-adv-x="1615" 
d="M739 1638l-71 385h297l45 -352h4l168 352h297l-207 -385h-533zM1249 1516h406l-266 -1516h-684l-11 1483h-4l-241 -1483h-406l266 1516h684l13 -1483h4z" />
    <glyph glyph-name="ncaron" unicode="&#x148;" horiz-adv-x="1265" 
d="M489 1171l-71 385h297l45 -352h4l168 352h297l-207 -385h-533zM922 1069q139 0 212.5 -82t73.5 -235q0 -60 -12 -131l-109 -621h-409l106 600q4 28 4 43q0 51 -25.5 79t-74.5 28q-66 0 -112.5 -51t-61.5 -140l-98 -559h-410l184 1049h410l-68 -381h5q34 189 135.5 295
t249.5 106z" />
    <glyph glyph-name="Eng" unicode="&#x14a;" horiz-adv-x="1615" 
d="M1249 1516h406l-266 -1516l-3 -10q-46 -229 -198 -355.5t-385 -126.5q-150 0 -258 60l176 301q32 -29 94 -29q54 0 91.5 32t47.5 89l9 39h-258l-11 1483h-4l-241 -1483h-406l266 1516h684l13 -1483h4z" />
    <glyph glyph-name="eng" unicode="&#x14b;" horiz-adv-x="1265" 
d="M922 1069q139 0 212.5 -82t73.5 -235q0 -60 -12 -131l-113 -644q-38 -221 -180.5 -345t-357.5 -124q-95 0 -176.5 27t-132.5 74l172 262q50 -41 104 -41q65 0 108.5 41t55.5 113l108 616q4 28 4 43q0 51 -25.5 79t-74.5 28q-66 0 -112.5 -51t-61.5 -140l-98 -559h-410
l184 1049h410l-68 -381h5q34 189 135.5 295t249.5 106z" />
    <glyph glyph-name="Omacron" unicode="&#x14c;" horiz-adv-x="1656" 
d="M694 1968h772l-49 -278h-772zM733 -20q-308 0 -475.5 164t-167.5 458q0 280 112.5 492t320.5 327t485 115q307 0 474 -164t167 -459q0 -280 -112 -491.5t-319.5 -326.5t-484.5 -115zM793 311q183 0 296 157t113 406q0 155 -65.5 242.5t-186.5 87.5q-187 0 -300 -156
t-113 -405q0 -157 66.5 -244.5t189.5 -87.5z" />
    <glyph glyph-name="omacron" unicode="&#x14d;" horiz-adv-x="1277" 
d="M424 1501h772l-49 -278h-772zM543 -20q-240 0 -371 117t-131 327q0 295 188 470t506 175q240 0 371 -117t131 -327q0 -294 -187.5 -469.5t-506.5 -175.5zM600 301q98 0 156.5 77t58.5 202q0 80 -35 125t-100 45q-98 0 -157.5 -78t-59.5 -203q0 -80 35.5 -124t101.5 -44z
" />
    <glyph glyph-name="Ohungarumlaut" unicode="&#x150;" horiz-adv-x="1656" 
d="M1120 2105l154 -174l-471 -356l-133 162zM1587 2105l154 -174l-471 -356l-133 162zM733 -20q-308 0 -475.5 164t-167.5 458q0 280 112.5 492t320.5 327t485 115q307 0 474 -164t167 -459q0 -280 -112 -491.5t-319.5 -326.5t-484.5 -115zM793 311q183 0 296 157t113 406
q0 155 -65.5 242.5t-186.5 87.5q-187 0 -300 -156t-113 -405q0 -157 66.5 -244.5t189.5 -87.5z" />
    <glyph glyph-name="ohungarumlaut" unicode="&#x151;" horiz-adv-x="1277" 
d="M850 1638l154 -174l-472 -356l-133 162zM1317 1638l153 -174l-471 -356l-133 162zM543 -20q-240 0 -371 117t-131 327q0 295 188 470t506 175q240 0 371 -117t131 -327q0 -294 -187.5 -469.5t-506.5 -175.5zM600 301q98 0 156.5 77t58.5 202q0 80 -35 125t-100 45
q-98 0 -157.5 -78t-59.5 -203q0 -80 35.5 -124t101.5 -44z" />
    <glyph glyph-name="OE" unicode="&#x152;" horiz-adv-x="2412" 
d="M2443 1192h-741l-45 -258h667l-55 -324h-670l-51 -286h764l-57 -324h-1192l98 553h-4q-47 -269 -213.5 -421t-415.5 -152q-209 0 -322.5 152.5t-113.5 424.5q0 212 52 393.5t144.5 310.5t225 202t289.5 73q211 0 325.5 -112t114.5 -314q0 -73 -14 -147h4l96 553h1170z
M801 311q101 0 188.5 61.5t144 162.5t78.5 223q11 75 11 114q0 147 -69.5 239.5t-195.5 92.5q-185 0 -299 -156.5t-114 -404.5q0 -158 66 -245t190 -87z" />
    <glyph glyph-name="oe" unicode="&#x153;" horiz-adv-x="1961" 
d="M1462 1069q221 0 344 -107t123 -300q0 -67 -14 -136l-8 -41h-711v-24q0 -85 33 -131.5t94 -46.5q57 0 103 26t71 72h393q-66 -189 -230 -295t-390 -106q-231 0 -353.5 112t-119.5 316h-4q-35 -201 -153.5 -314.5t-293.5 -113.5q-145 0 -224 106.5t-79 296.5
q0 199 61.5 355t175 243.5t259.5 87.5q147 0 226 -80.5t79 -230.5q0 -64 -10 -115h4q71 203 233 314.5t391 111.5zM1409 768q-69 0 -121 -48.5t-76 -131.5h318v22q0 75 -31.5 116.5t-89.5 41.5zM608 301q77 0 135.5 64.5t73.5 158.5q6 38 6 60q0 73 -35.5 119.5t-99.5 46.5
q-98 0 -157.5 -78t-59.5 -203q0 -80 35.5 -124t101.5 -44z" />
    <glyph glyph-name="Racute" unicode="&#x154;" horiz-adv-x="1503" 
d="M1243 1851l-522 -233l-72 203l512 258zM791 569q191 0 321 -62t168 -175l111 -332h-476l-163 569h-181l-100 -569h-428l266 1516h647q269 0 416.5 -102.5t147.5 -285.5q0 -254 -196 -404.5t-533 -150.5v-4zM625 872h237q95 0 151 51.5t56 137.5q0 62 -38.5 96.5
t-110.5 34.5h-238z" />
    <glyph glyph-name="racute" unicode="&#x155;" horiz-adv-x="933" 
d="M969 1384l-523 -233l-71 203l512 258zM889 1069q90 0 153 -37l-182 -356q-55 39 -125 39q-91 0 -156 -78t-90 -217l-73 -420h-410l184 1049h410l-84 -478h4q41 234 139 366t230 132z" />
    <glyph glyph-name="Rcommaaccent" unicode="&#x156;" horiz-adv-x="1503" 
d="M791 569q191 0 321 -62t168 -175l111 -332h-476l-163 569h-181l-100 -569h-428l266 1516h647q269 0 416.5 -102.5t147.5 -285.5q0 -254 -196 -404.5t-533 -150.5v-4zM625 872h237q95 0 151 51.5t56 137.5q0 62 -38.5 96.5t-110.5 34.5h-238zM408 -340l41 231h348
l-35 -192q-15 -92 -114 -141.5t-267 -49.5l16 95q157 0 228.5 13t105.5 44h-323z" />
    <glyph glyph-name="rcommaaccent" unicode="&#x157;" horiz-adv-x="933" 
d="M889 1069q90 0 153 -37l-182 -356q-55 39 -125 39q-91 0 -156 -78t-90 -217l-73 -420h-410l184 1049h410l-84 -478h4q41 234 139 366t230 132zM-31 -340l41 231h348l-34 -192q-15 -92 -114 -141.5t-267 -49.5l16 95q157 0 228.5 13t105.5 44h-324z" />
    <glyph glyph-name="Rcaron" unicode="&#x158;" horiz-adv-x="1503" 
d="M602 1638l-72 385h297l45 -352h5l167 352h297l-206 -385h-533zM791 569q191 0 321 -62t168 -175l111 -332h-476l-163 569h-181l-100 -569h-428l266 1516h647q269 0 416.5 -102.5t147.5 -285.5q0 -254 -196 -404.5t-533 -150.5v-4zM625 872h237q95 0 151 51.5t56 137.5
q0 62 -38.5 96.5t-110.5 34.5h-238z" />
    <glyph glyph-name="rcaron" unicode="&#x159;" horiz-adv-x="933" 
d="M328 1171l-72 385h297l45 -352h4l168 352h297l-207 -385h-532zM520 571q41 234 139 366t230 132q90 0 153 -37l-182 -356q-55 39 -125 39q-91 0 -156 -78t-90 -217l-73 -420h-410l184 1049h410l-84 -478h4z" />
    <glyph glyph-name="Sacute" unicode="&#x15a;" horiz-adv-x="1454" 
d="M1214 2079l82 -228l-522 -233l-72 203zM629 -20q-277 0 -429.5 135t-152.5 381v51h424v-15q0 -104 60 -162.5t167 -58.5q117 0 184.5 43t67.5 117q0 27 -15.5 47.5t-37 32.5t-63.5 22.5t-74.5 16t-89.5 12.5q-190 26 -275 57q-194 71 -220 245q-5 30 -5 63q0 271 195 420
t538 149q253 0 394 -132.5t141 -367.5v-43h-424v25q0 90 -50 138t-143 48q-95 0 -149 -36.5t-54 -98.5q0 -19 9 -35t29 -27.5t40.5 -19.5t56 -15t61.5 -11.5t71 -10.5q66 -10 101.5 -15.5t99 -20.5t99.5 -31t83 -44.5t72 -63t43 -85t18 -112.5q0 -271 -209 -434.5
t-563 -163.5z" />
    <glyph glyph-name="sacute" unicode="&#x15b;" horiz-adv-x="1124" 
d="M965 1612l82 -228l-523 -233l-71 203zM461 -20q-221 0 -341 78t-120 221q0 27 6 61h377q-2 -12 -2 -23q0 -44 32.5 -69t90.5 -25q68 0 106.5 25t38.5 67q0 14 -6 25t-20.5 19.5t-27.5 14t-39.5 11t-43.5 8.5t-51 8q-45 6 -72.5 11t-71 15.5t-70.5 22.5t-59.5 32.5t-51 46
t-31.5 62t-13 81.5q0 184 151 290.5t410 106.5q209 0 324 -74t115 -209q0 -26 -7 -61h-376q2 12 2 25q0 39 -25.5 60t-73.5 21q-53 0 -84.5 -20t-31.5 -53q0 -13 6 -23t20.5 -18t27.5 -13.5t39.5 -11t42.5 -8.5t50 -8q154 -26 218 -52q152 -64 153 -214
q0 -197 -159.5 -313.5t-432.5 -116.5z" />
    <glyph glyph-name="Scedilla" unicode="&#x15e;" horiz-adv-x="1454" 
d="M629 -20q-277 0 -429.5 135t-152.5 381v51h424v-15q0 -104 60 -162.5t167 -58.5q117 0 184.5 43t67.5 117q0 27 -15.5 47.5t-37 32.5t-63.5 22.5t-74.5 16t-89.5 12.5q-190 26 -275 57q-194 71 -220 245q-5 30 -5 63q0 271 195 420t538 149q253 0 394 -132.5t141 -367.5
v-43h-424v25q0 90 -50 138t-143 48q-95 0 -149 -36.5t-54 -98.5q0 -19 9 -35t29 -27.5t40.5 -19.5t56 -15t61.5 -11.5t71 -10.5q66 -10 101.5 -15.5t99 -20.5t99.5 -31t83 -44.5t72 -63t43 -85t18 -112.5q0 -271 -209 -434.5t-563 -163.5zM524 -492q-121 0 -221 41l27 144
q60 -47 153 -47q69 0 107.5 21.5t38.5 58.5q0 23 -17.5 36t-48.5 13q-50 0 -88 -35l-92 94q121 78 276 78q108 0 167 -41t59 -115q0 -114 -97 -181t-264 -67z" />
    <glyph glyph-name="scedilla" unicode="&#x15f;" horiz-adv-x="1124" 
d="M461 -20q-221 0 -341 78t-120 221q0 27 6 61h377q-2 -12 -2 -23q0 -44 32.5 -69t90.5 -25q68 0 106.5 25t38.5 67q0 14 -6 25t-20.5 19.5t-27.5 14t-39.5 11t-43.5 8.5t-51 8q-45 6 -72.5 11t-71 15.5t-70.5 22.5t-59.5 32.5t-51 46t-31.5 62t-13 81.5q0 184 151 290.5
t410 106.5q209 0 324 -74t115 -209q0 -26 -7 -61h-376q2 12 2 25q0 39 -25.5 60t-73.5 21q-53 0 -84.5 -20t-31.5 -53q0 -13 6 -23t20.5 -18t27.5 -13.5t39.5 -11t42.5 -8.5t50 -8q154 -26 218 -52q152 -64 153 -214q0 -197 -159.5 -313.5t-432.5 -116.5zM346 -492
q-121 0 -221 41l27 144q60 -47 153 -47q69 0 107.5 21.5t38.5 58.5q0 23 -17.5 36t-48.5 13q-50 0 -88 -35l-92 94q121 78 276 78q108 0 167 -41t59 -115q0 -114 -97 -181t-264 -67z" />
    <glyph glyph-name="Scaron" unicode="&#x160;" horiz-adv-x="1454" 
d="M655 1638l-71 385h297l45 -352h4l168 352h297l-207 -385h-533zM1438 993h-424v25q0 90 -50 138t-143 48q-95 0 -149 -36.5t-54 -98.5q0 -19 9 -35t29 -27.5t40.5 -19.5t56 -15t61.5 -11.5t71 -10.5q66 -10 101.5 -15.5t99 -20.5t99.5 -31t83 -44.5t72 -63t43 -85
t18 -112.5q0 -271 -209 -434.5t-563 -163.5q-277 0 -429.5 135t-152.5 381v51h424v-15q0 -104 60 -162.5t167 -58.5q117 0 184.5 43t67.5 117q0 27 -15.5 47.5t-37 32.5t-63.5 22.5t-74.5 16t-89.5 12.5q-190 26 -275 57q-194 71 -220 245q-5 30 -5 63q0 271 195 420
t538 149q253 0 394 -132.5t141 -367.5v-43z" />
    <glyph glyph-name="scaron" unicode="&#x161;" horiz-adv-x="1124" 
d="M406 1171l-72 385h297l45 -352h4l168 352h297l-207 -385h-532zM653 1069q209 0 324 -74t115 -209q0 -26 -7 -61h-376q2 12 2 25q0 39 -25.5 60t-73.5 21q-53 0 -84.5 -20t-31.5 -53q0 -13 6 -23t20.5 -18t27.5 -13.5t39.5 -11t42.5 -8.5t50 -8q154 -26 218 -52
q152 -64 153 -214q0 -197 -159.5 -313.5t-432.5 -116.5q-221 0 -341 78t-120 221q0 27 6 61h377q-2 -12 -2 -23q0 -44 32.5 -69t90.5 -25q68 0 106.5 25t38.5 67q0 14 -6 25t-20.5 19.5t-27.5 14t-39.5 11t-43.5 8.5t-51 8q-45 6 -72.5 11t-71 15.5t-70.5 22.5t-59.5 32.5
t-51 46t-31.5 62t-13 81.5q0 184 151 290.5t410 106.5z" />
    <glyph glyph-name="uni0162" unicode="&#x162;" horiz-adv-x="1306" 
d="M1452 1516l-55 -324h-412l-211 -1192h-428l211 1192h-412l56 324h1251zM584 -88q108 0 166.5 -41t58.5 -115q0 -114 -96.5 -181t-263.5 -67q-122 0 -222 41l27 144q60 -47 154 -47q68 0 106.5 21.5t38.5 58.5q0 23 -17.5 36t-48.5 13q-50 0 -88 -35l-92 94q121 78 277 78
z" />
    <glyph glyph-name="uni0163" unicode="&#x163;" horiz-adv-x="892" 
d="M621 776l-66 -364q-2 -12 -2 -23q0 -41 31 -64.5t86 -23.5q71 0 135 33l-53 -299q-129 -55 -271 -55q-170 0 -262 74.5t-92 211.5q0 22 8 80l76 430h-125l47 273h146l59 329h407l-14 -86q-19 -114 -134.5 -176.5t-305.5 -62.5l-2 -4h659l-47 -273h-280zM383 -88
q108 0 166.5 -41t58.5 -115q0 -114 -96.5 -181t-263.5 -67q-121 0 -221 41l26 144q60 -47 154 -47q68 0 106.5 21.5t38.5 58.5q0 23 -17 36t-48 13q-50 0 -88 -35l-93 94q121 78 277 78z" />
    <glyph glyph-name="Tcaron" unicode="&#x164;" horiz-adv-x="1306" 
d="M580 1638l-72 385h297l45 -352h4l168 352h297l-207 -385h-532zM1452 1516l-55 -324h-412l-211 -1192h-428l211 1192h-412l56 324h1251z" />
    <glyph glyph-name="tcaron" unicode="&#x165;" horiz-adv-x="892" 
d="M954 1597l273 -77l-197 -439l-252 78zM291 1053l-2 -4h659l-47 -273h-280l-66 -364q-2 -12 -2 -23q0 -41 31 -64.5t86 -23.5q71 0 135 33l-53 -299q-129 -55 -271 -55q-170 0 -262 74.5t-92 211.5q0 22 8 80l76 430h-125l47 273h146l59 329h407l-14 -86
q-19 -114 -134.5 -176.5t-305.5 -62.5z" />
    <glyph glyph-name="Tbar" unicode="&#x166;" horiz-adv-x="1320" 
d="M1403 1192h-412l-71 -401h200l-18 -103h-201l-121 -688h-428l121 688h-209l19 103h209l71 401h-411l55 324h1251z" />
    <glyph glyph-name="tbar" unicode="&#x167;" horiz-adv-x="899" 
d="M903 776h-280l-33 -182h280l-18 -102h-281l-14 -80q-2 -12 -2 -23q0 -41 31 -64.5t86 -23.5q71 0 135 33l-53 -299q-129 -55 -271 -55q-170 0 -262 74.5t-92 211.5q0 22 8 80l25 146h-121l16 102h123l33 182h-125l47 273h146l59 329h408l-15 -86q-19 -114 -134.5 -176.5
t-305.5 -62.5l-2 -4h659z" />
    <glyph glyph-name="Umacron" unicode="&#x16a;" horiz-adv-x="1544" 
d="M649 1968h772l-49 -278h-772zM1018 535l172 981h407l-170 -963q-47 -270 -246 -421.5t-507 -151.5q-268 0 -413.5 117t-145.5 331q0 60 12 125l170 963h426l-172 -981q-4 -25 -4 -52q0 -83 50.5 -127.5t147.5 -44.5q110 0 182 59t91 165z" />
    <glyph glyph-name="umacron" unicode="&#x16b;" horiz-adv-x="1247" 
d="M1180 1501l-50 -278h-772l50 278h772zM831 1049h410l-184 -1049h-410l68 381h-4q-34 -189 -133 -295t-242 -106q-134 0 -205.5 81.5t-71.5 231.5q0 55 13 135l108 621h412l-107 -600q-4 -23 -4 -46q0 -104 90 -104q61 0 104 50.5t58 139.5z" />
    <glyph glyph-name="Uring" unicode="&#x16e;" horiz-adv-x="1544" 
d="M973 1602q-124 0 -191 57.5t-67 159.5q0 140 94.5 223.5t255.5 83.5q124 0 191 -57.5t67 -159.5q0 -140 -94.5 -223.5t-255.5 -83.5zM1001 1772q47 0 75 30.5t28 81.5q0 34 -18 53t-52 19q-47 0 -74.5 -31t-27.5 -82q0 -71 69 -71zM1018 535l172 981h407l-170 -963
q-47 -270 -246 -421.5t-507 -151.5q-268 0 -413.5 117t-145.5 331q0 60 12 125l170 963h426l-172 -981q-4 -25 -4 -52q0 -83 50.5 -127.5t147.5 -44.5q110 0 182 59t91 165z" />
    <glyph glyph-name="uring" unicode="&#x16f;" horiz-adv-x="1247" 
d="M731 1135q-124 0 -191 57.5t-67 159.5q0 140 94.5 223.5t255.5 83.5q124 0 191 -57.5t67 -159.5q0 -140 -94.5 -223.5t-255.5 -83.5zM793 1489q-47 0 -75 -31t-28 -82q0 -34 18 -52.5t52 -18.5q47 0 74.5 30.5t27.5 81.5q0 34 -18 53t-51 19zM831 1049h410l-184 -1049
h-410l68 381h-4q-34 -189 -133 -295t-242 -106q-134 0 -205.5 81.5t-71.5 231.5q0 55 13 135l108 621h412l-107 -600q-4 -23 -4 -46q0 -104 90 -104q61 0 104 50.5t58 139.5z" />
    <glyph glyph-name="Uhungarumlaut" unicode="&#x170;" horiz-adv-x="1544" 
d="M1075 2105l154 -174l-471 -356l-133 162zM1542 2105l154 -174l-471 -356l-133 162zM1018 535l172 981h407l-170 -963q-47 -270 -246 -421.5t-507 -151.5q-268 0 -413.5 117t-145.5 331q0 60 12 125l170 963h426l-172 -981q-4 -25 -4 -52q0 -83 50.5 -127.5t147.5 -44.5
q110 0 182 59t91 165z" />
    <glyph glyph-name="uhungarumlaut" unicode="&#x171;" horiz-adv-x="1247" 
d="M987 1464l-471 -356l-133 162l451 368zM983 1108l-133 162l450 368l154 -174zM733 489l98 560h410l-184 -1049h-410l68 381h-4q-34 -189 -133 -295t-242 -106q-134 0 -205.5 81.5t-71.5 231.5q0 55 13 135l108 621h412l-107 -600q-4 -23 -4 -46q0 -104 90 -104
q61 0 104 50.5t58 139.5z" />
    <glyph glyph-name="Uogonek" unicode="&#x172;" horiz-adv-x="1544" 
d="M1190 1516h407l-170 -963q-37 -206 -162.5 -344.5t-324.5 -194.5h2q-117 -74 -185.5 -139.5t-68.5 -105.5q0 -41 53 -41q76 0 168 47l-39 -219q-113 -48 -274 -48q-116 0 -179 39.5t-63 110.5q0 84 134.5 165.5t404.5 172.5l-2 6q-107 -22 -217 -22q-268 0 -413.5 117
t-145.5 331q0 60 12 125l170 963h426l-172 -981q-4 -25 -4 -52q0 -83 50.5 -127.5t147.5 -44.5q110 0 182 59t91 165z" />
    <glyph glyph-name="uogonek" unicode="&#x173;" horiz-adv-x="1247" 
d="M1057 0q-111 -72 -174.5 -133t-63.5 -98q0 -41 53 -41q76 0 168 47l-39 -219q-113 -48 -274 -48q-116 0 -179 39.5t-63 110.5q0 48 41 106.5t110 110t173.5 86.5t218.5 35v4h-381l68 381h-4q-34 -189 -133 -295t-242 -106q-134 0 -205.5 81.5t-71.5 231.5q0 55 13 135
l108 621h412l-107 -600q-4 -23 -4 -46q0 -104 90 -104q61 0 104 50.5t58 139.5l98 560h410z" />
    <glyph glyph-name="Wcircumflex" unicode="&#x174;" horiz-adv-x="2289" 
d="M1415 1991l-168 -353h-297l207 385h533l71 -385h-297l-45 353h-4zM1989 1516h424l-467 -1516h-754l125 1483h-4l-400 -1483h-753l67 1516h451l-103 -1483h5l417 1483h672l-102 -1483h4z" />
    <glyph glyph-name="wcircumflex" unicode="&#x175;" horiz-adv-x="1931" 
d="M1141 1524l-168 -353h-297l207 385h532l72 -385h-297l-45 353h-4zM1556 1049h424l-323 -1049h-699l97 1022h-4l-260 -1022h-699l43 1049h434l-92 -1022h4l256 1022h652l-101 -1022h4z" />
    <glyph glyph-name="Ycircumflex" unicode="&#x176;" horiz-adv-x="1550" 
d="M1061 1991l-168 -353h-297l207 385h532l72 -385h-297l-45 353h-4zM1294 1516h459l-913 -1516h-459l391 651h-395l-209 865h489l172 -832h5z" />
    <glyph glyph-name="ycircumflex" unicode="&#x177;" horiz-adv-x="1210" 
d="M786 1524l-168 -353h-296l206 385h533l72 -385h-297l-45 353h-5zM836 1049h436l-545 -1520h-436l170 471h-330l-8 1049h436l-43 -1022h4z" />
    <glyph glyph-name="Ydieresis" unicode="&#x178;" horiz-adv-x="1550" 
d="M1014 1982l-53 -311h-379l53 311h379zM1491 1982l-53 -311h-379l53 311h379zM1294 1516h459l-913 -1516h-459l391 651h-395l-209 865h489l172 -832h5z" />
    <glyph glyph-name="Zacute" unicode="&#x179;" horiz-adv-x="1497" 
d="M1337 1851l-522 -233l-72 203l512 258zM1419 780l-1335 -452v-4h1321l-57 -324h-1354l129 735l1335 453l2 4h-1224l55 324h1257z" />
    <glyph glyph-name="zacute" unicode="&#x17a;" horiz-adv-x="1144" 
d="M1055 1384l-523 -233l-71 203l512 258zM68 276l-2 -4h976l-47 -272h-1009l110 633l963 139l2 4h-928l47 273h961l-111 -633z" />
    <glyph glyph-name="Zdotaccent" unicode="&#x17b;" horiz-adv-x="1497" 
d="M1229 1982l-53 -311h-410l53 311h410zM1419 780l-1335 -452v-4h1321l-57 -324h-1354l129 735l1335 453l2 4h-1224l55 324h1257z" />
    <glyph glyph-name="zdotaccent" unicode="&#x17c;" horiz-adv-x="1144" 
d="M946 1516l-53 -312h-410l54 312h409zM68 276l-2 -4h976l-47 -272h-1009l110 633l963 139l2 4h-928l47 273h961l-111 -633z" />
    <glyph glyph-name="Zcaron" unicode="&#x17d;" horiz-adv-x="1497" 
d="M696 1638l-71 385h297l45 -352h4l168 352h297l-207 -385h-533zM1419 780l-1335 -452v-4h1321l-57 -324h-1354l129 735l1335 453l2 4h-1224l55 324h1257z" />
    <glyph glyph-name="zcaron" unicode="&#x17e;" horiz-adv-x="1144" 
d="M414 1171l-72 385h297l45 -352h4l168 352h297l-207 -385h-532zM1030 416l-962 -140l-2 -4h976l-47 -272h-1009l110 633l963 139l2 4h-928l47 273h961z" />
    <glyph glyph-name="florin" unicode="&#x192;" horiz-adv-x="1513" 
d="M1337 1536q182 0 320 -80l-129 -287q-57 45 -156 45q-69 0 -120.5 -39.5t-77.5 -111.5l-82 -227h231l-18 -103h-250l-144 -401q-60 -166 -201 -259t-333 -93q-181 0 -320 79l131 287q54 -45 156 -45q69 0 121 40t78 112l100 280h-229l18 103h248l123 348q58 166 200 259
t334 93z" />
    <glyph glyph-name="Scommaaccent" unicode="&#x218;" horiz-adv-x="1454" 
d="M1438 993h-424v25q0 90 -50 138t-143 48q-95 0 -149 -36.5t-54 -98.5q0 -19 9 -35t29 -27.5t40.5 -19.5t56 -15t61.5 -11.5t71 -10.5q66 -10 101.5 -15.5t99 -20.5t99.5 -31t83 -44.5t72 -63t43 -85t18 -112.5q0 -271 -209 -434.5t-563 -163.5q-277 0 -429.5 135
t-152.5 381v51h424v-15q0 -104 60 -162.5t167 -58.5q117 0 184.5 43t67.5 117q0 27 -15.5 47.5t-37 32.5t-63.5 22.5t-74.5 16t-89.5 12.5q-190 26 -275 57q-194 71 -220 245q-5 30 -5 63q0 271 195 420t538 149q253 0 394 -132.5t141 -367.5v-43zM399 -340l41 231h348
l-34 -192q-15 -92 -114 -141.5t-267 -49.5l16 95q157 0 228.5 13t105.5 44h-324z" />
    <glyph glyph-name="scommaaccent" unicode="&#x219;" horiz-adv-x="1124" 
d="M1085 725h-376q2 12 2 25q0 39 -25.5 60t-73.5 21q-53 0 -84.5 -20t-31.5 -53q0 -13 6 -23t20.5 -18t27.5 -13.5t39.5 -11t42.5 -8.5t50 -8q154 -26 218 -52q152 -64 153 -214q0 -197 -159.5 -313.5t-432.5 -116.5q-221 0 -341 78t-120 221q0 27 6 61h377q-2 -12 -2 -23
q0 -44 32.5 -69t90.5 -25q68 0 106.5 25t38.5 67q0 14 -6 25t-20.5 19.5t-27.5 14t-39.5 11t-43.5 8.5t-51 8q-45 6 -72.5 11t-71 15.5t-70.5 22.5t-59.5 32.5t-51 46t-31.5 62t-13 81.5q0 184 151 290.5t410 106.5q209 0 324 -74t115 -209q0 -26 -7 -61zM221 -340l41 231
h348l-35 -192q-15 -92 -113.5 -141.5t-266.5 -49.5l16 95q157 0 228.5 13t105.5 44h-324z" />
    <glyph glyph-name="uni021A" unicode="&#x21a;" horiz-adv-x="1306" 
d="M1452 1516l-55 -324h-412l-211 -1192h-428l211 1192h-412l56 324h1251zM324 -340l41 231h348l-35 -192q-15 -92 -114 -141.5t-267 -49.5l16 95q157 0 228.5 13t105.5 44h-323z" />
    <glyph glyph-name="uni021B" unicode="&#x21b;" horiz-adv-x="892" 
d="M621 776l-66 -364q-2 -12 -2 -23q0 -41 31 -64.5t86 -23.5q71 0 135 33l-53 -299q-129 -55 -271 -55q-170 0 -262 74.5t-92 211.5q0 22 8 80l76 430h-125l47 273h146l59 329h407l-14 -86q-19 -114 -134.5 -176.5t-305.5 -62.5l-2 -4h659l-47 -273h-280zM123 -340l41 231
h348l-35 -192q-15 -92 -114 -141.5t-267 -49.5l17 95q157 0 228 13t105 44h-323z" />
    <glyph glyph-name="uni0237" unicode="&#x237;" horiz-adv-x="606" 
d="M190 1049h410l-268 -1520h-410z" />
    <glyph glyph-name="circumflex" unicode="&#x2c6;" horiz-adv-x="827" 
d="M862 1556l72 -385h-297l-45 353h-4l-168 -353h-297l207 385h532z" />
    <glyph glyph-name="caron" unicode="&#x2c7;" horiz-adv-x="827" 
d="M705 1556h296l-206 -385h-533l-72 385h297l45 -352h5z" />
    <glyph glyph-name="breve" unicode="&#x2d8;" horiz-adv-x="792" 
d="M961 1556q-37 -186 -156.5 -290.5t-294.5 -104.5t-257 104.5t-54 290.5h262q-10 -76 13.5 -119.5t76.5 -43.5q52 0 90 43t55 120h265z" />
    <glyph glyph-name="dotaccent" unicode="&#x2d9;" horiz-adv-x="600" 
d="M217 1204l53 312h410l-53 -312h-410z" />
    <glyph glyph-name="ring" unicode="&#x2da;" horiz-adv-x="663" 
d="M440 1135q-124 0 -191 57.5t-67 159.5q0 140 94.5 223.5t255.5 83.5q124 0 191.5 -57.5t67.5 -159.5q0 -140 -95 -223.5t-256 -83.5zM469 1305q47 0 74.5 30.5t27.5 81.5q0 34 -18 53t-51 19q-47 0 -75 -31t-28 -82q0 -34 18 -52.5t52 -18.5z" />
    <glyph glyph-name="ogonek" unicode="&#x2db;" horiz-adv-x="565" 
d="M379 -444q-113 -48 -275 -48q-116 0 -178.5 39.5t-62.5 110.5q0 48 41 106.5t110 110t173.5 86.5t218.5 35v4h28q-111 -72 -174 -132.5t-63 -98.5q0 -41 53 -41q76 0 168 47z" />
    <glyph glyph-name="tilde" unicode="&#x2dc;" horiz-adv-x="966" 
d="M723 1180q-68 0 -152 35.5t-127 35.5q-41 0 -71.5 -21.5t-42.5 -58.5h-156q34 172 130.5 268.5t234.5 96.5q68 0 151.5 -36t126.5 -36q41 0 72 21.5t43 58.5h155q-34 -172 -130 -268t-234 -96z" />
    <glyph glyph-name="hungarumlaut" unicode="&#x2dd;" horiz-adv-x="1142" 
d="M623 1638l153 -174l-471 -356l-133 162zM1090 1638l153 -174l-471 -356l-133 162z" />
    <glyph glyph-name="gravecomb" unicode="&#x300;" horiz-adv-x="0" 
d="M-266 1612l422 -258l-146 -203l-440 233z" />
    <glyph glyph-name="acutecomb" unicode="&#x301;" horiz-adv-x="0" 
d="M49 1612l82 -228l-522 -233l-72 203z" />
    <glyph glyph-name="uni0302" unicode="&#x302;" horiz-adv-x="0" 
d="M35 1556l71 -385h-296l-46 353h-4l-168 -353h-297l207 385h533z" />
    <glyph glyph-name="tildecomb" unicode="&#x303;" horiz-adv-x="0" 
d="M-240 1214q-68 0 -151.5 36t-126.5 36q-41 0 -72 -21.5t-43 -58.5h-155q34 172 130 268.5t234 96.5q68 0 152 -36t127 -36q41 0 71.5 21.5t42.5 58.5h156q-34 -172 -130.5 -268.5t-234.5 -96.5z" />
    <glyph glyph-name="uni0304" unicode="&#x304;" horiz-adv-x="0" 
d="M-629 1501h772l-49 -278h-772z" />
    <glyph glyph-name="uni0306" unicode="&#x306;" horiz-adv-x="0" 
d="M168 1556q-37 -186 -156.5 -290.5t-294.5 -104.5t-257 104.5t-54 290.5h262q-10 -76 13.5 -119.5t76.5 -43.5q52 0 90.5 43t55.5 120h264z" />
    <glyph glyph-name="uni0307" unicode="&#x307;" horiz-adv-x="0" 
d="M-383 1204l53 312h410l-53 -312h-410z" />
    <glyph glyph-name="uni0308" unicode="&#x308;" horiz-adv-x="0" 
d="M-864 1204l53 312h379l-53 -312h-379zM-387 1204l53 312h379l-53 -312h-379z" />
    <glyph glyph-name="uni030A" unicode="&#x30a;" horiz-adv-x="0" 
d="M-223 1135q-124 0 -191 57.5t-67 159.5q0 140 94.5 223.5t255.5 83.5q124 0 191 -57.5t67 -159.5q0 -140 -94.5 -223.5t-255.5 -83.5zM-195 1305q47 0 75 30.5t28 81.5q0 34 -18 53t-52 19q-47 0 -74.5 -31t-27.5 -82q0 -71 69 -71z" />
    <glyph glyph-name="uni030B" unicode="&#x30b;" horiz-adv-x="0" 
d="M-520 1638l153 -174l-471 -356l-133 162zM-53 1638l153 -174l-471 -356l-133 162z" />
    <glyph glyph-name="uni030C" unicode="&#x30c;" horiz-adv-x="0" 
d="M-123 1556h297l-207 -385h-532l-72 385h297l45 -352h4z" />
    <glyph glyph-name="uni0312" unicode="&#x312;" horiz-adv-x="0" 
d="M125 1579q-156 0 -230.5 -24.5t-111.5 -79.5h323l-49 -275h-348l39 215q22 124 124 191t269 67z" />
    <glyph glyph-name="uni0326" unicode="&#x326;" horiz-adv-x="0" 
d="M-510 -109h348l-35 -192q-15 -92 -114 -141.5t-267 -49.5l17 95q157 0 228.5 13t105.5 44h-324z" />
    <glyph glyph-name="uni0327" unicode="&#x327;" horiz-adv-x="0" 
d="M-557 -492q-121 0 -221 41l26 144q60 -47 154 -47q68 0 106.5 21.5t38.5 58.5q0 23 -17 36t-48 13q-50 0 -88 -35l-92 94q121 78 276 78q108 0 166.5 -41t58.5 -115q0 -114 -96.5 -181t-263.5 -67z" />
    <glyph glyph-name="uni0328" unicode="&#x328;" horiz-adv-x="0" 
d="M-186 -444q-113 -48 -275 -48q-116 0 -178.5 39.5t-62.5 110.5q0 38 25 83.5t74.5 90.5t113.5 81.5t150.5 59.5t178.5 23v4h29q-111 -72 -174.5 -133t-63.5 -98q0 -41 54 -41q76 0 168 47z" />
    <glyph glyph-name="uni0335" unicode="&#x335;" horiz-adv-x="0" 
d="M-856 793h838l-19 -103h-837z" />
    <glyph glyph-name="uni0336" unicode="&#x336;" horiz-adv-x="0" 
d="M-1583 793l-19 -103h1567l19 103h-1567z" />
    <glyph glyph-name="uni0337" unicode="&#x337;" horiz-adv-x="0" 
d="M84 1151l80 -57l-1008 -1196l-80 57z" />
    <glyph glyph-name="uni0338" unicode="&#x338;" horiz-adv-x="0" 
d="M104 1602l95 -62l-1319 -1626l-94 61z" />
    <glyph glyph-name="uni0394" unicode="&#x394;" horiz-adv-x="1564" 
d="M1335 1516l138 -1516h-1563l672 1516h753zM465 324h539l-62 1159h-4z" />
    <glyph glyph-name="uni03A9" unicode="&#x3a9;" horiz-adv-x="1728" 
d="M1006 322l-2 -5h575l-55 -317h-658l56 317q102 0 182.5 78t122 203.5t41.5 273.5q0 156 -73.5 244t-207.5 88q-204 0 -326 -154.5t-122 -420.5q0 -148 49.5 -230t140.5 -82l-55 -317h-656l56 317h573l2 5q-250 0 -386 128.5t-136 358.5q0 225 111.5 389.5t318.5 251
t487 86.5q331 0 513 -135.5t182 -378.5q0 -314 -199.5 -507t-533.5 -193z" />
    <glyph glyph-name="uni03BC" unicode="&#x3bc;" horiz-adv-x="1257" 
d="M842 1049h409l-184 -1049h-410l68 381h-4q-34 -189 -133 -295t-242 -106q-181 0 -248 147l-2 -2l240 -592l-2 -4h-410l152 864l6 35l108 621h412l-106 -600q-4 -23 -4 -46q0 -104 90 -104q61 0 103.5 50t57.5 140z" />
    <glyph glyph-name="pi" unicode="&#x3c0;" horiz-adv-x="1458" 
d="M1528 1049l-47 -273h-185l-137 -776h-409l137 776h-225l-138 -776h-409l137 776h-184l47 273h1413z" />
    <glyph glyph-name="Wgrave" unicode="&#x1e80;" horiz-adv-x="2289" 
d="M1642 1821l-145 -203l-440 233l164 228zM1989 1516h424l-467 -1516h-754l125 1483h-4l-400 -1483h-753l67 1516h451l-103 -1483h5l417 1483h672l-102 -1483h4z" />
    <glyph glyph-name="wgrave" unicode="&#x1e81;" horiz-adv-x="1931" 
d="M1368 1354l-145 -203l-441 233l164 228zM1556 1049h424l-323 -1049h-699l97 1022h-4l-260 -1022h-699l43 1049h434l-92 -1022h4l256 1022h652l-101 -1022h4z" />
    <glyph glyph-name="Wacute" unicode="&#x1e82;" horiz-adv-x="2289" 
d="M1731 1851l-523 -233l-71 203l512 258zM1989 1516h424l-467 -1516h-754l125 1483h-4l-400 -1483h-753l67 1516h451l-103 -1483h5l417 1483h672l-102 -1483h4z" />
    <glyph glyph-name="wacute" unicode="&#x1e83;" horiz-adv-x="1931" 
d="M1456 1384l-522 -233l-72 203l512 258zM1556 1049h424l-323 -1049h-699l97 1022h-4l-260 -1022h-699l43 1049h434l-92 -1022h4l256 1022h652l-101 -1022h4z" />
    <glyph glyph-name="Wdieresis" unicode="&#x1e84;" horiz-adv-x="2289" 
d="M1368 1982l-53 -311h-379l53 311h379zM1845 1982l-53 -311h-379l53 311h379zM1989 1516h424l-467 -1516h-754l125 1483h-4l-400 -1483h-753l67 1516h451l-103 -1483h5l417 1483h672l-102 -1483h4z" />
    <glyph glyph-name="wdieresis" unicode="&#x1e85;" horiz-adv-x="1931" 
d="M1094 1516l-54 -312h-378l53 312h379zM1571 1516l-53 -312h-379l53 312h379zM1556 1049h424l-323 -1049h-699l97 1022h-4l-260 -1022h-699l43 1049h434l-92 -1022h4l256 1022h652l-101 -1022h4z" />
    <glyph glyph-name="uni1E9E" unicode="&#x1e9e;" horiz-adv-x="1482" 
d="M815 903q289 0 448.5 -103t159.5 -288q0 -243 -184 -387.5t-500 -144.5q-111 0 -188 24l57 324q70 -17 150 -17q106 0 166.5 48t60.5 128q0 66 -53 104t-150 38h-100l49 278q116 0 185 48t69 132q0 55 -35 86t-100 31q-84 0 -139.5 -45t-69.5 -123l-182 -1036h-428
l180 1022q43 242 226.5 378t467.5 136q259 0 401 -76t142 -213q0 -159 -174 -249.5t-479 -90.5v-4h20z" />
    <glyph glyph-name="Ygrave" unicode="&#x1ef2;" horiz-adv-x="1550" 
d="M1288 1821l-145 -203l-441 233l164 228zM1294 1516h459l-913 -1516h-459l391 651h-395l-209 865h489l172 -832h5z" />
    <glyph glyph-name="ygrave" unicode="&#x1ef3;" horiz-adv-x="1210" 
d="M1014 1354l-146 -203l-440 233l164 228zM836 1049h436l-545 -1520h-436l170 471h-330l-8 1049h436l-43 -1022h4z" />
    <glyph glyph-name="endash" unicode="&#x2013;" horiz-adv-x="1286" 
d="M104 584h1100l-18 -103h-1100z" />
    <glyph glyph-name="emdash" unicode="&#x2014;" horiz-adv-x="1871" 
d="M104 584h1686l-18 -103h-1686z" />
    <glyph glyph-name="quoteleft" unicode="&#x2018;" horiz-adv-x="608" 
d="M655 1323q-164 0 -279 -48.5t-169 -139.5h416l-74 -420h-436l59 342q37 209 174 331t344 128z" />
    <glyph glyph-name="quoteright" unicode="&#x2019;" horiz-adv-x="595" 
d="M268 1516h437l-60 -342q-37 -209 -174 -331t-344 -128l35 192q163 0 278.5 49t169.5 140h-415z" />
    <glyph glyph-name="quotesinglbase" unicode="&#x201a;" horiz-adv-x="618" 
d="M74 420h436l-59 -342q-37 -209 -174.5 -331t-344.5 -128l35 193q164 0 279.5 48.5t169.5 139.5h-416z" />
    <glyph glyph-name="quotedblleft" unicode="&#x201c;" horiz-adv-x="1153" 
d="M655 1323q-164 0 -279 -48.5t-169 -139.5h416l-74 -420h-436l59 342q37 209 174 331t344 128zM1200 1323q-164 0 -279 -48.5t-169 -139.5h415l-73 -420h-437l60 342q37 209 174 331t344 128z" />
    <glyph glyph-name="quotedblright" unicode="&#x201d;" horiz-adv-x="1140" 
d="M268 1516h437l-60 -342q-37 -209 -174 -331t-344 -128l35 192q163 0 278.5 49t169.5 140h-415zM813 1516h436l-59 -342q-37 -209 -174 -331t-344 -128l35 192q163 0 278.5 49t169.5 140h-416z" />
    <glyph glyph-name="quotedblbase" unicode="&#x201e;" horiz-adv-x="1163" 
d="M74 420h436l-59 -342q-37 -209 -174.5 -331t-344.5 -128l35 193q164 0 279.5 48.5t169.5 139.5h-416zM618 420h437l-60 -342q-37 -209 -174 -331t-344 -128l35 193q164 0 279.5 48.5t169.5 139.5h-416z" />
    <glyph glyph-name="dagger" unicode="&#x2020;" horiz-adv-x="780" 
d="M635 1337h223l-31 -172h-233l-98 -565h-193l68 383q13 81 69.5 128t143.5 50v4h-408l31 172h235l41 240h193z" />
    <glyph glyph-name="daggerdbl" unicode="&#x2021;" horiz-adv-x="780" 
d="M827 1165h-233l-27 -153h234l-31 -172h-233l-41 -238h-193l10 55q15 82 71 129t142 50v4h-407l31 172h227q22 69 75.5 107.5t131.5 41.5v4h-408l31 172h235l41 240h193l-41 -240h223z" />
    <glyph glyph-name="bullet" unicode="&#x2022;" horiz-adv-x="864" 
d="M104 332l97 547h587l-96 -547h-588z" />
    <glyph glyph-name="ellipsis" unicode="&#x2026;" horiz-adv-x="1679" 
d="M74 420h436l-74 -420h-436zM606 420h436l-73 -420h-437zM1137 420h436l-74 -420h-436z" />
    <glyph glyph-name="perthousand" unicode="&#x2030;" horiz-adv-x="2400" 
d="M162 37l1304 1499l70 -57l-1305 -1499zM438 737q-137 0 -212.5 79.5t-75.5 219.5q0 207 115.5 333t307.5 126q139 0 215 -79.5t76 -219.5q0 -207 -116.5 -333t-309.5 -126zM481 961q30 0 52 36.5t32 85.5t10 99q0 90 -40 90q-42 0 -69.5 -67.5t-27.5 -151.5q0 -92 43 -92
zM1104 -20q-137 0 -214 79.5t-77 219.5q0 207 116.5 332.5t307.5 125.5q140 0 216.5 -79t76.5 -220q0 -207 -116.5 -332.5t-309.5 -125.5zM1903 -20q-137 0 -214 79.5t-77 219.5q0 207 116.5 332.5t307.5 125.5q140 0 216.5 -79t76.5 -220q0 -207 -116.5 -332.5
t-309.5 -125.5zM1143 203q31 0 54 36.5t32.5 85.5t9.5 99q0 90 -41 90q-42 0 -69 -67t-27 -152q0 -92 41 -92zM1944 203q38 0 67 65t29 152q0 44 -11 69t-30 25q-36 0 -66 -63.5t-30 -151.5q0 -45 11 -70.5t30 -25.5z" />
    <glyph glyph-name="guilsinglleft" unicode="&#x2039;" horiz-adv-x="512" 
d="M53 512l332 395h119l-328 -395l189 -395h-119z" />
    <glyph glyph-name="guilsinglright" unicode="&#x203a;" horiz-adv-x="516" 
d="M457 512l-332 -395h-119l328 395l-189 395h119z" />
    <glyph glyph-name="fraction" unicode="&#x2044;" horiz-adv-x="491" 
d="M-401 37l1304 1499l70 -57l-1305 -1499z" />
    <glyph glyph-name="uni2070" unicode="&#x2070;" horiz-adv-x="872" 
d="M471 721q-153 0 -236 95t-83 265q0 257 132.5 415.5t350.5 158.5q154 0 236.5 -95.5t82.5 -265.5q0 -258 -132 -415.5t-351 -157.5zM508 936q70 0 115 107.5t45 242.5q0 71 -18.5 112.5t-51.5 41.5q-67 0 -113.5 -105.5t-46.5 -242.5q0 -73 18.5 -114.5t51.5 -41.5z" />
    <glyph glyph-name="uni2074" unicode="&#x2074;" horiz-adv-x="874" 
d="M946 1114l-37 -209h-118l-31 -172h-279l31 172h-414l39 219l273 518h510l-93 -528h119zM381 1118v-4h176l90 508h-4z" />
    <glyph glyph-name="uni2075" unicode="&#x2075;" horiz-adv-x="811" 
d="M432 721q-149 0 -231 69.5t-82 194.5v25h272q0 -35 19.5 -54.5t56.5 -19.5q53 0 85 32.5t32 86.5q0 38 -19.5 59t-56.5 21q-63 0 -98 -54l-260 35l161 526h598l-37 -208h-356l-106 -336h4q38 110 112.5 170.5t171.5 60.5q87 0 135 -55.5t48 -155.5q0 -182 -122 -289.5
t-327 -107.5z" />
    <glyph glyph-name="uni2076" unicode="&#x2076;" horiz-adv-x="868" 
d="M956 1372h-268v4q0 30 -18.5 47t-51.5 17q-61 0 -106.5 -65.5t-67.5 -184.5l-16 -94h4q19 103 95 162t194 59q100 0 154.5 -54.5t54.5 -150.5q0 -178 -125.5 -284.5t-339.5 -106.5q-148 0 -229.5 96t-81.5 266q0 259 136 415.5t365 156.5q144 0 222.5 -68.5t78.5 -191.5
v-23zM537 1118q-59 0 -93 -27t-34 -77q0 -37 24.5 -57.5t69.5 -20.5q58 0 93.5 30.5t35.5 80.5q0 34 -25 52.5t-71 18.5z" />
    <glyph glyph-name="uni2077" unicode="&#x2077;" horiz-adv-x="727" 
d="M215 1642h690l-35 -202q-128 -46 -226 -220.5t-142 -437.5l-8 -49h-287l2 10q65 328 225 507.5t393 179.5v4h-649z" />
    <glyph glyph-name="uni2078" unicode="&#x2078;" horiz-adv-x="835" 
d="M932 1489q0 -81 -88 -128.5t-238 -47.5v-4q134 -7 207.5 -70.5t73.5 -167.5q0 -160 -117.5 -255t-316.5 -95q-156 0 -242 67t-86 187q0 146 101.5 234t279.5 100v4q-128 0 -199 37t-71 102q0 93 102 148t278 55q150 0 233 -44t83 -122zM555 1300q32 0 53 23.5t21 60.5
q0 26 -13 41t-36 15q-32 0 -53 -23.5t-21 -60.5q0 -26 13 -41t36 -15zM489 936q47 0 76 29.5t29 78.5q0 33 -19.5 52.5t-52.5 19.5q-47 0 -76.5 -30.5t-29.5 -77.5q0 -34 19 -53t54 -19z" />
    <glyph glyph-name="uni2079" unicode="&#x2079;" horiz-adv-x="866" 
d="M635 1655q149 0 231 -96.5t82 -266.5q0 -260 -136.5 -415.5t-365.5 -155.5q-142 0 -220.5 73.5t-78.5 204.5v29h269v-12q0 -80 67 -80q60 0 106 66t66 184l19 106h-4q-17 -98 -92.5 -153.5t-192.5 -55.5q-101 0 -155 51.5t-54 145.5q0 171 123.5 273t335.5 102zM569 1282
q58 0 90.5 23t32.5 65q0 32 -25 51t-69 19q-57 0 -92 -25.5t-35 -68.5q0 -31 26 -47.5t72 -16.5z" />
    <glyph glyph-name="uni2080" unicode="&#x2080;" horiz-adv-x="872" 
d="M303 -238q-153 0 -236 95.5t-83 265.5q0 257 132.5 415t350.5 158q154 0 236.5 -95t82.5 -265q0 -258 -132 -416t-351 -158zM340 -23q47 0 84.5 52.5t56.5 132t19 166.5q0 71 -18.5 112t-51.5 41q-67 0 -113.5 -105.5t-46.5 -242.5q0 -73 18.5 -114.5t51.5 -41.5z" />
    <glyph glyph-name="uni2081" unicode="&#x2081;" horiz-adv-x="591" 
d="M254 684h278l-159 -909h-279l152 856h-4q-31 -167 -99.5 -261t-160.5 -94l43 246q95 0 155 42.5t74 119.5z" />
    <glyph glyph-name="uni2082" unicode="&#x2082;" horiz-adv-x="808" 
d="M-20 -12v-4h696l-37 -209h-731l35 202q228 102 356.5 217.5t128.5 223.5q0 29 -11.5 46t-31.5 17q-32 0 -57.5 -33.5t-40.5 -93.5h-269q41 161 149.5 251.5t262.5 90.5q144 0 222.5 -67.5t78.5 -188.5q0 -197 -199 -315t-552 -137z" />
    <glyph glyph-name="uni2083" unicode="&#x2083;" horiz-adv-x="800" 
d="M731 526q0 -92 -96 -144t-264 -52v-4q147 0 228 -58.5t81 -163.5q0 -157 -117 -249.5t-317 -92.5q-142 0 -221.5 74.5t-79.5 206.5q0 17 2 33h268v-19q0 -37 18.5 -58.5t53.5 -21.5q47 0 73.5 27t26.5 72q0 69 -82 69h-18l30 183q51 0 80 26t29 72q0 55 -53 55
q-31 0 -54.5 -26t-35.5 -72h-263q40 148 148 230.5t262 82.5q142 0 221.5 -47.5t79.5 -122.5z" />
    <glyph glyph-name="uni2084" unicode="&#x2084;" horiz-adv-x="874" 
d="M778 156l-37 -209h-118l-31 -172h-279l31 172h-414l39 219l273 518h510l-93 -528h119zM213 160v-4h176l90 508h-4z" />
    <glyph glyph-name="uni2085" unicode="&#x2085;" horiz-adv-x="811" 
d="M264 -238q-149 0 -231 70t-82 195v24h272q0 -35 19.5 -54.5t56.5 -19.5q53 0 85 32.5t32 86.5q0 38 -19.5 59t-56.5 21q-63 0 -98 -53l-260 35l161 526h598l-36 -209h-357l-106 -336h4q38 110 112.5 171t171.5 61q87 0 135 -55.5t48 -155.5q0 -182 -122 -290t-327 -108z
" />
    <glyph glyph-name="uni2086" unicode="&#x2086;" horiz-adv-x="868" 
d="M786 414h-268v4q0 30 -18 46.5t-51 16.5q-61 0 -107 -65.5t-68 -184.5l-16 -94h4q19 103 95 162t194 59q100 0 154.5 -54t54.5 -150q0 -178 -125.5 -285t-339.5 -107q-148 0 -229.5 96.5t-81.5 266.5q0 259 136 415t365 156q144 0 222.5 -68.5t78.5 -191.5v-22zM367 160
q-59 0 -93 -27.5t-34 -77.5q0 -37 24.5 -57.5t69.5 -20.5q58 0 93.5 30.5t35.5 80.5q0 34 -25 53t-71 19z" />
    <glyph glyph-name="uni2087" unicode="&#x2087;" horiz-adv-x="727" 
d="M45 684h690l-35 -203q-128 -46 -226 -220t-142 -437l-8 -49h-287l2 10q65 328 225 507t393 179v4h-649z" />
    <glyph glyph-name="uni2088" unicode="&#x2088;" horiz-adv-x="835" 
d="M764 530q0 -81 -88 -128.5t-238 -47.5v-4q134 -7 207.5 -70t73.5 -167q0 -160 -117.5 -255.5t-316.5 -95.5q-156 0 -242 67t-86 187q0 146 101.5 234t279.5 100v4q-128 0 -199 37.5t-71 102.5q0 93 102.5 147.5t278.5 54.5q150 0 232.5 -44t82.5 -122zM387 342
q32 0 53 23.5t21 60.5q0 55 -49 55q-32 0 -53 -23.5t-21 -60.5q0 -55 49 -55zM322 -23q47 0 75.5 29.5t28.5 79.5q0 33 -19.5 52.5t-52.5 19.5q-47 0 -76.5 -30.5t-29.5 -78.5q0 -34 19.5 -53t54.5 -19z" />
    <glyph glyph-name="uni2089" unicode="&#x2089;" horiz-adv-x="866" 
d="M465 696q150 0 231.5 -96t81.5 -266q0 -260 -136.5 -416t-365.5 -156q-142 0 -220.5 74t-78.5 205v29h269v-13q0 -80 67 -80q60 0 106 66t66 184l19 107h-4q-17 -98 -92.5 -153.5t-192.5 -55.5q-101 0 -155 51.5t-54 145.5q0 171 123 272.5t336 101.5zM399 324
q58 0 90.5 23t32.5 65q0 32 -25 50.5t-69 18.5q-57 0 -92 -25.5t-35 -68.5q0 -30 26 -46.5t72 -16.5z" />
    <glyph glyph-name="Euro" unicode="&#x20ac;" horiz-adv-x="1499" 
d="M938 311q71 0 158.5 28.5t160.5 78.5l129 -273q-120 -82 -260 -123.5t-247 -41.5q-309 0 -479.5 159t-176.5 445h-160l19 102h143q7 80 17 133h-136l17 103h143q85 288 317.5 451t569.5 163q109 0 226 -31.5t198 -83.5l-221 -297q-100 80 -260 80q-127 0 -226 -74.5
t-151 -205.5h516l-78 -105h-471q-13 -68 -16 -131h397l-78 -104h-315q14 -130 82 -201.5t182 -71.5z" />
    <glyph glyph-name="trademark" unicode="&#x2122;" horiz-adv-x="1376" 
d="M664 1499h-177l-92 -528h-92l92 528h-176l14 78h445zM1255 1577h179l-88 -606h-91l86 592h-4l-274 -592h-168l-57 592h-4l-123 -592h-86l125 606h178l53 -592h4z" />
    <glyph glyph-name="oneeighth" unicode="&#x215b;" horiz-adv-x="1941" 
d="M418 1487q-31 -167 -99.5 -260.5t-160.5 -93.5l43 245q95 0 155 42.5t74 119.5h279l-160 -909h-279l152 856h-4zM1507 1536l70 -57l-1305 -1499l-69 57zM1894 756q0 -82 -87.5 -129t-237.5 -47v-5q134 -7 207 -70t73 -167q0 -160 -117.5 -255t-316.5 -95q-156 0 -242 67
t-86 187q0 145 101.5 233t279.5 100v5q-128 0 -199 37t-71 102q0 93 102.5 148t278.5 55q150 0 232.5 -44t82.5 -122zM1518 567q32 0 52.5 23.5t20.5 60.5q0 26 -13 41t-36 15q-32 0 -53 -23.5t-21 -60.5q0 -26 13.5 -41t36.5 -15zM1452 203q47 0 75.5 29.5t28.5 78.5
q0 33 -19 52.5t-52 19.5q-47 0 -77 -31t-30 -78q0 -34 19.5 -52.5t54.5 -18.5z" />
    <glyph glyph-name="threeeighths" unicode="&#x215c;" horiz-adv-x="2154" 
d="M854 961q0 -157 -117 -250t-317 -93q-142 0 -221.5 74.5t-79.5 206.5q0 17 2 33h268v-19q0 -37 18.5 -58t53.5 -21q47 0 73.5 26.5t26.5 71.5q0 69 -82 69h-18l31 183q51 0 79.5 26t28.5 72q0 55 -53 55q-31 0 -54.5 -26t-35.5 -72h-262q40 148 147.5 230.5t261.5 82.5
q142 0 221.5 -47.5t79.5 -122.5q0 -92 -96 -144t-264 -52v-4q147 0 228 -58t81 -163zM1720 1536l70 -57l-1305 -1499l-69 57zM2107 756q0 -82 -87.5 -129t-237.5 -47v-5q134 -7 207 -70t73 -167q0 -160 -117.5 -255t-316.5 -95q-156 0 -242 67t-86 187q0 145 101.5 233
t279.5 100v5q-128 0 -199 37t-71 102q0 93 102.5 148t278.5 55q150 0 232.5 -44t82.5 -122zM1731 567q32 0 52.5 23.5t20.5 60.5q0 26 -13 41t-36 15q-32 0 -53 -23.5t-21 -60.5q0 -26 13.5 -41t36.5 -15zM1665 203q47 0 75.5 29.5t28.5 78.5q0 33 -19 52.5t-52 19.5
q-47 0 -77 -31t-30 -78q0 -34 19.5 -52.5t54.5 -18.5z" />
    <glyph glyph-name="fiveeighths" unicode="&#x215d;" horiz-adv-x="2156" 
d="M879 1016q0 -182 -122 -290t-327 -108q-149 0 -231 70t-82 195v24h272q0 -73 76 -73q53 0 85 32t32 86q0 38 -19.5 59t-56.5 21q-63 0 -98 -53l-261 35l162 526h598l-37 -209h-356l-106 -336h4q38 110 112.5 171t171.5 61q87 0 135 -55.5t48 -155.5zM1724 1536l70 -57
l-1305 -1499l-69 57zM2111 756q0 -82 -87.5 -129t-237.5 -47v-5q134 -7 207 -70t73 -167q0 -160 -117.5 -255t-316.5 -95q-156 0 -241.5 67t-85.5 187q0 145 101.5 233t279.5 100v5q-128 0 -199.5 37t-71.5 102q0 93 102.5 148t278.5 55q150 0 232.5 -44t82.5 -122z
M1735 567q32 0 52.5 23.5t20.5 60.5q0 26 -13 41t-36 15q-32 0 -52.5 -23.5t-20.5 -60.5q0 -26 13 -41t36 -15zM1669 203q47 0 76 29.5t29 78.5q0 33 -19.5 52.5t-52.5 19.5q-47 0 -77 -31t-30 -78q0 -34 19.5 -52.5t54.5 -18.5z" />
    <glyph glyph-name="seveneighths" unicode="&#x215e;" horiz-adv-x="2101" 
d="M217 641q65 327 225.5 506.5t393.5 179.5v4h-650l37 209h690l-34 -203q-128 -46 -226.5 -220t-142.5 -437l-8 -49h-287zM1661 1536l70 -57l-1305 -1499l-70 57zM2048 756q0 -81 -88 -128.5t-238 -47.5v-5q134 -7 207.5 -70t73.5 -167q0 -160 -117.5 -255t-316.5 -95
q-156 0 -242 67t-86 187q0 145 101.5 233t279.5 100v5q-128 0 -199 37t-71 102q0 93 102.5 148t278.5 55q150 0 232.5 -44t82.5 -122zM1671 567q32 0 53 23.5t21 60.5q0 26 -13 41t-36 15q-32 0 -53 -23.5t-21 -60.5q0 -26 13 -41t36 -15zM1606 203q47 0 75.5 29.5
t28.5 78.5q0 33 -19.5 52.5t-52.5 19.5q-47 0 -76.5 -30.5t-29.5 -78.5q0 -34 19.5 -52.5t54.5 -18.5z" />
    <glyph glyph-name="partialdiff" unicode="&#x2202;" horiz-adv-x="1429" 
d="M860 1536q275 0 422.5 -159t147.5 -445q0 -287 -111 -502.5t-317 -332.5t-480 -117q-257 0 -397.5 86.5t-140.5 242.5q0 212 266.5 330.5t732.5 118.5q8 86 8 137q0 146 -49.5 227.5t-142.5 81.5q-72 0 -126.5 -42.5t-80.5 -117.5h-410q69 232 247.5 362t430.5 130z
M584 311q156 0 262.5 120t134.5 323q-246 0 -390.5 -86t-144.5 -232q0 -59 36 -92t102 -33z" />
    <glyph glyph-name="emptyset" unicode="&#x2205;" horiz-adv-x="1208" 
d="M1186 942l-99 -84q60 -97 60 -240q0 -289 -173 -462.5t-464 -173.5q-210 0 -330 108l-102 -88l-64 76l105 88q-62 100 -62 244q0 289 174 461.5t467 172.5q211 0 328 -108l96 82zM176 426q0 -105 37 -178l717 606q-90 84 -252 84q-230 0 -366 -139t-136 -373zM1026 600
q0 104 -37 174l-717 -606q92 -86 254 -86q228 0 364 141.5t136 376.5z" />
    <glyph glyph-name="product" unicode="&#x220f;" horiz-adv-x="1847" 
d="M1987 1577l-68 -377h-256l-295 -1671h-410l295 1671h-422l-294 -1671h-410l295 1671h-256l67 377h1754z" />
    <glyph glyph-name="summation" unicode="&#x2211;" horiz-adv-x="1568" 
d="M1604 1253l-1315 13v-4l991 -279l-129 -729v2l-18 -104l-1125 -308l-2 -4l1391 13l-58 -324h-1421l129 723l1127 313v4l-990 291l127 717h1350z" />
    <glyph glyph-name="minus" unicode="&#x2212;" horiz-adv-x="1114" 
d="M86 465l18 102h922l-18 -102h-922z" />
    <glyph glyph-name="radical" unicode="&#x221a;" horiz-adv-x="1587" 
d="M1335 1577h451l-793 -1802h-778l12 506h-266l57 323h648l-66 -803h4z" />
    <glyph glyph-name="infinity" unicode="&#x221e;" horiz-adv-x="1603" 
d="M1212 928q159 0 245.5 -87t86.5 -243q0 -226 -130 -362t-347 -136q-120 0 -195.5 58.5t-99.5 165.5q-56 -106 -155.5 -165t-229.5 -59q-159 0 -245.5 87t-86.5 243q0 226 129.5 362t347.5 136q120 0 194.5 -58t98.5 -165q56 106 155.5 164.5t231.5 58.5zM403 199
q158 0 253.5 105t95.5 278q0 118 -61.5 182.5t-176.5 64.5q-157 0 -252.5 -105t-95.5 -278q0 -117 61.5 -182t175.5 -65zM1083 199q158 0 253.5 105t95.5 278q0 118 -61.5 182.5t-176.5 64.5q-157 0 -252.5 -105t-95.5 -278q0 -117 61.5 -182t175.5 -65z" />
    <glyph glyph-name="integral" unicode="&#x222b;" horiz-adv-x="1079" 
d="M436 1108q40 230 184.5 359.5t360.5 129.5q203 0 311 -79l-135 -283q-56 41 -125 41q-73 0 -121.5 -41t-60.5 -113l-199 -1124q-40 -230 -183.5 -360t-358.5 -130q-205 0 -312 80l133 283q59 -41 125 -41q74 0 123.5 41t61.5 113z" />
    <glyph glyph-name="approxequal" unicode="&#x2248;" horiz-adv-x="1171" 
d="M829 588q-64 0 -115.5 18t-86 43.5t-67 51t-75 43.5t-92.5 18q-65 0 -113.5 -48.5t-70.5 -133.5h-103q32 136 113.5 211t198.5 75q64 0 115.5 -18t86 -43.5t67 -51t75 -43.5t92.5 -18q66 0 114 48.5t70 133.5h103q-32 -136 -113.5 -211t-198.5 -75zM748 158
q-64 0 -115.5 18t-86 43.5t-67.5 51t-75.5 43.5t-92.5 18q-65 0 -113.5 -48.5t-70.5 -133.5h-102q32 136 113.5 211t197.5 75q64 0 115.5 -18t86 -43.5t67 -51t75 -43.5t92.5 -18q66 0 114 48.5t70 133.5h103q-32 -136 -113.5 -211t-197.5 -75z" />
    <glyph glyph-name="notequal" unicode="&#x2260;" horiz-adv-x="1116" 
d="M1047 680h-357l-153 -328h452l-18 -102h-482l-116 -250h-119l117 250h-322l19 102h350l153 328h-446l18 102h475l125 267h119l-125 -267h328z" />
    <glyph glyph-name="lessequal" unicode="&#x2264;" horiz-adv-x="1110" 
d="M1087 946l-952 -254l-2 -4l866 -250l-18 -106l-877 264l17 90l18 100l969 267zM18 100l19 103h921l-18 -103h-922z" />
    <glyph glyph-name="greaterequal" unicode="&#x2265;" horiz-adv-x="1103" 
d="M1065 786l-16 -90l-19 -100l-967 -264l19 106l952 250l2 4l-866 254l20 107zM23 100l16 103h922l-17 -103h-921z" />
    <glyph glyph-name="lozenge" unicode="&#x25ca;" horiz-adv-x="927" 
d="M891 655l-19 -108l-26 -154l-357 -393h-233l-217 393l18 109l27 153l356 394h234zM377 8l479 514v4l-297 514h-4l-481 -514v-4l299 -514h4z" />
    <glyph glyph-name="uniF8FF" unicode="&#xf8ff;" horiz-adv-x="2609" 
d="M2486 756l-753 -762q-14 -14 -35 -14q-41 0 -41 47v663l-694 -696q-14 -14 -35 -14q-41 0 -41 47v663l-697 -696q-14 -14 -34 -14q-15 0 -25 10.5t-10 25.5q0 21 10 31l700 698h-663q-47 0 -47 39q0 16 14 33l696 701h-669q-41 0 -41 38v3q0 38 41 38h758q47 0 47 -41
q0 -20 -17 -34l-698 -697h676q17 0 29 -12t12 -29v-669l694 692q13 16 35 16q37 0 37 -45v-663l696 692q13 16 33 16q15 0 25 -12t10 -27q0 -18 -13 -28z" />
    <glyph glyph-name="Jacute" horiz-adv-x="1232" 
d="M1386 2079l82 -228l-522 -233l-72 203zM676 485q-13 -82 -52.5 -128t-95.5 -46q-52 0 -80 50t-28 141q0 17 4 67h-395q-9 -68 -9 -127q0 -220 113 -341t320 -121q266 0 437.5 137.5t215.5 386.5l178 1012h-426z" />
    <glyph glyph-name="i.loclTRK" horiz-adv-x="606" 
d="M221 1204l53 312h410l-53 -312h-410zM190 1049h410l-184 -1049h-410z" />
    <glyph glyph-name="jacute" horiz-adv-x="606" 
d="M711 1612l82 -228l-523 -233l-71 203zM190 1049h410l-268 -1520h-410z" />
    <glyph glyph-name="f_b" horiz-adv-x="2189" 
d="M903 776h-260l-137 -776h-410l135 776h-143l47 273h524l3 4q-172 0 -266.5 55t-94.5 154q0 154 138.5 244.5t375.5 90.5q133 0 238 -43l-105 -299q-35 21 -82 21q-73 0 -121.5 -41t-60.5 -113l-12 -73h278zM1843 1069q146 0 224.5 -106t78.5 -297q0 -199 -61.5 -355
t-174.5 -243.5t-259 -87.5q-141 0 -217 76t-76 216q0 44 10 109h-4l-68 -381h-409l278 1577h410l-162 -909h4q34 189 146.5 295t279.5 106zM1503 301q98 0 156.5 77t58.5 202q0 80 -35 125t-100 45q-77 0 -135 -65.5t-76 -160.5q-4 -23 -4 -55q0 -74 35 -121t100 -47z" />
    <glyph glyph-name="f_f_j" horiz-adv-x="2273" 
d="M1430 1049h837l-268 -1520h-410l221 1247h-409l-137 -776h-410l135 776h-346l-137 -776h-410l135 776h-143l47 273h524l3 4q-172 0 -266.5 55t-94.5 154q0 154 138.5 244.5t375.5 90.5q133 0 238 -43l-105 -299q-35 21 -82 21q-73 0 -121.5 -41t-60.5 -113l-12 -73h745
l2 4q-172 0 -266 55t-94 154q0 154 138.5 244.5t375.5 90.5q132 0 237 -43l-104 -299q-34 21 -82 21q-73 0 -121.5 -41t-60.5 -113zM1939 1516h410l-53 -312h-410z" />
    <glyph glyph-name="f_f_t" horiz-adv-x="2465" 
d="M2193 776l-65 -364q-2 -12 -2 -23q0 -41 31 -64.5t86 -23.5q71 0 135 33l-54 -299q-129 -55 -270 -55q-170 0 -262 74.5t-92 211.5q0 22 8 80l76 430h-383l-137 -776h-410l135 776h-346l-137 -776h-410l135 776h-143l47 273h524l3 4q-172 0 -266.5 55t-94.5 154
q0 154 138.5 244.5t375.5 90.5q133 0 238 -43l-105 -299q-35 21 -82 21q-73 0 -121.5 -41t-60.5 -113l-12 -73h745l2 4q-172 0 -266 55t-94 154q0 154 138.5 244.5t375.5 90.5q132 0 237 -43l-104 -299q-34 21 -82 21q-73 0 -121.5 -41t-60.5 -113l-12 -73h421l60 329h407
l-14 -86q-19 -114 -134.5 -176.5t-305.5 -62.5l-2 -4h659l-47 -273h-281z" />
    <glyph glyph-name="f_h" horiz-adv-x="2146" 
d="M903 776h-260l-137 -776h-410l135 776h-143l47 273h524l3 4q-172 0 -266.5 55t-94.5 154q0 154 138.5 244.5t375.5 90.5q133 0 238 -43l-105 -299q-35 21 -82 21q-73 0 -121.5 -41t-60.5 -113l-12 -73h278zM1802 1069q139 0 213 -82t74 -235q0 -60 -12 -131l-109 -621
h-409l106 600q4 28 4 43q0 51 -25.5 79t-74.5 28q-66 0 -112.5 -51t-61.5 -140l-99 -559h-409l278 1577h410l-162 -909h4q34 189 135.5 295t249.5 106z" />
    <glyph glyph-name="f_iacute" horiz-adv-x="1515" 
d="M1702 1384l-522 -233l-72 203l512 258zM672 1049h837l-184 -1049h-410l138 776h-410l-137 -776h-410l135 776h-143l47 273h524l3 4q-172 0 -266.5 55t-94.5 154q0 154 138.5 244.5t375.5 90.5q133 0 238 -43l-105 -299q-35 21 -82 21q-73 0 -121.5 -41t-60.5 -113z" />
    <glyph glyph-name="f_j" horiz-adv-x="1515" 
d="M672 1049h837l-268 -1520h-410l222 1247h-410l-137 -776h-410l135 776h-143l47 273h524l3 4q-172 0 -266.5 55t-94.5 154q0 154 138.5 244.5t375.5 90.5q133 0 238 -43l-105 -299q-35 21 -82 21q-73 0 -121.5 -41t-60.5 -113zM1182 1516h409l-53 -312h-410z" />
    <glyph glyph-name="f_k" horiz-adv-x="2131" 
d="M903 776h-260l-137 -776h-410l135 776h-143l47 273h524l3 4q-172 0 -266.5 55t-94.5 154q0 154 138.5 244.5t375.5 90.5q133 0 238 -43l-105 -299q-35 21 -82 21q-73 0 -121.5 -41t-60.5 -113l-12 -73h278zM2204 1049l-373 -498l244 -551h-480l-200 535h-4l-95 -535h-409
l278 1577h410l-180 -1022h4l344 494h461z" />
    <glyph glyph-name="f_t" horiz-adv-x="1708" 
d="M1436 776l-66 -364q-2 -12 -2 -23q0 -41 31 -64.5t86 -23.5q71 0 135 33l-53 -299q-129 -55 -271 -55q-170 0 -262 74.5t-92 211.5q0 22 8 80l76 430h-383l-137 -776h-410l135 776h-143l47 273h524l3 4q-172 0 -266.5 55t-94.5 154q0 154 138.5 244.5t375.5 90.5
q133 0 238 -43l-105 -299q-35 21 -82 21q-73 0 -121.5 -41t-60.5 -113l-12 -73h422l59 329h408l-15 -86q-19 -114 -134.5 -176.5t-305.5 -62.5l-2 -4h659l-47 -273h-280z" />
    <glyph glyph-name="t_t" horiz-adv-x="1730" 
d="M1458 776l-65 -364q-2 -12 -2 -23q0 -41 30.5 -64.5t85.5 -23.5q71 0 135 33l-53 -299q-129 -55 -270 -55q-170 0 -262 74.5t-92 211.5q0 22 8 80l76 430h-428l-66 -364q-2 -12 -2 -23q0 -41 31 -64.5t86 -23.5q71 0 135 33l-53 -299q-129 -55 -271 -55q-170 0 -262 74.5
t-92 211.5q0 22 8 80l76 430h-125l47 273h146l59 329h407l-14 -86q-19 -114 -134.5 -176.5t-305.5 -62.5l-2 -4h827l60 329h407l-14 -86q-19 -114 -135 -176.5t-306 -62.5l-2 -4h660l-47 -273h-281z" />
    <glyph glyph-name="zero.lf" horiz-adv-x="1431" 
d="M621 -20q-249 0 -385 157.5t-136 440.5t98 500.5t278.5 337.5t418.5 120q250 0 385 -157.5t135 -440.5t-97.5 -500.5t-278 -337.5t-418.5 -120zM680 311q84 0 152 88t104.5 228t36.5 299q0 131 -35 204.5t-100 73.5q-85 0 -153.5 -87.5t-105 -227.5t-36.5 -299
q0 -131 35.5 -205t101.5 -74z" />
    <glyph glyph-name="one.lf" horiz-adv-x="929" 
d="M537 1516h428l-267 -1516h-428l252 1430h-4q-46 -259 -157 -404t-263 -145l66 372q155 0 253 69.5t120 193.5z" />
    <glyph glyph-name="two.lf" horiz-adv-x="1329" 
d="M92 328v-4h1137l-58 -324h-1198l56 313q388 162 607.5 364t219.5 400q0 59 -24 93t-68 34q-64 0 -115.5 -62.5t-79.5 -172.5h-411q69 267 247.5 417t430.5 150q235 0 362 -111.5t127 -312.5q0 -224 -149.5 -393t-426 -268.5t-657.5 -122.5z" />
    <glyph glyph-name="three.lf" 
d="M1323 1249q0 -155 -159.5 -245.5t-434.5 -90.5v-4h31q228 0 352.5 -97t124.5 -271q0 -256 -191.5 -408.5t-519.5 -152.5q-234 0 -361.5 120.5t-127.5 339.5q0 38 2 58h414q-2 -16 -2 -37q0 -71 37 -110.5t104 -39.5q90 0 143 51.5t53 135.5q0 63 -41.5 98t-119.5 35h-33
l49 282q97 0 153 49t56 134q0 51 -28.5 79.5t-80.5 28.5q-61 0 -107.5 -49t-68.5 -137h-403q66 245 242 381.5t428 136.5q231 0 360 -79.5t129 -207.5z" />
    <glyph glyph-name="four.lf" horiz-adv-x="1427" 
d="M1386 623l-57 -324h-196l-54 -299h-428l51 299h-694l60 340l491 877h787l-158 -893h198zM446 627v-4h326l152 860h-4z" />
    <glyph glyph-name="five.lf" horiz-adv-x="1339" 
d="M559 -20q-245 0 -379.5 115t-134.5 321v39h420q0 -67 40 -105.5t111 -38.5q99 0 159.5 63.5t60.5 166.5q0 71 -38 111t-108 40q-59 0 -109 -28.5t-81 -79.5l-402 53l271 879h974l-55 -324h-602l-178 -580h4q63 181 187 282t284 101q150 0 230.5 -93.5t80.5 -262.5
q0 -302 -198.5 -480.5t-536.5 -178.5z" />
    <glyph glyph-name="six.lf" horiz-adv-x="1423" 
d="M1413 1069h-414v6q0 61 -34.5 95t-98.5 34q-112 0 -195 -117.5t-120 -328.5l-27 -158h4q31 175 159.5 274t326.5 99q169 0 259.5 -91t90.5 -255q0 -295 -204.5 -471t-551.5 -176q-244 0 -376 156.5t-132 436.5q0 288 100.5 506t288 337.5t435.5 119.5q234 0 362.5 -112
t128.5 -314q0 -16 -2 -41zM729 666q-108 0 -172.5 -53.5t-64.5 -147.5q0 -73 46 -113.5t130 -40.5q108 0 173.5 59t65.5 156q0 66 -46.5 103t-131.5 37z" />
    <glyph glyph-name="seven.lf" horiz-adv-x="1193" 
d="M199 1516h1136l-53 -314q-218 -75 -384.5 -368t-244.5 -740l-16 -94h-442l6 33q102 546 365 850.5t640 304.5v4h-1063z" />
    <glyph glyph-name="eight.lf" horiz-adv-x="1366" 
d="M1374 1255q0 -141 -141.5 -222t-384.5 -81v-4q215 -15 331.5 -118.5t116.5 -274.5q0 -263 -191.5 -419t-518.5 -156q-255 0 -394 109.5t-139 307.5q0 238 164 383.5t451 167.5v4q-204 0 -317 62.5t-113 173.5q0 160 167 254t455 94q245 0 379.5 -74t134.5 -207zM649 1038
q0 -50 28 -78t77 -28q69 0 110 45t41 119q0 51 -26.5 79.5t-75.5 28.5q-69 0 -111.5 -45.5t-42.5 -120.5zM645 311q92 0 147.5 55t55.5 146q0 64 -37.5 99.5t-105.5 35.5q-93 0 -149 -55t-56 -146q0 -63 38 -99t107 -36z" />
    <glyph glyph-name="nine.lf" horiz-adv-x="1421" 
d="M895 1536q245 0 377.5 -156.5t132.5 -437.5q0 -288 -100.5 -506t-288 -337t-436.5 -119q-230 0 -357 118t-127 332q0 37 2 57h414v-6q0 -79 33 -124.5t94 -45.5q112 0 194 117.5t119 329.5l33 178h-4q-29 -166 -157 -259t-326 -93q-169 0 -262 87.5t-93 243.5
q0 284 203 452.5t549 168.5zM782 891q107 0 170.5 46t63.5 128q0 66 -46.5 102.5t-131.5 36.5q-108 0 -173 -51t-65 -137q0 -60 47.5 -92.5t134.5 -32.5z" />
    <glyph glyph-name="zero.osf" horiz-adv-x="1376" 
d="M592 -20q-250 0 -386 130.5t-136 364.5q0 336 200 536.5t539 200.5q252 0 388 -130.5t136 -364.5q0 -335 -201 -536t-540 -201zM649 301q119 0 190.5 105t71.5 270q0 102 -40.5 159.5t-116.5 57.5q-119 0 -192 -105.5t-73 -271.5q0 -102 42 -158.5t118 -56.5z" />
    <glyph glyph-name="one.osf" horiz-adv-x="903" 
d="M485 1192h410l-211 -1192h-410l195 1106h-4q-43 -239 -153 -373.5t-261 -134.5l60 332q155 0 253.5 69.5t120.5 192.5z" />
    <glyph glyph-name="two.osf" horiz-adv-x="1249" 
d="M84 307v-4h1061l-53 -303h-1123l54 297q361 124 566.5 261.5t205.5 258.5q0 40 -27 63t-74 23q-68 0 -117 -45t-69 -127h-391q54 227 217 354t401 127q224 0 346.5 -92t122.5 -256q0 -162 -136 -283t-387 -190t-597 -84z" />
    <glyph glyph-name="three.osf" horiz-adv-x="1243" 
d="M1210 950q0 -144 -158.5 -224.5t-430.5 -80.5v-4q242 0 375.5 -97t133.5 -268q0 -239 -181.5 -380.5t-493.5 -141.5q-225 0 -349 111.5t-124 312.5q0 35 2 51h389q-2 -16 -2 -28q0 -66 37 -102t106 -36q90 0 143.5 48t53.5 127q0 59 -44.5 91.5t-123.5 32.5h-29l49 283
q98 17 152.5 59t54.5 103q0 46 -29.5 71t-83.5 25q-61 0 -106.5 -42.5t-65.5 -117.5h-379q57 221 226 345t411 124q222 0 344.5 -69.5t122.5 -192.5z" />
    <glyph glyph-name="four.osf" horiz-adv-x="1396" 
d="M1307 303l-54 -303h-196l-39 -225h-410l39 225h-674l58 319l471 877h766l-158 -893h197zM408 307v-4h303l151 860h-4z" />
    <glyph glyph-name="five.osf" horiz-adv-x="1294" 
d="M498 -246q-239 0 -371.5 110t-132.5 306v39h391q3 -63 47 -98t121 -35q102 0 163.5 62.5t61.5 164.5q0 67 -39 105t-110 38q-67 0 -124 -28.5t-89 -79.5l-371 53l254 801h961l-54 -303h-596l-194 -535h4q70 180 197 280.5t282 100.5q147 0 226 -94t79 -264
q0 -290 -191 -456.5t-515 -166.5z" />
    <glyph glyph-name="six.osf" horiz-adv-x="1345" 
d="M1339 1049h-383v2q-2 58 -36.5 90.5t-98.5 32.5q-102 0 -179 -115.5t-114 -321.5l-24 -145h4q30 167 158 263.5t305 96.5q154 0 236.5 -89.5t82.5 -250.5q0 -289 -192 -460.5t-518 -171.5q-236 0 -363 151.5t-127 423.5q0 280 96.5 493t275.5 330t417 117q220 0 340 -108
t120 -302v-36zM698 655q-103 0 -166 -57.5t-63 -153.5q0 -68 43.5 -105.5t124.5 -37.5q104 0 166.5 56.5t62.5 152.5q0 69 -44 107t-124 38z" />
    <glyph glyph-name="seven.osf" horiz-adv-x="1169" 
d="M154 1192h1095l-53 -293q-223 -60 -395 -358t-254 -766h-422q92 523 351.5 816.5t631.5 293.5v4h-1008z" />
    <glyph glyph-name="eight.osf" horiz-adv-x="1331" 
d="M1337 1217q0 -140 -135 -217.5t-371 -77.5v-4q209 -19 322 -117.5t113 -261.5q0 -254 -189.5 -406.5t-509.5 -152.5q-249 0 -386.5 108t-137.5 301q0 226 159 366t437 163v4q-199 0 -307.5 59.5t-108.5 165.5q0 161 164.5 254.5t448.5 93.5q238 0 369.5 -73t131.5 -205z
M731 901q74 0 120 44.5t46 117.5q0 53 -31 82t-88 29q-74 0 -120 -44.5t-46 -117.5q0 -53 31 -82t88 -29zM842 500q0 63 -42 100t-116 37q-98 0 -157.5 -54t-59.5 -145q0 -63 42 -100t116 -37q98 0 157.5 54t59.5 145z" />
    <glyph glyph-name="nine.osf" horiz-adv-x="1345" 
d="M791 1208q238 0 366.5 -146t128.5 -407q0 -268 -95.5 -472t-273 -316.5t-413.5 -112.5q-221 0 -343 102.5t-122 288.5v35h383v-2q2 -48 38.5 -75t100.5 -27q103 0 178 109.5t109 306.5l22 124h-4q-27 -158 -154 -249t-304 -91q-155 0 -238.5 86t-83.5 240
q0 279 190 442.5t515 163.5zM678 573q103 0 164 49.5t61 135.5q0 61 -44 95t-126 34q-102 0 -162.5 -49t-60.5 -133q0 -62 44.5 -97t123.5 -35z" />
    <glyph glyph-name="zero.dnom" horiz-adv-x="872" 
d="M342 -12q-153 0 -236 95t-83 265q0 257 132.5 415.5t350.5 158.5q154 0 236.5 -95.5t82.5 -265.5q0 -258 -132 -415.5t-351 -157.5zM379 203q70 0 115 107.5t45 242.5q0 71 -18.5 112.5t-51.5 41.5q-67 0 -113.5 -106t-46.5 -243q0 -73 18.5 -114t51.5 -41z" />
    <glyph glyph-name="one.dnom" horiz-adv-x="591" 
d="M293 909h278l-159 -909h-279l152 856h-4q-31 -167 -100 -260.5t-161 -93.5l43 246q95 0 156 42.5t74 118.5z" />
    <glyph glyph-name="two.dnom" horiz-adv-x="808" 
d="M20 213v-4h697l-37 -209h-731l35 203q229 103 357 218t128 222q0 29 -11.5 46.5t-31.5 17.5q-32 0 -57.5 -33.5t-40.5 -93.5h-269q41 161 149.5 251.5t262.5 90.5q144 0 222.5 -67.5t78.5 -188.5q0 -198 -200 -316t-552 -137z" />
    <glyph glyph-name="three.dnom" horiz-adv-x="800" 
d="M772 752q0 -92 -96 -144.5t-264 -52.5v-4q147 0 228 -58t81 -163q0 -157 -116.5 -249.5t-317.5 -92.5q-142 0 -221.5 74t-79.5 206q0 17 2 33h268v-18q0 -37 18.5 -58.5t53.5 -21.5q47 0 73.5 26.5t26.5 71.5q0 70 -82 70h-18l30 182q51 0 80 26t29 72q0 56 -53 56
q-30 0 -54 -26.5t-36 -72.5h-263q40 148 148 231t262 83q142 0 221.5 -47.5t79.5 -122.5z" />
    <glyph glyph-name="four.dnom" horiz-adv-x="874" 
d="M817 381l-37 -209h-118l-31 -172h-279l31 172h-414l39 219l273 518h510l-93 -528h119zM252 385v-4h176l90 508h-4z" />
    <glyph glyph-name="five.dnom" horiz-adv-x="811" 
d="M303 -12q-149 0 -231 69.5t-82 194.5v24h272q0 -73 76 -73q53 0 85 32.5t32 86.5q0 79 -76 79q-63 0 -98 -53l-261 35l162 526h598l-37 -209h-356l-106 -335h4q38 110 112.5 170.5t171.5 60.5q87 0 135 -55.5t48 -155.5q0 -182 -122 -289.5t-327 -107.5z" />
    <glyph glyph-name="six.dnom" horiz-adv-x="868" 
d="M825 639h-268v4q0 30 -18.5 47t-51.5 17q-61 0 -106.5 -65.5t-67.5 -184.5l-16 -95h4q19 104 95 163t194 59q100 0 154.5 -54.5t54.5 -150.5q0 -178 -125.5 -284.5t-339.5 -106.5q-148 0 -229.5 96t-81.5 266q0 259 136 415.5t365 156.5q144 0 222.5 -68.5t78.5 -191.5
v-23zM406 385q-59 0 -93 -27t-34 -77q0 -37 24.5 -57.5t69.5 -20.5q58 0 93.5 30t35.5 80q0 34 -25 53t-71 19z" />
    <glyph glyph-name="seven.dnom" horiz-adv-x="727" 
d="M84 909h690l-35 -202q-128 -46 -226 -220.5t-142 -437.5l-9 -49h-286l2 10q65 328 225 507t393 179v4h-649z" />
    <glyph glyph-name="eight.dnom" horiz-adv-x="835" 
d="M803 756q0 -81 -88 -128.5t-238 -47.5v-5q134 -7 207.5 -70t73.5 -167q0 -160 -117.5 -255t-316.5 -95q-156 0 -242 67t-86 187q0 145 101.5 233t279.5 100v5q-128 0 -199.5 37t-71.5 102q0 93 102.5 148t278.5 55q150 0 233 -44t83 -122zM426 567q32 0 53 23.5t21 60.5
q0 26 -13 41t-36 15q-32 0 -53 -23.5t-21 -60.5q0 -26 13 -41t36 -15zM360 203q47 0 76 29.5t29 78.5q0 33 -19.5 52.5t-52.5 19.5q-47 0 -76.5 -30.5t-29.5 -78.5q0 -34 19 -52.5t54 -18.5z" />
    <glyph glyph-name="nine.dnom" horiz-adv-x="866" 
d="M508 922q149 0 231 -96.5t82 -266.5q0 -260 -136.5 -415.5t-365.5 -155.5q-142 0 -220.5 73.5t-78.5 204.5v29h269v-12q0 -80 67 -80q60 0 106 66t66 184l19 106h-4q-17 -98 -92.5 -153.5t-192.5 -55.5q-101 0 -155 51.5t-54 145.5q0 171 123.5 273t335.5 102zM442 549
q58 0 90.5 23t32.5 65q0 32 -25 51t-69 19q-57 0 -92 -26t-35 -69q0 -30 26 -46.5t72 -16.5z" />
    <glyph glyph-name="zero.numr" horiz-adv-x="872" 
d="M453 618q-153 0 -236.5 95.5t-83.5 265.5q0 257 132.5 415t350.5 158q154 0 237 -95t83 -265q0 -258 -132 -416t-351 -158zM489 834q70 0 115 107.5t45 242.5q0 72 -18 112.5t-51 40.5q-67 0 -113.5 -105.5t-46.5 -242.5q0 -73 18 -114t51 -41z" />
    <glyph glyph-name="one.numr" horiz-adv-x="591" 
d="M406 1540h278l-160 -909h-278l151 856h-4q-31 -167 -99.5 -260.5t-160.5 -93.5l43 245q95 0 155.5 42.5t74.5 119.5z" />
    <glyph glyph-name="two.numr" horiz-adv-x="808" 
d="M131 844v-4h696l-36 -209h-732l35 203q229 103 357.5 218t128.5 222q0 29 -11.5 46t-31.5 17q-32 0 -58 -34t-41 -93h-268q41 161 149.5 251.5t262.5 90.5q144 0 222.5 -67.5t78.5 -188.5q0 -197 -199.5 -315t-552.5 -137z" />
    <glyph glyph-name="three.numr" horiz-adv-x="800" 
d="M883 1382q0 -92 -96.5 -144t-264.5 -52v-4q147 0 228 -58t81 -163q0 -157 -117 -250t-317 -93q-142 0 -221.5 74.5t-79.5 206.5q0 17 2 33h269v-19q0 -37 18 -58t53 -21q47 0 74 26.5t27 71.5q0 69 -82 69h-19l31 183q51 0 80 26t29 72q0 55 -54 55q-31 0 -54.5 -26
t-35.5 -72h-262q40 148 148 230.5t262 82.5q142 0 221.5 -47.5t79.5 -122.5z" />
    <glyph glyph-name="four.numr" horiz-adv-x="874" 
d="M930 1012l-37 -209h-119l-31 -172h-278l31 172h-414l39 219l272 518h510l-92 -528h119zM365 1016v-4h176l90 508h-4z" />
    <glyph glyph-name="five.numr" horiz-adv-x="811" 
d="M414 618q-149 0 -231.5 70t-82.5 195v24h273q0 -73 76 -73q53 0 84.5 32t31.5 86q0 38 -19.5 59t-56.5 21q-63 0 -98 -53l-260 35l162 526h598l-37 -209h-356l-107 -336h4q38 110 113 171t172 61q87 0 134.5 -55.5t47.5 -155.5q0 -183 -122 -290.5t-326 -107.5z" />
    <glyph glyph-name="six.numr" horiz-adv-x="868" 
d="M936 1270h-268v4q0 30 -18.5 46.5t-51.5 16.5q-61 0 -106.5 -65.5t-67.5 -184.5l-16 -94h4q19 103 94.5 162t193.5 59q100 0 154.5 -54t54.5 -150q0 -178 -125.5 -285t-339.5 -107q-148 0 -229.5 96.5t-81.5 266.5q0 259 136.5 415t365.5 156q144 0 222.5 -68.5
t78.5 -191.5v-22zM516 1016q-59 0 -93 -27.5t-34 -77.5q0 -37 24 -57t70 -20q58 0 93.5 30t35.5 80q0 34 -25 53t-71 19z" />
    <glyph glyph-name="seven.numr" horiz-adv-x="727" 
d="M197 1540h690l-35 -203q-128 -46 -226.5 -220t-142.5 -437l-8 -49h-287l2 10q65 327 225.5 506.5t393.5 179.5v4h-649z" />
    <glyph glyph-name="eight.numr" horiz-adv-x="835" 
d="M913 1386q0 -82 -87.5 -129t-237.5 -47v-4q134 -7 207 -70t73 -167q0 -160 -117.5 -255.5t-316.5 -95.5q-156 0 -242 67t-86 187q0 146 101.5 234t279.5 100v4q-128 0 -199 37.5t-71 102.5q0 93 102.5 147.5t278.5 54.5q150 0 232.5 -44t82.5 -122zM537 1198
q32 0 52.5 23.5t20.5 60.5q0 55 -49 55q-32 0 -53 -23.5t-21 -60.5q0 -26 13.5 -40.5t36.5 -14.5zM471 834q47 0 75.5 29.5t28.5 78.5q0 33 -19 52.5t-52 19.5q-47 0 -77 -31t-30 -78q0 -34 19.5 -52.5t54.5 -18.5z" />
    <glyph glyph-name="nine.numr" horiz-adv-x="866" 
d="M618 1552q150 0 232 -96t82 -266q0 -260 -136.5 -416t-365.5 -156q-142 0 -220.5 74t-78.5 205v29h268v-13q0 -79 68 -79q60 0 106 65.5t66 183.5l18 107h-4q-17 -98 -92 -153.5t-192 -55.5q-101 0 -155 51.5t-54 145.5q0 171 123 272.5t335 101.5zM553 1180
q58 0 90.5 23t32.5 65q0 32 -25 50.5t-69 18.5q-57 0 -92 -25.5t-35 -68.5q0 -30 26 -46.5t72 -16.5z" />
    <glyph glyph-name="backslash.case" horiz-adv-x="774" 
d="M330 1577l313 -1597l-115 -41l-313 1597z" />
    <glyph glyph-name="exclamdown.case" horiz-adv-x="688" 
d="M225 1096l74 420h436l-73 -420h-437zM221 948h397l-157 -948h-418z" />
    <glyph glyph-name="questiondown.case" horiz-adv-x="1191" 
d="M961 1096h-437l74 420h436zM1141 485q-63 -238 -230.5 -371.5t-406.5 -133.5q-226 0 -349.5 92.5t-123.5 257.5q0 147 127.5 304.5t357.5 313.5h383l-2 -4q-185 -142 -291 -284t-106 -250q0 -45 22 -72t60 -27q52 0 93.5 47t61.5 127h404z" />
    <glyph glyph-name="slash.case" horiz-adv-x="792" 
d="M827 1577l99 -41l-875 -1597l-102 41z" />
    <glyph glyph-name="numbersign.osf" horiz-adv-x="1153" 
d="M1139 750h-205l-90 -312h196l-30 -98h-195l-100 -340h-117l96 340h-364l-99 -340h-116l100 340h-205l31 98h203l92 312h-197l29 98h197l88 299h116l-88 -299h363l90 299h117l-88 -299h204zM727 438l92 312h-368l-95 -312h371z" />
    <glyph glyph-name="braceleft.case" horiz-adv-x="542" 
d="M356 1356q22 118 112 190t218 72l-18 -102q-76 0 -131.5 -48t-69.5 -125l-68 -376q-13 -75 -60 -128.5t-120 -80.5q111 -48 111 -164q0 -15 -4 -47l-66 -375q-4 -24 -4 -37q0 -62 39 -98.5t106 -36.5l-18 -102q-113 0 -177.5 57t-64.5 154q0 24 4 51l66 375q4 20 4 40
q0 63 -39.5 97.5t-112.5 34.5l17 100q85 0 140.5 45.5t68.5 126.5z" />
    <glyph glyph-name="braceright.case" horiz-adv-x="542" 
d="M412 938q0 -63 39 -97t112 -34l-16 -100q-85 0 -140.5 -45.5t-68.5 -126.5l-66 -375q-20 -118 -111.5 -190t-219.5 -72l18 102q77 0 133.5 48t69.5 124l65 375q13 75 60.5 128.5t120.5 80.5q-111 48 -111 164q0 22 4 47l68 376q4 24 4 37q0 62 -40.5 99t-107.5 37l19 102
q112 0 177.5 -56.5t65.5 -152.5q0 -28 -4 -53l-67 -377q-4 -28 -4 -41z" />
    <glyph glyph-name="bracketleft.case" horiz-adv-x="591" 
d="M750 1516h-328l-266 -1516h327l-18 -102h-440l303 1720h440z" />
    <glyph glyph-name="bracketright.case" horiz-adv-x="593" 
d="M651 1618l-303 -1720h-440l18 102h328l266 1516h-327l18 102h440z" />
    <glyph glyph-name="parenleft.case" horiz-adv-x="501" 
d="M395 -59q-99 116 -146.5 290.5t-47.5 348.5q0 121 28 248.5t84 257.5t151 257.5t220 231.5l-72 63q-262 -231 -394 -508t-132 -555q0 -189 53.5 -374.5t161.5 -323.5z" />
    <glyph glyph-name="parenright.case" horiz-adv-x="501" 
d="M-98 -59l69 -64q263 231 396 508t133 555q0 189 -54 374.5t-163 323.5l-93 -63q99 -118 147 -290t48 -345q0 -164 -49 -336t-161 -350.5t-273 -312.5z" />
    <glyph glyph-name="emdash.case" horiz-adv-x="1884" 
d="M147 809h1686l-18 -102h-1686z" />
    <glyph glyph-name="endash.case" horiz-adv-x="1298" 
d="M147 809h1100l-18 -102h-1100z" />
    <glyph glyph-name="hyphen.case" horiz-adv-x="919" 
d="M147 809h721l-18 -102h-721z" />
    <glyph glyph-name="uni00AD.case" horiz-adv-x="919" 
d="M147 809h721l-18 -102h-721z" />
    <glyph glyph-name="guillemotleft.case" horiz-adv-x="927" 
d="M104 737l332 396h119l-328 -396l189 -395h-119zM498 737l331 396h119l-327 -396l188 -395h-119z" />
    <glyph glyph-name="guillemotright.case" horiz-adv-x="925" 
d="M504 737l-332 -395h-119l328 395l-188 396h118zM897 737l-332 -395h-119l328 395l-188 396h119z" />
    <glyph glyph-name="guilsinglleft.case" horiz-adv-x="534" 
d="M104 737l332 396h119l-328 -396l189 -395h-119z" />
    <glyph glyph-name="guilsinglright.case" horiz-adv-x="532" 
d="M504 737l-332 -395h-119l328 395l-188 396h118z" />
    <glyph glyph-name="cent.osf" horiz-adv-x="1255" 
d="M672 311q82 28 123 131h399q-59 -206 -210 -326.5t-370 -133.5l-36 -207h-113l37 207q-214 13 -329.5 129t-115.5 313q0 280 171.5 454t463.5 189l33 190h113l-33 -190q199 -15 308.5 -136t109.5 -327h-400q-3 107 -75 135zM479 467q0 -125 80 -156l76 430
q-72 -23 -114 -96.5t-42 -177.5z" />
    <glyph glyph-name="dollar.osf" horiz-adv-x="1230" 
d="M1184 795h-379v8q0 75 -70 100l-22 -137q4 -1 12.5 -2t13.5 -2q42 -6 62.5 -9.5t62 -11.5t65 -15.5t59 -21t56.5 -27.5t45.5 -35.5t38 -46.5t22.5 -57.5t9 -70.5q0 -210 -156.5 -339.5t-427.5 -141.5l-30 -172h-113l31 172q-206 14 -318 121t-112 290v23h379v-4
q0 -97 104 -127l29 170q-169 21 -244 50q-172 66 -172 241q0 208 145.5 327t403.5 131l29 168h112l-28 -168q187 -12 290 -114.5t103 -276.5v-22zM532 840q0 -36 70 -56l23 127q-43 -6 -68 -25t-25 -46zM754 373q0 49 -99 69l-28 -159q60 6 93.5 29.5t33.5 60.5z" />
    <glyph glyph-name="Euro.osf" horiz-adv-x="1255" 
d="M776 281q54 0 121 21t127 58l115 -241q-98 -67 -213.5 -101t-200.5 -34q-257 0 -401.5 122t-155.5 343h-133l14 90h121q3 53 12 102h-114l16 88h119q70 226 262.5 353.5t474.5 127.5q89 0 183.5 -25t164.5 -67l-194 -260q-75 55 -205 55q-93 0 -166 -48t-113 -134h406
l-66 -90h-368q-10 -53 -13 -100h314l-68 -92h-237q15 -80 67 -124t131 -44z" />
    <glyph glyph-name="sterling.osf" horiz-adv-x="1148" 
d="M1135 799h-373v12q0 47 -22 74.5t-60 27.5q-32 0 -53 -20t-21 -51q0 -37 45 -116t54 -112h231l-18 -102h-226q-46 -90 -207.5 -148t-408.5 -71v-4h977l-52 -289h-1026l50 283q221 112 258 229h-185l19 102h157q-5 13 -32 66t-39.5 91.5t-12.5 76.5q0 162 144.5 262
t390.5 100q196 0 303 -96.5t107 -271.5v-43z" />
    <glyph glyph-name="yen.osf" horiz-adv-x="1409" 
d="M1481 1192l-373 -645h119l-15 -86h-153l-62 -107h197l-16 -84h-230l-155 -270h-435l158 270h-373l17 84h405l62 107h-449l15 86h100l-133 645h463l100 -625h4l320 625h434z" />
    <glyph glyph-name="plus.case" horiz-adv-x="1021" 
d="M1016 772l-19 -102h-405l-74 -410h-110l71 410h-403l18 102h402l71 410h115l-74 -410h408z" />
    <glyph glyph-name="minus.case" horiz-adv-x="1120" 
d="M123 670l18 102h922l-19 -102h-921z" />
    <glyph glyph-name="multiply.case" horiz-adv-x="892" 
d="M920 1016l-365 -307l254 -308l-92 -77l-254 307l-363 -307l-63 75l362 310l-254 307l93 78l254 -308l362 308z" />
    <glyph glyph-name="divide.case" horiz-adv-x="1069" 
d="M610 963q-65 0 -65 59q0 42 25 67t67 25q68 0 68 -61q0 -43 -25.5 -66.5t-69.5 -23.5zM98 670l19 102h921l-18 -102h-922zM500 328q-32 0 -50 15.5t-18 43.5q0 41 25.5 66.5t68.5 25.5q32 0 50 -16t18 -45q0 -43 -25 -66.5t-69 -23.5z" />
    <glyph glyph-name="equal.case" horiz-adv-x="1120" 
d="M162 885l18 102h922l-19 -102h-921zM86 455l18 102h922l-18 -102h-922z" />
    <glyph glyph-name="notequal.case" horiz-adv-x="1120" 
d="M1083 885h-356l-154 -328h453l-18 -102h-482l-116 -250h-119l117 250h-322l18 102h351l153 328h-446l18 102h475l125 266h119l-125 -266h328z" />
    <glyph glyph-name="greater.case" horiz-adv-x="976" 
d="M977 823l-16 -96l-19 -106l-883 -361l19 113l868 346l2 4l-745 350l18 113z" />
    <glyph glyph-name="less.case" horiz-adv-x="978" 
d="M971 1073l-869 -350l-2 -4l746 -346l-19 -113l-755 361l16 96l18 106l883 363z" />
    <glyph glyph-name="greaterequal.case" horiz-adv-x="1138" 
d="M1124 991l-16 -90l-18 -100l-967 -264l18 106l953 250l2 4l-867 254l21 106zM82 305l16 103h922l-16 -103h-922z" />
    <glyph glyph-name="lessequal.case" horiz-adv-x="1142" 
d="M1133 1151l-953 -254l-2 -4l866 -250l-18 -106l-876 264l16 90l18 100l969 266zM63 305l19 103h922l-19 -103h-922z" />
    <glyph glyph-name="plusminus.case" horiz-adv-x="1120" 
d="M690 950h406l-19 -102h-405l-56 -311h-110l55 311h-405l18 102h404l55 314h112zM61 305l19 103h921l-18 -103h-922z" />
    <glyph glyph-name="logicalnot.case" horiz-adv-x="1081" 
d="M127 940h922l-82 -473h-113l64 371h-809z" />
    <glyph glyph-name="percent.osf" horiz-adv-x="1542" 
d="M381 555q-131 0 -201.5 68.5t-70.5 193.5q0 179 105.5 287t281.5 108q131 0 202.5 -69.5t71.5 -194.5q0 -180 -106 -286.5t-283 -106.5zM209 37l1075 1175l70 -57l-1075 -1175zM420 764q37 0 59.5 47t22.5 113q0 77 -41 77q-36 0 -60 -46t-24 -111q0 -80 43 -80z
M1071 -20q-129 0 -199.5 68.5t-70.5 191.5q0 181 104.5 289t282.5 108q130 0 201 -69.5t71 -194.5q0 -180 -105.5 -286.5t-283.5 -106.5zM1110 188q37 0 60.5 46.5t23.5 111.5q0 78 -43 78q-36 0 -60 -46t-24 -112q0 -78 43 -78z" />
    <glyph glyph-name="perthousand.osf" horiz-adv-x="2260" 
d="M381 555q-131 0 -201.5 68.5t-70.5 193.5q0 179 105.5 287t281.5 108q131 0 202.5 -69.5t71.5 -194.5q0 -180 -106 -286.5t-283 -106.5zM209 37l1075 1175l70 -57l-1075 -1175zM420 764q37 0 59.5 47t22.5 113q0 77 -41 77q-36 0 -60 -46t-24 -111q0 -80 43 -80z
M1071 -20q-129 0 -199.5 68.5t-70.5 191.5q0 181 104.5 289t282.5 108q130 0 201 -69.5t71 -194.5q0 -180 -105.5 -286.5t-283.5 -106.5zM1794 -20q-129 0 -199.5 68.5t-70.5 191.5q0 181 104.5 289t282.5 108q130 0 201 -69.5t71 -194.5q0 -180 -105.5 -286.5
t-283.5 -106.5zM1110 188q37 0 60.5 46.5t23.5 111.5q0 78 -43 78q-36 0 -60 -46t-24 -112q0 -78 43 -78zM1833 188q37 0 60.5 46.5t23.5 111.5q0 78 -43 78q-36 0 -60 -46t-24 -112q0 -78 43 -78z" />
    </font>
</defs>
</svg>
