<svg width="97" height="38" viewBox="0 0 97 38" fill="none" xmlns="http://www.w3.org/2000/svg">
<path d="M96.5 25.8512L80.2239 37.5H0.5V0.5H96.5V25.8512Z" stroke="#FF595A"/>
<path d="M27.3 22.395V19.11H32.46V17.505H27.3V14.505H32.985V12.9H25.23V24H33.15V22.395H27.3ZM39.1273 16.32C37.5973 16.32 36.6823 17.355 36.6823 19.11H36.6523V16.47H34.6723V24H36.6523V19.92C36.6523 18.645 37.2673 17.88 38.3173 17.88C39.2473 17.88 39.7873 18.48 39.7873 19.5V24H41.7673V19.41C41.7673 17.46 40.7923 16.32 39.1273 16.32ZM48.4103 16.47L46.7153 23.865H46.6853L44.9603 16.47H42.8453L44.8253 24H48.5603L50.5253 16.47H48.4103ZM51.8256 15.03H53.8056V13.155H51.8256V15.03ZM51.8256 24H53.8056V16.47H51.8256V24ZM61.106 16.47V19.05H61.076C61.076 17.34 60.071 16.32 58.391 16.32C56.501 16.32 55.391 17.775 55.391 20.235C55.391 22.695 56.501 24.15 58.391 24.15C60.071 24.15 61.076 23.13 61.076 21.405H61.106V24H63.086V16.47H61.106ZM59.306 22.575C58.106 22.575 57.401 21.705 57.401 20.235C57.401 18.765 58.106 17.88 59.306 17.88C60.506 17.88 61.211 18.84 61.211 20.235C61.211 21.615 60.506 22.575 59.306 22.575ZM69.3285 16.32C67.9035 16.32 67.0485 17.52 67.0485 19.575H67.0185V16.47H65.0385V24H67.0185V20.595C67.0185 19.005 67.7085 18.06 68.8635 18.06C69.2385 18.06 69.6135 18.165 69.9135 18.33L70.4835 16.56C70.1835 16.41 69.7635 16.32 69.3285 16.32Z" fill="#FF595A"/>
</svg>
