<svg width="295" height="50" viewBox="0 0 295 50" fill="none" xmlns="http://www.w3.org/2000/svg">
<path d="M278.281 50H0V0H294.5V34.3529L278.281 50Z" fill="#FF595A"/>
<path d="M17.3921 30.4737C17.3321 30.4737 17.2781 30.4557 17.2301 30.4197C17.1941 30.3717 17.1761 30.3177 17.1761 30.2577V18.0897C17.1761 18.0297 17.1941 17.9817 17.2301 17.9457C17.2781 17.8977 17.3321 17.8737 17.3921 17.8737H21.8921C22.7921 17.8737 23.5781 18.0357 24.2501 18.3597C24.9341 18.6717 25.4621 19.1157 25.8341 19.6917C26.2061 20.2677 26.3921 20.9337 26.3921 21.6897V26.6577C26.3921 27.4137 26.2061 28.0797 25.8341 28.6557C25.4621 29.2317 24.9341 29.6817 24.2501 30.0057C23.5781 30.3177 22.7921 30.4737 21.8921 30.4737H17.3921ZM19.7141 28.2057C19.7141 28.2657 19.7441 28.2957 19.8041 28.2957H21.9821C22.5341 28.2957 22.9781 28.1097 23.3141 27.7377C23.6621 27.3657 23.8421 26.8677 23.8541 26.2437V22.1037C23.8541 21.4797 23.6801 20.9817 23.3321 20.6097C22.9961 20.2377 22.5401 20.0517 21.9641 20.0517H19.8041C19.7441 20.0517 19.7141 20.0817 19.7141 20.1417V28.2057ZM37.0511 19.8357C37.0511 19.8957 37.0271 19.9497 36.9791 19.9977C36.9431 20.0337 36.8951 20.0517 36.8351 20.0517H30.9311C30.8711 20.0517 30.8411 20.0817 30.8411 20.1417V22.9317C30.8411 22.9917 30.8711 23.0217 30.9311 23.0217H34.8011C34.8611 23.0217 34.9091 23.0457 34.9451 23.0937C34.9931 23.1297 35.0171 23.1777 35.0171 23.2377V24.9837C35.0171 25.0437 34.9931 25.0977 34.9451 25.1457C34.9091 25.1817 34.8611 25.1997 34.8011 25.1997H30.9311C30.8711 25.1997 30.8411 25.2297 30.8411 25.2897V28.2057C30.8411 28.2657 30.8711 28.2957 30.9311 28.2957H36.8351C36.8951 28.2957 36.9431 28.3197 36.9791 28.3677C37.0271 28.4037 37.0511 28.4517 37.0511 28.5117V30.2577C37.0511 30.3177 37.0271 30.3717 36.9791 30.4197C36.9431 30.4557 36.8951 30.4737 36.8351 30.4737H28.5191C28.4591 30.4737 28.4051 30.4557 28.3571 30.4197C28.3211 30.3717 28.3031 30.3177 28.3031 30.2577V18.0897C28.3031 18.0297 28.3211 17.9817 28.3571 17.9457C28.4051 17.8977 28.4591 17.8737 28.5191 17.8737H36.8351C36.8951 17.8737 36.9431 17.8977 36.9791 17.9457C37.0271 17.9817 37.0511 18.0297 37.0511 18.0897V19.8357ZM43.1348 30.6177C42.1748 30.6177 41.3348 30.4677 40.6148 30.1677C39.8948 29.8557 39.3368 29.4177 38.9408 28.8537C38.5568 28.2777 38.3648 27.6117 38.3648 26.8557V26.4597C38.3648 26.3997 38.3828 26.3517 38.4188 26.3157C38.4668 26.2677 38.5208 26.2437 38.5808 26.2437H40.6328C40.6928 26.2437 40.7408 26.2677 40.7768 26.3157C40.8248 26.3517 40.8488 26.3997 40.8488 26.4597V26.7297C40.8488 27.2097 41.0708 27.6177 41.5148 27.9537C41.9588 28.2777 42.5588 28.4397 43.3148 28.4397C43.9508 28.4397 44.4248 28.3077 44.7368 28.0437C45.0488 27.7677 45.2048 27.4317 45.2048 27.0357C45.2048 26.7477 45.1088 26.5077 44.9168 26.3157C44.7248 26.1117 44.4608 25.9377 44.1248 25.7937C43.8008 25.6377 43.2788 25.4277 42.5588 25.1637C41.7548 24.8877 41.0708 24.6057 40.5068 24.3177C39.9548 24.0297 39.4868 23.6397 39.1028 23.1477C38.7308 22.6437 38.5448 22.0257 38.5448 21.2937C38.5448 20.5737 38.7308 19.9437 39.1028 19.4037C39.4748 18.8637 39.9908 18.4497 40.6508 18.1617C41.3108 17.8737 42.0728 17.7297 42.9368 17.7297C43.8488 17.7297 44.6588 17.8917 45.3668 18.2157C46.0868 18.5397 46.6448 18.9957 47.0408 19.5837C47.4488 20.1597 47.6528 20.8317 47.6528 21.5997V21.8697C47.6528 21.9297 47.6288 21.9837 47.5808 22.0317C47.5448 22.0677 47.4968 22.0857 47.4368 22.0857H45.3668C45.3068 22.0857 45.2528 22.0677 45.2048 22.0317C45.1688 21.9837 45.1508 21.9297 45.1508 21.8697V21.7257C45.1508 21.2217 44.9408 20.7957 44.5208 20.4477C44.1128 20.0877 43.5488 19.9077 42.8288 19.9077C42.2648 19.9077 41.8208 20.0277 41.4968 20.2677C41.1848 20.5077 41.0288 20.8377 41.0288 21.2577C41.0288 21.5577 41.1188 21.8097 41.2988 22.0137C41.4908 22.2177 41.7668 22.4037 42.1268 22.5717C42.4988 22.7277 43.0688 22.9437 43.8368 23.2197C44.6888 23.5317 45.3548 23.8077 45.8348 24.0477C46.3268 24.2877 46.7648 24.6477 47.1488 25.1277C47.5448 25.5957 47.7428 26.2077 47.7428 26.9637C47.7428 28.0917 47.3288 28.9857 46.5008 29.6457C45.6728 30.2937 44.5508 30.6177 43.1348 30.6177ZM53.9479 30.6177C53.0119 30.6177 52.1899 30.4377 51.4819 30.0777C50.7739 29.7057 50.2279 29.1897 49.8439 28.5297C49.4599 27.8697 49.2679 27.1077 49.2679 26.2437V22.0857C49.2679 21.2217 49.4599 20.4597 49.8439 19.7997C50.2279 19.1397 50.7739 18.6297 51.4819 18.2697C52.1899 17.9097 53.0119 17.7297 53.9479 17.7297C54.8719 17.7297 55.6819 17.9037 56.3779 18.2517C57.0859 18.5877 57.6319 19.0737 58.0159 19.7097C58.4119 20.3337 58.6099 21.0597 58.6099 21.8877C58.6099 21.9957 58.5379 22.0617 58.3939 22.0857L56.2879 22.2117H56.2519C56.1319 22.2117 56.0719 22.1457 56.0719 22.0137C56.0719 21.3777 55.8739 20.8677 55.4779 20.4837C55.0939 20.0997 54.5839 19.9077 53.9479 19.9077C53.2999 19.9077 52.7779 20.0997 52.3819 20.4837C51.9979 20.8677 51.8059 21.3777 51.8059 22.0137V26.3517C51.8059 26.9757 51.9979 27.4797 52.3819 27.8637C52.7779 28.2477 53.2999 28.4397 53.9479 28.4397C54.5839 28.4397 55.0939 28.2477 55.4779 27.8637C55.8739 27.4797 56.0719 26.9757 56.0719 26.3517C56.0719 26.2197 56.1439 26.1537 56.2879 26.1537L58.3939 26.2437C58.4539 26.2437 58.5019 26.2617 58.5379 26.2977C58.5859 26.3337 58.6099 26.3757 58.6099 26.4237C58.6099 27.2517 58.4119 27.9837 58.0159 28.6197C57.6319 29.2557 57.0859 29.7477 56.3779 30.0957C55.6819 30.4437 54.8719 30.6177 53.9479 30.6177ZM68.1998 30.4737C68.0798 30.4737 68.0018 30.4137 67.9658 30.2937L67.4258 28.5297C67.4018 28.4817 67.3718 28.4577 67.3358 28.4577H62.9078C62.8718 28.4577 62.8418 28.4817 62.8178 28.5297L62.2958 30.2937C62.2598 30.4137 62.1818 30.4737 62.0618 30.4737H59.7758C59.7038 30.4737 59.6498 30.4557 59.6138 30.4197C59.5778 30.3717 59.5718 30.3057 59.5958 30.2217L63.4838 18.0537C63.5198 17.9337 63.5978 17.8737 63.7178 17.8737H66.5438C66.6638 17.8737 66.7418 17.9337 66.7778 18.0537L70.6658 30.2217C70.6778 30.2457 70.6838 30.2757 70.6838 30.3117C70.6838 30.4197 70.6178 30.4737 70.4858 30.4737H68.1998ZM63.4658 26.3877C63.4538 26.4597 63.4778 26.4957 63.5378 26.4957H66.7058C66.7778 26.4957 66.8018 26.4597 66.7778 26.3877L65.1578 21.0417C65.1458 20.9937 65.1278 20.9757 65.1038 20.9877C65.0798 20.9877 65.0618 21.0057 65.0498 21.0417L63.4658 26.3877ZM79.178 30.4737C79.058 30.4737 78.974 30.4197 78.926 30.3117L76.676 25.3257C76.652 25.2777 76.616 25.2537 76.568 25.2537H74.894C74.834 25.2537 74.804 25.2837 74.804 25.3437V30.2577C74.804 30.3177 74.78 30.3717 74.732 30.4197C74.696 30.4557 74.648 30.4737 74.588 30.4737H72.482C72.422 30.4737 72.368 30.4557 72.32 30.4197C72.284 30.3717 72.266 30.3177 72.266 30.2577V18.0897C72.266 18.0297 72.284 17.9817 72.32 17.9457C72.368 17.8977 72.422 17.8737 72.482 17.8737H77.63C78.398 17.8737 79.07 18.0297 79.646 18.3417C80.234 18.6537 80.684 19.0977 80.996 19.6737C81.32 20.2497 81.482 20.9157 81.482 21.6717C81.482 22.4877 81.278 23.1897 80.87 23.7777C80.462 24.3537 79.892 24.7617 79.16 25.0017C79.1 25.0257 79.082 25.0677 79.106 25.1277L81.554 30.2217C81.578 30.2697 81.59 30.3057 81.59 30.3297C81.59 30.4257 81.524 30.4737 81.392 30.4737H79.178ZM74.894 20.0517C74.834 20.0517 74.804 20.0817 74.804 20.1417V23.2197C74.804 23.2797 74.834 23.3097 74.894 23.3097H77.252C77.756 23.3097 78.164 23.1597 78.476 22.8597C78.8 22.5597 78.962 22.1697 78.962 21.6897C78.962 21.2097 78.8 20.8197 78.476 20.5197C78.164 20.2077 77.756 20.0517 77.252 20.0517H74.894ZM87.7506 30.6177C86.8266 30.6177 86.0106 30.4317 85.3026 30.0597C84.5946 29.6877 84.0426 29.1717 83.6466 28.5117C83.2626 27.8397 83.0706 27.0657 83.0706 26.1897V22.1577C83.0706 21.2817 83.2626 20.5077 83.6466 19.8357C84.0426 19.1637 84.5946 18.6477 85.3026 18.2877C86.0106 17.9157 86.8266 17.7297 87.7506 17.7297C88.6626 17.7297 89.4666 17.9097 90.1626 18.2697C90.8706 18.6297 91.4166 19.1217 91.8006 19.7457C92.1966 20.3577 92.3946 21.0417 92.3946 21.7977V21.9237C92.3946 21.9837 92.3706 22.0377 92.3226 22.0857C92.2866 22.1217 92.2386 22.1397 92.1786 22.1397H90.0726C90.0126 22.1397 89.9586 22.1217 89.9106 22.0857C89.8746 22.0377 89.8566 21.9837 89.8566 21.9237V21.8697C89.8566 21.3177 89.6646 20.8557 89.2806 20.4837C88.8966 20.0997 88.3866 19.9077 87.7506 19.9077C87.1026 19.9077 86.5806 20.1117 86.1846 20.5197C85.8006 20.9157 85.6086 21.4377 85.6086 22.0857V26.2617C85.6086 26.9097 85.8186 27.4377 86.2386 27.8457C86.6586 28.2417 87.1926 28.4397 87.8406 28.4397C88.4646 28.4397 88.9626 28.2777 89.3346 27.9537C89.7066 27.6177 89.8926 27.1557 89.8926 26.5677V25.7577C89.8926 25.6977 89.8626 25.6677 89.8026 25.6677H87.7866C87.7266 25.6677 87.6726 25.6497 87.6246 25.6137C87.5886 25.5657 87.5706 25.5117 87.5706 25.4517V23.7957C87.5706 23.7357 87.5886 23.6877 87.6246 23.6517C87.6726 23.6037 87.7266 23.5797 87.7866 23.5797H92.1786C92.2386 23.5797 92.2866 23.6037 92.3226 23.6517C92.3706 23.6877 92.3946 23.7357 92.3946 23.7957V26.1717C92.3946 27.0837 92.2026 27.8757 91.8186 28.5477C91.4346 29.2197 90.8886 29.7357 90.1806 30.0957C89.4846 30.4437 88.6746 30.6177 87.7506 30.6177ZM102.073 30.4737C101.953 30.4737 101.875 30.4137 101.839 30.2937L101.299 28.5297C101.275 28.4817 101.245 28.4577 101.209 28.4577H96.7808C96.7448 28.4577 96.7148 28.4817 96.6908 28.5297L96.1688 30.2937C96.1328 30.4137 96.0548 30.4737 95.9348 30.4737H93.6488C93.5768 30.4737 93.5228 30.4557 93.4868 30.4197C93.4508 30.3717 93.4448 30.3057 93.4688 30.2217L97.3568 18.0537C97.3928 17.9337 97.4708 17.8737 97.5908 17.8737H100.417C100.537 17.8737 100.615 17.9337 100.651 18.0537L104.539 30.2217C104.551 30.2457 104.557 30.2757 104.557 30.3117C104.557 30.4197 104.491 30.4737 104.359 30.4737H102.073ZM97.3388 26.3877C97.3268 26.4597 97.3508 26.4957 97.4108 26.4957H100.579C100.651 26.4957 100.675 26.4597 100.651 26.3877L99.0308 21.0417C99.0188 20.9937 99.0008 20.9757 98.9768 20.9877C98.9528 20.9877 98.9348 21.0057 98.9228 21.0417L97.3388 26.3877ZM116.979 18.0897C116.979 18.0297 116.997 17.9817 117.033 17.9457C117.081 17.8977 117.135 17.8737 117.195 17.8737H119.301C119.361 17.8737 119.409 17.8977 119.445 17.9457C119.493 17.9817 119.517 18.0297 119.517 18.0897V30.2577C119.517 30.3177 119.493 30.3717 119.445 30.4197C119.409 30.4557 119.361 30.4737 119.301 30.4737H117.267C117.147 30.4737 117.063 30.4257 117.015 30.3297L112.353 22.6257C112.329 22.5897 112.305 22.5777 112.281 22.5897C112.257 22.5897 112.245 22.6137 112.245 22.6617L112.281 30.2577C112.281 30.3177 112.257 30.3717 112.209 30.4197C112.173 30.4557 112.125 30.4737 112.065 30.4737H109.959C109.899 30.4737 109.845 30.4557 109.797 30.4197C109.761 30.3717 109.743 30.3177 109.743 30.2577V18.0897C109.743 18.0297 109.761 17.9817 109.797 17.9457C109.845 17.8977 109.899 17.8737 109.959 17.8737H111.993C112.113 17.8737 112.197 17.9217 112.245 18.0177L116.889 25.6857C116.913 25.7217 116.937 25.7397 116.961 25.7397C116.985 25.7277 116.997 25.6977 116.997 25.6497L116.979 18.0897ZM126.285 30.6177C125.361 30.6177 124.545 30.4377 123.837 30.0777C123.141 29.7177 122.595 29.2137 122.199 28.5657C121.815 27.9057 121.623 27.1497 121.623 26.2977V18.0897C121.623 18.0297 121.641 17.9817 121.677 17.9457C121.725 17.8977 121.779 17.8737 121.839 17.8737H123.945C124.005 17.8737 124.053 17.8977 124.089 17.9457C124.137 17.9817 124.161 18.0297 124.161 18.0897V26.3157C124.161 26.9517 124.353 27.4677 124.737 27.8637C125.133 28.2477 125.649 28.4397 126.285 28.4397C126.921 28.4397 127.431 28.2477 127.815 27.8637C128.211 27.4677 128.409 26.9517 128.409 26.3157V18.0897C128.409 18.0297 128.427 17.9817 128.463 17.9457C128.511 17.8977 128.565 17.8737 128.625 17.8737H130.731C130.791 17.8737 130.839 17.8977 130.875 17.9457C130.923 17.9817 130.947 18.0297 130.947 18.0897V26.2977C130.947 27.1497 130.749 27.9057 130.353 28.5657C129.969 29.2137 129.423 29.7177 128.715 30.0777C128.019 30.4377 127.209 30.6177 126.285 30.6177ZM141.782 19.8357C141.782 19.8957 141.758 19.9497 141.71 19.9977C141.674 20.0337 141.626 20.0517 141.566 20.0517H135.662C135.602 20.0517 135.572 20.0817 135.572 20.1417V22.9317C135.572 22.9917 135.602 23.0217 135.662 23.0217H139.532C139.592 23.0217 139.64 23.0457 139.676 23.0937C139.724 23.1297 139.748 23.1777 139.748 23.2377V24.9837C139.748 25.0437 139.724 25.0977 139.676 25.1457C139.64 25.1817 139.592 25.1997 139.532 25.1997H135.662C135.602 25.1997 135.572 25.2297 135.572 25.2897V28.2057C135.572 28.2657 135.602 28.2957 135.662 28.2957H141.566C141.626 28.2957 141.674 28.3197 141.71 28.3677C141.758 28.4037 141.782 28.4517 141.782 28.5117V30.2577C141.782 30.3177 141.758 30.3717 141.71 30.4197C141.674 30.4557 141.626 30.4737 141.566 30.4737H133.25C133.19 30.4737 133.136 30.4557 133.088 30.4197C133.052 30.3717 133.034 30.3177 133.034 30.2577V18.0897C133.034 18.0297 133.052 17.9817 133.088 17.9457C133.136 17.8977 133.19 17.8737 133.25 17.8737H141.566C141.626 17.8737 141.674 17.8977 141.71 17.9457C141.758 17.9817 141.782 18.0297 141.782 18.0897V19.8357ZM147.865 30.6177C146.905 30.6177 146.065 30.4677 145.345 30.1677C144.625 29.8557 144.067 29.4177 143.671 28.8537C143.287 28.2777 143.095 27.6117 143.095 26.8557V26.4597C143.095 26.3997 143.113 26.3517 143.149 26.3157C143.197 26.2677 143.251 26.2437 143.311 26.2437H145.363C145.423 26.2437 145.471 26.2677 145.507 26.3157C145.555 26.3517 145.579 26.3997 145.579 26.4597V26.7297C145.579 27.2097 145.801 27.6177 146.245 27.9537C146.689 28.2777 147.289 28.4397 148.045 28.4397C148.681 28.4397 149.155 28.3077 149.467 28.0437C149.779 27.7677 149.935 27.4317 149.935 27.0357C149.935 26.7477 149.839 26.5077 149.647 26.3157C149.455 26.1117 149.191 25.9377 148.855 25.7937C148.531 25.6377 148.009 25.4277 147.289 25.1637C146.485 24.8877 145.801 24.6057 145.237 24.3177C144.685 24.0297 144.217 23.6397 143.833 23.1477C143.461 22.6437 143.275 22.0257 143.275 21.2937C143.275 20.5737 143.461 19.9437 143.833 19.4037C144.205 18.8637 144.721 18.4497 145.381 18.1617C146.041 17.8737 146.803 17.7297 147.667 17.7297C148.579 17.7297 149.389 17.8917 150.097 18.2157C150.817 18.5397 151.375 18.9957 151.771 19.5837C152.179 20.1597 152.383 20.8317 152.383 21.5997V21.8697C152.383 21.9297 152.359 21.9837 152.311 22.0317C152.275 22.0677 152.227 22.0857 152.167 22.0857H150.097C150.037 22.0857 149.983 22.0677 149.935 22.0317C149.899 21.9837 149.881 21.9297 149.881 21.8697V21.7257C149.881 21.2217 149.671 20.7957 149.251 20.4477C148.843 20.0877 148.279 19.9077 147.559 19.9077C146.995 19.9077 146.551 20.0277 146.227 20.2677C145.915 20.5077 145.759 20.8377 145.759 21.2577C145.759 21.5577 145.849 21.8097 146.029 22.0137C146.221 22.2177 146.497 22.4037 146.857 22.5717C147.229 22.7277 147.799 22.9437 148.567 23.2197C149.419 23.5317 150.085 23.8077 150.565 24.0477C151.057 24.2877 151.495 24.6477 151.879 25.1277C152.275 25.5957 152.473 26.2077 152.473 26.9637C152.473 28.0917 152.059 28.9857 151.231 29.6457C150.403 30.2937 149.281 30.6177 147.865 30.6177ZM162.804 17.8737C162.864 17.8737 162.912 17.8977 162.948 17.9457C162.996 17.9817 163.02 18.0297 163.02 18.0897V19.8537C163.02 19.9137 162.996 19.9677 162.948 20.0157C162.912 20.0517 162.864 20.0697 162.804 20.0697H159.582C159.522 20.0697 159.492 20.0997 159.492 20.1597V30.2577C159.492 30.3177 159.468 30.3717 159.42 30.4197C159.384 30.4557 159.336 30.4737 159.276 30.4737H157.17C157.11 30.4737 157.056 30.4557 157.008 30.4197C156.972 30.3717 156.954 30.3177 156.954 30.2577V20.1597C156.954 20.0997 156.924 20.0697 156.864 20.0697H153.732C153.672 20.0697 153.618 20.0517 153.57 20.0157C153.534 19.9677 153.516 19.9137 153.516 19.8537V18.0897C153.516 18.0297 153.534 17.9817 153.57 17.9457C153.618 17.8977 153.672 17.8737 153.732 17.8737H162.804ZM171.551 30.4737C171.431 30.4737 171.347 30.4197 171.299 30.3117L169.049 25.3257C169.025 25.2777 168.989 25.2537 168.941 25.2537H167.267C167.207 25.2537 167.177 25.2837 167.177 25.3437V30.2577C167.177 30.3177 167.153 30.3717 167.105 30.4197C167.069 30.4557 167.021 30.4737 166.961 30.4737H164.855C164.795 30.4737 164.741 30.4557 164.693 30.4197C164.657 30.3717 164.639 30.3177 164.639 30.2577V18.0897C164.639 18.0297 164.657 17.9817 164.693 17.9457C164.741 17.8977 164.795 17.8737 164.855 17.8737H170.003C170.771 17.8737 171.443 18.0297 172.019 18.3417C172.607 18.6537 173.057 19.0977 173.369 19.6737C173.693 20.2497 173.855 20.9157 173.855 21.6717C173.855 22.4877 173.651 23.1897 173.243 23.7777C172.835 24.3537 172.265 24.7617 171.533 25.0017C171.473 25.0257 171.455 25.0677 171.479 25.1277L173.927 30.2217C173.951 30.2697 173.963 30.3057 173.963 30.3297C173.963 30.4257 173.897 30.4737 173.765 30.4737H171.551ZM167.267 20.0517C167.207 20.0517 167.177 20.0817 167.177 20.1417V23.2197C167.177 23.2797 167.207 23.3097 167.267 23.3097H169.625C170.129 23.3097 170.537 23.1597 170.849 22.8597C171.173 22.5597 171.335 22.1697 171.335 21.6897C171.335 21.2097 171.173 20.8197 170.849 20.5197C170.537 20.2077 170.129 20.0517 169.625 20.0517H167.267ZM180.178 30.6717C179.242 30.6717 178.414 30.4797 177.694 30.0957C176.986 29.7117 176.434 29.1777 176.038 28.4937C175.642 27.7977 175.444 26.9997 175.444 26.0997V22.2477C175.444 21.3597 175.642 20.5737 176.038 19.8897C176.434 19.2057 176.986 18.6777 177.694 18.3057C178.414 17.9217 179.242 17.7297 180.178 17.7297C181.126 17.7297 181.954 17.9217 182.662 18.3057C183.382 18.6777 183.94 19.2057 184.336 19.8897C184.732 20.5737 184.93 21.3597 184.93 22.2477V26.0997C184.93 26.9997 184.732 27.7977 184.336 28.4937C183.94 29.1897 183.382 29.7297 182.662 30.1137C181.954 30.4857 181.126 30.6717 180.178 30.6717ZM180.178 28.4937C180.838 28.4937 181.372 28.2837 181.78 27.8637C182.188 27.4437 182.392 26.8857 182.392 26.1897V22.2297C182.392 21.5337 182.188 20.9757 181.78 20.5557C181.384 20.1237 180.85 19.9077 180.178 19.9077C179.518 19.9077 178.984 20.1237 178.576 20.5557C178.18 20.9757 177.982 21.5337 177.982 22.2297V26.1897C177.982 26.8857 178.18 27.4437 178.576 27.8637C178.984 28.2837 179.518 28.4937 180.178 28.4937ZM197.949 23.9037C197.877 23.9397 197.877 23.9757 197.949 24.0117C199.089 24.5997 199.659 25.5777 199.659 26.9457C199.659 28.1097 199.263 28.9917 198.471 29.5917C197.679 30.1797 196.641 30.4737 195.357 30.4737H190.695C190.635 30.4737 190.581 30.4557 190.533 30.4197C190.497 30.3717 190.479 30.3177 190.479 30.2577V18.0897C190.479 18.0297 190.497 17.9817 190.533 17.9457C190.581 17.8977 190.635 17.8737 190.695 17.8737H195.213C198.057 17.8737 199.479 19.0257 199.479 21.3297C199.479 22.5297 198.969 23.3877 197.949 23.9037ZM193.107 20.0517C193.047 20.0517 193.017 20.0817 193.017 20.1417V22.9497C193.017 23.0097 193.047 23.0397 193.107 23.0397H195.213C195.777 23.0397 196.215 22.9077 196.527 22.6437C196.839 22.3797 196.995 22.0197 196.995 21.5637C196.995 21.0957 196.839 20.7297 196.527 20.4657C196.215 20.1897 195.777 20.0517 195.213 20.0517H193.107ZM195.357 28.2777C195.909 28.2777 196.341 28.1397 196.653 27.8637C196.965 27.5757 197.121 27.1857 197.121 26.6937C197.121 26.2017 196.965 25.8177 196.653 25.5417C196.341 25.2537 195.903 25.1097 195.339 25.1097H193.107C193.047 25.1097 193.017 25.1397 193.017 25.1997V28.1877C193.017 28.2477 193.047 28.2777 193.107 28.2777H195.357ZM208.553 30.4737C208.433 30.4737 208.349 30.4197 208.301 30.3117L206.051 25.3257C206.027 25.2777 205.991 25.2537 205.943 25.2537H204.269C204.209 25.2537 204.179 25.2837 204.179 25.3437V30.2577C204.179 30.3177 204.155 30.3717 204.107 30.4197C204.071 30.4557 204.023 30.4737 203.963 30.4737H201.857C201.797 30.4737 201.743 30.4557 201.695 30.4197C201.659 30.3717 201.641 30.3177 201.641 30.2577V18.0897C201.641 18.0297 201.659 17.9817 201.695 17.9457C201.743 17.8977 201.797 17.8737 201.857 17.8737H207.005C207.773 17.8737 208.445 18.0297 209.021 18.3417C209.609 18.6537 210.059 19.0977 210.371 19.6737C210.695 20.2497 210.857 20.9157 210.857 21.6717C210.857 22.4877 210.653 23.1897 210.245 23.7777C209.837 24.3537 209.267 24.7617 208.535 25.0017C208.475 25.0257 208.457 25.0677 208.481 25.1277L210.929 30.2217C210.953 30.2697 210.965 30.3057 210.965 30.3297C210.965 30.4257 210.899 30.4737 210.767 30.4737H208.553ZM204.269 20.0517C204.209 20.0517 204.179 20.0817 204.179 20.1417V23.2197C204.179 23.2797 204.209 23.3097 204.269 23.3097H206.627C207.131 23.3097 207.539 23.1597 207.851 22.8597C208.175 22.5597 208.337 22.1697 208.337 21.6897C208.337 21.2097 208.175 20.8197 207.851 20.5197C207.539 20.2077 207.131 20.0517 206.627 20.0517H204.269ZM217.18 30.6717C216.244 30.6717 215.416 30.4797 214.696 30.0957C213.988 29.7117 213.436 29.1777 213.04 28.4937C212.644 27.7977 212.446 26.9997 212.446 26.0997V22.2477C212.446 21.3597 212.644 20.5737 213.04 19.8897C213.436 19.2057 213.988 18.6777 214.696 18.3057C215.416 17.9217 216.244 17.7297 217.18 17.7297C218.128 17.7297 218.956 17.9217 219.664 18.3057C220.384 18.6777 220.942 19.2057 221.338 19.8897C221.734 20.5737 221.932 21.3597 221.932 22.2477V26.0997C221.932 26.9997 221.734 27.7977 221.338 28.4937C220.942 29.1897 220.384 29.7297 219.664 30.1137C218.956 30.4857 218.128 30.6717 217.18 30.6717ZM217.18 28.4937C217.84 28.4937 218.374 28.2837 218.782 27.8637C219.19 27.4437 219.394 26.8857 219.394 26.1897V22.2297C219.394 21.5337 219.19 20.9757 218.782 20.5557C218.386 20.1237 217.852 19.9077 217.18 19.9077C216.52 19.9077 215.986 20.1237 215.578 20.5557C215.182 20.9757 214.984 21.5337 214.984 22.2297V26.1897C214.984 26.8857 215.182 27.4437 215.578 27.8637C215.986 28.2837 216.52 28.4937 217.18 28.4937ZM228.305 30.6177C227.369 30.6177 226.547 30.4377 225.839 30.0777C225.131 29.7057 224.585 29.1897 224.201 28.5297C223.817 27.8697 223.625 27.1077 223.625 26.2437V22.0857C223.625 21.2217 223.817 20.4597 224.201 19.7997C224.585 19.1397 225.131 18.6297 225.839 18.2697C226.547 17.9097 227.369 17.7297 228.305 17.7297C229.229 17.7297 230.039 17.9037 230.735 18.2517C231.443 18.5877 231.989 19.0737 232.373 19.7097C232.769 20.3337 232.967 21.0597 232.967 21.8877C232.967 21.9957 232.895 22.0617 232.751 22.0857L230.645 22.2117H230.609C230.489 22.2117 230.429 22.1457 230.429 22.0137C230.429 21.3777 230.231 20.8677 229.835 20.4837C229.451 20.0997 228.941 19.9077 228.305 19.9077C227.657 19.9077 227.135 20.0997 226.739 20.4837C226.355 20.8677 226.163 21.3777 226.163 22.0137V26.3517C226.163 26.9757 226.355 27.4797 226.739 27.8637C227.135 28.2477 227.657 28.4397 228.305 28.4397C228.941 28.4397 229.451 28.2477 229.835 27.8637C230.231 27.4797 230.429 26.9757 230.429 26.3517C230.429 26.2197 230.501 26.1537 230.645 26.1537L232.751 26.2437C232.811 26.2437 232.859 26.2617 232.895 26.2977C232.943 26.3337 232.967 26.3757 232.967 26.4237C232.967 27.2517 232.769 27.9837 232.373 28.6197C231.989 29.2557 231.443 29.7477 230.735 30.0957C230.039 30.4437 229.229 30.6177 228.305 30.6177ZM241.524 18.0897C241.524 18.0297 241.542 17.9817 241.578 17.9457C241.626 17.8977 241.68 17.8737 241.74 17.8737H243.846C243.906 17.8737 243.954 17.8977 243.99 17.9457C244.038 17.9817 244.062 18.0297 244.062 18.0897V30.2577C244.062 30.3177 244.038 30.3717 243.99 30.4197C243.954 30.4557 243.906 30.4737 243.846 30.4737H241.74C241.68 30.4737 241.626 30.4557 241.578 30.4197C241.542 30.3717 241.524 30.3177 241.524 30.2577V25.2897C241.524 25.2297 241.494 25.1997 241.434 25.1997H237.456C237.396 25.1997 237.366 25.2297 237.366 25.2897V30.2577C237.366 30.3177 237.342 30.3717 237.294 30.4197C237.258 30.4557 237.21 30.4737 237.15 30.4737H235.044C234.984 30.4737 234.93 30.4557 234.882 30.4197C234.846 30.3717 234.828 30.3177 234.828 30.2577V18.0897C234.828 18.0297 234.846 17.9817 234.882 17.9457C234.93 17.8977 234.984 17.8737 235.044 17.8737H237.15C237.21 17.8737 237.258 17.8977 237.294 17.9457C237.342 17.9817 237.366 18.0297 237.366 18.0897V22.9317C237.366 22.9917 237.396 23.0217 237.456 23.0217H241.434C241.494 23.0217 241.524 22.9917 241.524 22.9317V18.0897ZM250.703 30.6177C249.779 30.6177 248.963 30.4377 248.255 30.0777C247.559 29.7177 247.013 29.2137 246.617 28.5657C246.233 27.9057 246.041 27.1497 246.041 26.2977V18.0897C246.041 18.0297 246.059 17.9817 246.095 17.9457C246.143 17.8977 246.197 17.8737 246.257 17.8737H248.363C248.423 17.8737 248.471 17.8977 248.507 17.9457C248.555 17.9817 248.579 18.0297 248.579 18.0897V26.3157C248.579 26.9517 248.771 27.4677 249.155 27.8637C249.551 28.2477 250.067 28.4397 250.703 28.4397C251.339 28.4397 251.849 28.2477 252.233 27.8637C252.629 27.4677 252.827 26.9517 252.827 26.3157V18.0897C252.827 18.0297 252.845 17.9817 252.881 17.9457C252.929 17.8977 252.983 17.8737 253.043 17.8737H255.149C255.209 17.8737 255.257 17.8977 255.293 17.9457C255.341 17.9817 255.365 18.0297 255.365 18.0897V26.2977C255.365 27.1497 255.167 27.9057 254.771 28.5657C254.387 29.2137 253.841 29.7177 253.133 30.0777C252.437 30.4377 251.627 30.6177 250.703 30.6177ZM264.364 30.4737C264.244 30.4737 264.16 30.4197 264.112 30.3117L261.862 25.3257C261.838 25.2777 261.802 25.2537 261.754 25.2537H260.08C260.02 25.2537 259.99 25.2837 259.99 25.3437V30.2577C259.99 30.3177 259.966 30.3717 259.918 30.4197C259.882 30.4557 259.834 30.4737 259.774 30.4737H257.668C257.608 30.4737 257.554 30.4557 257.506 30.4197C257.47 30.3717 257.452 30.3177 257.452 30.2577V18.0897C257.452 18.0297 257.47 17.9817 257.506 17.9457C257.554 17.8977 257.608 17.8737 257.668 17.8737H262.816C263.584 17.8737 264.256 18.0297 264.832 18.3417C265.42 18.6537 265.87 19.0977 266.182 19.6737C266.506 20.2497 266.668 20.9157 266.668 21.6717C266.668 22.4877 266.464 23.1897 266.056 23.7777C265.648 24.3537 265.078 24.7617 264.346 25.0017C264.286 25.0257 264.268 25.0677 264.292 25.1277L266.74 30.2217C266.764 30.2697 266.776 30.3057 266.776 30.3297C266.776 30.4257 266.71 30.4737 266.578 30.4737H264.364ZM260.08 20.0517C260.02 20.0517 259.99 20.0817 259.99 20.1417V23.2197C259.99 23.2797 260.02 23.3097 260.08 23.3097H262.438C262.942 23.3097 263.35 23.1597 263.662 22.8597C263.986 22.5597 264.148 22.1697 264.148 21.6897C264.148 21.2097 263.986 20.8197 263.662 20.5197C263.35 20.2077 262.942 20.0517 262.438 20.0517H260.08ZM277.256 19.8357C277.256 19.8957 277.232 19.9497 277.184 19.9977C277.148 20.0337 277.1 20.0517 277.04 20.0517H271.136C271.076 20.0517 271.046 20.0817 271.046 20.1417V22.9317C271.046 22.9917 271.076 23.0217 271.136 23.0217H275.006C275.066 23.0217 275.114 23.0457 275.15 23.0937C275.198 23.1297 275.222 23.1777 275.222 23.2377V24.9837C275.222 25.0437 275.198 25.0977 275.15 25.1457C275.114 25.1817 275.066 25.1997 275.006 25.1997H271.136C271.076 25.1997 271.046 25.2297 271.046 25.2897V28.2057C271.046 28.2657 271.076 28.2957 271.136 28.2957H277.04C277.1 28.2957 277.148 28.3197 277.184 28.3677C277.232 28.4037 277.256 28.4517 277.256 28.5117V30.2577C277.256 30.3177 277.232 30.3717 277.184 30.4197C277.148 30.4557 277.1 30.4737 277.04 30.4737H268.724C268.664 30.4737 268.61 30.4557 268.562 30.4197C268.526 30.3717 268.508 30.3177 268.508 30.2577V18.0897C268.508 18.0297 268.526 17.9817 268.562 17.9457C268.61 17.8977 268.664 17.8737 268.724 17.8737H277.04C277.1 17.8737 277.148 17.8977 277.184 17.9457C277.232 17.9817 277.256 18.0297 277.256 18.0897V19.8357Z" fill="white"/>
</svg>
