<svg id="Capa_1" xmlns="http://www.w3.org/2000/svg" xmlns:xlink="http://www.w3.org/1999/xlink" viewBox="0 0 500 500" style="enable-background:new 0 0 500 500"><style>.st0{fill:#d2bf60}.st1{font-family:arial-boldmt}.st2{font-size:26px}.st3{font-family:arialmt}.st4{font-size:15px}.st5{font-size:23px}.st6{fill:none;stroke:#bdc4c2;stroke-width:2;stroke-miterlimit:10}</style><g id="MTEXT_1_"><text transform="matrix(1 0 0 1 184.4338 164.9463)" class="st0 st1 st2">LOTE 104</text></g><g id="MTEXT_1045_"><g><text transform="matrix(0 1 -1 0 336.8438 240.7426)" class="st3 st4">30.00</text></g></g><g id="MTEXT_1043_"><g><text transform="matrix(1 0 0 1 214.7098 107.1148)" class="st3 st4">20.64</text></g></g><g id="MTEXT_3_"><g><text transform="matrix(1 0 0 1 314.7098 416.1148)" class="st3 st4">4.44</text></g></g><g id="MTEXT_1034_"><g><text transform="matrix(0 1 -1 0 140.9863 236.75)" class="st3 st4">24.23</text></g></g><g id="MTEXT_1030_"><g><text transform="matrix(0.9512 0.3087 -0.3087 0.9512 194.6724 341.5876)" class="st3 st4">17.08</text></g></g><g id="MTEXT_2_"><g><text transform="matrix(0.6607 0.7506 -0.7506 0.6607 269.6383 369.4518)" class="st3 st4">1.25</text></g></g><text transform="matrix(1 0 0 1 208.0634 189.6484)" class="st1 st5">541 m</text><text transform="matrix(0.583 0 0 0.583 273.2787 181.9893)" class="st1 st5">2</text><g id="HATCH_957_"><path class="st6" d="M311.1 422.6c-4.2-2.3-7.8-5.5-10.7-9.3-40.2-53.1-109.2-75.6-173-56.1V82.4h234v340.2H311.1v0z"/></g></svg>