<svg id="Capa_1" xmlns="http://www.w3.org/2000/svg" xmlns:xlink="http://www.w3.org/1999/xlink" viewBox="0 0 500 500" style="enable-background:new 0 0 500 500"><style>.st0{fill:#d2bf60}.st1{font-family:arial-boldmt}.st2{font-size:26px}.st3{font-family:arialmt}.st4{font-size:15px}.st5{font-size:23px}.st6{fill:none;stroke:#bdc4c2;stroke-width:2;stroke-miterlimit:10}</style><g id="MTEXT_1_"><text transform="matrix(1 0 0 1 203.0336 128.9917)" class="st0 st1 st2">LOTE 105</text></g><g id="MTEXT_1035_"><g><text transform="matrix(1 0 0 1 229.0137 58.9775)" class="st3 st4">20.64</text></g></g><g id="MTEXT_2_"><g><text transform="matrix(0 1 -1 0 345.5879 191.9664)" class="st3 st4">24.23</text></g></g><g id="MTEXT_1033_"><g><text transform="matrix(0.9997 -2.387150e-02 2.387150e-02 0.9997 223.5932 428.3436)" class="st3 st4">2.65</text></g></g><g id="MTEXT_1032_"><g><text transform="matrix(0.1675 0.9859 -0.9859 0.1675 180.6532 211.4978)" class="st3 st4">38.48</text></g></g><g id="MTEXT_1031_"><g><text transform="matrix(0.67 -0.7424 0.7424 0.67 276.9411 367.6096)" class="st3 st4">17.85</text></g></g><text transform="matrix(1 0 0 1 226.6632 155.8516)" class="st1 st5">527 m</text><text transform="matrix(0.583 0 0 0.583 291.8785 148.1924)" class="st1 st5">2</text><g id="HATCH_956_"><path class="st6" d="M254.6 463.3h-30L133 36.7h234v274.8C300.2 331.8 254.6 393.5 254.6 463.3v0z"/></g></svg>