<svg id="Capa_1" xmlns="http://www.w3.org/2000/svg" xmlns:xlink="http://www.w3.org/1999/xlink" viewBox="0 0 500 500" style="enable-background:new 0 0 500 500"><style>.st0{fill:#d2bf60}.st1{font-family:arial-boldmt}.st2{font-size:26px}.st3{font-family:arialmt}.st4{font-size:15px}.st5{font-size:28px}.st6{fill:none;stroke:#bdc4c2;stroke-width:2;stroke-miterlimit:10}</style><g id="MTEXT_3_"><text transform="matrix(1 0 0 1 190.0336 232.8997)" class="st0 st1 st2">LOTE 106</text></g><g id="MTEXT_1215_"><g><text transform="matrix(1 5.750020e-03 -5.750020e-03 1 228.8919 480.7173)" class="st3 st4">18.33</text></g></g><g id="MTEXT_1133_"><g><text transform="matrix(1 0 0 1 308.942 83.3335)" class="st3 st4">2.00</text></g></g><g id="MTEXT_1107_"><g><text transform="matrix(0.8316 -0.5554 0.5554 0.8316 251.8304 164.5209)" class="st3 st4">23.42</text></g></g><g id="MTEXT_1019_"><g><text transform="matrix(0 1 -1 0 328.082 311.2509)" class="st3 st4">42.55</text></g></g><g id="MTEXT_1010_"><g><text transform="matrix(-5.000000e-05 1 -1 -5.000000e-05 157.9787 313.1709)" class="st3 st4">28.54</text></g></g><text transform="matrix(1 0 0 1 205.7641 258.9902)" class="st1 st5">586 m</text><text transform="matrix(0.583 0 0 0.583 285.1567 249.666)" class="st1 st5">2</text><g id="HATCH_977_"><path class="st6" d="M321 8.8c0 5.4-.3 10.8-.8 16.2-8.9 87.2-86.9 150.7-174.1 141.8v323.7l207.8.8L343.7 8.8H321v0z"
		/></g></svg>