<svg id="Capa_1" xmlns="http://www.w3.org/2000/svg" xmlns:xlink="http://www.w3.org/1999/xlink" viewBox="0 0 500 500" style="enable-background:new 0 0 500 500"><style>.st0{fill:#d2bf60}.st1{font-family:arial-boldmt}.st2{font-size:26px}.st3{font-family:arialmt}.st4{font-size:15px}.st5{font-size:12.0005px}.st6{font-size:12px}.st7{font-size:23px}.st8{fill:none;stroke:#bdc4c2;stroke-width:2;stroke-miterlimit:10}</style><g id="MTEXT_3_"><text transform="matrix(1 0 0 1 190.2836 195.1219)" class="st0 st1 st2">LOTE 107</text></g><g id="MTEXT_1158_"><g><text transform="matrix(1 3.720011e-03 -3.720011e-03 1 219.6416 440.3375)" class="st3 st4">14.00</text></g></g><g id="MTEXT_1106_"><g><text transform="matrix(0.8714 0.4906 -0.4906 0.8714 247.5418 117.2489)" class="st3 st4">11.50</text></g></g><g id="MTEXT_1105_"><g><text transform="matrix(0.8054 0.5928 -0.5928 0.8054 197.4226 62.2937)" class="st3 st5">2.77</text></g></g><g id="MTEXT_1104_"><g><text transform="matrix(0.9997 2.447178e-02 -2.447178e-02 0.9997 170.4527 61.1639)" class="st3 st6">1.86</text></g></g><g id="MTEXT_1_"><g><text transform="matrix(-5.000000e-05 1 -1 -5.000000e-05 306.7327 285.5056)" class="st3 st4">28.54</text></g></g><g id="MTEXT_1009_"><g><text transform="matrix(-1.200000e-04 1 -1 -1.200000e-04 180.8584 279.937)" class="st3 st4">35.17</text></g></g><text transform="matrix(1 0 0 1 213.9137 219.1816)" class="st1 st7">445 m</text><text transform="matrix(0.583 0 0 0.583 279.129 211.5224)" class="st1 st7">2</text><g id="HATCH_976_"><path class="st8" d="M170.9 50.2v399.1l158.7.6V126.1c-43.9-4.5-83.9-27-110.5-62.2-6.4-8.5-16.5-13.5-27.1-13.5L170.9 50.2v0z"/></g></svg>