<svg id="Capa_1" xmlns="http://www.w3.org/2000/svg" xmlns:xlink="http://www.w3.org/1999/xlink" viewBox="0 0 500 500" style="enable-background:new 0 0 500 500"><style>.st0{fill:#d2bf60}.st1{font-family:arial-boldmt}.st2{font-size:26px}.st3{font-family:arialmt}.st4{font-size:15px}.st5{fill:none;stroke:#bdc4c2;stroke-width:2;stroke-miterlimit:10}.st6{font-size:14.9995px}.st7{font-size:23px}</style><g id="MTEXT_16_"><text transform="matrix(1 0 0 1 222.5071 260.3146)" class="st0 st1 st2">LOTE 131</text></g><g id="MTEXT_1182_"><g><text transform="matrix(1 3.720011e-03 -3.720011e-03 1 270.3459 473.5176)" class="st3 st4">21.35</text></g></g><g id="MTEXT_1180_"><g><text transform="matrix(0.2098 0.9777 -0.9777 0.2098 133.0264 237.2695)" class="st3 st4">42.17</text></g></g><g id="MTEXT_1112_"><g><text transform="matrix(0.9999 -1.588199e-02 1.588199e-02 0.9999 232.9512 193.7452)" class="st3 st4">34.92</text></g></g><g id="MTEXT_1111_"><g><text transform="matrix(0.8044 -0.5941 0.5941 0.8044 394.4423 133.0767)" class="st3 st4">2.76</text></g></g><g id="HATCH_1044_"><path class="st5" d="M108.8 15.8h-30l100.3 467.5 242.1.9V98c-10.6.0-20.6 5-27 13.5-30 39.7-76.9 63-126.6 63C179.9 174.6 108.8 103.5 108.8 15.8v0z"/></g><g id="MTEXT_1033_"><g><text transform="matrix(0.9534 -0.3016 0.3016 0.9534 102.1495 111.4955)" class="st3 st6">2.65</text></g></g><g id="MTEXT_1_"><g><text transform="matrix(0 1 -1 0 400.8867 299.2844)" class="st3 st4">34.06</text></g></g><text transform="matrix(1 0 0 1 246.1369 286.8659)" class="st1 st7">754 m</text><text transform="matrix(0.583 0 0 0.583 311.3522 279.2067)" class="st1 st7">2</text></svg>