<svg id="Capa_1" xmlns="http://www.w3.org/2000/svg" xmlns:xlink="http://www.w3.org/1999/xlink" viewBox="0 0 500 500" style="enable-background:new 0 0 500 500"><style>.st0{fill:#d2bf60}.st1{font-family:arial-boldmt}.st2{font-size:26px}.st3{font-family:arialmt}.st4{font-size:15px}.st5{font-size:23px}.st6{fill:none;stroke:#bdc4c2;stroke-width:2;stroke-miterlimit:10}</style><g id="MTEXT_10_"><text transform="matrix(1 0 0 1 197.2638 136.9827)" class="st0 st1 st2">LOTE 28</text></g><g id="MTEXT_3_"><g><text transform="matrix(6.123234e-17 1 -1 6.123234e-17 303.2617 232.5479)" class="st3 st4">34.00</text></g></g><g id="MTEXT_1142_"><g><text transform="matrix(1 0 0 1 231.2319 76.3456)" class="st3 st4">13.00</text></g></g><g id="MTEXT_1141_"><g><text transform="matrix(6.123234e-17 1 -1 6.123234e-17 187.7988 232.548)" class="st3 st4">32.05</text></g></g><g id="MTEXT_1137_"><g><text transform="matrix(1 0 0 1 243.7481 437.2054)" class="st3 st4">9.99</text></g></g><text transform="matrix(1 0 0 1 213.6635 165.0479)" class="st1 st5">440 m</text><text transform="matrix(0.583 0 0 0.583 278.8789 157.3887)" class="st1 st5">2</text><g id="HATCH_970_"><path class="st6" d="M176.3 420.4V56.9h147.4v385.5H210.4c-10.7.0-20.7-5-27.1-13.5C181 426 178.7 423.1 176.3 420.4v0z"
		/></g><g><text transform="matrix(0.8165 0.5774 -0.5774 0.8165 181.7356 419.4141)" class="st3 st4">3.93</text></g></svg>