<svg id="Capa_1" xmlns="http://www.w3.org/2000/svg" xmlns:xlink="http://www.w3.org/1999/xlink" viewBox="0 0 500 500" style="enable-background:new 0 0 500 500"><style>.st0{fill:#d2bf60}.st1{font-family:arial-boldmt}.st2{font-size:26px}.st3{font-family:arialmt}.st4{font-size:15px}.st5{font-size:23px}.st6{fill:none;stroke:#bdc4c2;stroke-width:2;stroke-miterlimit:10}</style><g id="MTEXT_1_"><text transform="matrix(1 0 0 1 197.2637 221.0111)" class="st0 st1 st2">LOTE 31</text></g><g id="MTEXT_1139_"><g><text transform="matrix(1 0 0 1 295.052 75.6559)" class="st3 st4">2.01</text></g></g><g id="MTEXT_1122_"><g><text transform="matrix(0.6936 -0.7204 0.7204 0.6936 255.2521 153.3219)" class="st3 st4">19.89</text></g></g><g id="MTEXT_1024_"><g><text transform="matrix(0 1 -1 0 311.0195 326.7247)" class="st3 st4">41.26</text></g></g><g id="MTEXT_1015_"><g><text transform="matrix(-5.000000e-05 1 -1 -5.000000e-05 173.0627 325.356)" class="st3 st4">27.41</text></g></g><text transform="matrix(1 0 0 1 213.6633 247.229)" class="st1 st5">468 m</text><text transform="matrix(0.583 0 0 0.583 278.8787 239.5698)" class="st1 st5">2</text><g id="HATCH_931_"><path class="st6" d="M166.1 483.9V173.1c77.6-11.7 135.1-78.4 135.1-157H324l9.9 467.7L166.1 483.9v0z"/></g><g id="MTEXT_1243_"><g><text transform="matrix(1 -7.220000e-03 7.220000e-03 1 223.0224 477.366)" class="st3 st4">14.80</text></g></g></svg>