<svg id="Capa_1" xmlns="http://www.w3.org/2000/svg" xmlns:xlink="http://www.w3.org/1999/xlink" viewBox="0 0 500 500" style="enable-background:new 0 0 500 500"><style>.st0{fill:#d2bf60}.st1{font-family:arial-boldmt}.st2{font-size:26px}.st3{font-family:arialmt}.st4{font-size:15px}.st5{font-size:23px}.st6{fill:none;stroke:#bdc4c2;stroke-width:2;stroke-miterlimit:10}</style><g id="MTEXT_3_"><text transform="matrix(1 0 0 1 197.2135 203.038)" class="st0 st1 st2">LOTE 32</text></g><g id="MTEXT_1149_"><g><text transform="matrix(1 0 0 1 227.479 434.3062)" class="st3 st4">14.00</text></g></g><g id="MTEXT_1018_"><g><text transform="matrix(0.9117 0.4109 -0.4109 0.9117 223.0002 133.1218)" class="st3 st4">15.03</text></g></g><g id="MTEXT_2_"><g><text transform="matrix(-5.000000e-05 1 -1 -5.000000e-05 309.3245 311.2404)" class="st3 st4">27.41</text></g></g><g id="MTEXT_1013_"><g><text transform="matrix(0 1 -1 0 179.7109 302.899)" class="st3 st4">33.50</text></g></g><text transform="matrix(1 0 0 1 213.6134 228.2896)" class="st1 st5">405 m</text><text transform="matrix(0.583 0 0 0.583 278.8287 220.6304)" class="st1 st5">2</text><g id="HATCH_1052_"><path class="st6" d="M170.6 59.8v379.9h158.7V129c-57.5 8.7-115.2-14.8-150.3-61.3C176.7 64.6 173.9 62 170.6 59.8v0z"/></g></svg>