<svg id="Capa_1" xmlns="http://www.w3.org/2000/svg" xmlns:xlink="http://www.w3.org/1999/xlink" viewBox="0 0 500 500" style="enable-background:new 0 0 500 500"><style>.st0{fill:#d2bf60}.st1{font-family:arial-boldmt}.st2{font-size:26px}.st3{font-family:arialmt}.st4{font-size:15px}.st5{font-size:23px}.st6{fill:none;stroke:#bdc4c2;stroke-width:2;stroke-miterlimit:10}</style><g id="MTEXT_4_"><text transform="matrix(1 0 0 1 197.3138 139.2906)" class="st0 st1 st2">LOTE 33</text></g><g id="MTEXT_1135_"><g><text transform="matrix(1 0 0 1 227.479 78.2174)" class="st3 st4">12.35</text></g></g><g id="MTEXT_1124_"><g><text transform="matrix(0 1 -1 0 176.4922 254.1148)" class="st3 st4">34.00</text></g></g><g id="MTEXT_1014_"><g><text transform="matrix(1 0 0 1 227.479 436.318)" class="st3 st4">14.00</text></g></g><g id="MTEXT_1_"><g><text transform="matrix(0 1 -1 0 309.4512 256.9107)" class="st3 st4">33.50</text></g></g><text transform="matrix(1 0 0 1 213.7134 168.1113)" class="st1 st5">476 m</text><text transform="matrix(0.583 0 0 0.583 278.9288 160.4521)" class="st1 st5">2</text><g id="HATCH_973_"><path class="st6" d="M329.4 442.8V62.9c-5.6-3.7-12.1-5.6-18.7-5.6h-140v385.5H329.4v0z"/></g><g><text transform="matrix(0.9582 0.2862 -0.2862 0.9582 294.0654 74.4851)" class="st3 st4">1.75</text></g></svg>