<svg id="Capa_1" xmlns="http://www.w3.org/2000/svg" xmlns:xlink="http://www.w3.org/1999/xlink" viewBox="0 0 500 500" style="enable-background:new 0 0 500 500"><style>.st0{fill:#d2bf60}.st1{font-family:arial-boldmt}.st2{font-size:26px}.st3{font-family:arialmt}.st4{font-size:15px}.st5{font-size:23px}.st6{fill:none;stroke:#bdc4c2;stroke-width:2;stroke-miterlimit:10}</style><g id="MTEXT_1_"><text transform="matrix(1 0 0 1 197.2139 102.9464)" class="st0 st1 st2">LOTE 42</text></g><g id="MTEXT_1243_"><g><text transform="matrix(1 -7.220029e-03 7.220029e-03 1 231.2103 37.5084)" class="st3 st4">14.79</text></g></g><g id="MTEXT_1116_"><g><text transform="matrix(0.7481 0.6636 -0.6636 0.7481 254.6112 344.5085)" class="st3 st4">21.66</text></g></g><g id="MTEXT_1102_"><g><text transform="matrix(-5.000000e-05 1 -1 -5.000000e-05 173.2307 203.8188)" class="st3 st4">27.25</text></g></g><g id="MTEXT_1023_"><g><text transform="matrix(0 1 -1 0 314.457 220.6733)" class="st3 st4">41.26</text></g></g><text transform="matrix(1 0 0 1 213.6134 128.1113)" class="st1 st5">479 m</text><text transform="matrix(0.583 0 0 0.583 278.8287 120.4521)" class="st1 st5">2</text><g id="HATCH_1054_"><path class="st6" d="M161.1 325.2c86.2 2 155 72.5 155 158.7h22.7l-9.9-467.7H161.1v309 0z"/></g></svg>