<svg id="Capa_1" xmlns="http://www.w3.org/2000/svg" xmlns:xlink="http://www.w3.org/1999/xlink" viewBox="0 0 500 500" style="enable-background:new 0 0 500 500"><style>.st0{fill:#d2bf60}.st1{font-family:arial-boldmt}.st2{font-size:26px}.st3{font-family:arialmt}.st4{font-size:15px}.st5{font-size:28px}.st6{fill:none;stroke:#bdc4c2;stroke-width:2;stroke-miterlimit:10}</style><g id="MTEXT_8_"><text transform="matrix(1 0 0 1 197.7637 135.0972)" class="st0 st1 st2">LOTE 43</text></g><g id="MTEXT_1151_"><g><text transform="matrix(0 1 -1 0 179.0137 220.1167)" class="st3 st4">34.00</text></g></g><g id="MTEXT_1149_"><g><text transform="matrix(1 0 0 1 231.7317 80.8091)" class="st3 st4">14.00</text></g></g><g id="MTEXT_1118_"><g><text transform="matrix(0.7811 0.6244 -0.6244 0.7811 172.4911 401.6589)" class="st3 st4">2.77</text></g></g><g id="MTEXT_1117_"><g><text transform="matrix(0.9238 -0.3829 0.3829 0.9238 248.7164 376.5911)" class="st3 st4">13.26</text></g></g><g id="MTEXT_2_"><g><text transform="matrix(-5.000000e-05 1 -1 -5.000000e-05 309.9241 219.921)" class="st3 st4">27.25</text></g></g><text transform="matrix(1 0 0 1 206.2643 165.2285)" class="st1 st5">416 m</text><text transform="matrix(0.583 0 0 0.583 285.6569 155.9043)" class="st1 st5">2</text><g id="HATCH_1055_"><path class="st6" d="M329.8 366.3c-51-1.2-99.6 22.2-130.3 63-6.4 8.5-16.5 13.5-27.1 13.5h-1.3V57.2h158.8L329.8 366.3v0z"/></g></svg>