<svg id="Capa_1" xmlns="http://www.w3.org/2000/svg" xmlns:xlink="http://www.w3.org/1999/xlink" viewBox="0 0 500 500" style="enable-background:new 0 0 500 500"><style>.st0{fill:#d2bf60}.st1{font-family:arial-boldmt}.st2{font-size:26px}.st3{font-family:arialmt}.st4{font-size:15px}.st5{font-size:23px}.st6{fill:none;stroke:#bdc4c2;stroke-width:2;stroke-miterlimit:10}</style><g id="MTEXT_2_"><text transform="matrix(1 0 0 1 197.2638 224.4836)" class="st0 st1 st2">LOTE 53</text></g><g id="MTEXT_1244_"><g><text transform="matrix(1 0 0 1 228.221 474.8453)" class="st3 st4">16.55</text></g></g><g id="MTEXT_1134_"><g><text transform="matrix(1 0 0 1 303.5697 80.6139)" class="st3 st4">2.00</text></g></g><g id="MTEXT_1115_"><g><text transform="matrix(0.7946 -0.6072 0.6072 0.7946 255.8741 164.2607)" class="st3 st4">21.66</text></g></g><g id="MTEXT_1022_"><g><text transform="matrix(0 1 -1 0 320.4941 312.778)" class="st3 st4">41.26</text></g></g><g id="MTEXT_1012_"><g><text transform="matrix(3.000000e-05 1 -1 3.000000e-05 168.2581 321.5206)" class="st3 st4">27.25</text></g></g><text transform="matrix(1 0 0 1 213.6634 249.5664)" class="st1 st5">515 m</text><text transform="matrix(0.583 0 0 0.583 278.8787 241.9072)" class="st1 st5">2</text><g id="HATCH_978_"><path class="st6" d="M311.2 16.1h22.7l9.9 467.7H156.2v-309C242.4 172.8 311.2 102.4 311.2 16.1v0z"/></g></svg>