<svg id="Capa_1" xmlns="http://www.w3.org/2000/svg" xmlns:xlink="http://www.w3.org/1999/xlink" viewBox="0 0 500 500" style="enable-background:new 0 0 500 500"><style>.st0{fill:#d2bf60}.st1{font-family:arial-boldmt}.st2{font-size:26px}.st3{font-family:arialmt}.st4{font-size:15px}.st5{font-size:23px}.st6{fill:none;stroke:#bdc4c2;stroke-width:2;stroke-miterlimit:10}</style><g id="MTEXT_9_"><text transform="matrix(1 0 0 1 197.4138 214.8958)" class="st0 st1 st2">LOTE 54</text></g><g id="MTEXT_1146_"><g><text transform="matrix(1 0 0 1 227.6538 434.7305)" class="st3 st4">14.00</text></g></g><g id="MTEXT_1114_"><g><text transform="matrix(0.8981 0.4397 -0.4397 0.8981 238.7103 132.3001)" class="st3 st4">13.26</text></g></g><g id="MTEXT_1113_"><g><text transform="matrix(0.9405 -0.3398 0.3398 0.9405 174.9296 94.8021)" class="st3 st4">2.77</text></g></g><g id="MTEXT_1_"><g><text transform="matrix(3.000000e-05 1 -1 3.000000e-05 307.6272 299.417)" class="st3 st4">27.25</text></g></g><g id="MTEXT_1008_"><g><text transform="matrix(0 1 -1 0 180.2148 292.1153)" class="st3 st4">34.00</text></g></g><text transform="matrix(1 0 0 1 213.8136 238.9258)" class="st1 st5">416 m</text><text transform="matrix(0.583 0 0 0.583 279.029 231.2666)" class="st1 st5">2</text><g id="HATCH_974_"><path class="st6" d="M170.8 57.2v385.5h158.7v-309c-51 1.2-99.6-22.2-130.3-63-6.4-8.5-16.5-13.5-27.1-13.5L170.8 57.2v0z"/></g></svg>