<svg id="Capa_1" xmlns="http://www.w3.org/2000/svg" xmlns:xlink="http://www.w3.org/1999/xlink" viewBox="0 0 500 500" style="enable-background:new 0 0 500 500"><style>.st0{fill:#d2bf60}.st1{font-family:arial-boldmt}.st2{font-size:26px}.st3{font-family:arialmt}.st4{font-size:15px}.st5{font-size:23px}.st6{fill:none;stroke:#bdc4c2;stroke-width:2;stroke-miterlimit:10}</style><g id="MTEXT_9_"><text transform="matrix(1 0 0 1 197.2635 93.6273)" class="st0 st1 st2">LOTE 64</text></g><g id="MTEXT_1244_"><g><text transform="matrix(1 0 0 1 231.2316 33.1279)" class="st3 st4">16.55</text></g></g><g id="MTEXT_1108_"><g><text transform="matrix(0.8025 0.5966 -0.5966 0.8025 235.9974 329.4496)" class="st3 st4">23.42</text></g></g><g id="MTEXT_1021_"><g><text transform="matrix(0 1 -1 0 321.9082 178.7265)" class="st3 st4">41.26</text></g></g><g id="MTEXT_1011_"><g><text transform="matrix(-5.000000e-05 1 -1 -5.000000e-05 166.3049 180.3606)" class="st3 st4">27.32</text></g></g><text transform="matrix(1 0 0 1 213.6634 118.376)" class="st1 st5">527 m</text><text transform="matrix(0.583 0 0 0.583 278.8787 110.7168)" class="st1 st5">2</text><g id="HATCH_968_"><path class="st6" d="M326.1 483.9h22.7l-9.9-467.7H151.2V326c5.4-.5 10.8-.8 16.2-.8C255 325.1 326.1 396.2 326.1 483.9v0z"/></g></svg>