<svg id="Capa_1" xmlns="http://www.w3.org/2000/svg" xmlns:xlink="http://www.w3.org/1999/xlink" viewBox="0 0 500 500" style="enable-background:new 0 0 500 500"><style>.st0{fill:#d2bf60}.st1{font-family:arial-boldmt}.st2{font-size:26px}.st3{font-family:arialmt}.st4{font-size:15px}.st5{font-size:23px}.st6{fill:none;stroke:#bdc4c2;stroke-width:2;stroke-miterlimit:10}</style><g id="MTEXT_8_"><text transform="matrix(1 0 0 1 197.7136 141.4582)" class="st0 st1 st2">LOTE 65</text></g><g id="MTEXT_1146_"><g><text transform="matrix(1 0 0 1 231.6815 79.2186)" class="st3 st4">14.00</text></g></g><g id="MTEXT_1143_"><g><text transform="matrix(0.9998 1.789217e-02 -1.789217e-02 0.9998 170.7017 437.8859)" class="st3 st4">1.86</text></g></g><g id="MTEXT_1110_"><g><text transform="matrix(0.7071 -0.7071 0.7071 0.7071 210.8059 433.7195)" class="st3 st4">2.77</text></g></g><g id="MTEXT_1109_"><g><text transform="matrix(0.8714 -0.4906 0.4906 0.8714 245.209 392.6726)" class="st3 st4">11.50</text></g></g><g id="MTEXT_1_"><g><text transform="matrix(-5.000000e-05 1 -1 -5.000000e-05 310.9436 214.4623)" class="st3 st4">27.32</text></g></g><g id="MTEXT_1007_"><g><text transform="matrix(0 1 -1 0 178.0234 228.1151)" class="st3 st4">34.00</text></g></g><text transform="matrix(1 0 0 1 214.1136 163.9277)" class="st1 st5">428 m</text><text transform="matrix(0.583 0 0 0.583 279.3289 156.2686)" class="st1 st5">2</text><g id="HATCH_975_"><path class="st6" d="M171.1 442.8h21.1c10.7.0 20.7-5 27.1-13.5C246 394.1 286 371.5 329.8 367V57.2H171.1V442.8v0z"/></g></svg>