<svg id="Capa_1" xmlns="http://www.w3.org/2000/svg" xmlns:xlink="http://www.w3.org/1999/xlink" viewBox="0 0 500 500" style="enable-background:new 0 0 500 500"><style>.st0{fill:#d2bf60}.st1{font-family:arial-boldmt}.st2{font-size:26px}.st3{font-family:arialmt}.st4{font-size:15px}.st5{font-size:23px}.st6{fill:none;stroke:#bdc4c2;stroke-width:2;stroke-miterlimit:10}</style><g id="MTEXT_12_"><text transform="matrix(1 0 0 1 197.2637 175.7316)" class="st0 st1 st2">LOTE 82</text></g><g id="MTEXT_1075_"><g><text transform="matrix(0 1 -1 0 315.5156 242.1457)" class="st3 st4">30.00</text></g></g><g id="MTEXT_1072_"><g><text transform="matrix(1 0 0 1 231.2317 410.1587)" class="st3 st4">15.00</text></g></g><g id="MTEXT_1071_"><g><text transform="matrix(1 0 0 1 267.7159 96.5125)" class="st3 st4">9.28</text></g></g><g id="MTEXT_1070_"><g><text transform="matrix(0 1 -1 0 173.8848 242.1455)" class="st3 st4">25.84</text></g></g><g id="MTEXT_1067_"><g><text transform="matrix(0.9262 -0.377 0.377 0.9262 207.718 105.6166)" class="st3 st4">2.69</text></g></g><g id="MTEXT_1065_"><g><text transform="matrix(0.8464 -0.5326 0.5326 0.8464 174.9381 138.0284)" class="st3 st4">4.56</text></g></g><text transform="matrix(1 0 0 1 213.6633 201.8838)" class="st1 st5">440 m</text><text transform="matrix(0.583 0 0 0.583 278.8787 194.2246)" class="st1 st5">2</text><g id="HATCH_955_"><path class="st6" d="M165 127.1v293h170V79.9H229.7c-10.3.0-20.1 4.7-26.6 12.8C192.4 106.2 179.5 117.8 165 127.1v0z"/></g></svg>