<svg id="Capa_1" xmlns="http://www.w3.org/2000/svg" xmlns:xlink="http://www.w3.org/1999/xlink" viewBox="0 0 500 500" style="enable-background:new 0 0 500 500"><style>.st0{fill:#d2bf60}.st1{font-family:arial-boldmt}.st2{font-size:26px}.st3{font-family:arialmt}.st4{font-size:17.9984px}.st5{font-size:17.9992px}.st6{font-size:23px}.st7{fill:none;stroke:#bdc4c2;stroke-width:2;stroke-miterlimit:10}</style><g id="MTEXT_9_"><text transform="matrix(1 0 0 1 226.2639 264.4605)" class="st0 st1 st2">LOTE 83</text></g><g id="MTEXT_1177_"><g><text transform="matrix(0.2098 0.9777 -0.9777 0.2098 168.2993 243.1412)" class="st3 st4">38.48</text></g></g><g id="MTEXT_1_"><g><text transform="matrix(0 1 -1 0 364.5586 344.2958)" class="st3 st5">25.84</text></g></g><g id="MTEXT_1069_"><g><text transform="matrix(1 0 0 1 270.5361 455.9171)" class="st3 st5">15.53</text></g></g><g id="MTEXT_1068_"><g><text transform="matrix(0.9032 0.4292 -0.4292 0.9032 205.2396 190.9416)" class="st3 st5">29.97</text></g></g><text transform="matrix(1 0 0 1 242.664 291.3818)" class="st1 st6">482 m</text><text transform="matrix(0.583 0 0 0.583 307.8793 283.7226)" class="st1 st6">2</text><g id="HATCH_943_"><path class="st7" d="M139.4 36.7h-23.2l91.5 426.6h176.1v-293c-25.6 16.4-55.3 25.1-85.7 25.1C210.5 195.4 139.4 124.4 139.4 36.7v0z"/></g></svg>