<svg width="52" height="42" viewBox="0 0 52 42" fill="none" xmlns="http://www.w3.org/2000/svg">
<path d="M40.3536 19.3536C40.5488 19.1583 40.5488 18.8417 40.3536 18.6465L37.1716 15.4645C36.9763 15.2692 36.6597 15.2692 36.4645 15.4645C36.2692 15.6597 36.2692 15.9763 36.4645 16.1716L39.2929 19L36.4645 21.8284C36.2692 22.0237 36.2692 22.3403 36.4645 22.5355C36.6597 22.7308 36.9763 22.7308 37.1716 22.5355L40.3536 19.3536ZM-8.74228e-08 19.5L40 19.5L40 18.5L8.74228e-08 18.5L-8.74228e-08 19.5Z" fill="#FF595A"/>
<path d="M1.4148 0.5L51.5 40.9534V0.5H1.4148Z" stroke="#FF595A"/>
</svg>
