<svg width="17" height="338" viewBox="0 0 17 338" fill="none" xmlns="http://www.w3.org/2000/svg">
<line x1="0.5" y1="2.18557e-08" x2="0.499985" y2="338" stroke="#1F2A51"/>
<path d="M4 290.289L4 291.529L12.122 288.851L12.122 286.821L4 284.121L4 285.295L6.04146 285.932L6.04146 289.652L4 290.289ZM6.96341 286.217L12.0122 287.787L12.0122 287.809L6.96341 289.367L6.96341 286.217ZM9.46585 295.948L4.07683 294.455L4.07683 294.433L9.46585 292.941L9.46585 291.766L4 293.402L4 295.498L9.46585 297.133L9.46585 295.948ZM5.21829 297.671L4 297.671L4 298.955L5.21829 298.955L5.21829 297.671ZM4.9439 304.308L12.122 304.308L12.122 303.155L4 303.155L4 307.985L4.9439 307.985L4.9439 304.308ZM10.6073 308.993L10.6073 310.09L11.8476 310.09L11.8476 308.993L10.6073 308.993ZM4 308.993L4 310.09L9.46585 310.09L9.46585 308.993L4 308.993ZM9.57561 314.8C9.57561 313.559 8.85122 312.813 7.6439 312.813L7.6439 312.791L12.4512 312.791L12.4512 311.694L4 311.694L4 312.791L5.82195 312.791L5.82195 312.813C4.61463 312.813 3.89024 313.559 3.89024 314.8C3.89024 316.227 4.9439 317.072 6.73293 317.072C8.52195 317.072 9.57561 316.227 9.57561 314.8ZM4.77927 314.339C4.77927 313.318 5.54756 312.714 6.73293 312.714C7.91829 312.714 8.68658 313.318 8.68658 314.339C8.68658 315.359 7.96219 315.952 6.73293 315.952C5.50366 315.952 4.77927 315.359 4.77927 314.339ZM9.46585 322.355L7.6439 322.355L7.6439 322.333C8.85122 322.333 9.57561 321.598 9.57561 320.347C9.57561 318.92 8.52195 318.075 6.73293 318.075C4.9439 318.075 3.89024 318.92 3.89024 320.347C3.89024 321.598 4.61463 322.333 5.82195 322.333L5.82195 322.355L4 322.355L4 323.453L9.46585 323.453L9.46585 322.355ZM4.77927 320.818C4.77927 319.798 5.50366 319.205 6.73293 319.205C7.96219 319.205 8.68658 319.798 8.68658 320.818C8.68658 321.839 7.91829 322.432 6.73293 322.432C5.54756 322.432 4.77927 321.839 4.77927 320.818ZM9.57561 328.023C9.57561 326.87 8.82927 326.19 7.56707 326.19L7.56707 326.168L9.46585 326.168L9.46585 325.07L4 325.07L4 326.168L6.97439 326.168C8.05 326.168 8.68658 326.705 8.68658 327.605C8.68658 328.407 8.19268 328.879 7.33658 328.879L4 328.879L4 329.976L7.36951 329.976C8.75244 329.976 9.57561 329.252 9.57561 328.023ZM3.89024 333.948C3.89024 335.671 4.9439 336.681 6.73292 336.681C8.52195 336.681 9.57561 335.671 9.57561 333.948C9.57561 332.236 8.52195 331.215 6.73292 331.215C4.9439 331.215 3.89024 332.236 3.89024 333.948ZM4.77927 333.948C4.77927 332.927 5.50366 332.335 6.73292 332.335C7.96219 332.335 8.68658 332.927 8.68658 333.948C8.68658 334.969 7.96219 335.562 6.73292 335.562C5.50366 335.562 4.77927 334.969 4.77927 333.948Z" fill="#1F2A51"/>
<path d="M4 6.28902L4 7.52927L12.122 4.85122L12.122 2.82073L4 0.120731L4 1.29512L6.04146 1.93171L6.04146 5.65244L4 6.28902ZM6.96341 2.21707L12.0122 3.78659L12.0122 3.80854L6.96341 5.36707L6.96341 2.21707ZM9.46585 11.948L4.07683 10.4553L4.07683 10.4333L9.46585 8.94066L9.46585 7.76627L4 9.40164L4 11.498L9.46585 13.1333L9.46585 11.948ZM5.21829 13.6712L4 13.6712L4 14.9553L5.21829 14.9553L5.21829 13.6712ZM4.9439 20.3079L12.122 20.3079L12.122 19.1554L4 19.1554L4 23.9847L4.9439 23.9847L4.9439 20.3079ZM10.6073 24.9926L10.6073 26.0901L11.8476 26.0901L11.8476 24.9926L10.6073 24.9926ZM4 24.9926L4 26.0901L9.46585 26.0901L9.46585 24.9926L4 24.9926ZM9.57561 30.7997C9.57561 29.5595 8.85122 28.8131 7.6439 28.8131L7.6439 28.7912L12.4512 28.7912L12.4512 27.6936L4 27.6936L4 28.7912L5.82195 28.7912L5.82195 28.8131C4.61463 28.8131 3.89024 29.5595 3.89024 30.7997C3.89024 32.2265 4.9439 33.0717 6.73293 33.0717C8.52195 33.0717 9.57561 32.2265 9.57561 30.7997ZM4.77927 30.3387C4.77927 29.318 5.54756 28.7143 6.73293 28.7143C7.91829 28.7143 8.68658 29.318 8.68658 30.3387C8.68658 31.3595 7.96219 31.9521 6.73293 31.9521C5.50366 31.9521 4.77927 31.3595 4.77927 30.3387ZM9.46585 38.355L7.6439 38.355L7.6439 38.3331C8.85122 38.3331 9.57561 37.5977 9.57561 36.3465C9.57561 34.9197 8.52195 34.0746 6.73293 34.0746C4.9439 34.0746 3.89024 34.9197 3.89024 36.3465C3.89024 37.5977 4.61463 38.3331 5.82195 38.3331L5.82195 38.355L4 38.355L4 39.4526L9.46585 39.4526L9.46585 38.355ZM4.77927 36.8185C4.77927 35.7977 5.50366 35.205 6.73293 35.205C7.96219 35.205 8.68658 35.7977 8.68658 36.8185C8.68658 37.8392 7.91829 38.4319 6.73293 38.4319C5.54756 38.4319 4.77927 37.8392 4.77927 36.8185ZM9.57561 44.0226C9.57561 42.8701 8.82927 42.1896 7.56707 42.1896L7.56707 42.1677L9.46585 42.1677L9.46585 41.0701L4 41.0701L4 42.1677L6.97439 42.1677C8.05 42.1677 8.68658 42.7055 8.68658 43.6055C8.68658 44.4067 8.19268 44.8787 7.33658 44.8787L4 44.8787L4 45.9762L7.36951 45.9762C8.75244 45.9762 9.57561 45.2518 9.57561 44.0226ZM3.89024 49.9482C3.89024 51.6714 4.9439 52.6811 6.73292 52.6811C8.52195 52.6811 9.57561 51.6714 9.57561 49.9482C9.57561 48.236 8.52195 47.2153 6.73292 47.2153C4.9439 47.2153 3.89024 48.236 3.89024 49.9482ZM4.77927 49.9482C4.77927 48.9275 5.50366 48.3348 6.73292 48.3348C7.96219 48.3348 8.68658 48.9275 8.68658 49.9482C8.68658 50.9689 7.96219 51.5616 6.73292 51.5616C5.50366 51.5616 4.77927 50.9689 4.77927 49.9482Z" fill="#1F2A51"/>
<line x1="16.5" y1="2.18557e-08" x2="16.5" y2="338" stroke="#1F2A51"/>
</svg>
