<svg width="221" height="60" viewBox="0 0 221 60" fill="none" xmlns="http://www.w3.org/2000/svg">
<g filter="url(#filter0_d)">
<path d="M193.5 40H10V0H210.116V27.4824L193.5 40Z" fill="#FF595A"/>
<path d="M50.0713 12.8965H52.1514L49.0166 24H45.3179L42.2124 12.8965H44.417L47.2222 23.8169H47.2515L50.0713 12.8965ZM59.6807 20.2354V20.4624H54.1875C54.2266 21.1509 54.4023 21.688 54.7148 22.0737C55.0322 22.4595 55.457 22.6523 55.9893 22.6523C56.4482 22.6523 56.8315 22.5352 57.1392 22.3008C57.4517 22.0615 57.6567 21.7319 57.7544 21.312H59.6807C59.5439 22.2056 59.1509 22.9014 58.5015 23.3994C57.8521 23.8975 57.0146 24.1465 55.9893 24.1465C54.8223 24.1465 53.9092 23.8022 53.25 23.1138C52.5957 22.4253 52.2686 21.4658 52.2686 20.2354C52.2686 19 52.5957 18.0381 53.25 17.3496C53.9043 16.6611 54.8174 16.3169 55.9893 16.3169C57.1465 16.3169 58.0498 16.6611 58.6992 17.3496C59.3535 18.0381 59.6807 19 59.6807 20.2354ZM55.9893 17.8037C55.4863 17.8037 55.0786 17.9771 54.7661 18.3237C54.4585 18.6704 54.2705 19.1587 54.2021 19.7886H57.7397C57.6812 19.1587 57.498 18.6704 57.1904 18.3237C56.8828 17.9771 56.4824 17.8037 55.9893 17.8037ZM65.5034 16.3169C65.9429 16.3169 66.3286 16.3975 66.6606 16.5586L66.0894 18.3311C65.7671 18.1504 65.4155 18.0601 65.0347 18.0601C64.4536 18.0601 63.9995 18.2847 63.6724 18.7339C63.3501 19.1782 63.189 19.7983 63.189 20.5942V24H61.2114V16.4707H63.189V19.5762H63.2256C63.2256 18.5508 63.4258 17.7524 63.8262 17.1812C64.2266 16.605 64.7856 16.3169 65.5034 16.3169ZM75.8672 16.4707H77.8521V24H75.8672V21.4072H75.8379C75.8379 22.2715 75.6011 22.9453 75.1274 23.4287C74.6538 23.9072 73.9971 24.1465 73.1572 24.1465C72.2148 24.1465 71.4775 23.8022 70.9453 23.1138C70.418 22.4253 70.1543 21.4658 70.1543 20.2354C70.1543 19.0049 70.418 18.0454 70.9453 17.3569C71.4775 16.6636 72.2148 16.3169 73.1572 16.3169C73.9971 16.3169 74.6538 16.5586 75.1274 17.042C75.6011 17.5254 75.8379 18.1943 75.8379 19.0488H75.8672V16.4707ZM74.0654 22.5718C74.6562 22.5718 75.1226 22.3569 75.4644 21.9272C75.8062 21.4976 75.9771 20.9336 75.9771 20.2354C75.9771 19.5273 75.8062 18.9585 75.4644 18.5288C75.1226 18.0942 74.6562 17.877 74.0654 17.877C73.4648 17.877 72.9961 18.0869 72.6592 18.5068C72.3271 18.9219 72.1611 19.498 72.1611 20.2354C72.1611 20.9727 72.3271 21.5464 72.6592 21.9565C72.9961 22.3667 73.4648 22.5718 74.0654 22.5718ZM89.1313 16.3169C89.9419 16.3169 90.5742 16.583 91.0283 17.1152C91.4824 17.6426 91.7095 18.3823 91.7095 19.3345V24H89.7319V19.4224C89.7319 18.9341 89.6074 18.5557 89.3584 18.2871C89.1094 18.0137 88.7627 17.877 88.3184 17.877C87.8252 17.877 87.4395 18.0527 87.1611 18.4043C86.8828 18.751 86.7437 19.2319 86.7437 19.8472V24H84.7661V19.4224C84.7661 18.9341 84.644 18.5557 84.3999 18.2871C84.1606 18.0137 83.8188 17.877 83.3745 17.877C82.8716 17.877 82.4785 18.0527 82.1953 18.4043C81.917 18.751 81.7778 19.2319 81.7778 19.8472V24H79.8003V16.4707H81.7778V19.0781H81.8145C81.8145 18.209 82.0269 17.5327 82.4517 17.0493C82.8813 16.561 83.4771 16.3169 84.2388 16.3169C85.02 16.3169 85.6328 16.5659 86.0771 17.064C86.5215 17.5571 86.7437 18.2285 86.7437 19.0781H86.7729C86.7729 18.209 86.9805 17.5327 87.3955 17.0493C87.8105 16.561 88.3892 16.3169 89.1313 16.3169ZM100.594 20.2354V20.4624H95.1006C95.1396 21.1509 95.3154 21.688 95.6279 22.0737C95.9453 22.4595 96.3701 22.6523 96.9023 22.6523C97.3613 22.6523 97.7446 22.5352 98.0522 22.3008C98.3647 22.0615 98.5698 21.7319 98.6675 21.312H100.594C100.457 22.2056 100.064 22.9014 99.4146 23.3994C98.7651 23.8975 97.9277 24.1465 96.9023 24.1465C95.7354 24.1465 94.8223 23.8022 94.1631 23.1138C93.5088 22.4253 93.1816 21.4658 93.1816 20.2354C93.1816 19 93.5088 18.0381 94.1631 17.3496C94.8174 16.6611 95.7305 16.3169 96.9023 16.3169C98.0596 16.3169 98.9629 16.6611 99.6123 17.3496C100.267 18.0381 100.594 19 100.594 20.2354ZM96.9023 17.8037C96.3994 17.8037 95.9917 17.9771 95.6792 18.3237C95.3716 18.6704 95.1836 19.1587 95.1152 19.7886H98.6528C98.5942 19.1587 98.4111 18.6704 98.1035 18.3237C97.7959 17.9771 97.3955 17.8037 96.9023 17.8037ZM106.578 16.3169C107.408 16.3169 108.055 16.5903 108.519 17.1372C108.987 17.6792 109.222 18.436 109.222 19.4077V24H107.237V19.5029C107.237 18.9902 107.107 18.5923 106.849 18.3091C106.595 18.021 106.236 17.877 105.772 17.877C105.25 17.877 104.839 18.0576 104.542 18.4189C104.249 18.7803 104.102 19.2808 104.102 19.9204V24H102.125V16.4707H104.102V19.1074H104.139C104.139 18.2285 104.354 17.5449 104.783 17.0566C105.213 16.5635 105.811 16.3169 106.578 16.3169ZM111.089 15.0278V13.1528H113.067V15.0278H111.089ZM111.089 24V16.4707H113.067V24H111.089ZM120.369 12.4497H122.354V24H120.369V21.4072H120.34C120.34 22.2715 120.103 22.9453 119.629 23.4287C119.156 23.9072 118.499 24.1465 117.659 24.1465C116.717 24.1465 115.979 23.8022 115.447 23.1138C114.92 22.4253 114.656 21.4658 114.656 20.2354C114.656 19.0049 114.92 18.0454 115.447 17.3569C115.979 16.6636 116.717 16.3169 117.659 16.3169C118.499 16.3169 119.156 16.5586 119.629 17.042C120.103 17.5254 120.34 18.1943 120.34 19.0488H120.369V12.4497ZM118.567 22.5718C119.158 22.5718 119.625 22.3569 119.966 21.9272C120.308 21.4976 120.479 20.9336 120.479 20.2354C120.479 19.5273 120.308 18.9585 119.966 18.5288C119.625 18.0942 119.158 17.877 118.567 17.877C117.967 17.877 117.498 18.0869 117.161 18.5068C116.829 18.9219 116.663 19.498 116.663 20.2354C116.663 20.9727 116.829 21.5464 117.161 21.9565C117.498 22.3667 117.967 22.5718 118.567 22.5718ZM129.642 16.4707H131.626V24H129.642V21.4072H129.612C129.612 22.2715 129.375 22.9453 128.902 23.4287C128.428 23.9072 127.771 24.1465 126.932 24.1465C125.989 24.1465 125.252 23.8022 124.72 23.1138C124.192 22.4253 123.929 21.4658 123.929 20.2354C123.929 19.0049 124.192 18.0454 124.72 17.3569C125.252 16.6636 125.989 16.3169 126.932 16.3169C127.771 16.3169 128.428 16.5586 128.902 17.042C129.375 17.5254 129.612 18.1943 129.612 19.0488H129.642V16.4707ZM127.84 22.5718C128.431 22.5718 128.897 22.3569 129.239 21.9272C129.581 21.4976 129.751 20.9336 129.751 20.2354C129.751 19.5273 129.581 18.9585 129.239 18.5288C128.897 18.0942 128.431 17.877 127.84 17.877C127.239 17.877 126.771 18.0869 126.434 18.5068C126.102 18.9219 125.936 19.498 125.936 20.2354C125.936 20.9727 126.102 21.5464 126.434 21.9565C126.771 22.3667 127.239 22.5718 127.84 22.5718ZM138.914 12.4497H140.899V24H138.914V21.4072H138.885C138.885 22.2715 138.648 22.9453 138.174 23.4287C137.701 23.9072 137.044 24.1465 136.204 24.1465C135.262 24.1465 134.524 23.8022 133.992 23.1138C133.465 22.4253 133.201 21.4658 133.201 20.2354C133.201 19.0049 133.465 18.0454 133.992 17.3569C134.524 16.6636 135.262 16.3169 136.204 16.3169C137.044 16.3169 137.701 16.5586 138.174 17.042C138.648 17.5254 138.885 18.1943 138.885 19.0488H138.914V12.4497ZM137.112 22.5718C137.703 22.5718 138.169 22.3569 138.511 21.9272C138.853 21.4976 139.024 20.9336 139.024 20.2354C139.024 19.5273 138.853 18.9585 138.511 18.5288C138.169 18.0942 137.703 17.877 137.112 17.877C136.512 17.877 136.043 18.0869 135.706 18.5068C135.374 18.9219 135.208 19.498 135.208 20.2354C135.208 20.9727 135.374 21.5464 135.706 21.9565C136.043 22.3667 136.512 22.5718 137.112 22.5718ZM149.856 20.2354V20.4624H144.363C144.402 21.1509 144.578 21.688 144.891 22.0737C145.208 22.4595 145.633 22.6523 146.165 22.6523C146.624 22.6523 147.007 22.5352 147.315 22.3008C147.627 22.0615 147.833 21.7319 147.93 21.312H149.856C149.72 22.2056 149.327 22.9014 148.677 23.3994C148.028 23.8975 147.19 24.1465 146.165 24.1465C144.998 24.1465 144.085 23.8022 143.426 23.1138C142.771 22.4253 142.444 21.4658 142.444 20.2354C142.444 19 142.771 18.0381 143.426 17.3496C144.08 16.6611 144.993 16.3169 146.165 16.3169C147.322 16.3169 148.226 16.6611 148.875 17.3496C149.529 18.0381 149.856 19 149.856 20.2354ZM146.165 17.8037C145.662 17.8037 145.254 17.9771 144.942 18.3237C144.634 18.6704 144.446 19.1587 144.378 19.7886H147.916C147.857 19.1587 147.674 18.6704 147.366 18.3237C147.059 17.9771 146.658 17.8037 146.165 17.8037ZM154.332 24.1465C153.252 24.1465 152.413 23.9194 151.812 23.4653C151.211 23.0063 150.911 22.3691 150.911 21.5537H152.75C152.75 21.9736 152.889 22.3008 153.167 22.5352C153.445 22.7695 153.833 22.8867 154.332 22.8867C154.81 22.8867 155.181 22.8013 155.445 22.6304C155.708 22.4546 155.84 22.2104 155.84 21.8979C155.84 21.771 155.818 21.6562 155.774 21.5537C155.735 21.4512 155.665 21.3633 155.562 21.29C155.459 21.2168 155.367 21.1582 155.284 21.1143C155.201 21.0654 155.066 21.019 154.881 20.9751C154.695 20.9312 154.554 20.8994 154.456 20.8799C154.358 20.8604 154.195 20.8311 153.965 20.792C153.765 20.7578 153.616 20.7334 153.519 20.7188C153.421 20.6992 153.274 20.6699 153.079 20.6309C152.889 20.5869 152.74 20.5479 152.632 20.5137C152.53 20.4795 152.398 20.4307 152.237 20.3672C152.076 20.2988 151.949 20.2305 151.856 20.1621C151.768 20.0889 151.668 19.9985 151.556 19.8911C151.448 19.7837 151.365 19.6714 151.307 19.5542C151.248 19.4321 151.199 19.2905 151.16 19.1294C151.121 18.9634 151.102 18.7876 151.102 18.6021C151.102 17.8892 151.387 17.3301 151.958 16.9248C152.53 16.5195 153.321 16.3169 154.332 16.3169C155.337 16.3169 156.124 16.5366 156.69 16.9761C157.256 17.4106 157.54 18.0161 157.54 18.7925H155.694C155.694 18.3921 155.574 18.0845 155.335 17.8696C155.101 17.6548 154.766 17.5474 154.332 17.5474C153.917 17.5474 153.592 17.6255 153.357 17.7817C153.123 17.938 153.006 18.1553 153.006 18.4336C153.006 18.541 153.023 18.6387 153.057 18.7266C153.096 18.8096 153.165 18.8853 153.262 18.9536C153.365 19.0171 153.453 19.0684 153.526 19.1074C153.604 19.1465 153.731 19.188 153.907 19.2319C154.087 19.2759 154.224 19.3076 154.317 19.3271C154.41 19.3418 154.568 19.3687 154.793 19.4077C154.993 19.4419 155.145 19.4688 155.247 19.4883C155.35 19.5078 155.499 19.5396 155.694 19.5835C155.894 19.6274 156.048 19.6689 156.155 19.708C156.263 19.7422 156.399 19.7935 156.565 19.8618C156.731 19.9302 156.861 20.0034 156.954 20.0815C157.051 20.1548 157.156 20.2451 157.269 20.3525C157.386 20.46 157.474 20.5771 157.532 20.7041C157.591 20.8311 157.64 20.9775 157.679 21.1436C157.723 21.3096 157.745 21.4878 157.745 21.6782C157.745 22.4497 157.444 23.0552 156.844 23.4946C156.243 23.9292 155.406 24.1465 154.332 24.1465ZM166.211 17.6279C167.437 17.6279 168.392 17.9062 169.075 18.4629C169.764 19.0195 170.108 19.791 170.108 20.7773C170.108 21.8369 169.744 22.6646 169.017 23.2603C168.289 23.8511 167.273 24.1465 165.97 24.1465C164.817 24.1465 163.897 23.8242 163.208 23.1797C162.525 22.5303 162.142 21.6245 162.059 20.4624H164.051C164.08 21.1069 164.266 21.6074 164.607 21.9639C164.949 22.3203 165.413 22.4985 165.999 22.4985C166.624 22.4985 167.107 22.3496 167.449 22.0518C167.796 21.749 167.969 21.3242 167.969 20.7773C167.969 20.2305 167.784 19.8032 167.413 19.4956C167.046 19.188 166.536 19.0342 165.882 19.0342H165.596V17.5986C166.241 17.54 166.744 17.3618 167.105 17.064C167.471 16.7612 167.654 16.373 167.654 15.8994C167.654 15.4258 167.505 15.0571 167.208 14.7935C166.915 14.5298 166.502 14.3979 165.97 14.3979C165.462 14.3979 165.054 14.5811 164.747 14.9473C164.444 15.3086 164.273 15.8115 164.234 16.4561H162.278C162.361 15.2939 162.742 14.3857 163.421 13.7314C164.104 13.0771 165.015 12.75 166.153 12.75C167.286 12.75 168.174 12.9746 168.819 13.4238C169.468 13.873 169.793 14.4736 169.793 15.2256C169.793 15.9678 169.466 16.5488 168.812 16.9688C168.157 17.3887 167.247 17.5986 166.08 17.5986V17.6279H166.211ZM176.714 16.8735C177.74 16.8735 178.536 17.1665 179.102 17.7524C179.668 18.3384 179.952 19.1611 179.952 20.2207C179.952 21.4463 179.571 22.4082 178.809 23.1064C178.052 23.7998 177.02 24.1465 175.711 24.1465C174.329 24.1465 173.274 23.6753 172.547 22.7329C171.824 21.7905 171.463 20.4282 171.463 18.646C171.463 16.7905 171.856 15.3452 172.642 14.3101C173.428 13.27 174.527 12.75 175.938 12.75C177.032 12.75 177.908 13.043 178.567 13.6289C179.231 14.21 179.61 15.0229 179.703 16.0679H177.688C177.63 15.5503 177.447 15.1426 177.139 14.8447C176.832 14.5469 176.431 14.3979 175.938 14.3979C175.186 14.3979 174.6 14.769 174.18 15.5112C173.76 16.2485 173.55 17.2739 173.55 18.5874V19.6934H173.58C173.58 18.8096 173.855 18.1187 174.407 17.6206C174.964 17.1226 175.733 16.8735 176.714 16.8735ZM175.682 22.4985C176.351 22.4985 176.875 22.3105 177.256 21.9346C177.637 21.5586 177.828 21.041 177.828 20.3818C177.828 19.7617 177.637 19.2808 177.256 18.939C176.875 18.5923 176.351 18.4189 175.682 18.4189C175.022 18.4189 174.505 18.5874 174.129 18.9243C173.753 19.2563 173.565 19.7227 173.565 20.3232C173.565 20.9922 173.758 21.522 174.144 21.9126C174.534 22.3032 175.047 22.4985 175.682 22.4985ZM188.748 22.645C187.991 23.646 186.937 24.1465 185.584 24.1465C184.231 24.1465 183.177 23.646 182.42 22.645C181.668 21.6392 181.292 20.2402 181.292 18.4482C181.292 16.6562 181.668 15.2598 182.42 14.2588C183.177 13.2529 184.231 12.75 185.584 12.75C186.937 12.75 187.991 13.2529 188.748 14.2588C189.51 15.2598 189.891 16.6562 189.891 18.4482C189.891 20.2402 189.51 21.6392 188.748 22.645ZM185.584 22.4985C186.263 22.4985 186.792 22.1421 187.173 21.4292C187.554 20.7114 187.745 19.7178 187.745 18.4482C187.745 17.1787 187.554 16.1875 187.173 15.4746C186.792 14.7568 186.263 14.3979 185.584 14.3979C184.91 14.3979 184.38 14.7568 183.995 15.4746C183.614 16.1924 183.423 17.1836 183.423 18.4482C183.423 19.7129 183.614 20.7041 183.995 21.4219C184.38 22.1396 184.91 22.4985 185.584 22.4985ZM193.567 17.5327C192.801 17.5327 192.203 17.3276 191.773 16.9175C191.348 16.5024 191.136 15.9238 191.136 15.1816C191.136 14.4395 191.348 13.8584 191.773 13.4385C192.203 13.0186 192.801 12.8086 193.567 12.8086C194.319 12.8086 194.905 13.0186 195.325 13.4385C195.75 13.8584 195.962 14.4395 195.962 15.1816C195.962 15.9238 195.75 16.5024 195.325 16.9175C194.905 17.3276 194.319 17.5327 193.567 17.5327ZM193.567 16.4561C193.88 16.4561 194.124 16.3438 194.3 16.1191C194.48 15.8945 194.571 15.582 194.571 15.1816C194.571 14.7812 194.48 14.4688 194.3 14.2441C194.124 14.0195 193.88 13.9072 193.567 13.9072C193.245 13.9072 192.991 14.0195 192.806 14.2441C192.62 14.4688 192.527 14.7812 192.527 15.1816C192.527 15.582 192.62 15.8945 192.806 16.1191C192.991 16.3438 193.245 16.4561 193.567 16.4561ZM200.54 17.042L206.29 19.5615V20.8652L200.54 23.3701V22.6377L206.202 20.2354V20.2061L200.54 17.7744V17.042Z" fill="white"/>
<path d="M24.7551 13.4821C24.7276 13.4821 24.7001 13.4821 24.6726 13.4546C24.5901 13.4271 24.5351 13.3721 24.5076 13.3171L23.4901 11.3096C23.4076 11.1721 23.4626 10.9796 23.6276 10.9246C23.7651 10.8421 23.9576 10.8971 24.0126 11.0621L24.8926 12.8221L26.6526 11.9421C26.7901 11.8596 26.9826 11.9146 27.0376 12.0796C27.1201 12.2171 27.0651 12.4096 26.9001 12.4646L24.8926 13.4821C24.8651 13.4546 24.8101 13.4821 24.7551 13.4821Z" fill="white"/>
<path d="M28.2201 26.1325C28.1376 26.1325 28.0551 26.105 28.0001 26.05L26.4876 24.3725C26.3776 24.2625 26.3776 24.07 26.5151 23.96L28.1926 22.4475C28.3026 22.3375 28.4951 22.3375 28.6051 22.475C28.7151 22.585 28.7151 22.7775 28.5776 22.8875L27.1201 24.2075L28.4401 25.665C28.5501 25.775 28.5501 25.94 28.4126 26.05C28.3576 26.105 28.3026 26.1325 28.2201 26.1325Z" fill="white"/>
<path d="M28 24.5096C27.56 24.5096 27.12 24.5096 26.68 24.4821C26.515 24.4821 26.405 24.3446 26.405 24.1796C26.405 24.0146 26.5425 23.8771 26.7075 23.9046C27.12 23.9321 27.56 23.9321 28 23.9321C33.6375 23.9321 38.4225 22.1446 38.4225 20.0271C38.4225 18.4596 35.7825 17.0021 31.8775 16.3971C31.7125 16.3696 31.6025 16.2321 31.63 16.0671C31.6575 15.9021 31.795 15.7921 31.96 15.8196C36.2225 16.4521 39 18.1021 39 19.9996C39 22.5296 34.16 24.5096 28 24.5096Z" fill="white"/>
<path d="M24.095 24.2077C24.0675 24.2077 24.0675 24.2077 24.04 24.2077C19.7775 23.5477 17 21.8977 17 20.0002C17 17.4702 21.84 15.4902 28 15.4902C28.605 15.4902 29.21 15.5177 29.815 15.5452C29.98 15.5452 30.09 15.7102 30.09 15.8477C30.09 16.0127 29.9525 16.1227 29.7875 16.1227C29.21 16.0952 28.605 16.0677 28.0275 16.0677C22.3625 16.0952 17.5775 17.8827 17.5775 20.0002C17.5775 21.5677 20.2175 23.0252 24.1225 23.6302C24.2875 23.6577 24.3975 23.7952 24.37 23.9602C24.3425 24.0977 24.2325 24.2077 24.095 24.2077Z" fill="white"/>
<path d="M28 30.9998C25.47 30.9998 23.49 26.1598 23.49 19.9998C23.49 18.6248 23.6 17.3048 23.7925 16.0398C23.82 15.8748 23.9575 15.7648 24.1225 15.7923C24.2875 15.8198 24.3975 15.9573 24.37 16.1223C24.1775 17.3598 24.095 18.6523 24.095 19.9998C24.095 25.6373 25.8825 30.4223 28 30.4223C29.5675 30.4223 31.025 27.7823 31.63 23.8773C31.6575 23.7123 31.795 23.6023 31.96 23.6298C32.125 23.6573 32.235 23.7948 32.2075 23.9598C31.5475 28.2223 29.8975 30.9998 28 30.9998Z" fill="white"/>
<path d="M32.1799 21.155C32.0149 21.155 31.8774 21.0175 31.8774 20.8525C31.8774 20.5775 31.8774 20.275 31.8774 20C31.8774 14.3625 30.0899 9.5775 27.9724 9.5775C26.8724 9.5775 25.7724 10.9525 25.0024 13.2625C24.9474 13.4275 24.7824 13.51 24.6174 13.455C24.4524 13.4 24.3699 13.235 24.4249 13.07C25.3324 10.485 26.5974 9 27.9999 9C30.5299 9 32.5099 13.84 32.5099 20C32.5099 20.3025 32.5099 20.5775 32.5099 20.88C32.4824 21.0175 32.3449 21.155 32.1799 21.155Z" fill="white"/>
</g>
<defs>
<filter id="filter0_d" x="0" y="0" width="220.116" height="60" filterUnits="userSpaceOnUse" color-interpolation-filters="sRGB">
<feFlood flood-opacity="0" result="BackgroundImageFix"/>
<feColorMatrix in="SourceAlpha" type="matrix" values="0 0 0 0 0 0 0 0 0 0 0 0 0 0 0 0 0 0 127 0" result="hardAlpha"/>
<feOffset dy="10"/>
<feGaussianBlur stdDeviation="5"/>
<feColorMatrix type="matrix" values="0 0 0 0 0 0 0 0 0 0 0 0 0 0 0 0 0 0 0.25 0"/>
<feBlend mode="normal" in2="BackgroundImageFix" result="effect1_dropShadow"/>
<feBlend mode="normal" in="SourceGraphic" in2="effect1_dropShadow" result="shape"/>
</filter>
</defs>
</svg>
