<svg width="106" height="40" viewBox="0 0 106 40" fill="none" xmlns="http://www.w3.org/2000/svg">
<path d="M88.8844 40H0V0H105.5V27.4824L88.8844 40Z" fill="#FF595A"/>
<path d="M28.3 22.395V19.11H33.46V17.505H28.3V14.505H33.985V12.9H26.23V24H34.15V22.395H28.3ZM40.1273 16.32C38.5973 16.32 37.6823 17.355 37.6823 19.11H37.6523V16.47H35.6723V24H37.6523V19.92C37.6523 18.645 38.2673 17.88 39.3173 17.88C40.2473 17.88 40.7873 18.48 40.7873 19.5V24H42.7673V19.41C42.7673 17.46 41.7923 16.32 40.1273 16.32ZM49.4103 16.47L47.7153 23.865H47.6853L45.9603 16.47H43.8453L45.8253 24H49.5603L51.5253 16.47H49.4103ZM52.8256 15.03H54.8056V13.155H52.8256V15.03ZM52.8256 24H54.8056V16.47H52.8256V24ZM62.106 16.47V19.05H62.076C62.076 17.34 61.071 16.32 59.391 16.32C57.501 16.32 56.391 17.775 56.391 20.235C56.391 22.695 57.501 24.15 59.391 24.15C61.071 24.15 62.076 23.13 62.076 21.405H62.106V24H64.086V16.47H62.106ZM60.306 22.575C59.106 22.575 58.401 21.705 58.401 20.235C58.401 18.765 59.106 17.88 60.306 17.88C61.506 17.88 62.211 18.84 62.211 20.235C62.211 21.615 61.506 22.575 60.306 22.575ZM70.3285 16.32C68.9035 16.32 68.0485 17.52 68.0485 19.575H68.0185V16.47H66.0385V24H68.0185V20.595C68.0185 19.005 68.7085 18.06 69.8635 18.06C70.2385 18.06 70.6135 18.165 70.9135 18.33L71.4835 16.56C71.1835 16.41 70.7635 16.32 70.3285 16.32ZM75.1449 17.04V17.775L80.7999 20.205V20.235L75.1449 22.635V23.37L80.8899 20.865V19.56L75.1449 17.04Z" fill="white"/>
</svg>
