<svg width="197" height="40" viewBox="0 0 197 40" fill="none" xmlns="http://www.w3.org/2000/svg">
<path d="M180.384 40H0V0H197V27.4824L180.384 40Z" fill="#FF595A"/>
<path d="M27.23 24H30.83C34.325 24 36.395 21.93 36.395 18.45C36.395 14.97 34.325 12.9 30.83 12.9H27.23V24ZM29.3 22.395V14.505H30.95C33.02 14.505 34.25 15.975 34.25 18.45C34.25 20.925 33.02 22.395 30.95 22.395H29.3ZM45.0103 20.235C45.0103 17.76 43.6303 16.32 41.3203 16.32C38.9803 16.32 37.6003 17.76 37.6003 20.235C37.6003 22.695 38.9803 24.15 41.3203 24.15C43.3603 24.15 44.7403 23.1 45.0103 21.315H43.0903C42.8953 22.14 42.2503 22.65 41.3203 22.65C40.2553 22.65 39.5953 21.84 39.5203 20.46H45.0103V20.235ZM41.3203 17.805C42.3103 17.805 42.9553 18.525 43.0753 19.785H39.5353C39.6703 18.525 40.3153 17.805 41.3203 17.805ZM49.4853 24.15C51.6303 24.15 52.9053 23.22 52.9053 21.675C52.9053 19.905 51.2853 19.635 49.9503 19.41C48.9903 19.245 48.1653 19.11 48.1653 18.435C48.1653 17.88 48.6603 17.55 49.4853 17.55C50.3553 17.55 50.8503 18 50.8503 18.795H52.6953C52.6953 17.235 51.4953 16.32 49.4853 16.32C47.4603 16.32 46.2603 17.175 46.2603 18.6C46.2603 20.325 47.8203 20.58 49.1253 20.79C50.1153 20.955 51.0003 21.105 51.0003 21.9C51.0003 22.53 50.4453 22.89 49.4853 22.89C48.4953 22.89 47.9103 22.395 47.9103 21.555H46.0653C46.0653 23.19 47.3253 24.15 49.4853 24.15ZM57.8915 24.15C59.9915 24.15 61.3265 23.04 61.6115 21.105H59.6615C59.4365 22.035 58.8215 22.575 57.8915 22.575C56.7215 22.575 56.0315 21.705 56.0315 20.235C56.0315 18.765 56.7215 17.88 57.8915 17.88C58.7765 17.88 59.3765 18.39 59.6315 19.26H61.5815C61.2815 17.4 59.9465 16.32 57.8915 16.32C55.4615 16.32 54.0065 17.775 54.0065 20.235C54.0065 22.695 55.4615 24.15 57.8915 24.15ZM68.3795 16.47V19.05H68.3495C68.3495 17.34 67.3445 16.32 65.6645 16.32C63.7745 16.32 62.6645 17.775 62.6645 20.235C62.6645 22.695 63.7745 24.15 65.6645 24.15C67.3445 24.15 68.3495 23.13 68.3495 21.405H68.3795V24H70.3595V16.47H68.3795ZM66.5795 22.575C65.3795 22.575 64.6745 21.705 64.6745 20.235C64.6745 18.765 65.3795 17.88 66.5795 17.88C67.7795 17.88 68.4845 18.84 68.4845 20.235C68.4845 21.615 67.7795 22.575 66.5795 22.575ZM76.6019 16.32C75.1769 16.32 74.3219 17.52 74.3219 19.575H74.2919V16.47H72.3119V24H74.2919V20.595C74.2919 19.005 74.9819 18.06 76.1369 18.06C76.5119 18.06 76.8869 18.165 77.1869 18.33L77.7569 16.56C77.4569 16.41 77.0369 16.32 76.6019 16.32ZM83.8775 16.47V19.05H83.8475C83.8475 17.34 82.8425 16.32 81.1625 16.32C79.2725 16.32 78.1625 17.76 78.1625 20.19C78.1625 22.62 79.2725 24.06 81.1625 24.06C82.8425 24.06 83.8475 23.04 83.8475 21.33H83.8775V24.21C83.8775 25.35 83.2025 26.025 82.0775 26.025C81.0725 26.025 80.3825 25.5 80.2625 24.615L78.3875 24.9C78.6575 26.595 80.0375 27.6 82.0775 27.6C84.4475 27.6 85.8575 26.295 85.8575 24.09V16.47H83.8775ZM82.0775 22.485C80.8775 22.485 80.1725 21.63 80.1725 20.19C80.1725 18.75 80.8775 17.88 82.0775 17.88C83.2775 17.88 83.9825 18.825 83.9825 20.19C83.9825 21.555 83.2775 22.485 82.0775 22.485ZM93.15 16.47V19.05H93.12C93.12 17.34 92.115 16.32 90.435 16.32C88.545 16.32 87.435 17.775 87.435 20.235C87.435 22.695 88.545 24.15 90.435 24.15C92.115 24.15 93.12 23.13 93.12 21.405H93.15V24H95.13V16.47H93.15ZM91.35 22.575C90.15 22.575 89.445 21.705 89.445 20.235C89.445 18.765 90.15 17.88 91.35 17.88C92.55 17.88 93.255 18.84 93.255 20.235C93.255 21.615 92.55 22.575 91.35 22.575ZM101.372 16.32C99.9474 16.32 99.0924 17.52 99.0924 19.575H99.0624V16.47H97.0824V24H99.0624V20.595C99.0624 19.005 99.7524 18.06 100.907 18.06C101.282 18.06 101.657 18.165 101.957 18.33L102.527 16.56C102.227 16.41 101.807 16.32 101.372 16.32ZM111.094 16.32C109.414 16.32 108.409 17.34 108.409 19.05H108.379V12.45H106.399V24H108.379V21.405H108.409C108.409 23.13 109.414 24.15 111.094 24.15C112.984 24.15 114.109 22.695 114.109 20.235C114.109 17.775 112.984 16.32 111.094 16.32ZM110.179 22.575C108.979 22.575 108.274 21.615 108.274 20.235C108.274 18.84 108.979 17.88 110.179 17.88C111.379 17.88 112.084 18.765 112.084 20.235C112.084 21.705 111.379 22.575 110.179 22.575ZM119.961 16.32C118.536 16.32 117.681 17.52 117.681 19.575H117.651V16.47H115.671V24H117.651V20.595C117.651 19.005 118.341 18.06 119.496 18.06C119.871 18.06 120.246 18.165 120.546 18.33L121.116 16.56C120.816 16.41 120.396 16.32 119.961 16.32ZM125.393 24.15C127.853 24.15 129.308 22.695 129.308 20.235C129.308 17.775 127.853 16.32 125.393 16.32C122.933 16.32 121.463 17.775 121.463 20.235C121.463 22.695 122.933 24.15 125.393 24.15ZM125.393 22.575C124.193 22.575 123.488 21.705 123.488 20.235C123.488 18.765 124.193 17.88 125.393 17.88C126.593 17.88 127.298 18.765 127.298 20.235C127.298 21.705 126.593 22.575 125.393 22.575ZM134.327 24.15C136.427 24.15 137.762 23.04 138.047 21.105H136.097C135.872 22.035 135.257 22.575 134.327 22.575C133.157 22.575 132.467 21.705 132.467 20.235C132.467 18.765 133.157 17.88 134.327 17.88C135.212 17.88 135.812 18.39 136.067 19.26H138.017C137.717 17.4 136.382 16.32 134.327 16.32C131.897 16.32 130.442 17.775 130.442 20.235C130.442 22.695 131.897 24.15 134.327 24.15ZM143.93 16.32C142.4 16.32 141.485 17.355 141.485 19.11H141.455V12.45H139.475V24H141.455V19.92C141.455 18.645 142.07 17.88 143.12 17.88C144.05 17.88 144.59 18.48 144.59 19.5V24H146.57V19.41C146.57 17.46 145.595 16.32 143.93 16.32ZM153.33 16.47V20.535C153.33 21.825 152.745 22.575 151.755 22.575C150.87 22.575 150.345 21.99 150.345 20.97V16.47H148.365V21.06C148.365 22.995 149.325 24.15 150.945 24.15C152.43 24.15 153.3 23.1 153.3 21.345H153.33V24H155.31V16.47H153.33ZM161.548 16.32C160.123 16.32 159.268 17.52 159.268 19.575H159.238V16.47H157.258V24H159.238V20.595C159.238 19.005 159.928 18.06 161.083 18.06C161.458 18.06 161.833 18.165 162.133 18.33L162.703 16.56C162.403 16.41 161.983 16.32 161.548 16.32ZM170.459 20.235C170.459 17.76 169.079 16.32 166.769 16.32C164.429 16.32 163.049 17.76 163.049 20.235C163.049 22.695 164.429 24.15 166.769 24.15C168.809 24.15 170.189 23.1 170.459 21.315H168.539C168.344 22.14 167.699 22.65 166.769 22.65C165.704 22.65 165.044 21.84 164.969 20.46H170.459V20.235ZM166.769 17.805C167.759 17.805 168.404 18.525 168.524 19.785H164.984C165.119 18.525 165.764 17.805 166.769 17.805Z" fill="white"/>
</svg>
