<svg width="172" height="99" viewBox="0 0 172 99" fill="none" xmlns="http://www.w3.org/2000/svg">
<path d="M0 99.2303H172V0.396484L0 99.2303Z" fill="url(#paint0_linear)"/>
<path opacity="0.3" d="M128.537 24.6745C130.654 28.313 125.957 34.9945 118.018 39.5591C110.08 44.1238 101.943 44.8514 99.8261 41.1468C97.7092 37.4422 102.406 30.8268 110.345 26.2622C118.283 21.7638 126.42 21.0361 128.537 24.6745Z" fill="url(#paint1_radial)"/>
<path opacity="0.3" d="M135.682 38.7658C134.358 41.015 129.992 40.8827 125.891 38.5673C121.789 36.1858 119.474 32.4812 120.797 30.2319C122.12 27.9827 126.486 28.115 130.588 30.4304C134.755 32.8119 137.005 36.5165 135.682 38.7658Z" fill="url(#paint2_radial)"/>
<path d="M149.839 80.3764L156.653 71.181V69.9902H146.002V72.3056H152.617L145.803 81.4348V81.501V82.6918H156.917V80.3764H149.839Z" fill="#1F2A51"/>
<path d="M100.289 76.0099C100.289 78.8545 98.371 80.8392 95.5925 80.8392C92.8802 80.8392 90.8956 78.7884 90.8956 76.0099V65.5576H88.051V76.0099C88.051 80.1776 91.2263 83.2207 95.5925 83.2207C99.8925 83.2207 103.068 80.1776 103.068 76.0099V65.5576H100.289V76.0099Z" fill="#1F2A51"/>
<path d="M122.252 80.9057C119.739 80.9057 117.82 78.9873 117.82 76.4734C117.82 73.9596 119.739 72.1073 122.252 72.1073C124.766 72.1073 126.685 74.0257 126.685 76.4734C126.685 79.0534 124.832 80.9057 122.252 80.9057ZM122.517 69.7919C120.532 69.7919 118.879 70.5196 117.886 71.7765V64.8965H115.306V82.6919H117.886V81.1042C118.879 82.4273 120.532 83.1549 122.451 83.1549C126.354 83.1549 129.265 80.3103 129.265 76.4734C129.331 72.7026 126.42 69.7919 122.517 69.7919Z" fill="#1F2A51"/>
<path d="M137.269 80.443C134.888 80.443 133.168 78.7892 133.168 76.4076C133.168 73.9599 134.888 72.1738 137.269 72.1738C139.585 72.1738 141.371 73.9599 141.371 76.4076C141.371 78.723 139.651 80.443 137.269 80.443ZM141.305 71.4461C140.18 70.3876 138.725 69.8584 137.071 69.8584C133.3 69.8584 130.456 72.703 130.456 76.4076C130.456 80.1784 133.168 82.8246 137.071 82.8246C138.791 82.8246 140.246 82.2292 141.371 81.1707V82.6922H143.951V69.9907H141.239V71.4461H141.305Z" fill="#1F2A51"/>
<path d="M111.999 69.9902L108.294 73.4302V69.9902H105.714V82.6918H108.36L108.294 76.8702L113.785 71.6441L111.999 69.9902Z" fill="#1F2A51"/>
<path d="M97.6433 54.7754H98.1725V57.9508C98.1725 58.8108 98.5695 59.2738 99.3633 59.2738C100.157 59.2738 100.554 58.7446 100.554 57.9508V54.7754H101.083V57.9508C101.083 58.5462 100.951 58.9431 100.62 59.34C100.289 59.6708 99.8925 59.8692 99.3633 59.8692C98.2387 59.8692 97.6433 59.1415 97.6433 58.0169V54.7754Z" fill="#1F2A51"/>
<path d="M102.34 59.7368V56.0984H102.87V56.6276H102.936C103.068 56.2968 103.465 56.0322 103.994 56.0322C104.391 56.0322 104.722 56.1645 104.92 56.4292C105.185 56.6938 105.251 57.0245 105.251 57.4876V59.803H104.722V57.5538C104.722 57.2892 104.656 57.0245 104.457 56.8261C104.259 56.6276 104.06 56.5615 103.796 56.5615C103.531 56.5615 103.266 56.6938 103.068 56.8922C102.87 57.0907 102.803 57.3553 102.803 57.6199V59.803H102.34V59.7368Z" fill="#1F2A51"/>
<path d="M108.228 61.3243V56.032H108.757V56.6274H108.823C108.889 56.5612 108.889 56.4951 109.088 56.3627C109.286 56.1643 109.617 55.9658 110.08 55.9658C110.609 55.9658 111.006 56.1643 111.337 56.4951C111.668 56.8258 111.8 57.2889 111.8 57.8843C111.8 58.4797 111.668 58.9427 111.337 59.2735C111.006 59.6043 110.609 59.8027 110.146 59.8027C109.816 59.8027 109.485 59.6704 109.286 59.5381C109.088 59.4058 109.022 59.2735 108.889 59.1412H108.823V61.3243H108.228ZM109.088 58.9427C109.353 59.2074 109.617 59.3397 109.948 59.3397C110.279 59.3397 110.609 59.2074 110.808 58.9427C111.006 58.6781 111.139 58.3474 111.139 57.8843C111.139 57.4874 111.006 57.0904 110.808 56.8258C110.609 56.5612 110.279 56.4289 109.948 56.4289C109.617 56.4289 109.286 56.5612 109.088 56.8258C108.889 57.0904 108.757 57.4212 108.757 57.8181C108.757 58.3474 108.889 58.6781 109.088 58.9427Z" fill="#1F2A51"/>
<path d="M112.66 59.7371V56.0986H113.189V56.7602H113.256C113.322 56.5617 113.454 56.4294 113.586 56.2971C113.785 56.1648 113.983 56.0986 114.182 56.0986H114.446V56.6279H114.182C113.586 56.6279 113.189 57.0909 113.189 57.8186V59.7371H112.66Z" fill="#1F2A51"/>
<path d="M115.571 56.4951C115.902 56.0981 116.365 55.9658 116.894 55.9658C117.423 55.9658 117.82 56.1643 118.217 56.4951C118.548 56.892 118.746 57.2889 118.746 57.8843C118.746 58.4135 118.548 58.8766 118.217 59.2735C117.886 59.6704 117.423 59.8027 116.894 59.8027C115.902 59.8027 115.042 59.0089 115.108 57.8843C115.108 57.3551 115.24 56.892 115.571 56.4951ZM115.968 58.9427C116.233 59.2074 116.497 59.3397 116.894 59.3397C117.291 59.3397 117.556 59.2074 117.82 58.9427C118.085 58.6781 118.151 58.3474 118.151 57.9504C118.151 57.5535 118.019 57.2227 117.82 56.9581C117.556 56.6935 117.291 56.5612 116.894 56.5612C116.497 56.5612 116.233 56.6935 115.968 56.9581C115.703 57.2227 115.637 57.5535 115.637 57.9504C115.637 58.2812 115.769 58.612 115.968 58.9427Z" fill="#1F2A51"/>
<path d="M119.276 56.0322H119.871L120.929 59.1415H120.996L122.054 56.0322H122.649L120.996 60.5307C120.797 61.0599 120.532 61.3245 120.003 61.3245H119.672V60.8615H119.937C120.268 60.8615 120.466 60.7292 120.599 60.3984L120.731 59.9353L119.276 56.0322Z" fill="#1F2A51"/>
<path d="M124.833 55.9658C125.891 55.9658 126.553 56.8258 126.486 57.8181V58.0827H123.708C123.708 58.8104 124.171 59.2735 124.899 59.2735C125.362 59.2735 125.825 59.0089 125.957 58.612H126.486C126.288 59.3397 125.693 59.8027 124.899 59.8027C123.84 59.8027 123.179 59.0089 123.179 57.8843C123.179 56.6935 123.906 55.9658 124.833 55.9658ZM125.957 57.6197C125.891 56.892 125.428 56.4951 124.833 56.4951C124.502 56.4951 124.303 56.6274 124.039 56.8258C123.84 57.0243 123.708 57.2889 123.708 57.6197H125.957Z" fill="#1F2A51"/>
<path d="M130.059 56.2961C130.389 56.5607 130.588 56.8253 130.654 57.2222H130.125C129.993 56.7592 129.529 56.4284 129.066 56.4284C128.669 56.4284 128.405 56.5607 128.14 56.8253C127.876 57.0899 127.809 57.4207 127.809 57.8176C127.809 58.2145 127.942 58.5453 128.14 58.8099C128.405 59.0745 128.669 59.2069 129.066 59.2069C129.596 59.2069 129.993 58.8761 130.125 58.413H130.654C130.588 58.8099 130.389 59.1407 130.059 59.3392C129.728 59.6038 129.397 59.6699 129 59.6699C127.942 59.6699 127.214 58.8099 127.214 57.7515C127.214 56.693 128.008 55.833 129 55.833C129.397 55.9653 129.728 56.0976 130.059 56.2961Z" fill="#1F2A51"/>
<path d="M131.25 56.5616V56.0985H131.779C131.911 56.0985 131.977 56.0323 131.977 55.9V55.04H132.44V56.0985H133.499V56.5616H132.44V58.6123C132.44 59.0093 132.573 59.2077 132.97 59.2077H133.433V59.6708H132.97C132.308 59.6708 131.911 59.2739 131.911 58.5462V56.4954H131.25V56.5616Z" fill="#1F2A51"/>
<path d="M134.689 56.4951C135.02 56.0981 135.483 55.9658 136.013 55.9658C136.542 55.9658 136.939 56.1643 137.336 56.4951C137.666 56.892 137.865 57.2889 137.865 57.8843C137.865 58.4135 137.666 58.8766 137.336 59.2735C137.005 59.6704 136.542 59.8027 136.013 59.8027C135.02 59.8027 134.16 59.0089 134.226 57.8843C134.16 57.3551 134.359 56.892 134.689 56.4951ZM135.086 58.9427C135.351 59.2074 135.616 59.3397 136.013 59.3397C136.409 59.3397 136.674 59.2074 136.939 58.9427C137.203 58.6781 137.269 58.3474 137.269 57.9504C137.269 57.5535 137.137 57.2227 136.939 56.9581C136.674 56.6935 136.409 56.5612 136.013 56.5612C135.616 56.5612 135.351 56.6935 135.086 56.9581C134.822 57.2227 134.756 57.5535 134.756 57.9504C134.689 58.2812 134.822 58.612 135.086 58.9427Z" fill="#1F2A51"/>
<path d="M140.842 56.4951C141.173 56.1643 141.569 55.9659 142.033 55.9659C142.363 55.9659 142.694 56.0982 142.893 56.2305C143.091 56.3628 143.223 56.4951 143.289 56.6274H143.356V54.4443H143.885V59.7366H143.356V59.1413H143.289C143.025 59.6043 142.562 59.8028 142.099 59.8028C141.569 59.8028 141.173 59.6043 140.842 59.2736C140.511 58.9428 140.379 58.4797 140.379 57.8843C140.313 57.3551 140.511 56.892 140.842 56.4951ZM141.239 58.9428C141.437 59.2074 141.768 59.3397 142.099 59.3397C142.429 59.3397 142.76 59.2074 142.959 58.9428C143.157 58.6782 143.289 58.3474 143.289 57.9505C143.289 57.4874 143.157 57.1566 142.959 56.892C142.76 56.6274 142.429 56.4951 142.099 56.4951C141.768 56.4951 141.437 56.6274 141.239 56.892C141.04 57.1566 140.908 57.4874 140.908 57.8843C140.908 58.3474 140.974 58.6782 141.239 58.9428Z" fill="#1F2A51"/>
<path d="M146.399 55.9658C147.457 55.9658 148.119 56.8258 148.053 57.8181V58.0827H145.208C145.208 58.8104 145.671 59.2735 146.399 59.2735C146.862 59.2735 147.325 59.0089 147.457 58.612H147.986C147.788 59.3397 147.193 59.8027 146.399 59.8027C145.34 59.8027 144.679 59.0089 144.679 57.8843C144.679 56.6935 145.473 55.9658 146.399 55.9658ZM147.523 57.6197C147.457 56.892 146.994 56.4951 146.399 56.4951C146.068 56.4951 145.87 56.6274 145.605 56.8258C145.406 57.0243 145.274 57.2889 145.274 57.6197H147.523Z" fill="#1F2A51"/>
<path d="M125.428 21.5662V0H114.909V21.5662L96.0554 32.2831L101.348 41.3462L120.135 30.5631L138.989 41.3462L144.215 32.2831L125.428 21.5662Z" fill="url(#paint3_linear)"/>
<defs>
<linearGradient id="paint0_linear" x1="85.522" y1="49.1017" x2="101.28" y2="73.0818" gradientUnits="userSpaceOnUse">
<stop stop-color="#B8B8B8"/>
<stop offset="0.2902" stop-color="#E6E6E6"/>
<stop offset="1" stop-color="white"/>
</linearGradient>
<radialGradient id="paint1_radial" cx="0" cy="0" r="1" gradientUnits="userSpaceOnUse" gradientTransform="translate(114.213 32.9329) rotate(-29.873) scale(16.5409 7.65869)">
<stop/>
<stop offset="1" stop-opacity="0"/>
</radialGradient>
<radialGradient id="paint2_radial" cx="0" cy="0" r="1" gradientUnits="userSpaceOnUse" gradientTransform="translate(128.263 34.4809) rotate(29.87) scale(8.58506 4.68944)">
<stop/>
<stop offset="1" stop-opacity="0"/>
</radialGradient>
<linearGradient id="paint3_linear" x1="96.0778" y1="20.6796" x2="144.238" y2="20.6796" gradientUnits="userSpaceOnUse">
<stop offset="0.25" stop-color="#FF6A39"/>
<stop offset="0.5126" stop-color="#FF6D37"/>
<stop offset="0.7235" stop-color="#FF7730"/>
<stop offset="0.9158" stop-color="#FF8825"/>
<stop offset="1" stop-color="#FF921E"/>
</linearGradient>
</defs>
</svg>
