<svg width="284" height="131" viewBox="0 0 284 131" fill="none" xmlns="http://www.w3.org/2000/svg">
<path d="M131.406 19.2021V0H158.458L131.406 19.2021Z" fill="white"/>
<path d="M131.406 19.2022H158.458V38.4043L131.406 19.2022Z" fill="white"/>
<path d="M131.406 57.6584V38.4043H158.458L131.406 57.6584Z" fill="white"/>
<path d="M147.877 69.6793L148.085 69.315H140.319V75.0392H136.826V80.4512H140.319V94.5536C140.319 96.6871 140.996 98.4044 142.299 99.7054C143.603 101.006 145.375 101.683 147.46 101.683H152.255V96.2708H148.607C148.085 96.2708 147.668 96.1147 147.356 95.8025C147.043 95.4903 146.886 95.074 146.886 94.5536V80.4512H152.307V75.0392H144.02L147.877 69.6793Z" fill="white"/>
<path d="M170.186 76.6525C169.039 77.5891 168.153 78.786 167.528 80.2951V75.0913H160.96V101.735H167.528V85.7592C167.528 84.3541 167.945 83.1572 168.831 82.3246C169.665 81.492 170.864 81.0237 172.271 81.0237H177.536V74.8311H175.451C173.418 74.8311 171.645 75.4556 170.186 76.6525Z" fill="white"/>
<path d="M184.885 93.4608V101.735H191.453V75.0913H184.885V93.4608Z" fill="white"/>
<path d="M191.557 65.256H184.729V71.6568H191.557V65.256Z" fill="white"/>
<path d="M212.876 75.0913H201.461V80.5033H211.729C212.772 80.5033 213.606 80.8155 214.231 81.44C214.857 82.0644 215.169 82.8971 215.169 83.9378V85.2388H208.445C205.683 85.2388 203.441 86.0714 201.721 87.6846C200.001 89.2978 199.115 91.4313 199.115 94.0332C199.115 96.479 199.845 98.4565 201.356 99.9136C202.816 101.423 204.797 102.151 207.194 102.151C209.227 102.151 210.999 101.579 212.511 100.382C213.658 99.4973 214.544 98.3004 215.169 96.8954V101.683H221.737V83.9378C221.737 81.2839 220.903 79.1503 219.287 77.5371C217.671 75.9239 215.482 75.0913 212.876 75.0913ZM215.222 90.1824V92.316C215.065 93.669 214.492 94.7618 213.554 95.5944C212.615 96.375 211.416 96.7913 210.009 96.7913C208.706 96.7913 207.664 96.479 206.882 95.8546C206.1 95.2301 205.735 94.3975 205.735 93.3567C205.735 92.42 206.1 91.6395 206.777 91.0671C207.507 90.4426 208.445 90.1304 209.644 90.1304H215.222V90.1824Z" fill="white"/>
<path d="M246.705 80.0871C246.079 78.63 245.141 77.3811 243.89 76.4444C242.326 75.2475 240.398 74.6231 238.26 74.6231C235.654 74.6231 233.517 75.4557 231.901 77.1209C230.285 78.7861 229.451 81.0238 229.451 83.7298V93.0446C229.451 95.8027 230.285 98.0403 231.901 99.6535C233.517 101.319 235.654 102.151 238.26 102.151C240.45 102.151 242.326 101.527 243.89 100.33C245.089 99.3933 246.027 98.1444 246.705 96.6873V101.683H253.272V65.2041H246.705V80.0871ZM245.245 81.4401C246.235 82.4288 246.705 83.7298 246.705 85.395V91.4835C246.705 93.0967 246.183 94.4496 245.245 95.4384C244.255 96.4271 242.952 96.8955 241.336 96.8955C239.72 96.8955 238.417 96.4271 237.479 95.4384C236.54 94.4496 236.019 93.1487 236.019 91.4835V85.395C236.019 83.7818 236.488 82.4288 237.479 81.4401C238.417 80.4513 239.72 79.983 241.336 79.983C242.952 79.983 244.255 80.4513 245.245 81.4401Z" fill="white"/>
<path d="M281.159 77.5371C279.543 75.9239 277.354 75.0913 274.748 75.0913H263.332V80.5033H273.601C274.643 80.5033 275.477 80.8155 276.103 81.44C276.728 82.0644 277.041 82.8971 277.041 83.9378V85.2388H270.317C267.554 85.2388 265.313 86.0714 263.593 87.6846C261.873 89.2978 260.987 91.4313 260.987 94.0332C260.987 96.479 261.716 98.4565 263.228 99.9136C264.688 101.423 266.668 102.151 269.066 102.151C271.099 102.151 272.871 101.579 274.383 100.382C275.529 99.4973 276.415 98.3004 277.041 96.8954V101.683H283.609V83.9378C283.609 81.3359 282.775 79.1503 281.159 77.5371ZM277.041 90.1824V92.316C276.885 93.669 276.311 94.7618 275.373 95.5944C274.435 96.375 273.236 96.7913 271.829 96.7913C270.525 96.7913 269.483 96.479 268.701 95.8546C267.919 95.2301 267.554 94.3975 267.554 93.3567C267.554 92.42 267.919 91.6395 268.597 91.0671C269.327 90.4426 270.265 90.1304 271.464 90.1304H277.041V90.1824Z" fill="white"/>
<path d="M77.2483 118.699V126.817C77.2483 127.91 76.8835 128.795 76.1537 129.471C75.424 130.148 74.4336 130.46 73.2869 130.46C72.088 130.46 71.1498 130.148 70.4201 129.471C69.6903 128.795 69.3254 127.91 69.3254 126.817V118.699H70.7849V127.026C70.7849 127.702 70.9934 128.275 71.4625 128.691C71.9317 129.107 72.5572 129.315 73.2869 129.315C74.0166 129.315 74.6421 129.107 75.1112 128.691C75.5804 128.275 75.7889 127.702 75.7889 127.026V118.699H77.2483Z" fill="white"/>
<path d="M90.7485 119.792V130.252H89.2891V118.699H93.1463C94.1887 118.699 95.0227 119.012 95.6482 119.532C96.2737 120.105 96.5865 120.885 96.5865 121.822V122.29C96.5865 123.123 96.3259 123.799 95.8567 124.32C95.3876 124.892 94.71 125.204 93.876 125.36L96.7428 129.419V130.252H95.6482L91.6347 124.372H93.0941C93.6675 124.372 94.1888 124.216 94.5015 123.851C94.8664 123.539 95.0227 123.071 95.0227 122.55V121.614C95.0227 121.093 94.8664 120.625 94.5015 120.313C94.1366 120 93.6675 119.792 93.0941 119.792H90.7485Z" fill="white"/>
<path d="M108.367 118.699H112.484C113.371 118.699 114.1 118.96 114.674 119.428C115.247 119.948 115.508 120.573 115.508 121.405V121.77C115.508 122.446 115.351 122.967 114.986 123.435C114.621 123.903 114.152 124.216 113.475 124.372C114.205 124.476 114.778 124.788 115.195 125.256C115.612 125.725 115.82 126.349 115.82 127.078V127.494C115.82 128.327 115.56 129.003 114.986 129.471C114.413 129.992 113.683 130.252 112.797 130.252H108.314V118.699H108.367ZM109.826 119.792V123.799H112.12C112.693 123.799 113.162 123.643 113.527 123.331C113.892 123.019 114.048 122.602 114.048 122.03V121.562C114.048 121.041 113.892 120.625 113.527 120.261C113.162 119.948 112.693 119.792 112.12 119.792H109.826ZM109.826 124.944V129.107H112.432C113.006 129.107 113.475 128.951 113.84 128.639C114.205 128.327 114.361 127.91 114.361 127.338V126.713C114.361 126.193 114.205 125.777 113.84 125.412C113.475 125.1 113.006 124.944 112.432 124.944H109.826Z" fill="white"/>
<path d="M153.975 118.699V130.252H151.89L147.408 119.584V130.252H146.052V118.699H148.137L152.62 129.367V118.699H153.975Z" fill="white"/>
<path d="M179.568 130.252H178.213V119.636L175.555 127.494H173.783L171.124 119.636V130.252H169.769V118.699H171.958L174.669 126.713L177.379 118.699H179.568V130.252Z" fill="white"/>
<path d="M193.173 118.699H191.713V130.252H193.173V118.699Z" fill="white"/>
<path d="M204.588 129.419L207.194 124.32L204.797 119.532V118.699H205.995L208.393 123.695L210.791 118.699H212.042V119.532L209.644 124.32L212.198 129.419V130.252H210.999L208.393 124.892L205.787 130.252H204.588V129.419Z" fill="white"/>
<path d="M131.77 118.699H129.373L126.402 129.419V130.252H127.705L130.572 119.48L133.438 130.252H134.742V129.419L131.77 118.699Z" fill="white"/>
<path d="M10.894 69.6272L10.9461 69.4711H3.80508V75.1953H0V79.5665H3.80508V95.126C3.80508 97.0514 4.37845 98.6125 5.57731 99.8094C6.72404 101.006 8.3399 101.579 10.2685 101.579H14.9076V97.2075H11.1546C10.5291 97.2075 10.0079 96.9993 9.64301 96.6351C9.27814 96.2708 9.06964 95.7504 9.06964 95.126V79.5665H14.9076V75.1953H6.72404L10.894 69.6272Z" fill="white"/>
<path d="M36.852 74.7791C33.3597 74.7791 30.545 75.8719 28.4079 78.0055C26.2708 80.139 25.1761 83.0012 25.1761 86.4877V90.3386C25.1761 93.8251 26.2708 96.6872 28.4079 98.8208C30.545 100.954 33.4118 101.995 36.852 101.995C40.3443 101.995 43.2112 100.902 45.3483 98.8208C47.4854 96.6872 48.5279 93.8251 48.5279 90.3386V86.4877C48.5279 83.0012 47.4332 80.139 45.3483 78.0055C43.2112 75.8719 40.3443 74.7791 36.852 74.7791ZM43.2633 91.0151C43.2633 92.9405 42.6899 94.5016 41.4911 95.6465C40.2922 96.7913 38.7285 97.4158 36.852 97.4158C34.9234 97.4158 33.3597 96.8434 32.2129 95.6465C31.0662 94.5016 30.4928 92.9405 30.4928 91.0151V85.7592C30.4928 83.8338 31.0662 82.3247 32.2129 81.1278C33.3597 79.9829 34.9234 79.4105 36.852 79.4105C38.7806 79.4105 40.3443 79.9829 41.4911 81.1278C42.6899 82.2726 43.2633 83.8338 43.2633 85.7592V91.0151Z" fill="white"/>
<path d="M65.7809 76.7565C64.4778 77.7972 63.4875 79.1502 62.862 80.8675V75.1953H57.5974V101.579H62.862V85.4989C62.862 83.8337 63.3832 82.4807 64.4778 81.4399C65.5203 80.4512 66.9277 79.9308 68.6478 79.9308H73.339V74.9872H71.254C69.0648 74.9872 67.2925 75.6116 65.7809 76.7565Z" fill="white"/>
<path d="M91.374 76.7565C90.0709 77.7972 89.0805 79.1502 88.455 80.8675V75.1953H83.1904V101.579H88.455V85.4989C88.455 83.8337 88.9762 82.4807 90.0187 81.4399C91.0612 80.4512 92.4686 79.9308 94.1887 79.9308H98.8799V74.9872H96.7949C94.7099 74.9872 92.8856 75.6116 91.374 76.7565Z" fill="white"/>
<path d="M128.174 90.1825V86.2796C128.174 82.8451 127.131 80.035 125.046 77.9535C122.961 75.8719 120.199 74.7791 116.811 74.7791C113.423 74.7791 110.66 75.8719 108.575 77.9535C106.542 80.035 105.5 82.8451 105.5 86.2796V90.4426C105.5 93.8772 106.542 96.6872 108.627 98.7688C110.712 100.85 113.475 101.943 116.915 101.943C119.886 101.943 122.336 101.163 124.317 99.5493C126.141 98.0923 127.288 96.0628 127.861 93.669H122.961C122.544 94.7098 121.971 95.5944 121.085 96.2189C119.99 96.9995 118.687 97.4158 117.176 97.4158C115.195 97.4158 113.579 96.8433 112.432 95.6985C111.233 94.5537 110.66 92.9925 110.66 91.0671V90.1304H128.174V90.1825ZM110.556 85.499C110.556 83.6777 111.129 82.1686 112.328 81.0237C113.475 79.8789 115.091 79.3585 116.967 79.3585C118.844 79.3585 120.407 79.9309 121.554 81.0237C122.701 82.1686 123.274 83.6777 123.274 85.499V86.2796H110.504V85.499H110.556Z" fill="white"/>
</svg>
