<svg width="127" height="87" viewBox="0 0 127 87" fill="none" xmlns="http://www.w3.org/2000/svg">
<g clip-path="url(#clip0)">
<path d="M9.55567 38.889L9.71493 38.5742H3.03457V43.5668H0V48.2663H3.03457V60.4891C3.03457 62.3258 3.61135 63.8348 4.75201 64.9773C5.89266 66.1198 7.39919 66.6976 9.22854 66.6976H13.3822V61.9981H10.2271C9.76658 61.9981 9.40501 61.8645 9.12954 61.5885C8.85406 61.3169 8.71632 60.9418 8.71632 60.4891V48.2663H13.3865V43.5668H6.21549L9.55567 38.889Z" fill="white"/>
<path d="M28.8434 44.9377C27.8663 45.7526 27.1002 46.8088 26.5578 48.0893V43.571H20.8804V66.7017H26.5578V52.819C26.5578 51.5816 26.9323 50.5813 27.677 49.8398C28.4173 49.0982 29.4202 48.7274 30.6556 48.7274H35.2182V43.3468H33.419C31.6585 43.3382 30.1175 43.8771 28.8434 44.9377Z" fill="white"/>
<path d="M41.5845 59.5407V66.7019H47.2619V43.5669H41.5845V59.5407Z" fill="white"/>
<path d="M47.3564 35.0347H41.4465V40.6093H47.3564V35.0347Z" fill="white"/>
<path d="M65.8049 43.5669H55.9394V48.2663H64.8106C65.7146 48.2663 66.4463 48.538 66.9929 49.0855C67.5396 49.6331 67.8151 50.3703 67.8151 51.2757V52.4225H61.9956C59.6239 52.4225 57.6697 53.1296 56.1847 54.5265C54.6954 55.9234 53.9421 57.7816 53.9421 60.0408C53.9421 62.1448 54.5878 63.865 55.8619 65.1628C57.136 66.4519 58.8362 67.1115 60.9066 67.1115C62.6628 67.1115 64.2123 66.5985 65.5036 65.5853C66.4936 64.8092 67.2684 63.7874 67.8108 62.5544V66.7019H73.4925V51.2757C73.4925 48.9863 72.778 47.1109 71.3705 45.701C69.9543 44.2826 68.082 43.5669 65.8049 43.5669ZM67.8151 58.5146C67.673 59.6959 67.1909 60.653 66.3903 61.3558C65.5854 62.0542 64.5524 62.4121 63.3127 62.4121C62.1936 62.4121 61.2854 62.1405 60.6139 61.6015C59.951 61.0583 59.6282 60.3555 59.6282 59.4501C59.6282 58.6353 59.9295 57.9799 60.5493 57.4583C61.1735 56.9323 62.0128 56.6693 63.0416 56.6693H67.8194V58.5146H67.8151Z" fill="white"/>
<path d="M95.0875 47.9172C94.5323 46.6324 93.7187 45.5718 92.6599 44.7483C91.304 43.692 89.6597 43.1574 87.7744 43.1574C85.5189 43.1574 83.6681 43.8903 82.2735 45.3346C80.8789 46.7746 80.1772 48.7105 80.1772 51.0904V59.17C80.1772 61.5499 80.8832 63.49 82.2735 64.9257C83.6724 66.37 85.5233 67.1073 87.7744 67.1073C89.6511 67.1073 91.2954 66.5683 92.6599 65.5121C93.7144 64.7015 94.528 63.6366 95.0875 62.3475V66.6934H100.765V35.0347H95.0875V47.9172ZM95.0875 57.7688C95.0875 59.1872 94.6571 60.3384 93.8134 61.1834C92.9698 62.0284 91.8377 62.4553 90.4474 62.4553C89.0571 62.4553 87.938 62.0284 87.1073 61.1834C86.2765 60.3384 85.8547 59.1872 85.8547 57.7688V52.5045C85.8547 51.0904 86.2765 49.9392 87.1073 49.0899C87.938 48.2448 89.0614 47.818 90.4474 47.818C91.8291 47.818 92.9612 48.2448 93.8134 49.0899C94.6571 49.9392 95.0875 51.0904 95.0875 52.5045V57.7688Z" fill="white"/>
<path d="M124.878 45.701C123.462 44.2869 121.589 43.5669 119.312 43.5669H109.447V48.2663H118.314C119.218 48.2663 119.949 48.538 120.5 49.0855C121.047 49.6331 121.322 50.3703 121.322 51.2757V52.4225H115.507C113.136 52.4225 111.181 53.1296 109.696 54.5265C108.207 55.9234 107.454 57.7816 107.454 60.0408C107.454 62.1448 108.1 63.865 109.374 65.1628C110.652 66.4519 112.348 67.1115 114.418 67.1115C116.174 67.1115 117.724 66.5985 119.015 65.5853C120.01 64.8092 120.78 63.7874 121.322 62.5544V66.7019H127.004V51.2757C127 48.9863 126.285 47.1109 124.878 45.701ZM121.318 58.5146C121.176 59.6959 120.698 60.653 119.893 61.3558C119.089 62.0542 118.056 62.4121 116.816 62.4121C115.697 62.4121 114.788 62.1405 114.117 61.6015C113.454 61.0583 113.131 60.3555 113.131 59.4501C113.131 58.6353 113.433 57.9799 114.052 57.4583C114.677 56.9323 115.516 56.6693 116.545 56.6693H121.322V58.5146H121.318Z" fill="white"/>
<path d="M4.69605 84.4818C4.69605 84.9776 4.52818 85.3786 4.19244 85.6847C3.8567 85.9908 3.41766 86.1417 2.87961 86.1417C2.34157 86.1417 1.90253 85.9908 1.56679 85.6847C1.23105 85.3786 1.06318 84.9776 1.06318 84.4818V78.4717H0V84.3611C0 85.1501 0.262566 85.7882 0.792001 86.271C1.31713 86.7539 2.01444 86.9953 2.87961 86.9953C3.74479 86.9953 4.43779 86.7539 4.96723 86.271C5.49236 85.7882 5.75923 85.1501 5.75923 84.3611V78.4717H4.69605V84.4818Z" fill="#FF595A"/>
<path d="M19.1888 82.5595C19.5374 82.1585 19.7139 81.667 19.7139 81.0763V80.753C19.7139 80.0675 19.4858 79.5156 19.0252 79.0974C18.5646 78.6835 17.962 78.4766 17.2131 78.4766H14.4238V86.858H15.4827V79.2914H17.2174C17.6435 79.2914 17.9878 79.4078 18.2504 79.6493C18.513 79.8864 18.6421 80.2054 18.6421 80.5935V81.279C18.6421 81.6713 18.5087 81.9817 18.2504 82.2232C17.9921 82.4603 17.6435 82.581 17.2174 82.581H16.1714L19.051 86.8536H19.8473V86.2328L17.7812 83.301C18.3709 83.2019 18.8401 82.9561 19.1888 82.5595Z" fill="#FF595A"/>
<path d="M31.8651 82.5805C32.3171 82.4684 32.6787 82.2442 32.9369 81.9079C33.1952 81.5716 33.3286 81.1749 33.3286 80.7007V80.4377C33.3286 79.847 33.1306 79.3728 32.7346 79.0106C32.3386 78.6528 31.8178 78.4717 31.1721 78.4717H28.1892V86.8531H31.4089C32.0631 86.8531 32.5926 86.672 32.9929 86.3012C33.3932 85.9347 33.5955 85.4519 33.5955 84.8569V84.5465C33.5955 84.0205 33.4405 83.5807 33.1263 83.2358C32.8078 82.8866 32.386 82.6667 31.8651 82.5805ZM29.2481 79.2909H30.8967C31.3142 79.2909 31.6542 79.4073 31.9082 79.6444C32.1664 79.8772 32.2956 80.1919 32.2956 80.5713V80.9206C32.2956 81.3 32.1664 81.6104 31.9082 81.8475C31.6499 82.0846 31.3142 82.2054 30.8967 82.2054H29.2481V79.2909ZM32.5323 84.7577C32.5323 85.1414 32.4032 85.4519 32.1449 85.6847C31.8867 85.9175 31.5466 86.0382 31.1162 86.0382H29.2438V83.0116H31.1162C31.5423 83.0116 31.8867 83.128 32.1449 83.3651C32.4032 83.598 32.5323 83.9084 32.5323 84.2921V84.7577Z" fill="#FF595A"/>
<path d="M60.119 86.194L56.8865 78.4766H55.3713V86.8536H56.3527V79.1362L59.581 86.8536H61.1004V78.4766H60.119V86.194Z" fill="#FF595A"/>
<path d="M76.0192 84.2927L74.0564 78.4766H72.4854V86.8536H73.4667V79.1707L75.3779 84.8575H76.6563L78.5846 79.1707V86.8536H79.5617V78.4766H77.9777L76.0192 84.2927Z" fill="#FF595A"/>
<path d="M89.3799 78.4766H88.321V86.858H89.3799V78.4766Z" fill="#FF595A"/>
<path d="M101.238 82.5465L102.982 79.0974V78.4766H102.104L100.365 82.1025L98.6213 78.4766H97.7475V79.0974L99.4865 82.5465L97.6055 86.2328V86.8536H98.4793L100.365 82.9906L102.25 86.8536H103.111V86.2328L101.238 82.5465Z" fill="#FF595A"/>
<path d="M43.362 78.4766L41.2012 86.2328V86.8536H42.1567L44.2142 79.05L46.2803 86.8536H47.2187V86.2328L45.0622 78.4766H43.362Z" fill="#FF595A"/>
<path d="M9.42223 0.150899L9.4868 0H3.31005V4.99262H0V8.79528H3.31005V22.3072C3.31005 23.9585 3.82227 25.3209 4.8381 26.3557C5.84962 27.3861 7.2184 27.9078 8.90141 27.9078H12.9088V24.1094H9.67619C9.13384 24.1094 8.6948 23.9456 8.36767 23.6222C8.03623 23.2859 7.87697 22.8591 7.87697 22.3116V8.79528H12.9088V4.99262H5.80658L9.42223 0.150899Z" fill="white"/>
<path d="M31.8695 4.62598C28.865 4.62598 26.4029 5.56155 24.5434 7.40684C22.6883 9.24781 21.7456 11.7226 21.7456 14.7664V18.1293C21.7456 21.1732 22.6883 23.6479 24.5434 25.4889C26.3943 27.3299 28.8564 28.2655 31.8695 28.2655C34.9126 28.2655 37.3833 27.3299 39.2213 25.4889C41.0636 23.6479 41.9933 21.1689 41.9933 18.1293V14.7664C41.9933 11.7226 41.0592 9.24781 39.2213 7.40684C37.3747 5.56155 34.8997 4.62598 31.8695 4.62598ZM37.4307 18.7243C37.4307 20.3799 36.9142 21.7294 35.8983 22.7296C34.8782 23.7342 33.5223 24.2472 31.8695 24.2472C30.2166 24.2472 28.8693 23.7385 27.8621 22.7296C26.8592 21.725 26.3513 20.3799 26.3513 18.7243V14.1844C26.3513 12.5331 26.8592 11.1836 27.8621 10.1705C28.865 9.17021 30.2123 8.66577 31.8695 8.66577C33.5266 8.66577 34.8782 9.17021 35.8983 10.1705C36.9142 11.1793 37.4307 12.5288 37.4307 14.1844V18.7243Z" fill="white"/>
<path d="M56.9036 6.33776C55.763 7.2216 54.915 8.42449 54.3727 9.92486V4.9926H49.8101V27.9121H54.3727V13.956C54.3727 12.5117 54.8376 11.3261 55.7501 10.4422C56.6583 9.56701 57.8678 9.11862 59.3442 9.11862H63.3946V4.81152H61.5696C59.7703 4.81152 58.1993 5.32458 56.9036 6.33776Z" fill="white"/>
<path d="M79.0754 6.33776C77.9347 7.2216 77.091 8.42449 76.5487 9.92486V4.9926H71.9861V27.9121H76.5487V13.956C76.5487 12.5117 77.0136 11.3261 77.9218 10.4422C78.83 9.56701 80.0395 9.11862 81.5159 9.11862H85.5663V4.81152H83.7413C81.9464 4.81152 80.3753 5.32458 79.0754 6.33776Z" fill="white"/>
<path d="M110.897 18.013V14.6328C110.897 11.6537 109.989 9.2134 108.194 7.38968C106.399 5.56164 103.993 4.63037 101.049 4.63037C98.1048 4.63037 95.7073 5.56164 93.9253 7.38968C92.1476 9.21771 91.2437 11.6537 91.2437 14.6328V18.2674C91.2437 21.2466 92.1519 23.6868 93.9468 25.5105C95.7374 27.3386 98.1564 28.2698 101.139 28.2698C103.692 28.2698 105.848 27.5757 107.549 26.2047C109.115 24.9458 110.101 23.191 110.613 21.087H106.352C105.995 21.9838 105.487 22.7556 104.725 23.3117C103.795 23.9886 102.65 24.3335 101.32 24.3335C99.6027 24.3335 98.2167 23.8291 97.2009 22.8288C96.1808 21.8243 95.6642 20.4705 95.6642 18.8149V18.0173H110.897V18.013ZM95.6685 13.9085C95.6685 12.3133 96.1851 11.007 97.2009 10.0326C98.2167 9.05819 99.5726 8.56669 101.23 8.56669C102.857 8.56669 104.191 9.05819 105.19 10.0283C106.193 11.007 106.701 12.3133 106.701 13.9085V14.5768H95.6685V13.9085Z" fill="white"/>
</g>
<defs>
<clipPath id="clip0">
<rect width="127" height="87" fill="white"/>
</clipPath>
</defs>
</svg>
