<svg width="183" height="84" viewBox="0 0 183 84" fill="none" xmlns="http://www.w3.org/2000/svg">
<path d="M84.6088 12.3638V0H102.027L84.6088 12.3638Z" fill="#FF595A"/>
<path d="M84.6088 12.3638H102.027V24.7276L84.6088 12.3638Z" fill="#FF595A"/>
<path d="M84.6088 37.1249V24.7276H102.027L84.6088 37.1249Z" fill="#FF595A"/>
<path d="M95.2143 44.8648L95.3486 44.6302H90.3479V48.3159H88.0992V51.8006H90.3479V60.8807C90.3479 62.2545 90.7842 63.3602 91.6232 64.1979C92.4623 65.0355 93.6034 65.4711 94.9458 65.4711H98.0335V61.9864H95.6842C95.3486 61.9864 95.0801 61.8859 94.8787 61.6849C94.6773 61.4839 94.5766 61.2158 94.5766 60.8807V51.8006H98.067V48.3159H92.7308L95.2143 44.8648Z" fill="white"/>
<path d="M109.579 49.3547C108.84 49.9578 108.27 50.7284 107.867 51.7001V48.3495H103.638V65.5046H107.867V55.2182C107.867 54.3136 108.135 53.5429 108.706 53.0068C109.243 52.4707 110.015 52.1692 110.921 52.1692H114.311V48.1819H112.968C111.659 48.1819 110.518 48.584 109.579 49.3547Z" fill="white"/>
<path d="M119.043 60.1771V65.5046H123.272V48.3494H119.043V60.1771Z" fill="white"/>
<path d="M123.339 42.0168H118.942V46.1381H123.339V42.0168Z" fill="white"/>
<path d="M137.066 48.3494H129.716V51.8341H136.327C136.998 51.8341 137.535 52.0351 137.938 52.4372C138.341 52.8392 138.542 53.3754 138.542 54.0455V54.8831H134.213C132.434 54.8831 130.991 55.4192 129.883 56.4579C128.776 57.4966 128.205 58.8704 128.205 60.5457C128.205 62.1205 128.675 63.3937 129.648 64.3319C130.588 65.3036 131.864 65.7726 133.407 65.7726C134.716 65.7726 135.857 65.4041 136.831 64.6334C137.569 64.0638 138.14 63.2932 138.542 62.3885V65.4711H142.771V54.0455C142.771 52.3367 142.234 50.9629 141.194 49.9242C140.153 48.8855 138.744 48.3494 137.066 48.3494ZM138.576 58.0662V59.44C138.475 60.3111 138.106 61.0148 137.502 61.5509C136.898 62.0535 136.126 62.3215 135.22 62.3215C134.381 62.3215 133.709 62.1205 133.206 61.7184C132.703 61.3163 132.468 60.7802 132.468 60.1101C132.468 59.507 132.703 59.0044 133.139 58.6358C133.609 58.2337 134.213 58.0327 134.985 58.0327H138.576V58.0662Z" fill="white"/>
<path d="M158.847 51.5661C158.444 50.6279 157.84 49.8238 157.035 49.2207C156.028 48.45 154.786 48.0479 153.41 48.0479C151.732 48.0479 150.356 48.5841 149.316 49.6563C148.275 50.7285 147.738 52.1692 147.738 53.9115V59.9091C147.738 61.685 148.275 63.1257 149.316 64.1644C150.356 65.2366 151.732 65.7727 153.41 65.7727C154.82 65.7727 156.028 65.3707 157.035 64.6C157.807 63.9969 158.411 63.1928 158.847 62.2546V65.4712H163.076V41.9833H158.847V51.5661ZM157.907 52.4373C158.545 53.0739 158.847 53.9115 158.847 54.9837V58.904C158.847 59.9427 158.511 60.8138 157.907 61.4504C157.27 62.087 156.431 62.3886 155.39 62.3886C154.35 62.3886 153.511 62.087 152.907 61.4504C152.303 60.8138 151.967 59.9762 151.967 58.904V54.9837C151.967 53.945 152.269 53.0739 152.907 52.4373C153.511 51.8006 154.35 51.4991 155.39 51.4991C156.431 51.4991 157.27 51.8006 157.907 52.4373Z" fill="white"/>
<path d="M181.031 49.9242C179.991 48.8855 178.581 48.3494 176.903 48.3494H169.553V51.8341H176.165C176.836 51.8341 177.373 52.0351 177.776 52.4372C178.179 52.8392 178.38 53.3754 178.38 54.0455V54.8831H174.051C172.272 54.8831 170.829 55.4192 169.721 56.4579C168.614 57.4966 168.043 58.8704 168.043 60.5457C168.043 62.1205 168.513 63.3937 169.486 64.3319C170.426 65.3036 171.701 65.7726 173.245 65.7726C174.554 65.7726 175.695 65.4041 176.668 64.6334C177.407 64.0638 177.977 63.2932 178.38 62.3885V65.4711H182.609V54.0455C182.609 52.3702 182.072 50.9629 181.031 49.9242ZM178.38 58.0662V59.44C178.279 60.3111 177.91 61.0148 177.306 61.5509C176.702 62.0535 175.93 62.3215 175.024 62.3215C174.185 62.3215 173.514 62.1205 173.01 61.7184C172.507 61.3163 172.272 60.7802 172.272 60.1101C172.272 59.507 172.507 59.0044 172.943 58.6358C173.413 58.2337 174.017 58.0327 174.789 58.0327H178.38V58.0662Z" fill="white"/>
<path d="M49.7383 76.4277V81.6546C49.7383 82.3583 49.5034 82.9279 49.0335 83.3635C48.5637 83.799 47.926 84.0001 47.1876 84.0001C46.4157 84.0001 45.8116 83.799 45.3418 83.3635C44.8719 82.9279 44.637 82.3583 44.637 81.6546V76.4277H45.5767V81.7887C45.5767 82.2242 45.7109 82.5928 46.013 82.8609C46.315 83.1289 46.7178 83.2629 47.1876 83.2629C47.6575 83.2629 48.0602 83.1289 48.3623 82.8609C48.6644 82.5928 48.7986 82.2242 48.7986 81.7887V76.4277H49.7383Z" fill="white"/>
<path d="M58.4307 77.1313V83.8661H57.491V76.4277H59.9745C60.6458 76.4277 61.1827 76.6287 61.5855 76.9638C61.9882 77.3323 62.1896 77.8349 62.1896 78.438V78.7396C62.1896 79.2757 62.0218 79.7113 61.7197 80.0463C61.4177 80.4149 60.9814 80.6159 60.4444 80.7165L62.2903 83.3299V83.8661H61.5855L59.0012 80.0798H59.941C60.3101 80.0798 60.6458 79.9793 60.8471 79.7448C61.0821 79.5437 61.1827 79.2422 61.1827 78.9071V78.304C61.1827 77.969 61.0821 77.6674 60.8471 77.4664C60.6122 77.2653 60.3101 77.1313 59.941 77.1313H58.4307Z" fill="white"/>
<path d="M69.7745 76.4277H72.4259C72.9964 76.4277 73.4663 76.5952 73.8355 76.8968C74.2047 77.2318 74.3725 77.6339 74.3725 78.17V78.4045C74.3725 78.8401 74.2718 79.1752 74.0368 79.4767C73.8019 79.7783 73.4999 79.9793 73.0636 80.0798C73.5334 80.1469 73.9026 80.3479 74.1711 80.6495C74.4396 80.951 74.5738 81.3531 74.5738 81.8222V82.0902C74.5738 82.6263 74.406 83.0619 74.0368 83.3635C73.6677 83.6985 73.1978 83.8661 72.6273 83.8661H69.741V76.4277H69.7745ZM70.7143 77.1313V79.7113H72.191C72.5601 79.7113 72.8622 79.6108 73.0971 79.4097C73.3321 79.2087 73.4327 78.9406 73.4327 78.5721V78.2705C73.4327 77.9355 73.3321 77.6674 73.0971 77.4329C72.8622 77.2318 72.5601 77.1313 72.191 77.1313H70.7143ZM70.7143 80.4484V83.1289H72.3923C72.7615 83.1289 73.0636 83.0284 73.2985 82.8274C73.5334 82.6263 73.6341 82.3583 73.6341 81.9897V81.5876C73.6341 81.2526 73.5334 80.9845 73.2985 80.75C73.0636 80.5489 72.7615 80.4484 72.3923 80.4484H70.7143Z" fill="white"/>
<path d="M99.1409 76.4277V83.8661H97.7985L94.9122 76.9973V83.8661H94.0396V76.4277H95.382L98.2683 83.2964V76.4277H99.1409Z" fill="white"/>
<path d="M115.62 83.8661H114.747V77.0308L113.036 82.0902H111.894L110.183 77.0308V83.8661H109.31V76.4277H110.72L112.465 81.5876L114.21 76.4277H115.62V83.8661Z" fill="white"/>
<path d="M124.379 76.4277H123.44V83.8661H124.379V76.4277Z" fill="white"/>
<path d="M131.729 83.3299L133.407 80.0463L131.864 76.9638V76.4277H132.635L134.179 79.6443L135.723 76.4277H136.529V76.9638L134.985 80.0463L136.629 83.3299V83.8661H135.857L134.179 80.4149L132.501 83.8661H131.729V83.3299Z" fill="white"/>
<path d="M84.8437 76.4277H83.2999L81.3868 83.3299V83.8661H82.2259L84.0718 76.9303L85.9177 83.8661H86.7567V83.3299L84.8437 76.4277Z" fill="white"/>
<path d="M7.01437 44.8312L7.04794 44.7307H2.45V48.4164H0V51.2309H2.45V61.2493C2.45 62.489 2.81917 63.4942 3.59109 64.2648C4.32945 65.0355 5.36985 65.404 6.61163 65.404H9.59861V62.5895H7.18218C6.77944 62.5895 6.44383 62.4555 6.2089 62.2209C5.97396 61.9864 5.83972 61.6513 5.83972 61.2493V51.2309H9.59861V48.4164H4.32944L7.01437 44.8312Z" fill="white"/>
<path d="M23.728 48.1484C21.4794 48.1484 19.667 48.8521 18.291 50.2258C16.915 51.5996 16.2102 53.4424 16.2102 55.6873V58.1668C16.2102 60.4117 16.915 62.2545 18.291 63.6283C19.667 65.002 21.5129 65.6722 23.728 65.6722C25.9766 65.6722 27.8225 64.9685 29.1985 63.6283C30.5746 62.2545 31.2458 60.4117 31.2458 58.1668V55.6873C31.2458 53.4424 30.541 51.5996 29.1985 50.2258C27.8225 48.8521 25.9766 48.1484 23.728 48.1484ZM27.8561 58.6024C27.8561 59.8421 27.4869 60.8473 26.715 61.5844C25.9431 62.3216 24.9362 62.7236 23.728 62.7236C22.4862 62.7236 21.4794 62.3551 20.741 61.5844C20.0027 60.8473 19.6335 59.8421 19.6335 58.6024V55.2182C19.6335 53.9785 20.0027 53.0068 20.741 52.2362C21.4794 51.499 22.4862 51.1305 23.728 51.1305C24.9698 51.1305 25.9766 51.499 26.715 52.2362C27.4869 52.9733 27.8561 53.9785 27.8561 55.2182V58.6024Z" fill="white"/>
<path d="M42.3547 49.4216C41.5157 50.0917 40.878 50.9629 40.4753 52.0686V48.4164H37.0856V65.4041H40.4753V55.0507C40.4753 53.9785 40.8109 53.1073 41.5157 52.4372C42.1869 51.8006 43.0931 51.4655 44.2006 51.4655H47.2212V48.2824H45.8787C44.4691 48.2824 43.328 48.6845 42.3547 49.4216Z" fill="white"/>
<path d="M58.8335 49.4216C57.9945 50.0917 57.3568 50.9629 56.9541 52.0686V48.4164H53.5643V65.4041H56.9541V55.0507C56.9541 53.9785 57.2897 53.1073 57.9609 52.4372C58.6321 51.8006 59.5383 51.4655 60.6458 51.4655H63.6664V48.2824H62.3239C60.9814 48.2824 59.8068 48.6845 58.8335 49.4216Z" fill="white"/>
<path d="M82.528 58.0663V55.5533C82.528 53.3419 81.8568 51.5326 80.5143 50.1923C79.1718 48.8521 77.3931 48.1484 75.2116 48.1484C73.0301 48.1484 71.2513 48.8521 69.9088 50.1923C68.5999 51.5326 67.9287 53.3419 67.9287 55.5533V58.2338C67.9287 60.4452 68.5999 62.2545 69.9424 63.5948C71.2849 64.935 73.0636 65.6387 75.2787 65.6387C77.1917 65.6387 78.7691 65.1361 80.0444 64.0974C81.2191 63.1592 81.9575 61.8525 82.3266 60.3112H79.1718C78.9034 60.9813 78.5342 61.5509 77.9636 61.953C77.2588 62.4556 76.4198 62.7236 75.4465 62.7236C74.1712 62.7236 73.1308 62.3551 72.3924 61.6179C71.6205 60.8808 71.2513 59.8756 71.2513 58.6359V58.0328H82.528V58.0663ZM71.1842 55.0507C71.1842 53.878 71.5534 52.9063 72.3253 52.1692C73.0636 51.432 74.104 51.097 75.3123 51.097C76.5205 51.097 77.5273 51.4655 78.2657 52.1692C79.004 52.9063 79.3732 53.878 79.3732 55.0507V55.5533H71.1506V55.0507H71.1842Z" fill="white"/>
</svg>
