<?xml version="1.0" encoding="utf-8"?>
<!-- Generator: Adobe Illustrator 26.1.0, SVG Export Plug-In . SVG Version: 6.00 Build 0)  -->
<svg version="1.1" id="Capa_1" xmlns="http://www.w3.org/2000/svg" xmlns:xlink="http://www.w3.org/1999/xlink" x="0px" y="0px"
	 viewBox="0 0 607 764" style="enable-background:new 0 0 607 764;" xml:space="preserve">
<style type="text/css">
	.st0{fill:#FF595A;}
	.st1{fill:#FFFFFF;}
	.st2{fill:none;stroke:#FF595A;stroke-width:9;stroke-linecap:round;stroke-miterlimit:10;}
	.st3{fill:none;stroke:#FF595A;stroke-width:6;stroke-linecap:round;stroke-miterlimit:10;}
	.st4{fill:none;stroke:#FF595A;stroke-width:3;stroke-linecap:round;stroke-miterlimit:10;}
	.st5{fill:none;stroke:#FF595A;stroke-width:3;stroke-linecap:round;stroke-linejoin:round;stroke-miterlimit:10;}
	.st6{enable-background:new    ;}
</style>
<path class="st0" d="M324.7,500.8v-6.4h9L324.7,500.8z"/>
<path class="st0" d="M324.7,500.8h9v6.5L324.7,500.8z"/>
<path class="st0" d="M324.7,513.6v-6.4h9L324.7,513.6z"/>
<path class="st1" d="M330.2,517.6l0.1-0.1h-2.6v2h-1.1v1.7h1.1v4.6c0,0.7,0.2,1.2,0.6,1.7c0.4,0.4,1,0.6,1.7,0.6h1.5v-1.7h-1.2
	c-0.2,0-0.3,0-0.4-0.2c-0.1-0.1-0.2-0.2-0.2-0.4v-4.6h1.7v-1.7h-2.8L330.2,517.6z"/>
<path class="st1" d="M337.6,519.9c-0.4,0.3-0.7,0.7-0.9,1.2v-1.7h-2.2v8.8h2.2v-5.3c0-0.5,0.1-0.8,0.4-1.1s0.6-0.4,1.1-0.4h1.7v-2.1
	h-0.6C338.7,519.3,338.1,519.5,337.6,519.9z"/>
<path class="st1" d="M342.5,525.4v2.8h2.2v-8.8h-2.2V525.4z"/>
<path class="st1" d="M344.7,516.1h-2.3v2.2h2.3V516.1z"/>
<path class="st1" d="M351.8,519.4H348v1.7h3.4c0.3,0,0.6,0.1,0.8,0.3c0.2,0.2,0.3,0.5,0.3,0.8v0.4h-2.3c-0.9,0-1.6,0.3-2.3,0.8
	c-0.6,0.5-0.8,1.2-0.8,2.2c0,0.8,0.2,1.4,0.7,2c0.5,0.5,1.1,0.7,2,0.7c0.7,0,1.2-0.2,1.7-0.6c0.4-0.3,0.7-0.7,0.9-1.1v1.5h2.2v-5.9
	c0-0.9-0.3-1.5-0.8-2.2C353.4,519.7,352.7,519.4,351.8,519.4z M352.6,524.4v0.7c-0.1,0.4-0.2,0.8-0.5,1.1s-0.7,0.4-1.1,0.4
	s-0.8-0.1-1-0.3s-0.4-0.5-0.4-0.8s0.1-0.5,0.3-0.7c0.2-0.2,0.5-0.3,0.9-0.3h1.8L352.6,524.4L352.6,524.4z"/>
<path class="st1" d="M363,521c-0.2-0.5-0.5-0.9-0.9-1.2c-0.5-0.4-1.1-0.6-1.9-0.6s-1.5,0.3-2.2,0.8c-0.5,0.5-0.8,1.3-0.8,2.2v3.1
	c0,0.9,0.3,1.6,0.8,2.2c0.5,0.5,1.2,0.8,2.2,0.8c0.7,0,1.3-0.2,1.9-0.6c0.4-0.3,0.7-0.7,0.9-1.2v1.6h2.2V516H363V521z M362.5,521.4
	c0.3,0.3,0.5,0.7,0.5,1.3v2.1c0,0.5-0.2,1-0.5,1.3s-0.7,0.5-1.3,0.5c-0.5,0-0.9-0.2-1.2-0.5c-0.3-0.3-0.5-0.7-0.5-1.3v-2.1
	c0-0.5,0.2-1,0.5-1.3s0.7-0.5,1.2-0.5C361.7,521,362.1,521.1,362.5,521.4z"/>
<path class="st1" d="M374.4,520.2c-0.5-0.5-1.2-0.8-2.2-0.8h-3.8v1.7h3.4c0.3,0,0.6,0.1,0.8,0.3c0.2,0.2,0.3,0.5,0.3,0.8v0.4h-2.3
	c-0.9,0-1.6,0.3-2.3,0.8c-0.6,0.5-0.8,1.2-0.8,2.2c0,0.8,0.2,1.4,0.7,2c0.5,0.5,1.1,0.7,2,0.7c0.7,0,1.2-0.2,1.7-0.6
	c0.4-0.3,0.7-0.7,0.9-1.1v1.5h2.2v-5.9C375.2,521.4,375,520.7,374.4,520.2z M373,524.4v0.7c-0.1,0.4-0.2,0.8-0.5,1.1
	s-0.7,0.4-1.1,0.4s-0.8-0.1-1-0.3s-0.4-0.5-0.4-0.8s0.1-0.5,0.3-0.7c0.2-0.2,0.5-0.3,0.9-0.3h1.8L373,524.4L373,524.4z"/>
<path class="st1" d="M306.8,533.9v2.7c0,0.4-0.1,0.6-0.4,0.9c-0.2,0.2-0.5,0.3-0.9,0.3s-0.7-0.1-0.9-0.3c-0.2-0.2-0.4-0.5-0.4-0.9
	v-2.7h0.5v2.8c0,0.2,0.1,0.4,0.2,0.5c0.2,0.1,0.3,0.2,0.6,0.2c0.2,0,0.4-0.1,0.6-0.2c0.2-0.1,0.2-0.3,0.2-0.5v-2.8H306.8z"/>
<path class="st1" d="M311.3,534.2v3.5h-0.5v-3.8h1.2c0.3,0,0.6,0.1,0.8,0.3c0.2,0.2,0.3,0.4,0.3,0.7v0.1c0,0.3-0.1,0.5-0.2,0.7
	c-0.2,0.2-0.4,0.3-0.6,0.3l0.9,1.3v0.3h-0.4l-1.3-2h0.5c0.2,0,0.3-0.1,0.5-0.2c0.1-0.1,0.2-0.2,0.2-0.4v-0.3c0-0.2-0.1-0.3-0.2-0.4
	c-0.1-0.1-0.3-0.2-0.5-0.2h-0.7V534.2z"/>
<path class="st1" d="M317.1,533.9h1.3c0.3,0,0.5,0.1,0.7,0.2c0.2,0.2,0.3,0.4,0.3,0.6v0.1c0,0.2-0.1,0.4-0.2,0.5
	c-0.1,0.2-0.3,0.2-0.5,0.3c0.2,0,0.4,0.1,0.6,0.3c0.1,0.2,0.2,0.3,0.2,0.6v0.1c0,0.3-0.1,0.5-0.3,0.6c-0.2,0.2-0.4,0.2-0.7,0.2h-1.4
	V533.9z M317.6,534.2v1.3h0.7c0.2,0,0.3-0.1,0.5-0.2c0.1-0.1,0.2-0.2,0.2-0.4v-0.2c0-0.2-0.1-0.3-0.2-0.4c-0.1-0.1-0.3-0.2-0.5-0.2
	h-0.7V534.2z M317.6,535.9v1.4h0.8c0.2,0,0.3-0.1,0.5-0.2c0.1-0.1,0.2-0.2,0.2-0.4v-0.2c0-0.2-0.1-0.3-0.2-0.4
	c-0.1-0.1-0.3-0.2-0.5-0.2L317.6,535.9L317.6,535.9z"/>
<path class="st1" d="M332.2,533.9v3.8h-0.7l-1.4-3.5v3.5h-0.4v-3.8h0.6l1.5,3.5v-3.5H332.2z"/>
<path class="st1" d="M340.8,537.7h-0.5v-3.5l-0.8,2.6h-0.6l-0.9-2.6v3.5h-0.4v-3.8h0.7l0.9,2.7l0.9-2.7h0.7L340.8,537.7L340.8,537.7
	z"/>
<path class="st1" d="M345.3,533.9h-0.5v3.8h0.5V533.9z"/>
<path class="st1" d="M349,537.3l0.9-1.6l-0.8-1.5v-0.3h0.4l0.8,1.6l0.7-1.6h0.4v0.3l-0.7,1.5l0.8,1.6v0.3h-0.4l-0.8-1.7l-0.9,1.7
	H349V537.3z"/>
<path class="st1" d="M324.8,533.9h-0.7l-1,3.5v0.3h0.4l1-3.6l0.9,3.6h0.4v-0.3L324.8,533.9z"/>
<path class="st1" d="M284.9,517.5l-2.4-0.1v2h-1.2v1.4h1.2v5.1c0,0.6,0.2,1.1,0.6,1.5s0.9,0.6,1.5,0.6h1.5v-1.4H285
	c-0.2,0-0.4-0.1-0.5-0.2c-0.1-0.1-0.2-0.3-0.2-0.5v-5.1h2v-1.4h-2.7L284.9,517.5z"/>
<path class="st1" d="M293.4,519.3c-1.1,0-2.1,0.3-2.8,1c-0.7,0.7-1,1.6-1,2.8v1.3c0,1.1,0.4,2.2,1,2.8c0.7,0.7,1.6,1,2.8,1
	c1.1,0,2.2-0.3,2.8-1c0.7-0.7,1-1.6,1-2.8v-1.3c0-1.1-0.3-2.2-1-2.8C295.5,519.6,294.6,519.3,293.4,519.3z M295.5,524.6
	c0,0.6-0.2,1.1-0.6,1.5s-0.9,0.6-1.5,0.6s-1.1-0.2-1.5-0.6c-0.4-0.4-0.6-0.9-0.6-1.5V523c0-0.6,0.2-1.1,0.6-1.5s0.9-0.6,1.5-0.6
	s1.1,0.2,1.5,0.6s0.6,0.9,0.6,1.5V524.6z"/>
<path class="st1" d="M303,519.9c-0.4,0.3-0.7,0.8-0.9,1.3v-1.8h-1.9v8.7h1.7v-5.3c0-0.5,0.2-1,0.5-1.3s0.8-0.5,1.3-0.5h1.5v-1.6
	h-0.7C304.1,519.4,303.5,519.6,303,519.9z"/>
<path class="st1" d="M311.5,519.9c-0.4,0.3-0.7,0.8-0.9,1.3v-1.8h-1.7v8.7h1.7v-5.3c0-0.5,0.2-1,0.5-1.3s0.8-0.5,1.3-0.5h1.5v-1.6
	h-0.7C312.6,519.4,312,519.6,311.5,519.9z"/>
<path class="st1" d="M323.7,524.4v-1.3c0-1.1-0.3-2.1-1-2.8s-1.6-1-2.8-1s-2.1,0.3-2.8,1c-0.7,0.7-1,1.6-1,2.8v1.4
	c0,1.1,0.3,2.1,1,2.8s1.6,1,2.8,1c1,0,1.9-0.3,2.5-0.8s1-1.1,1.1-2h-1.6c-0.1,0.3-0.3,0.6-0.6,0.8c-0.3,0.3-0.8,0.4-1.3,0.4
	c-0.6,0-1.2-0.2-1.5-0.6c-0.4-0.4-0.6-0.9-0.6-1.5v-0.3h6v0.1H323.7z M317.8,522.9c0-0.6,0.2-1.1,0.6-1.4c0.4-0.4,0.9-0.5,1.5-0.5
	s1.1,0.2,1.5,0.5c0.4,0.4,0.6,0.9,0.6,1.4v0.2h-4.2V522.9L317.8,522.9z"/>
<path class="st2" d="M99,53.1l462.3,112.7"/>
<path class="st3" d="M209.8,665.3c0,0,28.9-144.9,46.2-209.6c7.5-28.1,23.3-11.6,34.2-78.1"/>
<path class="st3" d="M201.1,698.2l-7.1,35"/>
<path class="st3" d="M299,344.7L385,3"/>
<path class="st3" d="M21.1,377.6l89.1,76.9c0,0,52.1,45.1,37,115.7c-15.1,70.6-37,131.5-37,131.5"/>
<path class="st3" d="M10,720.3l77.6-2.2"/>
<path class="st3" d="M125.1,720.3l211.2,39.6"/>
<path class="st4" d="M32.8,430.4l243.6-67.3"/>
<path class="st0" d="M292.7,369.7c4.8,0,8.6-3.9,8.6-8.6s-3.9-8.6-8.6-8.6c-4.8,0-8.6,3.9-8.6,8.6S287.9,369.7,292.7,369.7z"/>
<path class="st0" d="M106.6,726.7c4.8,0,8.6-3.9,8.6-8.6c0-4.8-3.9-8.6-8.6-8.6c-4.8,0-8.6,3.9-8.6,8.6
	C97.9,722.9,101.8,726.7,106.6,726.7z"/>
<path class="st0" d="M370.1,581.4c4.8,0,8.6-3.9,8.6-8.6c0-4.8-3.9-8.6-8.6-8.6s-8.6,3.9-8.6,8.6
	C361.5,577.6,365.4,581.4,370.1,581.4z"/>
<path class="st0" d="M204.7,691.4c4.8,0,8.6-3.9,8.6-8.6s-3.9-8.6-8.6-8.6s-8.6,3.9-8.6,8.6S199.9,691.4,204.7,691.4z"/>
<path class="st4" d="M136.9,484.4l139.6-60"/>
<path class="st4" d="M1.8,665.3c0,0,31.3-15.4,65.3-8.2c33.9,7.2,122.6,23.1,122.6,23.1"/>
<path class="st4" d="M219.1,685.8l130,21.1c0,0,33.4,6.2,40.1,33.9"/>
<path class="st4" d="M233.3,553L354,569.7"/>
<path class="st5" d="M378.8,556.4l89-153.4l-157.6-39.9"/>
<path class="st5" d="M467.8,529.6L406.1,553L385,564.1"/>
<path class="st5" d="M307.5,700.2l12.3-61.1l41.7-51.8"/>
<path class="st0" d="M245.5,498.6l25.6,3.4l-7.9,31.8l-24.8-4.1L245.5,498.6z"/>
<path class="st1" d="M424.4,107.9l2.5,0.6c1.6,0.4,2.7,1.5,2.4,3.1c-0.3,1.5-1.7,2.1-3.4,1.7l-1.2-0.3l-0.8,3.5l-1.2-0.3
	L424.4,107.9z M426,112.1c1.1,0.2,1.7,0,2-0.8c0.2-0.8-0.2-1.3-1.3-1.6l-1.2-0.3l-0.5,2.5L426,112.1z"/>
<path class="st1" d="M432.6,109.9l5.4,1.2l-0.3,1.1l-4.2-0.9l-0.5,2.4l3.9,0.9l-0.3,1.1l-3.9-0.9l-0.5,2.4l4.2,0.9l-0.3,1.2
	l-5.4-1.2L432.6,109.9z"/>
<path class="st1" d="M441.2,111.8l2.6,0.6c1.5,0.4,2.7,1.5,2.3,3.1c-0.2,1-1.1,1.7-2.2,1.7l1.4,4.3l-1.4-0.3l-1.2-4.1
	c-0.2,0-0.3-0.1-0.5-0.1l-0.7-0.2l-0.8,3.6l-1.2-0.3L441.2,111.8z M443,116c0.9,0.2,1.5-0.1,1.7-0.9s-0.3-1.4-1.2-1.6l-1.3-0.3
	l-0.6,2.5L443,116z"/>
<path class="st1" d="M449.8,113.8l1.2,0.3l-2,8.3l-1.2-0.3L449.8,113.8z"/>
<path class="st1" d="M454.6,114.9l5.8,1.3l-0.3,1.1l-4.5-1l-0.5,2.4l4,0.9l-0.3,1.1l-4-0.9l-0.8,3.6l-1.2-0.3L454.6,114.9z"/>
<path class="st1" d="M463,116.9l5.4,1.2l-0.3,1.1l-4.2-0.9l-0.5,2.4l3.9,0.9l-0.3,1.1l-3.9-0.9l-0.5,2.4l4.2,0.9l-0.3,1.2l-5.4-1.2
	L463,116.9z M467.2,115.2l1.3,0.3l-2.1,1.3l-0.9-0.2L467.2,115.2z"/>
<path class="st1" d="M471.7,118.8l2.6,0.6c1.5,0.4,2.7,1.5,2.3,3.1c-0.2,1-1.1,1.7-2.2,1.7l1.4,4.3l-1.4-0.3l-1.2-4.1
	c-0.2,0-0.3-0.1-0.5-0.1l-0.7-0.2l-0.8,3.6l-1.2-0.3L471.7,118.8z M473.5,123.1c0.9,0.2,1.5-0.1,1.7-0.9s-0.3-1.4-1.2-1.6l-1.3-0.3
	l-0.6,2.5L473.5,123.1z"/>
<path class="st1" d="M480.3,120.8l1.2,0.3l-2,8.3l-1.2-0.3L480.3,120.8z"/>
<path class="st1" d="M483.5,125.9c0.5-2.4,2.3-4,4.9-3.4c1.6,0.4,2.7,1.4,3,3.2l-1.3,0.2c-0.1-1.2-0.8-1.8-2-2.2
	c-1.8-0.4-3,0.7-3.4,2.4c-0.4,1.7,0.1,3.3,2,3.7c1.1,0.3,2.1,0,2.8-1l1,0.7c-1,1.3-2.5,2-4.1,1.5C483.8,130.4,483,128.3,483.5,125.9
	z"/>
<path class="st1" d="M493,128.2c0.5-2.3,2.3-4,4.9-3.4c2.7,0.6,3.5,2.9,3,5.1c-0.5,2.3-2.3,4-4.9,3.4
	C493.4,132.7,492.5,130.3,493,128.2z M499.6,129.6c0.4-1.6,0-3.3-1.8-3.7c-1.9-0.4-3,0.8-3.3,2.6c-0.4,1.6,0,3.3,1.9,3.7
	C498.2,132.6,499.2,131.2,499.6,129.6z"/>
<path class="st1" d="M78.1,399.8l0.9-0.2l5.3,7.4l-1.3,0.3l-1.1-1.6l-3.3,0.8l-0.2,2.1l-1.3,0.3L78.1,399.8z M81.3,404.6l-2.2-3.2
	l-0.4,3.8L81.3,404.6z"/>
<path class="st1" d="M90.6,396.6l-1.1,9l-0.9,0.2l-5.4-7.4l1.3-0.4l4.1,5.8l0.7-6.9L90.6,396.6z"/>
<path class="st1" d="M93.7,402.9l1.2-0.3l0.4,1.4l-1.2,0.3L93.7,402.9z"/>
<path class="st1" d="M101.3,398.1c-0.6-2.4,0.2-4.5,2.8-5.2c1.6-0.4,3.1,0.1,4.1,1.4l-1,0.8c-0.6-1-1.6-1.2-2.8-1
	c-1.9,0.5-2.4,2-1.9,3.7c0.4,1.7,1.6,2.9,3.5,2.4c1.1-0.3,1.7-0.9,2-2.3l1.3,0.2c-0.3,1.6-1.3,2.9-3,3.3
	C103.7,402,101.9,400.5,101.3,398.1z"/>
<path class="st1" d="M112.3,390.9l0.9-0.2l5.3,7.4l-1.3,0.3l-1.1-1.6l-3.3,0.8l-0.2,2.1l-1.3,0.3L112.3,390.9z M112.9,388.1l1.3-0.3
	L113,390l-0.9,0.2L112.9,388.1z M115.5,395.7l-2.2-3.2l-0.4,3.8L115.5,395.7z"/>
<path class="st1" d="M127.2,387l2.2,8.2l-1.2,0.3l-1.6-6.5l-0.7,6.4l-1.2,0.3l-3.8-5.2l1.6,6.5l-1.2,0.3l-2.2-8.2l1.7-0.4l4,5.5
	l0.8-6.8L127.2,387z"/>
<path class="st1" d="M132.9,385.6l0.9-0.2l5.3,7.4l-1.3,0.3l-1.1-1.6l-3.3,0.8l-0.2,2.1l-1.3,0.3L132.9,385.6z M136.1,390.4
	l-2.2-3.2l-0.4,3.8L136.1,390.4z"/>
<path class="st1" d="M139.6,383.8l2.6-0.6c1.5-0.4,3.1,0.1,3.4,1.6c0.3,1-0.2,2.1-1.1,2.6l3.3,3.1l-1.4,0.4l-3-3.1
	c-0.2,0-0.3,0.1-0.5,0.1l-0.7,0.2l0.9,3.6l-1.2,0.3L139.6,383.8z M143.2,386.7c0.9-0.3,1.3-0.8,1.1-1.6c-0.2-0.8-0.9-1.1-1.8-0.8
	l-1.3,0.3l0.6,2.5L143.2,386.7z"/>
<path class="st1" d="M150.4,381l0.9-0.2l5.3,7.4l-1.3,0.3l-1.1-1.6l-3.3,0.8l-0.2,2.1l-1.3,0.3L150.4,381z M153.5,385.9l-2.2-3.2
	l-0.4,3.8L153.5,385.9z"/>
<path class="st1" d="M161.2,378.2l2.4-0.6c2.8-0.7,4.6,0.4,5.3,3.1c0.7,2.6-0.5,4.4-3.2,5.1l-2.4,0.6L161.2,378.2z M165.2,384.7
	c2-0.5,2.9-1.6,2.4-3.8c-0.5-2.1-1.6-2.8-3.8-2.2l-1,0.3l1.5,6L165.2,384.7z"/>
<path class="st1" d="M170.7,375.7l5.4-1.4l0.3,1.1l-4.2,1.1l0.6,2.4l3.9-1l0.3,1.1l-3.9,1l0.6,2.4l4.2-1.1l0.3,1.2l-5.4,1.4
	L170.7,375.7z"/>
<path class="st1" d="M183.8,376.7c-0.6-2.4,0.2-4.5,2.8-5.2c1.6-0.4,3.1,0.1,4.1,1.4l-1,0.8c-0.6-1-1.6-1.2-2.8-1
	c-1.9,0.5-2.4,2-1.9,3.7c0.4,1.7,1.6,2.9,3.5,2.4c1.1-0.3,1.7-0.9,2-2.3l1.3,0.2c-0.3,1.6-1.3,2.9-3,3.3
	C186.2,380.6,184.5,379,183.8,376.7z"/>
<path class="st1" d="M193.3,374.3c-0.6-2.3,0.1-4.5,2.8-5.2s4.4,0.9,5,3.2c0.6,2.3-0.1,4.5-2.8,5.2
	C195.7,378.2,193.9,376.5,193.3,374.3z M199.8,372.5c-0.4-1.6-1.5-2.9-3.4-2.5c-1.8,0.5-2.3,2.2-1.7,3.8c0.4,1.6,1.5,3,3.4,2.5
	C199.9,375.8,200.3,374.2,199.8,372.5z"/>
<path class="st1" d="M211.2,365.2l2.2,8.2l-1.2,0.3l-1.6-6.5l-0.7,6.4l-1.2,0.3l-3.8-5.2l1.6,6.5l-1.2,0.3l-2.2-8.2l1.7-0.4l4,5.5
	l0.8-6.8L211.2,365.2z"/>
<path class="st1" d="M214.6,364.3l5.4-1.4l0.3,1.1l-4.2,1.1l0.6,2.4l3.9-1l0.3,1.1l-3.9,1l0.6,2.4l4.2-1.1l0.3,1.2l-5.4,1.4
	L214.6,364.3z"/>
<path class="st1" d="M223.1,362.1l2.6-0.6c1.5-0.4,3.1,0.1,3.4,1.6c0.3,1-0.2,2.1-1.1,2.6l3.3,3.1l-1.4,0.4l-3-3.1
	c-0.2,0-0.3,0.1-0.5,0.1l-0.7,0.2l0.9,3.6l-1.2,0.3L223.1,362.1z M226.7,365c0.9-0.3,1.3-0.8,1.1-1.6c-0.2-0.8-0.9-1.1-1.8-0.8
	l-1.3,0.3l0.6,2.5L226.7,365z"/>
<path class="st1" d="M232.1,364.2c-0.6-2.4,0.2-4.5,2.8-5.2c1.6-0.4,3.1,0.1,4.1,1.4l-1,0.8c-0.6-1-1.6-1.2-2.8-1
	c-1.9,0.5-2.4,2-1.9,3.7c0.4,1.7,1.6,2.9,3.5,2.4c1.1-0.3,1.7-0.9,2-2.3l1.3,0.2c-0.3,1.6-1.3,2.9-3,3.3
	C234.5,368,232.8,366.5,232.1,364.2z"/>
<path class="st1" d="M241.2,357.4l1.2-0.3l2.2,8.2l-1.2,0.3L241.2,357.4z"/>
<path class="st1" d="M246.4,360.4c-0.6-2.3,0.1-4.5,2.8-5.2s4.4,0.9,5,3.2c0.6,2.3-0.1,4.5-2.8,5.2
	C248.8,364.3,247,362.7,246.4,360.4z M252.9,358.8c-0.4-1.6-1.5-2.9-3.4-2.5c-1.8,0.5-2.3,2.2-1.7,3.8c0.4,1.6,1.5,3,3.4,2.5
	C253,362,253.4,360.4,252.9,358.8z"/>
<path class="st1" d="M197.2,621.4l0.2-0.9l9-1.3l-0.3,1.3l-2.1,0.2l-0.8,3.3l1.7,1.1l-0.3,1.3L197.2,621.4z M203,620.9l-3.8,0.4
	l3.2,2.1L203,620.9z"/>
<path class="st1" d="M200.1,608.9l7.5,5.2l-0.2,0.9l-9,1.3l0.3-1.4l6.8-0.9l-5.8-3.8L200.1,608.9z"/>
<path class="st1" d="M207.2,609.2l0.3-1.2l1.4,0.3l-0.3,1.2L207.2,609.2z"/>
<path class="st1" d="M202.4,598.6l0.3-1.2l7.1,1.6l0.8-3.6l1.2,0.3l-1.1,4.9L202.4,598.6z"/>
<path class="st1" d="M202.1,589.2l0.3-1.3l1.3,2.1l-0.2,0.9L202.1,589.2z M204.2,591.2l0.3-1.2l8.3,2l-0.3,1.2L204.2,591.2z"/>
<path class="st1" d="M205.3,586.4l0.6-2.8c0.3-1.3,1.2-2.5,2.8-2.1c0.8,0.2,1.3,0.8,1.4,1.3c0.5-0.7,1.4-1.1,2.4-0.9
	c1.5,0.3,2.1,1.7,1.7,3.2l-0.7,3.1L205.3,586.4z M209.4,584.2c0.1-0.6,0-1.3-0.9-1.5c-0.7-0.2-1.2,0.3-1.4,1.1l-0.3,1.5l2.3,0.5
	L209.4,584.2z M213.1,584.9c0.2-0.9-0.1-1.5-0.9-1.7c-0.7-0.2-1.3,0.2-1.5,1.1l-0.4,1.8l2.6,0.6L213.1,584.9z"/>
<path class="st1" d="M207.8,575.7l0.2-0.9l9-1.3l-0.3,1.3l-2.1,0.2l-0.8,3.3l1.7,1.1l-0.3,1.3L207.8,575.7z M213.5,575.2l-3.8,0.4
	l3.2,2.1L213.5,575.2z"/>
<path class="st1" d="M210.9,562.7l8.3,2l-0.3,1.2l-7.1,2.3l6.2,1.4l-0.3,1.2l-8.3-2l0.3-1.2l7.1-2.3l-6.2-1.4L210.9,562.7z"/>
<path class="st1" d="M215.7,560.8c-2.3-0.5-4-2.3-3.3-4.9c0.6-2.7,2.9-3.5,5.1-3c2.3,0.5,4,2.3,3.3,4.9
	C220.2,560.6,218,561.3,215.7,560.8z M217.1,554.3c-1.6-0.4-3.3,0-3.7,1.8s0.8,3,2.6,3.3c1.6,0.4,3.3,0,3.7-1.8
	C220.1,555.7,218.9,554.6,217.1,554.3z"/>
<path class="st1" d="M250.5,132h0.4l1.5,5.7l1.7-5.3h0.4l1.7,5.3l1.5-5.7h0.4l-1.7,6.3H256l-1.7-5.2l-1.7,5.2h-0.4L250.5,132z"/>
<path class="st1" d="M262,132h0.4l2.3,6.3h-0.5l-0.5-1.5h-2.9l-0.5,1.5h-0.5L262,132z M263.5,136.3l-1.3-3.7l-1.3,3.7H263.5z"/>
<path class="st1" d="M267,132h0.4v5.9h2.9v0.4h-3.4V132H267z"/>
<path class="st1" d="M278.4,132v6.3H278v-5.8l-2.3,5.2h-0.4l-2.3-5.2v5.8h-0.4V132h0.6l2.3,5.2l2.3-5.2H278.4z"/>
<path class="st1" d="M283,132h0.4l2.3,6.3h-0.5l-0.5-1.5h-2.9l-0.5,1.5h-0.5L283,132z M284.5,136.3l-1.3-3.7l-1.3,3.7H284.5z"/>
<path class="st1" d="M288,132h1.6c1.2,0,2.1,0.6,2.1,1.7c0,0.8-0.5,1.4-1.3,1.6l1.7,3h-0.5l-1.6-2.9c-0.1,0-0.3,0-0.4,0h-1v2.9h-0.4
	V132H288z M289.8,134.9c1,0,1.5-0.4,1.5-1.3c0-0.8-0.6-1.3-1.6-1.3h-1.2v2.7L289.8,134.9L289.8,134.9z"/>
<path class="st1" d="M296.1,132.4h-2.3V132h4.9v0.4h-2.3v5.9H296L296.1,132.4L296.1,132.4z"/>
<path class="st1" d="M215.6,157.7c0-2,0.9-3.2,2.9-3.2c1.2,0,2.1,0.5,2.5,1.6l-0.4,0.2c-0.3-1-1-1.4-2.1-1.4c-1.5,0-2.4,1-2.4,2.8
	c0,1.5,0.7,2.8,2.4,2.8c1,0,1.7-0.4,2.2-1.4l0.4,0.2c-0.5,1.1-1.3,1.6-2.6,1.6C216.6,160.9,215.6,159.6,215.6,157.7z"/>
<path class="st1" d="M223.4,154.6h0.4v6.3h-0.4V154.6z"/>
<path class="st1" d="M228.4,155h-2.3v-0.4h4.9v0.4h-2.3v5.9h-0.4V155H228.4z"/>
<path class="st1" d="M235.3,158.5l-2.4-3.9h0.5l2.1,3.5l2.1-3.5h0.5l-2.4,3.9v2.4h-0.4L235.3,158.5L235.3,158.5z"/>
<path class="st1" d="M243.3,157.7c0-2,0.9-3.2,2.9-3.2c1.2,0,2.1,0.5,2.5,1.6l-0.4,0.2c-0.3-1-1-1.4-2.1-1.4c-1.5,0-2.4,1-2.4,2.8
	c0,1.5,0.7,2.8,2.4,2.8c1,0,1.7-0.4,2.2-1.4l0.4,0.2c-0.5,1.1-1.3,1.6-2.6,1.6C244.3,160.9,243.3,159.6,243.3,157.7z"/>
<path class="st1" d="M251,154.6h4.1v0.4h-3.6v2.5h3.3v0.4h-3.3v2.6h3.6v0.4H251V154.6z"/>
<path class="st1" d="M261.8,154.6v6.3h-0.5l-3.3-5.7v5.7h-0.4v-6.3h0.5l3.3,5.5v-5.5H261.8z"/>
<path class="st1" d="M266.5,155h-2.3v-0.4h4.9v0.4h-2.3v5.9h-0.4L266.5,155L266.5,155z"/>
<path class="st1" d="M271.5,154.6h4.1v0.4H272v2.5h3.3v0.4H272v2.6h3.6v0.4h-4.1V154.6z"/>
<path class="st1" d="M278.1,154.6h1.6c1.2,0,2.1,0.6,2.1,1.7c0,0.8-0.5,1.4-1.3,1.6l1.7,3h-0.5l-1.6-2.9c-0.1,0-0.3,0-0.4,0h-1v2.9
	h-0.4v-6.4L278.1,154.6L278.1,154.6z M279.7,157.5c1,0,1.5-0.4,1.5-1.3c0-0.8-0.6-1.3-1.6-1.3h-1.2v2.7L279.7,157.5L279.7,157.5z"/>
<path class="st1" d="M258.8,179.2h0.4l2.3,6.3H261l-0.5-1.5h-2.9l-0.5,1.5h-0.5L258.8,179.2z M260.3,183.5l-1.3-3.7l-1.3,3.7H260.3z
	"/>
<path class="st1" d="M263.5,183.1v-3.9h0.4v3.9c0,1.3,0.5,2,1.7,2s1.7-0.7,1.7-2.1v-3.9h0.4v3.9c0,1.5-0.7,2.5-2.2,2.5
	C264.2,185.6,263.5,184.7,263.5,183.1z"/>
<path class="st1" d="M272.3,179.6H270v-0.4h4.9v0.4h-2.3v5.9h-0.4L272.3,179.6L272.3,179.6z"/>
<path class="st1" d="M276.7,182.3c0-1.7,0.9-3.2,2.8-3.2c2,0,2.9,1.4,2.9,3.2c0,1.7-0.9,3.2-2.9,3.2
	C277.7,185.6,276.7,184.1,276.7,182.3z M281.9,182.3c0-1.5-0.7-2.8-2.4-2.8s-2.4,1.2-2.4,2.8c0,1.5,0.7,2.8,2.4,2.8
	C281.2,185.2,281.9,183.9,281.9,182.3z"/>
<path class="st1" d="M289.2,179.6l-4.3,5.5h4.3v0.4h-4.9v-0.3l4.3-5.5h-4.1v-0.4h4.7V179.6z"/>
<path class="st1" d="M291,182.3c0-1.7,0.9-3.2,2.8-3.2c2,0,2.9,1.4,2.9,3.2c0,1.7-0.9,3.2-2.9,3.2C291.9,185.6,291,184.1,291,182.3z
	 M296.3,182.3c0-1.5-0.7-2.8-2.4-2.8c-1.6,0-2.4,1.2-2.4,2.8c0,1.5,0.7,2.8,2.4,2.8C295.5,185.2,296.3,183.9,296.3,182.3z"/>
<path class="st1" d="M303.5,179.2v6.3H303l-3.3-5.7v5.7h-0.4v-6.3h0.5l3.3,5.5v-5.5H303.5z"/>
<path class="st1" d="M306.5,179.2h4.1v0.4H307v2.5h3.3v0.4H307v2.6h3.6v0.4h-4.1V179.2z"/>
<path class="st1" d="M252.7,202.2h-2.3v-0.4h4.9v0.4H253v5.9h-0.4v-5.9H252.7z"/>
<path class="st1" d="M257.1,204.9c0-2,0.9-3.2,2.9-3.2c1.2,0,2.1,0.5,2.5,1.6l-0.4,0.2c-0.3-1-1-1.4-2.1-1.4c-1.5,0-2.4,1.1-2.4,2.8
	c0,1.5,0.7,2.9,2.4,2.9c1.1,0,1.8-0.5,2.2-1.5v-0.9h-1.5V205h2v3.2h-0.4V207c-0.4,0.8-1.1,1.2-2.2,1.2
	C258,208.2,257.1,206.9,257.1,204.9z"/>
<path class="st1" d="M265.2,201.8h0.4v6.3h-0.4V201.8z"/>
<path class="st1" d="M272,201.8h4.2v0.4h-3.7v2.5h3.3v0.4h-3.3v3h-0.4v-6.3L272,201.8L272,201.8z"/>
<path class="st1" d="M278.5,201.8h1.6c1.2,0,2.1,0.6,2.1,1.7c0,0.8-0.5,1.4-1.3,1.6l1.7,3h-0.5l-1.6-2.9c-0.1,0-0.3,0-0.4,0h-1v2.9
	h-0.4v-6.4L278.5,201.8L278.5,201.8z M280.2,204.8c1,0,1.5-0.4,1.5-1.3c0-0.8-0.6-1.3-1.6-1.3h-1.2v2.7L280.2,204.8L280.2,204.8z"/>
<path class="st1" d="M285,201.8h0.4v6.3H285V201.8z"/>
<path class="st1" d="M288.5,201.8h1.6c2.1,0,3.2,1.1,3.2,3.2c0,2-1.1,3.1-3.2,3.1h-1.6V201.8z M290.1,207.7c1.7,0,2.8-0.9,2.8-2.7
	c0-1.9-0.9-2.8-2.8-2.8h-1.2v5.4h1.2V207.7z"/>
<path class="st1" d="M297.2,201.8h0.4l2.3,6.3h-0.5l-0.5-1.5H296l-0.5,1.5H295L297.2,201.8z M298.7,206.2l-1.3-3.7l-1.3,3.7H298.7z"
	/>
<path class="st1" d="M303.2,205.7l-2.4-3.9h0.5l2.1,3.5l2.1-3.5h0.5l-2.4,3.9v2.4h-0.4L303.2,205.7L303.2,205.7z"/>
<path class="st1" d="M307.8,206.5l0.4-0.1c0.1,0.9,0.8,1.4,1.6,1.4c0.9,0,1.5-0.5,1.5-1.3c0-1.7-3.3-1.2-3.3-3.1
	c0-0.9,0.7-1.5,1.7-1.5c0.7,0,1.3,0.3,1.7,1l-0.4,0.2c-0.3-0.5-0.7-0.8-1.3-0.8c-0.7,0-1.2,0.5-1.2,1.1c0,1.6,3.3,1,3.3,3.1
	c0,1-0.8,1.7-2,1.7C308.8,208.1,307.9,207.6,307.8,206.5z"/>
<path class="st1" d="M255.9,246h0.4l2.3,6.3H258l-0.5-1.5h-2.9l-0.5,1.5h-0.5L255.9,246z M257.3,250.3l-1.3-3.7l-1.3,3.7H257.3z"/>
<path class="st1" d="M261.8,246.4h-2.3V246h4.9v0.4h-2.3v5.9h-0.4L261.8,246.4L261.8,246.4z"/>
<path class="st1" d="M266.8,246h4.1v0.4h-3.6v2.5h3.3v0.4h-3.3v2.6h3.6v0.4h-4.1V246z"/>
<path class="st1" d="M277.6,246v6.3H277l-3.3-5.7v5.7h-0.4V246h0.5l3.3,5.5V246H277.6z"/>
<path class="st1" d="M280.6,246h4.1v0.4h-3.6v2.5h3.3v0.4h-3.3v2.6h3.6v0.4h-4.1V246z"/>
<path class="st1" d="M286.8,249.1c0-1.7,0.9-3.2,2.8-3.2c2,0,2.9,1.4,2.9,3.2c0,1.7-0.9,3.2-2.9,3.2
	C287.6,252.4,286.8,250.9,286.8,249.1z M291.9,249.1c0-1.5-0.7-2.8-2.4-2.8c-1.6,0-2.4,1.2-2.4,2.8c0,1.5,0.7,2.8,2.4,2.8
	C291.2,252,291.9,250.6,291.9,249.1z"/>
<path class="st1" d="M347.2,252.9h4.1v0.4h-3.6v2.5h3.3v0.4h-3.3v2.6h3.6v0.4h-4.1V252.9z"/>
<path class="st1" d="M353.8,252.9h0.4v5.9h2.9v0.4h-3.4v-6.3L353.8,252.9L353.8,252.9z"/>
<path class="st1" d="M368.5,252.9v6.3h-0.4v-5.8l-2.3,5.2h-0.4l-2.3-5.2v5.8h-0.4v-6.3h0.6l2.3,5.2l2.3-5.2L368.5,252.9L368.5,252.9
	z"/>
<path class="st1" d="M371.5,252.9h4.1v0.4H372v2.5h3.3v0.4H372v2.6h3.6v0.4h-4.1V252.9z"/>
<path class="st1" d="M378.1,252.9h1.6c1.2,0,2.1,0.6,2.1,1.7c0,0.8-0.5,1.4-1.3,1.6l1.7,3h-0.5l-1.6-2.9c-0.1,0-0.3,0-0.4,0h-1v2.9
	h-0.4v-6.4h-0.2V252.9z M379.8,256c1,0,1.5-0.4,1.5-1.3c0-0.8-0.6-1.3-1.6-1.3h-1.2v2.7h1.3V256z"/>
<path class="st1" d="M384.1,256.1c0-2,0.9-3.2,2.9-3.2c1.2,0,2.1,0.5,2.5,1.6l-0.4,0.2c-0.3-1-1-1.4-2.1-1.4c-1.5,0-2.4,1-2.4,2.8
	c0,1.5,0.7,2.8,2.4,2.8c1,0,1.7-0.4,2.2-1.4l0.4,0.2c-0.5,1.1-1.3,1.6-2.6,1.6C385.1,259.3,384.1,257.9,384.1,256.1z"/>
<path class="st1" d="M393.4,252.9h0.4l2.3,6.3h-0.5l-0.5-1.5h-2.9l-0.5,1.5h-0.5L393.4,252.9z M394.8,257.2l-1.3-3.7l-1.3,3.7H394.8
	z"/>
<path class="st1" d="M398.4,252.9h1.6c2.1,0,3.2,1.1,3.2,3.2c0,2-1.1,3.1-3.2,3.1h-1.6V252.9z M399.9,258.8c1.7,0,2.8-0.9,2.8-2.7
	c0-1.8-0.9-2.8-2.8-2.8h-1.2v5.4h1.2V258.8z"/>
<path class="st1" d="M405.8,252.9h0.4v6.3h-0.4V252.9z"/>
<path class="st1" d="M410.8,253.3h-2.3v-0.4h4.9v0.4h-2.3v5.9h-0.4L410.8,253.3L410.8,253.3z"/>
<path class="st1" d="M415.2,256.1c0-1.7,0.9-3.2,2.8-3.2c2,0,2.9,1.4,2.9,3.2c0,1.7-0.9,3.2-2.9,3.2
	C416.1,259.3,415.2,257.7,415.2,256.1z M420.4,256.1c0-1.5-0.7-2.8-2.4-2.8c-1.6,0-2.4,1.2-2.4,2.8c0,1.5,0.7,2.8,2.4,2.8
	C419.7,258.9,420.4,257.5,420.4,256.1z"/>
<path class="st1" d="M334.5,287.4c0-2,0.9-3.2,2.9-3.2c1.2,0,2.1,0.5,2.5,1.6l-0.4,0.2c-0.3-1-1-1.4-2.1-1.4c-1.5,0-2.4,1-2.4,2.8
	c0,1.5,0.7,2.8,2.4,2.8c1,0,1.7-0.4,2.2-1.4l0.4,0.2c-0.5,1.1-1.3,1.6-2.6,1.6C335.5,290.6,334.5,289.3,334.5,287.4z"/>
<path class="st1" d="M342.3,284.3h4.1v0.4h-3.6v2.5h3.3v0.4h-3.3v2.6h3.6v0.4h-4.1V284.3z"/>
<path class="st1" d="M348.9,284.3h1.6c1.2,0,2.1,0.6,2.1,1.7c0,0.8-0.5,1.4-1.3,1.6l1.7,3h-0.5l-1.6-2.9c-0.1,0-0.3,0-0.4,0h-1v2.9
	H349v-6.4L348.9,284.3L348.9,284.3z M350.6,287.3c1,0,1.5-0.4,1.5-1.3c0-0.8-0.6-1.3-1.6-1.3h-1.2v2.7h1.3V287.3z"/>
<path class="st1" d="M360,284.3l-2.5,6.3h-0.4l-2.5-6.3h0.5l2.2,5.7l2.2-5.7H360z"/>
<path class="st1" d="M362.3,284.3h4.1v0.4h-3.6v2.5h3.3v0.4h-3.3v2.6h3.6v0.4h-4.1V284.3z"/>
<path class="st1" d="M368.5,287.4c0-2,0.9-3.2,2.9-3.2c1.2,0,2.1,0.5,2.5,1.6l-0.4,0.2c-0.3-1-1-1.4-2.1-1.4c-1.5,0-2.4,1-2.4,2.8
	c0,1.5,0.7,2.8,2.4,2.8c1,0,1.7-0.4,2.2-1.4l0.4,0.2c-0.5,1.1-1.3,1.6-2.6,1.6C369.4,290.6,368.5,289.3,368.5,287.4z"/>
<path class="st1" d="M376.2,284.3h4.1v0.4h-3.6v2.5h3.3v0.4h-3.3v2.6h3.6v0.4h-4.1V284.3z"/>
<path class="st1" d="M382.9,284.3h1.6c1.2,0,2.1,0.6,2.1,1.7c0,0.8-0.5,1.4-1.3,1.6l1.7,3h-0.5l-1.6-2.9c-0.1,0-0.3,0-0.4,0h-1v2.9
	H383v-6.4L382.9,284.3L382.9,284.3z M384.5,287.3c1,0,1.5-0.4,1.5-1.3c0-0.8-0.6-1.3-1.6-1.3h-1.2v2.7h1.3V287.3z"/>
<path class="st1" d="M390.3,282.4h0.4l-1,1.2h-0.3L390.3,282.4z M389.4,284.3h0.4v6.3h-0.4V284.3z"/>
<path class="st1" d="M394.4,284.3h0.4l2.3,6.3h-0.5L396,289h-2.9l-0.5,1.5h-0.5L394.4,284.3z M395.9,288.6l-1.3-3.7l-1.3,3.7H395.9z
	"/>
<path class="st1" d="M334.5,298.2c0-2,0.9-3.2,2.9-3.2c1.2,0,2.1,0.5,2.5,1.6l-0.4,0.2c-0.3-1-1-1.4-2.1-1.4c-1.5,0-2.4,1-2.4,2.8
	c0,1.5,0.7,2.8,2.4,2.8c1,0,1.7-0.4,2.2-1.4l0.4,0.2c-0.5,1.1-1.3,1.6-2.6,1.6C335.5,301.5,334.5,300.2,334.5,298.2z"/>
<path class="st1" d="M342.3,295.1h0.4v2.9h3.5v-2.9h0.4v6.3h-0.4v-3h-3.5v3h-0.4V295.1z"/>
<path class="st1" d="M351.2,295.1h0.4l2.3,6.3h-0.5l-0.5-1.5H350l-0.5,1.5H349L351.2,295.1z M352.8,299.5l-1.3-3.7l-1.3,3.7H352.8z"
	/>
<path class="st1" d="M356.3,295.1h1.6c1.2,0,2.1,0.6,2.1,1.7s-0.8,1.7-2.1,1.7h-1.2v2.8h-0.4V295.1z M357.9,298.2
	c1,0,1.6-0.5,1.6-1.3s-0.6-1.3-1.6-1.3h-1.2v2.7h1.2V298.2z"/>
<path class="st1" d="M362.2,299v-3.9h0.4v3.9c0,1.3,0.5,2,1.7,2s1.7-0.7,1.7-2.1V295h0.4v3.9c0,1.5-0.7,2.5-2.2,2.5
	C363,301.5,362.2,300.6,362.2,299z"/>
<path class="st1" d="M369.5,295.1h0.4v5.9h3v0.4h-3.4V295.1z"/>
<path class="st1" d="M376.1,295.6h-2.3v-0.4h4.9v0.4h-2.3v5.9H376L376.1,295.6L376.1,295.6z"/>
<path class="st1" d="M381.1,295.1h4.1v0.4h-3.6v2.5h3.3v0.4h-3.3v2.6h3.6v0.4h-4.1V295.1z"/>
<path class="st1" d="M387.7,295.1h1.6c1.2,0,2.1,0.6,2.1,1.7s-0.8,1.7-2.1,1.7h-1.2v2.8h-0.4V295.1z M389.4,298.2
	c1,0,1.6-0.5,1.6-1.3s-0.6-1.3-1.6-1.3h-1.2v2.7h1.2V298.2z"/>
<path class="st1" d="M394,295.1h4.1v0.4h-3.6v2.5h3.3v0.4h-3.3v2.6h3.6v0.4H394V295.1z"/>
<path class="st1" d="M400.2,298.2c0-2,0.9-3.2,2.9-3.2c1.2,0,2.1,0.5,2.5,1.6l-0.4,0.2c-0.3-1-1-1.4-2.1-1.4c-1.5,0-2.4,1-2.4,2.8
	c0,1.5,0.7,2.8,2.4,2.8c1,0,1.7-0.4,2.2-1.4l0.4,0.2c-0.5,1.1-1.3,1.6-2.6,1.6C401.1,301.5,400.2,300.2,400.2,298.2z"/>
<path class="st1" d="M328.8,325.9h0.4v5.9h3v0.4h-3.4V325.9z"/>
<path class="st1" d="M334.3,329.8v-3.9h0.4v3.9c0,1.3,0.5,2,1.7,2s1.7-0.7,1.7-2.1v-3.9h0.4v3.9c0,1.5-0.7,2.5-2.2,2.5
	C335.1,332.2,334.3,331.3,334.3,329.8z"/>
<path class="st1" d="M343.1,329l-2.2-3.1h0.5l2,2.8l2-2.8h0.5l-2.2,3.1l2.3,3.2h-0.5l-2-2.9l-2,2.9H341L343.1,329z"/>
<path class="st1" d="M348.3,329.8v-3.9h0.4v3.9c0,1.3,0.5,2,1.7,2s1.7-0.7,1.7-2.1v-3.9h0.4v3.9c0,1.5-0.7,2.5-2.2,2.5
	C349,332.2,348.3,331.3,348.3,329.8z"/>
<path class="st1" d="M355.5,325.9h1.6c1.2,0,2.1,0.6,2.1,1.7c0,0.8-0.5,1.4-1.3,1.6l1.7,3H359l-1.6-2.9c-0.1,0-0.3,0-0.4,0h-1v2.9
	h-0.4v-6.4L355.5,325.9L355.5,325.9z M357.2,329c1,0,1.5-0.4,1.5-1.3c0-0.8-0.6-1.3-1.6-1.3h-1.2v2.7h1.3V329z"/>
<path class="st1" d="M363.6,329.8l-2.4-3.9h0.5l2.1,3.5l2.1-3.5h0.5l-2.4,3.9v2.4h-0.4L363.6,329.8L363.6,329.8z"/>
<path class="st1" d="M372,325.9h1.6c1.2,0,2.1,0.6,2.1,1.7s-0.8,1.7-2.1,1.7h-1.2v2.8H372V325.9z M373.6,329c1,0,1.6-0.5,1.6-1.3
	s-0.6-1.3-1.6-1.3h-1.2v2.7h1.2V329z"/>
<path class="st1" d="M378.3,325.9h0.4v5.9h3v0.4h-3.4V325.9z"/>
<path class="st1" d="M385.7,325.9h0.4l2.3,6.3h-0.5l-0.5-1.5h-2.9l-0.5,1.5h-0.5L385.7,325.9z M387.1,330.2l-1.3-3.7l-1.3,3.7H387.1
	z"/>
<path class="st1" d="M390,329.1c0-2,0.9-3.2,2.9-3.2c1.2,0,2.1,0.5,2.5,1.6l-0.4,0.2c-0.3-1-1-1.4-2.1-1.4c-1.5,0-2.4,1-2.4,2.8
	c0,1.5,0.7,2.8,2.4,2.8c1,0,1.7-0.4,2.2-1.4l0.4,0.2c-0.5,1.1-1.3,1.6-2.6,1.6C391,332.2,390,330.9,390,329.1z"/>
<path class="st1" d="M397.8,325.9h4.1v0.4h-3.6v2.5h3.3v0.4h-3.3v2.6h3.6v0.4h-4.1V325.9z"/>
<path class="st1" d="M324.7,344.1h4.2v0.4h-3.7v2.5h3.3v0.4h-3.3v3h-0.4v-6.3H324.7z"/>
<path class="st1" d="M332.4,344.1h0.4l2.3,6.3h-0.5l-0.5-1.5h-2.9l-0.5,1.5h-0.5L332.4,344.1z M334,348.5l-1.3-3.7l-1.3,3.7H334z"/>
<path class="st1" d="M337.5,344.1h1.6c1.2,0,2.1,0.6,2.1,1.7c0,0.8-0.5,1.4-1.3,1.6l1.7,3h-0.5l-1.6-2.9c-0.1,0-0.3,0-0.4,0h-1v2.9
	h-0.4V344L337.5,344.1L337.5,344.1z M339.1,347.1c1,0,1.5-0.4,1.5-1.3c0-0.8-0.6-1.3-1.6-1.3h-1.2v2.7h1.3V347.1z"/>
<path class="st1" d="M349.7,344.1v6.3h-0.4v-5.8l-2.3,5.2h-0.4l-2.3-5.2v5.8h-0.4v-6.3h0.6l2.3,5.2l2.3-5.2H349.7z"/>
<path class="st1" d="M354.3,344.1h0.4l2.3,6.3h-0.5l-0.5-1.5h-2.9l-0.5,1.5h-0.5L354.3,344.1z M355.9,348.5l-1.3-3.7l-1.3,3.7H355.9
	z"/>
<path class="st1" d="M358.6,347.2c0-2,0.9-3.2,2.9-3.2c1.2,0,2.1,0.5,2.5,1.6l-0.4,0.2c-0.3-1-1-1.4-2.1-1.4c-1.5,0-2.4,1-2.4,2.8
	c0,1.5,0.7,2.8,2.4,2.8c1,0,1.7-0.4,2.2-1.4l0.4,0.2c-0.5,1.1-1.3,1.6-2.6,1.6C359.7,350.4,358.6,349.1,358.6,347.2z"/>
<path class="st1" d="M366.4,344.1h0.4v6.3h-0.4V344.1z"/>
<path class="st1" d="M371.5,344.1h0.4l2.3,6.3h-0.5l-0.5-1.5h-2.9l-0.5,1.5h-0.5L371.5,344.1z M373,348.5l-1.3-3.7l-1.3,3.7H373z"/>
<path class="st1" d="M375.9,348.8l0.4-0.1c0.1,0.9,0.8,1.4,1.6,1.4c0.9,0,1.5-0.5,1.5-1.3c0-1.7-3.3-1.2-3.3-3.1
	c0-0.9,0.7-1.5,1.7-1.5c0.7,0,1.3,0.3,1.7,1l-0.4,0.2c-0.3-0.5-0.7-0.8-1.3-0.8c-0.7,0-1.2,0.5-1.2,1.1c0,1.6,3.3,1,3.3,3.1
	c0,1-0.8,1.7-2,1.7C376.9,350.4,376.1,349.8,375.9,348.8z"/>
<path class="st1" d="M385.8,344.1h1.6c2.1,0,3.2,1.1,3.2,3.2c0,2-1.1,3.1-3.2,3.1h-1.6V344.1z M387.3,350c1.7,0,2.8-0.9,2.8-2.7
	c0-1.8-0.9-2.8-2.8-2.8h-1.2v5.4h1.2V350z"/>
<path class="st1" d="M393.2,344.1h4.1v0.4h-3.6v2.5h3.3v0.4h-3.3v2.6h3.6v0.4h-4.1V344.1z"/>
<path class="st1" d="M399.7,344.1h0.4v5.9h3v0.4h-3.4V344.1z"/>
<path class="st1" d="M410.3,344.1h0.4l2.3,6.3h-0.5l-0.5-1.5h-2.9l-0.5,1.5h-0.5L410.3,344.1z M411.9,348.5l-1.3-3.7l-1.3,3.7H411.9
	z"/>
<path class="st1" d="M415.4,344.1h0.4v2.9h3.5v-2.9h0.4v6.3h-0.4v-3h-3.5v3h-0.4V344.1z"/>
<path class="st1" d="M422.2,347.2c0-1.7,0.9-3.2,2.8-3.2c2,0,2.9,1.4,2.9,3.2c0,1.7-0.9,3.2-2.9,3.2
	C423.2,350.4,422.2,349,422.2,347.2z M427.5,347.2c0-1.5-0.7-2.8-2.4-2.8c-1.6,0-2.4,1.2-2.4,2.8c0,1.5,0.7,2.8,2.4,2.8
	S427.5,348.8,427.5,347.2z"/>
<path class="st1" d="M430.6,344.1h1.6c1.2,0,2.1,0.6,2.1,1.7c0,0.8-0.5,1.4-1.3,1.6l1.7,3h-0.5l-1.6-2.9c-0.1,0-0.3,0-0.4,0h-1v2.9
	h-0.4V344L430.6,344.1L430.6,344.1z M432.2,347.1c1,0,1.5-0.4,1.5-1.3c0-0.8-0.6-1.3-1.6-1.3h-1.2v2.7h1.3V347.1z"/>
<path class="st1" d="M437,344.1h1.6c1.2,0,2.1,0.6,2.1,1.7c0,0.8-0.5,1.4-1.3,1.6l1.7,3h-0.5l-1.6-2.9c-0.1,0-0.3,0-0.4,0h-1v2.9
	h-0.4V344L437,344.1L437,344.1z M438.7,347.1c1,0,1.5-0.4,1.5-1.3c0-0.8-0.6-1.3-1.6-1.3h-1.2v2.7h1.3V347.1z"/>
<path class="st1" d="M443.1,347.2c0-1.7,0.9-3.2,2.8-3.2c2,0,2.9,1.4,2.9,3.2c0,1.7-0.9,3.2-2.9,3.2
	C444,350.4,443.1,349,443.1,347.2z M448.2,347.2c0-1.5-0.7-2.8-2.4-2.8c-1.6,0-2.4,1.2-2.4,2.8c0,1.5,0.7,2.8,2.4,2.8
	S448.2,348.8,448.2,347.2z"/>
<path class="st1" d="M389,490.8l-1.8,7.8h-1.3l1.3-5.7l-3.1,5h-1.3l-0.7-5.2l-1.3,6h-1.3l1.7-7.8h1.8l0.8,5.5l3.4-5.5L389,490.8
	L389,490.8z"/>
<path class="st1" d="M390.6,494.6c0.5-2.1,2.1-3.9,4.6-3.9s3.4,2,2.9,4.1s-2.1,3.9-4.6,3.9C390.9,498.7,390.1,496.9,390.6,494.6z
	 M396.7,494.6c0.3-1.4,0-2.7-1.6-2.7c-1.7,0-2.7,1.3-3,2.9c-0.3,1.4,0,2.7,1.6,2.7C395.3,497.5,396.4,496.1,396.7,494.6z"/>
<path class="st1" d="M407.7,490.8l-1.9,7.8h-1.3l-2.1-5.5l-1.3,5.5h-1.3l1.7-7.8h1.3l2.1,5.4l1.2-5.4H407.7z"/>
<path class="st1" d="M412.1,492.1h-2.5l0.3-1.2h6.3l-0.3,1.2h-2.5l-1.5,6.6h-1.4L412.1,492.1z"/>
<path class="st1" d="M418.4,490.8h5.1l-0.3,1.3h-3.8l-0.5,2h3.5l-0.3,1.3h-3.5l-0.4,2h3.8l-0.3,1.3h-5.1L418.4,490.8z"/>
<path class="st1" d="M424.9,494.6c0.5-2.1,2.1-3.9,4.6-3.9c1.5,0,2.7,0.8,3,2.3l-1.4,0.4c-0.1-1-0.7-1.3-1.7-1.3
	c-1.6,0-2.8,1.2-3.1,2.8c-0.3,1.4,0.1,2.6,1.7,2.6c1,0,1.9-0.4,2.6-1.5l1.1,0.6c-0.9,1.4-2.4,2.2-3.9,2.2
	C425.2,498.7,424.4,496.9,424.9,494.6z"/>
<path class="st1" d="M435.4,490.8h2.5c1.4,0,2.6,0.9,2.2,2.5c-0.2,0.9-1,1.6-2,2l1.3,3.5H438l-1.1-3.3h-0.5h-0.5l-0.8,3.3h-1.4
	L435.4,490.8z M437.2,494.2c0.7,0,1.3-0.5,1.4-1.1s-0.2-0.9-1-0.9h-1.1l-0.5,2.1h1.2V494.2z"/>
<path class="st1" d="M443.5,490.8h1.4l-1.7,7.8h-1.4L443.5,490.8z"/>
<path class="st1" d="M446.1,496.3l1.4-0.2c0,0.8,0.5,1.3,1.3,1.3c0.9,0,1.5-0.5,1.5-1.1c0-1.4-3-1-3-3.2c0-1.3,1.2-2.4,2.8-2.4
	c1,0,2,0.4,2.3,1.4l-1.2,0.6c-0.1-0.5-0.6-0.8-1.1-0.8c-0.7,0-1.2,0.5-1.2,1c0,1.3,3.1,0.9,3.1,3.2c0,1.5-1.4,2.6-3.1,2.6
	C447.3,498.7,446,497.9,446.1,496.3z"/>
<path class="st1" d="M456.8,492.1h-2.5l0.3-1.2h6.3l-0.3,1.2h-2.5l-1.5,6.6h-1.4L456.8,492.1z"/>
<path class="st1" d="M461.5,494.6c0.5-2.1,2.1-3.9,4.6-3.9s3.4,2,2.9,4.1s-2.1,3.9-4.6,3.9S461,496.9,461.5,494.6z M467.6,494.6
	c0.3-1.4,0-2.7-1.6-2.7c-1.7,0-2.7,1.3-3,2.9c-0.3,1.4,0,2.7,1.6,2.7S467.3,496.1,467.6,494.6z"/>
<path class="st1" d="M47.8,538.4h2.6c1.7,0,3,0.9,3,2.5c0,1.5-1.2,2.5-3,2.5h-1.2v3.6h-1.3L47.8,538.4L47.8,538.4z M50.4,542.1
	c1.1,0,1.6-0.4,1.6-1.2s-0.5-1.2-1.6-1.2h-1.2v2.5L50.4,542.1L50.4,542.1z"/>
<path class="st1" d="M56.2,538.4h2.7c1.6,0,2.9,0.9,2.9,2.5c0,1.1-0.7,2-1.7,2.3l2.4,3.8h-1.4l-2.2-3.7c-0.2,0-0.3,0-0.5,0h-0.7v3.7
	h-1.3v-8.6H56.2z M59,542.1c0.9,0,1.5-0.5,1.5-1.2c0-0.8-0.6-1.3-1.6-1.3h-1.3v2.6L59,542.1L59,542.1z"/>
<path class="st1" d="M64.4,542.6c0-2.4,1.2-4.3,4-4.3s4,2.1,4,4.3c0,2.3-1.2,4.4-4,4.4C65.7,547,64.4,545,64.4,542.6z M71.1,542.6
	c0-1.7-0.7-3.2-2.7-3.2s-2.7,1.5-2.7,3.2s0.7,3.2,2.7,3.2S71.1,544.3,71.1,542.6z"/>
<path class="st1" d="M75.5,538.4h1.3v7.3h3.7v1.2h-5V538.4z"/>
<path class="st1" d="M83.4,545.4h1.2v1.5h-1.2V545.4z"/>
<path class="st1" d="M92.6,538.4h2.6c1.7,0,3,0.9,3,2.5c0,1.5-1.2,2.5-3,2.5H94v3.6h-1.3L92.6,538.4L92.6,538.4z M95.2,542.1
	c1.1,0,1.6-0.4,1.6-1.2s-0.5-1.2-1.6-1.2H94v2.5L95.2,542.1L95.2,542.1z"/>
<path class="st1" d="M102.6,538.4h1l3.3,8.5h-1.4l-0.7-2h-3.4l-0.7,2h-1.4L102.6,538.4z M104.3,543.8l-1.3-3.6l-1.3,3.6H104.3z"/>
<path class="st1" d="M108.5,544.5l1.2-0.3c0.1,1.1,0.9,1.6,1.9,1.6s1.5-0.5,1.5-1.2c0-2-4.2-1.2-4.2-4c0-1.4,1.1-2.3,2.6-2.3
	c1,0,2,0.4,2.6,1.4l-1,0.6c-0.3-0.6-0.8-0.9-1.5-0.9s-1.2,0.4-1.2,1c0,1.7,4.2,1.1,4.2,4c0,1.5-1.3,2.6-2.9,2.6
	C110.3,547,108.8,546.2,108.5,544.5z"/>
<path class="st1" d="M117.5,538.4h5.7v1.2h-4.3v2.5h4v1.2h-4v2.5h4.3v1.2h-5.7V538.4z"/>
<path class="st1" d="M125.7,542.6c0-2.4,1.2-4.3,4-4.3s4,2.1,4,4.3c0,2.3-1.2,4.4-4,4.4C126.9,547,125.7,545,125.7,542.6z
	 M132.4,542.6c0-1.7-0.7-3.2-2.7-3.2s-2.7,1.5-2.7,3.2s0.7,3.2,2.7,3.2C131.6,545.8,132.4,544.3,132.4,542.6z"/>
<path class="st1" d="M56.2,553.2v8.5H55V555l-2.4,6h-1.2l-2.4-6v6.7h-1.2v-8.5h1.7l2.5,6.4l2.5-6.4H56.2z"/>
<path class="st1" d="M59.2,557.4c0-2.4,1.2-4.3,4-4.3s4,2.1,4,4.3c0,2.3-1.2,4.4-4,4.4C60.5,561.8,59.2,559.7,59.2,557.4z M66,557.4
	c0-1.7-0.7-3.2-2.7-3.2s-2.7,1.5-2.7,3.2s0.7,3.2,2.7,3.2C65.3,560.6,66,559.1,66,557.4z"/>
<path class="st1" d="M76.7,553.2v8.5h-1.3l-3.8-6.4v6.4h-1.2v-8.5h1.3l3.8,6.4v-6.4H76.7z"/>
<path class="st1" d="M82.1,554.3h-2.8v-1.1h6.8v1.1h-2.8v7.3H82L82.1,554.3L82.1,554.3z"/>
<path class="st1" d="M88.8,553.2h5.7v1.2h-4.3v2.5h4v1.2h-4v2.5h4.3v1.2h-5.7V553.2z"/>
<path class="st1" d="M96.5,559.1l1.2-0.1c0.1,0.9,0.5,1.6,1.5,1.6c1.2,0,1.5-0.7,1.5-2v-4.2h-3.3v-1.2h4.6v5.4
	c0,1.9-0.8,3.2-2.8,3.2C97.5,561.8,96.6,560.6,96.5,559.1z"/>
<path class="st1" d="M104.9,557.4c0-2.4,1.2-4.3,4-4.3s4,2.1,4,4.3c0,2.3-1.2,4.4-4,4.4C106.2,561.8,104.9,559.7,104.9,557.4z
	 M111.6,557.4c0-1.7-0.7-3.2-2.7-3.2s-2.7,1.5-2.7,3.2s0.7,3.2,2.7,3.2C110.9,560.6,111.6,559.1,111.6,557.4z"/>
<path class="st1" d="M126.6,736.4c0.4-2.4,2.1-4.1,4.7-3.6c1.6,0.3,2.8,1.3,3.2,3l-1.2,0.3c-0.1-1.2-0.9-1.8-2.2-2.1
	c-1.8-0.3-3,0.8-3.2,2.6c-0.3,1.7,0.3,3.3,2.2,3.6c1.1,0.2,2.1-0.1,2.7-1.2l1.1,0.7c-0.9,1.4-2.4,2.1-4,1.7
	C127.2,740.9,126.2,738.8,126.6,736.4z"/>
<path class="st1" d="M137.7,734l1.2,0.2l-1.4,8.4l-1.2-0.2L137.7,734z"/>
<path class="st1" d="M142.5,734.8l2.6,0.4c1.5,0.3,2.7,1.3,2.5,2.9c-0.2,1.1-1,1.7-2.1,1.8l1.6,4.2l-1.4-0.2l-1.4-4
	c-0.2,0-0.3-0.1-0.5-0.1l-0.7-0.1l-0.6,3.6l-1.2-0.2L142.5,734.8z M144.6,739.1c0.9,0.1,1.5-0.2,1.7-1c0.1-0.8-0.4-1.4-1.3-1.5
	l-1.3-0.2l-0.4,2.6L144.6,739.1z"/>
<path class="st1" d="M149.8,740.5c0.4-2.4,2.1-4.1,4.7-3.6c1.6,0.3,2.8,1.3,3.2,3l-1.2,0.3c-0.1-1.2-0.9-1.8-2.2-2.1
	c-1.8-0.3-3,0.8-3.2,2.6c-0.3,1.7,0.3,3.3,2.2,3.6c1.1,0.2,2.1-0.1,2.7-1.2l1.1,0.7c-0.9,1.4-2.4,2.1-4,1.7
	C150.4,745,149.4,742.9,149.8,740.5z"/>
<path class="st1" d="M159.8,743.2l0.9-5.1l1.2,0.2l-0.8,5c-0.2,1.4,0.1,2.4,1.4,2.6c1.4,0.2,2.1-0.5,2.3-2l0.8-5l1.2,0.2l-0.9,5.1
	c-0.4,2.1-1.5,3.2-3.7,2.9C160.2,746.7,159.5,745.2,159.8,743.2z"/>
<path class="st1" d="M170.3,739.7l1.2,0.2l-1.4,8.4l-1.2-0.2L170.3,739.7z"/>
<path class="st1" d="M176.8,742l-2.8-0.5l0.2-1.1l6.7,1.1l-0.2,1.1l-2.8-0.5l-1.2,7.2l-1.2-0.2L176.8,742z"/>
<path class="st1" d="M182,746c0.4-2.3,2.1-4.1,4.7-3.6c2.7,0.5,3.6,2.7,3.2,5c-0.4,2.4-2.1,4.1-4.7,3.6
	C182.5,750.6,181.6,748.3,182,746z M188.6,747.2c0.3-1.6-0.2-3.3-2.1-3.6c-1.9-0.3-2.9,1-3.2,2.7s0.2,3.3,2.1,3.6
	C187.2,750.3,188.3,748.9,188.6,747.2z"/>
<path class="st1" d="M196.5,748.6c0.4-2.4,2.1-4.1,4.7-3.6c1.6,0.3,2.8,1.3,3.2,3l-1.2,0.3c-0.1-1.2-0.9-1.8-2.2-2.1
	c-1.9-0.3-3,0.8-3.2,2.6c-0.3,1.7,0.3,3.3,2.2,3.6c1.1,0.2,2.1-0.1,2.7-1.2l1.1,0.7c-0.9,1.4-2.4,2.1-4,1.7
	C197,753.1,196.1,750.9,196.5,748.6z"/>
<path class="st1" d="M206.1,750.3c0.4-2.3,2.1-4.1,4.7-3.6c2.7,0.5,3.6,2.7,3.2,5c-0.4,2.4-2.1,4.1-4.7,3.6
	C206.7,754.8,205.7,752.5,206.1,750.3z M212.7,751.4c0.3-1.6-0.2-3.3-2.1-3.6c-1.8-0.3-2.9,1-3.2,2.7s0.2,3.3,2.1,3.6
	C211.5,754.5,212.4,753.1,212.7,751.4z"/>
<path class="st1" d="M217.8,748l1.2,0.2l-1.2,7.2l3.7,0.6l-0.2,1.2l-4.9-0.8L217.8,748z"/>
<path class="st1" d="M223.7,753.3c0.4-2.3,2.1-4.1,4.7-3.6c2.7,0.5,3.6,2.7,3.2,5c-0.4,2.4-2.1,4.1-4.7,3.6
	C224.2,757.9,223.3,755.6,223.7,753.3z M230.3,754.5c0.3-1.6-0.2-3.3-2.1-3.6c-1.8-0.3-2.9,1-3.2,2.7s0.2,3.3,2.1,3.6
	C229.1,757.5,230,756.1,230.3,754.5z"/>
<path class="st1" d="M241.6,752.1l-1.4,8.4l-1.3-0.2l-2.7-7l-1.1,6.3l-1.2-0.2l1.4-8.4l1.2,0.2l2.7,6.9l1.1-6.3L241.6,752.1z"/>
<path class="st1" d="M245.2,752.7l1.2,0.2l-1.4,8.4l-1.2-0.2L245.2,752.7z"/>
<path class="st1" d="M252.3,754l1,0.2l1.8,8.9l-1.3-0.2l-0.3-2.1l-3.4-0.6l-1,1.7l-1.4-0.2L252.3,754z M253.1,759.7l-0.6-3.8l-2,3.3
	L253.1,759.7z"/>
<path class="st1" d="M257.2,761.1l1.3-0.1c-0.1,1.1,0.6,1.7,1.5,2c1,0.2,1.6-0.3,1.7-0.9c0.3-1.8-3.9-2-3.5-4.7
	c0.2-1.4,1.5-2.1,2.9-1.8c1,0.2,1.8,0.8,2.3,1.8l-1.1,0.5c-0.2-0.7-0.7-1.1-1.3-1.2c-0.7-0.1-1.3,0.2-1.4,0.8
	c-0.3,1.7,3.9,1.8,3.5,4.6c-0.3,1.5-1.7,2.3-3.3,2C258.3,763.7,257.1,762.7,257.2,761.1z"/>
<path class="st1" d="M223.7,695.8l1,0.1l2.1,8.8l-1.3-0.2l-0.4-2l-3.4-0.5l-0.9,1.9l-1.4-0.2L223.7,695.8z M224.7,701.6l-0.8-3.7
	l-1.7,3.4L224.7,701.6z"/>
<path class="st1" d="M236.6,697.7l-4.5,7.9l-1-0.1l-2.2-8.9l1.4,0.2l1.5,6.7l3.3-6.1L236.6,697.7z"/>
<path class="st1" d="M236.9,704.7l1.2,0.2l-0.2,1.5l-1.2-0.2L236.9,704.7z"/>
<path class="st1" d="M245.3,704.8h1.2c-0.1,0.9,0.3,1.7,1.3,1.8c1.1,0.2,1.6-0.5,1.7-1.7l0.6-4.2l-3.3-0.4l0.2-1.1l4.5,0.6l-0.7,5.3
	c-0.3,1.8-1.2,3.1-3.2,2.8C246,707.6,245.2,706.3,245.3,704.8z"/>
<path class="st1" d="M253.9,704.3c0.3-2.3,1.8-4.1,4.6-3.8c2.8,0.4,3.7,2.6,3.4,4.9c-0.3,2.3-1.9,4.1-4.6,3.8
	C254.5,708.9,253.6,706.6,253.9,704.3z M260.5,705.3c0.2-1.7-0.3-3.3-2.2-3.6c-2-0.3-2.9,1.1-3.1,2.8c-0.2,1.7,0.3,3.3,2.2,3.6
	C259.4,708.3,260.3,707,260.5,705.3z"/>
<path class="st1" d="M263.8,707.6l1.3-0.1c0,1.1,0.7,1.7,1.6,1.8c1,0.1,1.6-0.3,1.7-1c0.3-2-4-1.8-3.6-4.5c0.2-1.4,1.4-2.1,2.9-2
	c1,0.1,1.9,0.7,2.3,1.7l-1.1,0.5c-0.2-0.6-0.7-1-1.3-1.1c-0.7-0.1-1.2,0.3-1.3,0.9c-0.2,1.7,4,1.7,3.6,4.5c-0.2,1.5-1.6,2.4-3.2,2.1
	C265.1,710.3,263.8,709.3,263.8,707.6z"/>
<path class="st1" d="M273.5,702.8l5.5,0.8l-0.2,1.1l-4.3-0.6l-0.3,2.5l3.9,0.5l-0.2,1.1l-3.9-0.5l-0.3,2.5l4.3,0.6l-0.2,1.2
	l-5.5-0.8L273.5,702.8z M277.4,700.8l1.3,0.2l-2,1.4l-0.9-0.1L277.4,700.8z"/>
<path class="st1" d="M286.4,704.5l2.4,0.3c2.9,0.4,4.1,2.2,3.8,4.9c-0.4,2.7-2.2,3.9-4.9,3.5l-2.4-0.3L286.4,704.5z M287.6,712.1
	c2,0.3,3.3-0.4,3.6-2.6c0.3-2.2-0.5-3.2-2.7-3.5l-1.1-0.1l-0.8,6.1L287.6,712.1z"/>
<path class="st1" d="M296.1,706l1.2,0.2l-1.1,8.4l-1.2-0.2L296.1,706z M297.8,703.6l1.3,0.2l-2,1.4l-0.9-0.1L297.8,703.6z"/>
<path class="st1" d="M303.2,706.9l1,0.1l2.1,8.8l-1.3-0.2l-0.4-2l-3.4-0.5l-0.9,1.9l-1.4-0.2L303.2,706.9z M304.3,712.5l-0.8-3.7
	l-1.7,3.4L304.3,712.5z"/>
<path class="st1" d="M316,709.7l-5.9,5.7l4.9,0.7l-0.2,1.1l-6.8-0.9l0.1-0.9l5.9-5.7l-4.5-0.7l0.2-1.1l6.5,0.9L316,709.7z"/>
<path class="st1" d="M323.3,709.7l2.8,0.4c1.3,0.2,2.6,1,2.4,2.6c-0.1,0.8-0.7,1.3-1.2,1.5c0.8,0.4,1.2,1.3,1.1,2.3
	c-0.2,1.5-1.5,2.3-3.1,2.1l-3.1-0.4L323.3,709.7z M325.4,717.4c0.9,0.1,1.5-0.2,1.6-1.1c0.1-0.7-0.4-1.3-1.2-1.4l-1.9-0.3l-0.4,2.6
	L325.4,717.4z M325.8,713.6c0.7,0.1,1.3-0.1,1.4-1c0.1-0.7-0.4-1.2-1.2-1.3l-1.5-0.2l-0.3,2.4L325.8,713.6z"/>
<path class="st1" d="M330.9,715.1c0.3-2.3,1.9-4.1,4.6-3.8c2.8,0.4,3.7,2.6,3.4,4.9c-0.3,2.3-1.8,4.1-4.6,3.8
	C331.6,719.5,330.6,717.4,330.9,715.1z M337.6,716c0.2-1.7-0.3-3.3-2.2-3.6c-2-0.3-2.9,1.1-3.1,2.8s0.3,3.3,2.2,3.6
	C336.3,719.1,337.4,717.7,337.6,716z"/>
<path class="st1" d="M342.5,712.3l1.2,0.2l-1,7.2l3.7,0.5l-0.2,1.2l-4.9-0.7L342.5,712.3z"/>
<path class="st1" d="M350,713.5l1.2,0.2l-1.1,8.4l-1.2-0.2L350,713.5z"/>
<path class="st1" d="M353.7,718.2c0.3-2.3,1.8-4.1,4.6-3.8c2.8,0.4,3.7,2.6,3.4,4.9c-0.3,2.3-1.9,4.1-4.6,3.8
	C354.4,722.7,353.4,720.6,353.7,718.2z M360.4,719.2c0.2-1.7-0.3-3.3-2.2-3.6c-2-0.3-2.9,1.1-3.1,2.8s0.3,3.3,2.2,3.6
	S360.2,720.9,360.4,719.2z"/>
<path class="st1" d="M229.9,325.6c0-1.8,0.9-3.2,2.9-3.2c1.2,0,2.2,0.6,2.6,1.7l-0.7,0.3c-0.3-0.9-1-1.3-2-1.3c-1.4,0-2.2,1-2.2,2.5
	c0,1.4,0.6,2.6,2.2,2.6c1,0,1.7-0.5,2-1.6v-0.4h-1.5v-0.6h2.3v3.3h-0.6l-0.1-1c-0.4,0.7-1.1,1.1-2.1,1.1
	C230.8,328.7,229.9,327.4,229.9,325.6z"/>
<path class="st1" d="M238,322.5h0.8v5.5h2.8v0.7H238V322.5z"/>
<path class="st1" d="M242.9,325.6c0-1.7,0.9-3.2,2.9-3.2s3,1.5,3,3.2s-0.9,3.2-3,3.2C244,328.7,242.9,327.3,242.9,325.6z M248,325.6
	c0-1.3-0.6-2.5-2.2-2.5c-1.4,0-2.1,1.1-2.1,2.5s0.6,2.5,2.1,2.5C247.5,328.1,248,326.9,248,325.6z"/>
<path class="st1" d="M251.2,322.5h1.9c1.2,0,2.2,0.6,2.2,1.7c0,0.8-0.5,1.4-1.3,1.6l1.7,2.9h-0.9L253,326c-0.1,0-0.3,0-0.4,0H252
	v2.8h-0.8V322.5z M253.1,325.3c0.8,0,1.2-0.4,1.2-1c0-0.7-0.5-1.1-1.3-1.1h-1v2.2h1.1V325.3z"/>
<path class="st1" d="M257.7,322.5h0.8v6.3h-0.8V322.5z"/>
<path class="st1" d="M261.2,322.5h4.1v0.7h-3.4v2.1h3.1v0.7h-3.1v2.1h3.4v0.7h-4.1V322.5z"/>
<path class="st1" d="M269.2,323.2H267v-0.7h5v0.7h-2v5.5h-0.8V323.2L269.2,323.2z"/>
<path class="st1" d="M275.3,322.5h0.6l2.4,6.3h-0.8l-0.5-1.4h-2.7l-0.5,1.4H273L275.3,322.5z M276.6,326.6l-1-3l-1,3H276.6z"/>
<path class="st1" d="M230.3,333.4h4.1v0.7H231v2.1h3.1v0.7H231v2.1h3.4v0.7h-4.1L230.3,333.4L230.3,333.4z"/>
<path class="st1" d="M236.8,333.4h0.8v5.5h2.8v0.7h-3.6V333.4z"/>
<path class="st1" d="M245.6,333.4h1.8c1.2,0,2.2,0.6,2.2,1.9s-0.8,1.7-2.2,1.7h-1v2.7h-0.8V333.4z M247.5,336.1c0.9,0,1.3-0.4,1.3-1
	c0-0.7-0.4-1-1.3-1h-1v2.2h1V336.1z"/>
<path class="st1" d="M251.4,336.5c0-1.7,0.9-3.2,2.9-3.2s3,1.5,3,3.2s-0.9,3.2-3,3.2C252.3,339.6,251.4,338.2,251.4,336.5z
	 M256.3,336.5c0-1.3-0.6-2.5-2.2-2.5c-1.4,0-2.1,1.1-2.1,2.5s0.6,2.5,2.1,2.5C255.8,339,256.3,337.8,256.3,336.5z"/>
<path class="st1" d="M263.8,333.9l-3.9,4.9h3.9v0.7h-4.9V339l3.9-4.9h-3.7v-0.7h4.7V333.9z"/>
<path class="st1" d="M266.1,333.4h0.8v6.3h-0.8V333.4z"/>
<path class="st1" d="M271,334h-2.2v-0.7h5v0.7h-2.2v5.5h-0.8V334H271z"/>
<path class="st1" d="M275.3,336.5c0-1.7,0.9-3.2,2.9-3.2s3,1.5,3,3.2s-0.9,3.2-3,3.2C276.2,339.6,275.3,338.2,275.3,336.5z
	 M280.3,336.5c0-1.3-0.6-2.5-2.2-2.5c-1.4,0-2.1,1.1-2.1,2.5s0.6,2.5,2.1,2.5C279.7,339,280.3,337.8,280.3,336.5z"/>
<path class="st1" d="M332,556.2c0-1.7,0.9-3.2,2.8-3.2c2,0,2.9,1.4,2.9,3.2s-0.9,3.2-2.9,3.2C332.9,559.3,332,557.9,332,556.2z
	 M337.2,556.2c0-1.5-0.7-2.8-2.4-2.8c-1.6,0-2.4,1.2-2.4,2.8c0,1.5,0.7,2.8,2.4,2.8C336.4,558.9,337.2,557.7,337.2,556.2z"/>
<path class="st1" d="M341.6,556.2l-2.2-3.1h0.5l2,2.8l2-2.8h0.5l-2.2,3.1l2.3,3.2H344l-2-2.9l-2,2.9h-0.7L341.6,556.2z"/>
<path class="st1" d="M348.3,556.2l-2.2-3.1h0.5l2,2.8l2-2.8h0.5l-2.2,3.1l2.3,3.2h-0.5l-2-2.9l-2,2.9h-0.5L348.3,556.2z"/>
<path class="st1" d="M352.9,556.2c0-1.7,0.9-3.2,2.8-3.2c2,0,2.9,1.4,2.9,3.2s-0.9,3.2-2.9,3.2C353.7,559.3,352.9,557.9,352.9,556.2
	z M358,556.2c0-1.5-0.7-2.8-2.4-2.8c-1.6,0-2.4,1.2-2.4,2.8c0,1.5,0.7,2.8,2.4,2.8C357.3,558.9,358,557.7,358,556.2z"/>
<path class="st1" d="M166.4,497l0.4-0.1c0.1,0.9,0.8,1.4,1.6,1.4c0.9,0,1.5-0.5,1.5-1.3c0-1.7-3.3-1.2-3.3-3.1
	c0-0.9,0.7-1.5,1.7-1.5c0.7,0,1.3,0.3,1.7,1l-0.4,0.2c-0.3-0.5-0.7-0.8-1.3-0.8c-0.7,0-1.2,0.5-1.2,1.1c0,1.5,3.3,1,3.3,3.1
	c0,1-0.8,1.7-2,1.7C167.5,498.7,166.6,498.1,166.4,497z"/>
<path class="st1" d="M172.8,496.3v-3.9h0.4v3.9c0,1.3,0.5,2,1.7,2s1.7-0.7,1.7-2.1v-3.9h0.4v3.9c0,1.5-0.7,2.5-2.2,2.5
	C173.6,498.7,172.8,497.8,172.8,496.3z"/>
<path class="st1" d="M180.1,492.3h1.6c1.2,0,2.1,0.6,2.1,1.7s-0.8,1.7-2.1,1.7h-1.2v2.8h-0.4L180.1,492.3L180.1,492.3z M181.8,495.4
	c1,0,1.6-0.5,1.6-1.3s-0.6-1.3-1.6-1.3h-1.2v2.7h1.2V495.4z"/>
<path class="st1" d="M186.3,492.3h4.1v0.4h-3.6v2.5h3.3v0.4h-3.3v2.6h3.6v0.4h-4.1V492.3z"/>
<path class="st1" d="M193,492.3h1.6c1.2,0,2.1,0.6,2.1,1.7c0,0.8-0.5,1.4-1.3,1.6l1.7,3h-0.5l-1.6-2.9c-0.1,0-0.3,0-0.4,0h-1v2.9
	h-0.4v-6.4L193,492.3L193,492.3z M194.6,495.4c1,0,1.5-0.4,1.5-1.3c0-0.8-0.6-1.3-1.6-1.3h-1.1v2.7h1.2V495.4z"/>
<path class="st1" d="M201,492.3h0.4l2.3,6.3h-0.5l-0.5-1.5h-2.9l-0.5,1.5h-0.5L201,492.3z M202.5,496.7l-1.3-3.7l-1.3,3.7H202.5z"/>
<path class="st1" d="M211.8,492.3v6.3h-0.4v-5.8l-2.3,5.2h-0.4l-2.3-5.2v5.8H206v-6.3h0.6l2.3,5.2l2.3-5.2H211.8z"/>
<path class="st1" d="M216.4,492.3h0.4l2.3,6.3h-0.5l-0.5-1.5h-2.9l-0.5,1.5h-0.5L216.4,492.3z M217.9,496.7l-1.3-3.7l-1.3,3.7H217.9
	z"/>
<path class="st1" d="M49.8,602.3h0.4v5.9h3v0.4h-3.4V602.3z"/>
<path class="st1" d="M57.2,602.3h0.4l2.3,6.3h-0.5l-0.5-1.5H56l-0.5,1.5H55L57.2,602.3z M58.8,606.6l-1.3-3.7l-1.3,3.7H58.8z"/>
<path class="st1" d="M65.6,602.3h1.6c1.2,0,2.1,0.6,2.1,1.7s-0.8,1.7-2.1,1.7H66v2.8h-0.4V602.3z M67.2,605.4c1,0,1.6-0.5,1.6-1.3
	s-0.6-1.3-1.6-1.3H66v2.7h1.2V605.4z"/>
<path class="st1" d="M72.8,602.3h0.4l2.3,6.3H75l-0.5-1.5h-2.9l-0.5,1.5h-0.5L72.8,602.3z M74.3,606.6l-1.3-3.7l-1.3,3.7H74.3z"/>
<path class="st1" d="M77.8,602.3h1.6c1.2,0,2.1,0.6,2.1,1.7c0,0.8-0.5,1.4-1.3,1.6l1.7,3h-0.5l-1.6-2.9c-0.1,0-0.3,0-0.4,0h-1v2.9
	H78v-6.4h-0.2V602.3z M79.4,605.4c1,0,1.5-0.4,1.5-1.3c0-0.8-0.6-1.3-1.6-1.3h-1.2v2.7h1.3V605.4z"/>
<path class="st1" d="M84.3,602.3h1.6c1.2,0,2.1,0.6,2.1,1.7c0,0.8-0.5,1.4-1.3,1.6l1.7,3h-0.5l-1.6-2.9c-0.1,0-0.3,0-0.4,0h-1v2.9
	h-0.4v-6.4h-0.2V602.3z M86,605.4c1,0,1.5-0.4,1.5-1.3c0-0.8-0.6-1.3-1.6-1.3h-1.2v2.7H86V605.4z"/>
<path class="st1" d="M90.7,602.3h0.4v6.3h-0.4V602.3z"/>
<path class="st1" d="M94.2,602.3h0.4v5.9h3v0.4h-3.4V602.3z"/>
<path class="st1" d="M99.9,602.3h0.4v5.9h3v0.4h-3.4V602.3z"/>
<path class="st1" d="M107.3,602.3h0.4l2.3,6.3h-0.5l-0.5-1.5h-2.9l-0.5,1.5H105L107.3,602.3z M108.8,606.6l-1.3-3.7l-1.3,3.7H108.8z
	"/>
<path class="st1" d="M150.6,642.1c0-1.7,0.9-3.2,2.8-3.2c2,0,2.9,1.4,2.9,3.2s-0.9,3.2-2.9,3.2C151.5,645.2,150.6,643.8,150.6,642.1
	z M155.8,642.1c0-1.5-0.7-2.8-2.4-2.8c-1.6,0-2.4,1.2-2.4,2.8c0,1.5,0.7,2.8,2.4,2.8C155,644.9,155.8,643.6,155.8,642.1z"/>
<path class="st1" d="M158.8,639h4.2v0.4h-3.7v2.5h3.3v0.4h-3.3v3h-0.4V639H158.8z"/>
<path class="st1" d="M165.3,639h4.2v0.4h-3.7v2.5h3.3v0.4h-3.3v3h-0.4V639H165.3z"/>
<path class="st1" d="M171.8,639h0.4v6.3h-0.4V639z"/>
<path class="st1" d="M174.9,642.1c0-2,0.9-3.2,2.9-3.2c1.2,0,2.1,0.5,2.5,1.6l-0.4,0.2c-0.3-1-1-1.4-2.1-1.4c-1.5,0-2.4,1-2.4,2.8
	c0,1.5,0.7,2.8,2.4,2.8c1,0,1.7-0.4,2.2-1.4l0.4,0.2c-0.5,1.1-1.3,1.6-2.6,1.6C175.9,645.2,174.9,644,174.9,642.1z"/>
<path class="st1" d="M182.7,639h4.1v0.4h-3.7v2.5h3.3v0.4h-3.3v2.6h3.6v0.4h-4.1L182.7,639L182.7,639z"/>
<path class="st1" d="M151,649.9h1.6c2.1,0,3.2,1.1,3.2,3.2c0,2-1.1,3.1-3.2,3.1H151V649.9z M152.6,655.7c1.7,0,2.8-0.9,2.8-2.7
	s-0.9-2.8-2.8-2.8h-1.2v5.4L152.6,655.7L152.6,655.7z"/>
<path class="st1" d="M158.4,649.9h4.1v0.4h-3.6v2.5h3.3v0.4h-3.3v2.6h3.6v0.4h-4.1V649.9z"/>
<path class="st1" d="M164.9,649.9h1.6c1.2,0,2.1,0.6,2.1,1.7c0,1.1-0.8,1.7-2.1,1.7h-1.2v2.8h-0.4L164.9,649.9L164.9,649.9z
	 M166.6,653c1,0,1.6-0.5,1.6-1.3s-0.6-1.3-1.6-1.3h-1.2v2.7h1.2V653z"/>
<path class="st1" d="M170.7,653c0-1.7,0.9-3.2,2.8-3.2c2,0,2.9,1.4,2.9,3.2s-0.9,3.2-2.9,3.2C171.6,656.1,170.7,654.7,170.7,653z
	 M175.9,653c0-1.5-0.7-2.8-2.4-2.8c-1.6,0-2.4,1.2-2.4,2.8c0,1.5,0.7,2.8,2.4,2.8S175.9,654.5,175.9,653z"/>
<path class="st1" d="M180.4,650.3h-2.3v-0.4h4.9v0.4h-2.3v5.9h-0.4v-5.9H180.4z"/>
<path class="st1" d="M294.1,591.1v0.3l-3.2,6h-0.5l3.2-5.9h-4v-0.4L294.1,591.1L294.1,591.1z"/>
<path class="st1" d="M299.7,591.1h4.1v0.4h-3.6v2.5h3.3v0.4h-3.3v2.6h3.6v0.4h-4.1V591.1z"/>
<path class="st1" d="M306.2,591.1h0.4v5.9h2.9v0.4h-3.4v-6.3L306.2,591.1L306.2,591.1z"/>
<path class="st1" d="M311.9,591.1h4.1v0.4h-3.6v2.5h3.3v0.4h-3.3v2.6h3.6v0.4h-4.1V591.1z"/>
<path class="st1" d="M323.2,591.1l-2.5,6.3h-0.4l-2.5-6.3h0.5l2.2,5.7l2.2-5.7H323.2z"/>
<path class="st1" d="M325.4,591.1h4.1v0.4H326v2.5h3.3v0.4H326v2.6h3.6v0.4h-4.1v-6.3H325.4z"/>
<path class="st1" d="M336.2,591.1v6.3h-0.5l-3.3-5.7v5.7h-0.3v-6.3h0.5l3.3,5.7v-5.7H336.2z"/>
<path class="st1" d="M118,427.2c0-2,0.9-3.2,2.9-3.2c1.2,0,2.1,0.5,2.5,1.6l-0.4,0.2c-0.3-1-1-1.4-2.1-1.4c-1.5,0-2.4,1-2.4,2.8
	c0,1.5,0.7,2.8,2.4,2.8c1,0,1.7-0.4,2.2-1.4l0.4,0.2c-0.5,1.1-1.3,1.6-2.6,1.6C119,430.4,118,429.1,118,427.2z"/>
<path class="st1" d="M125.8,424.1h0.4v5.9h2.9v0.4h-3.4L125.8,424.1L125.8,424.1z"/>
<path class="st1" d="M131.2,428v-3.9h0.4v3.9c0,1.3,0.5,2,1.7,2s1.7-0.7,1.7-2.1V424h0.4v3.9c0,1.5-0.7,2.5-2.2,2.5
	C132,430.4,131.2,429.6,131.2,428z"/>
<path class="st1" d="M138.5,424.1h1.9c1.1,0,1.9,0.5,1.9,1.5c0,0.6-0.4,1.2-0.9,1.3c0.7,0.1,1.2,0.7,1.2,1.6c0,1.1-0.8,1.7-2,1.7h-2
	v-6.3h-0.1V424.1z M140.6,426.9c0.7,0,1.2-0.4,1.2-1.2c0-0.8-0.5-1.2-1.4-1.2H139v2.5L140.6,426.9L140.6,426.9z M140.5,430
	c1,0,1.5-0.4,1.5-1.3c0-0.8-0.5-1.3-1.3-1.3H139v2.7h1.5V430z"/>
<path class="st1" d="M118,438.1c0-2,0.9-3.2,2.9-3.2c1.2,0,2.1,0.5,2.5,1.6l-0.4,0.2c-0.3-0.9-1-1.4-2.1-1.4c-1.5,0-2.4,1-2.4,2.8
	c0,1.5,0.7,2.8,2.4,2.8c1,0,1.7-0.4,2.2-1.4l0.4,0.2c-0.5,1.1-1.3,1.6-2.6,1.6C119,441.3,118,440,118,438.1z"/>
<path class="st1" d="M127.1,435h0.4l2.3,6.3h-0.5l-0.5-1.5h-2.9l-0.5,1.5h-0.5L127.1,435z M128.7,439.3l-1.3-3.7l-1.3,3.7H128.7z"/>
<path class="st1" d="M137.9,435v6.3h-0.4v-5.8l-2.3,5.2h-0.4l-2.3-5.2v5.8h-0.4V435h0.6l2.3,5.2l2.3-5.2H137.9z"/>
<path class="st1" d="M140.9,435h1.6c1.2,0,2.1,0.6,2.1,1.7s-0.8,1.7-2.1,1.7h-1.2v2.8h-0.4L140.9,435L140.9,435z M142.5,438
	c1,0,1.6-0.5,1.6-1.3s-0.6-1.3-1.6-1.3h-1.2v2.7h1.2V438z"/>
<path class="st1" d="M147.2,435h4.1v0.4h-3.6v2.5h3.3v0.4h-3.3v2.6h3.6v0.4h-4.1V435z"/>
<path class="st1" d="M153.2,439.6l0.4-0.1c0.1,0.9,0.8,1.4,1.6,1.4c0.9,0,1.5-0.5,1.5-1.3c0-1.7-3.3-1.2-3.3-3.1
	c0-0.9,0.7-1.5,1.7-1.5c0.7,0,1.3,0.3,1.7,1l-0.4,0.2c-0.3-0.5-0.7-0.8-1.3-0.8c-0.7,0-1.2,0.5-1.2,1.1c0,1.5,3.3,1,3.3,3.1
	c0,1-0.8,1.7-2,1.7C154.2,441.3,153.4,440.6,153.2,439.6z"/>
<path class="st1" d="M161.3,435.3H159v-0.4h4.9v0.4h-2.3v5.9h-0.4v-5.9H161.3z"/>
<path class="st1" d="M166.3,435h1.6c1.2,0,2.1,0.6,2.1,1.7c0,0.8-0.5,1.4-1.3,1.6l1.7,3h-0.5l-1.6-2.9c-0.1,0-0.3,0-0.4,0h-1v2.9
	h-0.4V435H166.3z M168,438c1,0,1.5-0.4,1.5-1.3c0-0.8-0.6-1.3-1.6-1.3h-1.2v2.7h1.3V438z"/>
<path class="st1" d="M172.8,435h4.1v0.4h-3.6v2.5h3.3v0.4h-3.3v2.6h3.6v0.4h-4.1V435z"/>
<path class="st1" d="M372.7,145.3h1.6c1.2,0,2.1,0.6,2.1,1.7c0,1.1-0.8,1.7-2.1,1.7h-1.1v2.8h-0.4v-6.3h-0.1V145.3z M374.4,148.4
	c1,0,1.6-0.5,1.6-1.3s-0.6-1.3-1.6-1.3h-1.1v2.7L374.4,148.4L374.4,148.4z"/>
<path class="st1" d="M379,145.3h0.4v5.9h3v0.4H379V145.3z"/>
<path class="st1" d="M386.4,145.3h0.4l2.3,6.3h-0.4l-0.5-1.5h-2.9l-0.5,1.5h-0.5L386.4,145.3z M387.9,149.6l-1.3-3.7l-1.3,3.7H387.9
	z"/>
<path class="st1" d="M395.7,145.7l-4.3,5.5h4.3v0.4h-4.9v-0.3l4.3-5.5H391v-0.4h4.7V145.7z"/>
<path class="st1" d="M399.8,145.3h0.4l2.3,6.3H402l-0.5-1.5h-2.9l-0.5,1.5h-0.5L399.8,145.3z M401.3,149.6l-1.3-3.7l-1.3,3.7H401.3z
	"/>
<path class="st1" d="M378.5,156.2v6.3h-0.4v-5.8l-2.3,5.2h-0.4l-2.3-5.2v5.8h-0.4v-6.3h0.6l2.3,5.2l2.3-5.2H378.5z"/>
<path class="st1" d="M383.1,156.2h0.4l2.3,6.3h-0.5l-0.5-1.5h-2.9l-0.5,1.5h-0.5L383.1,156.2z M384.6,160.5l-1.3-3.7l-1.3,3.7H384.6
	z"/>
<path class="st1" d="M392.3,156.2v6.3h-0.5l-3.3-5.7v5.7h-0.4v-6.3h0.5l3.3,5.5v-5.5H392.3z"/>
<path class="st1" d="M394.9,159.3c0-2,0.9-3.2,2.9-3.2c1.2,0,2.1,0.5,2.5,1.6l-0.4,0.2c-0.3-1-1-1.4-2.1-1.4c-1.5,0-2.4,1.1-2.4,2.8
	c0,1.5,0.7,2.9,2.4,2.9c1.1,0,1.9-0.5,2.2-1.5v-0.9h-1.5v-0.4h2v3.2h-0.4v-1.2c-0.4,0.8-1.1,1.2-2.2,1.2
	C395.8,162.6,394.9,161.2,394.9,159.3z"/>
<path class="st1" d="M402.9,160.1v-3.9h0.4v3.9c0,1.3,0.5,2,1.7,2s1.7-0.7,1.7-2.1v-3.9h0.4v3.9c0,1.5-0.7,2.5-2.2,2.5
	C403.6,162.6,402.9,161.7,402.9,160.1z"/>
<path class="st1" d="M409.6,160.8l0.4-0.1c0.1,0.9,0.8,1.4,1.6,1.4c0.9,0,1.5-0.5,1.5-1.3c0-1.7-3.3-1.2-3.3-3.1
	c0-0.9,0.7-1.5,1.7-1.5c0.7,0,1.3,0.3,1.7,1l-0.4,0.2c-0.3-0.5-0.7-0.8-1.3-0.8c-0.7,0-1.2,0.5-1.2,1.1c0,1.6,3.3,1,3.3,3.1
	c0,1-0.8,1.7-2,1.7C410.6,162.5,409.8,162,409.6,160.8z"/>
<path class="st1" d="M368.1,188l-2.5,6.3h-0.4l-2.5-6.3h0.5l2.2,5.7l2.2-5.7H368.1z"/>
<path class="st1" d="M370.5,188h0.4v6.3h-0.4V188z"/>
<path class="st1" d="M373.5,191c0-2,0.9-3.2,2.9-3.2c1.2,0,2.1,0.5,2.5,1.6l-0.4,0.2c-0.3-1-1-1.4-2.1-1.4c-1.5,0-2.4,1-2.4,2.8
	c0,1.5,0.7,2.8,2.4,2.8c1,0,1.7-0.4,2.2-1.4l0.4,0.2c-0.5,1.1-1.3,1.6-2.6,1.6C374.5,194.3,373.5,193,373.5,191z"/>
<path class="st1" d="M382.8,188.4h-2.3V188h4.9v0.4h-2.3v5.9h-0.4L382.8,188.4L382.8,188.4z"/>
<path class="st1" d="M387.2,191c0-1.7,0.9-3.2,2.8-3.2c2,0,2.9,1.4,2.9,3.2c0,1.7-0.9,3.2-2.9,3.2
	C388.1,194.3,387.2,192.8,387.2,191z M392.4,191c0-1.5-0.7-2.8-2.4-2.8c-1.6,0-2.4,1.2-2.4,2.8c0,1.5,0.7,2.8,2.4,2.8
	C391.7,193.9,392.4,192.6,392.4,191z"/>
<path class="st1" d="M395.5,188h1.6c1.2,0,2.1,0.6,2.1,1.7c0,0.8-0.5,1.4-1.3,1.6l1.7,3h-0.5l-1.6-2.9c-0.1,0-0.3,0-0.4,0h-1v2.9
	h-0.4V188H395.5z M397.2,190.9c1,0,1.5-0.4,1.5-1.3c0-0.8-0.6-1.3-1.6-1.3h-1.2v2.7L397.2,190.9L397.2,190.9z"/>
<path class="st1" d="M403.5,191.9l-2.4-3.9h0.5l2.1,3.5l2.1-3.5h0.5l-2.4,3.9v2.4h-0.4L403.5,191.9L403.5,191.9z"/>
<path class="st1" d="M363.5,198.9h1.6c1.2,0,2.1,0.6,2.1,1.7c0,1.1-0.8,1.7-2.1,1.7H364v2.8h-0.4v-6.3h-0.1V198.9z M365.1,201.9
	c1,0,1.6-0.5,1.6-1.3s-0.6-1.3-1.6-1.3H364v2.7L365.1,201.9L365.1,201.9z"/>
<path class="st1" d="M369.7,198.9h0.4v5.9h3v0.4h-3.4V198.9z"/>
<path class="st1" d="M377.1,198.9h0.4l2.3,6.3h-0.4l-0.5-1.5H376l-0.5,1.5H375L377.1,198.9z M378.7,203.2l-1.3-3.7l-1.3,3.7H378.7z"
	/>
<path class="st1" d="M383.2,199.3h-2.3v-0.4h4.9v0.4h-2.3v5.9h-0.4L383.2,199.3L383.2,199.3z"/>
<path class="st1" d="M392.4,199.2l-4.3,5.5h4.3v0.4h-4.8v-0.3l4.3-5.5h-4.1v-0.4h4.7v0.3H392.4z"/>
<path class="st1" d="M160.6,237.3v15h-2.7l-6.3-10.5v10.5H149v-15h2.7l6.3,10.5v-10.5H160.6z"/>
<path class="st1" d="M155.2,225.6l-6.9,8.6l6.9-1.7l6.9,1.7L155.2,225.6z"/>
<path class="st0" d="M308.5,137.3c1.4,0,2.5-1.1,2.5-2.5s-1.1-2.5-2.5-2.5s-2.5,1.1-2.5,2.5S307.1,137.3,308.5,137.3z"/>
<path class="st1" d="M37.4,67.1v6.3H37v-5.7l-2.3,5.1h-0.4L32,67.7v5.8h-0.4v-6.3h0.6l2.3,5.2l2.3-5.2h0.6
	C37.4,67.2,37.4,67.1,37.4,67.1z"/>
<path class="st1" d="M40.4,67.1h4.1v0.4h-3.6V70h3.3v0.4h-3.3V73h3.6v0.4h-4.1V67.1z"/>
<path class="st1" d="M47,67.1h1.6c1.2,0,2.1,0.6,2.1,1.7c0,0.8-0.5,1.4-1.3,1.6l1.7,3h-0.5L49,70.5c-0.1,0-0.3,0-0.4,0h-1v2.9h-0.4
	V67H47V67.1z M48.7,70.2c1,0,1.5-0.4,1.5-1.3c0-0.8-0.6-1.3-1.6-1.3h-1.2v2.7L48.7,70.2L48.7,70.2z"/>
<path class="st1" d="M53,70.3c0-2,0.9-3.2,2.9-3.2c1.2,0,2.1,0.5,2.5,1.6L58,69c-0.3-1-1-1.4-2.1-1.4c-1.5,0-2.4,1-2.4,2.8
	c0,1.5,0.7,2.8,2.4,2.8c1,0,1.7-0.4,2.2-1.4l0.4,0.2c-0.5,1.1-1.3,1.6-2.6,1.6C54.1,73.5,53,72.2,53,70.3z"/>
<path class="st1" d="M60.8,67.1H65v0.4h-3.6V70h3.3v0.4h-3.3V73H65v0.4h-4.1v-6.3H60.8z"/>
<path class="st1" d="M67.4,67.1H69c2.1,0,3.2,1.1,3.2,3.2c0,2-1.1,3.1-3.2,3.1h-1.6V67.1z M69.1,73c1.7,0,2.8-0.9,2.8-2.7
	c0-1.8-0.9-2.8-2.8-2.8h-1.2V73H69.1z"/>
<path class="st1" d="M74.8,67.1h4.1v0.4h-3.6V70h3.3v0.4h-3.3V73h3.6v0.4h-4.1V67.1z"/>
<path class="st1" d="M80.9,71.7l0.4-0.1c0.1,0.9,0.8,1.4,1.6,1.4c0.9,0,1.5-0.5,1.5-1.3c0-1.7-3.3-1.2-3.3-3.1
	c0-0.9,0.7-1.5,1.7-1.5c0.7,0,1.3,0.3,1.7,1l-0.4,0.2c-0.3-0.5-0.7-0.8-1.3-0.8c-0.7,0-1.2,0.5-1.2,1.1c0,1.6,3.3,1,3.3,3.1
	c0,1-0.8,1.7-2,1.7C81.9,73.5,81.1,72.9,80.9,71.7z"/>
<path class="st1" d="M60.4,78h1.8c1.1,0,1.8,0.5,1.8,1.5c0,0.6-0.4,1.2-0.9,1.3c0.7,0.1,1.2,0.7,1.2,1.6c0,1.1-0.8,1.7-2,1.7h-2V78
	H60.4z M62.4,80.9c0.7,0,1.2-0.4,1.2-1.2c0-0.8-0.5-1.2-1.4-1.2h-1.3V81h1.5V80.9z M62.4,83.9c1,0,1.5-0.4,1.5-1.3
	c0-0.8-0.5-1.3-1.3-1.3h-1.7V84L62.4,83.9L62.4,83.9z"/>
<path class="st1" d="M66.9,78H71v0.4h-3.6v2.5h3.3v0.4h-3.3v2.6H71v0.4h-4.1V78z"/>
<path class="st1" d="M77.7,78v6.3h-0.5l-3.3-5.7v5.7h-0.4V78H74l3.3,5.5V78H77.7z"/>
<path class="st1" d="M85,78.4L80.7,84H85v0.4h-4.9v-0.3l4.3-5.5h-4.1V78H85V78.4z"/>
<path class="st0" d="M96.4,72.5c1.4,0,2.5-1.1,2.5-2.5s-1.1-2.5-2.5-2.5s-2.5,1.1-2.5,2.5S95,72.5,96.4,72.5z"/>
<path class="st1" d="M129.9,80.2h0.4v3.9l3.8-3.9h0.6l-2.4,2.5l2.6,3.8h-0.5l-2.3-3.5l-1.6,1.7v1.7h-0.4v-6.3h-0.2V80.2z"/>
<path class="st1" d="M137.2,80.2h0.4v6.3h-0.4V80.2z"/>
<path class="st1" d="M142.2,80.2h0.4l2.3,6.3h-0.5l-0.5-1.5H141l-0.5,1.5H140L142.2,80.2z M143.7,84.5l-1.3-3.7l-1.3,3.7H143.7z"/>
<path class="st0" d="M153.2,85.5c1.4,0,2.5-1.1,2.5-2.5s-1.1-2.5-2.5-2.5s-2.5,1.1-2.5,2.5C150.8,84.4,151.9,85.5,153.2,85.5z"/>
<path class="st1" d="M294.8,44.4h0.4v2.9h3.5v-2.9h0.4v6.3h-0.4v-3h-3.5v3h-0.4V44.4z"/>
<path class="st1" d="M301.8,47.5c0-1.7,0.9-3.2,2.8-3.2c2,0,2.9,1.4,2.9,3.2c0,1.7-0.9,3.2-2.9,3.2S301.8,49.2,301.8,47.5z
	 M306.9,47.5c0-1.5-0.7-2.8-2.4-2.8s-2.4,1.2-2.4,2.8c0,1.5,0.7,2.8,2.4,2.8S306.9,49,306.9,47.5z"/>
<path class="st1" d="M309.4,49l0.4-0.1c0.1,0.9,0.8,1.4,1.6,1.4c0.9,0,1.5-0.5,1.5-1.3c0-1.7-3.3-1.2-3.3-3.1c0-0.9,0.7-1.5,1.7-1.5
	c0.7,0,1.3,0.3,1.7,1l-0.4,0.2c-0.3-0.5-0.7-0.8-1.3-0.8c-0.7,0-1.2,0.5-1.2,1.1c0,1.6,3.3,1,3.3,3.1c0,1-0.8,1.7-2,1.7
	C310.4,50.7,309.6,50.1,309.4,49z"/>
<path class="st1" d="M316,44.4h1.6c1.2,0,2.1,0.6,2.1,1.7c0,1.1-0.8,1.7-2.1,1.7h-1.2v2.8H316V44.4z M317.6,47.5
	c1,0,1.6-0.5,1.6-1.3s-0.6-1.3-1.6-1.3h-1.2v2.7h1.2V47.5z"/>
<path class="st1" d="M322.3,44.4h0.4v6.3h-0.4V44.4z"/>
<path class="st1" d="M327.3,44.8H325v-0.4h4.9v0.4h-2.3v5.9h-0.4L327.3,44.8L327.3,44.8z"/>
<path class="st1" d="M333.3,44.4h0.4l2.3,6.3h-0.5l-0.5-1.5h-3l-0.5,1.5H331L333.3,44.4z M334.8,48.7l-1.3-3.7l-1.3,3.7H334.8z"/>
<path class="st1" d="M338.3,44.4h0.4v5.9h2.9v0.4h-3.3V44.4z"/>
<path class="st1" d="M256.7,55.3h4.2v0.4h-3.8v2.5h3.3v0.4h-3.3v3h-0.4L256.7,55.3L256.7,55.3z"/>
<path class="st1" d="M264.4,55.3h0.4l2.3,6.3h-0.5l-0.5-1.5h-2.9l-0.5,1.5h-0.5L264.4,55.3z M265.8,59.6l-1.3-3.7l-1.3,3.7H265.8z"
	/>
<path class="st1" d="M269.3,55.3h1.6c1.2,0,2.1,0.6,2.1,1.7c0,0.8-0.5,1.4-1.3,1.6l1.7,3h-0.5l-1.6-2.9c-0.1,0-0.3,0-0.4,0h-1v2.8
	h-0.4v-6.3h-0.2V55.3z M271.1,58.3c1,0,1.5-0.4,1.5-1.3c0-0.8-0.6-1.3-1.6-1.3h-1.2v2.7h1.3V58.3z"/>
<path class="st1" d="M275.4,58.4c0-1.7,0.9-3.2,2.8-3.2c2,0,2.9,1.4,2.9,3.2s-0.9,3.2-2.9,3.2C276.3,61.6,275.4,60.1,275.4,58.4z
	 M280.6,58.4c0-1.5-0.7-2.8-2.4-2.8s-2.4,1.2-2.4,2.8s0.7,2.8,2.4,2.8S280.6,59.9,280.6,58.4z"/>
<path class="st1" d="M287,55.3h1.6c2.1,0,3.2,1.1,3.2,3.2c0,2-1.1,3.1-3.2,3.1H287V55.3z M288.6,61.2c1.7,0,2.8-0.9,2.8-2.7
	s-0.9-2.8-2.8-2.8h-1.2v5.4L288.6,61.2L288.6,61.2z"/>
<path class="st1" d="M294.4,55.3h4.1v0.4h-3.6v2.5h3.3v0.4h-3.3v2.6h3.6v0.4h-4.1V55.3z"/>
<path class="st1" d="M301,55.3h0.4v5.9h3v0.4H301V55.3z"/>
<path class="st1" d="M315.7,55.3v6.3h-0.4v-5.8L313,61h-0.4l-2.3-5.2v5.8h-0.4v-6.3h0.6l2.3,5.2l2.3-5.2H315.7z"/>
<path class="st1" d="M320.3,55.3h0.4l2.3,6.3h-0.5L322,60h-2.9l-0.5,1.5H318L320.3,55.3z M321.7,59.6l-1.3-3.7l-1.3,3.7H321.7z"/>
<path class="st1" d="M326.4,59.2l-2.4-3.9h0.5l2.1,3.5l2.1-3.5h0.5l-2.4,3.9v2.4h-0.4L326.4,59.2L326.4,59.2z"/>
<path class="st1" d="M332.4,55.3h0.4l2.3,6.3h-0.5l-0.5-1.5h-2.9l-0.5,1.5h-0.5L332.4,55.3z M334,59.6l-1.3-3.7l-1.3,3.7H334z"/>
<path class="st1" d="M337.5,55.3h1.9c1.1,0,1.8,0.5,1.8,1.5c0,0.6-0.4,1.2-0.9,1.3c0.7,0.1,1.2,0.7,1.2,1.6c0,1.1-0.8,1.7-2,1.7h-2
	v-6.3l0,0V55.3z M339.5,58.1c0.7,0,1.2-0.4,1.2-1.2s-0.5-1.2-1.4-1.2H338v2.5L339.5,58.1L339.5,58.1z M339.4,61.2
	c1,0,1.5-0.4,1.5-1.3c0-0.8-0.5-1.3-1.3-1.3h-1.7v2.7h1.5V61.2z"/>
<path class="st0" d="M351.6,55.6c1.4,0,2.5-1.1,2.5-2.5s-1.1-2.5-2.5-2.5s-2.5,1.1-2.5,2.5C349.2,54.5,350.3,55.6,351.6,55.6z"/>
<path class="st1" d="M403.1,34.9h0.4v5.9h2.9v0.4H403v-6.3C403,34.9,403.1,34.9,403.1,34.9z"/>
<path class="st1" d="M410.5,34.9h0.4l2.3,6.3h-0.5l-0.5-1.5h-2.9l-0.5,1.5h-0.5L410.5,34.9z M412.1,39.2l-1.3-3.7l-1.3,3.7H412.1z"
	/>
<path class="st1" d="M418.9,34.9h0.4v6.3h-0.4V34.9z"/>
<path class="st1" d="M421.7,39.5l0.4-0.1c0.1,0.9,0.8,1.4,1.6,1.4c0.9,0,1.5-0.5,1.5-1.3c0-1.7-3.3-1.2-3.3-3.1
	c0-0.9,0.7-1.5,1.7-1.5c0.7,0,1.3,0.3,1.7,1l-0.4,0.2c-0.3-0.5-0.7-0.8-1.3-0.8c-0.7,0-1.2,0.5-1.2,1.1c0,1.6,3.3,1,3.3,3.1
	c0,1-0.8,1.7-2,1.7C422.8,41.1,421.9,40.6,421.7,39.5z"/>
<path class="st1" d="M428.3,34.9h0.4v5.9h3v0.4h-3.4V34.9z"/>
<path class="st1" d="M435.8,34.9h0.4l2.3,6.3H438l-0.5-1.5h-2.9l-0.5,1.5h-0.5L435.8,34.9z M437.2,39.2l-1.3-3.7l-1.3,3.7H437.2z"/>
<path class="st0" d="M394.2,40.2c1.4,0,2.5-1.1,2.5-2.5s-1.1-2.5-2.5-2.5s-2.5,1.1-2.5,2.5C391.7,39.1,392.8,40.2,394.2,40.2z"/>
<path class="st0" d="M288.5,159.9c1.4,0,2.5-1.1,2.5-2.5s-1.1-2.5-2.5-2.5s-2.5,1.1-2.5,2.5S287.1,159.9,288.5,159.9z"/>
<path class="st0" d="M317.7,184.6c1.4,0,2.5-1.1,2.5-2.5s-1.1-2.5-2.5-2.5s-2.5,1.1-2.5,2.5S316.4,184.6,317.7,184.6z"/>
<path class="st0" d="M354.1,194.2c1.4,0,2.5-1.1,2.5-2.5s-1.1-2.5-2.5-2.5s-2.5,1.1-2.5,2.5S352.8,194.2,354.1,194.2z"/>
<path class="st0" d="M339.1,258.7c1.4,0,2.5-1.1,2.5-2.5s-1.1-2.5-2.5-2.5s-2.5,1.1-2.5,2.5S337.8,258.7,339.1,258.7z"/>
<path class="st0" d="M327.3,289.5c1.4,0,2.5-1.1,2.5-2.5s-1.1-2.5-2.5-2.5s-2.5,1.1-2.5,2.5S325.9,289.5,327.3,289.5z"/>
<path class="st0" d="M320.8,331.2c1.4,0,2.5-1.1,2.5-2.5s-1.1-2.5-2.5-2.5s-2.5,1.1-2.5,2.5S319.5,331.2,320.8,331.2z"/>
<path class="st0" d="M318.7,349.7c1.4,0,2.5-1.1,2.5-2.5s-1.1-2.5-2.5-2.5s-2.5,1.1-2.5,2.5S317.3,349.7,318.7,349.7z"/>
<path class="st1" d="M289.3,432.4c0-2,0.9-3.2,2.9-3.2c1.2,0,2.1,0.5,2.5,1.6l-0.4,0.2c-0.3-1-1-1.4-2.1-1.4c-1.5,0-2.4,1.1-2.4,2.8
	c0,1.5,0.7,2.9,2.4,2.9c1.1,0,1.9-0.5,2.2-1.5v-0.9h-1.5v-0.4h2v3.2h-0.4v-1.2c-0.4,0.8-1.1,1.2-2.2,1.2
	C290.3,435.6,289.3,434.3,289.3,432.4z"/>
<path class="st1" d="M297.1,432.4c0-1.7,0.9-3.2,2.8-3.2c2,0,2.9,1.4,2.9,3.2c0,1.7-0.9,3.2-2.9,3.2
	C298,435.6,297.1,434.2,297.1,432.4z M302.2,432.4c0-1.5-0.7-2.8-2.4-2.8c-1.6,0-2.4,1.2-2.4,2.8c0,1.5,0.7,2.8,2.4,2.8
	C301.5,435.2,302.2,434,302.2,432.4z"/>
<path class="st1" d="M305.3,429.3h0.4v5.9h2.9v0.4h-3.4v-6.3H305.3z"/>
<path class="st1" d="M311,429.3h1.6c2.1,0,3.2,1.1,3.2,3.2c0,2-1.1,3.1-3.2,3.1H311V429.3z M312.6,435.2c1.7,0,2.8-0.9,2.8-2.7
	c0-1.8-0.9-2.8-2.8-2.8h-1.2v5.4h1.2V435.2z"/>
<path class="st1" d="M318.5,429.3h4.1v0.4H319v2.5h3.3v0.4H319v2.6h3.6v0.4h-4.1V429.3z"/>
<path class="st1" d="M329.2,429.3v6.3h-0.5l-3.3-5.7v5.7H325v-6.3h0.5l3.3,5.7v-5.7H329.2z"/>
<path class="st1" d="M335.5,429.3h0.4v6.3h-0.4V429.3z"/>
<path class="st1" d="M338.4,434l0.4-0.1c0.1,0.9,0.8,1.4,1.6,1.4c0.9,0,1.5-0.5,1.5-1.3c0-1.7-3.3-1.2-3.3-3.1
	c0-0.9,0.7-1.5,1.7-1.5c0.7,0,1.3,0.3,1.7,1l-0.4,0.2c-0.3-0.5-0.7-0.8-1.3-0.8c-0.7,0-1.2,0.5-1.2,1.1c0,1.5,3.3,1,3.3,3.1
	c0,1-0.8,1.7-2,1.7C339.4,435.6,338.6,435,338.4,434z"/>
<path class="st1" d="M345,429.3h0.4v5.9h3v0.4H345V429.3z"/>
<path class="st1" d="M352.4,429.3h0.4l2.3,6.3h-0.5l-0.5-1.5h-2.9l-0.5,1.5h-0.5L352.4,429.3z M353.9,433.7l-1.3-3.7l-1.3,3.7H353.9
	z"/>
<path class="st1" d="M361.6,429.3v6.3h-0.5l-3.3-5.7v5.7h-0.4v-6.3h0.5l3.3,5.7v-5.7H361.6z"/>
<path class="st1" d="M364.6,429.3h1.6c2.1,0,3.2,1.1,3.2,3.2c0,2-1.1,3.1-3.2,3.1h-1.6V429.3z M366.2,435.2c1.7,0,2.8-0.9,2.8-2.7
	c0-1.8-0.9-2.8-2.8-2.8H365v5.4h1.2V435.2z"/>
<path class="st1" d="M374.9,432.4c0-2,0.9-3.2,2.9-3.2c1.2,0,2.1,0.5,2.5,1.6l-0.4,0.2c-0.3-1-1-1.4-2.1-1.4c-1.5,0-2.4,1-2.4,2.8
	c0,1.5,0.7,2.8,2.4,2.8c1,0,1.7-0.4,2.2-1.4l0.4,0.2c-0.5,1.1-1.3,1.6-2.6,1.6C375.9,435.6,374.9,434.3,374.9,432.4z"/>
<path class="st1" d="M384.1,429.3h0.4l2.3,6.3h-0.5l-0.5-1.5h-2.9l-0.5,1.5h-0.5L384.1,429.3z M385.6,433.7l-1.3-3.7l-1.3,3.7H385.6
	z"/>
<path class="st1" d="M388.4,434l0.4-0.1c0.1,0.9,0.8,1.4,1.6,1.4c0.9,0,1.5-0.5,1.5-1.3c0-1.7-3.3-1.2-3.3-3.1
	c0-0.9,0.7-1.5,1.7-1.5c0.7,0,1.3,0.3,1.7,1l-0.4,0.2c-0.3-0.5-0.7-0.8-1.3-0.8c-0.7,0-1.2,0.5-1.2,1.1c0,1.5,3.3,1,3.3,3.1
	c0,1-0.8,1.7-2,1.7C389.5,435.6,388.6,435,388.4,434z"/>
<path class="st1" d="M395,429.3h0.4v6.3H395V429.3z"/>
<path class="st1" d="M402.7,429.3v6.3h-0.5l-3.3-5.7v5.7h-0.4v-6.3h0.5l3.3,5.7v-5.7H402.7z"/>
<path class="st1" d="M405.3,432.4c0-1.7,0.9-3.2,2.8-3.2c2,0,2.9,1.4,2.9,3.2c0,1.7-0.9,3.2-2.9,3.2
	C406.2,435.6,405.3,434.2,405.3,432.4z M410.5,432.4c0-1.5-0.7-2.8-2.4-2.8c-1.6,0-2.4,1.2-2.4,2.8c0,1.5,0.7,2.8,2.4,2.8
	C409.8,435.2,410.5,434,410.5,432.4z"/>
<path class="st0" d="M283.6,434.9c1.4,0,2.5-1.1,2.5-2.5s-1.1-2.5-2.5-2.5s-2.5,1.1-2.5,2.5S282.3,434.9,283.6,434.9z"/>
<path class="st1" d="M280.5,457.3c0-2,0.9-3.2,2.9-3.2c1.2,0,2.1,0.5,2.5,1.6l-0.4,0.2c-0.3-1-1-1.4-2.1-1.4c-1.5,0-2.4,1-2.4,2.8
	c0,1.5,0.7,2.8,2.4,2.8c1,0,1.7-0.4,2.2-1.4l0.4,0.2c-0.5,1.1-1.3,1.6-2.6,1.6C281.5,460.5,280.5,459.2,280.5,457.3z"/>
<path class="st1" d="M288.2,454.2h0.4v5.9h2.9v0.4h-3.4v-6.3H288.2z"/>
<path class="st1" d="M293.8,458.1v-3.9h0.4v3.9c0,1.3,0.5,2,1.7,2s1.7-0.7,1.7-2.1v-3.9h0.4v3.9c0,1.5-0.7,2.5-2.2,2.5
	S293.8,459.7,293.8,458.1z"/>
<path class="st1" d="M301,454.2h1.8c1.1,0,1.9,0.5,1.9,1.5c0,0.6-0.4,1.2-0.9,1.3c0.7,0.1,1.2,0.7,1.2,1.6c0,1.1-0.8,1.7-2,1.7h-2
	V454l0,0V454.2z M303,457c0.7,0,1.2-0.4,1.2-1.2c0-0.8-0.5-1.2-1.4-1.2h-1.3v2.5L303,457L303,457z M303,460.1c1,0,1.5-0.4,1.5-1.3
	c0-0.8-0.5-1.3-1.3-1.3h-1.7v2.7h1.5V460.1z"/>
<path class="st1" d="M310.9,454.2h1.6c2.1,0,3.2,1.1,3.2,3.2c0,2-1.1,3.1-3.2,3.1h-1.6V454.2z M312.4,460.1c1.7,0,2.8-0.9,2.8-2.7
	c0-1.9-0.9-2.8-2.8-2.8h-1.2v5.4h1.2V460.1z"/>
<path class="st1" d="M318.3,454.2h4.1v0.4h-3.6v2.5h3.3v0.4h-3.3v2.6h3.6v0.4h-4.1V454.2z"/>
<path class="st1" d="M324.8,454.2h1.6c1.2,0,2.1,0.6,2.1,1.7s-0.8,1.7-2.1,1.7h-1.2v2.8h-0.4V454.2z M326.5,457.2
	c1,0,1.6-0.5,1.6-1.3s-0.6-1.3-1.6-1.3h-1.2v2.7h1.2V457.2z"/>
<path class="st1" d="M330.6,457.3c0-1.7,0.9-3.2,2.8-3.2c2,0,2.9,1.4,2.9,3.2s-0.9,3.2-2.9,3.2C331.5,460.5,330.6,459,330.6,457.3z
	 M335.8,457.3c0-1.5-0.7-2.8-2.4-2.8s-2.4,1.2-2.4,2.8c0,1.5,0.7,2.8,2.4,2.8S335.8,458.8,335.8,457.3z"/>
<path class="st1" d="M338.9,454.2h1.6c1.2,0,2.1,0.6,2.1,1.7c0,0.8-0.5,1.4-1.3,1.6l1.7,3h-0.5l-1.6-2.9c-0.1,0-0.3,0-0.4,0h-1v2.9
	H339v-6.4L338.9,454.2L338.9,454.2z M340.6,457.2c1,0,1.5-0.4,1.5-1.3c0-0.8-0.6-1.3-1.6-1.3h-1.1v2.7h1.2V457.2z"/>
<path class="st1" d="M346.9,454.5h-2.3v-0.4h4.9v0.4h-2.3v5.9h-0.4L346.9,454.5L346.9,454.5z"/>
<path class="st1" d="M352,454.2h0.4v6.3H352V454.2z"/>
<path class="st1" d="M360.1,454.2l-2.5,6.3h-0.4l-2.5-6.3h0.5l2.2,5.7l2.2-5.7H360.1z"/>
<path class="st1" d="M361.7,457.3c0-1.7,0.9-3.2,2.8-3.2c2,0,2.9,1.4,2.9,3.2s-0.9,3.2-2.9,3.2C362.6,460.5,361.7,459,361.7,457.3z
	 M367,457.3c0-1.5-0.7-2.8-2.4-2.8c-1.6,0-2.4,1.2-2.4,2.8c0,1.5,0.7,2.8,2.4,2.8C366.2,460.1,367,458.8,367,457.3z"/>
<path class="st1" d="M373.2,454.2h0.4v5.9h2.9v0.4h-3.3V454.2z"/>
<path class="st1" d="M379,454.2h0.4v6.3H379V454.2z"/>
<path class="st1" d="M382.4,454.2h1.9c1.1,0,1.9,0.5,1.9,1.5c0,0.6-0.4,1.2-0.9,1.3c0.7,0.1,1.2,0.7,1.2,1.6c0,1.1-0.8,1.7-2,1.7h-2
	V454h-0.1V454.2z M384.4,457c0.7,0,1.2-0.4,1.2-1.2c0-0.8-0.5-1.2-1.4-1.2h-1.3v2.5L384.4,457L384.4,457z M384.4,460.1
	c1,0,1.5-0.4,1.5-1.3c0-0.8-0.5-1.3-1.3-1.3h-1.7v2.7h1.5V460.1z"/>
<path class="st1" d="M390.4,454.2h0.4l2.3,6.3h-0.5l-0.5-1.5h-2.9l-0.5,1.5h-0.5L390.4,454.2z M391.9,458.5l-1.3-3.7l-1.3,3.7H391.9
	z"/>
<path class="st1" d="M399.5,454.2v6.3H399l-3.3-5.7v5.7h-0.4v-6.3h0.5l3.3,5.5v-5.5H399.5z"/>
<path class="st1" d="M402.6,454.2h4.1v0.4H403v2.5h3.3v0.4H403v2.6h3.6v0.4h-4.1v-6.3H402.6z M405.4,452.4h0.4l-1.1,1.2h-0.3
	L405.4,452.4z"/>
<path class="st1" d="M408.6,458.8l0.4-0.1c0.1,0.9,0.8,1.4,1.6,1.4c0.9,0,1.5-0.5,1.5-1.3c0-1.7-3.3-1.2-3.3-3.1
	c0-0.9,0.7-1.5,1.7-1.5c0.7,0,1.3,0.3,1.7,1l-0.4,0.2c-0.3-0.5-0.7-0.8-1.3-0.8c-0.7,0-1.2,0.5-1.2,1.1c0,1.6,3.3,1,3.3,3.1
	c0,1-0.8,1.7-2,1.7C409.7,460.5,408.8,459.9,408.6,458.8z"/>
<path class="st0" d="M274.8,460.4c1.4,0,2.5-1.1,2.5-2.5s-1.1-2.5-2.5-2.5s-2.5,1.1-2.5,2.5S273.4,460.4,274.8,460.4z"/>
<path class="st1" d="M295.1,469.3v6.3h-0.5l-3.3-5.7v5.7H291v-6.3h0.5l3.3,5.7v-5.7H295.1z"/>
<path class="st1" d="M298.1,473.2v-3.9h0.4v3.9c0,1.3,0.5,2,1.7,2s1.7-0.7,1.7-2.1v-3.9h0.4v3.9c0,1.5-0.7,2.5-2.2,2.5
	C298.8,475.6,298.1,474.8,298.1,473.2z"/>
<path class="st1" d="M305.3,469.3h4.1v0.4h-3.6v2.5h3.3v0.4h-3.3v2.6h3.6v0.4h-4.1V469.3z"/>
<path class="st1" d="M311.4,473.9l0.4-0.1c0.1,0.9,0.8,1.4,1.6,1.4c0.9,0,1.5-0.5,1.5-1.3c0-1.7-3.3-1.2-3.3-3.1
	c0-0.9,0.7-1.5,1.7-1.5c0.7,0,1.3,0.3,1.7,1l-0.4,0.2c-0.3-0.5-0.7-0.8-1.3-0.8c-0.7,0-1.2,0.5-1.2,1.1c0,1.5,3.3,1,3.3,3.1
	c0,1-0.8,1.7-2,1.7C312.4,475.6,311.6,475,311.4,473.9z"/>
<path class="st1" d="M319.5,469.7h-2.3v-0.4h4.9v0.4h-2.3v5.9h-0.4L319.5,469.7L319.5,469.7z"/>
<path class="st1" d="M324.5,469.3h1.6c1.2,0,2.1,0.6,2.1,1.7c0,0.8-0.5,1.4-1.3,1.6l1.7,3h-0.5l-1.6-2.9c-0.1,0-0.3,0-0.4,0h-1v2.9
	h-0.4v-6.4L324.5,469.3L324.5,469.3z M326.2,472.3c1,0,1.5-0.4,1.5-1.3c0-0.8-0.6-1.3-1.6-1.3H325v2.7h1.2V472.3z"/>
<path class="st1" d="M332.5,469.3h0.4l2.3,6.3h-0.5l-0.5-1.5h-2.9l-0.5,1.5h-0.5L332.5,469.3z M334.1,473.6l-1.3-3.7l-1.3,3.7H334.1
	z"/>
<path class="st1" d="M340.2,473.9l0.4-0.1c0.1,0.9,0.8,1.4,1.6,1.4c0.9,0,1.5-0.5,1.5-1.3c0-1.7-3.3-1.2-3.3-3.1
	c0-0.9,0.7-1.5,1.7-1.5c0.7,0,1.3,0.3,1.7,1l-0.4,0.2c-0.3-0.5-0.7-0.8-1.3-0.8c-0.7,0-1.2,0.5-1.2,1.1c0,1.5,3.3,1,3.3,3.1
	c0,1-0.8,1.7-2,1.7C341.3,475.6,340.4,475,340.2,473.9z"/>
<path class="st1" d="M346.8,469.3h4.1v0.4h-3.6v2.5h3.3v0.4h-3.3v2.6h3.6v0.4h-4.1V469.3z"/>
<path class="st1" d="M357.6,469.3v6.3h-0.5l-3.3-5.7v5.7h-0.4v-6.3h0.5l3.3,5.7v-5.7H357.6z M354.4,468.5h-0.3c0-0.6,0.3-1,0.8-1
	c0.7,0,0.7,0.8,1.2,0.8c0.3,0,0.5-0.3,0.5-0.8h0.3c0,0.6-0.3,1.1-0.7,1.1c-0.7,0-0.7-0.8-1.2-0.8C354.6,467.8,354.4,468,354.4,468.5
	z"/>
<path class="st1" d="M360.3,472.4c0-1.7,0.9-3.2,2.8-3.2c2,0,2.9,1.4,2.9,3.2c0,1.7-0.9,3.2-2.9,3.2
	C361.1,475.6,360.3,474.1,360.3,472.4z M365.4,472.4c0-1.5-0.7-2.8-2.4-2.8s-2.4,1.2-2.4,2.8c0,1.5,0.7,2.8,2.4,2.8
	C364.7,475.3,365.4,473.9,365.4,472.4z"/>
<path class="st1" d="M368.5,469.3h1.6c1.2,0,2.1,0.6,2.1,1.7c0,0.8-0.5,1.4-1.3,1.6l1.7,3h-0.5l-1.6-2.9c-0.1,0-0.3,0-0.4,0h-1v2.9
	h-0.4v-6.4L368.5,469.3L368.5,469.3z M370.1,472.3c1,0,1.5-0.4,1.5-1.3c0-0.8-0.6-1.3-1.6-1.3h-1.2v2.7h1.3V472.3z"/>
<path class="st1" d="M376.5,469.3h0.4l2.3,6.3h-0.5l-0.5-1.5h-2.9l-0.5,1.5h-0.5L376.5,469.3z M378.1,473.6l-1.3-3.7l-1.3,3.7H378.1
	z"/>
<path class="st1" d="M384.8,469.3h1.6c2.1,0,3.2,1.1,3.2,3.2c0,2-1.1,3.1-3.2,3.1h-1.6V469.3z M386.5,475.2c1.7,0,2.8-0.9,2.8-2.7
	c0-1.9-0.9-2.8-2.8-2.8h-1.2v5.4h1.2V475.2z"/>
<path class="st1" d="M392.2,469.3h4.1v0.4h-3.6v2.5h3.3v0.4h-3.3v2.6h3.6v0.4h-4.1V469.3z"/>
<path class="st1" d="M398.8,469.3h0.4v5.9h3v0.4h-3.4V469.3z"/>
<path class="st1" d="M407.9,469.3h0.4v5.9h3v0.4h-3.4V469.3z"/>
<path class="st1" d="M414.4,467.5h0.4l-1,1.2h-0.3L414.4,467.5z M413.5,469.3h0.4v6.3h-0.4V469.3z"/>
<path class="st1" d="M416.9,469.3h1.9c1.1,0,1.9,0.5,1.9,1.5c0,0.6-0.4,1.2-0.9,1.3c0.7,0.1,1.2,0.7,1.2,1.6c0,1.1-0.8,1.7-2,1.7h-2
	v-6.3h-0.1V469.3z M419,472.1c0.7,0,1.2-0.4,1.2-1.2c0-0.8-0.5-1.2-1.4-1.2h-1.3v2.5L419,472.1L419,472.1z M419,475.2
	c1,0,1.5-0.4,1.5-1.3c0-0.8-0.5-1.3-1.3-1.3h-1.7v2.7h1.5V475.2z"/>
<path class="st1" d="M424.9,469.3h0.4l2.3,6.3h-0.5l-0.5-1.5h-2.9l-0.5,1.5h-0.5L424.9,469.3z M426.5,473.6l-1.3-3.7l-1.3,3.7H426.5
	z"/>
<path class="st1" d="M434.2,469.3v6.3h-0.5l-3.3-5.7v5.7H430v-6.3h0.5l3.3,5.7v-5.7H434.2z"/>
<path class="st1" d="M436.7,472.4c0-1.7,0.9-3.2,2.8-3.2c2,0,2.9,1.4,2.9,3.2c0,1.7-0.9,3.2-2.9,3.2
	C437.7,475.6,436.7,474.1,436.7,472.4z M441.9,472.4c0-1.5-0.7-2.8-2.4-2.8c-1.6,0-2.4,1.2-2.4,2.8c0,1.5,0.7,2.8,2.4,2.8
	C441.2,475.3,441.9,473.9,441.9,472.4z"/>
<path class="st0" d="M284.9,474.6c1.4,0,2.5-1.1,2.5-2.5s-1.1-2.5-2.5-2.5s-2.5,1.1-2.5,2.5S283.5,474.6,284.9,474.6z"/>
<path class="st1" d="M304.7,411.5c0-2,0.9-3.2,2.9-3.2c1.2,0,2.1,0.5,2.5,1.6l-0.4,0.2c-0.3-1-1-1.4-2.1-1.4c-1.5,0-2.4,1-2.4,2.8
	c0,1.5,0.7,2.8,2.4,2.8c1,0,1.7-0.4,2.2-1.4l0.4,0.2c-0.5,1.1-1.3,1.6-2.6,1.6C305.6,414.7,304.7,413.3,304.7,411.5z"/>
<path class="st1" d="M312.4,408.3h1.6c1.2,0,2.1,0.6,2.1,1.7c0,0.8-0.5,1.4-1.3,1.6l1.7,3H316l-1.6-2.9c-0.1,0-0.3,0-0.4,0h-1v2.9
	h-0.4v-6.4L312.4,408.3L312.4,408.3z M314.1,411.4c1,0,1.5-0.4,1.5-1.3c0-0.8-0.6-1.3-1.6-1.3h-1.2v2.7h1.3V411.4z"/>
<path class="st1" d="M318.5,411.5c0-1.7,0.9-3.2,2.8-3.2c2,0,2.9,1.4,2.9,3.2c0,1.7-0.9,3.2-2.9,3.2
	C319.4,414.7,318.5,413.1,318.5,411.5z M323.7,411.5c0-1.5-0.7-2.8-2.4-2.8s-2.4,1.2-2.4,2.8c0,1.5,0.7,2.8,2.4,2.8
	S323.7,412.9,323.7,411.5z"/>
<path class="st1" d="M326,408.3h0.4l1.5,5.7l1.7-5.3h0.4l1.7,5.3l1.5-5.7h0.4l-1.7,6.3h-0.4l-1.7-5.2l-1.7,5.2h-0.4L326,408.3z"/>
<path class="st1" d="M340.3,408.3v6.3h-0.5l-3.3-5.7v5.7h-0.3v-6.3h0.5l3.3,5.5v-5.5H340.3z"/>
<path class="st1" d="M346.3,411.5c0-2,0.9-3.2,2.9-3.2c1.2,0,2.1,0.5,2.5,1.6l-0.4,0.2c-0.3-1-1-1.4-2.1-1.4c-1.5,0-2.4,1-2.4,2.8
	c0,1.5,0.7,2.8,2.4,2.8c1,0,1.7-0.4,2.2-1.4l0.4,0.2c-0.5,1.1-1.3,1.6-2.6,1.6C347.2,414.7,346.3,413.3,346.3,411.5z"/>
<path class="st1" d="M354,408.3h0.4v6.3H354V408.3z"/>
<path class="st1" d="M359,408.7h-2.3v-0.4h4.9v0.4h-2.3v5.9H359V408.7z"/>
<path class="st1" d="M365.9,412.2l-2.4-3.9h0.5l2.1,3.5l2.1-3.5h0.5l-2.4,3.9v2.4h-0.4L365.9,412.2L365.9,412.2z"/>
<path class="st1" d="M373.9,411.5c0-2,0.9-3.2,2.9-3.2c1.2,0,2.1,0.5,2.5,1.6l-0.4,0.2c-0.3-1-1-1.4-2.1-1.4c-1.5,0-2.4,1-2.4,2.8
	c0,1.5,0.7,2.8,2.4,2.8c1,0,1.7-0.4,2.2-1.4l0.4,0.2c-0.5,1.1-1.3,1.6-2.6,1.6C374.9,414.7,373.9,413.3,373.9,411.5z"/>
<path class="st1" d="M383.1,408.3h0.4l2.3,6.3h-0.5l-0.5-1.5h-2.9l-0.5,1.5h-0.5L383.1,408.3z M384.6,412.6l-1.3-3.7l-1.3,3.7H384.6
	z"/>
<path class="st1" d="M387.5,412.9l0.4-0.1c0.1,0.9,0.8,1.4,1.6,1.4c0.9,0,1.5-0.5,1.5-1.3c0-1.7-3.3-1.2-3.3-3.1
	c0-0.9,0.7-1.5,1.7-1.5c0.7,0,1.3,0.3,1.7,1l-0.4,0.2c-0.3-0.5-0.7-0.8-1.3-0.8c-0.7,0-1.2,0.5-1.2,1.1c0,1.6,3.3,1,3.3,3.1
	c0,1-0.8,1.7-2,1.7C388.5,414.7,387.7,414,387.5,412.9z"/>
<path class="st1" d="M394.1,408.3h0.4v6.3h-0.4V408.3z"/>
<path class="st1" d="M401.7,408.3v6.3h-0.5l-3.3-5.7v5.7h-0.4v-6.3h0.5l3.3,5.5v-5.5H401.7z"/>
<path class="st1" d="M404.4,411.5c0-1.7,0.9-3.2,2.8-3.2c2,0,2.9,1.4,2.9,3.2c0,1.7-0.9,3.2-2.9,3.2
	C405.2,414.7,404.4,413.1,404.4,411.5z M409.5,411.5c0-1.5-0.7-2.8-2.4-2.8c-1.6,0-2.4,1.2-2.4,2.8c0,1.5,0.7,2.8,2.4,2.8
	C408.8,414.2,409.5,412.9,409.5,411.5z"/>
<path class="st0" d="M298.9,413.8c1.4,0,2.5-1.1,2.5-2.5s-1.1-2.5-2.5-2.5s-2.5,1.1-2.5,2.5S297.6,413.8,298.9,413.8z"/>
<path class="st1" d="M525.9,421.7h1.6c1.2,0,2.1,0.6,2.1,1.7s-0.8,1.7-2.1,1.7h-1.2v2.8h-0.4L525.9,421.7L525.9,421.7z M527.6,424.8
	c1,0,1.6-0.5,1.6-1.3s-0.6-1.3-1.6-1.3h-1.2v2.7h1.2V424.8z"/>
<path class="st1" d="M532.2,421.7h0.4v5.9h2.9v0.4h-3.4L532.2,421.7L532.2,421.7z"/>
<path class="st1" d="M539.6,421.7h0.4l2.3,6.3h-0.5l-0.5-1.5h-2.9l-0.5,1.5h-0.5L539.6,421.7z M541.1,426.1l-1.3-3.7l-1.3,3.7H541.1
	z"/>
<path class="st1" d="M548.9,422.2l-4.3,5.5h4.3v0.4H544v-0.3l4.3-5.5h-4.1v-0.4h4.7V422.2z"/>
<path class="st1" d="M553.1,421.7h0.4l2.3,6.3h-0.5l-0.5-1.5h-2.9l-0.5,1.5h-0.5L553.1,421.7z M554.5,426.1l-1.3-3.7l-1.3,3.7H554.5
	z"/>
<path class="st1" d="M527.6,432.6h0.4l2.3,6.3h-0.5l-0.5-1.5h-2.9l-0.5,1.5h-0.5L527.6,432.6z M529.1,437l-1.3-3.7l-1.3,3.7H529.1z"
	/>
<path class="st1" d="M532.6,432.6h0.4v5.9h2.9v0.4h-3.4L532.6,432.6L532.6,432.6z"/>
<path class="st1" d="M539.2,433h-2.3v-0.4h4.9v0.4h-2.3v5.9h-0.4L539.2,433L539.2,433z"/>
<path class="st1" d="M545.2,432.6h0.4l2.3,6.3h-0.5l-0.5-1.5H544l-0.5,1.5H543L545.2,432.6z M546.7,437l-1.3-3.7L544,437H546.7z"/>
<path class="st1" d="M550.2,432.6h1.9c1.1,0,1.8,0.5,1.8,1.5c0,0.6-0.4,1.2-0.9,1.3c0.7,0.1,1.2,0.7,1.2,1.6c0,1.1-0.8,1.7-2,1.7h-2
	v-6.3l0,0V432.6z M552.2,435.5c0.7,0,1.2-0.4,1.2-1.2c0-0.8-0.5-1.2-1.4-1.2h-1.3v2.5L552.2,435.5L552.2,435.5z M552.2,438.5
	c1,0,1.5-0.4,1.5-1.3c0-0.8-0.5-1.3-1.3-1.3h-1.7v2.7h1.5V438.5z"/>
<path class="st1" d="M556.8,432.6h1.6c1.2,0,2.1,0.6,2.1,1.7c0,0.8-0.5,1.4-1.3,1.6l1.7,3h-0.5l-1.6-2.9c-0.1,0-0.3,0-0.4,0h-1v2.9
	H557v-6.4L556.8,432.6L556.8,432.6z M558.5,435.7c1,0,1.5-0.4,1.5-1.3c0-0.8-0.6-1.3-1.6-1.3h-1.2v2.7h1.3V435.7z"/>
<path class="st1" d="M563.2,432.6h0.4v6.3h-0.4V432.6z"/>
<path class="st1" d="M566.1,437.3l0.4-0.1c0.1,0.9,0.8,1.4,1.6,1.4c0.9,0,1.5-0.5,1.5-1.3c0-1.7-3.3-1.2-3.3-3.1
	c0-0.9,0.7-1.5,1.7-1.5c0.7,0,1.3,0.3,1.7,1l-0.4,0.2c-0.3-0.5-0.7-0.8-1.3-0.8c-0.7,0-1.2,0.5-1.2,1.1c0,1.5,3.3,1,3.3,3.1
	c0,1-0.8,1.7-2,1.7C567.2,439,566.3,438.4,566.1,437.3z"/>
<path class="st1" d="M574.2,432.6h0.4l2.3,6.3h-0.5l-0.5-1.5H573l-0.5,1.5H572L574.2,432.6z M575.8,437l-1.3-3.7l-1.3,3.7H575.8z"/>
<path class="st0" d="M516.8,432.6c1.4,0,2.5-1.1,2.5-2.5s-1.1-2.5-2.5-2.5s-2.5,1.1-2.5,2.5S515.4,432.6,516.8,432.6z"/>
<path class="st1" d="M509.7,452.8l0.4-0.1c0.1,0.9,0.8,1.4,1.6,1.4c0.9,0,1.5-0.5,1.5-1.3c0-1.7-3.3-1.2-3.3-3.1
	c0-0.9,0.7-1.5,1.7-1.5c0.7,0,1.3,0.3,1.7,1l-0.4,0.2c-0.3-0.5-0.7-0.8-1.3-0.8c-0.7,0-1.2,0.5-1.2,1.1c0,1.5,3.3,1,3.3,3.1
	c0,1-0.8,1.7-2,1.7C510.7,454.5,509.8,453.9,509.7,452.8z"/>
<path class="st1" d="M517.7,448.6h-2.3v-0.4h4.9v0.4H518v5.9h-0.4L517.7,448.6L517.7,448.6z"/>
<path class="st1" d="M523.8,448.2h0.4l2.3,6.3H526l-0.5-1.5h-2.9l-0.5,1.5h-0.5L523.8,448.2z M525.3,452.5l-1.3-3.7l-1.3,3.7H525.3z
	"/>
<path class="st1" d="M528.8,448.2h1.6c1.2,0,2.1,0.6,2.1,1.7c0,0.8-0.5,1.4-1.3,1.6l1.7,3h-0.5l-1.6-2.9c-0.1,0-0.3,0-0.4,0h-1v2.9
	H529v-6.4L528.8,448.2L528.8,448.2z M530.5,451.1c1,0,1.5-0.4,1.5-1.3c0-0.8-0.6-1.3-1.6-1.3h-1.2v2.7h1.3V451.1z"/>
<path class="st1" d="M544.3,448.2v6.3h-0.4v-5.8l-2.3,5.2h-0.4l-2.3-5.2v5.8h-0.4v-6.3h0.6l2.3,5.2l2.3-5.2H544.3z"/>
<path class="st1" d="M547.3,448.2h4.1v0.4h-3.6v2.5h3.3v0.4h-3.3v2.6h3.6v0.4h-4.1V448.2z M550.1,446.3h0.4l-1,1.2h-0.3L550.1,446.3
	z"/>
<path class="st1" d="M553.9,448.2h1.6c2.1,0,3.2,1.1,3.2,3.2c0,2-1.1,3.1-3.2,3.1h-1.6V448.2z M555.5,454c1.7,0,2.8-0.9,2.8-2.7
	c0-1.8-0.9-2.8-2.8-2.8h-1.2v5.4h1.2V454z"/>
<path class="st1" d="M561.3,448.2h0.4v6.3h-0.4V448.2z"/>
<path class="st1" d="M564.4,451.2c0-2,0.9-3.2,2.9-3.2c1.2,0,2.1,0.5,2.5,1.6l-0.4,0.2c-0.3-1-1-1.4-2.1-1.4c-1.5,0-2.4,1-2.4,2.8
	c0,1.5,0.7,2.8,2.4,2.8c1,0,1.7-0.4,2.2-1.4l0.4,0.2c-0.5,1.1-1.3,1.6-2.6,1.6C565.4,454.5,564.4,453.2,564.4,451.2z"/>
<path class="st1" d="M573.5,448.2h0.4l2.3,6.3h-0.5l-0.5-1.5h-2.9l-0.5,1.5h-0.5L573.5,448.2z M575,452.5l-1.3-3.7l-1.3,3.7H575z"/>
<path class="st0" d="M501.1,453.9c1.4,0,2.5-1.1,2.5-2.5s-1.1-2.5-2.5-2.5s-2.5,1.1-2.5,2.5S499.7,453.9,501.1,453.9z"/>
<path class="st1" d="M577,397h0.4l2.3,6.3h-0.5l-0.5-1.5h-2.9l-0.5,1.5h-0.5L577,397z M578.5,401.3l-1.3-3.7l-1.3,3.7H578.5z"/>
<path class="st1" d="M581.7,401v-3.9h0.4v3.9c0,1.3,0.5,2,1.7,2s1.7-0.7,1.7-2.1V397h0.4v3.9c0,1.5-0.7,2.5-2.2,2.5
	C582.4,403.3,581.7,402.4,581.7,401z"/>
<path class="st1" d="M589,397h1.6c2.1,0,3.2,1.1,3.2,3.2c0,2-1.1,3.1-3.2,3.1H589V397z M590.6,402.8c1.7,0,2.8-0.9,2.8-2.7
	c0-1.8-0.9-2.8-2.8-2.8h-1.2v5.4h1.2V402.8z"/>
<path class="st1" d="M596.4,397h0.4v6.3h-0.4V397z"/>
<path class="st0" d="M604.3,402.7c1.4,0,2.5-1.1,2.5-2.5s-1.1-2.5-2.5-2.5s-2.5,1.1-2.5,2.5S603,402.7,604.3,402.7z"/>
<path class="st0" d="M110,429.3c1.4,0,2.5-1.1,2.5-2.5s-1.1-2.5-2.5-2.5s-2.5,1.1-2.5,2.5C107.5,428.2,108.6,429.3,110,429.3z"/>
<path class="st0" d="M159.2,497.9c1.4,0,2.5-1.1,2.5-2.5s-1.1-2.5-2.5-2.5s-2.5,1.1-2.5,2.5S157.8,497.9,159.2,497.9z"/>
<path class="st0" d="M343.6,595.2c1.4,0,2.5-1.1,2.5-2.5s-1.1-2.5-2.5-2.5s-2.5,1.1-2.5,2.5S342.3,595.2,343.6,595.2z"/>
<path class="st0" d="M143.5,644.1c1.4,0,2.5-1.1,2.5-2.5s-1.1-2.5-2.5-2.5s-2.5,1.1-2.5,2.5S142.1,644.1,143.5,644.1z"/>
<path class="st0" d="M117.4,607.4c1.4,0,2.5-1.1,2.5-2.5s-1.1-2.5-2.5-2.5s-2.5,1.1-2.5,2.5S116,607.4,117.4,607.4z"/>
<path class="st0" d="M364.9,557.9c1.4,0,2.5-1.1,2.5-2.5s-1.1-2.5-2.5-2.5s-2.5,1.1-2.5,2.5S363.5,557.9,364.9,557.9z"/>
<path class="st0" d="M301.5,251.7c1.4,0,2.5-1.1,2.5-2.5s-1.1-2.5-2.5-2.5s-2.5,1.1-2.5,2.5S300.1,251.7,301.5,251.7z"/>
<path class="st0" d="M363.8,151.6c1.4,0,2.5-1.1,2.5-2.5s-1.1-2.5-2.5-2.5s-2.5,1.1-2.5,2.5S362.4,151.6,363.8,151.6z"/>
<path class="st0" d="M318.4,207.4c1.4,0,2.5-1.1,2.5-2.5s-1.1-2.5-2.5-2.5s-2.5,1.1-2.5,2.5S317,207.4,318.4,207.4z"/>
<path class="st1" d="M251.8,513.8v-6.1h8.6L251.8,513.8z"/>
<path class="st1" d="M251.8,513.8h8.6v6.2L251.8,513.8z"/>
<path class="st1" d="M251.8,526.1V520h8.6L251.8,526.1z"/>
<g class="st6">
	<path class="st1" d="M402.8,47c0-1.9,1-3.2,2.8-3.2c1.2,0,2,0.5,2.5,1.6l-0.4,0.2c-0.3-1-1-1.4-2.1-1.4c-1.6,0-2.4,1-2.4,2.7
		c0,1.6,0.7,2.8,2.3,2.8c1,0,1.7-0.5,2.1-1.4l0.4,0.2c-0.5,1.1-1.3,1.7-2.5,1.7C403.7,50.2,402.8,48.9,402.8,47z"/>
	<path class="st1" d="M412,43.9h0.4l2.2,6.2h-0.5l-0.5-1.5h-2.9l-0.5,1.5h-0.5L412,43.9z M413.4,48.2l-1.3-3.7l-1.3,3.7H413.4z"/>
	<path class="st1" d="M417,43.9h1.8c1.1,0,1.8,0.5,1.8,1.6c0,0.7-0.4,1.2-0.9,1.4c0.7,0.1,1.2,0.8,1.2,1.6c0,1.1-0.8,1.7-2,1.7H417
		V43.9z M419,46.7c0.7,0,1.2-0.5,1.2-1.2c0-0.8-0.5-1.2-1.4-1.2h-1.4v2.4H419z M419,49.7c1,0,1.5-0.4,1.5-1.3c0-0.8-0.5-1.3-1.3-1.3
		h-1.7v2.6H419z"/>
	<path class="st1" d="M423.2,47c0-1.7,0.9-3.2,2.8-3.2c1.9,0,2.8,1.5,2.8,3.2c0,1.7-0.9,3.2-2.8,3.2C424.1,50.2,423.2,48.7,423.2,47
		z M428.4,47c0-1.5-0.7-2.8-2.4-2.8c-1.6,0-2.3,1.3-2.3,2.8c0,1.5,0.7,2.8,2.3,2.8C427.6,49.8,428.4,48.5,428.4,47z"/>
	<path class="st1" d="M439,43.9v6.2h-0.5l-3.2-5.6v5.6h-0.4v-6.2h0.5l3.3,5.5v-5.5H439z"/>
	<path class="st1" d="M441.7,47c0-1.7,0.9-3.2,2.8-3.2c1.9,0,2.8,1.5,2.8,3.2c0,1.7-0.9,3.2-2.8,3.2C442.6,50.2,441.7,48.7,441.7,47
		z M446.8,47c0-1.5-0.7-2.8-2.4-2.8c-1.6,0-2.3,1.3-2.3,2.8c0,1.5,0.7,2.8,2.3,2.8C446.1,49.8,446.8,48.5,446.8,47z"/>
	<path class="st1" d="M450,43.9h1.6c1.2,0,2,0.6,2,1.7c0,0.9-0.5,1.4-1.3,1.6l1.7,2.9h-0.5l-1.7-2.9c-0.1,0-0.3,0-0.4,0h-1v2.9H450
		V43.9z M451.7,46.9c1,0,1.6-0.5,1.6-1.3c0-0.8-0.6-1.3-1.6-1.3h-1.2v2.6H451.7z"/>
	<path class="st1" d="M458.1,44.3h-2.2v-0.4h4.9v0.4h-2.2v5.8h-0.4V44.3z"/>
	<path class="st1" d="M463.1,43.9h4v0.4h-3.6v2.5h3.2v0.4h-3.2v2.5h3.6v0.4h-4V43.9z"/>
</g>
</svg>
