<svg width="221" height="60" viewBox="0 0 221 60" fill="none" xmlns="http://www.w3.org/2000/svg">
<g filter="url(#filter0_d)">
<path d="M193.5 40H10V0H210.116V27.4824L193.5 40Z" fill="#FF595A"/>
<path d="M31.6 24.15C34.465 24.15 36.145 22.83 36.145 20.61C36.145 18.045 33.91 17.7 32.035 17.43C30.655 17.22 29.425 17.025 29.425 15.93C29.425 14.97 30.19 14.4 31.495 14.4C32.845 14.4 33.7 15.225 33.79 16.62H35.845C35.635 14.19 34.045 12.75 31.6 12.75C28.915 12.75 27.325 13.92 27.325 16.08C27.325 18.54 29.44 18.855 31.27 19.11C32.725 19.335 34.045 19.53 34.045 20.82C34.045 21.87 33.16 22.5 31.645 22.5C30.145 22.5 29.2 21.615 29.065 20.115H27.025C27.235 22.665 28.93 24.15 31.6 24.15ZM41.2246 24.15C43.6846 24.15 45.1396 22.695 45.1396 20.235C45.1396 17.775 43.6846 16.32 41.2246 16.32C38.7646 16.32 37.2946 17.775 37.2946 20.235C37.2946 22.695 38.7646 24.15 41.2246 24.15ZM41.2246 22.575C40.0246 22.575 39.3196 21.705 39.3196 20.235C39.3196 18.765 40.0246 17.88 41.2246 17.88C42.4246 17.88 43.1296 18.765 43.1296 20.235C43.1296 21.705 42.4246 22.575 41.2246 22.575ZM46.6791 24H48.6591V12.45H46.6791V24ZM50.6195 15.03H52.5995V13.155H50.6195V15.03ZM50.6195 24H52.5995V16.47H50.6195V24ZM58.04 24.15C60.14 24.15 61.475 23.04 61.76 21.105H59.81C59.585 22.035 58.97 22.575 58.04 22.575C56.87 22.575 56.18 21.705 56.18 20.235C56.18 18.765 56.87 17.88 58.04 17.88C58.925 17.88 59.525 18.39 59.78 19.26H61.73C61.43 17.4 60.095 16.32 58.04 16.32C55.61 16.32 54.155 17.775 54.155 20.235C54.155 22.695 55.61 24.15 58.04 24.15ZM63.1879 15.03H65.1679V13.155H63.1879V15.03ZM63.1879 24H65.1679V16.47H63.1879V24ZM71.8683 17.835V16.47H67.7283V16.44C68.9283 16.215 69.6483 15.54 69.6483 14.58V13.95H67.6683V16.47H66.4683V17.835H67.5483V21.72C67.5483 23.25 68.4933 24.15 70.0983 24.15C70.6683 24.15 71.2833 24.015 71.7333 23.805V22.335C71.4633 22.485 71.0883 22.575 70.7283 22.575C69.9783 22.575 69.5283 22.17 69.5283 21.465V17.835H71.8683ZM78.4302 16.47V19.05H78.4002C78.4002 17.34 77.3952 16.32 75.7152 16.32C73.8252 16.32 72.7152 17.775 72.7152 20.235C72.7152 22.695 73.8252 24.15 75.7152 24.15C77.3952 24.15 78.4002 23.13 78.4002 21.405H78.4302V24H80.4102V16.47H78.4302ZM76.6302 22.575C75.4302 22.575 74.7252 21.705 74.7252 20.235C74.7252 18.765 75.4302 17.88 76.6302 17.88C77.8302 17.88 78.5352 18.84 78.5352 20.235C78.5352 21.615 77.8302 22.575 76.6302 22.575ZM86.6527 16.32C85.2277 16.32 84.3727 17.52 84.3727 19.575H84.3427V16.47H82.3627V24H84.3427V20.595C84.3427 19.005 85.0327 18.06 86.1877 18.06C86.5627 18.06 86.9377 18.165 87.2377 18.33L87.8077 16.56C87.5077 16.41 87.0877 16.32 86.6527 16.32ZM91.6791 15.03H93.6591V13.155H91.6791V15.03ZM91.6791 24H93.6591V16.47H91.6791V24ZM100.075 16.32C98.5445 16.32 97.6295 17.355 97.6295 19.11H97.5995V16.47H95.6195V24H97.5995V19.92C97.5995 18.645 98.2145 17.88 99.2645 17.88C100.195 17.88 100.735 18.48 100.735 19.5V24H102.715V19.41C102.715 17.46 101.74 16.32 100.075 16.32ZM108.322 13.875C108.712 13.875 109.087 13.98 109.387 14.16L109.642 12.675C109.132 12.435 108.487 12.3 107.842 12.3C105.997 12.3 104.902 13.14 104.902 14.58C104.902 15.54 105.607 16.215 106.807 16.44V16.47H103.867V17.835H105.007V24H106.987V17.835H109.252V16.47H106.882V15.27C106.882 14.4 107.377 13.875 108.322 13.875ZM113.69 24.15C116.15 24.15 117.605 22.695 117.605 20.235C117.605 17.775 116.15 16.32 113.69 16.32C111.23 16.32 109.76 17.775 109.76 20.235C109.76 22.695 111.23 24.15 113.69 24.15ZM113.69 22.575C112.49 22.575 111.785 21.705 111.785 20.235C111.785 18.765 112.49 17.88 113.69 17.88C114.89 17.88 115.595 18.765 115.595 20.235C115.595 21.705 114.89 22.575 113.69 22.575ZM123.435 16.32C122.01 16.32 121.155 17.52 121.155 19.575H121.125V16.47H119.145V24H121.125V20.595C121.125 19.005 121.815 18.06 122.97 18.06C123.345 18.06 123.72 18.165 124.02 18.33L124.59 16.56C124.29 16.41 123.87 16.32 123.435 16.32ZM134.92 16.32C133.435 16.32 132.565 17.34 132.565 19.08H132.535C132.535 17.385 131.605 16.32 130.03 16.32C128.515 16.32 127.6 17.34 127.6 19.08H127.57V16.47H125.59V24H127.57V19.845C127.57 18.615 128.155 17.88 129.16 17.88C130.045 17.88 130.555 18.45 130.555 19.425V24H132.535V19.845C132.535 18.615 133.12 17.88 134.11 17.88C134.995 17.88 135.52 18.45 135.52 19.425V24H137.5V19.335C137.5 17.43 136.54 16.32 134.92 16.32ZM144.714 16.47V19.05H144.684C144.684 17.34 143.679 16.32 141.999 16.32C140.109 16.32 138.999 17.775 138.999 20.235C138.999 22.695 140.109 24.15 141.999 24.15C143.679 24.15 144.684 23.13 144.684 21.405H144.714V24H146.694V16.47H144.714ZM142.914 22.575C141.714 22.575 141.009 21.705 141.009 20.235C141.009 18.765 141.714 17.88 142.914 17.88C144.114 17.88 144.819 18.84 144.819 20.235C144.819 21.615 144.114 22.575 142.914 22.575ZM152.127 24.15C154.227 24.15 155.562 23.04 155.847 21.105H153.897C153.672 22.035 153.057 22.575 152.127 22.575C150.957 22.575 150.267 21.705 150.267 20.235C150.267 18.765 150.957 17.88 152.127 17.88C153.012 17.88 153.612 18.39 153.867 19.26H155.817C155.517 17.4 154.182 16.32 152.127 16.32C149.697 16.32 148.242 17.775 148.242 20.235C148.242 22.695 149.697 24.15 152.127 24.15ZM157.275 15.03H159.255V13.155H157.275V15.03ZM157.275 24H159.255V16.47H157.275V24ZM166.33 12.675L163.375 14.295L163.93 15.33L166.96 13.83L166.33 12.675ZM164.74 24.15C167.2 24.15 168.655 22.695 168.655 20.235C168.655 17.775 167.2 16.32 164.74 16.32C162.28 16.32 160.81 17.775 160.81 20.235C160.81 22.695 162.28 24.15 164.74 24.15ZM164.74 22.575C163.54 22.575 162.835 21.705 162.835 20.235C162.835 18.765 163.54 17.88 164.74 17.88C165.94 17.88 166.645 18.765 166.645 20.235C166.645 21.705 165.94 22.575 164.74 22.575ZM174.65 16.32C173.12 16.32 172.205 17.355 172.205 19.11H172.175V16.47H170.195V24H172.175V19.92C172.175 18.645 172.79 17.88 173.84 17.88C174.77 17.88 175.31 18.48 175.31 19.5V24H177.29V19.41C177.29 17.46 176.315 16.32 174.65 16.32ZM182.202 17.04V17.775L187.857 20.205V20.235L182.202 22.635V23.37L187.947 20.865V19.56L182.202 17.04Z" fill="white"/>
</g>
<defs>
<filter id="filter0_d" x="0" y="0" width="220.116" height="60" filterUnits="userSpaceOnUse" color-interpolation-filters="sRGB">
<feFlood flood-opacity="0" result="BackgroundImageFix"/>
<feColorMatrix in="SourceAlpha" type="matrix" values="0 0 0 0 0 0 0 0 0 0 0 0 0 0 0 0 0 0 127 0"/>
<feOffset dy="10"/>
<feGaussianBlur stdDeviation="5"/>
<feColorMatrix type="matrix" values="0 0 0 0 0 0 0 0 0 0 0 0 0 0 0 0 0 0 0.25 0"/>
<feBlend mode="normal" in2="BackgroundImageFix" result="effect1_dropShadow"/>
<feBlend mode="normal" in="SourceGraphic" in2="effect1_dropShadow" result="shape"/>
</filter>
</defs>
</svg>
