<svg width="211" height="40" viewBox="0 0 211 40" fill="none" xmlns="http://www.w3.org/2000/svg">
<path d="M193.884 40H0V0H210.5V27.4824L193.884 40Z" fill="#FF595A"/>
<path d="M34.07 12.9L31.25 23.82H31.22L28.415 12.9H26.21L29.315 24H33.02L36.155 12.9H34.07ZM43.6773 20.235C43.6773 17.76 42.2973 16.32 39.9873 16.32C37.6473 16.32 36.2673 17.76 36.2673 20.235C36.2673 22.695 37.6473 24.15 39.9873 24.15C42.0273 24.15 43.4073 23.1 43.6773 21.315H41.7573C41.5623 22.14 40.9173 22.65 39.9873 22.65C38.9223 22.65 38.2623 21.84 38.1873 20.46H43.6773V20.235ZM39.9873 17.805C40.9773 17.805 41.6223 18.525 41.7423 19.785H38.2023C38.3373 18.525 38.9823 17.805 39.9873 17.805ZM49.5023 16.32C48.0773 16.32 47.2223 17.52 47.2223 19.575H47.1923V16.47H45.2123V24H47.1923V20.595C47.1923 19.005 47.8823 18.06 49.0373 18.06C49.4123 18.06 49.7873 18.165 50.0873 18.33L50.6573 16.56C50.3573 16.41 49.9373 16.32 49.5023 16.32ZM59.1662 17.835V16.47H55.0262V16.44C56.2262 16.215 56.9462 15.54 56.9462 14.58V13.95H54.9662V16.47H53.7662V17.835H54.8462V21.72C54.8462 23.25 55.7912 24.15 57.3962 24.15C57.9662 24.15 58.5812 24.015 59.0312 23.805V22.335C58.7612 22.485 58.3862 22.575 58.0262 22.575C57.2762 22.575 56.8262 22.17 56.8262 21.465V17.835H59.1662ZM63.8838 24.15C66.3438 24.15 67.7988 22.695 67.7988 20.235C67.7988 17.775 66.3438 16.32 63.8838 16.32C61.4238 16.32 59.9538 17.775 59.9538 20.235C59.9538 22.695 61.4238 24.15 63.8838 24.15ZM63.8838 22.575C62.6838 22.575 61.9788 21.705 61.9788 20.235C61.9788 18.765 62.6838 17.88 63.8838 17.88C65.0838 17.88 65.7888 18.765 65.7888 20.235C65.7888 21.705 65.0838 22.575 63.8838 22.575ZM74.6783 12.45V19.05H74.6483C74.6483 17.34 73.6433 16.32 71.9633 16.32C70.0733 16.32 68.9633 17.775 68.9633 20.235C68.9633 22.695 70.0733 24.15 71.9633 24.15C73.6433 24.15 74.6483 23.13 74.6483 21.405H74.6783V24H76.6583V12.45H74.6783ZM72.8783 22.575C71.6783 22.575 70.9733 21.705 70.9733 20.235C70.9733 18.765 71.6783 17.88 72.8783 17.88C74.0783 17.88 74.7833 18.84 74.7833 20.235C74.7833 21.615 74.0783 22.575 72.8783 22.575ZM83.9507 16.47V19.05H83.9207C83.9207 17.34 82.9157 16.32 81.2357 16.32C79.3457 16.32 78.2357 17.775 78.2357 20.235C78.2357 22.695 79.3457 24.15 81.2357 24.15C82.9157 24.15 83.9207 23.13 83.9207 21.405H83.9507V24H85.9307V16.47H83.9507ZM82.1507 22.575C80.9507 22.575 80.2457 21.705 80.2457 20.235C80.2457 18.765 80.9507 17.88 82.1507 17.88C83.3507 17.88 84.0557 18.84 84.0557 20.235C84.0557 21.615 83.3507 22.575 82.1507 22.575ZM90.8232 24.15C92.9682 24.15 94.2432 23.22 94.2432 21.675C94.2432 19.905 92.6232 19.635 91.2882 19.41C90.3282 19.245 89.5032 19.11 89.5032 18.435C89.5032 17.88 89.9982 17.55 90.8232 17.55C91.6932 17.55 92.1882 18 92.1882 18.795H94.0332C94.0332 17.235 92.8332 16.32 90.8232 16.32C88.7982 16.32 87.5982 17.175 87.5982 18.6C87.5982 20.325 89.1582 20.58 90.4632 20.79C91.4532 20.955 92.3382 21.105 92.3382 21.9C92.3382 22.53 91.7832 22.89 90.8232 22.89C89.8332 22.89 89.2482 22.395 89.2482 21.555H87.4032C87.4032 23.19 88.6632 24.15 90.8232 24.15ZM99.0014 24H100.981V12.45H99.0014V24ZM108.282 16.47V19.05H108.252C108.252 17.34 107.247 16.32 105.567 16.32C103.677 16.32 102.567 17.775 102.567 20.235C102.567 22.695 103.677 24.15 105.567 24.15C107.247 24.15 108.252 23.13 108.252 21.405H108.282V24H110.262V16.47H108.282ZM106.482 22.575C105.282 22.575 104.577 21.705 104.577 20.235C104.577 18.765 105.282 17.88 106.482 17.88C107.682 17.88 108.387 18.84 108.387 20.235C108.387 21.615 107.682 22.575 106.482 22.575ZM115.154 24.15C117.299 24.15 118.574 23.22 118.574 21.675C118.574 19.905 116.954 19.635 115.619 19.41C114.659 19.245 113.834 19.11 113.834 18.435C113.834 17.88 114.329 17.55 115.154 17.55C116.024 17.55 116.519 18 116.519 18.795H118.364C118.364 17.235 117.164 16.32 115.154 16.32C113.129 16.32 111.929 17.175 111.929 18.6C111.929 20.325 113.489 20.58 114.794 20.79C115.784 20.955 116.669 21.105 116.669 21.9C116.669 22.53 116.114 22.89 115.154 22.89C114.164 22.89 113.579 22.395 113.579 21.555H111.734C111.734 23.19 112.994 24.15 115.154 24.15ZM127.787 16.32C126.257 16.32 125.342 17.355 125.342 19.11H125.312V16.47H123.332V24H125.312V19.92C125.312 18.645 125.927 17.88 126.977 17.88C127.907 17.88 128.447 18.48 128.447 19.5V24H130.427V19.41C130.427 17.46 129.452 16.32 127.787 16.32ZM135.822 24.15C138.282 24.15 139.737 22.695 139.737 20.235C139.737 17.775 138.282 16.32 135.822 16.32C133.362 16.32 131.892 17.775 131.892 20.235C131.892 22.695 133.362 24.15 135.822 24.15ZM135.822 22.575C134.622 22.575 133.917 21.705 133.917 20.235C133.917 18.765 134.622 17.88 135.822 17.88C137.022 17.88 137.727 18.765 137.727 20.235C137.727 21.705 137.022 22.575 135.822 22.575ZM145.9 17.835V16.47H141.76V16.44C142.96 16.215 143.68 15.54 143.68 14.58V13.95H141.7V16.47H140.5V17.835H141.58V21.72C141.58 23.25 142.525 24.15 144.13 24.15C144.7 24.15 145.315 24.015 145.765 23.805V22.335C145.495 22.485 145.12 22.575 144.76 22.575C144.01 22.575 143.56 22.17 143.56 21.465V17.835H145.9ZM152.461 16.47V19.05H152.431C152.431 17.34 151.426 16.32 149.746 16.32C147.856 16.32 146.746 17.775 146.746 20.235C146.746 22.695 147.856 24.15 149.746 24.15C151.426 24.15 152.431 23.13 152.431 21.405H152.461V24H154.441V16.47H152.461ZM150.661 22.575C149.461 22.575 148.756 21.705 148.756 20.235C148.756 18.765 149.461 17.88 150.661 17.88C151.861 17.88 152.566 18.84 152.566 20.235C152.566 21.615 151.861 22.575 150.661 22.575ZM159.334 24.15C161.479 24.15 162.754 23.22 162.754 21.675C162.754 19.905 161.134 19.635 159.799 19.41C158.839 19.245 158.014 19.11 158.014 18.435C158.014 17.88 158.509 17.55 159.334 17.55C160.204 17.55 160.699 18 160.699 18.795H162.544C162.544 17.235 161.344 16.32 159.334 16.32C157.309 16.32 156.109 17.175 156.109 18.6C156.109 20.325 157.669 20.58 158.974 20.79C159.964 20.955 160.849 21.105 160.849 21.9C160.849 22.53 160.294 22.89 159.334 22.89C158.344 22.89 157.759 22.395 157.759 21.555H155.914C155.914 23.19 157.174 24.15 159.334 24.15ZM167.302 17.04V17.775L172.957 20.205V20.235L167.302 22.635V23.37L173.047 20.865V19.56L167.302 17.04Z" fill="white"/>
</svg>
