<svg width="122" height="40" viewBox="0 0 122 40" fill="none" xmlns="http://www.w3.org/2000/svg">
<path d="M120.616 26.9837L104.665 39H1V1H120.616V26.9837Z" stroke="#FF595A" stroke-width="2"/>
<path d="M34.07 12.9L31.25 23.82H31.22L28.415 12.9H26.21L29.315 24H33.02L36.155 12.9H34.07ZM43.6773 20.235C43.6773 17.76 42.2973 16.32 39.9873 16.32C37.6473 16.32 36.2673 17.76 36.2673 20.235C36.2673 22.695 37.6473 24.15 39.9873 24.15C42.0273 24.15 43.4073 23.1 43.6773 21.315H41.7573C41.5623 22.14 40.9173 22.65 39.9873 22.65C38.9223 22.65 38.2623 21.84 38.1873 20.46H43.6773V20.235ZM39.9873 17.805C40.9773 17.805 41.6223 18.525 41.7423 19.785H38.2023C38.3373 18.525 38.9823 17.805 39.9873 17.805ZM49.5023 16.32C48.0773 16.32 47.2223 17.52 47.2223 19.575H47.1923V16.47H45.2123V24H47.1923V20.595C47.1923 19.005 47.8823 18.06 49.0373 18.06C49.4123 18.06 49.7873 18.165 50.0873 18.33L50.6573 16.56C50.3573 16.41 49.9373 16.32 49.5023 16.32ZM63.8587 16.32C62.3737 16.32 61.5037 17.34 61.5037 19.08H61.4737C61.4737 17.385 60.5437 16.32 58.9687 16.32C57.4537 16.32 56.5387 17.34 56.5387 19.08H56.5087V16.47H54.5287V24H56.5087V19.845C56.5087 18.615 57.0937 17.88 58.0987 17.88C58.9837 17.88 59.4937 18.45 59.4937 19.425V24H61.4737V19.845C61.4737 18.615 62.0587 17.88 63.0487 17.88C63.9337 17.88 64.4587 18.45 64.4587 19.425V24H66.4387V19.335C66.4387 17.43 65.4787 16.32 63.8587 16.32ZM74.0879 13.83L73.4579 12.675L70.5029 14.295L71.0579 15.33L74.0879 13.83ZM73.6529 16.47V19.05H73.6229C73.6229 17.34 72.6179 16.32 70.9379 16.32C69.0479 16.32 67.9379 17.775 67.9379 20.235C67.9379 22.695 69.0479 24.15 70.9379 24.15C72.6179 24.15 73.6229 23.13 73.6229 21.405H73.6529V24H75.6329V16.47H73.6529ZM71.8529 22.575C70.6529 22.575 69.9479 21.705 69.9479 20.235C69.9479 18.765 70.6529 17.88 71.8529 17.88C73.0529 17.88 73.7579 18.84 73.7579 20.235C73.7579 21.615 73.0529 22.575 71.8529 22.575ZM80.5254 24.15C82.6704 24.15 83.9454 23.22 83.9454 21.675C83.9454 19.905 82.3254 19.635 80.9904 19.41C80.0304 19.245 79.2054 19.11 79.2054 18.435C79.2054 17.88 79.7004 17.55 80.5254 17.55C81.3954 17.55 81.8904 18 81.8904 18.795H83.7354C83.7354 17.235 82.5354 16.32 80.5254 16.32C78.5004 16.32 77.3004 17.175 77.3004 18.6C77.3004 20.325 78.8604 20.58 80.1654 20.79C81.1554 20.955 82.0404 21.105 82.0404 21.9C82.0404 22.53 81.4854 22.89 80.5254 22.89C79.5354 22.89 78.9504 22.395 78.9504 21.555H77.1054C77.1054 23.19 78.3654 24.15 80.5254 24.15ZM88.4935 17.04V17.775L94.1485 20.205V20.235L88.4935 22.635V23.37L94.2385 20.865V19.56L88.4935 17.04Z" fill="#FF595A"/>
</svg>
