<svg width="221" height="60" viewBox="0 0 221 60" fill="none" xmlns="http://www.w3.org/2000/svg">
<g filter="url(#filter0_d)">
<path d="M193.5 40H10V0H210.116V27.4824L193.5 40Z" fill="#FF595A"/>
<path d="M56.07 12.9L53.25 23.82H53.22L50.415 12.9H48.21L51.315 24H55.02L58.155 12.9H56.07ZM65.6773 20.235C65.6773 17.76 64.2973 16.32 61.9873 16.32C59.6473 16.32 58.2673 17.76 58.2673 20.235C58.2673 22.695 59.6473 24.15 61.9873 24.15C64.0273 24.15 65.4073 23.1 65.6773 21.315H63.7573C63.5623 22.14 62.9173 22.65 61.9873 22.65C60.9223 22.65 60.2623 21.84 60.1873 20.46H65.6773V20.235ZM61.9873 17.805C62.9773 17.805 63.6223 18.525 63.7423 19.785H60.2023C60.3373 18.525 60.9823 17.805 61.9873 17.805ZM71.5023 16.32C70.0773 16.32 69.2223 17.52 69.2223 19.575H69.1923V16.47H67.2123V24H69.1923V20.595C69.1923 19.005 69.8823 18.06 71.0373 18.06C71.4123 18.06 71.7873 18.165 72.0873 18.33L72.6573 16.56C72.3573 16.41 71.9373 16.32 71.5023 16.32ZM80.8187 16.32C79.3937 16.32 78.5387 17.52 78.5387 19.575H78.5087V16.47H76.5287V24H78.5087V20.595C78.5087 19.005 79.1987 18.06 80.3537 18.06C80.7287 18.06 81.1037 18.165 81.4037 18.33L81.9737 16.56C81.6737 16.41 81.2537 16.32 80.8187 16.32ZM89.73 20.235C89.73 17.76 88.35 16.32 86.04 16.32C83.7 16.32 82.32 17.76 82.32 20.235C82.32 22.695 83.7 24.15 86.04 24.15C88.08 24.15 89.46 23.1 89.73 21.315H87.81C87.615 22.14 86.97 22.65 86.04 22.65C84.975 22.65 84.315 21.84 84.24 20.46H89.73V20.235ZM86.04 17.805C87.03 17.805 87.675 18.525 87.795 19.785H84.255C84.39 18.525 85.035 17.805 86.04 17.805ZM94.745 24.15C96.845 24.15 98.18 23.04 98.465 21.105H96.515C96.29 22.035 95.675 22.575 94.745 22.575C93.575 22.575 92.885 21.705 92.885 20.235C92.885 18.765 93.575 17.88 94.745 17.88C95.63 17.88 96.23 18.39 96.485 19.26H98.435C98.135 17.4 96.8 16.32 94.745 16.32C92.315 16.32 90.86 17.775 90.86 20.235C90.86 22.695 92.315 24.15 94.745 24.15ZM103.418 24.15C105.878 24.15 107.333 22.695 107.333 20.235C107.333 17.775 105.878 16.32 103.418 16.32C100.958 16.32 99.488 17.775 99.488 20.235C99.488 22.695 100.958 24.15 103.418 24.15ZM103.418 22.575C102.218 22.575 101.513 21.705 101.513 20.235C101.513 18.765 102.218 17.88 103.418 17.88C104.618 17.88 105.323 18.765 105.323 20.235C105.323 21.705 104.618 22.575 103.418 22.575ZM113.162 16.32C111.737 16.32 110.882 17.52 110.882 19.575H110.852V16.47H108.872V24H110.852V20.595C110.852 19.005 111.542 18.06 112.697 18.06C113.072 18.06 113.447 18.165 113.747 18.33L114.317 16.56C114.017 16.41 113.597 16.32 113.162 16.32ZM119.608 16.32C118.183 16.32 117.328 17.52 117.328 19.575H117.298V16.47H115.318V24H117.298V20.595C117.298 19.005 117.988 18.06 119.143 18.06C119.518 18.06 119.893 18.165 120.193 18.33L120.763 16.56C120.463 16.41 120.043 16.32 119.608 16.32ZM121.763 15.03H123.743V13.155H121.763V15.03ZM121.763 24H123.743V16.47H121.763V24ZM131.044 12.45V19.05H131.014C131.014 17.34 130.009 16.32 128.329 16.32C126.439 16.32 125.329 17.775 125.329 20.235C125.329 22.695 126.439 24.15 128.329 24.15C130.009 24.15 131.014 23.13 131.014 21.405H131.044V24H133.024V12.45H131.044ZM129.244 22.575C128.044 22.575 127.339 21.705 127.339 20.235C127.339 18.765 128.044 17.88 129.244 17.88C130.444 17.88 131.149 18.84 131.149 20.235C131.149 21.615 130.444 22.575 129.244 22.575ZM138.501 24.15C140.961 24.15 142.416 22.695 142.416 20.235C142.416 17.775 140.961 16.32 138.501 16.32C136.041 16.32 134.571 17.775 134.571 20.235C134.571 22.695 136.041 24.15 138.501 24.15ZM138.501 22.575C137.301 22.575 136.596 21.705 136.596 20.235C136.596 18.765 137.301 17.88 138.501 17.88C139.701 17.88 140.406 18.765 140.406 20.235C140.406 21.705 139.701 22.575 138.501 22.575ZM150.912 17.625H150.777V17.595C153.117 17.595 154.497 16.71 154.497 15.225C154.497 13.74 153.147 12.75 150.852 12.75C148.572 12.75 147.147 14.13 146.982 16.455H148.932C149.007 15.165 149.652 14.4 150.672 14.4C151.737 14.4 152.352 14.955 152.352 15.9C152.352 16.845 151.587 17.475 150.297 17.595V19.035H150.582C151.887 19.035 152.667 19.68 152.667 20.775C152.667 21.87 151.947 22.5 150.702 22.5C149.532 22.5 148.812 21.75 148.752 20.46H146.757C146.922 22.785 148.362 24.15 150.672 24.15C153.282 24.15 154.812 22.89 154.812 20.775C154.812 18.795 153.357 17.625 150.912 17.625ZM161.416 16.875C159.451 16.875 158.281 17.925 158.281 19.695H158.251V18.585C158.251 15.96 159.136 14.4 160.636 14.4C161.626 14.4 162.271 15.03 162.391 16.065H164.401C164.221 13.98 162.826 12.75 160.636 12.75C157.816 12.75 156.166 14.94 156.166 18.645C156.166 22.215 157.651 24.15 160.411 24.15C163.021 24.15 164.656 22.68 164.656 20.22C164.656 18.105 163.471 16.875 161.416 16.875ZM160.381 22.5C159.121 22.5 158.266 21.675 158.266 20.325C158.266 19.125 159.061 18.42 160.381 18.42C161.716 18.42 162.526 19.14 162.526 20.385C162.526 21.705 161.716 22.5 160.381 22.5ZM170.285 24.15C172.985 24.15 174.59 22.035 174.59 18.45C174.59 14.865 172.985 12.75 170.285 12.75C167.585 12.75 165.995 14.865 165.995 18.45C165.995 22.035 167.585 24.15 170.285 24.15ZM170.285 22.5C168.935 22.5 168.125 20.985 168.125 18.45C168.125 15.915 168.935 14.4 170.285 14.4C171.65 14.4 172.445 15.915 172.445 18.45C172.445 20.985 171.65 22.5 170.285 22.5ZM178.265 17.535C179.765 17.535 180.665 16.665 180.665 15.18C180.665 13.695 179.765 12.81 178.265 12.81C176.735 12.81 175.835 13.695 175.835 15.18C175.835 16.665 176.735 17.535 178.265 17.535ZM178.265 16.455C177.62 16.455 177.23 15.975 177.23 15.18C177.23 14.385 177.62 13.905 178.265 13.905C178.895 13.905 179.27 14.385 179.27 15.18C179.27 15.975 178.895 16.455 178.265 16.455ZM185.244 17.04V17.775L190.899 20.205V20.235L185.244 22.635V23.37L190.989 20.865V19.56L185.244 17.04Z" fill="white"/>
<path d="M27.7551 13.4821C27.7276 13.4821 27.7001 13.4821 27.6726 13.4546C27.5901 13.4271 27.5351 13.3721 27.5076 13.3171L26.4901 11.3096C26.4076 11.1721 26.4626 10.9796 26.6276 10.9246C26.7651 10.8421 26.9576 10.8971 27.0126 11.0621L27.8926 12.8221L29.6526 11.9421C29.7901 11.8596 29.9826 11.9146 30.0376 12.0796C30.1201 12.2171 30.0651 12.4096 29.9001 12.4646L27.8926 13.4821C27.8651 13.4546 27.8101 13.4821 27.7551 13.4821Z" fill="white"/>
<path d="M31.2201 26.1325C31.1376 26.1325 31.0551 26.105 31.0001 26.05L29.4876 24.3725C29.3776 24.2625 29.3776 24.07 29.5151 23.96L31.1926 22.4475C31.3026 22.3375 31.4951 22.3375 31.6051 22.475C31.7151 22.585 31.7151 22.7775 31.5776 22.8875L30.1201 24.2075L31.4401 25.665C31.5501 25.775 31.5501 25.94 31.4126 26.05C31.3576 26.105 31.3026 26.1325 31.2201 26.1325Z" fill="white"/>
<path d="M31 24.5096C30.56 24.5096 30.12 24.5096 29.68 24.4821C29.515 24.4821 29.405 24.3446 29.405 24.1796C29.405 24.0146 29.5425 23.8771 29.7075 23.9046C30.12 23.9321 30.56 23.9321 31 23.9321C36.6375 23.9321 41.4225 22.1446 41.4225 20.0271C41.4225 18.4596 38.7825 17.0021 34.8775 16.3971C34.7125 16.3696 34.6025 16.2321 34.63 16.0671C34.6575 15.9021 34.795 15.7921 34.96 15.8196C39.2225 16.4521 42 18.1021 42 19.9996C42 22.5296 37.16 24.5096 31 24.5096Z" fill="white"/>
<path d="M27.095 24.2077C27.0675 24.2077 27.0675 24.2077 27.04 24.2077C22.7775 23.5477 20 21.8977 20 20.0002C20 17.4702 24.84 15.4902 31 15.4902C31.605 15.4902 32.21 15.5177 32.815 15.5452C32.98 15.5452 33.09 15.7102 33.09 15.8477C33.09 16.0127 32.9525 16.1227 32.7875 16.1227C32.21 16.0952 31.605 16.0677 31.0275 16.0677C25.3625 16.0952 20.5775 17.8827 20.5775 20.0002C20.5775 21.5677 23.2175 23.0252 27.1225 23.6302C27.2875 23.6577 27.3975 23.7952 27.37 23.9602C27.3425 24.0977 27.2325 24.2077 27.095 24.2077Z" fill="white"/>
<path d="M31 30.9998C28.47 30.9998 26.49 26.1598 26.49 19.9998C26.49 18.6248 26.6 17.3048 26.7925 16.0398C26.82 15.8748 26.9575 15.7648 27.1225 15.7923C27.2875 15.8198 27.3975 15.9573 27.37 16.1223C27.1775 17.3598 27.095 18.6523 27.095 19.9998C27.095 25.6373 28.8825 30.4223 31 30.4223C32.5675 30.4223 34.025 27.7823 34.63 23.8773C34.6575 23.7123 34.795 23.6023 34.96 23.6298C35.125 23.6573 35.235 23.7948 35.2075 23.9598C34.5475 28.2223 32.8975 30.9998 31 30.9998Z" fill="white"/>
<path d="M35.1799 21.155C35.0149 21.155 34.8774 21.0175 34.8774 20.8525C34.8774 20.5775 34.8774 20.275 34.8774 20C34.8774 14.3625 33.0899 9.5775 30.9724 9.5775C29.8724 9.5775 28.7724 10.9525 28.0024 13.2625C27.9474 13.4275 27.7824 13.51 27.6174 13.455C27.4524 13.4 27.3699 13.235 27.4249 13.07C28.3324 10.485 29.5974 9 30.9999 9C33.5299 9 35.5099 13.84 35.5099 20C35.5099 20.3025 35.5099 20.5775 35.5099 20.88C35.4824 21.0175 35.3449 21.155 35.1799 21.155Z" fill="white"/>
</g>
<defs>
<filter id="filter0_d" x="0" y="0" width="220.116" height="60" filterUnits="userSpaceOnUse" color-interpolation-filters="sRGB">
<feFlood flood-opacity="0" result="BackgroundImageFix"/>
<feColorMatrix in="SourceAlpha" type="matrix" values="0 0 0 0 0 0 0 0 0 0 0 0 0 0 0 0 0 0 127 0"/>
<feOffset dy="10"/>
<feGaussianBlur stdDeviation="5"/>
<feColorMatrix type="matrix" values="0 0 0 0 0 0 0 0 0 0 0 0 0 0 0 0 0 0 0.25 0"/>
<feBlend mode="normal" in2="BackgroundImageFix" result="effect1_dropShadow"/>
<feBlend mode="normal" in="SourceGraphic" in2="effect1_dropShadow" result="shape"/>
</filter>
</defs>
</svg>
