<svg width="221" height="60" viewBox="0 0 221 60" fill="none" xmlns="http://www.w3.org/2000/svg">
<g filter="url(#filter0_d_190_1305)">
<path d="M193.5 40H10V0H210.116V27.4824L193.5 40Z" fill="#FF595A"/>
<path d="M74.5713 12.8965H76.6514L73.5166 24H69.8179L66.7124 12.8965H68.917L71.7222 23.8169H71.7515L74.5713 12.8965ZM80.1597 22.396H86.0044V24H78.0869V12.8965H85.8433V14.5078H80.1597V17.5034H85.3159V19.1074H80.1597V22.396ZM95.0278 21.063L96.6904 24H94.3833L91.9663 19.5029H89.9009V24H87.8281V12.8965H92.1348C93.4385 12.8965 94.459 13.1772 95.1963 13.7388C95.9336 14.3003 96.3022 15.0767 96.3022 16.0679C96.3022 17.1421 95.9385 17.9795 95.2109 18.5801C94.4883 19.1758 93.4775 19.4736 92.1787 19.4736V19.5029C92.7891 19.5029 93.3457 19.6396 93.8486 19.9131C94.3564 20.1865 94.7495 20.5698 95.0278 21.063ZM89.9009 17.9868H92.2373C92.8428 17.9868 93.314 17.8306 93.6509 17.5181C93.9878 17.2056 94.1562 16.771 94.1562 16.2144C94.1562 15.6821 93.9878 15.2646 93.6509 14.9619C93.314 14.6592 92.8428 14.5078 92.2373 14.5078H89.9009V17.9868ZM108.028 12.8965H110.108L106.974 24H103.275L100.169 12.8965H102.374L105.179 23.8169H105.208L108.028 12.8965ZM111.544 24V12.8965H113.617V24H111.544ZM116.085 24V12.8965H119.681C121.429 12.8965 122.794 13.3872 123.775 14.3687C124.757 15.3501 125.248 16.71 125.248 18.4482C125.248 20.1865 124.757 21.5464 123.775 22.5278C122.794 23.5093 121.429 24 119.681 24H116.085ZM118.158 22.396H119.806C120.841 22.396 121.649 22.0493 122.23 21.356C122.811 20.6577 123.102 19.6885 123.102 18.4482C123.102 17.208 122.811 16.2412 122.23 15.5479C121.649 14.8545 120.841 14.5078 119.806 14.5078H118.158V22.396ZM129.188 22.396H135.033V24H127.115V12.8965H134.872V14.5078H129.188V17.5034H134.344V19.1074H129.188V22.396ZM141.244 24.1465C139.623 24.1465 138.355 23.646 137.442 22.645C136.534 21.6392 136.08 20.2402 136.08 18.4482C136.08 16.6562 136.534 15.2598 137.442 14.2588C138.355 13.2529 139.623 12.75 141.244 12.75C142.85 12.75 144.105 13.2529 145.008 14.2588C145.917 15.2646 146.371 16.6611 146.371 18.4482C146.371 20.2354 145.917 21.6318 145.008 22.6377C144.105 23.6436 142.85 24.1465 141.244 24.1465ZM141.244 22.4985C142.181 22.4985 142.911 22.1421 143.434 21.4292C143.961 20.7114 144.225 19.7178 144.225 18.4482C144.225 17.1787 143.961 16.1875 143.434 15.4746C142.911 14.7568 142.181 14.3979 141.244 14.3979C140.292 14.3979 139.549 14.7568 139.017 15.4746C138.49 16.1875 138.226 17.1787 138.226 18.4482C138.226 19.7178 138.49 20.7114 139.017 21.4292C139.549 22.1421 140.292 22.4985 141.244 22.4985Z" fill="white"/>
</g>
<defs>
<filter id="filter0_d_190_1305" x="0" y="0" width="220.116" height="60" filterUnits="userSpaceOnUse" color-interpolation-filters="sRGB">
<feFlood flood-opacity="0" result="BackgroundImageFix"/>
<feColorMatrix in="SourceAlpha" type="matrix" values="0 0 0 0 0 0 0 0 0 0 0 0 0 0 0 0 0 0 127 0" result="hardAlpha"/>
<feOffset dy="10"/>
<feGaussianBlur stdDeviation="5"/>
<feColorMatrix type="matrix" values="0 0 0 0 0 0 0 0 0 0 0 0 0 0 0 0 0 0 0.25 0"/>
<feBlend mode="normal" in2="BackgroundImageFix" result="effect1_dropShadow_190_1305"/>
<feBlend mode="normal" in="SourceGraphic" in2="effect1_dropShadow_190_1305" result="shape"/>
</filter>
</defs>
</svg>
